<?xml version="1.0" standalone="no"?>
<!DOCTYPE svg PUBLIC "-//W3C//DTD SVG 1.1//EN" "http://www.w3.org/Graphics/SVG/1.1/DTD/svg11.dtd" >
<svg xmlns="http://www.w3.org/2000/svg" width="100%" height="100%">
<metadata>
Created by FontXChange 20110222 at Tue Oct  5 08:21:26 2021
 By RT
Copyright (c) 2015 by Font Diner Inc. All rights reserved.
</metadata>
<defs>
<font id="FilmotypeHarvard" horiz-adv-x="421" >
  <font-face 
    font-family="FilmotypeHarvard"
    font-weight="400"
    font-stretch="normal"
    units-per-em="1000"
    panose-1="2 0 0 0 0 0 0 0 0 0"
    ascent="750"
    descent="-250"
    x-height="420"
    cap-height="699"
    bbox="-243.955 -275 1349 940"
    underline-thickness="50"
    underline-position="-50"
    unicode-range="U+0020-FB04"
  />
<missing-glyph horiz-adv-x="250" 
 />
    <glyph glyph-name="s_s" unicode="ss" horiz-adv-x="794" 
d="M419 424c0 11 3 19 9 21c29 12 40 15 75 15c29 0 103 -33 120 -36c20 -4 23 -21 23 -27c0 -8 -34 -27 -34 -106c0 -148 136 -169 136 -230c0 -31 -73 -76 -171 -76c-100 0 -172 34 -219 61c-32 -44 -139 -70 -211 -70c-87 0 -170 30 -216 77c-4 4 -8 11 -8 18s4 14 20 14
c11 0 40 -3 66 -3c51 0 100 8 147 23c-31 65 -99 111 -86 212c-9 4 -12 -3 -15 -13c-18 2 -46 6 -46 21c0 17 12 85 19 91c12 16 52 26 75 29c45 -4 180 -24 180 -65c0 -11 -15 -4 -23 -11c-6 -8 -24 -35 -24 -71c0 -54 21 -90 47 -125c70 57 121 140 136 251zM355 68
c20 1 29 18 47 14c14 -14 94 -54 124 -54c29 0 45 18 45 31c0 41 -117 116 -133 224c-22 -42 -60 -101 -124 -149c15 -20 29 -41 41 -66zM31 47c10 -9 49 -24 87 -24c26 0 49 9 52 23c0 6 -2 13 -2 19c-39 -11 -85 -17 -137 -18z" />
    <glyph glyph-name="f_l" unicode="fl" horiz-adv-x="835" 
d="M107 259l-92 3c-7 0 -17 3 -17 7c0 10 7 29 22 29c30 -1 61 -2 89 -2c0 5 1 9 1 12c6 38 26 182 34 222c7 42 18 143 38 152c23 8 93 23 101 25c14 3 69 -15 80 -20c26 -11 65 -22 78 -26c12 -5 23 -13 26 -17c3 -3 12 -32 12 -49c0 -15 -18 -122 -51 -122
c-19 0 -46 19 -46 19c0 29 4 150 -13 150c-6 0 -35 -74 -43 -102c-20 -81 -43 -161 -57 -241c65 3 118 8 166 15c27 135 99 267 148 354c8 9 14 15 29 15c11 2 49 6 69 4c23 -2 119 -24 139 -28c54 -11 67 -72 54 -98c-51 -122 -117 -208 -271 -256
c-43 -140 -51 -277 53 -277c88 0 175 50 192 56c4 1 9 1 12 -2c4 -5 6 -14 6 -16c-57 -41 -124 -76 -210 -76c-200 0 -232 113 -232 218c0 21 1 42 4 63c-49 -6 -104 -9 -165 -11c-1 -11 -3 -21 -3 -32c-3 -26 -20 -171 -9 -243c-14 -6 -29 -4 -43 -4c-6 2 -29 10 -38 10
c-22 0 -67 16 -75 30c-3 4 -3 34 -3 44c0 7 9 124 15 194zM771 540c3 10 20 63 -6 63c-29 0 -93 -112 -141 -236c97 46 124 110 147 173z" />
    <glyph glyph-name="f_i" unicode="fi" horiz-adv-x="741" 
d="M500 648c-43 20 -47 20 -108 -16c-29 -17 -51 -92 -57 -113c-8 -31 -34 -117 -37 -151c40 7 130 18 181 30c3 1 6 2 8 2c6 1 26 -1 44 -4c21 0 38 2 46 0c24 -4 58 -23 70 -24c-15 -38 -52 -175 -52 -238s26 -85 61 -85c34 0 92 26 104 30c8 3 19 4 23 -2
c3 -6 6 -13 -3 -21c-7 -6 -62 -50 -188 -50c-125 0 -164 73 -164 145c0 50 16 132 26 188l-163 -22c-13 -36 -16 -64 -19 -89c-3 -26 -20 -171 -9 -243c-14 -6 -29 -4 -43 -4c-6 2 -29 10 -38 10c-21 0 -67 16 -75 30c-3 4 -3 34 -3 44c0 9 12 205 14 233
c-22 -2 -118 -12 -118 2c0 10 2 25 20 29c17 2 87 11 107 15c6 38 18 125 26 165c8 42 32 170 73 193c23 8 94 23 101 25c14 3 114 -22 124 -27c26 -11 187 -43 199 -47c12 -5 23 -13 26 -17c3 -3 12 -32 12 -49c0 -15 -88 -108 -120 -108c-20 0 -54 19 -54 19
c0 29 3 150 -14 150z" />
    <glyph glyph-name="f_f_i" unicode="ffi" horiz-adv-x="1155" 
d="M190 623c23 8 93 23 101 25c13 3 69 -15 79 -20c26 -11 66 -22 78 -26c13 -5 23 -13 26 -17c3 -3 13 -32 13 -49c0 -15 -19 -122 -51 -122c-20 0 -46 19 -46 19c0 29 3 150 -14 150c-6 0 -35 -74 -42 -102c-8 -31 -34 -120 -37 -154c35 2 134 13 246 26
c6 42 17 119 25 156c7 42 32 170 73 193c23 8 93 23 101 25c14 3 113 -22 124 -27c26 -11 187 -43 199 -47c12 -5 23 -13 26 -17c3 -3 12 -32 12 -49c0 -15 -89 -108 -121 -108c-20 0 -53 19 -53 19c0 29 3 150 -14 150c-43 20 -47 20 -109 -16c-29 -17 -50 -92 -56 -113
c-8 -30 -31 -108 -37 -145c73 9 139 18 181 24c3 1 6 2 7 2c6 1 26 -1 45 -4c21 0 38 2 45 0c25 -4 59 -23 71 -24c-15 -38 -52 -175 -52 -238s26 -85 61 -85c34 0 92 26 104 30c8 3 18 4 23 -2c3 -6 6 -13 -3 -21c-8 -6 -63 -50 -188 -50c-126 0 -164 73 -164 145
c0 49 14 128 25 184l-164 -16c-11 -33 -14 -68 -17 -91c-3 -26 -20 -171 -9 -243c-14 -6 -29 -4 -43 -4c-6 2 -29 10 -38 10c-22 0 -68 16 -75 30c-3 4 -3 34 -3 44c0 8 13 194 16 238l-247 -24c-13 -36 -11 -44 -14 -69c-3 -26 -22 -160 -11 -232c-14 -6 -29 -4 -43 -4
c-35 11 -98 13 -113 40c-3 4 -3 34 -3 44c0 9 11 174 12 202c-21 -2 -118 -12 -118 2c0 10 2 25 20 29c17 2 88 11 107 15c7 38 19 125 26 165c8 42 19 143 39 152z" />
    <glyph glyph-name="f_f_l" unicode="ffl" horiz-adv-x="1227" 
d="M476 65c4 79 9 144 14 196c-68 0 -140 0 -213 2c-3 -18 -6 -35 -8 -53c-3 -26 -21 -160 -10 -232c-14 -6 -30 -4 -43 -4c-35 11 -98 13 -113 40c-4 4 -4 34 -4 44c0 7 8 129 17 210l-101 4c-7 0 -17 3 -17 7c0 10 7 29 22 29l101 -3v1c6 38 18 125 26 165
c8 42 18 143 38 152c23 8 93 23 101 25c14 3 69 -15 80 -20c26 -11 65 -22 78 -26c12 -5 23 -13 26 -17c3 -3 12 -32 12 -49c0 -15 -18 -122 -51 -122c-19 0 -45 19 -45 19c0 29 3 150 -14 150c-6 0 -35 -74 -43 -102c-15 -62 -32 -121 -44 -180c73 -1 143 0 211 1l10 90
c11 67 15 97 19 117c7 42 18 143 38 152c23 8 93 23 101 25c14 3 69 -15 80 -20c26 -11 65 -22 78 -26c12 -5 23 -13 26 -17c3 -3 12 -32 12 -49c0 -15 -19 -122 -51 -122c-20 0 -46 19 -46 19c0 29 4 150 -13 150c-6 0 -35 -74 -43 -102c-14 -54 -28 -106 -40 -158l-11 -52
c63 5 123 11 175 21c30 129 98 255 145 338c8 9 14 15 29 15c11 2 49 6 69 4c23 -2 119 -24 139 -28c54 -11 65 -71 54 -98c-46 -117 -136 -191 -263 -235c-49 -147 -63 -298 46 -298c87 0 174 50 191 56c4 1 9 1 12 -2c5 -5 6 -14 6 -16c-56 -41 -124 -76 -209 -76
c-201 0 -233 113 -233 218c0 25 2 50 6 75c-55 -8 -113 -14 -174 -17c-3 -15 -3 -26 -5 -38c-3 -26 -20 -171 -9 -243c-14 -6 -29 -4 -43 -4c-6 2 -29 10 -38 10c-22 0 -67 16 -75 30c-3 4 -3 34 -3 44zM1164 540c3 10 20 63 -6 63c-27 0 -85 -98 -131 -212
c68 35 116 83 137 149z" />
    <glyph glyph-name="f_j" unicode="fj" horiz-adv-x="719" 
d="M500 648c-43 20 -47 20 -108 -16c-29 -17 -51 -92 -57 -113c-8 -31 -34 -117 -37 -151c39 7 126 17 176 29l8 2c44 2 69 -10 81 -15c23 -10 96 -23 96 -36c0 -6 -23 -10 -26 -34c-3 -14 -29 -209 -35 -266s-17 -217 -52 -238c-38 -23 -96 -53 -139 -53
c-44 0 -164 21 -230 85c-12 12 -12 42 11 42s43 -10 51 -15c6 -5 72 -49 98 -49s33 2 33 2c20 26 48 91 57 163c11 62 26 258 29 354l-165 -22c-13 -36 -16 -64 -19 -89c-3 -26 -20 -171 -9 -243c-14 -6 -29 -4 -43 -4c-6 2 -29 10 -38 10c-21 0 -67 16 -75 30
c-3 4 -3 34 -3 44c0 9 12 205 14 233c-22 -2 -118 -12 -118 2c0 10 2 25 20 29c17 2 87 11 107 15c6 38 18 125 26 165c8 42 32 170 73 193c23 8 94 23 101 25c14 3 114 -22 124 -27c26 -11 187 -43 199 -47c12 -5 23 -13 26 -17c3 -3 12 -32 12 -49
c0 -15 -88 -108 -120 -108c-20 0 -54 19 -54 19c0 29 3 150 -14 150z" />
    <glyph glyph-name="f_f_j" unicode="ffj" horiz-adv-x="1134" 
d="M190 623c23 8 93 23 101 25c13 3 69 -15 79 -20c26 -11 66 -22 78 -26c13 -5 23 -13 26 -17c3 -3 13 -32 13 -49c0 -15 -19 -122 -51 -122c-20 0 -46 19 -46 19c0 29 3 150 -14 150c-6 0 -35 -74 -42 -102c-8 -31 -34 -120 -37 -154c35 2 134 13 246 26
c6 42 17 119 25 156c7 42 32 170 73 193c23 8 93 23 101 25c14 3 113 -22 124 -27c26 -11 187 -43 199 -47c12 -5 23 -13 26 -17c3 -3 12 -32 12 -49c0 -15 -89 -108 -121 -108c-20 0 -53 19 -53 19c0 29 3 150 -14 150c-43 20 -47 20 -109 -16c-29 -17 -50 -92 -56 -113
c-8 -30 -31 -108 -37 -145c73 9 138 18 179 24l5 1c44 2 68 -10 81 -15c23 -10 96 -23 96 -36c0 -6 -23 -10 -26 -34c-3 -14 -29 -209 -35 -266s-17 -217 -52 -238c-38 -23 -97 -53 -139 -53c-45 0 -164 21 -230 85c-12 12 -12 42 11 42s43 -10 50 -15c6 -5 72 -49 98 -49
s34 2 34 2c20 26 47 91 56 163c11 61 27 253 30 350l-167 -16c-11 -33 -14 -68 -17 -91c-3 -26 -20 -171 -9 -243c-14 -6 -29 -4 -43 -4c-6 2 -29 10 -38 10c-22 0 -68 16 -75 30c-3 4 -3 34 -3 44c0 8 13 194 16 238l-247 -24c-13 -36 -11 -44 -14 -69
c-3 -26 -22 -160 -11 -232c-14 -6 -29 -4 -43 -4c-35 11 -98 13 -113 40c-3 4 -3 34 -3 44c0 9 11 174 12 202c-21 -2 -118 -12 -118 2c0 10 2 25 20 29c17 2 88 11 107 15c7 38 19 125 26 165c8 42 19 143 39 152z" />
    <glyph glyph-name="f_r" unicode="fr" horiz-adv-x="967" 
d="M809 437c29 -8 77 -25 89 -29c12 -5 23 -13 26 -17c3 -3 12 -32 12 -49c0 -15 -18 -122 -50 -122c-20 0 -78 19 -78 19c0 29 -19 89 -35 89l-11 -2c-14 -19 -87 -195 -100 -239c-10 -43 -13 -81 -16 -83c-20 -8 -46 1 -68 0c-16 2 -81 24 -87 28c0 2 -6 25 -8 34
c0 10 0 203 8 254c-1 4 -15 12 -30 17c-7 2 -40 1 -52 0c-36 -3 -77 -7 -120 -10c-12 -55 -15 -79 -17 -99c-3 -26 -20 -171 -9 -243c-14 -6 -29 -4 -43 -4c-6 2 -29 10 -38 10c-21 0 -67 16 -75 30c-3 4 -3 34 -3 44c0 8 12 199 15 250c-46 -3 -82 -5 -95 -5
c-7 0 -22 0 -24 7c0 10 2 25 20 29c24 2 64 7 109 12c7 43 16 115 24 151c8 42 18 143 38 152c23 8 94 23 101 25c14 3 69 -15 80 -20c26 -11 66 -22 78 -26c12 -5 23 -13 26 -17c3 -3 12 -32 12 -49c0 -15 -18 -122 -50 -122c-20 0 -46 19 -46 19c0 29 3 150 -14 150
c-6 0 -35 -74 -43 -102c-8 -27 -27 -97 -35 -137c76 11 148 24 191 35c11 7 51 -1 61 -1c29 4 88 -7 88 -18c0 -9 -2 -10 -4 -18c-3 -11 -16 -205 -19 -249c21 56 52 142 76 197c14 29 58 114 75 114c9 -1 25 0 41 -5z" />
    <glyph glyph-name="f_f_r" unicode="ffr" horiz-adv-x="1380" 
d="M271 210c-3 -26 -22 -160 -11 -232c-14 -6 -29 -4 -43 -4c-35 11 -98 13 -113 40c-3 4 -3 34 -3 44c0 8 12 169 15 213c-50 -5 -84 -8 -92 -8c-7 0 -22 0 -24 7c0 10 2 25 20 29c17 1 53 5 102 10c7 40 19 123 26 162c8 42 19 143 39 152c23 8 93 23 101 25
c13 3 68 -15 79 -20c26 -11 66 -22 78 -26c12 -5 23 -13 26 -17c3 -3 12 -32 12 -49c0 -15 -18 -122 -50 -122c-20 0 -46 19 -46 19c0 29 3 150 -14 150c-6 0 -35 -74 -43 -102c-13 -53 -27 -103 -38 -153c78 9 164 19 248 30c6 42 17 115 25 151c7 42 18 143 38 152
c23 8 93 23 101 25c14 3 69 -15 79 -20c26 -11 66 -22 78 -26c13 -5 23 -13 26 -17c3 -3 13 -32 13 -49c0 -15 -19 -122 -51 -122c-20 0 -46 19 -46 19c0 29 3 150 -14 150c-6 0 -35 -74 -42 -102c-13 -47 -25 -92 -36 -137c80 12 149 24 193 35c11 7 51 -1 61 -1
c29 4 88 -7 88 -18c0 -9 -2 -10 -3 -18c-3 -11 -17 -205 -20 -249c21 56 52 142 76 197c14 29 58 114 75 114c9 -1 25 0 41 -5c30 -8 77 -25 89 -29c12 -5 23 -13 26 -17c3 -3 12 -32 12 -49c0 -15 -18 -122 -50 -122c-20 0 -78 19 -78 19c0 29 -18 89 -35 89l-11 -2
c-14 -19 -87 -195 -99 -239c-11 -43 -14 -81 -17 -83c-20 -8 -46 1 -68 0c-16 2 -81 24 -87 28c0 2 -6 25 -7 34c0 10 0 203 7 254c-1 4 -15 12 -30 17c-6 2 -40 0 -52 0c-25 -1 -69 -4 -123 -9c-6 -30 -12 -72 -15 -100c-3 -26 -20 -171 -9 -243c-14 -6 -29 -4 -43 -4
c-6 2 -29 10 -38 10c-22 0 -68 16 -75 30c-3 4 -3 34 -3 44c0 7 13 170 19 248l-252 -25c-6 -26 -9 -52 -12 -78z" />
    <glyph glyph-name="f_f" unicode="ff" horiz-adv-x="857" 
d="M190 623c23 8 93 23 101 25c13 3 69 -15 79 -20c26 -11 66 -22 78 -26c13 -5 23 -13 26 -17c3 -3 13 -32 13 -49c0 -15 -19 -122 -51 -122c-20 0 -46 19 -46 19c0 29 3 150 -14 150c-6 0 -35 -74 -42 -102c-8 -31 -34 -120 -37 -154c15 1 130 10 245 20
c6 39 18 123 26 162c7 42 18 143 38 152c23 8 93 23 101 25c14 3 69 -15 79 -20c26 -11 66 -22 78 -26c13 -5 23 -13 26 -17c4 -3 13 -32 13 -49c0 -15 -19 -122 -51 -122c-20 0 -46 19 -46 19c0 29 3 150 -13 150c-7 0 -36 -74 -43 -102c-14 -54 -28 -106 -40 -158
c43 3 73 6 75 6c9 0 32 -4 38 -8c5 -4 8 -15 8 -19s-8 -9 -26 -11c-5 -1 -46 -5 -104 -10c-6 -31 -11 -61 -14 -91c-3 -26 -20 -171 -9 -243c-14 -6 -29 -4 -43 -4c-6 2 -29 10 -38 10c-22 0 -68 16 -75 30c-3 4 -3 34 -3 44c0 8 15 192 18 238c-121 -11 -239 -22 -249 -24
c-13 -36 -11 -44 -14 -69c-3 -26 -22 -160 -11 -232c-14 -6 -29 -4 -43 -4c-35 11 -98 13 -113 40c-3 4 -3 34 -3 44c0 9 11 174 12 202c-21 -2 -118 -12 -118 2c0 10 2 25 20 29c17 2 88 11 107 15c7 38 19 125 26 165c8 42 19 143 39 152z" />
    <glyph glyph-name="f_s" unicode="fs" horiz-adv-x="900" 
d="M549 324c-73 -27 -180 -38 -267 -41c-17 -93 -31 -212 -19 -298c-14 -6 -29 -4 -43 -4c-6 2 -29 10 -38 10c-21 0 -67 16 -75 30c-3 4 -3 34 -3 44c0 8 9 164 12 218c-40 1 -116 7 -116 17s2 25 20 29c4 0 44 -3 101 -5c6 40 24 146 32 185c8 42 18 143 38 152
c23 8 94 23 101 25c14 3 69 -15 80 -20c26 -11 66 -22 78 -26c12 -5 23 -13 26 -17c3 -3 12 -32 12 -49c0 -15 -18 -122 -50 -122c-20 0 -46 19 -46 19c0 29 3 150 -14 150c-6 0 -35 -74 -43 -102c-8 -30 -41 -154 -46 -192c107 8 220 32 288 90c6 2 23 13 35 15
c11 0 61 -10 69 -15c6 -4 3 -8 9 -10s69 -13 73 -16c11 -6 7 -24 4 -30c-4 -6 -39 -27 -39 -72c0 -111 126 -141 126 -202c0 -32 -20 -72 -68 -85c-45 -12 -87 -19 -145 -19c-70 0 -153 26 -237 97c-3 3 6 12 15 15s23 2 32 -2c14 -8 117 -74 164 -74c60 0 64 28 64 46
c0 37 -154 156 -130 259z" />
    <glyph glyph-name="f_f_s" unicode="ffs" horiz-adv-x="1342" 
d="M603 661c23 8 93 23 101 25c14 3 69 -15 79 -20c26 -11 66 -22 78 -26c13 -5 23 -13 26 -17c3 -3 13 -32 13 -49c0 -15 -19 -122 -51 -122c-20 0 -46 19 -46 19c0 29 3 150 -14 150c-6 0 -35 -74 -42 -102c-8 -27 -36 -131 -45 -179c129 14 239 37 286 77
c6 2 23 13 36 15c10 0 61 -10 68 -15c7 -4 3 -8 10 -10c6 -2 68 -13 73 -16c11 -6 6 -24 3 -30s-38 -27 -38 -72c0 -111 125 -141 125 -202c0 -32 -20 -72 -67 -85c-46 -12 -87 -19 -145 -19c-71 0 -153 26 -238 97c-3 3 7 12 16 15s23 2 32 -2c14 -8 116 -74 164 -74
c59 0 64 28 64 46c0 37 -155 156 -130 259c-46 -17 -149 -28 -266 -34v-1c-17 -94 -33 -216 -20 -304c-14 -6 -29 -4 -43 -4c-6 2 -29 10 -38 10c-22 0 -68 16 -75 30c-3 4 -3 34 -3 44c0 8 9 166 12 219c-93 -2 -175 -2 -246 -2c-5 -24 -8 -48 -11 -72
c-3 -26 -22 -160 -11 -232c-14 -6 -29 -4 -43 -4c-35 11 -98 13 -113 40c-3 4 -3 34 -3 44c0 9 14 193 15 221v4c-41 1 -113 7 -113 17s2 25 20 29c3 0 41 -2 102 -3c7 43 16 111 23 145c8 42 19 143 39 152c23 8 93 23 101 25c13 3 68 -15 79 -20c26 -11 66 -22 78 -26
c12 -5 23 -13 26 -17c3 -3 12 -32 12 -49c0 -15 -18 -122 -50 -122c-20 0 -46 19 -46 19c0 29 3 150 -14 150c-6 0 -35 -74 -43 -102c-13 -54 -27 -106 -39 -158c75 0 159 1 241 5c8 43 25 143 33 181c7 42 18 143 38 152z" />
    <glyph glyph-name="f_t" unicode="ft" horiz-adv-x="825" 
d="M669 392c-14 -57 -36 -175 -36 -230c0 -57 0 -118 88 -118c58 0 102 26 114 32c6 -1 13 -2 20 -6c6 -3 9 -11 6 -13c-18 -13 -81 -53 -171 -53c-168 0 -213 126 -213 209c0 55 8 118 17 169l-199 -13c-10 -48 -18 -96 -23 -141c-3 -26 -20 -171 -9 -243
c-14 -6 -29 -4 -43 -4c-6 2 -29 10 -38 10c-21 0 -67 16 -75 30c-3 4 -3 34 -3 44c0 9 17 218 18 246l5 33c0 4 2 9 2 15c-54 -3 -95 -5 -101 -4c-23 2 -26 11 -28 13c0 2 5 14 11 16c1 1 55 6 124 12c4 45 10 100 16 127c8 42 19 143 39 152c23 8 93 23 101 25
c13 3 69 -15 79 -20c26 -11 66 -22 78 -26c13 -5 23 -13 26 -17c3 -3 13 -32 13 -49c0 -15 -17 -97 -49 -97c-20 0 -46 19 -46 19c0 29 1 125 -16 125c-6 0 -35 -74 -42 -102c-11 -40 -20 -81 -30 -122c98 9 186 17 196 19l17 93c3 17 12 63 32 67c17 2 66 -7 91 -14
c22 -7 64 -15 65 -34c0 -19 -23 -89 -26 -104c58 2 132 7 144 7c12 1 25 -5 25 -13c3 -22 -155 -39 -179 -40z" />
    <glyph glyph-name="f_f_t" unicode="fft" horiz-adv-x="1236" 
d="M271 210c-3 -26 -22 -160 -11 -232c-14 -6 -29 -4 -43 -4c-35 11 -98 13 -113 40c-3 4 -3 34 -3 44c0 9 14 193 15 221l6 27l5 26c-57 -3 -95 -5 -99 -4c-23 2 -26 11 -28 13c0 2 5 14 11 16c1 0 49 5 121 10c4 38 12 79 16 104c8 42 19 143 39 152c23 8 93 23 101 25
c13 3 68 -15 79 -20c26 -11 66 -22 78 -26c12 -5 23 -13 26 -17c3 -3 12 -32 12 -49c0 -15 -12 -95 -44 -95c-20 0 -46 19 -46 19c0 29 -3 123 -20 123c-6 0 -35 -74 -43 -102l-26 -100l225 17c6 39 13 85 19 111c7 42 18 143 38 152c23 8 93 23 101 25c14 3 69 -15 80 -20
c26 -11 65 -22 78 -26c12 -5 23 -13 26 -17c3 -3 12 -32 12 -49c0 -15 -19 -113 -51 -113c-20 0 -46 19 -46 19c0 29 3 141 -13 141c-6 0 -36 -74 -43 -102l-28 -107c115 9 202 16 210 18l17 93c3 17 12 63 32 67c17 2 66 -7 90 -14c23 -7 64 -15 66 -34
c0 -19 -23 -89 -26 -104c58 2 131 7 144 7c12 1 24 -5 24 -13c3 -22 -154 -39 -179 -40c-14 -57 -35 -175 -35 -230c0 -57 0 -118 87 -118c58 0 103 26 115 32c6 -1 12 -2 20 -6c6 -3 9 -11 6 -13c-18 -13 -81 -53 -171 -53c-169 0 -213 126 -213 209c0 55 8 118 17 169
l-214 -15c-2 -2 -2 -4 -2 -6l-6 -26c-6 -31 -14 -77 -17 -107c-3 -26 -20 -171 -9 -243c-14 -6 -29 -4 -43 -4c-6 2 -29 10 -38 10c-22 0 -68 16 -75 30c-3 4 -3 34 -3 44c0 8 20 236 23 282c0 3 0 6 1 9l-228 -14c-10 -45 -20 -88 -24 -132z" />
    <glyph glyph-name="f_y" unicode="fy" horiz-adv-x="947" 
d="M488 383c6 2 20 4 23 4s15 -4 20 -4c21 0 43 -11 57 -18c0 -17 -68 -145 -68 -266c0 -36 14 -76 35 -76c75 0 163 285 163 364c0 12 -13 33 -14 37c-3 5 1 11 11 15c33 1 45 23 68 23c65 0 89 -23 130 -43c13 -8 -16 -50 -30 -104c-43 -173 -78 -347 -90 -518
c0 -4 3 -24 0 -27c-4 -4 -31 -15 -48 -15c-29 0 -107 12 -118 30c-3 89 8 178 23 264c-14 -21 -40 -62 -90 -62c-49 0 -80 30 -87 39c-19 22 -31 48 -31 94c0 50 17 151 34 220l-185 -23c-13 -36 -16 -64 -19 -89c-3 -26 -20 -171 -9 -243c-14 -6 -29 -4 -43 -4
c-6 2 -29 10 -38 10c-21 0 -67 16 -75 30c-3 4 -3 34 -3 44c0 9 12 205 14 233c-22 -2 -118 -12 -118 2c0 10 2 25 20 29c17 2 87 11 107 15c6 38 18 125 26 165c8 42 18 143 38 152c23 8 94 23 101 25c14 3 69 -15 80 -20c26 -11 66 -22 78 -26c12 -5 23 -13 26 -17
c3 -3 12 -32 12 -49c0 -15 -18 -122 -50 -122c-20 0 -46 19 -46 19c0 29 3 150 -14 150c-6 0 -35 -74 -43 -102c-8 -31 -34 -120 -37 -154c26 1 147 14 190 18z" />
    <glyph glyph-name="f_f_y" unicode="ffy" horiz-adv-x="1366" 
d="M190 623c23 8 93 23 101 25c13 3 69 -15 79 -20c26 -11 66 -22 78 -26c13 -5 23 -13 26 -17c3 -3 13 -32 13 -49c0 -15 -19 -122 -51 -122c-20 0 -46 19 -46 19c0 29 3 150 -14 150c-6 0 -35 -74 -42 -102c-8 -31 -34 -120 -37 -154c15 1 130 10 245 20
c6 39 18 123 26 162c7 42 18 143 38 152c23 8 93 23 101 25c14 3 69 -15 79 -20c26 -11 66 -22 78 -26c13 -5 23 -13 26 -17c4 -3 13 -32 13 -49c0 -15 -19 -122 -51 -122c-20 0 -46 19 -46 19c0 29 3 150 -13 150c-7 0 -36 -74 -43 -102c-14 -54 -28 -103 -40 -155
c43 3 202 19 203 19c3 0 5 -1 7 -1c9 -1 24 -3 29 -3c21 0 42 -15 56 -22c0 -17 -66 -137 -66 -258c0 -36 14 -76 36 -76c75 0 162 285 162 364c0 12 -12 33 -14 37c-3 5 2 11 11 15c33 1 46 23 69 23c64 0 88 -23 130 -43c12 -8 -17 -50 -31 -104
c-43 -173 -78 -347 -90 -518c0 -4 3 -24 0 -27c-3 -4 -31 -15 -48 -15c-29 0 -107 12 -117 30c-4 89 7 178 22 264c-13 -21 -39 -62 -90 -62c-49 0 -79 30 -87 39c-18 22 -31 48 -31 94c0 50 19 146 34 215c-54 -6 -153 -16 -194 -19c-6 -31 -11 -58 -14 -88
c-3 -26 -20 -171 -9 -243c-14 -6 -29 -4 -43 -4c-6 2 -29 10 -38 10c-22 0 -68 16 -75 30c-3 4 -3 34 -3 44c0 8 15 189 18 235c-121 -11 -239 -22 -249 -24c-13 -36 -11 -41 -14 -66c-3 -26 -22 -160 -11 -232c-14 -6 -29 -4 -43 -4c-35 11 -98 13 -113 40
c-3 4 -3 34 -3 44c0 9 11 174 12 202c-21 -2 -118 -12 -118 2c0 10 2 25 20 29c17 2 88 11 107 15c7 38 19 125 26 165c8 42 19 143 39 152z" />
    <glyph glyph-name="t_t" unicode="tt" horiz-adv-x="765" 
d="M66 507l17 81c3 17 12 63 32 67c17 2 66 -7 90 -14c23 -7 67 -15 69 -34c0 -16 -12 -70 -20 -94c61 1 127 3 200 5c5 26 11 68 16 88c3 17 12 63 32 67c17 2 66 -7 90 -14c23 -7 67 -15 69 -34c0 -14 -12 -69 -21 -104c67 0 168 3 179 3c12 0 22 -9 22 -17
c0 -13 -44 -22 -68 -25c-32 -4 -95 -8 -149 -10c-20 -75 -50 -260 -50 -310c0 -57 0 -118 87 -118c58 0 102 26 115 32c6 -1 12 -2 20 -6c6 -3 9 -11 6 -13c-19 -13 -81 -53 -172 -53c-168 0 -212 126 -212 209c0 48 15 162 29 256l-205 -2c-22 -102 -51 -256 -51 -305
c0 -57 0 -118 87 -118c42 0 74 11 91 17c6 -1 12 -2 20 -6c6 -3 9 -11 6 -13c-19 -13 -77 -38 -147 -38c-168 0 -213 126 -213 209c0 88 9 170 23 252c-115 -1 -206 -1 -216 0c-23 3 -26 10 -26 12s10 14 16 15c30 6 110 11 234 15z" />
    <glyph glyph-name="t_f" unicode="tf" horiz-adv-x="838" 
d="M557 676c23 8 93 23 101 25c14 3 69 -15 79 -20c26 -11 66 -22 78 -26c13 -5 23 -13 26 -17c4 -3 13 -32 13 -49c0 -15 -9 -79 -42 -79c-19 0 -45 19 -45 19c0 29 -7 107 -23 107c-7 0 -36 -74 -43 -102l-23 -81c52 1 95 1 124 1c12 0 23 -10 23 -18
c0 -13 -48 -29 -72 -32c-11 -2 -43 -3 -86 -3c-17 -78 -26 -150 -29 -173c-3 -26 -20 -171 -9 -243c-14 -6 -29 -4 -43 -4c-6 2 -29 10 -38 10c-22 0 -68 16 -75 30c-3 4 -3 34 -3 44c0 45 15 208 30 334h-272c-20 -83 -37 -172 -37 -237c0 -57 0 -118 87 -118
c59 0 86 26 98 32c6 -1 13 -2 20 -6c6 -3 9 -11 6 -13c-18 -13 -64 -53 -154 -53c-168 0 -213 126 -213 209c0 38 9 124 19 189c-48 2 -92 4 -104 6c-23 3 -27 10 -27 12s16 20 22 20l115 3l4 26l23 137c3 17 12 63 32 67c17 2 66 -7 91 -14c23 -7 68 -15 68 -34
c0 -27 -19 -96 -39 -178c88 2 182 3 267 4l13 73c7 42 18 143 38 152z" />
    <glyph glyph-name="t_t_f" unicode="ttf" horiz-adv-x="1207" 
d="M656 491l-10 -39l243 3c3 28 8 51 11 69c7 42 18 143 38 152c23 8 93 23 101 25c14 3 69 -15 79 -20c26 -11 66 -22 78 -26c13 -5 23 -13 26 -17c4 -3 13 -32 13 -49c0 -15 -9 -79 -42 -79c-19 0 -46 19 -46 19c0 29 -6 107 -22 107c-7 0 -36 -74 -43 -102l-22 -77
c57 1 100 1 124 1c12 0 23 -10 23 -18c0 -13 -47 -29 -72 -32c-7 -1 -40 -2 -85 -3c-19 -79 -28 -154 -31 -177c-3 -26 -20 -171 -9 -243c-14 -6 -29 -4 -43 -4c-6 2 -29 10 -38 10c-22 0 -68 16 -75 30c-3 4 -3 34 -3 44c0 46 15 211 30 338c-75 -1 -162 -2 -246 -2
c-18 -87 -35 -201 -35 -239c0 -57 0 -118 87 -118c41 0 78 15 90 21c6 -1 12 -2 20 -6c6 -3 9 -11 6 -13c-18 -13 -67 -42 -147 -42c-168 0 -212 126 -212 209c0 37 7 112 18 187c-101 -1 -182 -1 -236 -1c-18 -91 -35 -196 -35 -237c0 -57 0 -118 87 -118c42 0 74 11 91 17
c6 -1 12 -2 20 -6c6 -3 9 -11 6 -13c-19 -13 -77 -38 -147 -38c-168 0 -213 126 -213 209c0 66 5 128 14 189c-46 2 -87 4 -99 6c-23 3 -27 10 -27 12s16 20 22 20l110 3c8 47 17 95 28 145c3 17 12 63 32 67c17 2 66 -7 90 -14c23 -7 67 -15 69 -34
c0 -19 -22 -107 -28 -122l-9 -38l233 3l9 56l17 100c3 17 12 63 32 67c17 2 66 -7 90 -14c23 -7 67 -15 69 -34c0 -19 -25 -119 -31 -134z" />
    <glyph glyph-name=".notdef" horiz-adv-x="250" 
 />
    <glyph glyph-name="B" unicode="B" horiz-adv-x="838" 
d="M141 678c0 12 -2 21 -2 31c0 8 29 17 37 17c12 0 47 -19 61 -19c20 0 34 -6 52 -12c58 4 71 6 103 6c116 0 157 -16 252 -59c64 -30 116 -66 116 -112c0 -89 -139 -150 -191 -167c116 -38 224 -127 224 -190c0 -65 -101 -179 -320 -179c-113 0 -188 25 -210 31
c-4 -8 -6 -29 -23 -29c-6 0 -26 12 -32 12s-40 -4 -46 -2s-15 17 -21 17c-5 2 -43 9 -52 19c-6 11 -11 36 -11 55c-2 113 25 394 52 509c-20 0 -44 -2 -47 0c-22 11 -52 17 -52 34c0 8 4 15 6 19c23 6 90 17 104 19zM435 298c-59 0 -105 -5 -150 -11
c-11 -69 -19 -134 -16 -182c42 -12 152 -8 230 13s174 93 148 131c-26 40 -151 49 -212 49zM373 633c-17 -40 -43 -124 -62 -217c174 38 287 122 287 156c0 28 -14 44 -35 53c-38 13 -136 13 -190 8z" />
    <glyph glyph-name="C" unicode="C" horiz-adv-x="646" 
d="M311 735c21 0 35 -9 47 -13c11 -4 52 -6 67 -9c5 0 34 -14 75 -31c58 -26 130 -68 130 -140c0 -84 -52 -160 -62 -170c-10 -11 -36 -38 -55 -38c-22 0 -22 8 -30 12c-12 4 -70 32 -70 61c0 26 17 78 32 104c14 25 35 70 26 74c-12 6 -49 -15 -70 -38
c-20 -23 -201 -213 -201 -397c0 -112 114 -114 140 -114c76 0 154 27 215 57c13 6 16 2 20 2h13c3 -2 6 -9 6 -11c3 -4 6 -6 6 -10s-117 -99 -262 -99c-148 0 -257 107 -265 122c-9 15 -35 74 -35 129c0 78 49 323 273 509z" />
    <glyph glyph-name="D" unicode="D" horiz-adv-x="800" 
d="M122 697c0 8 -6 23 3 23c7 0 17 2 23 0l55 -21c152 10 261 -26 375 -81c98 -47 172 -100 178 -122c14 -24 21 -78 21 -99c0 -91 -61 -194 -174 -277c-126 -91 -268 -135 -306 -135c-32 0 -54 27 -135 27c-17 0 -82 17 -92 30c-23 135 16 399 36 585c-16 4 -48 2 -52 2
c-16 0 -54 25 -54 36c0 2 9 6 12 6c-3 2 -6 5 -6 5c17 11 92 17 116 21zM323 599c-64 -120 -81 -357 -84 -479c6 -6 29 -4 47 -2c162 40 321 144 321 329c0 119 -104 134 -127 138c-23 6 -134 15 -157 14z" />
    <glyph glyph-name="E" unicode="E" horiz-adv-x="606" 
d="M219 68c0 -3 6 -3 6 -3c23 0 190 5 206 5c17 0 123 -3 134 -7c12 -4 26 -14 26 -19c0 -6 -13 -9 -14 -12c-6 -15 -286 -29 -393 -41c-14 -2 -29 9 -34 11c-6 4 -64 36 -74 42c-9 7 -45 13 -45 23c0 125 64 383 64 499c0 12 8 105 1 126c0 7 22 15 25 15
c52 0 76 -14 116 -23c14 -4 101 0 145 0c42 0 207 5 207 -17c0 -10 -6 -10 -6 -11c0 -2 3 -6 0 -8c-3 0 -84 -8 -106 -10c-59 -6 -105 -12 -159 -17c-3 -13 -4 -15 -9 -28c-26 -77 -44 -158 -58 -241c44 1 171 1 203 -4c33 -8 55 -15 55 -23c0 -10 7 -15 7 -19
c0 -6 -7 -2 -13 -2c-1 0 -191 -2 -263 -24c-9 -71 -15 -142 -21 -212z" />
    <glyph glyph-name="F" unicode="F" horiz-adv-x="535" 
d="M219 29c0 -19 14 -23 14 -31c0 -9 -71 -14 -78 -13c-13 0 -105 21 -117 51c-12 25 -6 74 -6 84c0 91 58 358 58 469c0 51 -9 87 -14 93c8 2 20 12 27 12c6 0 32 -6 36 -6c6 0 231 2 257 2s185 -8 185 -31c0 -19 -81 -30 -110 -32l-136 -8c-47 -99 -75 -199 -92 -300
c45 -1 167 0 199 -9c3 -2 15 -15 15 -19s-21 -23 -38 -23c-56 0 -131 -5 -185 -16c-9 -74 -12 -149 -15 -223z" />
    <glyph glyph-name="G" unicode="G" horiz-adv-x="716" 
d="M320 740c18 0 99 -7 134 -22c69 -27 117 -69 172 -105c23 -15 20 -49 17 -68c-5 -33 -54 -109 -66 -126c-15 -21 -68 -27 -97 -21c-6 4 -49 21 -49 65s52 135 66 152c-7 2 -29 0 -43 -8c-150 -81 -251 -333 -251 -444c0 -65 39 -105 86 -105c81 0 208 82 208 133
c0 22 -6 28 -10 33c-94 2 -193 17 -198 34c0 4 -3 11 -3 13c-3 2 101 21 223 21c126 0 184 -19 184 -34c0 -6 -6 -10 -18 -12l-84 -15c30 -33 44 -37 44 -78c0 -83 -142 -173 -265 -173c-70 0 -177 38 -225 71c-46 32 -107 89 -107 167c0 183 193 522 282 522z" />
    <glyph glyph-name="H" unicode="H" horiz-adv-x="724" 
d="M205 55c0 -17 0 -28 -8 -32c-18 0 -47 -4 -53 -4c-8 0 -98 25 -98 40c0 71 23 241 35 334c3 27 11 320 49 320c6 0 20 -2 26 -2c6 3 12 5 17 5c26 0 107 -18 105 -43c0 -3 72 -21 72 -35c-3 -7 -39 -15 -55 -51c-23 -52 -50 -187 -69 -313c49 5 186 16 216 15
c20 144 54 292 54 416c0 8 6 11 12 11h61c40 0 67 13 101 13c37 0 84 -8 84 -30c0 -10 -12 -1 -17 -7c-50 -66 -136 -497 -125 -707c0 -8 -5 -19 -11 -23c-9 -4 -47 6 -61 8c-15 3 -90 28 -99 41c-13 65 -13 137 -5 210c-61 -7 -190 -28 -222 -40c-6 -52 -9 -97 -9 -126z
" />
    <glyph glyph-name="I" unicode="I" horiz-adv-x="330" 
d="M98 669c0 6 12 13 20 15c4 0 11 -1 15 -1c17 0 28 16 43 16c44 0 154 -32 154 -53c0 -15 -3 -24 -6 -28c-50 -73 -104 -430 -104 -551c0 -29 6 -38 6 -44c0 -4 -9 -33 -32 -33c-30 0 -122 10 -134 27c-5 6 -14 2 -14 12c0 9 6 104 9 136c15 169 43 338 43 504z" />
    <glyph glyph-name="I.001" horiz-adv-x="586" 
d="M488 650c-15 -1 -31 -2 -46 -4v-21c0 -6 -29 -129 -35 -165s-47 -325 -55 -392c34 -1 69 -3 78 -7c9 -6 38 -21 38 -23c0 -4 -6 -8 -9 -9c3 -4 9 -8 9 -12s-35 -26 -53 -28c-14 -2 -150 -8 -179 -10c-28 -2 -138 -7 -176 -7c-14 0 -60 7 -60 19c0 14 92 40 104 43
c35 8 103 21 129 25c-57 25 -68 75 -68 119c0 139 43 283 92 438c-43 -7 -86 -11 -125 -11c-14 0 -28 9 -42 11s-27 5 -15 13c18 12 107 38 203 51c5 13 -6 16 -6 25c0 6 19 8 23 8c20 0 57 -21 68 -21c12 0 98 9 143 9c31 0 72 -3 72 -21c0 -17 -47 -29 -90 -30z" />
    <glyph glyph-name="J" unicode="J" horiz-adv-x="640" 
d="M366 627c-60 -4 -115 -15 -175 -15c-15 0 -44 9 -52 15c-7 6 -6 11 -6 15c0 6 40 19 49 21c31 9 389 46 442 46c23 0 43 -2 61 -8c14 -4 46 -19 46 -23c0 -28 -82 -22 -113 -34c-61 -26 -90 -192 -99 -254c-16 -98 -23 -290 -84 -333c-42 -29 -101 -72 -183 -72
c-120 0 -244 101 -250 150c-4 30 0 49 15 49c46 0 79 -37 93 -60c14 -25 60 -69 81 -69c17 0 68 19 91 53c24 36 44 118 55 221c3 29 13 262 29 298z" />
    <glyph glyph-name="K" unicode="K" horiz-adv-x="730" 
d="M214 140c0 -19 -1 -119 6 -144c6 -5 13 -9 13 -11c0 -4 -14 -6 -23 -6c-42 0 -97 8 -123 23c-32 19 -41 51 -41 77c0 190 52 371 52 552c0 16 0 29 -2 32c8 10 17 29 20 36c2 4 17 8 20 8c60 0 191 -57 191 -79c0 -29 -50 -180 -55 -240c81 75 257 231 352 283
c11 6 29 7 45 7c32 0 33 -5 39 -11c7 -2 22 -8 22 -19c0 -10 -23 -25 -29 -30c-65 -48 -169 -128 -263 -212c38 -111 180 -270 269 -358c1 -2 3 -5 3 -9c0 -9 -6 -29 -12 -31c-8 -3 -58 -12 -68 -12c-98 43 -241 181 -333 274c-46 -51 -77 -96 -83 -130z" />
    <glyph glyph-name="L" unicode="L" horiz-adv-x="546" 
d="M520 81c3 -4 26 -21 26 -29c0 -6 -9 -4 -14 -6c-6 -2 -6 -11 -21 -15c-14 -4 -145 -19 -211 -32c-64 -13 -123 -32 -138 -32c-14 0 -66 11 -81 11c-6 0 -35 19 -35 25c0 3 9 9 18 11c-3 2 -3 34 -3 49c0 142 14 269 32 412c3 25 20 175 20 203c0 15 31 13 45 16
c1 0 58 15 65 15c10 0 42 -6 48 -10c38 -26 78 -29 78 -45c0 -14 -3 -20 -6 -27c-74 -170 -107 -414 -117 -550c36 4 127 15 233 15c20 0 55 -7 61 -11z" />
    <glyph glyph-name="M" unicode="M" horiz-adv-x="849" 
d="M93 672c26 5 43 25 62 25c6 0 61 2 71 -2c10 -2 117 -23 129 -26c9 -4 23 -16 23 -21c-6 -14 -3 -36 -3 -48c0 -83 37 -300 70 -380c20 40 159 365 178 418c13 53 32 116 39 120c66 -1 97 -20 144 -38c43 -8 80 -18 72 -48c-79 -200 -115 -427 -115 -618
c0 -33 2 -60 8 -75c-6 -8 -9 -9 -15 -8c-28 4 -46 -2 -61 -2c-37 0 -75 24 -104 35c-3 9 -10 45 -10 74c0 28 7 214 23 327c-32 -69 -47 -138 -75 -204c-16 -41 -26 -81 -26 -121c-24 -12 -35 -17 -67 -17c-35 0 -115 20 -124 24c-15 6 -21 31 -21 40c0 13 -39 149 -46 169
c-6 19 -55 158 -64 188c-46 -154 -71 -308 -71 -461c0 -15 8 -29 8 -38c0 -11 -15 -19 -28 -19c-10 0 -33 11 -53 21c-20 9 -37 16 -37 20c0 29 8 88 12 114c32 176 63 368 81 551z" />
    <glyph glyph-name="N" unicode="N" horiz-adv-x="669" 
d="M99 663c4 8 10 15 14 17c60 8 221 -13 245 -24c14 -6 26 -14 26 -22c0 -6 -6 -11 -12 -13c-2 -15 -3 -33 -3 -53c0 -109 44 -265 88 -416c37 199 74 393 108 585c0 4 12 27 13 27c6 0 22 -8 32 -10c26 -2 48 -13 52 -17c7 -4 7 -17 4 -27c-37 -196 -108 -519 -121 -716
c-10 -6 -16 -11 -28 -11c-14 0 -37 5 -49 5c-11 0 -29 -3 -35 -3c-5 0 -84 12 -90 21c-40 50 -83 173 -95 239c-15 51 -51 205 -58 258c-37 -167 -63 -337 -68 -503c-9 -2 -13 1 -19 1c-7 0 -13 -5 -22 -5c-17 0 -66 30 -66 40c0 187 31 362 46 538c0 32 2 72 3 91
c2 9 29 4 35 -2z" />
    <glyph glyph-name="O" unicode="O" horiz-adv-x="692" 
d="M210 709c3 5 15 23 29 23c29 0 52 -14 76 -27c12 -2 26 -4 45 -4c32 0 137 -15 202 -51c79 -44 99 -107 99 -162c0 -52 -25 -511 -303 -511c-136 0 -320 84 -320 238c0 183 46 318 172 494zM442 633c-43 0 -60 -13 -81 -40c-37 -46 -84 -164 -101 -213
c-26 -80 -50 -171 -41 -236c6 -43 47 -112 110 -112c162 0 213 357 213 450c0 42 0 100 -42 139c-4 4 -43 12 -58 12z" />
    <glyph glyph-name="P" unicode="P" horiz-adv-x="623" 
d="M636 460c14 -121 -260 -237 -433 -230c-10 -69 -16 -136 -16 -194c0 -29 12 -27 12 -40c0 -6 -15 -15 -18 -17c-7 0 -14 9 -20 9c-10 0 -32 -5 -45 -5c-33 0 -84 23 -95 45c-3 7 -6 32 -6 46c0 131 66 463 66 583c0 19 -3 27 -14 33c0 1 2 8 6 9c31 -8 57 -4 94 -4
c110 0 226 -40 320 -81c82 -36 142 -80 149 -154zM309 587c-31 -53 -61 -142 -83 -239c115 -12 283 75 283 153c0 21 -15 44 -48 61c-30 14 -109 25 -152 25z" />
    <glyph glyph-name="Q" unicode="Q" horiz-adv-x="734" 
d="M251 745c3 -2 9 -4 9 -4c3 2 14 7 20 9c141 -3 231 -67 251 -70c83 -12 180 -82 180 -186c0 -75 -45 -395 -228 -481c26 -4 146 -21 164 -25c31 -5 32 -29 35 -47c0 -4 0 -8 -9 -6c-9 4 -50 16 -78 17c-27 2 -138 2 -203 -2c-71 -3 -155 -7 -193 -7c-40 0 -142 9 -184 38
c-4 4 0 7 -1 9c-3 2 -29 8 -29 19c0 10 13 10 13 10c68 0 140 9 209 6c-115 55 -169 126 -170 231c10 166 70 383 214 489zM431 631c-101 0 -212 -290 -212 -437c0 -25 9 -143 119 -143c170 0 233 339 233 471c0 50 -45 78 -63 86c-40 17 -64 23 -77 23z" />
    <glyph glyph-name="R" unicode="R" horiz-adv-x="696" 
d="M259 253c-3 0 -11 -1 -17 -3c-13 -80 -19 -158 -19 -214c0 -29 6 -27 6 -40c0 -16 -73 -21 -93 -21c-9 0 -87 44 -87 53c-17 197 44 427 58 612c3 42 0 50 -3 65c0 2 3 5 6 7c9 -3 29 -7 41 -7c11 0 43 5 52 5c94 0 248 -39 323 -81c88 -50 155 -109 155 -154
c0 -72 -93 -150 -207 -190c71 -105 185 -246 185 -262c0 -10 -10 -8 -19 -14c-7 -5 -30 -26 -59 -26s-55 4 -72 23c-18 17 -90 96 -119 125c-21 21 -96 89 -131 122zM340 587c-28 -24 -55 -115 -77 -220c100 5 295 85 295 150c0 54 -156 68 -218 70z" />
    <glyph glyph-name="S" unicode="S" horiz-adv-x="679" 
d="M324 735c13 0 29 2 42 -2c58 -27 206 -69 240 -99c11 -10 50 -41 50 -79c0 -40 -47 -135 -84 -160c-27 -15 -85 -8 -93 -4c-9 4 -41 21 -41 53c0 33 19 137 18 158c-28 -19 -115 -91 -115 -158c0 -169 280 -226 280 -330c0 -44 -58 -80 -84 -93c-29 -14 -96 -42 -148 -42
c-91 0 -273 49 -372 110c-15 9 -29 36 4 40c36 -4 65 -12 86 -19c26 -9 150 -51 256 -51c61 0 84 28 84 42c0 81 -329 197 -329 334c0 144 102 245 206 300z" />
    <glyph glyph-name="T" unicode="T" horiz-adv-x="782" 
d="M-12 637c26 0 248 34 290 36c46 2 271 15 369 15c68 0 132 -6 158 -11c23 -6 26 -33 17 -50c-3 0 -11 4 -11 8c-38 -4 -142 -15 -213 -31c-20 -40 -67 -176 -75 -237c-15 -69 -41 -243 -41 -323c0 -44 6 -48 9 -55c-18 -6 -26 -5 -38 -4s-17 0 -38 0
c-20 0 -81 15 -104 36c-10 80 12 281 13 329c0 47 16 182 22 228c-55 -2 -169 -2 -216 2c-43 3 -125 24 -148 34c-8 4 0 23 6 23z" />
    <glyph glyph-name="U" unicode="U" horiz-adv-x="667" 
d="M75 680c0 8 28 19 57 19s104 -34 127 -34s49 -4 58 -15c-23 -125 -81 -332 -65 -466c5 -38 26 -127 68 -127c150 0 209 438 209 549c0 128 -15 110 -15 122c9 4 25 2 32 0c9 -2 94 -31 94 -40c16 -130 -20 -420 -88 -574c-24 -56 -70 -121 -209 -121
c-55 0 -182 41 -211 66s-97 84 -83 213c12 129 41 311 47 349c7 50 -21 48 -21 59z" />
    <glyph glyph-name="V" unicode="V" horiz-adv-x="633" 
d="M38 644c0 15 12 31 42 31c29 0 133 -19 148 -23c14 -4 31 -10 31 -15c0 -19 3 -48 6 -71c3 -24 29 -323 47 -385c101 224 243 531 243 568c0 13 -20 30 3 30c13 0 23 -4 36 -6c12 -2 93 -38 93 -47c0 -10 -58 -122 -70 -150c-14 -29 -114 -240 -137 -304
c-18 -51 -64 -190 -47 -255c2 -6 3 -15 -5 -23c-6 -5 -12 -9 -32 -9c-50 0 -193 21 -212 28c-23 6 -20 23 -23 35c-29 140 -123 566 -123 596z" />
    <glyph glyph-name="W" unicode="W" horiz-adv-x="938" 
d="M55 701c52 4 161 -38 225 -40c11 0 26 -17 26 -22c0 -6 -29 -48 -29 -69c0 -19 17 -310 23 -338c3 -4 8 -4 9 -2c3 6 58 181 72 215c12 32 47 135 61 152c20 2 35 2 46 2c31 -5 174 -29 174 -55c0 -16 13 -295 22 -331c3 19 34 99 40 120s67 214 79 250
c11 37 55 173 58 181c2 6 14 8 20 8s23 -10 29 -12c22 -1 31 -7 46 -13c6 -3 6 -15 -3 -36c-87 -241 -121 -484 -197 -722c-14 -8 -72 -12 -94 -12c-16 2 -71 14 -91 27c-25 13 -48 11 -48 23c0 13 -7 121 -10 146c-4 25 -26 176 -26 253c-51 -83 -117 -310 -126 -401
c-6 -8 -29 -15 -52 -15c-26 0 -125 24 -151 36c-13 5 -13 21 -16 36c-17 82 -56 360 -73 516c-6 53 -19 90 -14 103z" />
    <glyph glyph-name="X" unicode="X" horiz-adv-x="728" 
d="M67 -23c-6 -5 -20 -2 -29 0c-10 2 -32 14 -35 16c-3 1 -5 5 0 15c72 88 161 189 257 289c-44 73 -83 146 -116 222c-22 51 -57 139 -51 169c22 4 45 4 52 4c10 0 68 -14 80 -14c11 0 26 4 35 4c8 2 51 -16 60 -40c29 -69 53 -137 81 -206c90 87 183 165 268 225
c18 4 41 8 50 4c6 -2 3 -15 11 -15c6 -2 44 -8 44 -13c0 -6 -7 -10 -12 -14c-96 -77 -211 -174 -324 -277c47 -109 105 -221 194 -338c4 -9 -6 -11 -15 -15c-8 -3 -59 -14 -95 -14c-8 0 -25 12 -42 21c-19 10 -38 17 -41 21c-46 68 -92 135 -133 202
c-89 -84 -171 -169 -239 -246z" />
    <glyph glyph-name="Y" unicode="Y" horiz-adv-x="662" 
d="M0 642c0 30 110 42 162 42c12 0 138 -7 138 -30c0 -21 -17 -44 -3 -84c29 -87 66 -195 87 -215c63 109 125 234 230 354c3 3 45 -2 52 -4c6 -4 18 -25 29 -32c15 -6 -7 -19 -10 -25c-55 -96 -183 -302 -229 -414c-6 -78 -17 -148 -17 -219c0 -21 17 -32 12 -36
c-6 -4 -18 -9 -50 -9s-118 25 -133 34c-17 9 -12 30 -12 40c0 9 -7 177 -4 201c-97 121 -162 296 -214 369c-14 19 -38 21 -38 28z" />
    <glyph glyph-name="Z" unicode="Z" horiz-adv-x="629" 
d="M104 629c182 30 278 57 407 57c21 0 54 -6 93 -27c45 -22 66 -51 48 -68c4 -8 4 -15 4 -21c-122 -141 -388 -360 -453 -519c59 14 152 18 190 18c29 0 214 0 214 -33c0 -11 -10 -16 -16 -19c-8 -3 -178 -21 -225 -26c-43 -8 -159 -38 -172 -38c-53 -5 -194 23 -194 66
c0 23 14 53 26 69c95 137 283 371 410 501c-122 4 -266 -23 -304 -23c-22 0 -51 14 -51 23c0 15 3 36 23 40z" />
    <glyph glyph-name="ampersand" unicode="&#x26;" horiz-adv-x="900" 
d="M0 161c0 65 124 165 257 219c-57 18 -135 71 -135 110c0 88 256 219 352 219c29 0 118 -32 146 -40c32 -14 116 -61 116 -93c0 -17 -28 -70 -41 -88c-16 -15 -74 -55 -78 -57c-8 -4 -25 -1 -33 4c-9 6 -58 33 -58 57c0 27 49 88 75 118c-55 18 -307 -93 -307 -163
c0 -16 29 -30 53 -38c26 6 52 9 77 9c15 0 53 -9 64 -19c17 -17 44 -44 44 -64c0 -8 0 -21 -9 -21c-3 0 -23 3 -38 3c-78 0 -294 -104 -294 -209c0 -47 87 -89 139 -89c94 0 213 63 213 129c0 16 -11 35 -23 48c-15 4 -102 8 -128 11s-34 10 -34 17c0 39 344 58 438 54
c23 -3 104 -27 104 -46c0 -2 0 -4 -2 -6c-15 -16 -176 -15 -216 -15c22 -15 29 -57 29 -72c0 -84 -171 -173 -312 -173c-39 0 -125 3 -222 40c-67 26 -172 95 -177 155z" />
    <glyph glyph-name="space" unicode=" " horiz-adv-x="240" 
 />
    <glyph glyph-name="period" unicode="." horiz-adv-x="363" 
d="M138 124c43 0 111 -18 131 -44c3 -6 -4 -39 -15 -53c-9 -13 -26 -29 -52 -29c-58 -3 -101 26 -110 59c0 12 12 67 46 67z" />
    <glyph glyph-name="comma" unicode="," horiz-adv-x="402" 
d="M147 110c3 4 9 6 14 6c35 0 61 -20 82 -34c3 -3 6 -6 5 -13c-3 -8 -31 -57 -52 -82c-17 -19 -52 -82 -61 -82c-5 -2 -32 9 -40 12c-9 4 -32 15 -32 17c-3 3 0 13 3 19c15 28 66 129 81 157z" />
    <glyph glyph-name="colon" unicode=":" horiz-adv-x="379" 
d="M141 116c20 2 52 2 75 -4c49 -16 67 -54 41 -85c-12 -14 -26 -29 -55 -29c-52 0 -109 24 -109 59c-3 12 16 59 48 59zM164 354c20 3 52 5 72 0c42 -11 64 -56 41 -80c-12 -14 -29 -27 -55 -31c-52 -6 -104 22 -104 55c-3 12 14 50 46 56z" />
    <glyph glyph-name="semicolon" unicode=";" horiz-adv-x="395" 
d="M177 354c20 3 56 5 77 0c40 -18 61 -51 40 -80c-11 -14 -29 -27 -58 -31c-59 -7 -95 24 -104 55c0 12 16 50 45 56zM147 110c3 4 9 6 14 6c35 0 61 -20 82 -34c3 -3 6 -6 5 -13c-3 -8 -31 -57 -52 -82c-17 -19 -52 -82 -61 -82c-5 -2 -32 9 -40 12c-9 4 -32 15 -32 17
c-3 3 0 13 3 19c15 28 66 129 81 157z" />
    <glyph glyph-name="exclam" unicode="!" horiz-adv-x="476" 
d="M150 105c24 3 64 7 87 0c49 -21 75 -52 51 -88c-16 -15 -36 -28 -68 -34c-67 -4 -116 21 -128 61c0 13 21 53 58 61zM220 699c13 0 140 -11 172 -22c35 -12 38 -27 38 -29c-3 -4 -23 -6 -29 -6c6 -5 3 -12 0 -19c-40 -119 -89 -264 -89 -378c0 -28 -1 -69 15 -81
c-3 -8 -39 -23 -52 -23c-10 0 -49 2 -55 7c-17 23 -70 29 -78 48c-35 102 20 225 20 338c0 90 -27 134 -9 144c8 4 55 21 67 21z" />
    <glyph glyph-name="question" unicode="?" horiz-adv-x="724" 
d="M156 105c25 3 64 7 87 0c49 -21 75 -52 51 -88c-16 -15 -35 -30 -71 -34c-78 -8 -114 26 -125 61c0 13 21 53 58 61zM102 508c2 114 213 188 340 188c67 0 97 -10 138 -38c39 -23 121 -48 121 -109c0 -161 -407 -235 -436 -378c4 -9 20 -21 13 -25c-9 -3 -13 -7 -29 -7
c-13 0 -32 7 -38 7c-4 0 -38 4 -47 7c-8 4 -37 28 -40 33c-26 67 89 153 151 196c88 59 217 168 217 216c0 34 -40 38 -46 38c-93 0 -197 -72 -223 -186c-2 -8 -6 -22 -33 -22c-26 0 -88 60 -88 80z" />
    <glyph glyph-name="quotesingle" unicode="'" horiz-adv-x="207" 
d="M73 583l20 82c0 2 6 6 11 6c9 0 35 -2 44 -4c17 -5 43 -16 43 -32c0 -8 -4 -65 -20 -86c-10 -23 -26 -80 -32 -81c-18 0 -64 10 -75 20c-7 5 6 82 9 95z" />
    <glyph glyph-name="quotedbl" unicode="&#x22;" horiz-adv-x="330" 
d="M69 680c18 0 81 -5 90 -13c9 -9 11 -34 9 -51c-1 -22 0 -105 0 -120c0 -8 -12 -11 -15 -11c-6 0 -66 3 -75 3c-9 2 -15 6 -15 12c0 7 6 128 3 148c-2 10 -8 32 3 32zM214 677c19 0 81 -6 90 -14c10 -9 11 -34 10 -51c-2 -32 -3 -110 -3 -125c0 -8 -13 -12 -19 -12
c-1 0 -33 8 -69 10c-9 2 -13 5 -15 11c-3 13 6 126 3 148c-1 10 -8 33 3 33z" />
    <glyph glyph-name="hyphen" unicode="-" horiz-adv-x="451" 
d="M81 302c83 -15 141 19 245 -4c9 -2 -3 -17 0 -22c3 -6 11 -17 9 -25c-23 -18 -191 -28 -216 -21c-15 4 -55 48 -38 72z" />
    <glyph glyph-name="bracketleft" unicode="[" horiz-adv-x="476" 
d="M170 735c99 3 376 -42 365 -60c-4 -8 -10 -19 -16 -19c-3 0 -126 11 -143 13c-87 -170 -128 -453 -128 -633c0 -43 -5 -78 18 -80c20 -1 127 -11 136 -15c10 -5 16 -26 7 -28c-59 -4 -224 -19 -248 -19c-26 0 -40 11 -49 21c-9 9 -29 24 -32 49c-17 181 58 522 70 741
c0 8 -5 16 3 21c6 4 11 6 17 9z" />
    <glyph glyph-name="bracketright" unicode="]" horiz-adv-x="464" 
d="M29 684c0 10 17 15 35 19c14 4 152 29 198 29c32 0 41 -10 46 -12c3 -2 79 -36 87 -45c7 -8 6 -12 6 -19c0 -33 -95 -443 -95 -618c0 -36 11 -120 -9 -127c-20 -6 -46 -14 -55 -21c-6 -4 -16 -10 -32 -8c-20 2 -181 27 -222 42c-8 4 -11 12 -11 15c0 4 11 11 20 12
c12 2 53 1 90 -2c23 -1 52 1 58 2c-9 38 -9 100 -9 135c0 32 48 471 54 516c7 46 20 69 20 69c-43 -2 -106 -4 -137 -2c-24 2 -44 8 -44 15z" />
    <glyph glyph-name="asterisk" unicode="*" horiz-adv-x="337" 
d="M167 651c-2 10 -64 15 -80 21c-15 6 -9 17 -6 20c3 4 15 13 31 7c15 -5 53 -38 67 -34c12 6 -12 44 -12 55c0 12 18 14 24 14s25 -2 25 -14c0 -11 -25 -49 -13 -55c14 -4 53 29 68 34c15 6 27 -3 30 -7c3 -3 10 -14 -6 -20c-15 -6 -78 -11 -79 -21c1 -10 64 -15 79 -21
c16 -6 9 -17 6 -21c-3 -3 -15 -12 -30 -6c-15 5 -54 38 -68 34c-12 -6 13 -44 13 -55c0 -12 -19 -14 -25 -14s-24 2 -24 14c0 11 24 49 12 55c-14 4 -52 -29 -67 -34c-16 -6 -28 3 -31 6c-3 4 -9 15 6 21c16 6 78 11 80 21z" />
    <glyph glyph-name="a" unicode="a" horiz-adv-x="542" 
d="M332 395c23 8 136 -13 141 -38c-3 -7 -17 -15 -20 -23c-25 -58 -44 -142 -44 -201c0 -15 0 -72 58 -72s95 23 99 25c3 1 6 3 11 0l9 -8c2 -2 0 -6 -3 -8c-5 -3 -58 -45 -148 -45c-91 0 -153 49 -163 87c-13 -27 -53 -121 -110 -121c-23 0 -84 7 -108 26
c-97 71 -48 277 35 392c18 24 44 58 116 58c73 0 108 -52 127 -72zM272 348c3 32 -20 66 -44 66c-77 0 -133 -236 -133 -302c0 -15 3 -89 38 -89c46 0 100 150 110 190c8 28 26 118 29 135z" />
    <glyph glyph-name="a.001" horiz-adv-x="577" 
d="M298 414c0 10 4 19 13 19c20 0 74 -19 142 -24c14 -1 48 -11 48 -25c0 -4 -4 -7 -5 -10c-43 -71 -75 -176 -75 -249c0 -20 6 -64 29 -64c78 0 121 226 148 327c2 4 5 6 12 5c2 0 28 -2 34 -3c5 -1 9 -2 9 -8c-18 -58 -50 -365 -211 -365c-104 0 -145 66 -164 97
c-19 -36 -65 -118 -131 -118c-29 0 -89 25 -113 42c-20 15 -34 61 -34 89c0 71 44 338 167 338c47 0 104 -31 131 -51zM292 378c-15 12 -38 29 -63 29c-71 0 -134 -240 -134 -285c0 -12 3 -86 32 -86c52 0 116 141 129 171c7 29 35 137 36 171z" />
    <glyph glyph-name="b" unicode="b" horiz-adv-x="517" 
d="M49 671c9 5 23 2 32 4c15 4 32 19 38 19s97 -21 117 -27c24 -6 29 -17 29 -21c0 -2 -6 -13 -6 -17c0 -47 -54 -220 -65 -298c13 13 74 98 100 98c43 4 104 -19 130 -30c29 -11 47 -23 47 -61c0 -95 -52 -232 -116 -309c-12 -12 -18 -25 -51 -29c-30 -6 -87 -4 -130 8
c-16 -8 -26 -10 -41 -10c-11 0 -95 8 -113 27c-20 19 -22 107 -17 140c3 17 52 396 58 434c3 38 -3 66 -12 72zM165 51c12 -3 74 -9 113 31c71 68 97 167 97 256c0 4 -3 50 -35 50c-36 0 -98 -88 -130 -160c-29 -66 -45 -148 -45 -177z" />
    <glyph glyph-name="c" unicode="c" horiz-adv-x="459" 
d="M127 445c21 0 47 1 70 -4c13 -2 144 -36 166 -50c15 -9 24 -24 24 -41c0 -54 -41 -152 -61 -152c-29 0 -58 19 -58 34c0 17 1 38 4 53c3 16 22 78 3 82c-13 2 -56 -65 -65 -93c-7 -17 -51 -126 -51 -177s41 -82 119 -82c80 0 170 54 190 65c9 5 31 7 35 2
c3 -4 0 -14 -6 -19c-7 -6 -90 -80 -255 -80c-167 0 -242 76 -242 186c0 112 81 268 127 276z" />
    <glyph glyph-name="c.001" horiz-adv-x="444" 
d="M116 450c11 4 28 9 43 9c31 0 54 -16 83 -22c59 -18 147 -19 147 -78c0 -38 -26 -104 -36 -126c-9 -21 -44 -47 -56 -47c-6 0 -32 14 -38 15c-10 2 -13 4 -13 21c0 16 48 139 19 139c-22 0 -109 -118 -109 -243c0 -15 15 -95 93 -95c167 0 213 339 213 389c0 6 14 6 26 6
c9 0 20 -11 20 -15c0 -2 6 -4 12 -8c-1 -77 -52 -408 -258 -408c-40 0 -101 9 -152 27c-61 22 -110 61 -110 148c0 102 46 269 116 288z" />
    <glyph glyph-name="d" unicode="d" horiz-adv-x="574" 
d="M309 680c0 12 26 14 43 14c18 0 73 -4 113 -21c34 -15 81 -52 81 -59c0 -6 -24 -10 -29 -27c-47 -150 -70 -267 -89 -401c-4 -39 0 -129 66 -129c68 0 103 19 109 23c1 1 4 1 7 0c7 -2 10 -8 10 -12c0 -1 -49 -49 -149 -49c-101 0 -151 52 -174 135
c-11 -23 -34 -67 -43 -82c-11 -17 -47 -74 -99 -74c-127 0 -155 93 -155 156c0 125 47 228 76 274c8 11 20 20 37 20c16 0 87 -1 100 -3c9 -2 55 -19 84 -38c12 57 23 131 26 165c3 36 9 85 3 93s-17 10 -17 15zM288 369c-11 5 -55 34 -72 34c-20 0 -39 -17 -68 -69
c-29 -51 -49 -145 -52 -191c-3 -58 13 -114 36 -114c39 0 87 91 110 140c23 50 38 164 46 200z" />
    <glyph glyph-name="d.001" horiz-adv-x="563" 
d="M297 401c14 83 20 162 20 241c0 17 -9 36 -6 40s26 27 32 27s52 -15 61 -15c53 0 116 -22 116 -57c0 -27 -26 -95 -38 -132c-31 -128 -73 -252 -73 -378c0 -37 7 -70 24 -70c63 0 151 261 148 353c0 10 7 12 11 12c18 0 48 -18 48 -29c0 -46 -51 -385 -195 -385
c-110 0 -153 71 -176 114c-13 -27 -64 -128 -127 -128c-70 0 -98 31 -107 38c-30 24 -35 66 -35 95c0 71 21 266 104 320c9 1 18 0 23 0c3 1 21 4 41 4c57 0 101 -26 129 -50zM278 344c-6 23 -29 65 -55 65s-55 -37 -64 -56c-11 -17 -66 -184 -66 -237c0 -51 8 -89 31 -89
c64 0 145 223 154 317z" />
    <glyph glyph-name="e" unicode="e" 
d="M148 76c7 -13 20 -53 111 -53c93 0 168 49 180 59c6 4 14 0 17 -2s12 -11 9 -15c-49 -53 -144 -80 -236 -80c-145 0 -229 47 -229 142s17 198 75 299c3 5 12 7 18 7c22 0 40 6 58 6c11 0 46 -4 72 -21c42 -31 106 -30 140 -72c12 -15 -2 -50 -11 -65s-95 -140 -204 -205z
M145 129c23 14 123 120 123 198c0 7 -9 15 -19 15c-30 0 -107 -137 -104 -213z" />
    <glyph glyph-name="e.001" horiz-adv-x="416" 
d="M222 27c154 0 216 314 216 383c13 8 35 14 38 3c4 -13 17 -18 17 -31c0 -73 -51 -393 -268 -393c-165 0 -240 92 -240 183c0 80 30 207 101 280c4 4 50 -2 72 -7c12 -3 76 -27 84 -33c58 -13 114 -35 114 -79c0 -51 -142 -195 -223 -244c9 -37 37 -62 89 -62zM262 338
c0 10 -3 21 -17 21c-45 0 -115 -128 -118 -225c70 54 135 140 135 204z" />
    <glyph glyph-name="f" unicode="f" horiz-adv-x="442" 
d="M191 661c23 8 94 23 101 25c14 3 69 -15 80 -20c26 -11 66 -22 78 -26c12 -5 23 -13 26 -17c3 -3 12 -32 12 -49c0 -15 -18 -122 -50 -122c-20 0 -46 19 -46 19c0 29 3 150 -14 150c-6 0 -35 -74 -43 -102c-8 -31 -34 -120 -37 -154c32 2 62 2 68 2c9 0 32 -4 38 -8
c5 -4 8 -15 8 -19s-8 -9 -26 -11c-14 -2 -72 -8 -95 -12c-13 -36 -16 -64 -19 -89c-3 -26 -20 -171 -9 -243c-14 -6 -29 -4 -43 -4c-6 2 -29 10 -38 10c-21 0 -67 16 -75 30c-3 4 -3 34 -3 44c0 9 12 205 14 233c-22 -2 -118 -12 -118 2c0 10 2 25 20 29c17 2 87 11 107 15
c6 38 18 125 26 165c8 42 18 143 38 152z" />
    <glyph glyph-name="g" unicode="g" horiz-adv-x="562" 
d="M320 327c10 46 -51 68 -61 68c-13 0 -48 0 -91 -57c-46 -59 -73 -197 -73 -212c0 -16 6 -97 44 -97s104 102 117 129c13 26 52 127 64 169zM431 48c-6 -57 -16 -217 -52 -238c-38 -23 -96 -53 -139 -53c-44 0 -164 21 -229 85c-13 12 -13 42 10 42s43 -10 51 -15
c6 -5 72 -49 98 -49s33 2 33 2c20 26 48 91 57 163c0 5 14 75 23 115c-20 -27 -46 -63 -57 -73c-12 -12 -36 -34 -67 -34c-38 0 -64 15 -84 24c-34 16 -75 61 -75 116s24 179 101 285c31 43 47 40 67 40s52 -13 65 -19c29 -6 81 -25 101 -40c15 4 32 8 47 8
c29 0 165 -14 165 -40c0 -12 -18 -14 -26 -23c-7 -9 -35 -61 -44 -93c-8 -30 -29 -116 -45 -203z" />
    <glyph glyph-name="h" unicode="h" horiz-adv-x="546" 
d="M35 665c0 10 43 15 60 17c14 1 58 10 64 10c9 0 48 -8 52 -12c3 -3 3 -11 6 -13s42 -6 39 -38c-7 -32 -103 -405 -108 -462c5 -2 11 2 11 2c3 14 70 188 116 234c77 11 69 7 143 -4c15 -2 58 -4 73 -21c3 -21 -23 -64 -32 -85c-34 -73 -43 -128 -49 -166
c-6 -36 6 -72 43 -72c32 0 67 9 81 12c20 4 52 9 57 0c4 -8 -3 -13 -13 -17c-9 -4 -84 -31 -148 -31c-67 0 -161 23 -161 131c0 27 16 141 29 173c0 1 0 2 -1 2c-22 -13 -71 -118 -90 -182c-22 -65 -40 -133 -48 -154c-3 -10 -9 -21 -40 -21c-53 0 -99 26 -116 26
c-3 27 -3 73 -3 109c0 34 14 173 26 235c9 65 23 289 20 306c-3 14 -11 10 -11 21z" />
    <glyph glyph-name="h.001" horiz-adv-x="574" 
d="M28 656c58 1 58 20 93 28c4 1 14 1 26 1c52 0 101 -21 101 -29c0 -4 -8 -6 -11 -14c-18 -125 -76 -346 -81 -486c31 66 58 129 66 148c9 19 44 97 61 105c9 3 20 3 31 3c42 0 79 -8 101 -15c20 -16 61 -17 61 -30c0 -34 -66 -188 -66 -269c0 -27 6 -56 37 -56
c87 0 147 301 145 346c0 5 5 8 14 6s29 -6 35 -8c3 -2 9 -10 9 -23c0 -56 -53 -363 -189 -363c-138 0 -187 96 -187 167c0 56 23 86 21 137c0 2 -1 3 -3 2c-50 -87 -107 -199 -107 -306c0 -9 -24 -11 -29 -11c-6 0 -102 2 -148 30c-3 44 -8 67 -8 97c0 157 34 311 34 466
c0 29 -3 53 -13 64c0 6 3 8 7 10z" />
    <glyph glyph-name="i" unicode="i" horiz-adv-x="312" 
d="M38 392c6 3 16 9 20 9c9 0 18 -4 45 -4c13 0 38 2 45 0c25 -4 59 -23 71 -24c-16 -38 -52 -175 -52 -238s26 -85 61 -85c34 0 92 26 104 30c8 3 18 4 23 -2c3 -6 6 -13 -3 -21c-8 -6 -63 -50 -188 -50c-126 0 -164 73 -164 145s32 213 38 240zM50 620c0 28 37 68 88 68
c29 0 69 -13 81 -21c14 -9 41 -53 29 -75c-20 -34 -90 -33 -123 -31c-26 2 -75 24 -75 59z" />
    <glyph glyph-name="i.001" horiz-adv-x="303" 
d="M23 392c3 7 27 14 43 17c18 -3 113 -17 122 -29c3 -4 12 -21 12 -28c0 -10 -15 -40 -18 -48c-3 -7 -26 -102 -26 -169c0 -65 6 -93 26 -93c47 0 142 241 138 350c0 11 66 -3 66 -8c12 -55 -69 -323 -134 -365c-32 -21 -49 -23 -67 -23c-17 0 -124 17 -145 40
c-35 40 -40 84 -40 126c0 60 12 188 23 230zM150 563c-63 0 -101 34 -101 70c0 25 43 53 128 55c20 -10 75 -27 75 -55c0 -29 -29 -70 -102 -70z" />
    <glyph glyph-name="j" unicode="j" horiz-adv-x="298" 
d="M43 397c0 3 5 6 15 9c-1 7 3 11 11 12c44 2 69 -10 81 -15c23 -10 96 -23 96 -36c0 -6 -23 -10 -26 -34c-3 -14 -29 -228 -35 -285s-17 -217 -52 -238c-38 -23 -96 -53 -139 -53c-44 0 -164 21 -230 85c-12 12 -12 42 11 42s43 -10 51 -15c6 -5 71 -49 97 -49
c27 0 34 2 34 2c20 26 48 91 57 163c12 72 32 344 29 412zM145 578c-15 0 -64 13 -73 17c-12 6 -26 30 -29 38c-3 7 -9 49 26 61c35 11 64 9 73 9c8 0 52 -4 58 -9c5 -6 49 -46 52 -61c-16 -29 -61 -55 -107 -55z" />
    <glyph glyph-name="k" unicode="k" horiz-adv-x="607" 
d="M101 711c6 0 26 -2 32 0c3 2 11 13 32 13c16 0 159 -13 159 -38c0 -11 0 -28 -13 -57c-40 -92 -65 -184 -88 -274c14 18 72 99 124 99c19 0 54 -7 65 -13c62 -16 84 -63 84 -103c0 -38 -69 -116 -146 -144c46 -57 107 -139 213 -139c23 0 55 8 64 12c8 3 13 2 17 1
c6 -2 9 -5 9 -9c0 -2 -35 -49 -186 -49c-37 0 -94 7 -149 38c-58 32 -116 78 -136 93c-6 -31 -6 -99 -6 -110c0 -12 6 -33 3 -37c-26 5 -35 -6 -61 -5c-35 2 -72 13 -90 24c-5 14 -8 33 -8 50c0 162 37 323 69 481c7 36 18 133 18 140c0 8 -3 21 -6 27zM199 217
c81 19 194 102 210 163c0 6 3 23 0 29c-5 4 -14 9 -23 9c-46 0 -123 -82 -138 -106c-11 -17 -41 -70 -49 -95z" />
    <glyph glyph-name="k.001" horiz-adv-x="584" 
d="M90 669c31 2 45 25 74 25c20 0 78 -12 87 -21c14 -13 46 -26 46 -33c0 -17 -22 -45 -29 -66c-34 -88 -49 -173 -66 -260c20 28 98 127 145 127c46 0 84 -25 95 -30c9 -4 55 -19 55 -44c0 -78 -76 -155 -156 -207c3 -36 14 -112 78 -112c101 0 198 288 198 349
c0 8 24 -8 26 -11c15 -6 18 -11 18 -19c0 -74 -93 -382 -266 -382c-103 0 -196 70 -214 127c-4 2 -8 2 -11 2c-3 -19 -3 -87 -3 -101c0 -12 -48 -26 -68 -26c-36 2 -82 11 -90 30c-7 21 -9 42 -9 63c0 99 69 390 83 576c1 8 3 11 7 13zM370 401c-43 0 -182 -166 -182 -206
c0 -2 2 -6 5 -6c56 0 205 123 205 175c0 20 -2 37 -28 37z" />
    <glyph glyph-name="l" unicode="l" horiz-adv-x="393" 
d="M93 688c8 9 14 15 29 15c11 2 49 6 69 4c23 -2 132 -31 152 -33c20 -3 43 -15 49 -26c6 -12 12 -40 12 -57c0 -140 -155 -386 -277 -492c0 -29 12 -76 84 -76c87 0 193 55 210 61c4 1 9 1 12 -2c5 -5 6 -14 6 -16c-57 -41 -139 -76 -225 -76c-200 0 -237 127 -237 232
c0 169 55 357 116 466zM127 160c110 113 200 450 167 450c-55 0 -167 -342 -167 -450z" />
    <glyph glyph-name="l.001" horiz-adv-x="384" 
d="M73 665c7 15 52 34 75 34c78 0 167 -37 228 -63c11 -6 14 -18 14 -32c0 -154 -145 -396 -274 -515c3 -21 9 -64 77 -64c127 0 209 226 206 366c0 2 3 3 6 2c0 0 8 -2 14 -4c20 -1 42 -9 42 -23c-5 -68 -45 -385 -250 -385c-209 0 -234 129 -234 236c0 146 29 300 96 448z
M122 165c86 123 172 282 172 414c0 18 -5 37 -14 37c-60 0 -158 -395 -158 -451z" />
    <glyph glyph-name="m" unicode="m" horiz-adv-x="814" 
d="M60 264c-16 8 -22 1 -29 4c-7 2 -26 11 -29 13c-2 4 1 15 3 19c6 20 15 86 18 107c3 3 14 3 17 5s15 12 26 12c15 0 50 -4 58 -6c12 0 44 0 61 -6c15 -5 23 -15 23 -26c0 -12 -14 -90 -17 -114c-3 -27 -6 -97 -6 -122c26 74 49 143 84 213c9 17 45 26 61 26
c19 0 91 -13 100 -17c11 -2 26 -9 29 -24c3 -14 3 -69 0 -88c0 0 29 59 37 76c4 6 64 95 82 95c26 0 121 -13 159 -28c10 -5 14 -9 14 -13c0 -10 -12 -18 -17 -27c-13 -84 -61 -166 -61 -251c0 -40 19 -70 55 -70c39 0 86 23 97 30c6 4 18 2 23 0c16 -8 13 -14 3 -23
c-6 -5 -58 -49 -146 -49c-87 0 -116 44 -130 57c-12 13 -35 55 -35 76c-5 83 18 161 32 236c-26 -42 -90 -156 -102 -208c-11 -49 -26 -100 -26 -163c0 -6 -11 -2 -17 -2s-26 -4 -38 -4c-11 2 -69 16 -98 40c-13 12 -6 21 -3 31l26 102c3 23 10 118 -6 152
c-16 -30 -52 -112 -75 -190c-16 -45 -30 -106 -30 -125c0 -17 -3 -15 -27 -15c-26 0 -37 -4 -46 -2c-9 0 -61 17 -70 26c-11 10 -17 61 -17 76c0 67 12 124 17 177z" />
    <glyph glyph-name="m.001" horiz-adv-x="834" 
d="M49 255c-18 4 -49 12 -49 26c0 8 12 103 12 112c0 10 14 14 17 15c28 9 35 31 77 31c7 0 78 -16 88 -19c9 -3 16 -6 16 -12c0 -10 -33 -235 -20 -235c17 0 78 222 136 222c20 0 79 -6 99 -11c17 -4 37 -12 37 -38c0 -27 3 -48 3 -59c26 44 66 148 97 148
c55 0 102 -2 136 -15c12 -6 49 -25 49 -42c0 -42 -55 -147 -55 -243c0 -21 -4 -69 38 -69c76 0 119 251 128 329c16 -1 23 4 26 4c23 0 26 -21 26 -30c0 -59 -33 -354 -189 -354c-146 0 -173 130 -173 198c0 46 9 95 20 148l-3 2c-68 -120 -97 -214 -117 -357
c-12 -1 -17 -8 -29 -8c-9 0 -84 15 -102 23c-42 18 15 185 18 306h-3c-66 -108 -98 -221 -129 -335c-3 -9 -30 1 -61 -5c-7 -1 -62 6 -81 29c-32 61 -15 177 -12 239z" />
    <glyph glyph-name="n" unicode="n" horiz-adv-x="591" 
d="M46 264c-11 6 -40 15 -46 21c0 38 8 84 23 131c1 6 26 15 32 17c3 2 49 -2 58 -2c29 4 90 1 90 -25c0 -9 -7 -18 -9 -26c-3 -11 -17 -205 -20 -249c22 56 43 112 68 167c14 29 58 114 75 114c29 -2 128 -17 151 -32c14 -13 35 -21 35 -29c0 -7 -50 -127 -50 -207
c0 -81 35 -81 58 -81c21 0 66 18 80 23c7 3 24 8 29 8c12 0 16 -7 15 -12c-2 -4 -57 -59 -173 -59c-132 0 -161 93 -161 156c0 48 11 103 16 119l-6 -2c-14 -19 -78 -165 -91 -209c-10 -43 -13 -81 -17 -83c-6 -3 -13 -5 -20 -5c-15 0 -32 6 -59 10c-18 -1 -69 19 -75 23
c0 2 -6 25 -8 34c0 10 -3 147 5 198z" />
    <glyph glyph-name="n.001" horiz-adv-x="589" 
d="M49 285c-20 4 -35 9 -46 21c-11 14 14 99 20 112c3 8 23 6 26 6c31 0 61 7 90 7c14 -2 58 -11 58 -32c0 -19 -16 -179 -26 -224l3 -2s95 220 140 249c33 7 58 -10 87 -10c6 0 38 2 46 -2c12 -3 61 -32 61 -51c0 -6 -17 -17 -23 -30c-6 -14 -49 -114 -49 -209
c0 -61 23 -69 32 -69c80 0 129 281 146 346c3 7 16 2 19 0c11 -7 33 -18 33 -23c-5 -78 -49 -221 -85 -292c-19 -39 -41 -76 -133 -76c-95 0 -163 90 -163 166c0 63 19 132 26 143h-7c-39 -51 -107 -254 -122 -294c-6 -14 -14 -16 -20 -18c-6 0 -101 12 -125 35
c-11 13 -8 32 -8 42c0 11 11 163 20 205z" />
    <glyph glyph-name="o" unicode="o" horiz-adv-x="494" 
d="M61 452c15 1 23 11 37 11c24 0 93 -7 115 -18c29 -2 35 -4 39 -4c11 -6 43 -24 42 -36c32 -2 84 -20 102 -42c28 -35 37 -101 29 -156c26 0 66 20 84 53c2 2 8 1 11 -1c8 -4 12 -6 12 -12c-3 -17 -23 -74 -113 -78c-12 -45 -44 -152 -102 -175c-22 -4 -63 -8 -88 -8
c-168 0 -229 102 -229 194c0 138 60 237 61 272zM349 213c14 105 -9 163 -60 163c-9 0 -15 -10 -15 -34c0 -51 20 -108 75 -129zM222 327c-35 -61 -49 -134 -49 -188c0 -30 8 -111 63 -111c59 0 102 121 104 145c-117 42 -120 134 -118 154z" />
    <glyph glyph-name="o.001" horiz-adv-x="482" 
d="M277 414c109 0 136 -82 136 -142c0 -23 -4 -58 -14 -96c75 31 101 168 109 217c0 5 11 6 20 6c17 0 24 -6 27 -10c13 -67 -42 -256 -171 -259c-28 -71 -78 -137 -161 -137c-159 0 -246 92 -246 180c0 59 34 288 133 288c46 0 103 -15 141 -28l-23 -32c18 11 38 13 49 13z
M191 327v13c-32 -62 -52 -128 -52 -193c0 -34 9 -113 68 -113c50 0 88 74 99 109c-86 36 -115 131 -115 184zM332 290c0 25 -15 92 -54 92c-22 0 -32 -34 -32 -51c0 -52 29 -115 72 -145c8 34 14 73 14 104z" />
    <glyph glyph-name="o.002" horiz-adv-x="456" 
d="M106 460c6 2 19 5 32 5c27 0 150 -40 177 -55c29 -5 54 -5 61 -13c25 -24 34 -66 34 -113c0 -79 -26 -171 -49 -212c-29 -48 -72 -71 -142 -71c-89 0 -242 41 -242 168c0 134 89 296 119 296c7 0 10 -3 10 -5zM263 374c-50 0 -115 -134 -115 -234c0 -54 19 -104 68 -104
c95 0 105 181 105 234c0 26 -4 104 -58 104z" />
    <glyph glyph-name="p" unicode="p" horiz-adv-x="519" 
d="M283 -21c-11 0 -83 19 -118 33c-14 -69 -20 -139 -20 -201c0 -19 2 -36 2 -39c9 -10 -15 -13 -26 -13c-23 0 -41 8 -60 8c-35 0 -49 16 -72 26c-17 7 -10 41 -10 50c0 107 15 210 21 312c3 49 14 172 14 224c0 25 0 49 -22 58c0 4 0 6 6 6h23c3 2 17 7 33 7
c32 0 101 -9 125 -19c8 -4 14 -5 14 -7s-17 -57 -20 -71c-3 -15 -26 -144 -23 -171h5c24 78 47 179 116 238c41 0 128 -17 154 -25c42 -11 48 -53 48 -76c0 -35 -11 -125 -29 -180c-13 -36 -42 -115 -88 -141c-35 -20 -64 -19 -73 -19zM315 369c-69 -78 -116 -198 -142 -320
c21 -8 55 -22 61 -22c130 0 141 222 141 264c0 40 0 83 -43 83c-3 0 -12 -2 -17 -5z" />
    <glyph glyph-name="q" unicode="q" horiz-adv-x="516" 
d="M158 440c96 0 113 -44 131 -44c6 8 9 18 20 18c29 0 44 -12 93 -6c26 3 78 -14 91 -30c-16 -11 -25 -23 -29 -38c-42 -153 -77 -304 -77 -458c0 -26 3 -57 20 -74c12 -8 44 -6 64 -4c16 0 22 -7 16 -15c-10 -9 -16 -19 -22 -27c-8 -7 -66 -28 -107 -28
c-38 0 -76 15 -104 41c-20 18 -40 37 -40 95c0 62 19 121 19 181c-22 -30 -66 -53 -106 -53c-61 0 -104 38 -113 55c-46 127 33 329 89 380c4 2 35 7 55 7zM207 388c-8 0 -37 -23 -63 -59c-28 -38 -64 -130 -64 -202c0 -19 10 -87 45 -87c36 0 71 32 97 72
c32 48 58 171 58 211c0 27 -31 65 -73 65z" />
    <glyph glyph-name="r" unicode="r" horiz-adv-x="435" 
d="M0 484c15 0 67 -13 76 -17c10 -4 8 -11 8 -17c0 -4 -8 -47 -11 -55c30 2 62 13 88 29c56 -1 108 -6 148 -19c17 -4 52 -23 52 -33c0 -9 -90 -163 -90 -269c0 -61 49 -57 58 -57c26 0 90 19 125 34c3 2 10 3 13 1s9 -6 12 -10c1 -3 0 -5 -5 -8c-20 -9 -93 -55 -189 -55
c-144 0 -166 77 -166 150c0 41 26 159 45 199c-22 -6 -68 -13 -88 -13c-29 0 -88 10 -99 34c-15 36 -1 63 3 95c2 6 11 11 20 11z" />
    <glyph glyph-name="r.001" horiz-adv-x="409" 
d="M17 503c9 0 61 -13 67 -19c9 -28 2 -62 -15 -87c41 12 86 20 130 20c26 0 52 -2 76 -10c13 -6 46 -29 46 -37c0 -17 -23 -41 -29 -53c-29 -69 -49 -142 -49 -212c0 -33 6 -56 26 -56c68 0 123 172 146 259c12 43 16 88 21 91c6 4 14 7 21 7c28 0 28 -33 28 -49
c0 -26 -76 -355 -219 -355c-131 0 -177 90 -177 158c0 47 27 157 41 188c-106 -4 -161 36 -161 92c0 17 23 63 48 63z" />
    <glyph glyph-name="r.002" horiz-adv-x="448" 
d="M63 365c-14 9 -35 34 -35 66c0 43 22 50 64 63c6 -2 67 -13 67 -32s-9 -46 -12 -55c6 -2 15 -6 20 -6c3 0 40 15 53 21c14 6 36 7 46 2c20 -8 87 -19 103 -27c18 -8 26 -20 26 -29c0 -16 -94 -163 -94 -246c0 -58 48 -61 62 -61c36 0 76 17 104 30c3 1 6 1 7 1
c9 0 13 -8 13 -12c0 -14 -86 -53 -160 -53c-110 0 -168 47 -168 123c0 74 29 186 32 198c-18 -2 -53 -2 -64 -2c-6 -23 -93 -274 -119 -333c-3 -4 -20 -5 -23 -4c-28 6 -34 18 -29 29c20 47 94 272 107 327z" />
    <glyph glyph-name="s" unicode="s" horiz-adv-x="398" 
d="M11 329c8 34 12 68 17 102c1 6 36 4 39 4c14 0 42 15 65 15c42 0 122 -30 157 -55c-9 -13 -26 -12 -29 -15c-6 -6 -27 -29 -27 -67c0 -85 119 -157 119 -228c0 -69 -109 -106 -197 -106c-56 0 -149 43 -201 82c2 13 15 26 26 21c43 -22 123 -54 164 -54c27 0 47 11 47 42
c0 87 -95 126 -127 236c-24 0 -48 13 -53 23z" />
    <glyph glyph-name="s.001" horiz-adv-x="448" 
d="M92 431c1 6 37 4 40 4c13 0 41 15 64 15c43 0 122 -30 157 -55c-9 -13 -26 -12 -29 -15c-6 -6 -27 -29 -27 -67c0 -85 105 -157 105 -228c0 -69 -108 -106 -197 -106c-55 0 -116 34 -167 65c-7 -20 -14 -41 -36 -52c-25 5 -54 18 -45 36c61 132 115 269 135 403zM50 74
c43 -22 103 -46 144 -46c28 0 48 11 48 42c0 87 -89 126 -110 202c-10 -29 -75 -187 -82 -198z" />
    <glyph glyph-name="t" unicode="t" horiz-adv-x="382" 
d="M70 517l17 89c3 17 12 63 32 67c17 2 66 -7 91 -14c23 -7 67 -15 68 -34c0 -19 -19 -91 -26 -106c59 0 172 2 184 2s23 -6 23 -14c0 -13 -44 -21 -69 -24c-47 -6 -96 -4 -142 -4c-19 -57 -57 -262 -57 -317c0 -57 0 -118 87 -118c59 0 103 26 115 32c6 -1 12 -2 20 -6
c6 -3 9 -11 6 -13c-18 -13 -81 -53 -171 -53c-168 0 -213 126 -213 209c0 55 20 205 29 256c-32 -1 -197 1 -222 4c-23 3 -26 10 -26 12s10 13 16 15s212 13 238 17z" />
    <glyph glyph-name="t.001" horiz-adv-x="315" 
d="M35 532c6 33 14 63 14 93c0 14 -2 20 -2 25c0 12 20 10 26 13c17 5 28 14 46 14c23 0 152 -6 152 -31c0 -4 -17 -9 -20 -17c-6 -8 -29 -76 -32 -84c116 4 217 9 332 12c17 0 40 -2 43 -4s18 -13 18 -17c-3 -4 -41 -9 -64 -11c-20 -1 -291 -21 -335 -23
c-31 -120 -40 -235 -40 -350c0 -45 14 -104 32 -104c69 0 118 290 121 366c0 6 3 12 9 12c3 0 35 -10 41 -15c3 -4 6 -31 6 -42c0 -63 -41 -367 -177 -367c-177 0 -193 182 -193 253c0 98 11 166 19 233c-147 0 -222 5 -222 14s32 15 55 17c38 4 131 9 171 13z" />
    <glyph glyph-name="u" unicode="u" horiz-adv-x="540" 
d="M32 371c3 10 23 21 32 26c8 4 14 2 20 0l49 -19c6 -3 12 -8 12 -21c0 -6 -13 -18 -15 -25c-12 -59 -31 -146 -34 -187c-3 -48 14 -101 37 -101c26 0 83 93 106 203c12 61 26 137 23 167c9 11 29 14 49 17c26 4 114 -18 137 -26c6 -4 11 -12 8 -19
c-35 -92 -49 -196 -49 -253c0 -28 15 -82 49 -82c35 0 84 18 106 27c10 4 21 2 22 -4c2 -8 -3 -18 -9 -21c-20 -8 -101 -40 -168 -40c-64 0 -136 33 -142 133c-22 -41 -65 -140 -126 -140c-116 0 -139 63 -139 121c0 61 26 207 32 244z" />
    <glyph glyph-name="u.001" horiz-adv-x="534" 
d="M34 390c3 7 24 15 32 15c9 0 61 0 84 -13c1 -3 5 -7 5 -9s-17 -9 -19 -14c-26 -105 -35 -219 -35 -285c0 -34 23 -48 29 -48c77 0 130 322 130 363c0 10 -1 17 -3 23c0 2 0 4 3 4c23 0 29 15 44 15c30 0 143 -32 143 -52c0 -6 -3 -15 -9 -24c-45 -73 -52 -182 -52 -258
c0 -19 6 -69 26 -69c53 0 130 273 139 376c0 2 4 3 9 2l38 -13c6 -2 12 -4 11 -10c-12 -92 -72 -393 -188 -393c-107 0 -147 61 -165 129c-10 -36 -37 -127 -112 -127c-48 0 -115 23 -127 53c-12 29 -17 64 -17 102c0 81 21 172 34 233z" />
    <glyph glyph-name="v" unicode="v" horiz-adv-x="446" 
d="M256 4c-8 -8 -48 -4 -65 -4s-78 2 -96 6c-17 2 -40 6 -49 19c-12 15 -15 53 -17 61c-15 97 -17 215 -29 298c11 8 37 24 63 25c33 1 163 -21 163 -35c0 -2 -15 -6 -22 -21c-35 -76 -20 -303 4 -303c37 0 95 158 112 231c-19 29 -32 59 -32 95s13 92 32 101
c13 4 30 4 36 4c14 0 44 -17 48 -29c3 -21 1 -88 -15 -170c24 -3 70 18 102 55c3 2 15 -20 15 -24c-9 -54 -55 -75 -126 -70c-20 -83 -59 -177 -124 -239z" />
    <glyph glyph-name="v.001" horiz-adv-x="447" 
d="M390 143c-24 0 -44 6 -60 17c-27 -66 -68 -135 -88 -148c-17 -11 -29 -14 -39 -14c-32 0 -64 13 -93 17c-23 4 -75 16 -81 27c-34 72 -38 284 -35 351c12 8 35 35 113 27c17 -28 74 -19 74 -46c0 -15 -10 -27 -10 -40c-1 -30 -13 -168 23 -271c40 9 84 100 92 147
c-17 32 -23 70 -23 102c0 22 2 121 45 121c35 0 52 -7 61 -15c6 -4 7 -28 7 -49c0 -58 -10 -106 -24 -150c3 -19 11 -38 29 -38c55 0 83 164 95 226c11 6 17 7 21 7c17 0 26 -6 26 -13c0 -104 -53 -258 -133 -258z" />
    <glyph glyph-name="v.002" horiz-adv-x="442" 
d="M-3 401c32 -6 75 25 104 6c18 -24 60 -17 75 -31c3 -3 9 -19 9 -26c0 -10 -12 -48 -12 -67s9 -154 29 -214c60 83 125 244 125 330c0 27 -3 36 -6 42c3 6 16 9 25 9c43 0 49 -29 81 -39c-34 -146 -90 -287 -175 -422c-12 -2 -35 -2 -47 -2c-60 0 -96 27 -145 34
c-11 0 -17 13 -20 21c-37 108 -55 333 -43 359z" />
    <glyph glyph-name="w" unicode="w" horiz-adv-x="692" 
d="M450 0c-49 0 -135 34 -152 103c-13 -38 -42 -84 -67 -95c-17 -10 -49 -8 -63 -8c-15 0 -96 16 -131 42c-32 23 -37 107 -37 151c0 88 18 161 23 210c17 -6 29 -10 31 -10c47 4 127 -3 125 -34c6 -4 20 -13 20 -23c0 -17 -35 -77 -35 -217c0 -35 4 -79 15 -79
c38 0 101 141 96 289c0 4 -9 12 -9 17c0 13 37 26 63 26c21 0 53 -1 76 -8c40 -12 69 -32 69 -38c0 -3 -3 -7 -13 -9c-17 -71 -30 -139 -30 -206c0 -36 5 -69 22 -69c32 0 87 174 87 230c-12 25 -23 64 -23 93c0 46 20 114 49 114s54 -22 61 -29c5 -4 6 -13 6 -17
c0 -20 -10 -98 -30 -170c10 -3 20 -5 30 -5c34 0 65 18 88 43c12 -1 24 -13 24 -21c0 -6 -6 -20 -13 -26c-25 -21 -57 -37 -94 -37c-14 0 -28 2 -44 8c-31 -111 -80 -225 -144 -225z" />
    <glyph glyph-name="w.001" horiz-adv-x="696" 
d="M629 149c-22 0 -40 4 -55 12c-26 -69 -65 -165 -139 -165c-75 0 -135 47 -153 88c-19 -40 -42 -99 -109 -99c-54 0 -118 26 -149 51c-32 37 -32 84 -32 123c0 85 2 164 25 236c0 6 11 14 23 14c33 0 56 -27 125 -42c12 -3 26 -13 26 -27c0 -4 -6 -11 -12 -11
c-9 -31 -29 -156 -29 -205c0 -52 15 -101 29 -101c49 0 84 204 84 251c0 62 3 80 3 99c38 -6 40 0 58 0c6 0 68 -14 78 -18c11 -4 29 -20 29 -32c0 -22 -49 -275 19 -275c27 0 61 101 76 155c-23 30 -35 68 -35 101c0 22 3 118 46 118c40 0 52 -8 58 -10
c20 -8 26 -29 26 -57c0 -45 -18 -105 -29 -146c6 -13 20 -23 32 -23c46 0 81 123 94 206c3 11 15 19 36 19c3 0 19 -8 19 -12c0 -54 -36 -250 -144 -250z" />
    <glyph glyph-name="w.002" horiz-adv-x="682" 
d="M8 392c13 1 49 -6 68 -14c7 4 10 8 16 8c37 0 78 -21 101 -38c0 -6 -8 -8 -11 -10c-11 -73 -20 -142 -20 -211c0 -20 5 -77 31 -77c47 0 79 221 79 253c0 10 -1 20 -3 28c-12 30 54 38 84 38c23 0 114 -23 114 -34c0 -10 -11 -12 -14 -19c-23 -67 -25 -266 1 -266
c55 0 112 283 112 349c0 26 -4 40 -9 44c-5 3 -8 5 -8 8c0 4 20 16 26 16c20 0 77 -20 78 -26c25 -62 -50 -443 -171 -443c-43 0 -100 17 -126 38c-22 21 -52 72 -55 86c-15 -34 -32 -126 -105 -126c-48 0 -118 18 -149 40c-45 51 -55 103 -55 158c0 67 16 133 16 198z" />
    <glyph glyph-name="x" unicode="x" horiz-adv-x="435" 
d="M47 -36c-3 -4 -9 -2 -12 0c-6 5 -17 -4 -35 26c26 41 64 92 109 146c-20 53 -31 107 -48 137c-17 0 -46 8 -61 16c6 26 18 102 21 119c11 12 40 25 52 25c33 0 100 -9 129 -21c14 -6 21 -25 23 -32l9 -98c49 55 96 105 133 142c11 11 11 13 17 13c12 0 47 -36 47 -46
c0 -7 -16 -12 -26 -21c-47 -46 -104 -106 -159 -168c16 -80 46 -155 109 -155c52 0 78 23 81 25c5 3 40 -11 25 -21c-20 -13 -80 -53 -190 -53c-68 0 -107 33 -135 78c-33 -41 -64 -79 -89 -112z" />
    <glyph glyph-name="x.001" horiz-adv-x="441" 
d="M67 -12c-3 -7 3 -11 -9 -11c-9 0 -49 14 -52 21c-4 8 35 62 90 129c-33 60 -50 126 -58 160c-15 4 -23 4 -38 7c3 25 18 107 18 126c14 5 46 19 55 19c14 0 152 -28 156 -46c0 -4 -6 -6 -6 -6c-3 -7 -4 -54 0 -111c68 76 127 138 138 138c3 0 29 -2 35 -4
c11 -10 9 -27 0 -36c-35 -34 -101 -103 -163 -175c12 -74 36 -140 81 -140c65 0 157 298 157 340c0 7 9 13 14 13c24 0 32 -9 32 -21c0 -84 -56 -268 -110 -335c-35 -42 -52 -58 -122 -58c-69 0 -118 33 -155 78c-31 -37 -54 -69 -63 -88z" />
    <glyph glyph-name="y" unicode="y" horiz-adv-x="505" 
d="M46 387c6 2 20 4 23 4s15 -4 20 -4c21 0 43 -15 56 -22c0 -17 -67 -145 -67 -266c0 -36 14 -76 35 -76c75 0 162 285 162 364c0 12 -12 33 -13 37c-3 5 1 11 10 15c34 1 46 23 69 23c64 0 89 -23 130 -43c12 -8 -17 -50 -30 -104c-43 -173 -78 -347 -91 -518
c0 -4 3 -24 0 -27c-3 -4 -30 -15 -47 -15c-29 0 -107 12 -118 30c-3 89 8 178 23 264c-14 -21 -40 -62 -90 -62c-49 0 -80 30 -87 39c-19 22 -31 48 -31 94c0 61 28 204 46 267z" />
    <glyph glyph-name="z" unicode="z" horiz-adv-x="435" 
d="M6 365c80 17 216 55 262 55c20 0 55 -8 84 -27c32 -19 52 -44 52 -53c0 -11 -11 -23 -20 -30c-32 -28 -262 -225 -262 -263c0 -10 179 -2 210 -5c12 -1 43 -16 43 -21c0 -8 -74 -18 -141 -27c-57 -8 -110 -16 -118 -16c-23 0 -53 10 -69 24c-21 13 -41 26 -44 32
s-3 25 -3 30c0 16 139 230 210 291c3 2 6 4 3 4c-17 0 -155 -17 -172 -17c-12 0 -39 11 -39 19c0 2 1 3 4 4z" />
    <glyph glyph-name="one" unicode="1" horiz-adv-x="412" 
d="M96 652c0 13 7 17 22 22c17 4 29 14 35 16c2 1 43 -12 72 -18c29 -7 75 -19 75 -36s-17 -201 -29 -313c-11 -112 -20 -254 -17 -279c0 -16 15 -44 15 -46c0 -6 -6 -8 -9 -10c-15 8 -41 6 -61 4c-23 -2 -119 42 -119 53c0 12 -7 105 0 171c3 65 16 360 16 436z" />
    <glyph glyph-name="two" unicode="2" horiz-adv-x="823" 
d="M86 471c38 30 270 207 378 207c107 0 145 -34 168 -45c23 -12 145 -54 145 -130c0 -173 -329 -321 -476 -412c69 -8 138 0 205 0c63 0 152 -4 222 -23c14 -17 26 -34 35 -42c-58 -15 -174 -17 -264 -24c-87 -10 -268 -21 -329 -21c-38 0 -61 20 -84 32
c-22 11 -48 29 -48 45c0 18 16 41 35 52c155 89 527 271 527 441c0 14 -23 42 -46 42c-107 0 -297 -143 -375 -150c-32 -2 -61 -4 -73 0c-8 5 -31 18 -20 28z" />
    <glyph glyph-name="three" unicode="3" horiz-adv-x="783" 
d="M99 536c39 26 244 169 360 169c202 0 277 -106 277 -122c0 -17 0 -59 -26 -85c-23 -25 -116 -93 -201 -133c72 -25 215 -99 215 -177c0 -84 -97 -149 -159 -173c-63 -24 -149 -53 -198 -53c-138 0 -344 53 -344 87c0 8 0 21 3 25s15 7 29 6c17 -1 119 -12 187 -12
c128 0 332 84 332 137c0 42 -87 69 -150 69c-38 0 -124 -14 -144 -14c-29 0 -51 12 -58 23c-9 13 -45 59 -29 87c108 17 382 136 382 228c0 21 -30 25 -49 25c-137 0 -327 -139 -391 -139c-29 0 -39 27 -36 52z" />
    <glyph glyph-name="four" unicode="4" horiz-adv-x="786" 
d="M402 11c-1 72 3 142 13 211c-85 -1 -173 -4 -274 -11c-42 -3 -65 17 -77 23c-10 5 -49 22 -49 43c0 19 17 34 26 44c62 66 351 372 436 372c10 0 19 -9 23 -15c66 1 225 -27 225 -63c0 -13 -12 -20 -21 -30c-34 -67 -61 -180 -83 -294c51 -2 92 -5 112 -10
c18 -5 29 -13 29 -17c0 -2 5 -41 -28 -41h-125c-14 -82 -25 -159 -32 -214c3 -19 11 -21 11 -28c0 -4 -11 -8 -11 -8c-32 4 -52 -4 -83 -2c-52 3 -92 5 -92 40zM474 570c-119 -68 -183 -176 -231 -269c-1 -2 -6 -9 5 -9c32 0 101 2 176 2c15 92 33 183 50 276z" />
    <glyph glyph-name="five" unicode="5" horiz-adv-x="773" 
d="M167 680c40 -20 219 4 284 4c91 0 213 -15 245 -40c2 -2 15 -24 15 -36c0 -11 -21 -13 -42 -13c-114 0 -218 -9 -320 -35c-20 -26 -46 -108 -43 -138c184 -15 421 -101 421 -230c0 -84 -201 -150 -228 -164c-31 -15 -153 -53 -216 -53c-70 0 -158 29 -200 52
c-42 22 -68 49 -68 62s20 36 29 36c31 0 65 -30 100 -30c147 0 436 53 436 159c0 36 -84 43 -136 43c-69 0 -135 -16 -199 -16c-29 0 -159 50 -159 72c0 102 62 195 62 293c0 15 -16 17 -16 25c4 2 19 7 35 9z" />
    <glyph glyph-name="six" unicode="6" horiz-adv-x="744" 
d="M389 693c9 -4 15 -6 20 -6c3 0 12 2 18 4c29 -2 55 -6 79 -14c28 -11 62 -25 86 -62c0 -2 -3 -4 -3 -4c-40 4 -83 -26 -104 -43c-32 -25 -113 -105 -145 -166c9 2 64 35 96 35c106 0 262 -88 262 -156c0 -63 -23 -129 -66 -185c-41 -55 -118 -142 -217 -142
c-71 0 -236 52 -279 84c-56 41 -75 87 -75 140c0 167 138 415 328 515zM462 357c-106 0 -216 -147 -216 -223c0 -34 2 -114 74 -114c105 0 229 166 229 278c0 40 -52 59 -87 59z" />
    <glyph glyph-name="seven" unicode="7" horiz-adv-x="580" 
d="M72 644c29 9 320 53 358 53c46 0 124 -32 130 -61c9 -42 50 -59 50 -72c0 -19 -32 -48 -53 -72c-116 -127 -269 -344 -308 -487c7 -13 19 -36 -12 -36c-24 0 -38 18 -55 21c-11 2 -64 10 -78 17c-12 10 -15 27 -12 44c33 143 196 404 290 541c-90 10 -183 -3 -272 -3
c-15 0 -79 5 -79 19c0 15 26 29 41 36z" />
    <glyph glyph-name="eight" unicode="8" horiz-adv-x="837" 
d="M280 359c-32 24 -142 112 -142 173c0 90 191 171 310 171c135 0 335 -70 335 -170c0 -64 -125 -159 -206 -197c52 -34 165 -93 165 -175c0 -104 -151 -201 -301 -201c-147 0 -410 62 -410 176c0 69 156 171 249 223zM412 431c49 25 185 117 185 167c0 36 -58 51 -78 51
c-95 0 -173 -46 -173 -107c0 -46 36 -89 66 -111zM435 269c-98 -43 -224 -92 -224 -171c0 -57 110 -72 171 -72c62 0 181 48 181 122c0 51 -86 99 -128 121z" />
    <glyph glyph-name="nine" unicode="9" horiz-adv-x="789" 
d="M346 716c49 0 136 -43 163 -61c30 -2 53 7 65 6c53 -6 154 -22 154 -57c0 -5 -1 -9 -1 -12c-51 -177 -115 -401 -104 -606c-11 -15 -103 -9 -120 -9c-20 0 -78 24 -93 36c-3 26 3 171 18 216c-53 -17 -76 -19 -105 -19c-147 0 -269 85 -269 177c0 133 208 329 292 329z
M535 590c-105 45 -221 -71 -258 -117c-28 -35 -78 -103 -78 -156c0 -13 8 -38 30 -38c83 0 141 41 173 69c66 57 133 173 133 242z" />
    <glyph glyph-name="zero" unicode="0" horiz-adv-x="776" 
d="M289 676c19 0 43 -10 77 -15c26 -4 61 -3 88 -10c130 -28 268 -109 268 -239c0 -93 -64 -437 -320 -437c-81 0 -159 29 -223 50c-89 35 -125 88 -125 153c0 171 82 355 139 450c24 40 46 29 58 35c17 7 23 13 38 13zM442 577c-101 -66 -197 -290 -197 -427
c0 -40 20 -114 90 -114c124 0 256 182 256 345c0 178 -109 193 -149 196z" />
    <glyph glyph-name="dollar" unicode="$" horiz-adv-x="422" 
d="M210 600c3 17 9 51 16 59c7 7 11 5 16 4c4 -1 29 -10 29 -14c0 -3 -6 -41 -9 -53c32 -9 87 -23 108 -44c11 -11 14 -17 14 -34s-17 -89 -41 -104c-8 -4 -20 -6 -26 -4c-5 4 -23 12 -26 21s-11 74 -14 87c-23 -19 -52 -74 -52 -97c0 -72 153 -99 153 -148
c0 -39 -64 -79 -112 -79c-7 0 -12 1 -12 1c-3 -15 -3 -53 -6 -57c-6 -8 -12 -15 -19 -15c-22 0 -36 25 -36 36c0 6 -3 40 -3 48c-29 5 -91 15 -143 59c-3 3 -7 9 -7 14c0 3 1 5 7 5c5 0 23 -3 34 -8c49 -25 121 -42 181 -42c15 0 21 8 21 12c0 36 -196 98 -196 167
c0 55 19 114 58 157c16 18 32 29 65 29z" />
    <glyph glyph-name="cent" unicode="&#xa2;" horiz-adv-x="378" 
d="M158 600c7 0 19 1 29 2c0 9 0 42 23 59c3 2 13 4 19 4c4 -2 13 -8 19 -10c-3 -19 -9 -53 -3 -66c26 -6 63 -20 81 -31c9 -21 14 -38 14 -44c0 -42 -16 -81 -37 -119c-6 -7 -28 -15 -37 -15c-10 0 -30 13 -37 17c-9 6 -12 16 -12 24c0 25 14 82 6 90
c-42 -62 -67 -132 -67 -197c0 -39 11 -75 44 -75c49 0 78 32 85 36c9 4 26 4 29 4c6 0 15 -2 15 -6c0 -6 -44 -61 -110 -63c-6 -11 -19 -67 -22 -72c-1 -4 -13 -11 -16 -11c-8 0 -28 10 -30 15c-3 8 -6 59 0 76c-76 18 -113 77 -113 125c0 96 58 249 120 257z" />
    <glyph glyph-name="percent" unicode="%" horiz-adv-x="861" 
d="M168 686c19 0 97 -6 132 -53c56 -21 58 -62 58 -95c122 7 237 63 317 116c10 1 15 2 20 2c12 0 24 -19 32 -23c7 -5 23 -8 26 -10s12 -13 3 -21c-8 -7 -49 -39 -64 -53c-150 -144 -421 -425 -518 -547c-6 -5 -35 2 -39 4c-8 4 -16 9 -16 13c0 18 23 37 36 51
c88 109 328 390 445 487c-86 -35 -143 -59 -242 -51c-9 -67 -49 -220 -147 -220c-101 0 -173 63 -173 123c0 40 23 277 130 277zM239 604c-36 -28 -75 -157 -75 -212c0 -37 13 -61 32 -61c50 0 76 155 79 194c-29 25 -36 49 -36 79zM575 380c9 0 26 3 35 2
c11 -3 22 -8 33 -8c7 0 21 2 33 2c31 0 109 -26 121 -41c22 -30 26 -65 26 -103c0 -58 -18 -247 -145 -247c-107 0 -187 71 -187 135c0 110 29 213 84 260zM710 331c-43 1 -90 -169 -90 -257c0 -18 3 -51 32 -51c84 0 93 208 93 260c0 25 -21 48 -35 48z" />
    <glyph glyph-name="slash" unicode="/" horiz-adv-x="584" 
d="M562 673c7 2 18 -14 21 -21c3 -8 29 -13 32 -19c-182 -206 -356 -408 -500 -623c-6 -6 -22 -6 -23 -6c-3 2 -25 13 -38 15c-13 3 -7 16 0 23c146 219 321 429 508 631z" />
    <glyph glyph-name="onesuperior" unicode="&#xb9;" horiz-adv-x="245" 
d="M35 658c0 9 3 13 15 15l20 11c19 -2 98 -22 98 -34c0 -11 -12 -131 -20 -205c-7 -74 -13 -169 -10 -186c1 -16 7 -23 10 -25c-3 -4 -6 -6 -9 -6c-15 3 -26 2 -40 2c-21 0 -76 29 -76 34v65c0 140 12 234 12 329z" />
    <glyph glyph-name="twosuperior" unicode="&#xb2;" horiz-adv-x="525" 
d="M61 572c25 21 170 110 239 110c44 0 104 -26 112 -31c30 -17 75 -35 75 -85c0 -80 -213 -234 -291 -285c49 2 92 7 136 7c24 0 58 -2 81 -9c31 -9 38 -25 38 -32c0 -6 -87 -7 -174 -13c-64 -5 -129 -16 -159 -16c-22 0 -37 17 -51 25c-15 7 -29 15 -29 18
c0 9 29 24 38 30c92 60 274 221 274 321c0 10 -1 13 -21 13c-63 0 -170 -57 -214 -76c-22 -9 -63 17 -54 23z" />
    <glyph glyph-name="threesuperior" unicode="&#xb3;" horiz-adv-x="578" 
d="M116 597c23 17 120 81 195 81c71 0 99 -14 116 -24c24 -14 61 -37 61 -57c0 -49 -58 -84 -110 -109c49 -17 162 -66 162 -117c0 -81 -184 -156 -304 -156c-88 0 -198 66 -198 89c0 6 0 13 2 15c3 4 9 5 18 4c12 -1 93 -40 136 -40c84 0 227 72 227 107
c0 34 -74 41 -110 41c-23 0 -72 -5 -85 -5c-12 0 -41 4 -45 11c-7 8 -13 32 -10 51c77 11 189 76 189 130c0 12 -10 13 -22 13c-17 0 -49 -1 -89 -21c-42 -21 -90 -47 -110 -47s-23 17 -23 34z" />
    <glyph glyph-name="foursuperior" unicode="&#x2074;" horiz-adv-x="473" 
d="M225 686c3 0 8 -6 11 -9c50 -2 133 -11 166 -33c8 -5 8 -11 8 -13c0 -8 -6 -15 -11 -23c-15 -19 -26 -125 -32 -182c20 -2 69 -6 72 -8s18 -9 18 -11s0 -25 -6 -27c-9 0 -81 -2 -96 -4c-6 -36 -20 -116 -20 -127c3 -11 11 -15 9 -17l-9 -6c-20 7 -40 6 -66 10
c-21 3 -59 13 -59 34c-3 30 0 46 9 104c-55 1 -103 -1 -152 -1c-30 0 -67 18 -67 38c0 46 78 108 174 229c31 38 42 46 51 46zM257 606c-41 -22 -148 -146 -148 -175c0 0 0 -3 4 -3c37 2 75 3 115 3c1 19 26 162 29 175z" />
    <glyph glyph-name="fivesuperior" unicode="&#x2075;" horiz-adv-x="502" 
d="M112 677c70 1 160 7 183 7c46 0 140 -6 140 -43c0 -13 -98 10 -183 -16c-15 -17 -41 -83 -41 -102c133 -3 245 -61 245 -156c0 -71 -162 -139 -254 -139c-66 0 -171 44 -171 84c0 9 27 11 33 11c17 0 74 -15 121 -15c69 0 185 63 185 108c0 25 -26 32 -55 32
c-53 0 -127 -22 -150 -22c-17 0 -96 35 -96 47c0 63 29 122 29 183c0 9 6 21 14 21z" />
    <glyph glyph-name="sixsuperior" unicode="&#x2076;" horiz-adv-x="479" 
d="M236 680c6 -2 12 -4 15 -4s5 2 8 4c45 -4 88 -15 119 -34c-3 -2 -3 -3 -6 -2c-55 10 -133 -116 -164 -171c15 14 72 57 121 57c69 0 115 -56 115 -94c0 -47 -23 -92 -51 -128c-27 -36 -81 -86 -145 -86c-107 0 -210 59 -210 128c0 110 74 267 198 330zM326 492
c-75 0 -158 -114 -158 -163c0 -30 8 -63 48 -63c92 0 142 131 142 175c0 26 -6 51 -32 51z" />
    <glyph glyph-name="sevensuperior" unicode="&#x2077;" horiz-adv-x="355" 
d="M21 657c36 11 253 36 282 23c32 -21 83 -48 83 -68c0 -14 -22 -31 -36 -48c-24 -27 -173 -254 -173 -322c0 -4 0 -8 -1 -10c-2 -2 -6 -3 -9 -3c-20 0 -42 3 -58 7c-6 1 -39 19 -46 24c-5 3 -6 6 -6 10c0 67 117 283 165 370c-49 -2 -93 -13 -139 -13c-10 0 -49 4 -59 11
c-4 6 -9 11 -9 14c0 2 2 4 6 5z" />
    <glyph glyph-name="eightsuperior" unicode="&#x2078;" horiz-adv-x="565" 
d="M202 477c-25 15 -93 70 -93 108c0 62 122 105 200 105c90 0 217 -39 217 -105c0 -40 -81 -99 -133 -123c35 -21 107 -57 107 -109c0 -67 -104 -125 -197 -125c-96 0 -265 38 -265 110c0 44 103 107 164 139zM286 521c29 17 121 61 121 104c0 23 -37 32 -52 32
c-60 0 -113 -27 -113 -65c0 -29 24 -56 44 -71zM300 422c-58 -25 -145 -56 -145 -107c0 -36 73 -45 113 -45c38 0 116 30 116 76c0 32 -55 61 -84 76z" />
    <glyph glyph-name="ninesuperior" unicode="&#x2079;" horiz-adv-x="514" 
d="M225 699c38 0 83 -24 107 -38c18 0 32 4 41 4c37 0 106 -16 101 -35c-32 -83 -87 -302 -69 -385c0 -4 -27 -7 -53 -7c-35 0 -66 11 -84 24c-2 15 3 107 12 135c-24 -7 -49 -11 -72 -11c-109 0 -173 51 -173 115c0 71 136 198 190 198zM350 621c0 4 -23 8 -32 8
c-101 -15 -186 -118 -186 -179c0 -7 3 -23 19 -23c98 0 155 87 178 133c9 14 21 56 21 61z" />
    <glyph glyph-name="zerosuperior" unicode="&#x2070;" horiz-adv-x="513" 
d="M193 674c12 0 29 -5 40 -9c10 -4 52 -4 67 -6c105 -24 174 -75 174 -148s-49 -274 -206 -274c-48 0 -121 24 -141 31c-64 24 -89 57 -89 100c0 106 54 219 92 276c15 27 29 19 38 23c9 3 16 7 25 7zM294 612c-83 -61 -130 -193 -130 -270c0 -24 18 -67 59 -67
c112 0 166 167 166 217c0 42 -16 120 -95 120z" />
    <glyph glyph-name="questiondown" unicode="&#xbf;" horiz-adv-x="724" 
d="M580 319c-25 -3 -64 -7 -87 0c-49 21 -75 52 -51 88c16 15 35 30 71 34c78 8 114 -26 125 -61c0 -13 -21 -53 -58 -61zM634 -84c-2 -114 -213 -188 -340 -188c-67 0 -97 10 -138 38c-39 23 -121 48 -121 109c0 161 407 235 436 378c-4 9 -20 21 -13 25c9 3 13 7 29 7
c13 0 32 -7 38 -7c4 0 38 -4 47 -7c8 -4 37 -28 40 -33c26 -67 -89 -153 -151 -196c-88 -59 -217 -168 -217 -216c0 -34 40 -38 46 -38c93 0 197 72 223 186c2 8 6 22 33 22c26 0 88 -60 88 -80z" />
    <glyph glyph-name="exclamdown" unicode="&#xa1;" horiz-adv-x="476" 
d="M326 319c-25 -3 -64 -7 -87 0c-49 21 -75 52 -51 88c15 15 35 28 68 34c67 4 116 -21 128 -61c0 -13 -21 -53 -58 -61zM256 -275c-13 0 -140 11 -172 22c-35 12 -38 27 -38 29c3 4 23 6 29 6c-6 5 -3 12 0 19c40 119 89 264 89 378c0 28 1 69 -16 81c3 8 40 23 52 23
c11 0 49 -2 56 -7c16 -23 70 -29 78 -48c35 -102 -20 -225 -20 -338c0 -90 27 -134 9 -144c-8 -4 -55 -21 -67 -21z" />
    <glyph glyph-name="periodcentered" unicode="&#xb7;" horiz-adv-x="476" 
d="M286 319c-24 -3 -64 -7 -87 0c-49 21 -75 52 -51 88c16 15 36 28 68 34c67 4 116 -21 128 -61c0 -13 -21 -53 -58 -61z" />
    <glyph glyph-name="bullet" unicode="&#x2022;" horiz-adv-x="476" 
d="M156 435c37 4 96 10 130 0c74 -32 113 -78 77 -132c-23 -23 -54 -42 -101 -51c-101 -6 -175 31 -193 91c0 20 32 80 87 92z" />
    <glyph glyph-name="backslash" unicode="\" horiz-adv-x="584" 
d="M-9 664c186 -202 361 -412 508 -632c6 -7 12 -19 0 -22c-14 -2 -35 -14 -38 -15c-2 0 -17 -1 -22 6c-145 215 -320 417 -500 622c1 7 29 11 32 20c3 6 12 23 20 21z" />
    <glyph glyph-name="endash" unicode="&#x2013;" horiz-adv-x="565" 
d="M83 302c110 -16 241 14 353 -4c11 -2 -5 -16 0 -21c5 -6 14 -15 12 -23c-30 -18 -281 -28 -313 -21c-22 4 -74 45 -52 69z" />
    <glyph glyph-name="emdash" unicode="&#x2014;" horiz-adv-x="666" 
d="M84 300c124 -15 295 13 451 -4c14 -2 -4 -15 0 -20c5 -6 16 -14 14 -22c-35 -18 -372 -28 -408 -21c-23 4 -83 43 -57 67z" />
    <glyph glyph-name="bar" unicode="|" horiz-adv-x="462" 
d="M207 776c12 14 42 -4 64 -20c-19 -238 -20 -742 -11 -977c-1 -7 -15 -11 -17 -11c-38 0 -47 17 -47 23c-9 240 -3 736 11 985z" />
    <glyph glyph-name="numbers.001" horiz-adv-x="754" 
d="M505 651c12 14 40 8 61 -8c-6 -65 -9 -129 -12 -192c50 1 102 2 153 4c11 -1 17 -10 17 -11c-17 -24 -51 -28 -60 -28l-112 -2c-3 -49 -4 -98 -4 -143c53 1 107 2 159 4c11 -1 17 -10 17 -11c0 -25 -26 -28 -36 -28c-53 -1 -99 -2 -142 -2c0 -79 0 -149 5 -202
c-2 -7 -40 -14 -42 -14c-15 0 -18 20 -18 26c-1 54 -3 117 -1 189h-161c-2 -78 0 -148 5 -201c-2 -7 -16 -11 -17 -11c-39 0 -43 17 -43 23c-2 53 -3 117 -2 189c-82 1 -108 4 -185 5c-21 8 6 25 31 39c41 -3 95 -5 154 -6l3 142c-90 1 -107 4 -188 5c-21 8 14 35 38 39
c42 -3 94 -5 152 -6c3 66 6 136 11 208c12 14 38 -4 59 -20c-4 -64 -9 -127 -12 -188c51 -1 106 -1 161 0c1 63 4 130 9 200zM329 271c52 -1 106 -1 161 0l4 143c-69 -1 -119 -1 -160 -1c-4 -50 -4 -97 -5 -142z" />
    <glyph glyph-name="numbersign" unicode="#" horiz-adv-x="551" 
d="M347 472l9 165c10 11 33 7 51 -7c-5 -53 -8 -106 -11 -157c43 0 84 2 126 3c9 -1 13 -8 13 -9c-13 -19 -41 -23 -48 -23c-34 -1 -65 -1 -92 -1c-2 -39 -3 -77 -3 -113l130 3c9 0 13 -8 13 -9c0 -20 -19 -23 -27 -23l-118 -2c0 -66 0 -126 3 -170c0 -5 -32 -11 -33 -11
c-13 0 -16 16 -16 21c-1 45 -1 99 -1 160c-55 -1 -98 0 -132 0c0 -67 2 -125 5 -170c-2 -5 -13 -9 -14 -9c-32 0 -35 14 -35 19c-2 44 -2 100 -2 160c-67 1 -89 3 -151 4c-17 7 6 21 26 32c33 -2 78 -3 125 -4l3 111c-73 1 -87 3 -154 4c-17 7 10 29 30 32
c34 -2 78 -4 126 -5c1 55 4 112 7 171c11 11 33 -4 49 -17c-4 -53 -7 -104 -9 -155h130zM213 330c41 0 85 -1 131 0c0 35 0 73 2 112h-130c-2 -39 -3 -76 -3 -112z" />
    <glyph glyph-name="ellipsis" unicode="&#x2026;" horiz-adv-x="1088" 
d="M138 124c43 0 111 -18 131 -44c3 -6 -4 -39 -15 -53c-9 -13 -26 -29 -52 -29c-58 -3 -101 26 -110 59c0 12 12 67 46 67zM500 124c43 0 112 -18 132 -44c3 -6 -5 -39 -15 -53c-10 -13 -26 -29 -52 -29c-59 -3 -101 26 -111 59c0 12 13 67 46 67zM863 124
c43 0 112 -18 131 -44c4 -6 -4 -39 -15 -53c-9 -13 -26 -29 -52 -29c-58 -3 -101 26 -110 59c0 12 12 67 46 67z" />
    <glyph glyph-name="perthousand" unicode="&#x2030;" horiz-adv-x="1233" 
d="M168 686c19 0 97 -6 132 -53c56 -21 58 -62 58 -95c122 7 237 63 317 116c10 1 15 2 20 2c12 0 24 -19 32 -23c7 -5 23 -8 26 -10s12 -13 3 -21c-8 -7 -49 -39 -64 -53c-150 -144 -421 -425 -518 -547c-6 -5 -35 2 -39 4c-8 4 -16 9 -16 13c0 18 23 37 36 51
c88 109 328 390 445 487c-86 -35 -143 -59 -242 -51c-9 -67 -49 -220 -147 -220c-101 0 -173 63 -173 123c0 40 23 277 130 277zM239 604c-36 -28 -75 -157 -75 -212c0 -37 13 -61 32 -61c50 0 76 155 79 194c-29 25 -36 49 -36 79zM575 380c9 0 26 3 35 2
c11 -3 22 -8 33 -8c7 0 21 2 33 2c31 0 109 -26 121 -41c22 -30 26 -65 26 -103c0 -58 -18 -247 -145 -247c-107 0 -187 71 -187 135c0 110 29 213 84 260zM710 331c-43 1 -90 -169 -90 -257c0 -18 3 -51 32 -51c84 0 93 208 93 260c0 25 -21 48 -35 48zM952 380
c61 -4 58 0 105 -3c43 -3 100 -27 112 -42c21 -30 26 -65 26 -103c0 -58 -29 -247 -156 -247c-107 0 -176 71 -176 135c0 110 38 240 89 260zM1082 331c-51 0 -91 -169 -91 -257c0 -18 3 -51 33 -51c84 0 93 201 93 253c0 25 -17 55 -35 55z" />
    <glyph glyph-name="plus" unicode="+" horiz-adv-x="610" 
d="M237 295l-228 3c-29 11 19 47 51 52c67 -4 124 -7 179 -8c1 52 6 106 12 168c17 19 50 -5 79 -27c-6 -58 -10 -103 -12 -141c68 0 139 2 231 5c16 -2 23 -14 23 -15c-23 -32 -67 -37 -79 -37c-62 -2 -118 -2 -178 -1c-1 -54 0 -99 5 -161c-3 -9 -22 -15 -23 -15
c-51 0 -57 23 -57 31c-3 48 -3 96 -3 146z" />
    <glyph glyph-name="minus" unicode="&#x2212;" horiz-adv-x="610" 
d="M9 298c-29 11 19 47 51 52c179 -10 284 -10 489 -3c16 -2 23 -14 23 -15c-23 -32 -67 -37 -79 -37c-156 -4 -293 2 -484 3z" />
    <glyph glyph-name="plusminus" unicode="&#xb1;" horiz-adv-x="610" 
d="M237 295l-228 3c-29 11 19 47 51 52c67 -4 124 -7 179 -8c1 52 6 106 12 168c17 19 50 -5 79 -27c-6 -58 -10 -103 -12 -141c68 0 139 2 231 5c16 -2 23 -14 23 -15c-23 -32 -67 -37 -79 -37c-62 -2 -118 -2 -178 -1c-1 -54 0 -99 5 -161c-3 -9 -22 -15 -23 -15
c-51 0 -57 23 -57 31c-3 48 -3 96 -3 146zM9 27c-29 11 19 47 51 52c179 -10 284 -10 489 -3c16 -2 23 -14 23 -15c-23 -32 -67 -37 -79 -37c-156 -4 -293 2 -484 3z" />
    <glyph glyph-name="multiply" unicode="&#xd7;" horiz-adv-x="513" 
d="M35 449c-9 21 64 25 92 13c44 -35 83 -69 122 -102c55 33 115 67 184 107c32 6 31 -27 26 -56l-159 -92c47 -39 101 -78 170 -118c9 -9 1 -21 0 -21c-51 -12 -88 5 -97 10c-46 28 -87 60 -130 95c-56 -35 -104 -65 -167 -110c-12 -5 -32 -1 -32 0c-36 23 -15 42 -7 48
c52 35 104 68 159 103c-49 41 -101 83 -161 123z" />
    <glyph glyph-name="divide" unicode="&#xf7;" horiz-adv-x="610" 
d="M327 412c-16 -2 -45 -5 -61 0c-35 15 -52 36 -35 61c11 11 25 20 47 24c46 3 82 -14 89 -42c0 -10 -14 -38 -40 -43zM9 298c-29 11 19 47 51 52c179 -10 284 -10 489 -3c16 -2 23 -14 23 -15c-23 -32 -67 -37 -79 -37c-156 -4 -293 2 -484 3zM314 146
c-17 -2 -46 -5 -62 0c-35 15 -52 36 -35 61c11 11 25 20 48 24c46 3 81 -14 88 -42c0 -10 -13 -38 -39 -43z" />
    <glyph glyph-name="equal" unicode="=" horiz-adv-x="630" 
d="M11 227c-29 11 7 33 41 52c207 -5 315 -9 499 -4c14 -2 23 -14 23 -15c0 -33 -35 -37 -48 -37c-170 -3 -297 -5 -515 4zM29 373c-29 11 18 47 51 52c179 -10 284 -10 489 -3c15 -2 23 -14 23 -15c-23 -32 -67 -37 -79 -37c-157 -4 -293 2 -484 3z" />
    <glyph glyph-name="notequal" unicode="&#x2260;" horiz-adv-x="630" 
d="M298 369l-269 4c-6 2 -9 6 -9 10c0 15 35 38 60 42c96 -6 172 -8 254 -8c33 43 67 85 97 119c4 1 5 1 8 1c23 0 34 -36 25 -55c-20 -19 -40 -41 -60 -65l165 5c15 -2 23 -14 23 -15c-23 -32 -67 -37 -79 -37c-51 -2 -100 -2 -149 -2c-23 -30 -46 -62 -69 -95
c81 -1 158 -1 256 2c14 -2 23 -14 23 -15c0 -33 -35 -37 -48 -37c-95 -2 -177 -3 -267 -3c-31 -43 -60 -84 -89 -121c-6 -6 -15 -7 -23 -7c-5 0 -8 1 -8 1c-30 28 -4 56 0 62l51 66c-54 1 -114 3 -179 6c-8 3 -11 6 -11 10c0 12 28 28 52 42c67 -2 124 -4 177 -5
c22 31 45 63 69 95z" />
    <glyph glyph-name="approxequal" unicode="&#x2248;" horiz-adv-x="630" 
d="M58 329c-29 -9 -23 52 2 67c212 121 289 -111 489 34c14 10 32 -1 32 -1c3 -6 3 -12 3 -18c0 -52 -101 -88 -168 -88c-130 0 -219 109 -358 6zM41 188c-33 0 -23 52 2 67c214 123 289 -111 489 34c14 10 33 -1 33 -1c3 -6 3 -12 3 -18c0 -52 -101 -88 -169 -88
c-130 0 -218 109 -358 6z" />
    <glyph glyph-name="less" unicode="&#x3c;" horiz-adv-x="641" 
d="M26 276l29 12l15 8c2 0 3 1 5 1c118 51 280 126 386 168c33 7 94 -15 133 -37c4 -4 -6 -22 -17 -26c-123 -35 -259 -95 -358 -133c133 -35 222 -88 304 -132c23 -13 23 -34 -35 -41c-18 -2 -83 -7 -93 -1c-152 65 -254 122 -345 142c-10 3 -24 22 -24 29c-3 4 -5 8 0 10z
" />
    <glyph glyph-name="guilsinglleft" unicode="&#x2039;" horiz-adv-x="482" 
d="M-35 236l35 14l3 3c2 0 3 1 5 1c101 44 243 109 335 146c29 6 82 -13 114 -32c5 -4 -4 -19 -13 -23c-107 -30 -225 -82 -312 -115c116 -31 194 -77 264 -115c20 -12 20 -30 -30 -36c-16 -2 -72 -6 -81 -1c-132 57 -221 106 -299 124c-7 3 -23 20 -21 26c-3 3 -3 6 0 8z
" />
    <glyph glyph-name="greater" unicode="&#x3e;" horiz-adv-x="641" 
d="M621 278l-29 -12l-15 -8c-2 -1 -3 -1 -6 -1c-117 -51 -280 -127 -384 -168c-34 -7 -95 20 -133 42c-5 4 6 22 16 26c126 35 265 94 366 131c-132 39 -229 84 -312 129c-23 13 -23 34 35 41c18 2 83 7 93 1c152 -65 254 -122 345 -142c9 -4 24 -22 24 -29c3 -5 3 -8 0 -10
z" />
    <glyph glyph-name="guilsinglright" unicode="&#x203a;" horiz-adv-x="482" 
d="M464 256l-39 -17c-1 -1 -3 -1 -4 -1c-100 -44 -230 -107 -322 -143c-29 -6 -82 13 -114 32c-5 4 4 19 13 23c106 29 216 79 299 112c-116 31 -194 76 -265 115c-20 12 -20 30 31 36c15 2 72 6 81 1c131 -57 220 -106 298 -124c8 -3 23 -20 22 -26c3 -4 3 -7 0 -8z" />
    <glyph glyph-name="guillemotleft" unicode="&#xab;" horiz-adv-x="734" 
d="M11 236l26 13l4 4s2 1 3 1c83 44 198 109 273 146c23 6 67 -13 93 -32c3 -4 -5 -19 -12 -23c-87 -30 -182 -82 -253 -115c95 -31 158 -77 216 -115c15 -12 15 -30 -24 -36c-14 -2 -60 -6 -68 -1c-107 57 -179 106 -241 124c-8 3 -20 20 -19 26c-1 3 -1 6 2 8zM311 233
l26 13l4 4s2 1 3 1c83 44 198 109 273 146c23 6 67 -13 93 -32c3 -4 -5 -19 -12 -23c-88 -30 -182 -82 -253 -115c95 -31 158 -77 216 -115c15 -12 15 -30 -25 -36c-13 -2 -59 -6 -67 -1c-107 57 -179 106 -242 124c-7 3 -19 20 -18 26c-1 3 -1 6 2 8z" />
    <glyph glyph-name="guillemotright" unicode="&#xbb;" horiz-adv-x="745" 
d="M419 256c-10 -5 -21 -11 -32 -17c-1 0 -1 -1 -1 -1c-82 -43 -187 -107 -262 -143c-25 -6 -67 13 -93 32c-3 4 4 19 12 23c86 30 174 79 240 112c-93 31 -156 76 -213 115c-16 12 -16 30 25 36c12 2 58 6 66 1c105 -57 177 -106 240 -124c6 -3 17 -18 18 -25
c2 -4 2 -8 0 -9zM727 259c-11 -5 -22 -11 -32 -17c-2 0 -2 -1 -2 -1c-81 -43 -187 -107 -262 -143c-24 -6 -67 13 -93 32c-3 4 5 19 12 23c86 30 175 79 241 112c-94 31 -156 76 -213 115c-17 12 -17 30 24 36c13 2 59 6 66 1c106 -57 178 -106 240 -124c7 -3 17 -18 19 -25
c1 -4 1 -8 0 -9z" />
    <glyph glyph-name="lessequal" unicode="&#x2264;" horiz-adv-x="641" 
d="M26 276l29 12l15 8c2 0 3 1 5 1c118 51 280 126 386 168c33 7 94 -15 133 -37c4 -4 -6 -22 -17 -26c-123 -35 -259 -95 -358 -133c133 -35 222 -88 304 -132c23 -13 23 -34 -35 -41c-18 -2 -83 -7 -93 -1c-152 65 -254 122 -345 142c-10 3 -24 22 -24 29c-3 4 -5 8 0 10z
M9 3c191 -1 288 -7 444 -3c12 0 56 5 79 37c0 1 -7 20 -23 22c-205 -7 -270 -7 -449 3c-32 -5 -80 -48 -51 -59z" />
    <glyph glyph-name="greaterequal" unicode="&#x2265;" horiz-adv-x="641" 
d="M621 278l-29 -12l-15 -8c-2 -1 -3 -1 -6 -1c-117 -51 -280 -127 -384 -168c-34 -7 -95 20 -133 42c-5 4 6 22 16 26c126 35 265 94 366 131c-132 39 -229 84 -312 129c-23 13 -23 34 35 41c18 2 83 7 93 1c152 -65 254 -122 345 -142c9 -4 24 -22 24 -29c3 -5 3 -8 0 -10
zM9 3c191 -1 288 -7 444 -3c12 0 56 5 79 37c0 1 -7 20 -23 22c-205 -7 -270 -7 -449 3c-32 -5 -80 -48 -51 -59z" />
    <glyph glyph-name="dagger" unicode="&#x2020;" horiz-adv-x="337" 
d="M75 644c-14 5 9 27 26 30l66 -4l4 64c10 9 32 -3 46 -14c-1 -18 -4 -34 -4 -50c23 0 49 1 91 2c8 -1 11 -7 11 -7c-11 -16 -33 -23 -40 -23c-26 -1 -46 -1 -64 -1c-3 -51 -3 -96 0 -136c-1 -4 -11 -7 -12 -7c-25 0 -34 11 -34 15c-1 34 -3 81 0 129c-24 0 -52 1 -90 2z
" />
    <glyph glyph-name="daggerdbl" unicode="&#x2021;" horiz-adv-x="337" 
d="M67 548c-13 5 20 23 37 26c25 -2 41 -2 60 -2c0 24 1 48 1 72l-93 2c-14 5 11 22 27 25c26 -1 48 -1 68 0l4 63c10 9 32 -3 46 -14l-4 -48l99 3c8 -1 11 -7 11 -7c-11 -16 -34 -23 -40 -23c-27 -1 -50 -1 -72 -1l-3 -71l96 4c8 -1 4 -8 4 -8c-11 -16 -34 -23 -40 -23
c-25 -1 -43 -1 -60 -1c-1 -36 0 -70 2 -93c-2 -4 -11 -7 -13 -7c-24 0 -33 11 -33 15c-2 19 -2 52 -2 86c-24 0 -53 1 -95 2z" />
    <glyph glyph-name="degree" unicode="&#xb0;" horiz-adv-x="257" 
d="M129 663c19 0 22 -3 47 -3c81 0 116 -26 116 -70c0 -48 -33 -118 -115 -118c-87 0 -143 28 -143 90c0 45 55 101 95 101zM219 569c0 20 -14 47 -52 47c-40 0 -57 -51 -57 -69c0 -22 17 -41 46 -41c32 0 63 28 63 63z" />
    <glyph glyph-name="ordfeminine" unicode="&#xaa;" horiz-adv-x="412" 
d="M248 663c3 5 6 14 15 13c8 -1 35 -13 46 -21c25 -7 54 -24 54 -28c-3 -5 -13 -11 -14 -17c-19 -40 -32 -99 -32 -140c0 -11 0 -51 41 -51c40 0 66 16 69 18c3 1 4 2 8 0c3 -2 6 -4 6 -6c1 -1 0 -4 -2 -5c-3 -2 -41 -32 -104 -32s-107 34 -113 61c-9 -19 -38 -85 -77 -85
c-16 0 -59 5 -76 19c-67 49 -34 193 24 274c13 17 31 41 81 41c52 0 62 -27 74 -41zM222 620c1 23 -14 46 -31 46c-53 0 -93 -165 -93 -211c0 -10 1 -62 26 -62c32 0 70 105 78 133c5 19 18 82 20 94z" />
    <glyph glyph-name="ordmasculine" unicode="&#xba;" horiz-adv-x="373" 
d="M121 700c4 1 14 3 23 3c20 0 105 -28 124 -38c20 -4 38 -4 43 -9c16 -17 24 -46 24 -79c0 -56 -18 -120 -35 -149c-20 -33 -51 -49 -100 -49c-62 0 -169 28 -169 117c0 94 62 207 84 207c4 0 6 -2 6 -3zM231 640c-35 0 -80 -94 -80 -164c0 -38 13 -73 48 -73
c66 0 73 127 73 164c0 18 -3 73 -41 73z" />
    <glyph glyph-name="trademark" unicode="&#x2122;" horiz-adv-x="849" 
d="M424 686c12 2 21 12 30 12c3 0 31 1 36 -1c4 -1 58 -11 64 -13c4 -2 12 -8 12 -10c-3 -7 -1 -18 -1 -24c0 -42 18 -150 35 -190c9 20 81 146 90 173c6 26 23 58 28 60c32 -1 47 -10 71 -19c22 -4 40 -9 36 -24c-40 -100 -40 -178 -40 -273c0 -17 0 -30 3 -38
c-3 -4 -5 -4 -8 -4c-13 2 -23 -1 -30 -1c-19 0 -37 12 -52 18c-2 4 -5 22 -5 37c0 14 8 128 17 184c-17 -34 -55 -90 -69 -123c-8 -20 -12 -40 -12 -60c-12 -6 -19 -9 -34 -9c-18 0 -58 10 -63 12c-7 3 -10 16 -10 20c0 7 -19 75 -23 85l-32 94c-23 -77 -36 -154 -36 -231
c0 -7 5 -14 5 -19s-8 -9 -14 -9s-17 5 -27 10c-9 5 -19 8 -19 10c0 15 5 44 6 57c17 88 33 184 42 276zM8 674c12 0 110 12 131 13c23 1 110 7 159 7c34 0 66 -3 80 -6c11 -3 12 -16 8 -25c-43 1 -80 -4 -112 -11c-9 -20 -34 -88 -37 -119c-8 -34 -21 -121 -21 -161
c0 -22 3 -24 4 -28c-9 -3 -12 -2 -18 -2c-6 1 -9 0 -20 0c-9 0 -40 8 -52 18c-5 40 6 141 8 165c0 23 7 91 10 114c-27 -1 -32 -1 -56 1c-22 1 -78 12 -89 17c-5 2 2 17 5 17z" />
    <glyph glyph-name="Euro" unicode="&#x20ac;" horiz-adv-x="444" 
d="M15 394c-18 6 9 28 31 31l44 -3c22 58 61 129 135 189c12 0 20 -5 26 -7s31 -3 38 -5c3 0 19 -8 43 -18c32 -14 73 -39 73 -79c0 -25 -38 -60 -49 -60c-18 0 -56 31 -56 43c8 14 18 43 12 45c-8 4 -27 -7 -40 -20c-7 -7 -38 -43 -65 -90c22 0 49 1 85 3c9 -2 14 -9 14 -9
c-14 -20 -40 -23 -47 -23c-26 -1 -48 -1 -68 -1c-6 -12 -10 -24 -15 -36c29 -1 58 -1 107 1c9 -1 15 -8 15 -8c0 -20 -21 -23 -27 -23c-43 -1 -74 -1 -104 -1c-3 -15 -5 -29 -5 -43c0 -63 64 -64 78 -64c45 0 89 14 123 32c6 3 15 1 19 1c7 -2 10 -9 7 -13
c-2 -2 -66 -55 -149 -55c-84 0 -147 60 -150 69c-6 8 -20 42 -20 73v2c-18 0 -39 2 -64 3c-17 6 5 20 26 31l41 -2c2 11 5 23 8 36c-18 0 -40 1 -66 1z" />
    <glyph glyph-name="sterling" unicode="&#xa3;" horiz-adv-x="364" 
d="M248 530c-31 16 -61 -43 -78 -106l-8 -27c25 -1 46 0 95 1c9 -2 14 -9 14 -9c-14 -20 -40 -23 -48 -23c-29 -1 -49 -1 -65 -1c-8 -43 -11 -83 -13 -113c20 3 71 4 129 4c11 0 30 -4 34 -6c4 -3 13 -12 13 -16s-4 -5 -7 -6c-42 -7 -129 -9 -204 -36c-6 -2 -35 6 -44 6
c-3 0 -19 10 -19 14c0 1 5 5 10 6c-2 1 -2 18 -2 27c0 42 2 83 6 123c-15 1 -33 1 -55 1c-18 6 9 28 31 31c9 0 18 -1 27 -1c2 24 6 47 9 72c2 14 20 114 88 140c44 -4 72 -16 107 -30c32 -14 73 -39 73 -79c0 -25 -38 -60 -49 -60c-18 0 -56 31 -56 43c7 14 18 43 12 45z
" />
    <glyph glyph-name="yen" unicode="&#xa5;" horiz-adv-x="395" 
d="M161 326l-86 2c-18 6 9 28 31 31l50 -3c-50 66 -84 157 -112 196c-7 11 -21 12 -21 16c0 16 61 23 90 23c6 0 75 -4 75 -17c0 -11 -9 -24 -1 -46c16 -48 36 -107 47 -118c35 60 70 128 127 194c2 2 25 -1 29 -2c3 -2 9 -14 15 -17c10 -4 -3 -11 -4 -14
c-29 -50 -93 -154 -123 -217c20 0 43 2 74 3c9 -2 14 -9 14 -9c-14 -20 -40 -23 -48 -23c-18 -1 -32 -1 -46 -1c-1 -12 -3 -24 -3 -36c20 0 42 0 74 1c9 -1 15 -8 15 -8c0 -20 -21 -23 -28 -23c-26 -1 -44 -1 -64 -1c-1 -19 -1 -36 -1 -51c0 -12 9 -18 7 -20
c-4 -2 -10 -5 -29 -5c-17 0 -64 14 -72 19c-9 5 -7 16 -7 22c0 2 -2 17 -2 36l-96 4c-17 6 4 20 26 31l70 -3c0 13 -1 26 -1 36z" />
    <glyph glyph-name="paragraph" unicode="&#xb6;" horiz-adv-x="684" 
d="M-6 410c-12 108 234 213 390 207c15 -1 37 0 51 0c39 0 44 0 39 -19c-15 -90 -70 -391 -70 -513c0 -26 5 -35 5 -40c0 -4 -14 -40 -34 -40c-28 0 -51 5 -61 20c-5 6 -13 2 -13 11c0 8 10 85 13 113l4 59c-67 11 -128 36 -189 63c-74 32 -127 72 -135 139zM532 602
c0 -149 -36 -301 -50 -453c-3 -29 -12 -106 -12 -114c0 -21 47 -23 72 -23c20 0 32 27 32 30c0 6 -5 22 -5 48c0 109 55 415 100 481c3 3 6 11 6 25c0 19 -29 20 -69 20c-14 0 -26 -1 -41 -1c-5 0 -10 1 -14 1c-6 -2 -19 -8 -19 -14zM153 318c24 -12 130 -26 174 -27
c7 50 13 100 17 150c0 21 2 43 5 65v5c-103 10 -240 -68 -240 -138c0 -19 13 -40 44 -55z" />
    <glyph glyph-name="florin" unicode="&#x192;" horiz-adv-x="341" 
d="M104 313c2 33 8 66 8 75c-13 -1 -65 -6 -65 1c0 6 0 17 11 19c9 1 48 6 58 8c5 21 13 76 17 98c5 23 9 79 22 84c12 4 59 12 64 14c7 1 38 -9 43 -11c15 -6 36 -13 42 -15c8 -2 14 -7 16 -9c1 -2 6 -18 6 -27c0 -8 -9 -67 -28 -67c-10 0 -24 10 -24 10c0 16 1 83 -8 83
c-4 0 -20 -41 -24 -56c-5 -17 -20 -73 -22 -92c19 1 34 1 37 1c6 0 18 -5 21 -7c4 -2 5 -9 5 -11s-5 -5 -15 -6l-52 -6c-6 -20 -6 -26 -8 -39c-3 -31 -9 -133 -27 -145c-22 -12 -54 -29 -77 -29c-24 0 -76 8 -115 38c-4 3 -6 10 6 13c8 2 25 1 29 -2c11 -10 39 -17 49 -13
c13 14 25 51 31 91z" />
    <glyph glyph-name="at" unicode="@" horiz-adv-x="1043" 
d="M669 -3c-77 0 -130 66 -138 98c-12 -24 -48 -106 -96 -106c-22 0 -75 6 -97 22c-34 26 -49 72 -49 124c0 76 32 164 84 220c23 25 66 44 107 44c34 0 65 -12 85 -43c3 7 19 18 30 17c22 -4 112 -55 112 -62c-2 -7 -14 -14 -17 -21c-21 -51 -40 -125 -40 -176
c0 -14 0 -82 48 -82c90 0 173 156 185 224c18 99 -11 189 -123 253c-49 28 -116 42 -186 42c-322 0 -442 -266 -442 -432c0 -126 64 -238 270 -238c34 0 71 3 109 8c5 1 11 -1 11 -3c1 -7 0 -12 -5 -13c-50 -10 -99 -15 -144 -15c-244 0 -393 153 -393 282
c0 249 196 483 542 457c284 -21 482 -128 482 -304c0 -111 -155 -296 -335 -296zM531 303c3 28 -17 58 -40 58c-67 0 -116 -208 -116 -266c0 -13 3 -78 34 -78c39 0 87 132 96 167c8 25 23 104 26 119z" />
    <glyph glyph-name="copyright" unicode="&#xa9;" horiz-adv-x="808" 
d="M620 624c56 -7 76 -10 88 -21c66 -57 85 -121 85 -193c0 -207 -245 -332 -463 -332c-174 0 -330 80 -330 262c0 168 164 358 379 358c85 0 169 -25 241 -74zM410 632c-164 0 -318 -123 -318 -308c0 -152 102 -215 223 -215c178 0 395 134 395 316c0 82 -51 146 -135 180
c-4 2 -23 1 -27 3c-45 16 -92 24 -138 24zM353 569c33 3 45 11 77 3c3 0 18 -8 41 -17c32 -14 72 -38 72 -77c0 -46 -29 -88 -35 -94c-5 -6 -18 -21 -29 -21c-12 0 -12 5 -17 7c-6 2 -38 18 -38 34c0 14 9 42 17 57c7 14 20 38 15 40c-8 4 -28 -8 -40 -20
c-11 -13 -110 -118 -110 -219c0 -61 63 -62 76 -62c43 0 86 14 120 31c4 2 15 1 18 1c6 -1 8 -8 6 -12c0 -2 -64 -54 -144 -54c-81 0 -142 59 -145 67c-6 8 -20 41 -20 71c0 43 14 163 136 265z" />
    <glyph glyph-name="registered" unicode="&#xae;" horiz-adv-x="584" 
d="M464 646c39 -5 53 -7 62 -15c46 -39 58 -84 58 -135c0 -145 -171 -232 -322 -232c-123 0 -231 56 -231 183c0 118 114 251 264 251c60 0 118 -18 169 -52zM317 652c-115 0 -222 -86 -222 -216c0 -106 72 -150 156 -150c124 0 275 93 275 221c0 57 -35 102 -93 126
c-3 1 -17 1 -20 2c-31 11 -64 17 -96 17zM277 445h-6c-9 -28 -14 -55 -17 -74c-2 -10 0 -10 0 -14c0 -5 -26 -7 -34 -7c-3 0 -26 15 -26 18c3 68 35 147 48 210c4 14 3 17 1 23c0 0 2 1 5 2c1 -2 9 -2 12 -2c5 0 15 1 18 1c33 0 88 -13 112 -28c26 -16 41 -34 41 -48
c0 -28 -36 -53 -78 -69c19 -37 51 -85 51 -91c0 -3 -3 -2 -9 -5c-2 -1 -9 -8 -20 -8c-9 0 -19 1 -25 8c-4 5 -26 33 -35 43c-4 6 -27 30 -38 41zM320 560c-11 -8 -25 -40 -37 -75c32 1 101 24 101 48c0 18 -43 26 -64 27z" />
    <glyph glyph-name="currency" unicode="&#xa4;" horiz-adv-x="560" 
d="M459 530c20 13 41 28 75 54c9 3 20 0 20 0c12 -20 -3 -34 -9 -38c-22 -15 -39 -26 -55 -36c26 -28 35 -61 35 -96c0 -57 -32 -103 -80 -135c19 -13 40 -26 74 -46c4 -5 1 -12 1 -12c-21 -14 -40 -7 -44 -4l-66 42c-44 -22 -98 -33 -147 -33c-52 0 -101 12 -136 39
c-24 -15 -52 -31 -92 -56c-20 -5 -24 24 -12 36c35 19 58 31 80 44c-19 22 -28 50 -28 85c0 36 14 74 37 107c-23 16 -48 35 -86 63c-6 12 24 12 50 10l60 -43c49 44 107 65 168 65c54 0 108 -16 155 -46zM306 516c-77 0 -151 -59 -151 -147c0 -71 48 -100 108 -100
c81 0 185 62 185 148c0 39 -26 71 -62 86c-4 0 -13 0 -16 1c-20 8 -41 12 -64 12z" />
    <glyph glyph-name="brokenbar" unicode="&#xa6;" horiz-adv-x="462" 
d="M257 219c-1 -167 -1 -334 3 -440c-1 -7 -15 -11 -17 -11c-38 0 -47 17 -47 23c-5 110 -5 280 -3 448c12 14 43 -4 64 -20zM259 363c-2 -7 -16 -11 -17 -11c-39 0 -48 17 -48 23c3 151 6 299 13 401c12 14 42 -4 64 -20c-8 -97 -9 -243 -12 -393z" />
    <glyph glyph-name="asciitilde" unicode="~" horiz-adv-x="630" 
d="M58 296c-29 -9 -23 52 2 67c212 121 289 -111 489 34c14 10 32 -1 32 -1c3 -6 3 -12 3 -18c0 -52 -101 -88 -168 -88c-130 0 -219 109 -358 6z" />
    <glyph glyph-name="underscore" unicode="_" horiz-adv-x="546" 
d="M12 -128c-29 11 19 54 51 59c179 -10 245 -10 450 -3c15 -2 22 -21 22 -22c-22 -32 -67 -37 -79 -37c-156 -4 -253 2 -444 3z" />
    <glyph glyph-name="section" unicode="&#xa7;" horiz-adv-x="454" 
d="M112 400c0 80 56 135 113 165c8 0 17 1 23 -1c32 -15 113 -38 133 -54c5 -6 28 -23 28 -44c0 -22 -16 -56 -37 -70c-14 -8 -46 -4 -51 -2c-4 2 -23 12 -23 29c0 18 13 55 0 69c-15 -10 -64 -50 -64 -87c0 -93 129 -90 129 -166c0 -32 -42 -65 -107 -74
c22 -19 41 -40 41 -65c0 -80 -57 -135 -113 -165c-8 0 -17 -1 -23 1c-32 15 -114 38 -133 54c-16 16 -25 34 -25 53c0 13 5 26 15 39c2 2 5 3 10 3c27 0 64 -17 64 -35s6 -28 18 -42c15 10 64 50 64 87c0 93 -128 90 -128 166c0 32 40 64 105 74c-22 19 -39 40 -39 65z
M205 201h14c33 0 47 17 47 31c0 24 -30 45 -63 67h-13c-34 0 -48 -17 -48 -31c0 -24 29 -45 63 -67z" />
    <glyph glyph-name="asciicircum" unicode="^" horiz-adv-x="529" 
d="M317 786l21 -26c2 -2 5 -13 6 -14c58 -69 107 -132 184 -216c6 -19 -26 -52 -60 -72c-6 -2 -27 5 -33 13c-82 84 -109 135 -144 203c-74 -68 -136 -117 -198 -162c-18 -14 -49 -10 -53 23c-2 10 -3 47 6 52c98 82 182 139 216 188c7 7 46 19 55 11z" />
    <glyph glyph-name="parenleft" unicode="(" horiz-adv-x="413" 
d="M324 -90c2 -2 10 -13 3 -17c-6 -5 -27 -14 -35 -11c-176 81 -269 249 -269 382c0 158 64 350 254 503c5 3 24 15 37 15c18 0 58 -14 75 -30c13 -12 44 -70 1 -100c-130 -89 -209 -311 -209 -434c0 -113 39 -234 143 -308z" />
    <glyph glyph-name="parenright" unicode=")" horiz-adv-x="445" 
d="M-3 -83c136 84 213 300 213 440c0 82 -2 202 -78 277c-11 10 -14 24 -14 39c0 37 75 106 116 106c12 0 35 -8 51 -29c24 -35 24 -53 42 -88c45 -84 57 -182 57 -261c0 -166 -164 -427 -379 -521c-13 2 -28 2 -28 13c0 7 5 15 20 24z" />
    <glyph glyph-name="braceleft" unicode="{" horiz-adv-x="516" 
d="M297 208c-8 -66 -9 -118 -9 -172c0 -43 -3 -74 18 -80c29 -8 98 -6 107 -10c9 -5 15 -26 6 -28c-37 -7 -98 -18 -159 -20c-79 -2 -142 20 -142 93c-2 50 1 110 7 175c8 82 -50 108 -101 120c-7 4 -32 27 -21 34c67 28 133 33 158 129c9 62 16 127 23 185
c16 86 59 97 150 93c116 -5 201 -29 203 -44c-5 -8 -11 -19 -17 -19c-3 0 -87 3 -104 5c-37 -71 -60 -162 -86 -257c-16 -61 -120 -83 -160 -98c47 -13 128 -59 127 -106z" />
    <glyph glyph-name="braceright" unicode="}" horiz-adv-x="435" 
d="M317 447c-16 -76 44 -108 92 -119c6 -3 33 -30 21 -34c-64 -29 -152 -59 -162 -148c-5 -41 -8 -78 -8 -108c0 -36 2 -114 -9 -127c-18 -22 -70 -30 -87 -29c-45 2 -143 23 -184 38c-14 7 -14 27 9 27c45 0 98 -6 110 4c-9 38 -9 100 -9 135c0 120 26 146 173 214
c-64 17 -139 87 -138 138c4 64 30 147 33 166c7 46 19 69 19 69c-42 -2 -85 0 -116 2c-14 1 -14 13 -14 20c0 4 0 7 10 9c49 11 140 25 229 23c52 -1 83 -36 83 -69c0 -14 -31 -103 -52 -211z" />
    <glyph glyph-name="logicalnot" unicode="&#xac;" horiz-adv-x="788" 
d="M116 298c-29 11 19 47 51 52c179 -10 284 -10 489 -3c16 -2 23 -14 23 -15c-4 -74 -3 -121 2 -199c-3 -9 -22 -15 -23 -15c-51 0 -57 23 -57 31c-3 48 -3 96 -3 146c-156 -4 -290 2 -482 3z" />
    <glyph glyph-name="mu" unicode="&#xb5;" horiz-adv-x="540" 
d="M32 371c3 10 23 21 32 26c8 4 14 2 20 0l49 -19c6 -3 12 -8 12 -21c0 -6 -13 -18 -15 -25c-12 -59 -31 -146 -34 -187c-3 -48 14 -101 37 -101c26 0 83 93 106 203c12 61 26 137 23 167c9 11 29 14 49 17c26 4 114 -18 137 -26c6 -4 11 -12 8 -19
c-35 -92 -49 -196 -49 -253c0 -28 15 -82 49 -82c35 0 84 18 106 27c10 4 21 2 22 -4c2 -8 -3 -18 -9 -21c-20 -8 -101 -40 -168 -40c-64 0 -136 33 -142 133c-22 -41 -65 -140 -126 -140c-24 0 -44 2 -61 7c-2 -56 2 -116 6 -147c3 -15 6 -20 8 -23c0 -5 -3 -16 -16 -17
c-15 -1 -58 -1 -65 7c-3 3 -11 4 -13 8c0 5 -4 53 -6 70c-3 88 -4 130 8 216c0 61 26 207 32 244z" />
    <glyph glyph-name="zeroinferior" unicode="&#x2080;" horiz-adv-x="513" 
d="M193 424c12 0 29 -5 40 -9c10 -4 52 -4 67 -6c105 -24 174 -75 174 -148s-49 -274 -206 -274c-48 0 -121 24 -141 31c-64 24 -89 57 -89 100c0 106 54 219 92 276c15 27 29 19 38 23c9 3 16 7 25 7zM294 362c-83 -61 -130 -193 -130 -270c0 -24 18 -67 59 -67
c112 0 166 167 166 217c0 42 -16 120 -95 120z" />
    <glyph glyph-name="oneinferior" unicode="&#x2081;" horiz-adv-x="245" 
d="M35 408c0 9 3 13 15 15l20 11c19 -2 98 -22 98 -34c0 -11 -12 -131 -20 -205c-7 -74 -13 -169 -10 -186c1 -16 7 -23 10 -25c-3 -4 -6 -6 -9 -6c-15 3 -26 2 -40 2c-21 0 -76 29 -76 34v65c0 140 12 234 12 329z" />
    <glyph glyph-name="twoinferior" unicode="&#x2082;" horiz-adv-x="525" 
d="M61 322c25 21 170 110 239 110c44 0 104 -26 112 -31c30 -17 75 -35 75 -85c0 -80 -213 -234 -291 -285c49 2 92 7 136 7c24 0 58 -2 81 -9c31 -9 38 -25 38 -32c0 -6 -87 -7 -174 -13c-64 -5 -129 -16 -159 -16c-22 0 -37 17 -51 25c-15 7 -29 15 -29 18
c0 9 29 24 38 30c92 60 274 221 274 321c0 10 -1 13 -21 13c-63 0 -170 -57 -214 -76c-22 -9 -63 17 -54 23z" />
    <glyph glyph-name="threeinferior" unicode="&#x2083;" horiz-adv-x="578" 
d="M116 347c23 17 120 81 195 81c71 0 99 -14 116 -24c24 -14 61 -37 61 -57c0 -49 -58 -84 -110 -109c49 -17 162 -66 162 -117c0 -81 -184 -156 -304 -156c-88 0 -198 66 -198 89c0 6 0 13 2 15c3 4 9 5 18 4c12 -1 93 -40 136 -40c84 0 227 72 227 107
c0 34 -74 41 -110 41c-23 0 -72 -5 -85 -5c-12 0 -41 4 -45 11c-7 8 -13 32 -10 51c77 11 189 76 189 130c0 12 -10 13 -22 13c-17 0 -49 -1 -89 -21c-42 -21 -90 -47 -110 -47s-23 17 -23 34z" />
    <glyph glyph-name="fourinferior" unicode="&#x2084;" horiz-adv-x="473" 
d="M225 436c3 0 8 -6 11 -9c50 -2 133 -11 166 -33c8 -5 8 -11 8 -13c0 -8 -6 -15 -11 -23c-15 -19 -26 -125 -32 -182c20 -2 69 -6 72 -8s18 -9 18 -11s0 -25 -6 -27c-9 0 -81 -2 -96 -4c-6 -36 -20 -116 -20 -127c3 -11 11 -15 9 -17l-9 -6c-20 7 -40 6 -66 10
c-21 3 -59 13 -59 34c-3 30 0 46 9 104c-55 1 -103 -1 -152 -1c-30 0 -67 18 -67 38c0 46 78 108 174 229c31 38 42 46 51 46zM257 356c-41 -22 -148 -146 -148 -175c0 0 0 -3 4 -3c37 2 75 3 115 3c1 19 26 162 29 175z" />
    <glyph glyph-name="fiveinferior" unicode="&#x2085;" horiz-adv-x="502" 
d="M112 427c70 1 160 7 183 7c46 0 140 -6 140 -43c0 -13 -98 10 -183 -16c-15 -17 -41 -83 -41 -102c133 -3 245 -61 245 -156c0 -71 -162 -139 -254 -139c-66 0 -171 44 -171 84c0 9 27 11 33 11c17 0 74 -15 121 -15c69 0 185 63 185 108c0 25 -26 32 -55 32
c-53 0 -127 -22 -150 -22c-17 0 -96 35 -96 47c0 63 29 122 29 183c0 9 6 21 14 21z" />
    <glyph glyph-name="sixinferior" unicode="&#x2086;" horiz-adv-x="479" 
d="M236 430c6 -2 12 -4 15 -4s5 2 8 4c45 -4 88 -15 119 -34c-3 -2 -3 -3 -6 -2c-55 10 -133 -116 -164 -171c15 14 72 57 121 57c69 0 115 -56 115 -94c0 -47 -23 -92 -51 -128c-27 -36 -81 -86 -145 -86c-107 0 -210 59 -210 128c0 110 74 267 198 330zM326 242
c-75 0 -158 -114 -158 -163c0 -30 8 -63 48 -63c92 0 142 131 142 175c0 26 -6 51 -32 51z" />
    <glyph glyph-name="seveninferior" unicode="&#x2087;" horiz-adv-x="355" 
d="M21 407c36 11 253 36 282 23c32 -21 83 -48 83 -68c0 -14 -22 -31 -36 -48c-24 -27 -173 -254 -173 -322c0 -4 0 -8 -1 -10c-2 -2 -6 -3 -9 -3c-20 0 -42 3 -58 7c-6 1 -39 19 -46 24c-5 3 -6 6 -6 10c0 67 117 283 165 370c-49 -2 -93 -13 -139 -13c-10 0 -49 4 -59 11
c-4 6 -9 11 -9 14c0 2 2 4 6 5z" />
    <glyph glyph-name="eightinferior" unicode="&#x2088;" horiz-adv-x="565" 
d="M202 227c-25 15 -93 70 -93 108c0 62 122 105 200 105c90 0 217 -39 217 -105c0 -40 -81 -99 -133 -123c35 -21 107 -57 107 -109c0 -67 -104 -125 -197 -125c-96 0 -265 38 -265 110c0 44 103 107 164 139zM286 271c29 17 121 61 121 104c0 23 -37 32 -52 32
c-60 0 -113 -27 -113 -65c0 -29 24 -56 44 -71zM300 172c-58 -25 -145 -56 -145 -107c0 -36 73 -45 113 -45c38 0 116 30 116 76c0 32 -55 61 -84 76z" />
    <glyph glyph-name="nineinferior" unicode="&#x2089;" horiz-adv-x="514" 
d="M225 449c38 0 83 -24 107 -38c18 0 32 4 41 4c37 0 106 -16 101 -35c-32 -83 -87 -302 -69 -385c0 -4 -27 -7 -53 -7c-35 0 -66 11 -84 24c-2 15 3 107 12 135c-24 -7 -49 -11 -72 -11c-109 0 -173 51 -173 115c0 71 136 198 190 198zM350 371c0 4 -23 8 -32 8
c-101 -15 -186 -118 -186 -179c0 -7 3 -23 19 -23c98 0 155 87 178 133c9 14 21 56 21 61z" />
    <glyph glyph-name="fraction" unicode="&#x2044;" horiz-adv-x="311" 
d="M401 654c11 7 41 3 56 -5c13 -8 37 -36 25 -47c-168 -154 -471 -455 -581 -600c-7 -5 -36 2 -40 4c-8 4 -16 9 -16 13c0 18 23 37 36 51c128 159 396 439 520 584z" />
    <glyph glyph-name="onequarter" unicode="&#xbc;" horiz-adv-x="1028" 
d="M780 436c3 0 8 -6 11 -9c50 -2 133 -11 167 -33c7 -5 7 -11 7 -13c0 -8 -6 -15 -10 -23c-16 -19 -26 -125 -32 -182c19 -2 68 -6 71 -8c4 -2 19 -9 19 -11s0 -25 -6 -27c-9 0 -81 -2 -97 -4c-6 -36 -20 -116 -20 -127c4 -11 11 -15 10 -17l-10 -6c-19 7 -39 6 -65 10
c-22 3 -60 13 -60 34c-3 30 0 46 9 104c-55 1 -102 -1 -151 -1c-31 0 -68 18 -68 38c0 46 78 108 175 229c30 38 41 46 50 46zM646 654c10 7 41 3 56 -5c13 -8 37 -36 25 -47c-169 -154 -471 -455 -582 -600c-6 -5 -35 2 -39 4c-8 4 -16 9 -16 13c0 18 23 37 35 51
c129 159 397 439 521 584zM35 658c0 9 3 13 15 15l20 11c19 -2 98 -22 98 -34c0 -11 -12 -131 -20 -205c-7 -74 -13 -169 -10 -186c1 -16 7 -23 10 -25c-3 -4 -6 -6 -9 -6c-15 3 -26 2 -40 2c-21 0 -76 29 -76 34v65c0 140 12 234 12 329zM812 356
c-41 -22 -148 -146 -148 -175c0 0 0 -3 5 -3c36 2 75 3 114 3c2 19 26 162 29 175z" />
    <glyph glyph-name="onehalf" unicode="&#xbd;" horiz-adv-x="1080" 
d="M617 322c24 21 169 110 238 110c45 0 104 -26 112 -31c31 -17 75 -35 75 -85c0 -80 -213 -234 -291 -285c49 2 92 7 136 7c25 0 59 -2 81 -9c31 -9 39 -25 39 -32c0 -6 -87 -7 -175 -13c-64 -5 -128 -16 -159 -16c-21 0 -37 17 -50 25c-16 7 -29 15 -29 18
c0 9 29 24 38 30c92 60 274 221 274 321c0 10 -2 13 -22 13c-62 0 -169 -57 -214 -76c-21 -9 -63 17 -53 23zM646 654c10 7 41 3 56 -5c13 -8 37 -36 25 -47c-169 -154 -471 -455 -582 -600c-6 -5 -35 2 -39 4c-8 4 -16 9 -16 13c0 18 23 37 35 51c129 159 397 439 521 584z
M35 658c0 9 3 13 15 15l20 11c19 -2 98 -22 98 -34c0 -11 -12 -131 -20 -205c-7 -74 -13 -169 -10 -186c1 -16 7 -23 10 -25c-3 -4 -6 -6 -9 -6c-15 3 -26 2 -40 2c-21 0 -76 29 -76 34v65c0 140 12 234 12 329z" />
    <glyph glyph-name="threequarters" unicode="&#xbe;" horiz-adv-x="1362" 
d="M1114 436c3 0 7 -6 11 -9c50 -2 133 -11 166 -33c8 -5 8 -11 8 -13c0 -8 -6 -15 -11 -23c-15 -19 -26 -125 -32 -182c20 -2 69 -6 72 -8s18 -9 18 -11s0 -25 -6 -27c-9 0 -81 -2 -96 -4c-6 -36 -20 -116 -20 -127c3 -11 11 -15 9 -17l-9 -6c-20 7 -40 6 -66 10
c-21 3 -59 13 -59 34c-4 30 0 46 9 104c-55 1 -103 -1 -152 -1c-30 0 -67 18 -67 38c0 46 78 108 174 229c31 38 42 46 51 46zM116 597c23 17 120 81 195 81c71 0 99 -14 116 -24c24 -14 61 -37 61 -57c0 -49 -58 -84 -110 -109c49 -17 162 -66 162 -117
c0 -81 -184 -156 -304 -156c-88 0 -198 66 -198 89c0 6 0 13 2 15c3 4 9 5 18 4c12 -1 93 -40 136 -40c84 0 227 72 227 107c0 34 -74 41 -110 41c-23 0 -72 -5 -85 -5c-12 0 -41 4 -45 11c-7 8 -13 32 -10 51c77 11 189 76 189 130c0 12 -10 13 -22 13
c-17 0 -49 -1 -89 -21c-42 -21 -90 -47 -110 -47s-23 17 -23 34zM979 654c11 7 42 3 57 -5c12 -8 37 -36 24 -47c-168 -154 -471 -455 -581 -600c-6 -5 -35 2 -40 4c-8 4 -15 9 -15 13c0 18 23 37 35 51c129 159 396 439 520 584zM1146 356c-41 -22 -148 -146 -148 -175
c0 0 0 -3 4 -3c37 2 75 3 115 3c1 19 26 162 29 175z" />
    <glyph glyph-name="r.004" horiz-adv-x="525" 
d="M367 437c29 -8 77 -25 89 -29c12 -5 23 -13 26 -17c3 -3 12 -32 12 -49c0 -15 -18 -122 -50 -122c-20 0 -78 19 -78 19c0 29 -19 89 -36 89l-10 -2c-14 -19 -87 -195 -100 -239c-10 -43 -13 -81 -17 -83c-19 -8 -45 1 -67 0c-17 2 -81 24 -87 28c0 2 -6 25 -8 34
c0 10 -3 147 5 198c-11 6 -40 15 -46 21c0 38 8 84 23 131c1 6 26 15 32 17c3 2 49 -2 58 -2c29 4 90 1 90 -25c0 -9 -7 -18 -9 -26c-3 -11 -17 -205 -20 -249c22 56 52 142 77 197c14 29 58 114 75 114c9 -1 24 0 41 -5z" />
    <glyph glyph-name="Euro.001" horiz-adv-x="699" 
d="M24 330c-29 10 16 44 48 49l60 -4c35 99 102 220 226 323c20 0 34 -9 44 -12c11 -4 51 -6 65 -9c4 0 32 -13 72 -29c55 -25 122 -65 122 -133c0 -52 -31 -106 -41 -116c-46 -1 -126 22 -135 86c14 24 34 67 26 70c-12 6 -47 -14 -67 -36c-11 -12 -66 -70 -115 -148
c35 0 76 2 130 4c12 -2 20 -13 20 -13c-20 -32 -63 -37 -74 -37c-39 -1 -71 -1 -102 -1c-9 -18 -18 -37 -26 -57c46 -1 92 0 167 2c15 -1 24 -12 24 -12c0 -32 -35 -35 -44 -35c-68 -2 -115 -3 -161 -3c-6 -25 -11 -51 -11 -77c0 -106 109 -108 134 -108c71 0 146 26 205 54
c10 6 13 4 18 4c3 0 12 -2 12 -2c5 -4 11 -15 11 -20c0 -4 -110 -94 -248 -94c-141 0 -245 102 -251 116c-9 14 -34 70 -34 122v10l-88 4c-26 9 7 31 39 47l54 -2c3 17 8 36 14 56c-28 0 -58 1 -94 1z" />
    <glyph glyph-name="dollar.001" horiz-adv-x="615" 
d="M306 668c3 28 12 80 24 93c10 11 17 7 25 6s46 -15 46 -21c0 -5 -9 -65 -15 -84c50 -14 136 -35 169 -69c19 -16 22 -26 22 -52c0 -27 -26 -139 -64 -163c-13 -6 -31 -10 -42 -6c-7 6 -35 19 -40 32c-6 14 -16 117 -21 137c-35 -30 -81 -117 -81 -152
c0 -112 239 -155 239 -231c0 -61 -100 -124 -175 -124c-11 0 -18 2 -18 2c-6 -24 -6 -83 -11 -89c-9 -13 -18 -24 -27 -24c-37 0 -59 39 -59 56c0 10 -6 63 -6 75c-43 8 -139 24 -222 93c-3 5 -10 14 -10 21c0 5 1 9 10 9c8 0 37 -5 54 -13c77 -40 188 -66 282 -66
c24 0 35 13 35 19c0 56 -306 154 -306 261c0 86 27 178 88 245c26 29 51 45 103 45z" />
    <glyph glyph-name="cent.001" horiz-adv-x="549" 
d="M226 652c11 0 31 1 46 2c0 15 0 66 34 93c6 3 23 6 32 6c5 -3 20 -13 29 -15c-6 -30 -15 -84 -6 -104c41 -9 98 -31 127 -49c15 -32 23 -58 23 -68c0 -65 -24 -127 -58 -185c-9 -12 -43 -24 -57 -24c-17 0 -47 20 -58 26c-15 10 -18 25 -18 38c0 38 21 128 9 141
c-67 -98 -106 -206 -106 -309c0 -60 16 -116 69 -116c77 0 123 50 133 56c13 6 40 6 43 6c11 0 26 -3 26 -10c0 -8 -69 -95 -173 -98c-9 -17 -29 -104 -33 -113c-3 -6 -22 -16 -26 -16c-13 0 -43 15 -46 22c-5 13 -9 93 0 119c-120 29 -178 121 -178 196
c0 150 92 389 188 402z" />
    <glyph glyph-name="sterling.001" horiz-adv-x="581" 
d="M398 560c-52 28 -104 -72 -135 -181c-6 -23 -11 -46 -15 -69c40 -1 75 0 154 1c16 -2 22 -14 22 -14c-22 -31 -61 -36 -74 -36c-47 -2 -81 -2 -110 -1c-11 -70 -15 -136 -18 -184c34 5 119 6 220 6c20 0 54 -6 57 -11c9 -4 26 -12 26 -19s-9 -9 -16 -10
c-68 -12 -220 -15 -348 -62c-10 -4 -60 10 -75 10c-8 0 -32 18 -32 25c0 1 7 8 15 9c-2 3 -2 32 -2 47c0 67 2 131 8 194c-20 1 -40 1 -64 1c-29 10 15 44 47 49c8 0 14 -1 22 -1c4 48 10 96 18 146c3 23 34 196 148 241c78 -7 126 -28 185 -53c57 -23 127 -67 127 -135
c0 -43 -65 -104 -84 -104c-32 0 -96 54 -96 74c12 25 31 75 20 77z" />
    <glyph glyph-name="florin.001" horiz-adv-x="569" 
d="M190 186c1 58 12 115 12 129c-21 -1 -112 -9 -112 2s0 30 19 33c16 1 82 11 101 14l27 169c8 38 17 134 38 144c20 7 103 21 109 23c15 2 67 -14 75 -19l72 -25c15 -3 26 -12 29 -16c2 -3 9 -30 9 -45c0 -14 -17 -116 -47 -116c-17 0 -43 17 -43 17c0 27 4 143 -12 143
c-8 0 -34 -71 -42 -96c-9 -30 -33 -126 -36 -159c32 2 56 2 62 2c11 0 32 -8 37 -11c6 -5 8 -17 8 -19c0 -5 -8 -9 -28 -11c-12 -2 -64 -8 -89 -10c-9 -34 -9 -45 -12 -67c-6 -54 -17 -229 -47 -250c-37 -20 -94 -49 -130 -49c-43 0 -133 14 -199 65c-8 5 -11 17 11 22
c12 4 41 3 50 -3c17 -18 66 -29 84 -22c22 23 41 86 54 155z" />
    <glyph glyph-name="yen.001" horiz-adv-x="672" 
d="M260 221l-127 3c-27 8 15 43 49 47l80 -4v1c-92 116 -153 281 -204 350c-12 17 -35 20 -35 27c0 28 104 39 154 39c13 0 131 -8 131 -30c0 -19 -17 -41 -4 -78c28 -82 63 -184 80 -203c61 103 122 220 219 334c3 2 43 -3 50 -4c5 -3 16 -24 26 -29c17 -7 -4 -20 -6 -25
c-52 -89 -171 -275 -216 -384l111 4c13 -4 21 -14 21 -14c-21 -31 -63 -36 -75 -36c-24 -1 -44 -2 -64 -2l-6 -57c30 0 64 0 108 2c16 -1 25 -12 25 -12c0 -31 -34 -36 -43 -36l-93 -2c-3 -32 -3 -63 -3 -90c0 -20 16 -30 13 -34c-7 -3 -18 -8 -50 -8c-29 0 -110 23 -124 33
c-15 8 -12 27 -12 36c0 3 -2 31 -3 65c-39 1 -83 3 -141 6c-28 10 8 31 40 49l101 -4c-2 22 -2 38 -2 56z" />
    <glyph glyph-name="AE" unicode="&#xc6;" horiz-adv-x="1167" 
d="M589 701c60 -10 249 -17 294 -17c41 0 206 5 206 -17c0 -10 -6 -10 -6 -11c0 -2 3 -6 0 -8c-3 0 -84 -8 -105 -10c-55 -6 -187 -18 -360 -29c3 -77 15 -175 35 -271c159 16 285 17 302 15c32 -8 55 -15 55 -23c0 -10 6 -15 6 -19c0 -6 -6 -7 -12 -7
c-2 0 -152 -7 -337 -31c17 -78 38 -152 61 -207c23 0 187 4 204 4s122 -3 133 -7c12 -4 26 -14 26 -19c0 -6 -12 -9 -14 -12c-6 -15 -286 -29 -393 -41c-14 -2 -29 9 -34 11c-6 4 -64 36 -73 42c-9 7 -46 13 -46 23c-17 56 -38 116 -57 177c-111 -20 -222 -47 -312 -82
c-21 -33 -41 -68 -47 -90c-2 -5 -32 -81 -34 -100c-3 -21 -9 -10 -18 -10c-6 0 -39 15 -43 19c-6 6 -29 19 -29 25c0 5 29 76 40 95c9 21 293 492 319 534c22 36 32 59 32 64c0 4 4 19 16 19c7 0 26 2 32 2c5 0 34 8 49 8c11 0 98 -27 110 -27zM454 312c-6 24 -10 48 -13 72
c-3 17 -17 80 -36 133c-42 -37 -154 -214 -177 -253c73 20 151 35 226 48z" />
    <glyph glyph-name="Dcroat" unicode="&#x110;" horiz-adv-x="854" 
d="M-21 374c27 -5 75 -4 128 -2c9 89 20 178 29 255c-15 4 -47 2 -52 2c-15 0 -53 25 -53 36c0 2 9 6 12 6c-3 2 -6 5 -6 5c17 11 92 17 116 21c0 8 -6 23 3 23c6 0 17 2 23 0l55 -21c152 10 260 -26 375 -81c98 -47 171 -100 177 -122c14 -24 22 -78 22 -99
c0 -91 -61 -194 -175 -277c-125 -91 -267 -135 -306 -135c-32 0 -53 27 -134 27c-17 0 -83 17 -92 30c-11 64 -9 158 0 258c-44 -1 -78 0 -84 2c-15 4 -55 48 -38 72zM353 599c-30 -55 -49 -136 -62 -218c50 1 96 0 128 -7c9 -2 12 -16 14 -21c2 -10 -3 -18 -5 -26
c-9 -7 -73 -14 -146 -19c-8 -71 -11 -139 -13 -188c6 -6 29 -4 48 -2c162 40 321 144 321 329c0 119 -104 134 -127 138c-23 6 -135 15 -158 14z" />
    <glyph glyph-name="Hbar" unicode="&#x126;" horiz-adv-x="785" 
d="M205 55c0 -17 0 -28 -8 -32c-18 0 -47 -4 -53 -4c-8 0 -98 25 -98 40c0 71 23 241 35 334c0 3 0 10 2 21c-22 0 -36 0 -40 1c-23 4 -83 39 -57 63c22 -3 57 -4 100 -3c4 96 17 238 44 238c6 0 20 -2 26 -2c6 3 12 5 17 5c26 0 107 -18 105 -43c0 -3 72 -21 72 -35
c-3 -7 -39 -15 -55 -51c-10 -22 -21 -60 -32 -105l211 12c13 74 22 146 22 211c0 8 6 11 12 11h61c40 0 67 13 101 13c37 0 84 -8 84 -30c0 -10 -12 -1 -17 -7c-18 -25 -42 -99 -64 -193c34 0 63 -1 86 -3c14 -2 18 -15 18 -20c0 -7 -3 -10 -4 -18c-10 -4 -51 -10 -112 -15
c-31 -153 -55 -340 -49 -458c0 -8 -5 -19 -11 -23c-9 -4 -47 6 -61 8c-15 3 -90 28 -99 41c-13 65 -13 137 -5 210c-61 -7 -190 -28 -222 -40c-6 -52 -9 -97 -9 -126zM464 430l-213 -11c-9 -46 -18 -96 -25 -145c49 5 186 16 216 15c6 47 14 94 22 141z" />
    <glyph glyph-name="Lslash" unicode="&#x141;" horiz-adv-x="546" 
d="M520 81c3 -4 26 -21 26 -29c0 -6 -9 -4 -14 -6c-6 -2 -6 -11 -21 -15c-14 -4 -145 -19 -211 -32c-64 -13 -123 -32 -138 -32c-14 0 -66 11 -81 11c-6 0 -35 19 -35 25c0 3 9 9 18 11c-3 2 -3 34 -3 49c0 64 3 126 8 187c-17 -3 -28 -4 -32 -3c-23 1 -86 27 -72 53
c32 0 69 5 108 12c7 53 13 107 20 163c3 25 20 175 20 203c0 15 31 13 45 16c1 0 58 15 65 15c10 0 42 -6 48 -10c38 -26 78 -29 78 -45c0 -14 -3 -20 -6 -27c-35 -82 -63 -181 -81 -276c49 9 94 15 133 15c10 -1 23 -12 26 -18c3 -9 -3 -9 -2 -17c-12 -10 -87 -29 -168 -47
c-14 -79 -22 -152 -25 -207c36 4 127 15 233 15c20 0 55 -7 61 -11z" />
    <glyph glyph-name="Oslash" unicode="&#xd8;" horiz-adv-x="715" 
d="M210 709c3 5 15 23 29 23c29 0 52 -14 76 -27c12 -2 26 -4 45 -4c32 0 137 -15 202 -51l7 -5c19 22 38 43 57 63c12 12 23 2 26 -5c3 -8 14 -25 17 -31l-55 -62c36 -38 47 -82 47 -122c0 -52 -25 -511 -303 -511c-67 0 -145 21 -208 59l-44 -64c-7 -6 -22 -6 -23 -6
c-8 1 -11 2 -23 11c-11 6 -10 12 -5 23l49 71c-40 37 -66 86 -66 144c0 183 46 318 172 494zM540 525c-107 -125 -222 -263 -320 -392c11 -43 51 -101 109 -101c162 0 213 357 213 450c0 13 0 28 -2 43zM442 633c-43 0 -60 -13 -81 -40c-37 -46 -84 -164 -101 -213
s-31 -102 -38 -150c95 123 200 250 300 363c-6 10 -13 19 -22 28c-4 4 -43 12 -58 12z" />
    <glyph glyph-name="OE" unicode="&#x152;" horiz-adv-x="1129" 
d="M210 709c3 5 15 23 29 23c29 0 52 -14 76 -27c12 -2 26 -4 45 -4c15 0 50 -3 90 -11c44 -1 92 -2 98 -2c78 -4 251 -4 295 -4c41 0 207 5 207 -17c0 -10 -7 -10 -7 -11c0 -2 4 -6 0 -8c-3 0 -84 -8 -105 -10c-51 -6 -162 -16 -309 -26c38 -38 49 -84 49 -124
c0 -16 -3 -65 -12 -128c133 7 231 1 246 -1c32 -8 55 -12 55 -20c0 -10 6 -15 6 -19c0 -6 -6 -7 -12 -7c-2 0 -136 6 -308 -13c-18 -80 -49 -169 -104 -233c129 1 332 3 345 3c16 0 122 -3 133 -7c12 -4 26 -14 26 -19c0 -6 -13 -9 -14 -12c-6 -15 -332 -29 -439 -41
c-14 -2 -29 9 -34 11l-53 30c-42 -33 -92 -55 -155 -55c-136 0 -320 84 -320 238c0 183 46 318 172 494zM487 344l39 5c11 56 16 106 16 133c0 42 0 100 -42 139c-4 4 -43 12 -58 12c-43 0 -60 -13 -81 -40c-37 -46 -84 -164 -101 -213c-26 -80 -50 -171 -41 -236
c6 -43 47 -112 110 -112c96 0 154 128 184 251c-8 4 -14 14 -22 25c-12 16 -29 33 -4 36z" />
    <glyph glyph-name="Tbar" unicode="&#x166;" horiz-adv-x="846" 
d="M11 637c26 0 248 34 290 36c46 2 271 15 369 15c67 0 132 -6 158 -11c23 -6 26 -33 17 -50c-4 0 -11 4 -11 8c-38 -4 -142 -15 -213 -31c-20 -40 -67 -176 -75 -237c-3 -9 -4 -20 -7 -32c39 0 79 -1 119 -5c14 -2 17 -14 17 -19c0 -7 -2 -15 -3 -23
c-14 -7 -74 -13 -144 -17c-12 -78 -23 -174 -23 -227c0 -44 6 -48 9 -55c-18 -6 -26 -5 -38 -4s-17 0 -38 0c-20 0 -82 15 -104 36c-7 54 1 164 7 244c-38 0 -69 0 -78 2c-23 4 -82 43 -56 67c41 -5 88 -6 139 -4c1 8 1 15 1 20c0 47 16 182 22 228c-55 -2 -169 -2 -216 2
c-43 3 -125 24 -148 34c-8 4 0 23 6 23z" />
    <glyph glyph-name="Eth" unicode="&#xd0;" horiz-adv-x="854" 
d="M-21 374c27 -5 75 -4 128 -2c9 89 20 178 29 255c-15 4 -47 2 -52 2c-15 0 -53 25 -53 36c0 2 9 6 12 6c-3 2 -6 5 -6 5c17 11 92 17 116 21c0 8 -6 23 3 23c6 0 17 2 23 0l55 -21c152 10 260 -26 375 -81c98 -47 171 -100 177 -122c14 -24 22 -78 22 -99
c0 -91 -61 -194 -175 -277c-125 -91 -267 -135 -306 -135c-32 0 -53 27 -134 27c-17 0 -83 17 -92 30c-11 64 -9 158 0 258c-44 -1 -78 0 -84 2c-15 4 -55 48 -38 72zM353 599c-30 -55 -49 -136 -62 -218c50 1 96 0 128 -7c9 -2 12 -16 14 -21c2 -10 -3 -18 -5 -26
c-9 -7 -73 -14 -146 -19c-8 -71 -11 -139 -13 -188c6 -6 29 -4 48 -2c162 40 321 144 321 329c0 119 -104 134 -127 138c-23 6 -135 15 -158 14z" />
    <glyph glyph-name="Eng" unicode="&#x14a;" horiz-adv-x="730" 
d="M130 663c3 8 9 15 14 17c59 8 220 -13 245 -24c13 -6 26 -14 26 -22c0 -6 -6 -11 -13 -13c-1 -15 -3 -33 -3 -53c0 -109 45 -265 89 -416c37 199 74 393 107 585c0 4 12 27 14 27c6 0 21 -8 32 -10c26 -2 47 -13 52 -17c6 -4 6 -17 3 -27c-32 -169 -89 -431 -113 -662
c-6 -57 -17 -217 -52 -238c-38 -23 -84 -53 -127 -53c-44 0 -145 21 -211 85c-12 12 -12 42 10 42c23 0 43 -10 51 -15c6 -5 72 -49 98 -49c15 0 20 2 20 2c20 26 59 92 76 165c-24 4 -41 29 -46 36c-39 50 -101 154 -124 222c-15 51 -50 205 -58 258
c-36 -167 -62 -337 -67 -503c-9 -2 -14 1 -20 1s-12 -5 -21 -5c-17 0 -66 30 -66 40c0 187 30 362 46 538c0 32 1 72 3 91c1 9 29 4 35 -2z" />
    <glyph glyph-name="Thorn" unicode="&#xde;" horiz-adv-x="684" 
d="M653 340c14 -121 -260 -237 -433 -230c-1 -32 -3 -16 -3 -74c0 -29 12 -27 12 -40c0 -6 -15 -15 -18 -17c-6 0 -14 9 -20 9c-9 0 -32 -5 -44 -5c-34 0 -84 23 -95 45c-3 7 -6 32 -6 46c0 131 49 343 53 463c2 44 5 88 5 132c0 6 12 13 20 15c5 0 11 -1 15 -1
c17 0 28 16 43 16c44 0 155 -32 155 -53c0 -15 -3 -24 -7 -28c-10 -13 -19 -36 -27 -65c70 -12 141 -33 200 -59c83 -36 143 -80 150 -154zM278 467c-19 -67 -30 -141 -44 -239c115 -12 292 75 292 153c0 21 -15 44 -49 61c-29 14 -156 25 -199 25z" />
    <glyph glyph-name="ae" unicode="&#xe6;" horiz-adv-x="666" 
d="M393 76c6 -13 20 -53 110 -53c94 0 169 49 181 59c6 4 14 0 17 -2s12 -11 9 -15c-49 -53 -144 -80 -236 -80c-118 0 -194 30 -220 91c-20 -37 -52 -85 -92 -85c-23 0 -84 7 -108 26c-97 71 -48 277 35 392c18 24 44 58 116 58c73 0 87 -38 106 -58l9 17c3 5 12 7 18 7
c22 0 40 6 58 6c11 0 46 -4 72 -21c41 -31 106 -30 139 -72c13 -15 -1 -50 -10 -65s-95 -140 -204 -205zM272 348c3 32 -20 66 -44 66c-77 0 -133 -236 -133 -302c0 -15 3 -89 38 -89c46 0 100 150 110 190c8 28 26 118 29 135zM390 129c23 14 123 120 123 198
c0 7 -10 15 -19 15c-30 0 -107 -137 -104 -213z" />
    <glyph glyph-name="oe" unicode="&#x153;" horiz-adv-x="734" 
d="M462 76c6 -13 20 -53 110 -53c94 0 169 49 181 59c6 4 14 0 17 -2s12 -11 9 -15c-49 -53 -144 -80 -236 -80c-96 0 -165 20 -202 61c-27 -30 -66 -45 -122 -45c-89 0 -242 41 -242 168c0 134 89 296 119 296c7 0 10 -3 10 -5c6 2 19 5 32 5c27 0 147 -40 179 -51
c13 -5 33 -16 52 -26c6 12 12 25 20 38c3 5 12 7 18 7c21 0 40 6 58 6c11 0 46 -4 72 -21c41 -31 106 -30 139 -72c12 -15 -1 -50 -10 -65c-10 -15 -95 -140 -204 -205zM263 374c-50 0 -115 -134 -115 -234c0 -54 19 -104 68 -104c95 0 105 181 105 234c0 26 -4 104 -58 104
zM459 129c23 14 122 120 122 198c0 7 -9 15 -18 15c-31 0 -107 -137 -104 -213z" />
    <glyph glyph-name="dcroat" unicode="&#x111;" horiz-adv-x="574" 
d="M309 680c0 12 26 14 43 14c18 0 73 -4 113 -21c34 -15 81 -52 81 -59c0 -6 -24 -10 -29 -27l-9 -29c24 0 49 -2 70 -3c10 -1 16 -14 16 -19c0 -15 -6 -18 -8 -26c-8 -6 -46 -9 -95 -10c-30 -111 -49 -207 -63 -314c-4 -39 0 -129 66 -129c68 0 103 19 109 23c1 1 4 1 7 0
c7 -2 10 -8 10 -12c0 -1 -49 -49 -149 -49c-101 0 -151 52 -174 135c-11 -23 -34 -67 -43 -82c-11 -17 -47 -74 -99 -74c-127 0 -155 93 -155 156c0 125 47 228 76 274c8 11 20 20 37 20c16 0 87 -1 100 -3c9 -2 55 -19 84 -38c6 30 12 66 17 97c-43 2 -77 5 -85 7
c-15 4 -55 37 -38 61c31 -6 78 -9 130 -10c0 3 2 7 2 10c3 36 9 85 3 93s-17 10 -17 15zM288 369c-11 5 -55 34 -72 34c-20 0 -39 -17 -68 -69c-29 -51 -49 -145 -52 -191c-3 -58 13 -114 36 -114c39 0 87 91 110 140c23 50 38 164 46 200z" />
    <glyph glyph-name="hbar" unicode="&#x127;" horiz-adv-x="546" 
d="M35 665c0 10 43 15 60 17c14 1 58 10 64 10c9 0 48 -8 52 -12c3 -3 3 -11 6 -13s42 -6 39 -38l-20 -84c62 3 120 4 162 2c9 -1 15 -14 15 -19c0 -15 -6 -18 -8 -26c-10 -8 -94 -15 -186 -19c-29 -122 -68 -281 -71 -316c5 -2 11 2 11 2c3 14 70 188 116 234
c77 11 69 7 143 -4c15 -2 58 -4 73 -21c3 -21 -23 -64 -32 -85c-34 -73 -43 -128 -49 -166c-6 -36 6 -72 43 -72c32 0 67 9 81 12c20 4 52 9 57 0c4 -8 -3 -13 -13 -17c-9 -4 -84 -31 -148 -31c-67 0 -161 23 -161 131c0 27 16 141 29 173c0 1 0 2 -1 2
c-22 -13 -71 -118 -90 -182c-22 -65 -40 -133 -48 -154c-3 -10 -9 -21 -40 -21c-53 0 -99 26 -116 26c-3 27 -3 73 -3 109c0 34 14 173 26 235c3 27 9 84 12 141c-38 0 -69 0 -75 2c-15 4 -55 37 -38 61c26 -5 69 -5 118 -4c3 54 4 99 3 106c-3 14 -11 10 -11 21z" />
    <glyph glyph-name="lslash" unicode="&#x142;" horiz-adv-x="393" 
d="M93 688c8 9 14 15 29 15c11 2 49 6 69 4c23 -2 132 -31 152 -33c20 -3 43 -15 49 -26c6 -12 12 -40 12 -57c0 -63 -31 -147 -77 -230c26 3 48 5 68 5c10 -1 23 -12 26 -18c3 -9 -3 -9 -2 -17c-9 -8 -64 -23 -133 -39c-49 -77 -107 -148 -159 -193c0 -29 12 -76 84 -76
c87 0 193 55 210 61c4 1 9 1 12 -2c5 -5 6 -14 6 -16c-57 -41 -139 -76 -225 -76c-200 0 -237 127 -237 232v13c-27 6 -73 29 -61 52c18 0 40 2 64 5c12 149 60 302 113 396zM234 344c52 129 81 266 60 266c-37 0 -98 -149 -135 -282c25 6 51 11 75 16zM127 160
c26 27 52 67 75 112l-61 -12c-9 -41 -14 -76 -14 -100z" />
    <glyph glyph-name="oslash" unicode="&#xf8;" horiz-adv-x="502" 
d="M353 404l60 65c2 5 26 8 29 1l15 -37l-61 -68c9 -23 14 -51 14 -81c0 -79 -26 -171 -49 -212c-29 -48 -72 -71 -142 -71c-29 0 -63 4 -97 13c-13 -19 -27 -40 -42 -63c-7 -6 -22 -6 -23 -6c-23 15 -34 16 -23 41l33 50c-50 26 -90 68 -90 133c0 134 89 296 119 296
c7 0 10 -3 10 -5c6 2 19 5 32 5c27 0 150 -40 177 -55c14 -3 28 -4 38 -6zM216 36c95 0 105 181 105 234v7c-59 -70 -105 -128 -160 -206c10 -21 29 -35 55 -35zM263 374c-49 0 -110 -122 -115 -220c49 69 94 124 156 195c-9 14 -21 25 -41 25z" />
    <glyph glyph-name="germandbls" unicode="&#xdf;" horiz-adv-x="638" 
d="M387 664c161 0 220 -85 220 -98c-1 -73 -127 -201 -270 -259c58 -20 246 -85 246 -147c0 -67 -81 -124 -132 -143c-50 -20 -114 -38 -153 -38c-110 0 -95 62 -95 89c0 6 0 17 2 20c3 3 12 5 23 5c14 -1 -2 -38 52 -38c102 0 161 76 161 119c0 33 -46 75 -97 75h-40
c-22 0 -39 9 -45 18c-8 10 -30 33 -28 48c87 13 248 189 248 263c0 17 -25 20 -38 20c-60 0 -169 -18 -196 -79c-83 -185 -100 -460 -94 -629c-13 -6 -12 -4 -26 -4c-6 2 -29 10 -38 10c-21 0 -76 16 -84 30c-3 4 -3 70 -3 80c0 9 17 264 28 338c15 96 101 320 359 320z" />
    <glyph glyph-name="tbar" unicode="&#x167;" horiz-adv-x="382" 
d="M70 517l17 89c3 17 12 63 32 67c17 2 66 -7 91 -14c23 -7 67 -15 68 -34c0 -19 -19 -91 -26 -106c59 0 172 2 184 2s23 -6 23 -14c0 -13 -44 -21 -69 -24c-47 -6 -96 -4 -142 -4c-9 -27 -22 -86 -34 -146c38 1 77 2 109 2c9 0 17 -13 17 -18c1 -15 -3 -18 -5 -26
c-9 -8 -66 -14 -132 -18c-7 -47 -12 -90 -12 -111c0 -57 0 -118 87 -118c59 0 103 26 115 32c6 -1 12 -2 20 -6c6 -3 9 -11 6 -13c-18 -13 -81 -53 -171 -53c-168 0 -213 126 -213 209c0 13 0 33 3 56c-30 0 -52 1 -58 2c-15 3 -60 34 -46 59c28 -4 66 -4 110 -3
c6 56 14 114 20 142c-32 -1 -197 1 -222 4c-23 3 -26 10 -26 12s10 13 16 15s212 13 238 17z" />
    <glyph glyph-name="eng" unicode="&#x14b;" horiz-adv-x="549" 
d="M317 298l-6 -2c-14 -19 -78 -165 -91 -209c-10 -43 -13 -81 -17 -83c-19 -8 -45 1 -67 0c-17 2 -81 24 -87 28c0 2 -6 25 -8 34c0 10 -3 147 5 198c-11 6 -40 15 -46 21c0 38 8 84 23 131c1 6 26 15 32 17c3 2 49 -2 58 -2c29 4 90 1 90 -25c0 -9 -7 -18 -9 -26
c-3 -11 -17 -205 -20 -249c22 56 43 112 68 167c14 29 58 114 75 114c29 -2 128 -17 151 -32c14 -13 35 -21 35 -29c-3 -14 -35 -249 -41 -306s-17 -217 -52 -238c-38 -23 -96 -53 -139 -53c-45 0 -153 15 -219 79c-12 12 5 38 28 38c16 0 26 -6 33 -11c6 -5 61 -43 87 -43
s34 2 34 2c20 26 48 91 57 163c9 52 21 208 26 316z" />
    <glyph glyph-name="eth" unicode="&#xf0;" horiz-adv-x="456" 
d="M14 549c30 -6 85 -6 150 -3l-28 22c-23 16 -64 47 -104 43c0 0 -3 2 -3 4c25 37 58 51 86 62c24 8 50 12 79 14c6 -2 16 -4 19 -4c4 0 10 2 20 6c62 -33 105 -82 133 -139c41 1 81 2 110 0c9 -1 15 -14 15 -19c0 -15 -6 -18 -8 -26c-7 -5 -42 -10 -93 -14
c34 -104 29 -223 9 -317c-9 -43 -26 -83 -38 -106c-29 -48 -72 -71 -142 -71c-89 0 -242 41 -242 168c0 134 73 269 104 269c6 0 9 -3 9 -5c6 2 20 5 32 5c28 0 150 -40 178 -55c-17 30 -48 69 -80 104c-84 -2 -159 -2 -168 1c-15 4 -55 37 -38 61zM248 347
c-51 0 -100 -107 -100 -207c0 -54 19 -104 68 -104c81 0 105 181 105 234c0 26 -20 77 -73 77z" />
    <glyph glyph-name="thorn" unicode="&#xfe;" horiz-adv-x="519" 
d="M283 -21c-11 0 -83 19 -118 33c-14 -69 -20 -139 -20 -201c0 -19 2 -36 2 -39c9 -10 -15 -13 -26 -13c-23 0 -41 8 -60 8c-35 0 -49 16 -72 26c-17 7 -10 41 -10 50c0 107 15 210 21 312c3 49 41 406 41 458c0 25 0 49 -21 58c0 4 0 6 6 6s20 1 23 1c3 2 17 6 32 6
c32 0 130 -9 155 -19c7 -4 13 -5 13 -7s-21 -57 -24 -71c-3 -15 -72 -297 -75 -405h5c24 78 47 179 116 238c41 0 128 -17 154 -25c42 -11 48 -53 48 -76c0 -35 -11 -125 -29 -180c-13 -36 -42 -115 -88 -141c-35 -20 -64 -19 -73 -19zM315 369c-69 -78 -116 -198 -142 -320
c21 -8 55 -22 61 -22c130 0 141 222 141 264c0 40 0 83 -43 83c-3 0 -12 -2 -17 -5z" />
    <glyph glyph-name="g.001" horiz-adv-x="562" 
d="M334 399c15 4 32 8 47 8c29 0 165 -14 165 -40c0 -12 -18 -14 -26 -23c-7 -9 -35 -61 -44 -93c-8 -30 -46 -209 -61 -296c-17 -86 -8 -156 -5 -181c-6 -9 -15 -8 -21 -9c-5 0 -52 -4 -69 1c-6 -3 -19 -5 -26 -3c-12 3 -83 30 -83 38c0 5 22 13 22 19c0 5 29 224 39 264
c-20 -27 -35 -47 -46 -57c-12 -12 -36 -34 -67 -34c-38 0 -64 15 -84 24c-34 16 -75 61 -75 116s24 179 101 285c31 43 47 40 67 40s52 -13 65 -19c29 -6 81 -25 101 -40zM320 327c10 46 -51 68 -61 68c-13 0 -48 0 -91 -57c-46 -59 -73 -197 -73 -212c0 -16 6 -97 44 -97
s104 102 117 129c13 26 52 127 64 169z" />
    <glyph glyph-name="kgreenlandic" unicode="&#x138;" horiz-adv-x="621" 
d="M58 488c6 0 26 -2 32 0c3 2 11 13 32 13c16 0 138 -13 138 -38c0 -16 -26 -66 -44 -154c29 60 93 145 145 145c18 0 54 -7 64 -13c63 -16 84 -63 84 -103c0 -38 -68 -116 -145 -144c46 -57 107 -139 213 -139c23 0 55 8 64 12c8 3 12 2 17 1c6 -2 9 -5 9 -9
c0 -2 -35 -49 -187 -49c-36 0 -93 7 -148 38c-58 32 -116 78 -136 93c-6 -31 -6 -99 -6 -110c0 -12 6 -33 3 -37c-26 5 -35 -6 -61 -5c-36 2 -72 13 -91 24c-4 14 -7 33 -7 50c0 208 30 194 30 398c0 8 -3 21 -6 27zM213 217c81 19 194 102 209 163c0 6 3 23 0 29
c-4 4 -13 9 -23 9c-46 0 -122 -82 -137 -106c-11 -17 -42 -70 -49 -95z" />
    <glyph glyph-name="ij" unicode="&#x133;" horiz-adv-x="610" 
d="M355 397c0 3 5 6 15 9c-1 7 3 11 11 12c44 2 69 -10 81 -15c23 -10 96 -23 96 -36c0 -6 -23 -10 -26 -34c-3 -14 -29 -228 -35 -285s-17 -217 -52 -238c-38 -23 -96 -53 -139 -53c-44 0 -164 21 -230 85c-12 12 -12 42 11 42s43 -10 51 -15c6 -5 72 -49 98 -49s33 2 33 2
c20 26 48 91 57 163c12 72 32 344 29 412zM202 322c-11 -36 -15 -69 -20 -94c-8 -49 -20 -171 -9 -243c-14 -6 -29 -4 -43 -4c-6 2 -29 10 -38 10c-22 0 -68 16 -75 30c-3 4 -9 37 -11 47c-9 64 -4 149 15 247l17 77c6 3 16 9 20 9c9 0 18 -4 45 -4c13 0 38 2 45 0
c25 -4 59 -23 71 -24c-5 -11 -11 -29 -17 -51zM457 578c-15 0 -64 13 -73 17c-12 6 -26 30 -29 38c-3 7 -9 49 26 61c35 11 64 9 73 9c8 0 52 -4 59 -9c4 -6 49 -46 52 -61c-17 -29 -62 -55 -108 -55zM50 620c0 28 37 68 88 68c29 0 69 -13 81 -21c14 -9 41 -53 29 -75
c-20 -34 -90 -33 -123 -31c-26 2 -75 24 -75 59z" />
    <glyph glyph-name="IJ" unicode="&#x132;" horiz-adv-x="1062" 
d="M480 643c-15 -1 -30 -2 -45 -4v-21c0 -6 -22 -122 -28 -158s-47 -308 -55 -375c34 -1 69 -3 78 -7c9 -6 38 -21 38 -23c0 -4 -6 -8 -9 -9c3 -4 9 -8 9 -12s-35 -26 -53 -28c-14 -2 -150 -8 -179 -10c-28 -2 -138 -7 -176 -7c-14 0 -60 7 -60 19c0 14 92 40 104 43
c35 8 103 21 129 25c-57 25 -68 71 -68 115c0 139 35 263 84 418c-42 -7 -85 -11 -125 -11c-14 0 -28 9 -41 11c-14 2 -28 5 -16 13c19 12 107 38 204 51c4 13 -6 16 -6 25c0 6 18 8 23 8c20 0 56 -21 67 -21c12 0 98 9 144 9c30 0 56 -2 56 -20c0 -17 -32 -30 -75 -31z
M730 634c-60 -4 -72 -7 -101 -8c-22 -1 -35 20 -35 30c0 6 16 19 26 21c30 9 315 39 368 39c23 0 43 -2 62 -8c13 -4 45 -19 45 -23c0 -28 -82 -22 -113 -34c-61 -26 -93 -199 -102 -261c-16 -98 -66 -426 -127 -469c-42 -29 -101 -72 -182 -72c-121 0 -228 55 -233 104
c-3 30 92 17 101 4c14 -25 49 -38 70 -38c17 0 68 19 91 53c24 36 87 254 98 357c3 29 17 269 32 305z" />
    <glyph glyph-name="quoteright" unicode="&#x2019;" horiz-adv-x="280" 
d="M119 741c2 4 10 8 14 8c35 4 64 -12 89 -24c4 -3 7 -6 9 -12c5 -22 -5 -61 -18 -88c-11 -21 -42 -85 -51 -87c-4 -2 -33 5 -43 8c-9 2 -35 11 -35 13c-3 2 -6 13 -1 19c26 34 38 133 36 163z" />
    <glyph glyph-name="quoteleft" unicode="&#x2018;" horiz-adv-x="280" 
d="M190 541c-2 -4 -9 -8 -14 -8c-35 -4 -64 12 -89 24c-4 3 -7 6 -9 12c-5 22 5 61 18 88c11 21 42 85 51 87c4 2 34 -5 43 -8c9 -2 30 -22 30 -24c3 -2 6 -13 2 -19c-26 -34 -34 -122 -32 -152z" />
    <glyph glyph-name="quotedblleft" unicode="&#x201c;" horiz-adv-x="468" 
d="M190 541c-2 -4 -9 -8 -14 -8c-35 -4 -64 12 -89 24c-4 3 -7 6 -9 12c-5 22 5 61 18 88c11 21 42 85 51 87c4 2 34 -5 43 -8c9 -2 30 -22 30 -24c3 -2 6 -13 2 -19c-26 -34 -34 -122 -32 -152zM376 525c-1 -4 -9 -8 -13 -8c-36 -4 -65 7 -89 19c-5 3 -8 6 -9 12
c-5 22 7 61 18 88c9 22 41 85 51 87c4 2 33 -5 42 -8c10 -2 34 -16 34 -18c3 -2 3 -19 -1 -25c-27 -34 -34 -117 -33 -147z" />
    <glyph glyph-name="quotedblright" unicode="&#x201d;" horiz-adv-x="461" 
d="M119 741c2 4 10 8 14 8c35 4 64 -12 89 -24c4 -3 7 -6 9 -12c5 -22 -5 -61 -18 -88c-11 -21 -42 -85 -51 -87c-4 -2 -33 5 -43 8c-9 2 -35 11 -35 13c-3 2 -6 13 -1 19c26 34 38 133 36 163zM297 741c1 4 9 8 14 8c35 4 67 1 91 -11c5 -3 8 -12 10 -18
c4 -22 -5 -61 -19 -88c-11 -21 -41 -76 -50 -78c-5 -2 -34 -4 -43 -1c-9 2 -35 11 -35 13c-3 2 -6 13 -2 19c26 34 35 126 34 156z" />
    <glyph glyph-name="quotedblbase" unicode="&#x201e;" horiz-adv-x="461" 
d="M119 109c2 4 10 8 14 8c35 4 64 -12 89 -24c4 -3 7 -6 9 -12c5 -22 -5 -61 -18 -88c-11 -21 -42 -85 -51 -87c-4 -2 -33 5 -43 8c-9 2 -35 11 -35 13c-3 2 -6 13 -1 19c26 34 38 133 36 163zM297 109c1 4 9 8 14 8c35 4 67 1 91 -11c5 -3 8 -12 10 -18
c4 -22 -5 -61 -19 -88c-11 -21 -41 -76 -50 -78c-5 -2 -34 -4 -43 -1c-9 2 -35 11 -35 13c-3 2 -6 13 -2 19c26 34 35 126 34 156z" />
    <glyph glyph-name="quotesinglbase" unicode="&#x201a;" horiz-adv-x="280" 
d="M119 109c2 4 10 8 14 8c35 4 64 -12 89 -24c4 -3 7 -6 9 -12c5 -22 -5 -61 -18 -88c-11 -21 -42 -85 -51 -87c-4 -2 -33 5 -43 8c-9 2 -35 11 -35 13c-3 2 -6 13 -1 19c26 34 38 133 36 163z" />
    <glyph glyph-name="grave" unicode="`" 
d="M162 666c35 -19 132 -89 165 -108c8 -5 19 -12 19 -16c0 -7 -9 -34 -29 -34c-48 19 -187 80 -225 105c-6 5 -6 9 -5 12c8 19 28 30 58 42c5 1 11 1 17 -1z" />
    <glyph glyph-name="acute" unicode="&#xb4;" 
d="M303 666c6 2 12 2 17 1c30 -12 36 -26 44 -45c2 -3 2 -7 -4 -12c-39 -25 -178 -83 -225 -102c-20 0 -29 27 -29 34c0 4 10 11 18 16c34 19 144 89 179 108z" />
    <glyph glyph-name="circumflex" unicode="&#x2c6;" 
d="M231 653c11 0 37 -15 72 -40c34 -23 67 -46 84 -55c8 -5 18 -12 18 -16c0 -7 -16 -30 -36 -30c-31 12 -86 37 -140 63c-55 -25 -117 -53 -148 -65c-18 -3 -35 25 -35 32c0 4 11 11 18 16c17 9 52 32 89 54c38 23 67 41 78 41z" />
    <glyph glyph-name="caron" unicode="&#x2c7;" 
d="M220 516c-10 0 -36 6 -72 31c-33 23 -67 46 -84 55c-7 5 -18 12 -18 16c0 7 17 30 37 30c30 -12 85 -37 139 -63c55 25 118 53 148 65c19 3 35 -25 35 -32c0 -4 -10 -11 -18 -16c-17 -9 -52 -32 -89 -54c-38 -23 -67 -32 -78 -32z" />
    <glyph glyph-name="tilde" unicode="&#x2dc;" 
d="M69 527c-23 -7 -17 54 3 66c170 97 157 -89 318 27c11 8 26 -1 26 -1c3 -4 3 -9 3 -14c0 -42 -85 -84 -139 -84c-104 0 -99 89 -211 6z" />
    <glyph glyph-name="dieresis" unicode="&#xa8;" 
d="M115 614c27 0 46 -12 59 -28c2 -4 -4 -25 -10 -35c-6 -8 -17 -18 -34 -18c-37 -2 -64 17 -70 37c0 8 6 44 55 44zM301 527c-27 0 -38 11 -52 27c-1 4 -7 22 3 34c8 8 25 19 42 19c36 2 70 -15 70 -37c0 -8 -14 -43 -63 -43z" />
    <glyph glyph-name="dotaccent" unicode="&#x2d9;" 
d="M225 614c27 0 46 -12 60 -28c1 -4 -5 -25 -11 -35c-6 -8 -17 -18 -34 -18c-37 -2 -64 17 -70 37c0 8 6 44 55 44z" />
    <glyph glyph-name="macron" unicode="&#xaf;" 
d="M99 595c45 -2 204 0 247 -3c12 -1 35 -19 38 -22c6 -6 21 -32 5 -39c-55 -2 -241 -6 -294 0c-11 2 -14 6 -14 9c-11 18 -12 28 3 49c3 4 8 6 15 6z" />
    <glyph glyph-name="breve" unicode="&#x2d8;" 
d="M217 517c-64 0 -171 58 -171 81c0 7 17 30 37 30c30 -12 72 -41 139 -42s118 32 148 44c19 3 35 -25 35 -32c0 -22 -96 -81 -188 -81z" />
    <glyph glyph-name="ring" unicode="&#x2da;" 
d="M205 679c18 0 21 -3 46 -3c53 0 110 -24 110 -66c0 -46 -32 -104 -109 -104c-84 0 -137 26 -137 85c0 45 52 88 90 88zM291 590c0 19 -13 45 -49 45c-39 0 -54 -41 -54 -58c0 -21 15 -39 43 -39c31 0 60 19 60 52z" />
    <glyph glyph-name="hungarumlaut" unicode="&#x2dd;" 
d="M219 654c4 2 10 4 15 4c37 -5 41 -3 60 -20c3 -2 4 -6 1 -12c-23 -32 -85 -93 -121 -121c-19 -5 -38 6 -41 13c-1 3 9 17 12 23c22 35 49 89 74 113zM367 661c25 12 61 -7 72 -20c3 -2 5 -6 0 -12c-27 -30 -96 -89 -135 -115c-19 -4 -35 8 -38 15c-1 3 11 17 16 23
c24 33 58 85 85 109z" />
    <glyph glyph-name="cedilla" unicode="&#xb8;" horiz-adv-x="459" 
d="M174 -51c-1 4 10 6 14 6c35 0 63 -8 81 -23c6 -5 6 -17 6 -24c-3 -29 -23 -95 -162 -102c-9 1 -40 16 -10 22c90 20 84 69 71 121z" />
    <glyph glyph-name="ogonek" unicode="&#x2db;" 
d="M308 -78c6 3 6 -7 6 -10c-14 -32 -57 -57 -103 -50c-41 10 -75 63 3 148c3 6 42 10 35 1c-58 -95 -20 -126 59 -89z" />
    <glyph glyph-name="commaaccentcomb" horiz-adv-x="591" 
d="M242 -35c1 3 7 5 10 5c31 0 65 -17 83 -29c3 -2 6 -5 5 -11c-3 -7 -28 -49 -43 -72c-15 -22 -46 -67 -54 -67c-4 -2 -33 5 -41 7c-14 4 -32 16 -32 17c-3 3 1 14 4 19c13 24 54 107 68 131z" />
    <glyph glyph-name="commaaccentcomb.alt" horiz-adv-x="591" 
d="M317 512c-2 -3 -8 -5 -11 -5c-31 0 -64 17 -83 29c-3 2 -6 5 -4 11c3 7 27 49 43 72c15 22 46 67 53 67c5 2 34 -5 41 -7c14 -4 33 -16 33 -17c3 -3 -2 -14 -5 -19c-12 -24 -54 -107 -67 -131z" />
    <glyph glyph-name="dotlessi" unicode="&#x131;" horiz-adv-x="312" 
d="M38 392c6 3 16 9 20 9c9 0 18 -4 45 -4c13 0 38 2 45 0c25 -4 59 -23 71 -24c-16 -38 -52 -175 -52 -238s26 -85 61 -85c34 0 92 26 104 30c8 3 18 4 23 -2c3 -6 6 -13 -3 -21c-8 -6 -63 -50 -188 -50c-126 0 -164 73 -164 145s32 213 38 240z" />
    <glyph glyph-name="dotlessj" unicode="&#x237;" horiz-adv-x="298" 
d="M43 397c0 3 5 6 15 9c-1 7 3 11 11 12c44 2 69 -10 81 -15c23 -10 96 -23 96 -36c0 -6 -23 -10 -26 -34c-3 -14 -29 -228 -35 -285s-17 -217 -52 -238c-38 -23 -96 -53 -139 -53c-44 0 -164 21 -230 85c-12 12 -12 42 11 42s43 -10 51 -15c6 -5 71 -49 97 -49
c27 0 34 2 34 2c20 26 48 91 57 163c12 72 32 344 29 412z" />
    <glyph glyph-name="at.case" horiz-adv-x="1043" 
d="M672 110c-77 0 -130 66 -138 98c-12 -24 -47 -106 -96 -106c-22 0 -75 6 -97 22c-33 26 -49 72 -49 124c0 76 32 164 84 220c23 25 66 44 107 44c34 0 65 -12 85 -43c3 7 20 18 30 17c22 -4 112 -55 112 -62c-2 -7 -14 -14 -17 -21c-21 -51 -40 -125 -40 -176
c0 -14 0 -82 48 -82c90 0 173 156 185 224c18 99 -11 189 -123 253c-48 28 -116 42 -186 42c-321 0 -442 -266 -442 -432c0 -126 64 -238 270 -238c34 0 71 3 109 8c5 1 11 -1 11 -3c1 -7 0 -12 -5 -13c-50 -10 -99 -15 -144 -15c-244 0 -393 153 -393 282
c0 249 196 483 542 457c284 -21 482 -128 482 -304c0 -111 -155 -296 -335 -296zM534 416c3 28 -17 58 -40 58c-67 0 -116 -208 -116 -266c0 -13 3 -78 34 -78c39 0 87 132 96 167c8 25 23 104 26 119z" />
    <glyph glyph-name="r.003" horiz-adv-x="477" 
d="M301 122c0 -33 17 -73 37 -73c67 0 123 172 145 259c13 43 17 88 22 91c6 4 14 7 21 7c28 0 28 -33 28 -49c0 -26 -77 -355 -219 -355c-132 0 -177 90 -177 158c0 74 30 176 33 188c-18 -2 -53 -2 -64 -2c-6 -23 -93 -274 -119 -333c-3 -4 -20 -5 -23 -4
c-28 6 -34 18 -29 29c20 47 94 272 107 327c-14 9 -35 34 -35 66c0 43 22 50 64 63c6 -2 67 -13 67 -32s-9 -46 -12 -55c6 -2 15 -6 20 -6c3 0 40 15 53 21c14 6 36 7 46 2c20 -8 87 -19 103 -27c18 -8 26 -20 26 -29c0 -16 -94 -163 -94 -246z" />
    <glyph glyph-name="s.002" horiz-adv-x="456" 
d="M2 -8c-25 5 -54 18 -45 36c45 95 84 198 110 297c5 17 13 85 19 91c12 16 61 26 84 29c46 -4 180 -24 180 -65c0 -11 -15 -4 -23 -11c-6 -8 -24 -35 -24 -71c0 -54 21 -90 47 -125c65 52 107 115 133 226c2 4 14 7 22 7c27 0 27 -33 27 -49c0 -55 -87 -175 -151 -223
c15 -20 44 -50 44 -88c0 -42 -139 -70 -211 -70c-70 0 -136 19 -183 50c-10 -15 -19 -29 -29 -34zM127 304c-9 -26 -60 -184 -73 -222h22c51 0 100 8 147 23c-30 65 -94 111 -81 212c-9 4 -12 -3 -15 -13zM98 47c11 -9 49 -24 87 -24c26 0 49 9 52 23c0 6 -1 13 -1 19
c-40 -11 -86 -17 -138 -18z" />
    <glyph glyph-name="s.003" horiz-adv-x="389" 
d="M358 46c0 -42 -139 -70 -211 -70c-87 0 -170 30 -216 77c-4 4 -8 11 -8 18s4 14 20 14c11 0 40 -3 66 -3c51 0 100 8 147 23c-31 65 -99 111 -86 212c-9 4 -12 -3 -15 -13c-18 2 -46 6 -46 21c0 17 12 85 19 91c12 16 52 26 75 29c45 -4 180 -24 180 -65
c0 -11 -15 -4 -23 -11c-6 -8 -24 -35 -24 -71c0 -54 21 -90 47 -125c64 52 107 115 133 226c2 4 14 7 22 7c27 0 27 -33 27 -49c0 -55 -87 -175 -151 -223c15 -20 44 -50 44 -88zM31 47c10 -9 49 -24 87 -24c26 0 49 9 52 23c0 6 -2 13 -2 19c-39 -11 -85 -17 -137 -18z" />
    <glyph glyph-name="grave.cap" 
d="M223 926c36 -19 132 -89 166 -108c7 -5 18 -12 18 -16c0 -7 -9 -34 -29 -34c-48 19 -187 80 -225 105c-6 5 -6 9 -5 12c8 19 28 30 59 42c4 1 10 1 16 -1z" />
    <glyph glyph-name="acute.cap" 
d="M364 926c6 2 12 2 17 1c31 -12 37 -26 44 -45c2 -3 2 -7 -4 -12c-39 -25 -178 -83 -225 -102c-20 0 -29 27 -29 34c0 4 10 11 18 16c34 19 144 89 179 108z" />
    <glyph glyph-name="circumflex.cap" 
d="M292 913c11 0 37 -15 72 -40c34 -23 67 -46 84 -55c8 -5 19 -12 19 -16c0 -7 -17 -30 -37 -30c-31 12 -86 37 -139 63c-55 -25 -118 -53 -149 -65c-18 -3 -35 25 -35 32c0 4 11 11 18 16c17 9 52 32 89 54c38 23 68 41 78 41z" />
    <glyph glyph-name="caron.cap" 
d="M282 776c-11 0 -37 6 -72 31c-34 23 -68 46 -85 55c-7 5 -18 12 -18 16c0 7 17 30 37 30c30 -12 85 -37 139 -63c55 25 118 53 148 65c19 3 36 -25 36 -32c0 -4 -11 -11 -19 -16c-17 -9 -52 -32 -88 -54c-39 -23 -68 -32 -78 -32z" />
    <glyph glyph-name="tilde.cap" 
d="M130 787c-23 -7 -17 54 3 66c170 97 158 -89 318 27c11 8 26 -1 26 -1c3 -4 3 -9 3 -14c0 -42 -85 -84 -139 -84c-104 0 -99 89 -211 6z" />
    <glyph glyph-name="dieresis.cap" 
d="M176 874c27 0 46 -12 60 -28c1 -4 -5 -25 -11 -35c-6 -8 -17 -18 -34 -18c-36 -2 -64 17 -70 37c0 8 6 44 55 44zM363 787c-28 0 -39 11 -52 27c-2 4 -8 22 3 34c7 8 24 19 41 19c37 2 70 -15 70 -37c0 -8 -13 -43 -62 -43z" />
    <glyph glyph-name="macron.cap" 
d="M161 855c44 -2 203 0 246 -3c12 -1 35 -19 38 -22c6 -6 22 -32 5 -39c-55 -2 -240 -6 -294 0c-11 2 -14 6 -14 9c-10 18 -12 28 3 49c3 4 8 6 16 6z" />
    <glyph glyph-name="breve.cap" 
d="M278 777c-64 0 -171 58 -171 81c0 7 17 30 37 30c30 -12 72 -41 139 -42s118 32 148 44c19 3 36 -25 36 -32c0 -22 -97 -81 -189 -81z" />
    <glyph glyph-name="ring.cap" 
d="M266 939c19 0 22 -3 46 -3c54 0 110 -24 110 -66c0 -46 -32 -104 -108 -104c-85 0 -138 26 -138 85c0 45 52 88 90 88zM352 850c0 19 -12 45 -49 45c-38 0 -54 -41 -54 -58c0 -21 16 -39 43 -39c31 0 60 19 60 52z" />
    <glyph glyph-name="hungarumlaut.cap" 
d="M280 914c5 2 11 4 15 4c37 -5 42 -3 60 -20c3 -2 5 -6 1 -12c-22 -32 -85 -93 -120 -121c-20 -5 -39 6 -42 13c-1 3 9 17 13 23c21 35 49 89 73 113zM428 921c25 12 62 -7 72 -20c3 -2 5 -6 0 -12c-27 -30 -96 -89 -134 -115c-20 -4 -36 8 -39 15c-1 3 11 17 16 23
c24 33 58 85 85 109z" />
    <glyph glyph-name="dotaccent.cap" 
d="M286 874c28 0 46 -12 60 -28c1 -4 -5 -25 -11 -35c-6 -8 -17 -18 -34 -18c-36 -2 -64 17 -70 37c0 8 6 44 55 44z" />
    <glyph glyph-name="agrave" unicode="&#xe0;" horiz-adv-x="542" 
d="M233 646c35 -19 131 -89 165 -108c7 -5 18 -12 18 -16c0 -7 -9 -34 -29 -34c-47 19 -187 80 -225 105c-6 5 -6 9 -4 12c7 19 27 30 58 42c4 1 10 1 17 -1zM332 395c23 8 136 -13 141 -38c-3 -7 -17 -15 -20 -23c-25 -58 -44 -142 -44 -201c0 -15 0 -72 58 -72
s95 23 99 25c3 1 6 3 11 0l9 -8c2 -2 0 -6 -3 -8c-5 -3 -58 -45 -148 -45c-91 0 -153 49 -163 87c-13 -27 -53 -121 -110 -121c-23 0 -84 7 -108 26c-97 71 -48 277 35 392c18 24 44 58 116 58c73 0 108 -52 127 -72zM272 348c3 32 -20 66 -44 66c-77 0 -133 -236 -133 -302
c0 -15 3 -89 38 -89c46 0 100 150 110 190c8 28 26 118 29 135z" />
    <glyph glyph-name="aacute" unicode="&#xe1;" horiz-adv-x="542" 
d="M353 666c7 2 13 2 17 1c31 -12 37 -26 45 -45c1 -3 1 -7 -5 -12c-38 -25 -177 -83 -225 -102c-20 0 -29 27 -29 34c0 4 11 11 18 16c34 19 144 89 179 108zM332 395c23 8 136 -13 141 -38c-3 -7 -17 -15 -20 -23c-25 -58 -44 -142 -44 -201c0 -15 0 -72 58 -72
s95 23 99 25c3 1 6 3 11 0l9 -8c2 -2 0 -6 -3 -8c-5 -3 -58 -45 -148 -45c-91 0 -153 49 -163 87c-13 -27 -53 -121 -110 -121c-23 0 -84 7 -108 26c-97 71 -48 277 35 392c18 24 44 58 116 58c73 0 108 -52 127 -72zM272 348c3 32 -20 66 -44 66c-77 0 -133 -236 -133 -302
c0 -15 3 -89 38 -89c46 0 100 150 110 190c8 28 26 118 29 135z" />
    <glyph glyph-name="acircumflex" unicode="&#xe2;" horiz-adv-x="542" 
d="M291 653c10 0 36 -15 72 -40c33 -23 67 -46 84 -55c7 -5 18 -12 18 -16c0 -7 -17 -30 -37 -30c-30 12 -85 37 -139 63c-55 -25 -118 -53 -148 -65c-19 -3 -35 25 -35 32c0 4 10 11 18 16c17 9 52 32 89 54c38 23 67 41 78 41zM332 395c23 8 136 -13 141 -38
c-3 -7 -17 -15 -20 -23c-25 -58 -44 -142 -44 -201c0 -15 0 -72 58 -72s95 23 99 25c3 1 6 3 11 0l9 -8c2 -2 0 -6 -3 -8c-5 -3 -58 -45 -148 -45c-91 0 -153 49 -163 87c-13 -27 -53 -121 -110 -121c-23 0 -84 7 -108 26c-97 71 -48 277 35 392c18 24 44 58 116 58
c73 0 108 -52 127 -72zM272 348c3 32 -20 66 -44 66c-77 0 -133 -236 -133 -302c0 -15 3 -89 38 -89c46 0 100 150 110 190c8 28 26 118 29 135z" />
    <glyph glyph-name="atilde" unicode="&#xe3;" horiz-adv-x="542" 
d="M122 527c-23 -7 -16 54 3 66c170 97 158 -89 319 27c10 8 26 -1 26 -1c3 -4 3 -9 3 -14c0 -42 -86 -84 -139 -84c-105 0 -100 89 -212 6zM332 395c23 8 136 -13 141 -38c-3 -7 -17 -15 -20 -23c-25 -58 -44 -142 -44 -201c0 -15 0 -72 58 -72s95 23 99 25c3 1 6 3 11 0
l9 -8c2 -2 0 -6 -3 -8c-5 -3 -58 -45 -148 -45c-91 0 -153 49 -163 87c-13 -27 -53 -121 -110 -121c-23 0 -84 7 -108 26c-97 71 -48 277 35 392c18 24 44 58 116 58c73 0 108 -52 127 -72zM272 348c3 32 -20 66 -44 66c-77 0 -133 -236 -133 -302c0 -15 3 -89 38 -89
c46 0 100 150 110 190c8 28 26 118 29 135z" />
    <glyph glyph-name="adieresis" unicode="&#xe4;" horiz-adv-x="542" 
d="M375 527c-28 0 -38 11 -52 27c-2 4 -8 22 3 34c8 8 24 19 41 19c37 2 71 -15 71 -37c0 -8 -14 -43 -63 -43zM188 614c28 0 46 -12 60 -28c1 -4 -5 -25 -11 -35c-6 -8 -17 -18 -34 -18c-36 -2 -64 17 -70 37c0 8 6 44 55 44zM332 395c23 8 136 -13 141 -38
c-3 -7 -17 -15 -20 -23c-25 -58 -44 -142 -44 -201c0 -15 0 -72 58 -72s95 23 99 25c3 1 6 3 11 0l9 -8c2 -2 0 -6 -3 -8c-5 -3 -58 -45 -148 -45c-91 0 -153 49 -163 87c-13 -27 -53 -121 -110 -121c-23 0 -84 7 -108 26c-97 71 -48 277 35 392c18 24 44 58 116 58
c73 0 108 -52 127 -72zM272 348c3 32 -20 66 -44 66c-77 0 -133 -236 -133 -302c0 -15 3 -89 38 -89c46 0 100 150 110 190c8 28 26 118 29 135z" />
    <glyph glyph-name="amacron" unicode="&#x101;" horiz-adv-x="542" 
d="M148 595c45 -2 204 0 247 -3c12 -1 35 -19 38 -22c6 -6 21 -32 5 -39c-56 -2 -241 -6 -294 0c-11 2 -14 6 -14 9c-11 18 -12 28 3 49c3 4 8 6 15 6zM332 395c23 8 136 -13 141 -38c-3 -7 -17 -15 -20 -23c-25 -58 -44 -142 -44 -201c0 -15 0 -72 58 -72s95 23 99 25
c3 1 6 3 11 0l9 -8c2 -2 0 -6 -3 -8c-5 -3 -58 -45 -148 -45c-91 0 -153 49 -163 87c-13 -27 -53 -121 -110 -121c-23 0 -84 7 -108 26c-97 71 -48 277 35 392c18 24 44 58 116 58c73 0 108 -52 127 -72zM272 348c3 32 -20 66 -44 66c-77 0 -133 -236 -133 -302
c0 -15 3 -89 38 -89c46 0 100 150 110 190c8 28 26 118 29 135z" />
    <glyph glyph-name="abreve" unicode="&#x103;" horiz-adv-x="542" 
d="M277 517c-64 0 -171 58 -171 81c0 7 16 30 36 30c31 -12 72 -41 140 -42c67 -1 117 32 148 44c18 3 35 -25 35 -32c0 -22 -96 -81 -188 -81zM332 395c23 8 136 -13 141 -38c-3 -7 -17 -15 -20 -23c-25 -58 -44 -142 -44 -201c0 -15 0 -72 58 -72s95 23 99 25
c3 1 6 3 11 0l9 -8c2 -2 0 -6 -3 -8c-5 -3 -58 -45 -148 -45c-91 0 -153 49 -163 87c-13 -27 -53 -121 -110 -121c-23 0 -84 7 -108 26c-97 71 -48 277 35 392c18 24 44 58 116 58c73 0 108 -52 127 -72zM272 348c3 32 -20 66 -44 66c-77 0 -133 -236 -133 -302
c0 -15 3 -89 38 -89c46 0 100 150 110 190c8 28 26 118 29 135z" />
    <glyph glyph-name="aring" unicode="&#xe5;" horiz-adv-x="542" 
d="M252 679c19 0 22 -3 46 -3c54 0 111 -24 111 -66c0 -46 -33 -104 -109 -104c-84 0 -138 26 -138 85c0 45 52 88 90 88zM338 590c0 19 -12 45 -49 45c-38 0 -53 -41 -53 -58c0 -21 15 -39 42 -39c31 0 60 19 60 52zM332 395c-19 20 -54 72 -127 72c-72 0 -98 -34 -116 -58
c-83 -115 -132 -321 -35 -392c24 -19 85 -26 108 -26c57 0 97 94 110 121c10 -38 72 -87 163 -87c90 0 143 42 148 45c3 2 5 6 3 8l-9 8c-5 3 -8 1 -11 0c-4 -2 -41 -25 -99 -25s-58 57 -58 72c0 59 19 143 44 201c3 8 17 16 20 23c-5 25 -118 46 -141 38zM272 348
c-3 -17 -21 -107 -29 -135c-10 -40 -64 -190 -110 -190c-35 0 -38 74 -38 89c0 66 56 302 133 302c24 0 47 -34 44 -66z" />
    <glyph glyph-name="aogonek" unicode="&#x105;" horiz-adv-x="542" 
d="M332 395c23 8 136 -13 141 -38c-3 -7 -17 -15 -20 -23c-25 -58 -44 -142 -44 -201c0 -15 0 -72 58 -72s95 23 99 25c3 1 6 3 11 0l9 -8c2 -2 0 -6 -3 -8c-5 -3 -45 -35 -115 -43c-51 -88 -15 -118 61 -83c6 3 6 -7 6 -10c-13 -32 -56 -57 -102 -50c-40 10 -71 61 -3 141
c-88 1 -148 49 -158 87c-13 -27 -53 -121 -110 -121c-23 0 -84 7 -108 26c-97 71 -48 277 35 392c18 24 44 58 116 58c73 0 108 -52 127 -72zM272 348c3 32 -20 66 -44 66c-77 0 -133 -236 -133 -302c0 -15 3 -89 38 -89c46 0 100 150 110 190c8 28 26 118 29 135z" />
    <glyph glyph-name="aeacute" unicode="&#x1fd;" horiz-adv-x="666" 
d="M393 76c6 -13 20 -53 110 -53c94 0 169 49 181 59c6 4 14 0 17 -2s12 -11 9 -15c-49 -53 -144 -80 -236 -80c-118 0 -194 30 -220 91c-20 -37 -52 -85 -92 -85c-23 0 -84 7 -108 26c-97 71 -48 277 35 392c18 24 44 58 116 58c73 0 87 -38 106 -58l9 17c3 5 12 7 18 7
c22 0 40 6 58 6c11 0 46 -4 72 -21c41 -31 106 -30 139 -72c13 -15 -1 -50 -10 -65s-95 -140 -204 -205zM272 348c3 32 -20 66 -44 66c-77 0 -133 -236 -133 -302c0 -15 3 -89 38 -89c46 0 100 150 110 190c8 28 26 118 29 135zM390 129c23 14 123 120 123 198
c0 7 -10 15 -19 15c-30 0 -107 -137 -104 -213zM415 666c6 2 12 2 16 1c31 -12 37 -26 45 -45c1 -3 1 -7 -5 -12c-38 -25 -177 -83 -225 -102c-20 0 -29 27 -29 34c0 4 11 11 19 16c33 19 143 89 179 108z" />
    <glyph glyph-name="cacute" unicode="&#x107;" horiz-adv-x="459" 
d="M127 445c21 0 47 1 70 -4c13 -2 144 -36 166 -50c15 -9 24 -24 24 -41c0 -54 -41 -152 -61 -152c-29 0 -58 19 -58 34c0 17 1 38 4 53c3 16 22 78 3 82c-13 2 -56 -65 -65 -93c-7 -17 -51 -126 -51 -177s41 -82 119 -82c80 0 170 54 190 65c9 5 31 7 35 2
c3 -4 0 -14 -6 -19c-7 -6 -90 -80 -255 -80c-167 0 -242 76 -242 186c0 112 81 268 127 276zM312 666c6 2 12 2 17 1c31 -12 37 -26 44 -45c2 -3 2 -7 -4 -12c-39 -25 -178 -83 -225 -102c-20 0 -29 27 -29 34c0 4 10 11 18 16c34 19 144 89 179 108z" />
    <glyph glyph-name="ccircumflex" unicode="&#x109;" horiz-adv-x="459" 
d="M127 445c21 0 47 1 70 -4c13 -2 144 -36 166 -50c15 -9 24 -24 24 -41c0 -54 -41 -152 -61 -152c-29 0 -58 19 -58 34c0 17 1 38 4 53c3 16 22 78 3 82c-13 2 -56 -65 -65 -93c-7 -17 -51 -126 -51 -177s41 -82 119 -82c80 0 170 54 190 65c9 5 31 7 35 2
c3 -4 0 -14 -6 -19c-7 -6 -90 -80 -255 -80c-167 0 -242 76 -242 186c0 112 81 268 127 276zM249 653c11 0 37 -15 72 -40c34 -23 68 -46 84 -55c8 -5 19 -12 19 -16c0 -7 -17 -30 -37 -30c-31 12 -86 37 -139 63c-55 -25 -118 -53 -149 -65c-18 -3 -35 25 -35 32
c0 4 11 11 19 16c16 9 52 32 88 54c39 23 68 41 78 41z" />
    <glyph glyph-name="ccaron" unicode="&#x10d;" horiz-adv-x="459" 
d="M127 445c21 0 47 1 70 -4c13 -2 144 -36 166 -50c15 -9 24 -24 24 -41c0 -54 -41 -152 -61 -152c-29 0 -58 19 -58 34c0 17 1 38 4 53c3 16 22 78 3 82c-13 2 -56 -65 -65 -93c-7 -17 -51 -126 -51 -177s41 -82 119 -82c80 0 170 54 190 65c9 5 31 7 35 2
c3 -4 0 -14 -6 -19c-7 -6 -90 -80 -255 -80c-167 0 -242 76 -242 186c0 112 81 268 127 276zM239 516c-11 0 -37 6 -72 31c-34 23 -68 46 -84 55c-8 5 -19 12 -19 16c0 7 17 30 37 30c31 -12 86 -37 139 -63c55 25 118 53 149 65c18 3 35 -25 35 -32c0 -4 -11 -11 -19 -16
c-16 -9 -52 -32 -88 -54c-39 -23 -68 -32 -78 -32z" />
    <glyph glyph-name="cdotaccent" unicode="&#x10b;" horiz-adv-x="459" 
d="M127 445c21 0 47 1 70 -4c13 -2 144 -36 166 -50c15 -9 24 -24 24 -41c0 -54 -41 -152 -61 -152c-29 0 -58 19 -58 34c0 17 1 38 4 53c3 16 22 78 3 82c-13 2 -56 -65 -65 -93c-7 -17 -51 -126 -51 -177s41 -82 119 -82c80 0 170 54 190 65c9 5 31 7 35 2
c3 -4 0 -14 -6 -19c-7 -6 -90 -80 -255 -80c-167 0 -242 76 -242 186c0 112 81 268 127 276zM242 614c27 0 46 -12 59 -28c2 -4 -4 -25 -10 -35c-6 -8 -17 -18 -34 -18c-37 -2 -64 17 -70 37c0 8 6 44 55 44z" />
    <glyph glyph-name="dcaron" unicode="&#x10f;" horiz-adv-x="574" 
d="M309 680c0 12 26 14 43 14c18 0 73 -4 113 -21c34 -15 81 -52 81 -59c0 -6 -24 -10 -29 -27c-47 -150 -70 -267 -89 -401c-4 -39 0 -129 66 -129c68 0 103 19 109 23c1 1 4 1 7 0c7 -2 10 -8 10 -12c0 -1 -49 -49 -149 -49c-101 0 -151 52 -174 135
c-11 -23 -34 -67 -43 -82c-11 -17 -47 -74 -99 -74c-127 0 -155 93 -155 156c0 125 47 228 76 274c8 11 20 20 37 20c16 0 87 -1 100 -3c9 -2 55 -19 84 -38c12 57 23 131 26 165c3 36 9 85 3 93s-17 10 -17 15zM288 369c-11 5 -55 34 -72 34c-20 0 -39 -17 -68 -69
c-29 -51 -49 -145 -52 -191c-3 -58 13 -114 36 -114c39 0 87 91 110 140c23 50 38 164 46 200zM578 605l20 82c0 2 6 6 11 6c9 0 35 -2 44 -4c17 -5 43 -16 43 -32c0 -8 -4 -65 -20 -86c-10 -23 -26 -80 -32 -81c-18 0 -64 10 -75 20c-7 5 6 82 9 95z" />
    <glyph glyph-name="egrave" unicode="&#xe8;" 
d="M148 76c7 -13 20 -53 111 -53c93 0 168 49 180 59c6 4 14 0 17 -2s12 -11 9 -15c-49 -53 -144 -80 -236 -80c-145 0 -229 47 -229 142s17 198 75 299c3 5 12 7 18 7c22 0 40 6 58 6c11 0 46 -4 72 -21c42 -31 106 -30 140 -72c12 -15 -2 -50 -11 -65s-95 -140 -204 -205z
M145 129c23 14 123 120 123 198c0 7 -9 15 -19 15c-30 0 -107 -137 -104 -213zM121 624c35 -19 131 -89 165 -108c8 -5 18 -12 18 -16c0 -7 -9 -34 -29 -34c-47 19 -186 80 -225 105c-6 5 -6 9 -4 12c8 19 27 30 58 42c5 1 11 1 17 -1z" />
    <glyph glyph-name="eacute" unicode="&#xe9;" 
d="M148 76c7 -13 20 -53 111 -53c93 0 168 49 180 59c6 4 14 0 17 -2s12 -11 9 -15c-49 -53 -144 -80 -236 -80c-145 0 -229 47 -229 142s17 198 75 299c3 5 12 7 18 7c22 0 40 6 58 6c11 0 46 -4 72 -21c42 -31 106 -30 140 -72c12 -15 -2 -50 -11 -65s-95 -140 -204 -205z
M145 129c23 14 123 120 123 198c0 7 -9 15 -19 15c-30 0 -107 -137 -104 -213zM295 638c6 2 13 2 17 1c31 -12 37 -26 44 -45c2 -3 2 -7 -4 -12c-38 -25 -178 -83 -225 -102c-20 0 -29 27 -29 34c0 4 11 11 18 16c34 19 144 89 179 108z" />
    <glyph glyph-name="ecircumflex" unicode="&#xea;" 
d="M148 76c7 -13 20 -53 111 -53c93 0 168 49 180 59c6 4 14 0 17 -2s12 -11 9 -15c-49 -53 -144 -80 -236 -80c-145 0 -229 47 -229 142s17 198 75 299c3 5 12 7 18 7c22 0 40 6 58 6c11 0 46 -4 72 -21c42 -31 106 -30 140 -72c12 -15 -2 -50 -11 -65s-95 -140 -204 -205z
M145 129c23 14 123 120 123 198c0 7 -9 15 -19 15c-30 0 -107 -137 -104 -213zM211 613c11 0 37 -15 72 -40c34 -23 67 -46 84 -55c8 -5 19 -12 19 -16c0 -7 -17 -30 -37 -30c-31 12 -86 37 -139 63c-55 -25 -118 -53 -149 -65c-18 -3 -35 25 -35 32c0 4 11 11 18 16
c17 9 52 32 89 54c38 23 67 41 78 41z" />
    <glyph glyph-name="ecaron" unicode="&#x11b;" 
d="M148 76c7 -13 20 -53 111 -53c93 0 168 49 180 59c6 4 14 0 17 -2s12 -11 9 -15c-49 -53 -144 -80 -236 -80c-145 0 -229 47 -229 142s17 198 75 299c3 5 12 7 18 7c22 0 40 6 58 6c11 0 46 -4 72 -21c42 -31 106 -30 140 -72c12 -15 -2 -50 -11 -65s-95 -140 -204 -205z
M145 129c23 14 123 120 123 198c0 7 -9 15 -19 15c-30 0 -107 -137 -104 -213zM220 486c-10 0 -36 6 -72 31c-33 23 -67 46 -84 55c-7 5 -18 12 -18 16c0 7 17 30 37 30c30 -12 85 -37 139 -63c55 25 118 53 148 65c19 3 35 -25 35 -32c0 -4 -10 -11 -18 -16
c-17 -9 -52 -32 -89 -54c-38 -23 -67 -32 -78 -32z" />
    <glyph glyph-name="edieresis" unicode="&#xeb;" 
d="M148 76c7 -13 20 -53 111 -53c93 0 168 49 180 59c6 4 14 0 17 -2s12 -11 9 -15c-49 -53 -144 -80 -236 -80c-145 0 -229 47 -229 142s17 198 75 299c3 5 12 7 18 7c22 0 40 6 58 6c11 0 46 -4 72 -21c42 -31 106 -30 140 -72c12 -15 -2 -50 -11 -65s-95 -140 -204 -205z
M145 129c23 14 123 120 123 198c0 7 -9 15 -19 15c-30 0 -107 -137 -104 -213zM129 573c27 0 45 -12 59 -28c2 -4 -4 -25 -11 -35c-6 -8 -16 -18 -33 -18c-37 -2 -64 17 -71 37c0 8 7 44 56 44zM315 486c-27 0 -38 11 -52 27c-1 4 -7 22 3 34c8 8 25 19 42 19
c36 2 70 -15 70 -37c0 -8 -14 -43 -63 -43z" />
    <glyph glyph-name="emacron" unicode="&#x113;" 
d="M148 76c7 -13 20 -53 111 -53c93 0 168 49 180 59c6 4 14 0 17 -2s12 -11 9 -15c-49 -53 -144 -80 -236 -80c-145 0 -229 47 -229 142s17 198 75 299c3 5 12 7 18 7c22 0 40 6 58 6c11 0 46 -4 72 -21c42 -31 106 -30 140 -72c12 -15 -2 -50 -11 -65s-95 -140 -204 -205z
M145 129c23 14 123 120 123 198c0 7 -9 15 -19 15c-30 0 -107 -137 -104 -213zM89 576c44 -2 203 0 246 -3c12 -1 35 -19 38 -22c6 -6 22 -32 5 -39c-55 -2 -240 -6 -294 0c-11 2 -14 6 -14 9c-10 18 -12 28 3 49c3 4 8 6 16 6z" />
    <glyph glyph-name="ebreve" unicode="&#x115;" 
d="M148 76c7 -13 20 -53 111 -53c93 0 168 49 180 59c6 4 14 0 17 -2s12 -11 9 -15c-49 -53 -144 -80 -236 -80c-145 0 -229 47 -229 142s17 198 75 299c3 5 12 7 18 7c22 0 40 6 58 6c11 0 46 -4 72 -21c42 -31 106 -30 140 -72c12 -15 -2 -50 -11 -65s-95 -140 -204 -205z
M145 129c23 14 123 120 123 198c0 7 -9 15 -19 15c-30 0 -107 -137 -104 -213zM217 485c-64 0 -171 58 -171 81c0 7 17 30 37 30c30 -12 72 -41 139 -42s118 32 148 44c19 3 35 -25 35 -32c0 -22 -96 -81 -188 -81z" />
    <glyph glyph-name="edotaccent" unicode="&#x117;" 
d="M148 76c7 -13 20 -53 111 -53c93 0 168 49 180 59c6 4 14 0 17 -2s12 -11 9 -15c-49 -53 -144 -80 -236 -80c-145 0 -229 47 -229 142s17 198 75 299c3 5 12 7 18 7c22 0 40 6 58 6c11 0 46 -4 72 -21c42 -31 106 -30 140 -72c12 -15 -2 -50 -11 -65s-95 -140 -204 -205z
M145 129c23 14 123 120 123 198c0 7 -9 15 -19 15c-30 0 -107 -137 -104 -213zM223 577c28 0 46 -12 60 -28c2 -4 -5 -25 -11 -35c-6 -8 -16 -18 -33 -18c-37 -2 -65 17 -71 37c0 8 6 44 55 44z" />
    <glyph glyph-name="eogonek" unicode="&#x119;" 
d="M424 -78c6 3 6 -7 6 -10c-14 -32 -57 -57 -103 -50c-38 10 -70 56 -12 131c-27 -5 -56 -8 -86 -8c-145 0 -229 47 -229 142s17 198 75 299c3 5 12 7 18 7c22 0 40 6 58 6c11 0 46 -4 72 -21c42 -31 106 -30 140 -72c12 -15 -2 -50 -11 -65s-95 -140 -204 -205
c7 -13 20 -53 111 -53c93 0 168 49 180 59c6 4 14 0 17 -2s12 -11 9 -15c-24 -27 -61 -47 -104 -61c-52 -89 -14 -118 63 -82zM145 129c23 14 123 120 123 198c0 7 -9 15 -19 15c-30 0 -107 -137 -104 -213z" />
    <glyph glyph-name="gcircumflex" unicode="&#x11d;" horiz-adv-x="562" 
d="M320 327c10 46 -51 68 -61 68c-13 0 -48 0 -91 -57c-46 -59 -73 -197 -73 -212c0 -16 6 -97 44 -97s104 102 117 129c13 26 52 127 64 169zM431 48c-6 -57 -16 -217 -52 -238c-38 -23 -96 -53 -139 -53c-44 0 -164 21 -229 85c-13 12 -13 42 10 42s43 -10 51 -15
c6 -5 72 -49 98 -49s33 2 33 2c20 26 48 91 57 163c0 5 14 75 23 115c-20 -27 -46 -63 -57 -73c-12 -12 -36 -34 -67 -34c-38 0 -64 15 -84 24c-34 16 -75 61 -75 116s24 179 101 285c31 43 47 40 67 40s52 -13 65 -19c29 -6 81 -25 101 -40c15 4 32 8 47 8
c29 0 165 -14 165 -40c0 -12 -18 -14 -26 -23c-7 -9 -35 -61 -44 -93c-8 -30 -29 -116 -45 -203zM286 653c11 0 37 -15 72 -40c34 -23 67 -46 84 -55c8 -5 19 -12 19 -16c0 -7 -17 -30 -37 -30c-31 12 -86 37 -139 63c-56 -25 -118 -53 -149 -65c-18 -3 -35 25 -35 32
c0 4 11 11 18 16c17 9 52 32 89 54c38 23 67 41 78 41z" />
    <glyph glyph-name="gbreve" unicode="&#x11f;" horiz-adv-x="562" 
d="M320 327c10 46 -51 68 -61 68c-13 0 -48 0 -91 -57c-46 -59 -73 -197 -73 -212c0 -16 6 -97 44 -97s104 102 117 129c13 26 52 127 64 169zM431 48c-6 -57 -16 -217 -52 -238c-38 -23 -96 -53 -139 -53c-44 0 -164 21 -229 85c-13 12 -13 42 10 42s43 -10 51 -15
c6 -5 72 -49 98 -49s33 2 33 2c20 26 48 91 57 163c0 5 14 75 23 115c-20 -27 -46 -63 -57 -73c-12 -12 -36 -34 -67 -34c-38 0 -64 15 -84 24c-34 16 -75 61 -75 116s24 179 101 285c31 43 47 40 67 40s52 -13 65 -19c29 -6 81 -25 101 -40c15 4 32 8 47 8
c29 0 165 -14 165 -40c0 -12 -18 -14 -26 -23c-7 -9 -35 -61 -44 -93c-8 -30 -29 -116 -45 -203zM272 517c-64 0 -171 58 -171 81c0 7 17 30 37 30c30 -12 72 -41 139 -42s118 32 148 44c19 3 36 -25 36 -32c0 -22 -97 -81 -189 -81z" />
    <glyph glyph-name="gdotaccent" unicode="&#x121;" horiz-adv-x="562" 
d="M320 327c10 46 -51 68 -61 68c-13 0 -48 0 -91 -57c-46 -59 -73 -197 -73 -212c0 -16 6 -97 44 -97s104 102 117 129c13 26 52 127 64 169zM431 48c-6 -57 -16 -217 -52 -238c-38 -23 -96 -53 -139 -53c-44 0 -164 21 -229 85c-13 12 -13 42 10 42s43 -10 51 -15
c6 -5 72 -49 98 -49s33 2 33 2c20 26 48 91 57 163c0 5 14 75 23 115c-20 -27 -46 -63 -57 -73c-12 -12 -36 -34 -67 -34c-38 0 -64 15 -84 24c-34 16 -75 61 -75 116s24 179 101 285c31 43 47 40 67 40s52 -13 65 -19c29 -6 81 -25 101 -40c15 4 32 8 47 8
c29 0 165 -14 165 -40c0 -12 -18 -14 -26 -23c-7 -9 -35 -61 -44 -93c-8 -30 -29 -116 -45 -203zM292 591c28 0 46 -12 60 -28c1 -4 -5 -25 -11 -35c-6 -8 -17 -18 -33 -18c-37 -2 -65 17 -71 37c0 8 6 44 55 44z" />
    <glyph glyph-name="gcommaaccent" unicode="&#x123;" horiz-adv-x="562" 
d="M320 327c10 46 -51 68 -61 68c-13 0 -48 0 -91 -57c-46 -59 -73 -197 -73 -212c0 -16 6 -97 44 -97s104 102 117 129c13 26 52 127 64 169zM431 48c-6 -57 -16 -217 -52 -238c-38 -23 -96 -53 -139 -53c-44 0 -164 21 -229 85c-13 12 -13 42 10 42s43 -10 51 -15
c6 -5 72 -49 98 -49s33 2 33 2c20 26 48 91 57 163c0 5 14 75 23 115c-20 -27 -46 -63 -57 -73c-12 -12 -36 -34 -67 -34c-38 0 -64 15 -84 24c-34 16 -75 61 -75 116s24 179 101 285c31 43 47 40 67 40s52 -13 65 -19c29 -6 81 -25 101 -40c15 4 32 8 47 8
c29 0 165 -14 165 -40c0 -12 -18 -14 -26 -23c-7 -9 -35 -61 -44 -93c-8 -30 -29 -116 -45 -203zM294 512c-2 -3 -8 -5 -11 -5c-31 0 -64 17 -83 29c-3 2 -6 5 -4 11c3 7 27 49 43 72c15 22 46 67 53 67c5 2 34 -5 42 -7c13 -4 32 -16 32 -17c3 -3 -2 -14 -5 -19
c-12 -24 -53 -107 -67 -131z" />
    <glyph glyph-name="hcircumflex" unicode="&#x125;" horiz-adv-x="546" 
d="M35 665c0 10 43 15 60 17c14 1 58 10 64 10c9 0 48 -8 52 -12c3 -3 3 -11 6 -13s42 -6 39 -38c-7 -32 -103 -405 -108 -462c5 -2 11 2 11 2c3 14 70 188 116 234c77 11 69 7 143 -4c15 -2 58 -4 73 -21c3 -21 -23 -64 -32 -85c-34 -73 -43 -128 -49 -166
c-6 -36 6 -72 43 -72c32 0 67 9 81 12c20 4 52 9 57 0c4 -8 -3 -13 -13 -17c-9 -4 -84 -31 -148 -31c-67 0 -161 23 -161 131c0 27 16 141 29 173c0 1 0 2 -1 2c-22 -13 -71 -118 -90 -182c-22 -65 -40 -133 -48 -154c-3 -10 -9 -21 -40 -21c-53 0 -99 26 -116 26
c-3 27 -3 73 -3 109c0 34 14 173 26 235c9 65 23 289 20 306c-3 14 -11 10 -11 21zM156 846c11 0 37 -15 72 -40c34 -23 67 -46 84 -55c8 -5 18 -12 18 -16c0 -7 -16 -30 -36 -30c-31 12 -86 37 -139 63c-56 -25 -118 -53 -149 -65c-18 -3 -35 25 -35 32c0 4 11 11 18 16
c17 9 52 32 89 54c38 23 67 41 78 41z" />
    <glyph glyph-name="igrave" unicode="&#xec;" horiz-adv-x="312" 
d="M38 392c6 3 16 9 20 9c9 0 18 -4 45 -4c13 0 38 2 45 0c25 -4 59 -23 71 -24c-16 -38 -52 -175 -52 -238s26 -85 61 -85c34 0 92 26 104 30c8 3 18 4 23 -2c3 -6 6 -13 -3 -21c-8 -6 -63 -50 -188 -50c-126 0 -164 73 -164 145s32 213 38 240zM46 607
c35 -19 131 -89 165 -108c8 -5 18 -12 18 -16c0 -7 -9 -34 -29 -34c-47 19 -186 80 -224 105c-7 5 -7 9 -5 12c8 19 27 30 58 42c5 1 11 1 17 -1z" />
    <glyph glyph-name="iacute" unicode="&#xed;" horiz-adv-x="312" 
d="M38 392c6 3 16 9 20 9c9 0 18 -4 45 -4c13 0 38 2 45 0c25 -4 59 -23 71 -24c-16 -38 -52 -175 -52 -238s26 -85 61 -85c34 0 92 26 104 30c8 3 18 4 23 -2c3 -6 6 -13 -3 -21c-8 -6 -63 -50 -188 -50c-126 0 -164 73 -164 145s32 213 38 240zM239 615c6 2 12 2 17 1
c30 -12 36 -26 44 -45c1 -3 1 -7 -5 -12c-38 -25 -177 -83 -225 -102c-20 0 -29 27 -29 34c0 4 11 11 19 16c33 19 143 89 179 108z" />
    <glyph glyph-name="icircumflex" unicode="&#xee;" horiz-adv-x="312" 
d="M38 392c6 3 16 9 20 9c9 0 18 -4 45 -4c13 0 38 2 45 0c25 -4 59 -23 71 -24c-16 -38 -52 -175 -52 -238s26 -85 61 -85c34 0 92 26 104 30c8 3 18 4 23 -2c3 -6 6 -13 -3 -21c-8 -6 -63 -50 -188 -50c-126 0 -164 73 -164 145s32 213 38 240zM156 590
c11 0 37 -15 72 -40c34 -23 67 -46 84 -55c8 -5 18 -12 18 -16c0 -7 -16 -30 -36 -30c-31 12 -86 37 -139 63c-56 -25 -118 -53 -149 -65c-18 -3 -35 25 -35 32c0 4 11 11 18 16c17 9 52 32 89 54c38 23 67 41 78 41z" />
    <glyph glyph-name="itilde" unicode="&#x129;" horiz-adv-x="312" 
d="M38 392c6 3 16 9 20 9c9 0 18 -4 45 -4c13 0 38 2 45 0c25 -4 59 -23 71 -24c-16 -38 -52 -175 -52 -238s26 -85 61 -85c34 0 92 26 104 30c8 3 18 4 23 -2c3 -6 6 -13 -3 -21c-8 -6 -63 -50 -188 -50c-126 0 -164 73 -164 145s32 213 38 240zM-2 476c-22 -7 -16 54 4 66
c169 97 157 -89 318 27c10 8 26 -1 26 -1c3 -4 3 -9 3 -14c0 -42 -86 -84 -139 -84c-104 0 -100 89 -212 6z" />
    <glyph glyph-name="idieresis" unicode="&#xef;" horiz-adv-x="312" 
d="M38 392c6 3 16 9 20 9c9 0 18 -4 45 -4c13 0 38 2 45 0c25 -4 59 -23 71 -24c-16 -38 -52 -175 -52 -238s26 -85 61 -85c34 0 92 26 104 30c8 3 18 4 23 -2c3 -6 6 -13 -3 -21c-8 -6 -63 -50 -188 -50c-126 0 -164 73 -164 145s32 213 38 240zM57 546c27 0 46 -12 59 -28
c2 -4 -4 -25 -10 -35c-7 -8 -17 -18 -34 -18c-37 -2 -64 17 -70 37c0 8 6 44 55 44zM243 459c-27 0 -38 11 -52 27c-1 4 -7 22 3 34c8 8 25 19 42 19c36 2 70 -15 70 -37c0 -8 -14 -43 -63 -43z" />
    <glyph glyph-name="imacron" unicode="&#x12b;" horiz-adv-x="312" 
d="M38 392c6 3 16 9 20 9c9 0 18 -4 45 -4c13 0 38 2 45 0c25 -4 59 -23 71 -24c-16 -38 -52 -175 -52 -238s26 -85 61 -85c34 0 92 26 104 30c8 3 18 4 23 -2c3 -6 6 -13 -3 -21c-8 -6 -63 -50 -188 -50c-126 0 -164 73 -164 145s32 213 38 240zM20 536c44 -2 203 0 246 -3
c12 -1 35 -19 38 -22c7 -6 22 -32 5 -39c-55 -2 -240 -6 -294 0c-10 2 -13 6 -13 9c-11 18 -13 28 3 49c3 4 7 6 15 6z" />
    <glyph glyph-name="ibreve" unicode="&#x12d;" horiz-adv-x="312" 
d="M38 392c6 3 16 9 20 9c9 0 18 -4 45 -4c13 0 38 2 45 0c25 -4 59 -23 71 -24c-16 -38 -52 -175 -52 -238s26 -85 61 -85c34 0 92 26 104 30c8 3 18 4 23 -2c3 -6 6 -13 -3 -21c-8 -6 -63 -50 -188 -50c-126 0 -164 73 -164 145s32 213 38 240zM141 464
c-65 0 -172 58 -172 81c0 7 17 30 37 30c31 -12 72 -41 139 -42c68 -1 118 32 149 44c18 3 35 -25 35 -32c0 -22 -96 -81 -188 -81z" />
    <glyph glyph-name="iogonek" unicode="&#x12f;" horiz-adv-x="312" 
d="M239 -78c6 3 6 -7 6 -10c-14 -32 -57 -57 -103 -50c-41 10 -75 62 0 145c-108 8 -142 77 -142 145c0 72 32 213 38 240c6 3 16 9 20 9c9 0 18 -4 45 -4c13 0 38 2 45 0c25 -4 59 -23 71 -24c-16 -38 -52 -175 -52 -238s26 -85 61 -85c34 0 92 26 104 30c8 3 18 4 23 -2
c3 -6 6 -13 -3 -21c-8 -6 -60 -47 -175 -50c-53 -92 -16 -121 62 -85zM50 620c0 28 37 68 88 68c29 0 69 -13 81 -21c14 -9 41 -53 29 -75c-20 -34 -90 -33 -123 -31c-26 2 -75 24 -75 59z" />
    <glyph glyph-name="jcircumflex" unicode="&#x135;" horiz-adv-x="298" 
d="M43 397c0 3 5 6 15 9c-1 7 3 11 11 12c44 2 69 -10 81 -15c23 -10 96 -23 96 -36c0 -6 -23 -10 -26 -34c-3 -14 -29 -228 -35 -285s-17 -217 -52 -238c-38 -23 -96 -53 -139 -53c-44 0 -164 21 -230 85c-12 12 -12 42 11 42s43 -10 51 -15c6 -5 71 -49 97 -49
c27 0 34 2 34 2c20 26 48 91 57 163c12 72 32 344 29 412zM156 590c11 0 37 -15 72 -40c34 -23 67 -46 84 -55c8 -5 18 -12 18 -16c0 -7 -16 -30 -36 -30c-31 12 -86 37 -139 63c-56 -25 -118 -53 -149 -65c-18 -3 -35 25 -35 32c0 4 11 11 18 16c17 9 52 32 89 54
c38 23 67 41 78 41z" />
    <glyph glyph-name="kcommaaccent" unicode="&#x137;" horiz-adv-x="607" 
d="M101 711c6 0 26 -2 32 0c3 2 11 13 32 13c16 0 159 -13 159 -38c0 -11 0 -28 -13 -57c-40 -92 -65 -184 -88 -274c14 18 72 99 124 99c19 0 54 -7 65 -13c62 -16 84 -63 84 -103c0 -38 -69 -116 -146 -144c46 -57 107 -139 213 -139c23 0 55 8 64 12c8 3 13 2 17 1
c6 -2 9 -5 9 -9c0 -2 -35 -49 -186 -49c-37 0 -94 7 -149 38c-58 32 -116 78 -136 93c-6 -31 -6 -99 -6 -110c0 -12 6 -33 3 -37c-26 5 -35 -6 -61 -5c-35 2 -72 13 -90 24c-5 14 -8 33 -8 50c0 162 37 323 69 481c7 36 18 133 18 140c0 8 -3 21 -6 27zM199 217
c81 19 194 102 210 163c0 6 3 23 0 29c-5 4 -14 9 -23 9c-46 0 -123 -82 -138 -106c-11 -17 -41 -70 -49 -95zM291 -35c1 3 7 5 10 5c31 0 65 -17 83 -29c3 -2 6 -5 5 -11c-3 -7 -28 -49 -43 -72c-16 -22 -46 -67 -54 -67c-4 -2 -33 5 -41 7c-14 4 -32 16 -32 17
c-3 3 1 14 4 19c13 24 54 107 68 131z" />
    <glyph glyph-name="lacute" unicode="&#x13a;" horiz-adv-x="393" 
d="M93 688c8 9 14 15 29 15c11 2 49 6 69 4c23 -2 132 -31 152 -33c20 -3 43 -15 49 -26c6 -12 12 -40 12 -57c0 -140 -155 -386 -277 -492c0 -29 12 -76 84 -76c87 0 193 55 210 61c4 1 9 1 12 -2c5 -5 6 -14 6 -16c-57 -41 -139 -76 -225 -76c-200 0 -237 127 -237 232
c0 169 55 357 116 466zM127 160c110 113 200 450 167 450c-55 0 -167 -342 -167 -450zM369 883c6 2 12 2 17 1c30 -12 36 -26 44 -45c1 -3 1 -7 -5 -12c-38 -25 -177 -83 -225 -102c-19 0 -29 27 -29 34c0 4 11 11 19 16c33 19 144 89 179 108z" />
    <glyph glyph-name="lcaron" unicode="&#x13e;" horiz-adv-x="393" 
d="M93 688c8 9 14 15 29 15c11 2 49 6 69 4c23 -2 132 -31 152 -33c20 -3 43 -15 49 -26c6 -12 12 -40 12 -57c0 -140 -155 -386 -277 -492c0 -29 12 -76 84 -76c87 0 193 55 210 61c4 1 9 1 12 -2c5 -5 6 -14 6 -16c-57 -41 -139 -76 -225 -76c-200 0 -237 127 -237 232
c0 169 55 357 116 466zM127 160c110 113 200 450 167 450c-55 0 -167 -342 -167 -450zM473 689c1 3 9 7 12 7c32 4 58 -11 80 -22c4 -2 7 -5 9 -10c4 -20 -5 -55 -17 -80c-9 -18 -37 -76 -46 -78c-3 -2 -29 5 -38 7c-8 2 -32 10 -32 12c-2 2 -5 12 0 17c23 31 33 120 32 147
z" />
    <glyph glyph-name="lcommaaccent" unicode="&#x13c;" horiz-adv-x="393" 
d="M93 688c8 9 14 15 29 15c11 2 49 6 69 4c23 -2 132 -31 152 -33c20 -3 43 -15 49 -26c6 -12 12 -40 12 -57c0 -140 -155 -386 -277 -492c0 -29 12 -76 84 -76c87 0 193 55 210 61c4 1 9 1 12 -2c5 -5 6 -14 6 -16c-57 -41 -139 -76 -225 -76c-200 0 -237 127 -237 232
c0 169 55 357 116 466zM127 160c110 113 200 450 167 450c-55 0 -167 -342 -167 -450zM185 -35c2 3 8 5 11 5c30 0 64 -17 82 -29c4 -2 7 -5 5 -11c-3 -7 -27 -49 -43 -72c-15 -22 -46 -67 -53 -67c-5 -2 -34 5 -42 7c-13 4 -32 16 -32 17c-3 3 2 14 5 19
c12 24 53 107 67 131z" />
    <glyph glyph-name="ldot" unicode="&#x140;" horiz-adv-x="393" 
d="M93 688c8 9 14 15 29 15c11 2 49 6 69 4c23 -2 132 -31 152 -33c20 -3 43 -15 49 -26c6 -12 12 -40 12 -57c0 -140 -155 -386 -277 -492c0 -29 12 -76 84 -76c87 0 193 55 210 61c4 1 9 1 12 -2c5 -5 6 -14 6 -16c-57 -41 -139 -76 -225 -76c-200 0 -237 127 -237 232
c0 169 55 357 116 466zM127 160c110 113 200 450 167 450c-55 0 -167 -342 -167 -450zM421 403c27 0 46 -12 59 -28c2 -4 -4 -25 -10 -35c-6 -8 -17 -18 -34 -18c-37 -2 -64 17 -70 37c0 8 6 44 55 44z" />
    <glyph glyph-name="nacute" unicode="&#x144;" horiz-adv-x="591" 
d="M378 626c6 2 12 2 17 1c30 -12 36 -26 44 -45c2 -3 2 -7 -4 -12c-39 -25 -178 -83 -225 -102c-20 0 -29 27 -29 34c0 4 10 11 18 16c34 19 144 89 179 108zM46 264c-11 6 -40 15 -46 21c0 38 8 84 23 131c1 6 26 15 32 17c3 2 49 -2 58 -2c29 4 90 1 90 -25
c0 -9 -7 -18 -9 -26c-3 -11 -17 -205 -20 -249c22 56 43 112 68 167c14 29 58 114 75 114c29 -2 128 -17 151 -32c14 -13 35 -21 35 -29c0 -7 -50 -127 -50 -207c0 -81 35 -81 58 -81c21 0 66 18 80 23c7 3 24 8 29 8c12 0 16 -7 15 -12c-2 -4 -57 -59 -173 -59
c-132 0 -161 93 -161 156c0 48 11 103 16 119l-6 -2c-14 -19 -78 -165 -91 -209c-10 -43 -13 -81 -17 -83c-6 -3 -13 -5 -20 -5c-15 0 -32 6 -59 10c-18 -1 -69 19 -75 23c0 2 -6 25 -8 34c0 10 -3 147 5 198z" />
    <glyph glyph-name="ncaron" unicode="&#x148;" horiz-adv-x="591" 
d="M304 476c-10 0 -36 6 -71 31c-34 23 -68 46 -85 55c-7 5 -18 12 -18 16c0 7 17 30 37 30c30 -12 85 -37 139 -63c55 25 118 53 148 65c19 3 36 -25 36 -32c0 -4 -11 -11 -19 -16c-17 -9 -52 -32 -89 -54c-38 -23 -67 -32 -78 -32zM46 264c-11 6 -40 15 -46 21
c0 38 8 84 23 131c1 6 26 15 32 17c3 2 49 -2 58 -2c29 4 90 1 90 -25c0 -9 -7 -18 -9 -26c-3 -11 -17 -205 -20 -249c22 56 43 112 68 167c14 29 58 114 75 114c29 -2 128 -17 151 -32c14 -13 35 -21 35 -29c0 -7 -50 -127 -50 -207c0 -81 35 -81 58 -81c21 0 66 18 80 23
c7 3 24 8 29 8c12 0 16 -7 15 -12c-2 -4 -57 -59 -173 -59c-132 0 -161 93 -161 156c0 48 11 103 16 119l-6 -2c-14 -19 -78 -165 -91 -209c-10 -43 -13 -81 -17 -83c-6 -3 -13 -5 -20 -5c-15 0 -32 6 -59 10c-18 -1 -69 19 -75 23c0 2 -6 25 -8 34c0 10 -3 147 5 198z" />
    <glyph glyph-name="ntilde" unicode="&#xf1;" horiz-adv-x="591" 
d="M147 487c-23 -7 -17 54 3 66c170 97 158 -89 318 27c11 8 26 -1 26 -1c3 -4 3 -9 3 -14c0 -42 -85 -84 -139 -84c-104 0 -99 89 -211 6zM46 264c-11 6 -40 15 -46 21c0 38 8 84 23 131c1 6 26 15 32 17c3 2 49 -2 58 -2c29 4 90 1 90 -25c0 -9 -7 -18 -9 -26
c-3 -11 -17 -205 -20 -249c22 56 43 112 68 167c14 29 58 114 75 114c29 -2 128 -17 151 -32c14 -13 35 -21 35 -29c0 -7 -50 -127 -50 -207c0 -81 35 -81 58 -81c21 0 66 18 80 23c7 3 24 8 29 8c12 0 16 -7 15 -12c-2 -4 -57 -59 -173 -59c-132 0 -161 93 -161 156
c0 48 11 103 16 119l-6 -2c-14 -19 -78 -165 -91 -209c-10 -43 -13 -81 -17 -83c-6 -3 -13 -5 -20 -5c-15 0 -32 6 -59 10c-18 -1 -69 19 -75 23c0 2 -6 25 -8 34c0 10 -3 147 5 198z" />
    <glyph glyph-name="ncommaaccent" unicode="&#x146;" horiz-adv-x="591" 
d="M283 -35c2 3 8 5 11 5c30 0 64 -17 82 -29c3 -2 6 -5 5 -11c-3 -7 -28 -49 -43 -72c-15 -22 -46 -67 -53 -67c-5 -2 -34 5 -42 7c-14 4 -32 16 -32 17c-3 3 2 14 5 19c12 24 53 107 67 131zM46 264c-11 6 -40 15 -46 21c0 38 8 84 23 131c1 6 26 15 32 17
c3 2 49 -2 58 -2c29 4 90 1 90 -25c0 -9 -7 -18 -9 -26c-3 -11 -17 -205 -20 -249c22 56 43 112 68 167c14 29 58 114 75 114c29 -2 128 -17 151 -32c14 -13 35 -21 35 -29c0 -7 -50 -127 -50 -207c0 -81 35 -81 58 -81c21 0 66 18 80 23c7 3 24 8 29 8c12 0 16 -7 15 -12
c-2 -4 -57 -59 -173 -59c-132 0 -161 93 -161 156c0 48 11 103 16 119l-6 -2c-14 -19 -78 -165 -91 -209c-10 -43 -13 -81 -17 -83c-6 -3 -13 -5 -20 -5c-15 0 -32 6 -59 10c-18 -1 -69 19 -75 23c0 2 -6 25 -8 34c0 10 -3 147 5 198z" />
    <glyph glyph-name="ograve" unicode="&#xf2;" horiz-adv-x="494" 
d="M61 452c15 1 23 11 37 11c24 0 93 -7 115 -18c29 -2 35 -4 39 -4c11 -6 43 -24 42 -36c32 -2 84 -20 102 -42c28 -35 37 -101 29 -156c26 0 66 20 84 53c2 2 8 1 11 -1c8 -4 12 -6 12 -12c-3 -17 -23 -74 -113 -78c-12 -45 -44 -152 -102 -175c-22 -4 -63 -8 -88 -8
c-168 0 -229 102 -229 194c0 138 60 237 61 272zM349 213c14 105 -9 163 -60 163c-9 0 -15 -10 -15 -34c0 -51 20 -108 75 -129zM222 327c-35 -61 -49 -134 -49 -188c0 -30 8 -111 63 -111c59 0 102 121 104 145c-117 42 -120 134 -118 154zM208 666
c35 -19 132 -89 165 -108c8 -5 19 -12 19 -16c0 -7 -10 -34 -29 -34c-48 19 -187 80 -225 105c-6 5 -6 9 -5 12c8 19 28 30 58 42c5 1 11 1 17 -1z" />
    <glyph glyph-name="oacute" unicode="&#xf3;" horiz-adv-x="494" 
d="M61 452c15 1 23 11 37 11c24 0 93 -7 115 -18c29 -2 35 -4 39 -4c11 -6 43 -24 42 -36c32 -2 84 -20 102 -42c28 -35 37 -101 29 -156c26 0 66 20 84 53c2 2 8 1 11 -1c8 -4 12 -6 12 -12c-3 -17 -23 -74 -113 -78c-12 -45 -44 -152 -102 -175c-22 -4 -63 -8 -88 -8
c-168 0 -229 102 -229 194c0 138 60 237 61 272zM349 213c14 105 -9 163 -60 163c-9 0 -15 -10 -15 -34c0 -51 20 -108 75 -129zM222 327c-35 -61 -49 -134 -49 -188c0 -30 8 -111 63 -111c59 0 102 121 104 145c-117 42 -120 134 -118 154zM329 666c6 2 12 2 17 1
c30 -12 36 -26 44 -45c2 -3 2 -7 -4 -12c-39 -25 -178 -83 -225 -102c-20 0 -29 27 -29 34c0 4 10 11 18 16c34 19 144 89 179 108z" />
    <glyph glyph-name="ocircumflex" unicode="&#xf4;" horiz-adv-x="494" 
d="M61 452c15 1 23 11 37 11c24 0 93 -7 115 -18c29 -2 35 -4 39 -4c11 -6 43 -24 42 -36c32 -2 84 -20 102 -42c28 -35 37 -101 29 -156c26 0 66 20 84 53c2 2 8 1 11 -1c8 -4 12 -6 12 -12c-3 -17 -23 -74 -113 -78c-12 -45 -44 -152 -102 -175c-22 -4 -63 -8 -88 -8
c-168 0 -229 102 -229 194c0 138 60 237 61 272zM349 213c14 105 -9 163 -60 163c-9 0 -15 -10 -15 -34c0 -51 20 -108 75 -129zM222 327c-35 -61 -49 -134 -49 -188c0 -30 8 -111 63 -111c59 0 102 121 104 145c-117 42 -120 134 -118 154zM268 653c10 0 36 -15 72 -40
c33 -23 67 -46 84 -55c7 -5 18 -12 18 -16c0 -7 -17 -30 -37 -30c-30 12 -85 37 -139 63c-55 -25 -118 -53 -148 -65c-19 -3 -35 25 -35 32c0 4 10 11 18 16c17 9 52 32 89 54c38 23 67 41 78 41z" />
    <glyph glyph-name="otilde" unicode="&#xf5;" horiz-adv-x="494" 
d="M61 452c15 1 23 11 37 11c24 0 93 -7 115 -18c29 -2 35 -4 39 -4c11 -6 43 -24 42 -36c32 -2 84 -20 102 -42c28 -35 37 -101 29 -156c26 0 66 20 84 53c2 2 8 1 11 -1c8 -4 12 -6 12 -12c-3 -17 -23 -74 -113 -78c-12 -45 -44 -152 -102 -175c-22 -4 -63 -8 -88 -8
c-168 0 -229 102 -229 194c0 138 60 237 61 272zM349 213c14 105 -9 163 -60 163c-9 0 -15 -10 -15 -34c0 -51 20 -108 75 -129zM222 327c-35 -61 -49 -134 -49 -188c0 -30 8 -111 63 -111c59 0 102 121 104 145c-117 42 -120 134 -118 154zM98 527c-23 -7 -17 54 3 66
c170 97 158 -89 318 27c11 8 26 -1 26 -1c3 -4 3 -9 3 -14c0 -42 -85 -84 -139 -84c-104 0 -99 89 -211 6z" />
    <glyph glyph-name="odieresis" unicode="&#xf6;" horiz-adv-x="494" 
d="M61 452c15 1 23 11 37 11c24 0 93 -7 115 -18c29 -2 35 -4 39 -4c11 -6 43 -24 42 -36c32 -2 84 -20 102 -42c28 -35 37 -101 29 -156c26 0 66 20 84 53c2 2 8 1 11 -1c8 -4 12 -6 12 -12c-3 -17 -23 -74 -113 -78c-12 -45 -44 -152 -102 -175c-22 -4 -63 -8 -88 -8
c-168 0 -229 102 -229 194c0 138 60 237 61 272zM349 213c14 105 -9 163 -60 163c-9 0 -15 -10 -15 -34c0 -51 20 -108 75 -129zM222 327c-35 -61 -49 -134 -49 -188c0 -30 8 -111 63 -111c59 0 102 121 104 145c-117 42 -120 134 -118 154zM165 614c28 0 46 -12 60 -28
c1 -4 -5 -25 -11 -35c-6 -8 -17 -18 -33 -18c-37 -2 -65 17 -71 37c0 8 6 44 55 44zM352 527c-28 0 -38 11 -52 27c-2 4 -8 22 3 34c8 8 24 19 41 19c37 2 71 -15 71 -37c0 -8 -14 -43 -63 -43z" />
    <glyph glyph-name="omacron" unicode="&#x14d;" horiz-adv-x="494" 
d="M61 452c15 1 23 11 37 11c24 0 93 -7 115 -18c29 -2 35 -4 39 -4c11 -6 43 -24 42 -36c32 -2 84 -20 102 -42c28 -35 37 -101 29 -156c26 0 66 20 84 53c2 2 8 1 11 -1c8 -4 12 -6 12 -12c-3 -17 -23 -74 -113 -78c-12 -45 -44 -152 -102 -175c-22 -4 -63 -8 -88 -8
c-168 0 -229 102 -229 194c0 138 60 237 61 272zM349 213c14 105 -9 163 -60 163c-9 0 -15 -10 -15 -34c0 -51 20 -108 75 -129zM222 327c-35 -61 -49 -134 -49 -188c0 -30 8 -111 63 -111c59 0 102 121 104 145c-117 42 -120 134 -118 154zM124 595c44 -2 203 0 246 -3
c12 -1 35 -19 39 -22c6 -6 21 -32 4 -39c-55 -2 -240 -6 -294 0c-10 2 -13 6 -13 9c-11 18 -13 28 3 49c3 4 7 6 15 6z" />
    <glyph glyph-name="obreve" unicode="&#x14f;" horiz-adv-x="494" 
d="M61 452c15 1 23 11 37 11c24 0 93 -7 115 -18c29 -2 35 -4 39 -4c11 -6 43 -24 42 -36c32 -2 84 -20 102 -42c28 -35 37 -101 29 -156c26 0 66 20 84 53c2 2 8 1 11 -1c8 -4 12 -6 12 -12c-3 -17 -23 -74 -113 -78c-12 -45 -44 -152 -102 -175c-22 -4 -63 -8 -88 -8
c-168 0 -229 102 -229 194c0 138 60 237 61 272zM349 213c14 105 -9 163 -60 163c-9 0 -15 -10 -15 -34c0 -51 20 -108 75 -129zM222 327c-35 -61 -49 -134 -49 -188c0 -30 8 -111 63 -111c59 0 102 121 104 145c-117 42 -120 134 -118 154zM254 517c-64 0 -171 58 -171 81
c0 7 16 30 36 30c31 -12 72 -41 140 -42c67 -1 117 32 148 44c18 3 35 -25 35 -32c0 -22 -96 -81 -188 -81z" />
    <glyph glyph-name="ohungarumlaut" unicode="&#x151;" horiz-adv-x="494" 
d="M61 452c15 1 23 11 37 11c24 0 93 -7 115 -18c29 -2 35 -4 39 -4c11 -6 43 -24 42 -36c32 -2 84 -20 102 -42c28 -35 37 -101 29 -156c26 0 66 20 84 53c2 2 8 1 11 -1c8 -4 12 -6 12 -12c-3 -17 -23 -74 -113 -78c-12 -45 -44 -152 -102 -175c-22 -4 -63 -8 -88 -8
c-168 0 -229 102 -229 194c0 138 60 237 61 272zM349 213c14 105 -9 163 -60 163c-9 0 -15 -10 -15 -34c0 -51 20 -108 75 -129zM222 327c-35 -61 -49 -134 -49 -188c0 -30 8 -111 63 -111c59 0 102 121 104 145c-117 42 -120 134 -118 154zM194 654c5 2 11 4 16 4
c36 -5 41 -3 59 -20c3 -2 5 -6 2 -12c-23 -32 -86 -93 -121 -121c-20 -5 -38 6 -41 13c-2 3 9 17 12 23c21 35 49 89 73 113zM343 661c24 12 61 -7 72 -20c3 -2 4 -6 0 -12c-28 -30 -97 -89 -135 -115c-20 -4 -35 8 -38 15c-2 3 10 17 15 23c25 33 58 85 86 109z" />
    <glyph glyph-name="oslashacute" unicode="&#x1ff;" horiz-adv-x="502" 
d="M353 404l60 65c2 5 26 8 29 1l15 -37l-61 -68c9 -23 14 -51 14 -81c0 -79 -26 -171 -49 -212c-29 -48 -72 -71 -142 -71c-29 0 -63 4 -97 13c-13 -19 -27 -40 -42 -63c-7 -6 -22 -6 -23 -6c-23 15 -34 16 -23 41l33 50c-50 26 -90 68 -90 133c0 134 89 296 119 296
c7 0 10 -3 10 -5c6 2 19 5 32 5c27 0 150 -40 177 -55c14 -3 28 -4 38 -6zM216 36c95 0 105 181 105 234v7c-59 -70 -105 -128 -160 -206c10 -21 29 -35 55 -35zM263 374c-49 0 -110 -122 -115 -220c49 69 94 124 156 195c-9 14 -21 25 -41 25zM334 666c6 2 12 2 16 1
c31 -12 37 -26 45 -45c1 -3 1 -7 -5 -12c-38 -25 -177 -83 -225 -102c-20 0 -29 27 -29 34c0 4 11 11 19 16c33 19 143 89 179 108z" />
    <glyph glyph-name="racute" unicode="&#x155;" horiz-adv-x="435" 
d="M0 484c15 0 67 -13 76 -17c10 -4 8 -11 8 -17c0 -4 -8 -47 -11 -55c30 2 62 13 88 29c56 -1 108 -6 148 -19c17 -4 52 -23 52 -33c0 -9 -90 -163 -90 -269c0 -61 49 -57 58 -57c26 0 90 19 125 34c3 2 10 3 13 1s9 -6 12 -10c1 -3 0 -5 -5 -8c-20 -9 -93 -55 -189 -55
c-144 0 -166 77 -166 150c0 41 26 159 45 199c-22 -6 -68 -13 -88 -13c-29 0 -88 10 -99 34c-15 36 -1 63 3 95c2 6 11 11 20 11zM300 666c6 2 12 2 17 1c30 -12 36 -26 44 -45c2 -3 2 -7 -5 -12c-38 -25 -177 -83 -224 -102c-20 0 -29 27 -29 34c0 4 10 11 18 16
c34 19 144 89 179 108z" />
    <glyph glyph-name="rcaron" unicode="&#x159;" horiz-adv-x="435" 
d="M0 484c15 0 67 -13 76 -17c10 -4 8 -11 8 -17c0 -4 -8 -47 -11 -55c30 2 62 13 88 29c56 -1 108 -6 148 -19c17 -4 52 -23 52 -33c0 -9 -90 -163 -90 -269c0 -61 49 -57 58 -57c26 0 90 19 125 34c3 2 10 3 13 1s9 -6 12 -10c1 -3 0 -5 -5 -8c-20 -9 -93 -55 -189 -55
c-144 0 -166 77 -166 150c0 41 26 159 45 199c-22 -6 -68 -13 -88 -13c-29 0 -88 10 -99 34c-15 36 -1 63 3 95c2 6 11 11 20 11zM226 516c-10 0 -36 6 -71 31c-34 23 -68 46 -85 55c-7 5 -18 12 -18 16c0 7 17 30 37 30c30 -12 85 -37 139 -63c55 25 118 53 148 65
c19 3 36 -25 36 -32c0 -4 -11 -11 -19 -16c-17 -9 -52 -32 -89 -54c-38 -23 -67 -32 -78 -32z" />
    <glyph glyph-name="rcommaaccent" unicode="&#x157;" horiz-adv-x="435" 
d="M0 484c15 0 67 -13 76 -17c10 -4 8 -11 8 -17c0 -4 -8 -47 -11 -55c30 2 62 13 88 29c56 -1 108 -6 148 -19c17 -4 52 -23 52 -33c0 -9 -90 -163 -90 -269c0 -61 49 -57 58 -57c26 0 90 19 125 34c3 2 10 3 13 1s9 -6 12 -10c1 -3 0 -5 -5 -8c-20 -9 -93 -55 -189 -55
c-144 0 -166 77 -166 150c0 41 26 159 45 199c-22 -6 -68 -13 -88 -13c-29 0 -88 10 -99 34c-15 36 -1 63 3 95c2 6 11 11 20 11zM205 -35c2 3 8 5 11 5c30 0 64 -17 82 -29c3 -2 6 -5 5 -11c-3 -7 -28 -49 -43 -72c-15 -22 -46 -67 -53 -67c-5 -2 -34 5 -42 7
c-14 4 -32 16 -32 17c-3 3 2 14 5 19c12 24 53 107 67 131z" />
    <glyph glyph-name="sacute" unicode="&#x15b;" horiz-adv-x="398" 
d="M289 666c6 2 12 2 17 1c31 -12 37 -26 44 -45c2 -3 2 -7 -4 -12c-38 -25 -178 -83 -225 -102c-20 0 -29 27 -29 34c0 4 11 11 18 16c34 19 144 89 179 108zM11 329c8 34 12 68 17 102c1 6 36 4 39 4c14 0 42 15 65 15c42 0 122 -30 157 -55c-9 -13 -26 -12 -29 -15
c-6 -6 -27 -29 -27 -67c0 -85 119 -157 119 -228c0 -69 -109 -106 -197 -106c-56 0 -149 43 -201 82c2 13 15 26 26 21c43 -22 123 -54 164 -54c27 0 47 11 47 42c0 87 -95 126 -127 236c-24 0 -48 13 -53 23z" />
    <glyph glyph-name="scircumflex" unicode="&#x15d;" horiz-adv-x="398" 
d="M170 632c11 0 37 -15 72 -40c33 -23 67 -46 84 -55c8 -5 18 -12 18 -16c0 -7 -17 -30 -36 -30c-31 12 -86 37 -140 63c-55 -25 -118 -53 -148 -65c-18 -3 -35 25 -35 32c0 4 10 11 18 16c17 9 52 32 89 54c38 23 67 41 78 41zM11 329c8 34 12 68 17 102c1 6 36 4 39 4
c14 0 42 15 65 15c42 0 122 -30 157 -55c-9 -13 -26 -12 -29 -15c-6 -6 -27 -29 -27 -67c0 -85 119 -157 119 -228c0 -69 -109 -106 -197 -106c-56 0 -149 43 -201 82c2 13 15 26 26 21c43 -22 123 -54 164 -54c27 0 47 11 47 42c0 87 -95 126 -127 236c-24 0 -48 13 -53 23
z" />
    <glyph glyph-name="scaron" unicode="&#x161;" horiz-adv-x="398" 
d="M159 495c-11 0 -37 6 -72 31c-33 23 -67 46 -84 55c-8 5 -18 12 -18 16c0 7 17 30 36 30c31 -12 86 -37 140 -63c55 25 117 53 148 65c18 3 35 -25 35 -32c0 -4 -10 -11 -18 -16c-17 -9 -52 -32 -89 -54c-38 -23 -67 -32 -78 -32zM11 329c8 34 12 68 17 102
c1 6 36 4 39 4c14 0 42 15 65 15c42 0 122 -30 157 -55c-9 -13 -26 -12 -29 -15c-6 -6 -27 -29 -27 -67c0 -85 119 -157 119 -228c0 -69 -109 -106 -197 -106c-56 0 -149 43 -201 82c2 13 15 26 26 21c43 -22 123 -54 164 -54c27 0 47 11 47 42c0 87 -95 126 -127 236
c-24 0 -48 13 -53 23z" />
    <glyph glyph-name="scedilla" unicode="&#x15f;" horiz-adv-x="398" 
d="M142 -51c-1 4 9 6 14 6c35 0 63 -8 81 -23c6 -5 6 -17 6 -24c-3 -29 -23 -95 -162 -102c-9 1 -40 16 -11 22c91 20 85 69 72 121zM11 329c8 34 12 68 17 102c1 6 36 4 39 4c14 0 42 15 65 15c42 0 122 -30 157 -55c-9 -13 -26 -12 -29 -15c-6 -6 -27 -29 -27 -67
c0 -85 119 -157 119 -228c0 -69 -109 -106 -197 -106c-56 0 -149 43 -201 82c2 13 15 26 26 21c43 -22 123 -54 164 -54c27 0 47 11 47 42c0 87 -95 126 -127 236c-24 0 -48 13 -53 23z" />
    <glyph glyph-name="scommaaccent" unicode="&#x219;" horiz-adv-x="398" 
d="M87 -57c2 3 8 5 11 5c31 0 64 -17 83 -29c3 -2 6 -5 4 -11c-3 -7 -27 -49 -43 -72c-15 -22 -46 -67 -53 -67c-5 -2 -34 5 -42 7c-13 4 -32 16 -32 17c-3 3 2 14 5 19c12 24 53 107 67 131zM11 329c8 34 12 68 17 102c1 6 36 4 39 4c14 0 42 15 65 15
c42 0 122 -30 157 -55c-9 -13 -26 -12 -29 -15c-6 -6 -27 -29 -27 -67c0 -85 119 -157 119 -228c0 -69 -109 -106 -197 -106c-56 0 -149 43 -201 82c2 13 15 26 26 21c43 -22 123 -54 164 -54c27 0 47 11 47 42c0 87 -95 126 -127 236c-24 0 -48 13 -53 23z" />
    <glyph glyph-name="tcaron" unicode="&#x165;" horiz-adv-x="382" 
d="M70 517l17 89c3 17 12 63 32 67c17 2 66 -7 91 -14c23 -7 67 -15 68 -34c0 -19 -19 -91 -26 -106c59 0 172 2 184 2s23 -6 23 -14c0 -13 -44 -21 -69 -24c-47 -6 -96 -4 -142 -4c-19 -57 -57 -262 -57 -317c0 -57 0 -118 87 -118c59 0 103 26 115 32c6 -1 12 -2 20 -6
c6 -3 9 -11 6 -13c-18 -13 -81 -53 -171 -53c-168 0 -213 126 -213 209c0 55 20 205 29 256c-32 -1 -197 1 -222 4c-23 3 -26 10 -26 12s10 13 16 15s212 13 238 17zM389 662l20 82c0 2 6 6 10 6c9 0 35 -2 45 -4c16 -5 42 -16 42 -32c0 -8 -4 -65 -19 -86
c-11 -23 -26 -80 -33 -81c-18 0 -64 10 -75 20c-7 5 7 82 10 95z" />
    <glyph glyph-name="tcommaaccent" unicode="&#x163;" horiz-adv-x="382" 
d="M70 517l17 89c3 17 12 63 32 67c17 2 66 -7 91 -14c23 -7 67 -15 68 -34c0 -19 -19 -91 -26 -106c59 0 172 2 184 2s23 -6 23 -14c0 -13 -44 -21 -69 -24c-47 -6 -96 -4 -142 -4c-19 -57 -57 -262 -57 -317c0 -57 0 -118 87 -118c59 0 103 26 115 32c6 -1 12 -2 20 -6
c6 -3 9 -11 6 -13c-18 -13 -81 -53 -171 -53c-168 0 -213 126 -213 209c0 55 20 205 29 256c-32 -1 -197 1 -222 4c-23 3 -26 10 -26 12s10 13 16 15s212 13 238 17zM179 -35c2 3 8 5 11 5c30 0 64 -17 82 -29c3 -2 6 -5 5 -11c-3 -7 -28 -49 -43 -72
c-15 -22 -46 -67 -53 -67c-5 -2 -34 5 -42 7c-14 4 -32 16 -32 17c-3 3 2 14 5 19c12 24 53 107 67 131z" />
    <glyph glyph-name="ugrave" unicode="&#xf9;" horiz-adv-x="540" 
d="M32 371c3 10 23 21 32 26c8 4 14 2 20 0l49 -19c6 -3 12 -8 12 -21c0 -6 -13 -18 -15 -25c-12 -59 -31 -146 -34 -187c-3 -48 14 -101 37 -101c26 0 83 93 106 203c12 61 26 137 23 167c9 11 29 14 49 17c26 4 114 -18 137 -26c6 -4 11 -12 8 -19
c-35 -92 -49 -196 -49 -253c0 -28 15 -82 49 -82c35 0 84 18 106 27c10 4 21 2 22 -4c2 -8 -3 -18 -9 -21c-20 -8 -101 -40 -168 -40c-64 0 -136 33 -142 133c-22 -41 -65 -140 -126 -140c-116 0 -139 63 -139 121c0 61 26 207 32 244zM231 633c35 -19 132 -89 165 -108
c8 -5 19 -12 19 -16c0 -7 -10 -34 -29 -34c-48 19 -187 80 -225 105c-6 5 -6 9 -5 12c8 19 28 30 58 42c5 1 11 1 17 -1z" />
    <glyph glyph-name="uacute" unicode="&#xfa;" horiz-adv-x="540" 
d="M32 371c3 10 23 21 32 26c8 4 14 2 20 0l49 -19c6 -3 12 -8 12 -21c0 -6 -13 -18 -15 -25c-12 -59 -31 -146 -34 -187c-3 -48 14 -101 37 -101c26 0 83 93 106 203c12 61 26 137 23 167c9 11 29 14 49 17c26 4 114 -18 137 -26c6 -4 11 -12 8 -19
c-35 -92 -49 -196 -49 -253c0 -28 15 -82 49 -82c35 0 84 18 106 27c10 4 21 2 22 -4c2 -8 -3 -18 -9 -21c-20 -8 -101 -40 -168 -40c-64 0 -136 33 -142 133c-22 -41 -65 -140 -126 -140c-116 0 -139 63 -139 121c0 61 26 207 32 244zM352 633c6 2 12 2 17 1
c30 -12 36 -26 44 -45c2 -3 2 -7 -4 -12c-39 -25 -178 -83 -225 -102c-20 0 -29 27 -29 34c0 4 10 11 18 16c34 19 144 89 179 108z" />
    <glyph glyph-name="ucircumflex" unicode="&#xfb;" horiz-adv-x="540" 
d="M32 371c3 10 23 21 32 26c8 4 14 2 20 0l49 -19c6 -3 12 -8 12 -21c0 -6 -13 -18 -15 -25c-12 -59 -31 -146 -34 -187c-3 -48 14 -101 37 -101c26 0 83 93 106 203c12 61 26 137 23 167c9 11 29 14 49 17c26 4 114 -18 137 -26c6 -4 11 -12 8 -19
c-35 -92 -49 -196 -49 -253c0 -28 15 -82 49 -82c35 0 84 18 106 27c10 4 21 2 22 -4c2 -8 -3 -18 -9 -21c-20 -8 -101 -40 -168 -40c-64 0 -136 33 -142 133c-22 -41 -65 -140 -126 -140c-116 0 -139 63 -139 121c0 61 26 207 32 244zM291 620c10 0 36 -15 72 -40
c33 -23 67 -46 84 -55c7 -5 18 -12 18 -16c0 -7 -17 -30 -37 -30c-30 12 -85 37 -139 63c-55 -25 -118 -53 -148 -65c-19 -3 -35 25 -35 32c0 4 10 11 18 16c17 9 52 32 89 54c38 23 67 41 78 41z" />
    <glyph glyph-name="utilde" unicode="&#x169;" horiz-adv-x="540" 
d="M32 371c3 10 23 21 32 26c8 4 14 2 20 0l49 -19c6 -3 12 -8 12 -21c0 -6 -13 -18 -15 -25c-12 -59 -31 -146 -34 -187c-3 -48 14 -101 37 -101c26 0 83 93 106 203c12 61 26 137 23 167c9 11 29 14 49 17c26 4 114 -18 137 -26c6 -4 11 -12 8 -19
c-35 -92 -49 -196 -49 -253c0 -28 15 -82 49 -82c35 0 84 18 106 27c10 4 21 2 22 -4c2 -8 -3 -18 -9 -21c-20 -8 -101 -40 -168 -40c-64 0 -136 33 -142 133c-22 -41 -65 -140 -126 -140c-116 0 -139 63 -139 121c0 61 26 207 32 244zM121 494c-23 -7 -17 54 3 66
c170 97 158 -89 318 27c11 8 26 -1 26 -1c3 -4 3 -9 3 -14c0 -42 -85 -84 -139 -84c-104 0 -99 89 -211 6z" />
    <glyph glyph-name="udieresis" unicode="&#xfc;" horiz-adv-x="540" 
d="M32 371c3 10 23 21 32 26c8 4 14 2 20 0l49 -19c6 -3 12 -8 12 -21c0 -6 -13 -18 -15 -25c-12 -59 -31 -146 -34 -187c-3 -48 14 -101 37 -101c26 0 83 93 106 203c12 61 26 137 23 167c9 11 29 14 49 17c26 4 114 -18 137 -26c6 -4 11 -12 8 -19
c-35 -92 -49 -196 -49 -253c0 -28 15 -82 49 -82c35 0 84 18 106 27c10 4 21 2 22 -4c2 -8 -3 -18 -9 -21c-20 -8 -101 -40 -168 -40c-64 0 -136 33 -142 133c-22 -41 -65 -140 -126 -140c-116 0 -139 63 -139 121c0 61 26 207 32 244zM375 494c-28 0 -38 11 -52 27
c-2 4 -8 22 3 34c8 8 24 19 41 19c37 2 71 -15 71 -37c0 -8 -14 -43 -63 -43zM188 581c28 0 46 -12 60 -28c1 -4 -5 -25 -11 -35c-6 -8 -17 -18 -34 -18c-36 -2 -64 17 -70 37c0 8 6 44 55 44z" />
    <glyph glyph-name="umacron" unicode="&#x16b;" horiz-adv-x="540" 
d="M32 371c3 10 23 21 32 26c8 4 14 2 20 0l49 -19c6 -3 12 -8 12 -21c0 -6 -13 -18 -15 -25c-12 -59 -31 -146 -34 -187c-3 -48 14 -101 37 -101c26 0 83 93 106 203c12 61 26 137 23 167c9 11 29 14 49 17c26 4 114 -18 137 -26c6 -4 11 -12 8 -19
c-35 -92 -49 -196 -49 -253c0 -28 15 -82 49 -82c35 0 84 18 106 27c10 4 21 2 22 -4c2 -8 -3 -18 -9 -21c-20 -8 -101 -40 -168 -40c-64 0 -136 33 -142 133c-22 -41 -65 -140 -126 -140c-116 0 -139 63 -139 121c0 61 26 207 32 244zM147 562c44 -2 203 0 246 -3
c12 -1 35 -19 38 -22c7 -6 22 -32 5 -39c-55 -2 -240 -6 -294 0c-10 2 -13 6 -13 9c-11 18 -13 28 3 49c3 4 7 6 15 6z" />
    <glyph glyph-name="ubreve" unicode="&#x16d;" horiz-adv-x="540" 
d="M32 371c3 10 23 21 32 26c8 4 14 2 20 0l49 -19c6 -3 12 -8 12 -21c0 -6 -13 -18 -15 -25c-12 -59 -31 -146 -34 -187c-3 -48 14 -101 37 -101c26 0 83 93 106 203c12 61 26 137 23 167c9 11 29 14 49 17c26 4 114 -18 137 -26c6 -4 11 -12 8 -19
c-35 -92 -49 -196 -49 -253c0 -28 15 -82 49 -82c35 0 84 18 106 27c10 4 21 2 22 -4c2 -8 -3 -18 -9 -21c-20 -8 -101 -40 -168 -40c-64 0 -136 33 -142 133c-22 -41 -65 -140 -126 -140c-116 0 -139 63 -139 121c0 61 26 207 32 244zM277 484c-64 0 -171 58 -171 81
c0 7 16 30 36 30c31 -12 72 -41 140 -42c67 -1 117 32 148 44c18 3 35 -25 35 -32c0 -22 -96 -81 -188 -81z" />
    <glyph glyph-name="uring" unicode="&#x16f;" horiz-adv-x="540" 
d="M32 371c-6 -37 -32 -183 -32 -244c0 -58 23 -121 139 -121c61 0 104 99 126 140c6 -100 78 -133 142 -133c67 0 148 32 168 40c6 3 11 13 9 21c-1 6 -12 8 -22 4c-22 -9 -71 -27 -106 -27c-34 0 -49 54 -49 82c0 57 14 161 49 253c3 7 -2 15 -8 19c-23 8 -111 30 -137 26
c-20 -3 -40 -6 -49 -17c3 -30 -11 -106 -23 -167c-23 -110 -80 -203 -106 -203c-23 0 -40 53 -37 101c3 41 22 128 34 187c2 7 15 19 15 25c0 13 -6 18 -12 21l-49 19c-6 2 -12 4 -20 0c-9 -5 -29 -16 -32 -26zM252 646c19 0 22 -3 46 -3c54 0 111 -24 111 -66
c0 -46 -33 -104 -109 -104c-84 0 -138 26 -138 85c0 45 52 88 90 88zM338 557c0 19 -12 45 -49 45c-38 0 -53 -41 -53 -58c0 -21 15 -39 42 -39c31 0 60 19 60 52z" />
    <glyph glyph-name="uhungarumlaut" unicode="&#x171;" horiz-adv-x="540" 
d="M32 371c3 10 23 21 32 26c8 4 14 2 20 0l49 -19c6 -3 12 -8 12 -21c0 -6 -13 -18 -15 -25c-12 -59 -31 -146 -34 -187c-3 -48 14 -101 37 -101c26 0 83 93 106 203c12 61 26 137 23 167c9 11 29 14 49 17c26 4 114 -18 137 -26c6 -4 11 -12 8 -19
c-35 -92 -49 -196 -49 -253c0 -28 15 -82 49 -82c35 0 84 18 106 27c10 4 21 2 22 -4c2 -8 -3 -18 -9 -21c-20 -8 -101 -40 -168 -40c-64 0 -136 33 -142 133c-22 -41 -65 -140 -126 -140c-116 0 -139 63 -139 121c0 61 26 207 32 244zM217 621c5 2 11 4 16 4
c36 -5 41 -3 59 -20c3 -2 5 -6 2 -12c-23 -32 -86 -93 -121 -121c-20 -5 -38 6 -41 13c-2 3 9 17 12 23c21 35 49 89 73 113zM366 628c24 12 61 -7 72 -20c3 -2 4 -6 0 -12c-28 -30 -97 -89 -135 -115c-20 -4 -35 8 -38 15c-2 3 10 17 15 23c24 33 58 85 86 109z" />
    <glyph glyph-name="uogonek" unicode="&#x173;" horiz-adv-x="540" 
d="M499 -65c6 3 6 -7 6 -10c-14 -32 -57 -57 -103 -50c-39 10 -72 59 -6 138c-61 4 -125 38 -131 133c-22 -41 -65 -140 -126 -140c-116 0 -139 63 -139 121c0 61 26 207 32 244c3 10 23 21 32 26c8 4 14 2 20 0l49 -19c6 -3 12 -8 12 -21c0 -6 -13 -18 -15 -25
c-12 -59 -31 -146 -34 -187c-3 -48 14 -101 37 -101c26 0 83 93 106 203c12 61 26 137 23 167c9 11 29 14 49 17c26 4 114 -18 137 -26c6 -4 11 -12 8 -19c-35 -92 -49 -196 -49 -253c0 -28 15 -82 49 -82c35 0 84 18 106 27c10 4 21 2 22 -4c2 -8 -3 -18 -9 -21
c-17 -7 -79 -32 -140 -39c-49 -87 -11 -114 64 -79z" />
    <glyph glyph-name="wgrave" unicode="&#x1e81;" horiz-adv-x="692" 
d="M246 604c36 -19 132 -89 166 -108c7 -5 18 -12 18 -16c0 -7 -9 -34 -29 -34c-48 19 -187 80 -225 105c-6 5 -6 9 -5 12c8 19 28 30 58 42c5 1 11 1 17 -1zM450 0c-49 0 -135 34 -152 103c-13 -38 -42 -84 -67 -95c-17 -10 -49 -8 -63 -8c-15 0 -96 16 -131 42
c-32 23 -37 107 -37 151c0 88 18 161 23 210c17 -6 29 -10 31 -10c47 4 127 -3 125 -34c6 -4 20 -13 20 -23c0 -17 -35 -77 -35 -217c0 -35 4 -79 15 -79c38 0 101 141 96 289c0 4 -9 12 -9 17c0 13 37 26 63 26c21 0 53 -1 76 -8c40 -12 69 -32 69 -38c0 -3 -3 -7 -13 -9
c-17 -71 -30 -139 -30 -206c0 -36 5 -69 22 -69c32 0 87 174 87 230c-12 25 -23 64 -23 93c0 46 20 114 49 114s54 -22 61 -29c5 -4 6 -13 6 -17c0 -20 -10 -98 -30 -170c10 -3 20 -5 30 -5c34 0 65 18 88 43c12 -1 24 -13 24 -21c0 -6 -6 -20 -13 -26
c-25 -21 -57 -37 -94 -37c-14 0 -28 2 -44 8c-31 -111 -80 -225 -144 -225z" />
    <glyph glyph-name="wacute" unicode="&#x1e83;" horiz-adv-x="692" 
d="M431 604c7 2 13 2 17 1c31 -12 37 -26 45 -45c1 -3 1 -7 -5 -12c-38 -25 -177 -83 -225 -102c-20 0 -29 27 -29 34c0 4 11 11 18 16c34 19 144 89 179 108zM450 0c-49 0 -135 34 -152 103c-13 -38 -42 -84 -67 -95c-17 -10 -49 -8 -63 -8c-15 0 -96 16 -131 42
c-32 23 -37 107 -37 151c0 88 18 161 23 210c17 -6 29 -10 31 -10c47 4 127 -3 125 -34c6 -4 20 -13 20 -23c0 -17 -35 -77 -35 -217c0 -35 4 -79 15 -79c38 0 101 141 96 289c0 4 -9 12 -9 17c0 13 37 26 63 26c21 0 53 -1 76 -8c40 -12 69 -32 69 -38c0 -3 -3 -7 -13 -9
c-17 -71 -30 -139 -30 -206c0 -36 5 -69 22 -69c32 0 87 174 87 230c-12 25 -23 64 -23 93c0 46 20 114 49 114s54 -22 61 -29c5 -4 6 -13 6 -17c0 -20 -10 -98 -30 -170c10 -3 20 -5 30 -5c34 0 65 18 88 43c12 -1 24 -13 24 -21c0 -6 -6 -20 -13 -26
c-25 -21 -57 -37 -94 -37c-14 0 -28 2 -44 8c-31 -111 -80 -225 -144 -225z" />
    <glyph glyph-name="wcircumflex" unicode="&#x175;" horiz-adv-x="692" 
d="M370 591c11 0 37 -15 72 -40c34 -23 67 -46 84 -55c8 -5 19 -12 19 -16c0 -7 -17 -30 -37 -30c-31 12 -86 37 -139 63c-55 -25 -118 -53 -149 -65c-18 -3 -35 25 -35 32c0 4 11 11 18 16c17 9 53 32 89 54c38 23 68 41 78 41zM450 0c-49 0 -135 34 -152 103
c-13 -38 -42 -84 -67 -95c-17 -10 -49 -8 -63 -8c-15 0 -96 16 -131 42c-32 23 -37 107 -37 151c0 88 18 161 23 210c17 -6 29 -10 31 -10c47 4 127 -3 125 -34c6 -4 20 -13 20 -23c0 -17 -35 -77 -35 -217c0 -35 4 -79 15 -79c38 0 101 141 96 289c0 4 -9 12 -9 17
c0 13 37 26 63 26c21 0 53 -1 76 -8c40 -12 69 -32 69 -38c0 -3 -3 -7 -13 -9c-17 -71 -30 -139 -30 -206c0 -36 5 -69 22 -69c32 0 87 174 87 230c-12 25 -23 64 -23 93c0 46 20 114 49 114s54 -22 61 -29c5 -4 6 -13 6 -17c0 -20 -10 -98 -30 -170c10 -3 20 -5 30 -5
c34 0 65 18 88 43c12 -1 24 -13 24 -21c0 -6 -6 -20 -13 -26c-25 -21 -57 -37 -94 -37c-14 0 -28 2 -44 8c-31 -111 -80 -225 -144 -225z" />
    <glyph glyph-name="wdieresis" unicode="&#x1e85;" horiz-adv-x="692" 
d="M268 552c27 0 46 -12 59 -28c2 -4 -4 -25 -10 -35c-6 -8 -17 -18 -34 -18c-37 -2 -64 17 -70 37c0 8 6 44 55 44zM454 465c-27 0 -38 11 -52 27c-1 4 -7 22 3 34c8 8 25 19 42 19c36 2 70 -15 70 -37c0 -8 -14 -43 -63 -43zM450 0c-49 0 -135 34 -152 103
c-13 -38 -42 -84 -67 -95c-17 -10 -49 -8 -63 -8c-15 0 -96 16 -131 42c-32 23 -37 107 -37 151c0 88 18 161 23 210c17 -6 29 -10 31 -10c47 4 127 -3 125 -34c6 -4 20 -13 20 -23c0 -17 -35 -77 -35 -217c0 -35 4 -79 15 -79c38 0 101 141 96 289c0 4 -9 12 -9 17
c0 13 37 26 63 26c21 0 53 -1 76 -8c40 -12 69 -32 69 -38c0 -3 -3 -7 -13 -9c-17 -71 -30 -139 -30 -206c0 -36 5 -69 22 -69c32 0 87 174 87 230c-12 25 -23 64 -23 93c0 46 20 114 49 114s54 -22 61 -29c5 -4 6 -13 6 -17c0 -20 -10 -98 -30 -170c10 -3 20 -5 30 -5
c34 0 65 18 88 43c12 -1 24 -13 24 -21c0 -6 -6 -20 -13 -26c-25 -21 -57 -37 -94 -37c-14 0 -28 2 -44 8c-31 -111 -80 -225 -144 -225z" />
    <glyph glyph-name="ygrave" unicode="&#x1ef3;" horiz-adv-x="505" 
d="M46 387c6 2 20 4 23 4s15 -4 20 -4c21 0 43 -15 56 -22c0 -17 -67 -145 -67 -266c0 -36 14 -76 35 -76c75 0 162 285 162 364c0 12 -12 33 -13 37c-3 5 1 11 10 15c34 1 46 23 69 23c64 0 89 -23 130 -43c12 -8 -17 -50 -30 -104c-43 -173 -78 -347 -91 -518
c0 -4 3 -24 0 -27c-3 -4 -30 -15 -47 -15c-29 0 -107 12 -118 30c-3 89 8 178 23 264c-14 -21 -40 -62 -90 -62c-49 0 -80 30 -87 39c-19 22 -31 48 -31 94c0 61 28 204 46 267zM214 666c35 -19 132 -89 165 -108c8 -5 19 -12 19 -16c0 -7 -9 -34 -29 -34
c-48 19 -187 80 -225 105c-6 5 -6 9 -5 12c8 19 28 30 58 42c5 1 11 1 17 -1z" />
    <glyph glyph-name="yacute" unicode="&#xfd;" horiz-adv-x="505" 
d="M46 387c6 2 20 4 23 4s15 -4 20 -4c21 0 43 -15 56 -22c0 -17 -67 -145 -67 -266c0 -36 14 -76 35 -76c75 0 162 285 162 364c0 12 -12 33 -13 37c-3 5 1 11 10 15c34 1 46 23 69 23c64 0 89 -23 130 -43c12 -8 -17 -50 -30 -104c-43 -173 -78 -347 -91 -518
c0 -4 3 -24 0 -27c-3 -4 -30 -15 -47 -15c-29 0 -107 12 -118 30c-3 89 8 178 23 264c-14 -21 -40 -62 -90 -62c-49 0 -80 30 -87 39c-19 22 -31 48 -31 94c0 61 28 204 46 267zM335 666c6 2 12 2 17 1c30 -12 37 -26 44 -45c2 -3 2 -7 -4 -12c-39 -25 -178 -83 -225 -102
c-20 0 -29 27 -29 34c0 4 10 11 18 16c34 19 144 89 179 108z" />
    <glyph glyph-name="ycircumflex" unicode="&#x177;" horiz-adv-x="505" 
d="M46 387c6 2 20 4 23 4s15 -4 20 -4c21 0 43 -15 56 -22c0 -17 -67 -145 -67 -266c0 -36 14 -76 35 -76c75 0 162 285 162 364c0 12 -12 33 -13 37c-3 5 1 11 10 15c34 1 46 23 69 23c64 0 89 -23 130 -43c12 -8 -17 -50 -30 -104c-43 -173 -78 -347 -91 -518
c0 -4 3 -24 0 -27c-3 -4 -30 -15 -47 -15c-29 0 -107 12 -118 30c-3 89 8 178 23 264c-14 -21 -40 -62 -90 -62c-49 0 -80 30 -87 39c-19 22 -31 48 -31 94c0 61 28 204 46 267zM272 653c11 0 37 -15 72 -40c34 -23 68 -46 84 -55c8 -5 19 -12 19 -16c0 -7 -17 -30 -37 -30
c-31 12 -86 37 -139 63c-55 -25 -118 -53 -149 -65c-18 -3 -35 25 -35 32c0 4 11 11 19 16c16 9 52 32 88 54c39 23 68 41 78 41z" />
    <glyph glyph-name="ydieresis" unicode="&#xff;" horiz-adv-x="505" 
d="M46 387c6 2 20 4 23 4s15 -4 20 -4c21 0 43 -15 56 -22c0 -17 -67 -145 -67 -266c0 -36 14 -76 35 -76c75 0 162 285 162 364c0 12 -12 33 -13 37c-3 5 1 11 10 15c34 1 46 23 69 23c64 0 89 -23 130 -43c12 -8 -17 -50 -30 -104c-43 -173 -78 -347 -91 -518
c0 -4 3 -24 0 -27c-3 -4 -30 -15 -47 -15c-29 0 -107 12 -118 30c-3 89 8 178 23 264c-14 -21 -40 -62 -90 -62c-49 0 -80 30 -87 39c-19 22 -31 48 -31 94c0 61 28 204 46 267zM170 614c27 0 46 -12 59 -28c2 -4 -4 -25 -10 -35c-6 -8 -17 -18 -34 -18
c-37 -2 -64 17 -70 37c0 8 6 44 55 44zM356 527c-27 0 -38 11 -52 27c-1 4 -7 22 4 34c7 8 24 19 41 19c37 2 70 -15 70 -37c0 -8 -14 -43 -63 -43z" />
    <glyph glyph-name="zacute" unicode="&#x17a;" horiz-adv-x="435" 
d="M6 365c80 17 216 55 262 55c20 0 55 -8 84 -27c32 -19 52 -44 52 -53c0 -11 -11 -23 -20 -30c-32 -28 -262 -225 -262 -263c0 -10 179 -2 210 -5c12 -1 43 -16 43 -21c0 -8 -74 -18 -141 -27c-57 -8 -110 -16 -118 -16c-23 0 -53 10 -69 24c-21 13 -41 26 -44 32
s-3 25 -3 30c0 16 139 230 210 291c3 2 6 4 3 4c-17 0 -155 -17 -172 -17c-12 0 -39 11 -39 19c0 2 1 3 4 4zM300 614c6 2 12 2 17 1c30 -12 36 -26 44 -45c2 -3 2 -7 -5 -12c-38 -25 -177 -83 -224 -102c-20 0 -29 27 -29 34c0 4 10 11 18 16c34 19 144 89 179 108z" />
    <glyph glyph-name="zcaron" unicode="&#x17e;" horiz-adv-x="435" 
d="M6 365c80 17 216 55 262 55c20 0 55 -8 84 -27c32 -19 52 -44 52 -53c0 -11 -11 -23 -20 -30c-32 -28 -262 -225 -262 -263c0 -10 179 -2 210 -5c12 -1 43 -16 43 -21c0 -8 -74 -18 -141 -27c-57 -8 -110 -16 -118 -16c-23 0 -53 10 -69 24c-21 13 -41 26 -44 32
s-3 25 -3 30c0 16 139 230 210 291c3 2 6 4 3 4c-17 0 -155 -17 -172 -17c-12 0 -39 11 -39 19c0 2 1 3 4 4zM226 464c-10 0 -36 6 -71 31c-34 23 -68 46 -85 55c-7 5 -18 12 -18 16c0 7 17 30 37 30c30 -12 85 -37 139 -63c55 25 118 53 148 65c19 3 36 -25 36 -32
c0 -4 -11 -11 -19 -16c-17 -9 -52 -32 -89 -54c-38 -23 -67 -32 -78 -32z" />
    <glyph glyph-name="zdotaccent" unicode="&#x17c;" horiz-adv-x="435" 
d="M6 365c80 17 216 55 262 55c20 0 55 -8 84 -27c32 -19 52 -44 52 -53c0 -11 -11 -23 -20 -30c-32 -28 -262 -225 -262 -263c0 -10 179 -2 210 -5c12 -1 43 -16 43 -21c0 -8 -74 -18 -141 -27c-57 -8 -110 -16 -118 -16c-23 0 -53 10 -69 24c-21 13 -41 26 -44 32
s-3 25 -3 30c0 16 139 230 210 291c3 2 6 4 3 4c-17 0 -155 -17 -172 -17c-12 0 -39 11 -39 19c0 2 1 3 4 4zM229 558c28 0 46 -12 60 -28c2 -4 -4 -25 -11 -35c-6 -8 -16 -18 -33 -18c-37 -2 -64 17 -71 37c0 8 7 44 55 44z" />
    <glyph glyph-name="ccedilla" unicode="&#xe7;" horiz-adv-x="459" 
d="M127 445c21 0 47 1 70 -4c13 -2 144 -36 166 -50c15 -9 24 -24 24 -41c0 -54 -41 -152 -61 -152c-29 0 -58 19 -58 34c0 17 1 38 4 53c3 16 22 78 3 82c-13 2 -56 -65 -65 -93c-7 -17 -51 -126 -51 -177s41 -82 119 -82c80 0 170 54 190 65c9 5 31 7 35 2
c3 -4 0 -14 -6 -19c-7 -6 -90 -80 -255 -80c-167 0 -242 76 -242 186c0 112 81 268 127 276zM229 -51c-1 4 10 6 14 6c35 0 63 -8 81 -23c6 -5 6 -17 6 -24c-3 -29 -22 -95 -162 -102c-9 1 -39 16 -10 22c90 20 84 69 71 121z" />
    <glyph glyph-name="agrave.001" horiz-adv-x="577" 
d="M234 646c35 -19 132 -89 165 -108c8 -5 19 -12 19 -16c0 -7 -9 -34 -29 -34c-48 19 -187 80 -225 105c-6 5 -6 9 -5 12c8 19 28 30 58 42c5 1 11 1 17 -1zM298 414c0 10 4 19 13 19c20 0 74 -19 142 -24c14 -1 48 -11 48 -25c0 -4 -4 -7 -5 -10
c-43 -71 -75 -176 -75 -249c0 -20 6 -64 29 -64c78 0 121 226 148 327c2 4 5 6 12 5c2 0 28 -2 34 -3c5 -1 9 -2 9 -8c-18 -58 -50 -365 -211 -365c-104 0 -145 66 -164 97c-19 -36 -65 -118 -131 -118c-29 0 -89 25 -113 42c-20 15 -34 61 -34 89c0 71 44 338 167 338
c47 0 104 -31 131 -51zM292 378c-15 12 -38 29 -63 29c-71 0 -134 -240 -134 -285c0 -12 3 -86 32 -86c52 0 116 141 129 171c7 29 35 137 36 171z" />
    <glyph glyph-name="aacute.001" horiz-adv-x="577" 
d="M355 666c6 2 12 2 17 1c30 -12 37 -26 44 -45c2 -3 2 -7 -4 -12c-39 -25 -178 -83 -225 -102c-20 0 -29 27 -29 34c0 4 10 11 18 16c34 19 144 89 179 108zM298 414c0 10 4 19 13 19c20 0 74 -19 142 -24c14 -1 48 -11 48 -25c0 -4 -4 -7 -5 -10
c-43 -71 -75 -176 -75 -249c0 -20 6 -64 29 -64c78 0 121 226 148 327c2 4 5 6 12 5c2 0 28 -2 34 -3c5 -1 9 -2 9 -8c-18 -58 -50 -365 -211 -365c-104 0 -145 66 -164 97c-19 -36 -65 -118 -131 -118c-29 0 -89 25 -113 42c-20 15 -34 61 -34 89c0 71 44 338 167 338
c47 0 104 -31 131 -51zM292 378c-15 12 -38 29 -63 29c-71 0 -134 -240 -134 -285c0 -12 3 -86 32 -86c52 0 116 141 129 171c7 29 35 137 36 171z" />
    <glyph glyph-name="acircumflex.001" horiz-adv-x="577" 
d="M294 653c10 0 36 -15 72 -40c33 -23 67 -46 84 -55c7 -5 18 -12 18 -16c0 -7 -17 -30 -37 -30c-30 12 -85 37 -139 63c-55 -25 -118 -53 -148 -65c-19 -3 -35 25 -35 32c0 4 10 11 18 16c17 9 52 32 89 54c38 23 67 41 78 41zM298 414c0 10 4 19 13 19
c20 0 74 -19 142 -24c14 -1 48 -11 48 -25c0 -4 -4 -7 -5 -10c-43 -71 -75 -176 -75 -249c0 -20 6 -64 29 -64c78 0 121 226 148 327c2 4 5 6 12 5c2 0 28 -2 34 -3c5 -1 9 -2 9 -8c-18 -58 -50 -365 -211 -365c-104 0 -145 66 -164 97c-19 -36 -65 -118 -131 -118
c-29 0 -89 25 -113 42c-20 15 -34 61 -34 89c0 71 44 338 167 338c47 0 104 -31 131 -51zM292 378c-15 12 -38 29 -63 29c-71 0 -134 -240 -134 -285c0 -12 3 -86 32 -86c52 0 116 141 129 171c7 29 35 137 36 171z" />
    <glyph glyph-name="atilde.001" horiz-adv-x="577" 
d="M124 527c-23 -7 -17 54 3 66c170 97 158 -89 318 27c11 8 26 -1 26 -1c3 -4 3 -9 3 -14c0 -42 -85 -84 -139 -84c-104 0 -99 89 -211 6zM298 414c0 10 4 19 13 19c20 0 74 -19 142 -24c14 -1 48 -11 48 -25c0 -4 -4 -7 -5 -10c-43 -71 -75 -176 -75 -249
c0 -20 6 -64 29 -64c78 0 121 226 148 327c2 4 5 6 12 5c2 0 28 -2 34 -3c5 -1 9 -2 9 -8c-18 -58 -50 -365 -211 -365c-104 0 -145 66 -164 97c-19 -36 -65 -118 -131 -118c-29 0 -89 25 -113 42c-20 15 -34 61 -34 89c0 71 44 338 167 338c47 0 104 -31 131 -51zM292 378
c-15 12 -38 29 -63 29c-71 0 -134 -240 -134 -285c0 -12 3 -86 32 -86c52 0 116 141 129 171c7 29 35 137 36 171z" />
    <glyph glyph-name="adieresis.001" horiz-adv-x="577" 
d="M191 614c28 0 46 -12 60 -28c1 -4 -5 -25 -11 -35c-6 -8 -17 -18 -33 -18c-37 -2 -65 17 -71 37c0 8 6 44 55 44zM378 527c-28 0 -38 11 -52 27c-2 4 -8 22 3 34c8 8 24 19 41 19c37 2 71 -15 71 -37c0 -8 -14 -43 -63 -43zM298 414c0 10 4 19 13 19c20 0 74 -19 142 -24
c14 -1 48 -11 48 -25c0 -4 -4 -7 -5 -10c-43 -71 -75 -176 -75 -249c0 -20 6 -64 29 -64c78 0 121 226 148 327c2 4 5 6 12 5c2 0 28 -2 34 -3c5 -1 9 -2 9 -8c-18 -58 -50 -365 -211 -365c-104 0 -145 66 -164 97c-19 -36 -65 -118 -131 -118c-29 0 -89 25 -113 42
c-20 15 -34 61 -34 89c0 71 44 338 167 338c47 0 104 -31 131 -51zM292 378c-15 12 -38 29 -63 29c-71 0 -134 -240 -134 -285c0 -12 3 -86 32 -86c52 0 116 141 129 171c7 29 35 137 36 171z" />
    <glyph glyph-name="amacron.001" horiz-adv-x="577" 
d="M150 595c44 -2 203 0 246 -3c13 -1 35 -19 39 -22c6 -6 21 -32 4 -39c-55 -2 -240 -6 -294 0c-10 2 -13 6 -13 9c-11 18 -13 28 3 49c3 4 7 6 15 6zM298 414c0 10 4 19 13 19c20 0 74 -19 142 -24c14 -1 48 -11 48 -25c0 -4 -4 -7 -5 -10c-43 -71 -75 -176 -75 -249
c0 -20 6 -64 29 -64c78 0 121 226 148 327c2 4 5 6 12 5c2 0 28 -2 34 -3c5 -1 9 -2 9 -8c-18 -58 -50 -365 -211 -365c-104 0 -145 66 -164 97c-19 -36 -65 -118 -131 -118c-29 0 -89 25 -113 42c-20 15 -34 61 -34 89c0 71 44 338 167 338c47 0 104 -31 131 -51zM292 378
c-15 12 -38 29 -63 29c-71 0 -134 -240 -134 -285c0 -12 3 -86 32 -86c52 0 116 141 129 171c7 29 35 137 36 171z" />
    </font>
</defs>
</svg>
