<?xml version="1.0" standalone="no"?>
<!DOCTYPE svg PUBLIC "-//W3C//DTD SVG 1.1//EN" "http://www.w3.org/Graphics/SVG/1.1/DTD/svg11.dtd" >
<svg xmlns="http://www.w3.org/2000/svg" width="100%" height="100%">
<metadata>
Created by FontXChange 20110222 at Fri Sep 24 10:03:15 2021
 By RT
Copyright (c) 2011 by Glenjan. All rights reserved.
</metadata>
<defs>
<font id="RoadRadio-Black" horiz-adv-x="610" >
  <font-face 
    font-family="RoadRadio"
    font-weight="900"
    font-stretch="normal"
    units-per-em="1000"
    panose-1="0 0 0 0 0 0 0 0 0 0"
    ascent="750"
    descent="-250"
    x-height="553"
    cap-height="553"
    bbox="-77 -287 1122 847"
    underline-thickness="50"
    underline-position="-50"
    unicode-range="U+0020-2212"
  />
<missing-glyph horiz-adv-x="329" 
d="M50 553h145q44 0 72.5 -27t28.5 -69q0 -58 -47 -82l37 -68h-59l-30 56h-91v-56h-56v246zM106 503v-90h87q47 0 47 44q0 21 -13 33.5t-34 12.5h-87zM50 246h145q44 0 72.5 -27t28.5 -69q0 -58 -47 -82l37 -68h-59l-30 56h-91v-56h-56v246zM106 196v-90h87q47 0 47 44
q0 21 -13 33.5t-34 12.5h-87z" />
    <glyph glyph-name=".notdef" horiz-adv-x="329" 
d="M50 553h145q44 0 72.5 -27t28.5 -69q0 -58 -47 -82l37 -68h-59l-30 56h-91v-56h-56v246zM106 503v-90h87q47 0 47 44q0 21 -13 33.5t-34 12.5h-87zM50 246h145q44 0 72.5 -27t28.5 -69q0 -58 -47 -82l37 -68h-59l-30 56h-91v-56h-56v246zM106 196v-90h87q47 0 47 44
q0 21 -13 33.5t-34 12.5h-87z" />
    <glyph glyph-name=".null" horiz-adv-x="0" 
 />
    <glyph glyph-name="nonmarkingreturn" horiz-adv-x="333" 
 />
    <glyph glyph-name="space" unicode=" " horiz-adv-x="273" 
 />
    <glyph glyph-name="exclam" unicode="!" horiz-adv-x="263" 
d="M62 212v420h138v-420h-138zM132 175q38 0 66 -28.5t28 -65.5q0 -41 -28 -68.5t-66 -27.5q-41 0 -68.5 27.5t-27.5 68.5q0 38 27.5 66t68.5 28z" />
    <glyph glyph-name="quotedbl" unicode="&#x22;" horiz-adv-x="348" 
d="M35 553h127v-77l-13 -109h-114v186zM187 553h127v-77l-13 -109h-114v186z" />
    <glyph glyph-name="numbersign" unicode="#" horiz-adv-x="456" 
d="M35 270h61l5 35h-66v100h79l10 76h101l-10 -76h35l10 76h102l-10 -76h60v-100h-73l-5 -35h78v-100h-91l-7 -65h-102l8 65h-35l-9 -65h-100l7 65h-48v100zM203 305l-5 -35h34l5 35h-34z" />
    <glyph glyph-name="dollar" unicode="$" horiz-adv-x="660" 
d="M259 -93l-5 83q-120 15 -217 90l69 111q116 -77 236 -77q59 0 97.5 15t38.5 42q0 15 -8 23t-32 10l-190 22q-92 11 -139.5 49.5t-47.5 115.5q0 71 54 114.5t140 56.5l4 65h137l3 -65q118 -14 210 -84l-71 -105q-93 61 -217 61q-115 0 -115 -42q0 -8 3.5 -13.5t13.5 -8.5
t16.5 -4t23.5 -3l161 -18q197 -24 197 -172q0 -79 -60.5 -126t-161.5 -57l-3 -83h-137z" />
    <glyph glyph-name="uni0025" unicode="%" horiz-adv-x="830" 
d="M511 566l100 -46l-318 -552l-100 46zM635 -16q-69 0 -113.5 45.5t-44.5 114.5t44.5 115t113.5 46q67 0 111 -46t44 -115t-44 -114.5t-111 -45.5zM635 85q23 0 39.5 14t16.5 45t-16.5 44.5t-39.5 13.5t-40.5 -13.5t-17.5 -44.5t17.5 -45t40.5 -14zM187 237q-69 0 -113 46
t-44 115q0 70 44 115.5t113 45.5q68 0 112 -46t44 -115t-44 -115t-112 -46zM187 340q23 0 40 13.5t17 44.5t-17 45t-40 14q-24 0 -41 -14t-17 -45t17 -44.5t41 -13.5z" />
    <glyph glyph-name="ampersand" unicode="&#x26;" horiz-adv-x="702" 
d="M654 357v-103l-51 -12l56 -242h-79l-51 37q-97 -51 -210 -51q-128 0 -200 42q-89 49 -89 153q0 47 18 74.5t57 48.5q-19 12 -30 36t-11 50q0 72 49 116q70 60 224 60q79 0 139 -16t127 -57l-61 -105q-94 49 -207 49q-65 0 -94.5 -11t-29.5 -38q0 -15 10 -23t26 -8h407z
M314 114q90 0 164 28l-20 90h-213q-38 0 -53 -10.5t-15 -34.5q0 -73 137 -73z" />
    <glyph glyph-name="quotesingle" unicode="'" horiz-adv-x="198" 
d="M35 553h127v-77l-13 -109h-114v186z" />
    <glyph glyph-name="parenleft" unicode="(" horiz-adv-x="245" 
d="M106 599l116 -30q-37 -124 -37 -295q0 -168 37 -295l-117 -29q-54 136 -54 327q0 203 55 322z" />
    <glyph glyph-name="parenright" unicode=")" horiz-adv-x="245" 
d="M28 569l116 30q55 -119 55 -322q0 -194 -53 -327l-118 29q37 127 37 295q0 171 -37 295z" />
    <glyph glyph-name="asterisk" unicode="*" horiz-adv-x="377" 
d="M138 525l8 69h87l7 -69l58 32l44 -77l-58 -39l58 -36l-44 -78l-58 33l-9 -71h-87l-6 71l-60 -33l-44 79l60 35l-60 39l44 77z" />
    <glyph glyph-name="plus" unicode="+" horiz-adv-x="432" 
d="M29 346h119v124h136v-124h118v-120h-118v-117h-136v117h-119v120z" />
    <glyph glyph-name="comma" unicode="," horiz-adv-x="259" 
d="M61 -96l18 100q-47 28 -47 82q0 40 27 68.5t76 28.5q37 0 64.5 -26.5t27.5 -71.5q0 -21 -6 -40l-64 -162z" />
    <glyph glyph-name="hyphen" unicode="-" horiz-adv-x="395" 
d="M40 346h315v-129h-315v129z" />
    <glyph glyph-name="period" unicode="." horiz-adv-x="276" 
d="M138 183q41 0 70.5 -29t29.5 -69q0 -41 -29 -68t-71 -27q-41 0 -69.5 27t-28.5 68t29 69.5t69 28.5z" />
    <glyph glyph-name="slash" unicode="/" horiz-adv-x="364" 
d="M220 593l122 -35l-209 -599l-117 34z" />
    <glyph glyph-name="zero" unicode="0" horiz-adv-x="681" 
d="M180 276q0 -165 160 -165q161 0 161 165t-161 165q-160 0 -160 -165zM647 276q0 -136 -87.5 -213t-219.5 -77t-219.5 77t-87.5 213t87.5 213t219.5 77t219.5 -77t87.5 -213z" />
    <glyph glyph-name="one" unicode="1" horiz-adv-x="321" 
d="M29 553h245v-553h-147v423h-98v130z" />
    <glyph glyph-name="two" unicode="2" horiz-adv-x="607" 
d="M546 130v-130h-492v140l324 183q35 18 35 50q0 60 -118 60q-50 0 -86.5 -16.5t-79.5 -56.5l-91 92q103 114 265 114q117 0 187 -50t70 -147q0 -91 -106 -147l-173 -92h265z" />
    <glyph glyph-name="three" unicode="3" horiz-adv-x="624" 
d="M178 364h189q32 0 32 30q0 23 -24 32.5t-82 9.5q-53 0 -90 -11t-78 -41l-68 100q59 47 112 64.5t121 17.5q138 0 206 -52q51 -40 51 -123q0 -24 -11 -47t-30 -35q77 -41 77 -127q0 -87 -78 -145q-70 -51 -218 -51q-155 0 -254 89l71 109q51 -38 92.5 -53.5t95.5 -15.5
q78 0 110.5 15t32.5 56q0 52 -69 52h-188v126z" />
    <glyph glyph-name="four" unicode="4" horiz-adv-x="653" 
d="M323 553h232v-341h55v-129h-55v-83h-147v83h-373v127zM381 420l-159 -208h186v208h-27z" />
    <glyph glyph-name="five" unicode="5" horiz-adv-x="620" 
d="M199 224l-121 8l15 321h455v-132h-316l-4 -58q59 14 123 14q113 0 174.5 -50t61.5 -140q0 -200 -281 -200q-87 0 -151.5 19t-128.5 65l67 113q60 -36 108.5 -50.5t114.5 -14.5q64 0 93 16.5t29 51.5q0 34 -26 47.5t-84 13.5q-66 0 -129 -24z" />
    <glyph glyph-name="six" unicode="6" horiz-adv-x="631" 
d="M590 503l-56 -111q-80 46 -197 46q-59 0 -93.5 -20t-47.5 -65q88 22 155 22q110 0 179 -47.5t69 -145.5q0 -90 -75 -142t-194 -52q-140 0 -210.5 77t-70.5 212q0 126 79 207.5t209 81.5q153 0 253 -63zM191 238q6 -65 36 -92.5t113 -27.5q60 0 87.5 14.5t27.5 50.5
q0 34 -26.5 48t-90.5 14q-76 0 -147 -7z" />
    <glyph glyph-name="seven" unicode="7" horiz-adv-x="586" 
d="M287 0h-175l274 421h-350v132h516v-127z" />
    <glyph glyph-name="eight" unicode="8" horiz-adv-x="652" 
d="M326 566q130 0 190.5 -43.5t60.5 -114.5q0 -32 -14 -58.5t-33 -36.5q85 -41 85 -145q0 -90 -75 -136t-214 -46q-289 0 -289 180q0 43 24.5 82t60.5 52q-25 21 -36 41.5t-11 54.5q0 85 70 127.5t181 42.5zM430 216l-201 22q-43 -13 -43 -59q0 -65 140 -65t140 59
q0 39 -36 43zM270 367l148 -15q13 14 13 40t-23 36.5t-82 10.5q-48 0 -72 -6.5t-28.5 -14.5t-4.5 -23q0 -25 49 -28z" />
    <glyph glyph-name="nine" unicode="9" horiz-adv-x="631" 
d="M49 44l57 110q80 -38 196 -38q117 0 141 84q-103 -24 -155 -24q-51 0 -94 11t-78 33t-55 60t-20 89q0 90 73.5 143.5t194.5 53.5q140 0 211 -76t71 -213q0 -126 -80 -207.5t-209 -81.5q-148 0 -253 56zM448 315q-6 65 -36.5 92.5t-113.5 27.5q-60 0 -87 -15.5t-27 -51.5
q0 -35 26 -48.5t92 -13.5q86 0 146 9z" />
    <glyph glyph-name="colon" unicode=":" horiz-adv-x="263" 
d="M133 457q38 0 65.5 -27.5t27.5 -65.5t-27.5 -65.5t-65.5 -27.5q-39 0 -66.5 27.5t-27.5 65.5t27.5 65.5t66.5 27.5zM133 173q38 0 65.5 -27t27.5 -65t-27 -63t-66 -25q-40 0 -67 25t-27 63t27.5 65t66.5 27z" />
    <glyph glyph-name="semicolon" unicode=";" horiz-adv-x="263" 
d="M129 457q38 0 65.5 -27.5t27.5 -65.5t-27.5 -65.5t-65.5 -27.5q-39 0 -66.5 27.5t-27.5 65.5t27.5 65.5t66.5 27.5zM139 174q36 0 63 -29t27 -67q0 -14 -7 -32l-60 -162l-94 20l17 91q-21 12 -33 35.5t-12 48.5q0 38 29.5 66.5t69.5 28.5z" />
    <glyph glyph-name="less" unicode="&#x3c;" horiz-adv-x="321" 
d="M219 437l72 -73l-77 -100l77 -98l-72 -73l-186 171z" />
    <glyph glyph-name="equal" unicode="=" horiz-adv-x="398" 
d="M41 432h315v-116h-315v116zM41 247h315v-116h-315v116z" />
    <glyph glyph-name="greater" unicode="&#x3e;" horiz-adv-x="321" 
d="M102 437l186 -173l-186 -171l-72 73l78 98l-78 100z" />
    <glyph glyph-name="question" unicode="?" horiz-adv-x="575" 
d="M275 179q41 0 69 -28t28 -68t-28 -65t-69 -25q-40 0 -68.5 25t-28.5 65t29 68t68 28zM201 219v54q0 39 22 71t69 47l36 11q20 7 31 12.5t22.5 16.5t11.5 25q0 31 -26.5 42.5t-84.5 11.5q-66 0 -112 -17.5t-91 -59.5l-70 98q106 109 272 109q264 0 264 -192
q0 -57 -41.5 -98.5t-106.5 -63.5l-28 -11q-7 -3 -13.5 -14t-6.5 -22v-20h-148z" />
    <glyph glyph-name="at" unicode="@" horiz-adv-x="705" 
d="M402 288v53q-22 12 -53 12q-25 0 -41.5 -17.5t-16.5 -44.5q0 -26 18.5 -42t39.5 -16t37 14t16 41zM512 385v-113q0 -29 17 -29q12 0 20 14.5t8 32.5q0 91 -53 146.5t-154 55.5q-95 0 -149 -52.5t-54 -145.5q0 -94 58.5 -149.5t160.5 -55.5q85 0 148 35l42 -75
q-75 -63 -191 -63q-153 0 -243 83t-90 225q0 139 89.5 221t228.5 82q146 0 230.5 -84.5t84.5 -222.5q0 -55 -34.5 -106t-92.5 -51q-50 0 -96 34q-58 -37 -97 -37q-72 0 -118.5 44.5t-46.5 116.5q0 75 47 118t120 43q54 0 91.5 -15.5t73.5 -51.5z" />
    <glyph glyph-name="A" unicode="A" horiz-adv-x="743" 
d="M361 422l-88 -213h195l-84 213h-23zM267 553h214l235 -553h-156l-35 81h-306l-34 -81h-158z" />
    <glyph glyph-name="B" unicode="B" horiz-adv-x="648" 
d="M47 553h359q76 0 124.5 -42t48.5 -111q0 -60 -39 -87q76 -44 76 -139q0 -73 -52.5 -123.5t-128.5 -50.5h-388v553zM194 421v-74h211q11 0 20.5 11.5t9.5 25.5q0 13 -8.5 25t-26.5 12h-206zM194 219v-86h237q18 0 29.5 11.5t11.5 30.5t-13 31.5t-32 12.5h-233z" />
    <glyph glyph-name="C" unicode="C" horiz-adv-x="675" 
d="M637 409l-114 -65q-32 47 -72.5 69.5t-101.5 22.5q-74 0 -118.5 -43.5t-44.5 -116.5q0 -72 45 -116t118 -44q114 0 173 91l114 -64q-84 -157 -285 -157q-136 0 -223.5 79t-87.5 211q0 131 88.5 210.5t222.5 79.5q200 0 286 -157z" />
    <glyph glyph-name="D" unicode="D" horiz-adv-x="676" 
d="M47 553h291q116 0 207 -79t91 -197t-91 -197.5t-207 -79.5h-291v553zM194 420v-285h146q62 0 105.5 41t43.5 101t-43.5 101.5t-105.5 41.5h-146z" />
    <glyph glyph-name="E" unicode="E" 
d="M47 553h509v-133h-362v-73h325v-133h-325v-78h375v-136h-522v553z" />
    <glyph glyph-name="F" unicode="F" horiz-adv-x="590" 
d="M47 0v553h515v-133h-368v-85h324v-133h-324v-202h-147z" />
    <glyph glyph-name="G" unicode="G" horiz-adv-x="695" 
d="M363 328h278v-328h-91l-18 35q-81 -49 -182 -49q-132 0 -221 79.5t-89 210.5t88.5 210.5t221.5 79.5q98 0 166.5 -36t117.5 -111l-117 -66q-33 44 -68.5 61.5t-99.5 17.5q-75 0 -119 -41.5t-44 -114.5q0 -74 43.5 -115t119.5 -41q92 0 150 36v45l-136 5v122z" />
    <glyph glyph-name="H" unicode="H" horiz-adv-x="659" 
d="M47 553h147v-202h271v202h148v-553h-148v219h-271v-219h-147v553z" />
    <glyph glyph-name="I" unicode="I" horiz-adv-x="241" 
d="M47 553h147v-553h-147v553z" />
    <glyph glyph-name="J" unicode="J" horiz-adv-x="597" 
d="M407 553h144v-306q0 -112 -71.5 -186.5t-206.5 -74.5q-91 0 -158.5 43.5t-99.5 122.5l127 60q14 -43 50.5 -69t81.5 -26q133 0 133 140v296z" />
    <glyph glyph-name="K" unicode="K" horiz-adv-x="661" 
d="M47 553h146v-195h130l133 195h170l-178 -256l190 -297h-175l-136 223h-134v-223h-146v553z" />
    <glyph glyph-name="L" unicode="L" horiz-adv-x="585" 
d="M47 553h147v-420h365v-133h-512v553z" />
    <glyph glyph-name="M" unicode="M" horiz-adv-x="820" 
d="M46 553h188l172 -369h4l186 369h177v-553h-147v348l-161 -348h-118l-158 348v-348h-143v553z" />
    <glyph glyph-name="N" unicode="N" horiz-adv-x="670" 
d="M47 553h134l296 -334v334h146v-553h-135l-296 334v-334h-145v553z" />
    <glyph glyph-name="O" unicode="O" horiz-adv-x="707" 
d="M190 276q0 -74 46.5 -119.5t117.5 -45.5q70 0 116.5 45.5t46.5 119.5t-46.5 119.5t-116.5 45.5q-71 0 -117.5 -45.5t-46.5 -119.5zM665 276q0 -126 -92 -208t-219 -82t-219 82t-92 208t92 208t219 82t219 -82t92 -208z" />
    <glyph glyph-name="P" unicode="P" horiz-adv-x="640" 
d="M47 553h327q101 0 166 -61.5t65 -158.5t-65 -156t-166 -59h-180v-118h-147v553zM194 419v-167h174q40 0 64.5 21t24.5 60t-24.5 62.5t-64.5 23.5h-174z" />
    <glyph glyph-name="Q" unicode="Q" horiz-adv-x="707" 
d="M650 49l-97 -97l-62 60q-64 -26 -137 -26q-127 0 -219 82t-92 208t92 208t219 82t219 -82t92 -208q0 -104 -64 -179zM443 256l58 -59q16 37 16 79q0 74 -46.5 119.5t-116.5 45.5q-71 0 -117.5 -45.5t-46.5 -119.5t46.5 -119.5t117.5 -45.5q25 0 40 -1l-47 48z" />
    <glyph glyph-name="R" unicode="R" horiz-adv-x="634" 
d="M47 553h327q101 0 166 -61.5t65 -158.5q0 -122 -100 -182l84 -151h-160l-63 118h-172v-118h-147v553zM194 419v-167h174q40 0 64.5 21t24.5 60t-24.5 62.5t-64.5 23.5h-174z" />
    <glyph glyph-name="S" unicode="S" horiz-adv-x="660" 
d="M609 478l-71 -108q-89 65 -217 65q-115 0 -115 -45q0 -16 13.5 -21.5t43.5 -9.5l161 -18q197 -24 197 -171q0 -91 -80.5 -137.5t-211.5 -46.5q-88 0 -156.5 21.5t-135.5 72.5l69 114q113 -80 236 -80q60 0 98 13.5t38 40.5q0 16 -7.5 23t-32.5 9l-190 22
q-92 11 -139.5 50.5t-47.5 116.5q0 87 73 132t187 45q174 0 288 -88z" />
    <glyph glyph-name="T" unicode="T" horiz-adv-x="638" 
d="M30 553h578v-132h-215v-421h-148v421h-215v132z" />
    <glyph glyph-name="U" unicode="U" horiz-adv-x="653" 
d="M42 553h147v-283q0 -155 138 -155q137 0 137 155v283h148v-282q0 -136 -76.5 -210.5t-208.5 -74.5t-208.5 74.5t-76.5 210.5v282z" />
    <glyph glyph-name="V" unicode="V" horiz-adv-x="738" 
d="M30 553h165l170 -422h14l168 422h161l-240 -553h-195z" />
    <glyph glyph-name="W" unicode="W" horiz-adv-x="1020" 
d="M30 553h156l127 -428h4l108 428h167l107 -428h4l131 428h155l-201 -553h-191l-91 387l-95 -387h-188z" />
    <glyph glyph-name="X" unicode="X" horiz-adv-x="695" 
d="M31 553h167l138 -204h23l137 204h167l-183 -262l190 -291h-170l-140 218h-26l-138 -218h-171l191 288z" />
    <glyph glyph-name="Y" unicode="Y" horiz-adv-x="717" 
d="M30 553h169l161 -277h4l154 277h169l-257 -415v-138h-145v138z" />
    <glyph glyph-name="Z" unicode="Z" horiz-adv-x="614" 
d="M49 553h523v-124l-341 -303l125 4h218v-130h-534v128l349 299l-125 -4h-215v130z" />
    <glyph glyph-name="bracketleft" unicode="[" horiz-adv-x="275" 
d="M40 668h201v-109h-54v-567h54v-109h-201v785z" />
    <glyph glyph-name="backslash" unicode="\" horiz-adv-x="364" 
d="M16 558l122 35l204 -600l-117 -34z" />
    <glyph glyph-name="bracketright" unicode="]" horiz-adv-x="275" 
d="M35 668h200v-785h-200v108h53v568h-53v109z" />
    <glyph glyph-name="asciicircum" unicode="^" horiz-adv-x="389" 
d="M192 581l162 -155l-83 -80l-79 61l-79 -61l-81 80z" />
    <glyph glyph-name="underscore" unicode="_" horiz-adv-x="536" 
d="M10 -60h516v-112h-516v112z" />
    <glyph glyph-name="grave" unicode="`" horiz-adv-x="217" 
d="M132 802l48 -177l-124 -32l-45 178z" />
    <glyph glyph-name="a" unicode="a" horiz-adv-x="743" 
d="M361 422l-88 -213h195l-84 213h-23zM267 553h214l235 -553h-156l-35 81h-306l-34 -81h-158z" />
    <glyph glyph-name="b" unicode="b" horiz-adv-x="648" 
d="M47 553h359q76 0 124.5 -42t48.5 -111q0 -60 -39 -87q76 -44 76 -139q0 -73 -52.5 -123.5t-128.5 -50.5h-388v553zM194 421v-74h211q11 0 20.5 11.5t9.5 25.5q0 13 -8.5 25t-26.5 12h-206zM194 219v-86h237q18 0 29.5 11.5t11.5 30.5t-13 31.5t-32 12.5h-233z" />
    <glyph glyph-name="c" unicode="c" horiz-adv-x="675" 
d="M637 409l-114 -65q-32 47 -72.5 69.5t-101.5 22.5q-74 0 -118.5 -43.5t-44.5 -116.5q0 -72 45 -116t118 -44q114 0 173 91l114 -64q-84 -157 -285 -157q-136 0 -223.5 79t-87.5 211q0 131 88.5 210.5t222.5 79.5q200 0 286 -157z" />
    <glyph glyph-name="d" unicode="d" horiz-adv-x="676" 
d="M47 553h291q116 0 207 -79t91 -197t-91 -197.5t-207 -79.5h-291v553zM194 420v-285h146q62 0 105.5 41t43.5 101t-43.5 101.5t-105.5 41.5h-146z" />
    <glyph glyph-name="e" unicode="e" 
d="M47 553h509v-133h-362v-73h325v-133h-325v-78h375v-136h-522v553z" />
    <glyph glyph-name="f" unicode="f" horiz-adv-x="590" 
d="M47 0v553h515v-133h-368v-85h324v-133h-324v-202h-147z" />
    <glyph glyph-name="g" unicode="g" horiz-adv-x="695" 
d="M363 328h278v-328h-91l-18 35q-81 -49 -182 -49q-132 0 -221 79.5t-89 210.5t88.5 210.5t221.5 79.5q98 0 166.5 -36t117.5 -111l-117 -66q-33 44 -68.5 61.5t-99.5 17.5q-75 0 -119 -41.5t-44 -114.5q0 -74 43.5 -115t119.5 -41q92 0 150 36v45l-136 5v122z" />
    <glyph glyph-name="h" unicode="h" horiz-adv-x="659" 
d="M47 553h147v-202h271v202h148v-553h-148v219h-271v-219h-147v553z" />
    <glyph glyph-name="i" unicode="i" horiz-adv-x="241" 
d="M47 553h147v-553h-147v553z" />
    <glyph glyph-name="j" unicode="j" horiz-adv-x="597" 
d="M407 553h144v-306q0 -112 -71.5 -186.5t-206.5 -74.5q-91 0 -158.5 43.5t-99.5 122.5l127 60q14 -43 50.5 -69t81.5 -26q133 0 133 140v296z" />
    <glyph glyph-name="k" unicode="k" horiz-adv-x="661" 
d="M47 553h146v-195h130l133 195h170l-178 -256l190 -297h-175l-136 223h-134v-223h-146v553z" />
    <glyph glyph-name="l" unicode="l" horiz-adv-x="585" 
d="M47 553h147v-420h365v-133h-512v553z" />
    <glyph glyph-name="m" unicode="m" horiz-adv-x="820" 
d="M46 553h188l172 -369h4l186 369h177v-553h-147v348l-161 -348h-118l-158 348v-348h-143v553z" />
    <glyph glyph-name="n" unicode="n" horiz-adv-x="670" 
d="M47 553h134l296 -334v334h146v-553h-135l-296 334v-334h-145v553z" />
    <glyph glyph-name="o" unicode="o" horiz-adv-x="707" 
d="M190 276q0 -74 46.5 -119.5t117.5 -45.5q70 0 116.5 45.5t46.5 119.5t-46.5 119.5t-116.5 45.5q-71 0 -117.5 -45.5t-46.5 -119.5zM665 276q0 -126 -92 -208t-219 -82t-219 82t-92 208t92 208t219 82t219 -82t92 -208z" />
    <glyph glyph-name="p" unicode="p" horiz-adv-x="635" 
d="M47 553h327q101 0 166 -61.5t65 -158.5t-65 -156t-166 -59h-180v-118h-147v553zM194 419v-167h174q40 0 64.5 21t24.5 60t-24.5 62.5t-64.5 23.5h-174z" />
    <glyph glyph-name="q" unicode="q" horiz-adv-x="707" 
d="M650 49l-97 -97l-62 60q-64 -26 -137 -26q-127 0 -219 82t-92 208t92 208t219 82t219 -82t92 -208q0 -104 -64 -179zM443 256l58 -59q16 37 16 79q0 74 -46.5 119.5t-116.5 45.5q-71 0 -117.5 -45.5t-46.5 -119.5t46.5 -119.5t117.5 -45.5q25 0 40 -1l-47 48z" />
    <glyph glyph-name="r" unicode="r" horiz-adv-x="633" 
d="M47 553h327q101 0 166 -61.5t65 -158.5q0 -122 -100 -182l84 -151h-160l-63 118h-172v-118h-147v553zM194 419v-167h174q40 0 64.5 21t24.5 60t-24.5 62.5t-64.5 23.5h-174z" />
    <glyph glyph-name="s" unicode="s" horiz-adv-x="660" 
d="M609 478l-71 -108q-89 65 -217 65q-115 0 -115 -45q0 -16 13.5 -21.5t43.5 -9.5l161 -18q197 -24 197 -171q0 -91 -80.5 -137.5t-211.5 -46.5q-88 0 -156.5 21.5t-135.5 72.5l69 114q113 -80 236 -80q60 0 98 13.5t38 40.5q0 16 -7.5 23t-32.5 9l-190 22
q-92 11 -139.5 50.5t-47.5 116.5q0 87 73 132t187 45q174 0 288 -88z" />
    <glyph glyph-name="t" unicode="t" horiz-adv-x="638" 
d="M30 553h578v-132h-215v-421h-148v421h-215v132z" />
    <glyph glyph-name="u" unicode="u" horiz-adv-x="653" 
d="M42 553h147v-283q0 -155 138 -155q137 0 137 155v283h148v-282q0 -136 -76.5 -210.5t-208.5 -74.5t-208.5 74.5t-76.5 210.5v282z" />
    <glyph glyph-name="v" unicode="v" horiz-adv-x="738" 
d="M30 553h165l170 -422h14l168 422h161l-240 -553h-195z" />
    <glyph glyph-name="w" unicode="w" horiz-adv-x="1017" 
d="M30 553h156l127 -428h4l108 428h167l107 -428h4l131 428h155l-201 -553h-191l-91 387l-95 -387h-188z" />
    <glyph glyph-name="x" unicode="x" horiz-adv-x="695" 
d="M31 553h167l138 -204h23l137 204h167l-183 -262l190 -291h-170l-140 218h-26l-138 -218h-171l191 288z" />
    <glyph glyph-name="y" unicode="y" horiz-adv-x="717" 
d="M30 553h169l161 -277h4l154 277h169l-257 -415v-138h-145v138z" />
    <glyph glyph-name="z" unicode="z" horiz-adv-x="614" 
d="M49 553h523v-124l-341 -303l125 4h218v-130h-534v128l349 299l-125 -4h-215v130z" />
    <glyph glyph-name="braceleft" unicode="{" horiz-adv-x="335" 
d="M315 -15v-120h-53q-83 0 -122.5 45.5t-39.5 125.5v110q0 25 -14 43t-37 18h-25v133h25q23 0 37 18t14 43v110q0 80 39.5 125t122.5 45h53v-119h-29q-50 0 -50 -51v-124q0 -79 -59 -114q59 -35 59 -113v-124q0 -51 50 -51h29z" />
    <glyph glyph-name="bar" unicode="|" horiz-adv-x="224" 
d="M177 586v-620h-130v620h130z" />
    <glyph glyph-name="braceright" unicode="}" horiz-adv-x="335" 
d="M20 -135v120h29q50 0 50 51v124q0 77 58 113q-58 36 -58 114v124q0 51 -50 51h-29v119h52q84 0 123.5 -45t39.5 -125v-110q0 -25 14 -43t37 -18h25v-133h-25q-23 0 -37 -18t-14 -43v-110q0 -80 -39.5 -125.5t-123.5 -45.5h-52z" />
    <glyph glyph-name="asciitilde" unicode="~" horiz-adv-x="435" 
d="M359 353l56 -69q-40 -74 -118 -74q-34 0 -76.5 19t-66.5 19q-34 0 -61 -34l-66 64q47 86 134 86q38 0 77 -18t60 -18q38 0 61 25z" />
    <glyph glyph-name="exclamdown" unicode="&#xa1;" horiz-adv-x="263" 
d="M199 341v-420h-138v420h138zM129 378q-37 0 -65.5 28t-28.5 66q0 41 28 68.5t66 27.5q41 0 68.5 -27.5t27.5 -68.5q0 -38 -27.5 -66t-68.5 -28z" />
    <glyph glyph-name="cent" unicode="&#xa2;" horiz-adv-x="682" 
d="M278 603h136l3 -62q73 -11 127 -48.5t100 -104.5l-115 -65q-36 48 -76 70.5t-101 22.5q-75 0 -120 -40.5t-45 -109.5q0 -68 45.5 -108.5t119.5 -40.5q61 0 101.5 22.5t75.5 69.5l114 -65q-90 -135 -225 -153l-3 -81h-137l-4 84q-105 21 -169.5 94t-64.5 178
q0 104 65.5 177.5t170.5 95.5z" />
    <glyph glyph-name="brokenbar" unicode="&#xa6;" horiz-adv-x="224" 
d="M177 303h-130v283h130v-283zM177 -34h-130v283h130v-283z" />
    <glyph glyph-name="section" unicode="&#xa7;" horiz-adv-x="636" 
d="M527 618l-64 -97q-74 37 -155 37q-85 0 -85 -43q0 -30 37 -35l105 -14q192 -25 192 -175q0 -92 -71 -135q42 -39 42 -106q0 -80 -68.5 -126.5t-174.5 -46.5q-79 0 -127.5 14.5t-110.5 55.5l58 98q48 -25 84.5 -33.5t97.5 -8.5q46 0 70.5 13t24.5 32t-8 27.5t-30 11.5
l-114 17q-191 29 -191 175q0 42 21 78.5t60 57.5q-43 32 -43 101q0 58 35.5 98t85.5 56t107 16q127 0 222 -68zM362 330l-141 21q-33 -15 -33 -55q0 -27 9 -39.5t37 -16.5l126 -17q47 16 47 65q0 36 -45 42z" />
    <glyph glyph-name="dieresis" unicode="&#xa8;" horiz-adv-x="464" 
d="M114 756q31 0 54.5 -22.5t23.5 -53.5q0 -32 -23.5 -56t-54.5 -24t-55 24t-24 56q0 31 23.5 53.5t55.5 22.5zM351 756q31 0 55 -22.5t24 -53.5t-24 -55.5t-55 -24.5t-54 24t-23 56q0 31 23 53.5t54 22.5z" />
    <glyph glyph-name="copyright" unicode="&#xa9;" horiz-adv-x="729" 
d="M26 291q0 145 97 234.5t240 89.5t241.5 -90t98.5 -234t-98.5 -234t-241.5 -90t-240 89.5t-97 234.5zM519 397l-55 -58q-39 36 -96 36q-82 0 -82 -83q0 -84 82 -84q56 0 95 36l56 -57q-60 -63 -151 -63q-77 0 -129 46t-52 122t52 122t129 46q89 0 151 -63zM596 291
q0 102 -67 162.5t-164 60.5q-96 0 -162.5 -60.5t-66.5 -162.5t66.5 -162.5t162.5 -60.5q97 0 164 60.5t67 162.5z" />
    <glyph glyph-name="guillemotleft" unicode="&#xab;" horiz-adv-x="499" 
d="M196 461l74 -74l-83 -103l83 -101l-74 -74l-175 175zM400 465l74 -74l-87 -107l87 -104l-74 -74l-179 178z" />
    <glyph glyph-name="uni00AD" unicode="&#xad;" horiz-adv-x="395" 
d="M40 346h315v-129h-315v129z" />
    <glyph glyph-name="registered" unicode="&#xae;" horiz-adv-x="464" 
d="M94 418q0 -60 36 -98t102 -38q67 0 103 38t36 98q0 57 -39.5 96t-99.5 39q-67 0 -102.5 -37.5t-35.5 -97.5zM149 509h107q34 0 56 -19.5t22 -47.5q0 -41 -29 -59l25 -54h-60l-12 33h-52v-33h-57v180zM206 458v-45h42q30 0 30 22q0 23 -30 23h-42zM30 415q0 84 58.5 140
t143.5 56q84 0 143.5 -56t59.5 -140t-58.5 -139.5t-144.5 -55.5q-85 0 -143.5 56t-58.5 139z" />
    <glyph glyph-name="macron" unicode="&#xaf;" horiz-adv-x="464" 
d="M39 719h388v-113h-388v113z" />
    <glyph glyph-name="degree" unicode="&#xb0;" horiz-adv-x="363" 
d="M166 299q-59 0 -99.5 36.5t-40.5 95.5t40.5 95.5t99.5 36.5q60 0 100.5 -36.5t40.5 -95.5t-40.5 -95.5t-100.5 -36.5zM166 393q16 0 28 9.5t12 28.5q0 35 -40 35q-37 0 -37 -35q0 -19 11 -28.5t26 -9.5z" />
    <glyph glyph-name="plusminus" unicode="&#xb1;" horiz-adv-x="432" 
d="M29 413h119v124h136v-124h118v-120h-118v-118h-136v118h-119v120zM28 145h376v-115h-376v115z" />
    <glyph glyph-name="acute" unicode="&#xb4;" horiz-adv-x="205" 
d="M11 625l48 177l121 -31l-44 -178z" />
    <glyph glyph-name="paragraph" unicode="&#xb6;" horiz-adv-x="599" 
d="M536 651l7 -86l-61 -25v-540h-97v554h-71v-554h-99v329q-68 0 -105.5 50t-37.5 112q0 61 38 110.5t105 49.5h321z" />
    <glyph glyph-name="periodcentered" unicode="&#xb7;" horiz-adv-x="262" 
d="M126 395q38 0 65.5 -27.5t27.5 -65.5t-27.5 -65t-65.5 -27q-37 0 -64 27.5t-27 64.5q0 38 27 65.5t64 27.5z" />
    <glyph glyph-name="cedilla" unicode="&#xb8;" horiz-adv-x="238" 
d="M72 22l80 -5v-40q33 -3 54.5 -28t21.5 -64q0 -49 -40 -74.5t-102 -25.5q-34 0 -72 16l22 65q24 -9 51 -9q46 0 46 28q0 24 -20 24h-45l-6 6z" />
    <glyph glyph-name="guillemotright" unicode="&#xbb;" horiz-adv-x="499" 
d="M224 387l73 74l176 -177l-176 -175l-73 74l83 101zM20 391l74 74l178 -181l-178 -178l-74 74l86 104z" />
    <glyph glyph-name="questiondown" unicode="&#xbf;" horiz-adv-x="575" 
d="M288 374q-41 0 -69 28t-28 68t28 65t69 25q40 0 68.5 -25t28.5 -65t-29 -68t-68 -28zM362 334v-54q0 -39 -22 -71t-69 -47l-36 -11q-20 -7 -31 -12.5t-22.5 -16.5t-11.5 -25q0 -31 26.5 -42.5t84.5 -11.5q66 0 112 17.5t91 59.5l70 -98q-106 -109 -272 -109
q-264 0 -264 192q0 57 41.5 98.5t106.5 63.5l28 11q7 3 13.5 14.5t6.5 21.5v20h148z" />
    <glyph glyph-name="Agrave" unicode="&#xc0;" horiz-adv-x="743" 
d="M361 422l-88 -213h195l-84 213h-23zM267 553h214l235 -553h-156l-35 81h-306l-34 -81h-158zM387 802l48 -177l-124 -32l-45 178z" />
    <glyph glyph-name="Aacute" unicode="&#xc1;" horiz-adv-x="743" 
d="M361 422l-88 -213h195l-84 213h-23zM267 553h214l235 -553h-156l-35 81h-306l-34 -81h-158zM315 626l48 177l121 -31l-44 -178z" />
    <glyph glyph-name="Acircumflex" unicode="&#xc2;" horiz-adv-x="743" 
d="M361 422l-88 -213h195l-84 213h-23zM267 553h214l235 -553h-156l-35 81h-306l-34 -81h-158zM461 595l-90 58l-92 -58l-57 75l149 110l150 -110z" />
    <glyph glyph-name="Atilde" unicode="&#xc3;" horiz-adv-x="743" 
d="M361 422l-88 -213h195l-84 213h-23zM267 553h214l235 -553h-156l-35 81h-306l-34 -81h-158zM509 732l56 -69q-40 -74 -118 -74q-34 0 -76.5 19t-66.5 19q-34 0 -61 -34l-66 64q47 86 134 86q38 0 77 -18t60 -18q38 0 61 25z" />
    <glyph glyph-name="Adieresis" unicode="&#xc4;" horiz-adv-x="743" 
d="M361 422l-88 -213h195l-84 213h-23zM267 553h214l235 -553h-156l-35 81h-306l-34 -81h-158zM244 756q31 0 54.5 -22.5t23.5 -53.5q0 -32 -23.5 -56t-54.5 -24t-55 24t-24 56q0 31 23.5 53.5t55.5 22.5zM481 756q31 0 55 -22.5t24 -53.5t-24 -55.5t-55 -24.5t-54 24
t-23 56q0 31 23 53.5t54 22.5z" />
    <glyph glyph-name="Aring" unicode="&#xc5;" horiz-adv-x="743" 
d="M361 422l-88 -213h195l-84 213h-23zM267 553h214l235 -553h-156l-35 81h-306l-34 -81h-158zM501 719q0 -56 -38.5 -91.5t-92.5 -35.5t-92.5 35.5t-38.5 91.5t38.5 92t92.5 36t92.5 -36t38.5 -92zM334 719q0 -38 36 -38t36 38q0 39 -36 39t-36 -39z" />
    <glyph glyph-name="AE" unicode="&#xc6;" horiz-adv-x="1083" 
d="M385 553h643v-131h-374v-73h338v-130h-338v-83h392v-136h-540v92h-258l-65 -92h-174zM457 422l-118 -198h167v198h-49z" />
    <glyph glyph-name="Ccedilla" unicode="&#xc7;" horiz-adv-x="675" 
d="M637 409l-114 -65q-32 47 -72.5 69.5t-101.5 22.5q-74 0 -118.5 -43.5t-44.5 -116.5q0 -72 45 -116t118 -44q114 0 173 91l114 -64q-78 -142 -251 -156v-26q33 -3 54.5 -28t21.5 -64q0 -49 -40 -74.5t-102 -25.5q-34 0 -72 16l22 65q25 -9 52 -9q45 0 45 28q0 24 -20 24
h-45l-6 6l8 90q-117 13 -190 90t-73 197q0 131 88.5 210.5t222.5 79.5q200 0 286 -157z" />
    <glyph glyph-name="Egrave" unicode="&#xc8;" 
d="M47 553h509v-133h-362v-73h325v-133h-325v-78h375v-136h-522v553zM355 802l48 -177l-124 -32l-45 178z" />
    <glyph glyph-name="Eacute" unicode="&#xc9;" 
d="M47 553h509v-133h-362v-73h325v-133h-325v-78h375v-136h-522v553zM221 625l48 177l121 -31l-44 -178z" />
    <glyph glyph-name="Ecircumflex" unicode="&#xca;" 
d="M47 553h509v-133h-362v-73h325v-133h-325v-78h375v-136h-522v553zM405 595l-90 58l-92 -58l-57 75l149 110l150 -110z" />
    <glyph glyph-name="Edieresis" unicode="&#xcb;" 
d="M47 553h509v-133h-362v-73h325v-133h-325v-78h375v-136h-522v553zM192 756q31 0 54.5 -22.5t23.5 -53.5q0 -32 -23.5 -56t-54.5 -24t-55 24t-24 56q0 31 23.5 53.5t55.5 22.5zM429 756q31 0 55 -22.5t24 -53.5t-24 -55.5t-55 -24.5t-54 24t-23 56q0 31 23 53.5t54 22.5z
" />
    <glyph glyph-name="Igrave" unicode="&#xcc;" horiz-adv-x="241" 
d="M47 553h147v-553h-147v553zM175 802l48 -177l-124 -32l-45 178z" />
    <glyph glyph-name="Iacute" unicode="&#xcd;" horiz-adv-x="241" 
d="M47 553h147v-553h-147v553zM37 625l48 177l121 -31l-44 -178z" />
    <glyph glyph-name="Icircumflex" unicode="&#xce;" horiz-adv-x="241" 
d="M47 553h147v-553h-147v553zM221 595l-90 58l-92 -58l-57 75l149 110l150 -110z" />
    <glyph glyph-name="Idieresis" unicode="&#xcf;" horiz-adv-x="241" 
d="M47 553h147v-553h-147v553zM6 756q31 0 54.5 -22.5t23.5 -53.5q0 -32 -23.5 -56t-54.5 -24t-55 24t-24 56q0 31 23.5 53.5t55.5 22.5zM243 756q31 0 55 -22.5t24 -53.5t-24 -55.5t-55 -24.5t-54 24t-23 56q0 31 23 53.5t54 22.5z" />
    <glyph glyph-name="Eth" unicode="&#xd0;" horiz-adv-x="709" 
d="M79 553h291q116 0 207.5 -79t91.5 -197t-91 -197.5t-208 -79.5h-291v217h-69v130h69v206zM227 420v-73h123v-130h-123v-82h145q62 0 105.5 41t43.5 101t-43.5 101.5t-105.5 41.5h-145z" />
    <glyph glyph-name="Ntilde" unicode="&#xd1;" horiz-adv-x="670" 
d="M47 553h134l296 -334v334h146v-553h-135l-296 334v-334h-145v553zM485 743l56 -69q-40 -74 -118 -74q-34 0 -76.5 19t-66.5 19q-34 0 -61 -34l-66 64q47 86 134 86q38 0 77 -18t60 -18q38 0 61 25z" />
    <glyph glyph-name="Ograve" unicode="&#xd2;" horiz-adv-x="707" 
d="M190 276q0 -74 46.5 -119.5t117.5 -45.5q70 0 116.5 45.5t46.5 119.5t-46.5 119.5t-116.5 45.5q-71 0 -117.5 -45.5t-46.5 -119.5zM665 276q0 -126 -92 -208t-219 -82t-219 82t-92 208t92 208t219 82t219 -82t92 -208zM367 802l48 -177l-124 -32l-45 178z" />
    <glyph glyph-name="Oacute" unicode="&#xd3;" horiz-adv-x="707" 
d="M190 276q0 -74 46.5 -119.5t117.5 -45.5q70 0 116.5 45.5t46.5 119.5t-46.5 119.5t-116.5 45.5q-71 0 -117.5 -45.5t-46.5 -119.5zM665 276q0 -126 -92 -208t-219 -82t-219 82t-92 208t92 208t219 82t219 -82t92 -208zM303 625l48 177l121 -31l-44 -178z" />
    <glyph glyph-name="Ocircumflex" unicode="&#xd4;" horiz-adv-x="707" 
d="M190 276q0 -74 46.5 -119.5t117.5 -45.5q70 0 116.5 45.5t46.5 119.5t-46.5 119.5t-116.5 45.5q-71 0 -117.5 -45.5t-46.5 -119.5zM665 276q0 -126 -92 -208t-219 -82t-219 82t-92 208t92 208t219 82t219 -82t92 -208zM443 595l-90 58l-92 -58l-57 75l149 110l150 -110z
" />
    <glyph glyph-name="Otilde" unicode="&#xd5;" horiz-adv-x="707" 
d="M190 276q0 -74 46.5 -119.5t117.5 -45.5q70 0 116.5 45.5t46.5 119.5t-46.5 119.5t-116.5 45.5q-71 0 -117.5 -45.5t-46.5 -119.5zM665 276q0 -126 -92 -208t-219 -82t-219 82t-92 208t92 208t219 82t219 -82t92 -208zM492 743l56 -69q-40 -74 -118 -74q-34 0 -76.5 19
t-66.5 19q-34 0 -61 -34l-66 64q47 86 134 86q38 0 77 -18t60 -18q38 0 61 25z" />
    <glyph glyph-name="Odieresis" unicode="&#xd6;" horiz-adv-x="707" 
d="M190 276q0 -74 46.5 -119.5t117.5 -45.5q70 0 116.5 45.5t46.5 119.5t-46.5 119.5t-116.5 45.5q-71 0 -117.5 -45.5t-46.5 -119.5zM665 276q0 -126 -92 -208t-219 -82t-219 82t-92 208t92 208t219 82t219 -82t92 -208zM235 756q31 0 54.5 -22.5t23.5 -53.5
q0 -32 -23.5 -56t-54.5 -24t-55 24t-24 56q0 31 23.5 53.5t55.5 22.5zM472 756q31 0 55 -22.5t24 -53.5t-24 -55.5t-55 -24.5t-54 24t-23 56q0 31 23 53.5t54 22.5z" />
    <glyph glyph-name="multiply" unicode="&#xd7;" horiz-adv-x="432" 
d="M137 461l84 -83l86 86l89 -88l-86 -86l84 -84l-86 -85l-83 83l-83 -82l-88 89l83 81l-84 84z" />
    <glyph glyph-name="Oslash" unicode="&#xd8;" horiz-adv-x="707" 
d="M467 592l114 -58l-23 -37q107 -85 107 -220q0 -126 -91.5 -207t-219.5 -81q-45 0 -91 11l-27 -44l-108 58l23 40q-108 86 -108 223q0 127 91.5 208t219.5 81q48 0 91 -13zM220 171l158 270h-24q-71 0 -117.5 -44.5t-46.5 -119.5q0 -63 30 -106zM489 380l-160 -267
q5 0 13 0.5t12 0.5q70 0 116.5 44.5t46.5 118.5q0 59 -28 103z" />
    <glyph glyph-name="Ugrave" unicode="&#xd9;" horiz-adv-x="653" 
d="M42 553h147v-283q0 -155 138 -155q137 0 137 155v283h148v-282q0 -136 -76.5 -210.5t-208.5 -74.5t-208.5 74.5t-76.5 210.5v282zM335 802l48 -177l-124 -32l-45 178z" />
    <glyph glyph-name="Uacute" unicode="&#xda;" horiz-adv-x="653" 
d="M42 553h147v-283q0 -155 138 -155q137 0 137 155v283h148v-282q0 -136 -76.5 -210.5t-208.5 -74.5t-208.5 74.5t-76.5 210.5v282zM274 625l48 177l121 -31l-44 -178z" />
    <glyph glyph-name="Ucircumflex" unicode="&#xdb;" horiz-adv-x="653" 
d="M42 553h147v-283q0 -155 138 -155q137 0 137 155v283h148v-282q0 -136 -76.5 -210.5t-208.5 -74.5t-208.5 74.5t-76.5 210.5v282zM419 595l-90 58l-92 -58l-57 75l149 110l150 -110z" />
    <glyph glyph-name="Udieresis" unicode="&#xdc;" horiz-adv-x="653" 
d="M42 553h147v-283q0 -155 138 -155q137 0 137 155v283h148v-282q0 -136 -76.5 -210.5t-208.5 -74.5t-208.5 74.5t-76.5 210.5v282zM208 756q31 0 54.5 -22.5t23.5 -53.5q0 -32 -23.5 -56t-54.5 -24t-55 24t-24 56q0 31 23.5 53.5t55.5 22.5zM445 756q31 0 55 -22.5
t24 -53.5t-24 -55.5t-55 -24.5t-54 24t-23 56q0 31 23 53.5t54 22.5z" />
    <glyph glyph-name="Yacute" unicode="&#xdd;" horiz-adv-x="717" 
d="M30 553h169l161 -277h4l154 277h169l-257 -415v-138h-145v138zM299 625l48 177l121 -31l-44 -178z" />
    <glyph glyph-name="Thorn" unicode="&#xde;" horiz-adv-x="629" 
d="M47 553h147v-59h179q92 0 157 -63.5t65 -154.5t-65 -153.5t-157 -62.5h-179v-60h-147v553zM194 361v-168h175q38 0 59 23.5t21 59.5t-21 60.5t-59 24.5h-175z" />
    <glyph glyph-name="agrave" unicode="&#xe0;" horiz-adv-x="743" 
d="M361 422l-88 -213h195l-84 213h-23zM267 553h214l235 -553h-156l-35 81h-306l-34 -81h-158zM387 802l48 -177l-124 -32l-45 178z" />
    <glyph glyph-name="aacute" unicode="&#xe1;" horiz-adv-x="743" 
d="M361 422l-88 -213h195l-84 213h-23zM267 553h214l235 -553h-156l-35 81h-306l-34 -81h-158zM315 626l48 177l121 -31l-44 -178z" />
    <glyph glyph-name="acircumflex" unicode="&#xe2;" horiz-adv-x="743" 
d="M361 422l-88 -213h195l-84 213h-23zM267 553h214l235 -553h-156l-35 81h-306l-34 -81h-158zM461 595l-90 58l-92 -58l-57 75l149 110l150 -110z" />
    <glyph glyph-name="atilde" unicode="&#xe3;" horiz-adv-x="743" 
d="M361 422l-88 -213h195l-84 213h-23zM267 553h214l235 -553h-156l-35 81h-306l-34 -81h-158zM509 743l56 -69q-40 -74 -118 -74q-34 0 -76.5 19t-66.5 19q-34 0 -61 -34l-66 64q47 86 134 86q38 0 77 -18t60 -18q38 0 61 25z" />
    <glyph glyph-name="adieresis" unicode="&#xe4;" horiz-adv-x="743" 
d="M361 422l-88 -213h195l-84 213h-23zM267 553h214l235 -553h-156l-35 81h-306l-34 -81h-158zM252 756q31 0 54.5 -22.5t23.5 -53.5q0 -32 -23.5 -56t-54.5 -24t-55 24t-24 56q0 31 23.5 53.5t55.5 22.5zM489 756q31 0 55 -22.5t24 -53.5t-24 -55.5t-55 -24.5t-54 24
t-23 56q0 31 23 53.5t54 22.5z" />
    <glyph glyph-name="aring" unicode="&#xe5;" horiz-adv-x="743" 
d="M361 422l-88 -213h195l-84 213h-23zM267 553h214l235 -553h-156l-35 81h-306l-34 -81h-158zM501 719q0 -56 -38.5 -91.5t-92.5 -35.5t-92.5 35.5t-38.5 91.5t38.5 92t92.5 36t92.5 -36t38.5 -92zM334 719q0 -38 36 -38t36 38q0 39 -36 39t-36 -39z" />
    <glyph glyph-name="ae" unicode="&#xe6;" horiz-adv-x="1083" 
d="M385 553h643v-131h-374v-73h338v-130h-338v-83h392v-136h-540v92h-258l-65 -92h-174zM457 422l-118 -198h167v198h-49z" />
    <glyph glyph-name="ccedilla" unicode="&#xe7;" horiz-adv-x="675" 
d="M637 409l-114 -65q-32 47 -72.5 69.5t-101.5 22.5q-74 0 -118.5 -43.5t-44.5 -116.5q0 -72 45 -116t118 -44q114 0 173 91l114 -64q-78 -142 -251 -156v-26q33 -3 54.5 -28t21.5 -64q0 -49 -40 -74.5t-102 -25.5q-34 0 -72 16l22 65q25 -9 52 -9q45 0 45 28q0 24 -20 24
h-45l-6 6l8 90q-117 13 -190 90t-73 197q0 131 88.5 210.5t222.5 79.5q200 0 286 -157z" />
    <glyph glyph-name="egrave" unicode="&#xe8;" 
d="M47 553h509v-133h-362v-73h325v-133h-325v-78h375v-136h-522v553zM355 802l48 -177l-124 -32l-45 178z" />
    <glyph glyph-name="eacute" unicode="&#xe9;" 
d="M47 553h509v-133h-362v-73h325v-133h-325v-78h375v-136h-522v553zM242 625l48 177l121 -31l-44 -178z" />
    <glyph glyph-name="ecircumflex" unicode="&#xea;" 
d="M47 553h509v-133h-362v-73h325v-133h-325v-78h375v-136h-522v553zM405 595l-90 58l-92 -58l-57 75l149 110l150 -110z" />
    <glyph glyph-name="edieresis" unicode="&#xeb;" 
d="M47 553h509v-133h-362v-73h325v-133h-325v-78h375v-136h-522v553zM192 756q31 0 54.5 -22.5t23.5 -53.5q0 -32 -23.5 -56t-54.5 -24t-55 24t-24 56q0 31 23.5 53.5t55.5 22.5zM429 756q31 0 55 -22.5t24 -53.5t-24 -55.5t-55 -24.5t-54 24t-23 56q0 31 23 53.5t54 22.5z
" />
    <glyph glyph-name="igrave" unicode="&#xec;" horiz-adv-x="241" 
d="M47 553h147v-553h-147v553zM140 802l48 -177l-124 -32l-45 178z" />
    <glyph glyph-name="iacute" unicode="&#xed;" horiz-adv-x="241" 
d="M47 553h147v-553h-147v553zM62 625l48 177l121 -31l-44 -178z" />
    <glyph glyph-name="icircumflex" unicode="&#xee;" horiz-adv-x="241" 
d="M47 553h147v-553h-147v553zM221 595l-90 58l-92 -58l-57 75l149 110l150 -110z" />
    <glyph glyph-name="idieresis" unicode="&#xef;" horiz-adv-x="241" 
d="M47 553h147v-553h-147v553zM6 756q31 0 54.5 -22.5t23.5 -53.5q0 -32 -23.5 -56t-54.5 -24t-55 24t-24 56q0 31 23.5 53.5t55.5 22.5zM243 756q31 0 55 -22.5t24 -53.5t-24 -55.5t-55 -24.5t-54 24t-23 56q0 31 23 53.5t54 22.5z" />
    <glyph glyph-name="eth" unicode="&#xf0;" horiz-adv-x="709" 
d="M79 553h291q116 0 207.5 -79t91.5 -197t-91 -197.5t-208 -79.5h-291v217h-69v130h69v206zM227 420v-73h123v-130h-123v-82h145q62 0 105.5 41t43.5 101t-43.5 101.5t-105.5 41.5h-145z" />
    <glyph glyph-name="ntilde" unicode="&#xf1;" horiz-adv-x="670" 
d="M47 553h134l296 -334v334h146v-553h-135l-296 334v-334h-145v553zM472 743l56 -69q-40 -74 -118 -74q-34 0 -76.5 19t-66.5 19q-34 0 -61 -34l-66 64q47 86 134 86q38 0 77 -18t60 -18q38 0 61 25z" />
    <glyph glyph-name="ograve" unicode="&#xf2;" horiz-adv-x="707" 
d="M190 276q0 -74 46.5 -119.5t117.5 -45.5q70 0 116.5 45.5t46.5 119.5t-46.5 119.5t-116.5 45.5q-71 0 -117.5 -45.5t-46.5 -119.5zM665 276q0 -126 -92 -208t-219 -82t-219 82t-92 208t92 208t219 82t219 -82t92 -208zM368 802l48 -177l-124 -32l-45 178z" />
    <glyph glyph-name="oacute" unicode="&#xf3;" horiz-adv-x="707" 
d="M190 276q0 -74 46.5 -119.5t117.5 -45.5q70 0 116.5 45.5t46.5 119.5t-46.5 119.5t-116.5 45.5q-71 0 -117.5 -45.5t-46.5 -119.5zM665 276q0 -126 -92 -208t-219 -82t-219 82t-92 208t92 208t219 82t219 -82t92 -208zM293 625l48 177l121 -31l-44 -178z" />
    <glyph glyph-name="ocircumflex" unicode="&#xf4;" horiz-adv-x="707" 
d="M190 276q0 -74 46.5 -119.5t117.5 -45.5q70 0 116.5 45.5t46.5 119.5t-46.5 119.5t-116.5 45.5q-71 0 -117.5 -45.5t-46.5 -119.5zM665 276q0 -126 -92 -208t-219 -82t-219 82t-92 208t92 208t219 82t219 -82t92 -208zM443 595l-90 58l-92 -58l-57 75l149 110l150 -110z
" />
    <glyph glyph-name="otilde" unicode="&#xf5;" horiz-adv-x="707" 
d="M190 276q0 -74 46.5 -119.5t117.5 -45.5q70 0 116.5 45.5t46.5 119.5t-46.5 119.5t-116.5 45.5q-71 0 -117.5 -45.5t-46.5 -119.5zM665 276q0 -126 -92 -208t-219 -82t-219 82t-92 208t92 208t219 82t219 -82t92 -208zM477 741l56 -69q-40 -74 -118 -74q-34 0 -76.5 19
t-66.5 19q-34 0 -61 -34l-66 64q47 86 134 86q38 0 77 -18t60 -18q38 0 61 25z" />
    <glyph glyph-name="odieresis" unicode="&#xf6;" horiz-adv-x="707" 
d="M190 276q0 -74 46.5 -119.5t117.5 -45.5q70 0 116.5 45.5t46.5 119.5t-46.5 119.5t-116.5 45.5q-71 0 -117.5 -45.5t-46.5 -119.5zM665 276q0 -126 -92 -208t-219 -82t-219 82t-92 208t92 208t219 82t219 -82t92 -208zM235 756q31 0 54.5 -22.5t23.5 -53.5
q0 -32 -23.5 -56t-54.5 -24t-55 24t-24 56q0 31 23.5 53.5t55.5 22.5zM472 756q31 0 55 -22.5t24 -53.5t-24 -55.5t-55 -24.5t-54 24t-23 56q0 31 23 53.5t54 22.5z" />
    <glyph glyph-name="divide" unicode="&#xf7;" horiz-adv-x="369" 
d="M187 529q34 0 57.5 -24t23.5 -57q0 -34 -23.5 -58.5t-57.5 -24.5t-58 24.5t-24 58.5q0 33 24 57t58 24zM187 198q34 0 57.5 -23.5t23.5 -56.5q0 -34 -23 -56.5t-58 -22.5q-34 0 -58 22t-24 56q0 33 24 57t58 24zM27 332h314v-114h-314v114z" />
    <glyph glyph-name="oslash" unicode="&#xf8;" horiz-adv-x="686" 
d="M467 592l114 -58l-23 -37q107 -85 107 -220q0 -126 -91.5 -207t-219.5 -81q-45 0 -91 11l-27 -44l-108 58l23 40q-108 86 -108 223q0 127 91.5 208t219.5 81q48 0 91 -13zM220 171l158 270h-24q-71 0 -117.5 -44.5t-46.5 -119.5q0 -63 30 -106zM489 380l-160 -267
q5 0 13 0.5t12 0.5q70 0 116.5 44.5t46.5 118.5q0 59 -28 103z" />
    <glyph glyph-name="ugrave" unicode="&#xf9;" horiz-adv-x="653" 
d="M42 553h147v-283q0 -155 138 -155q137 0 137 155v283h148v-282q0 -136 -76.5 -210.5t-208.5 -74.5t-208.5 74.5t-76.5 210.5v282zM339 802l48 -177l-124 -32l-45 178z" />
    <glyph glyph-name="uacute" unicode="&#xfa;" horiz-adv-x="653" 
d="M42 553h147v-283q0 -155 138 -155q137 0 137 155v283h148v-282q0 -136 -76.5 -210.5t-208.5 -74.5t-208.5 74.5t-76.5 210.5v282zM260 625l48 177l121 -31l-44 -178z" />
    <glyph glyph-name="ucircumflex" unicode="&#xfb;" horiz-adv-x="653" 
d="M42 553h147v-283q0 -155 138 -155q137 0 137 155v283h148v-282q0 -136 -76.5 -210.5t-208.5 -74.5t-208.5 74.5t-76.5 210.5v282zM417 595l-90 58l-92 -58l-57 75l149 110l150 -110z" />
    <glyph glyph-name="udieresis" unicode="&#xfc;" horiz-adv-x="653" 
d="M42 553h147v-283q0 -155 138 -155q137 0 137 155v283h148v-282q0 -136 -76.5 -210.5t-208.5 -74.5t-208.5 74.5t-76.5 210.5v282zM208 756q31 0 54.5 -22.5t23.5 -53.5q0 -32 -23.5 -56t-54.5 -24t-55 24t-24 56q0 31 23.5 53.5t55.5 22.5zM445 756q31 0 55 -22.5
t24 -53.5t-24 -55.5t-55 -24.5t-54 24t-23 56q0 31 23 53.5t54 22.5z" />
    <glyph glyph-name="yacute" unicode="&#xfd;" horiz-adv-x="717" 
d="M30 553h169l161 -277h4l154 277h169l-257 -415v-138h-145v138zM295 625l48 177l121 -31l-44 -178z" />
    <glyph glyph-name="thorn" unicode="&#xfe;" horiz-adv-x="629" 
d="M47 553h147v-59h179q92 0 157 -63.5t65 -154.5t-65 -153.5t-157 -62.5h-179v-60h-147v553zM194 361v-168h175q38 0 59 23.5t21 59.5t-21 60.5t-59 24.5h-175z" />
    <glyph glyph-name="ydieresis" unicode="&#xff;" horiz-adv-x="717" 
d="M30 553h169l161 -277h4l154 277h169l-257 -415v-138h-145v138zM239 756q31 0 54.5 -22.5t23.5 -53.5q0 -32 -23.5 -56t-54.5 -24t-55 24t-24 56q0 31 23.5 53.5t55.5 22.5zM476 756q31 0 55 -22.5t24 -53.5t-24 -55.5t-55 -24.5t-54 24t-23 56q0 31 23 53.5t54 22.5z" />
    <glyph glyph-name="Amacron" unicode="&#x100;" horiz-adv-x="743" 
d="M361 422l-88 -213h195l-84 213h-23zM267 553h214l235 -553h-156l-35 81h-306l-34 -81h-158zM177 719h388v-113h-388v113z" />
    <glyph glyph-name="amacron" unicode="&#x101;" horiz-adv-x="743" 
d="M361 422l-88 -213h195l-84 213h-23zM267 553h214l235 -553h-156l-35 81h-306l-34 -81h-158zM191 719h388v-113h-388v113z" />
    <glyph glyph-name="Abreve" unicode="&#x102;" horiz-adv-x="743" 
d="M361 422l-88 -213h195l-84 213h-23zM267 553h214l235 -553h-156l-35 81h-306l-34 -81h-158zM477 739l68 -79q-48 -40 -87 -52.5t-88 -12.5t-88 12.5t-86 52.5l68 79q46 -32 106 -32q61 0 107 32z" />
    <glyph glyph-name="abreve" unicode="&#x103;" horiz-adv-x="743" 
d="M361 422l-88 -213h195l-84 213h-23zM267 553h214l235 -553h-156l-35 81h-306l-34 -81h-158zM477 739l68 -79q-48 -40 -87 -52.5t-88 -12.5t-88 12.5t-86 52.5l68 79q46 -32 106 -32q61 0 107 32z" />
    <glyph glyph-name="Aogonek" unicode="&#x104;" horiz-adv-x="743" 
d="M270 553h210l236 -553q-23 -34 -23 -74q0 -47 30 -82l-64 -51q-78 35 -78 109q0 60 46 98h-63l-35 81h-312l-35 -81h-155zM355 418l-84 -212h201l-83 212h-34z" />
    <glyph glyph-name="aogonek" unicode="&#x105;" horiz-adv-x="743" 
d="M270 553h210l236 -553q-23 -34 -23 -74q0 -47 30 -82l-64 -51q-78 35 -78 109q0 60 46 98h-63l-35 81h-312l-35 -81h-155zM355 418l-84 -212h201l-83 212h-34z" />
    <glyph glyph-name="Cacute" unicode="&#x106;" horiz-adv-x="675" 
d="M637 409l-114 -65q-32 47 -72.5 69.5t-101.5 22.5q-74 0 -118.5 -43.5t-44.5 -116.5q0 -72 45 -116t118 -44q114 0 173 91l114 -64q-84 -157 -285 -157q-136 0 -223.5 79t-87.5 211q0 131 88.5 210.5t222.5 79.5q200 0 286 -157zM239 625l48 177l121 -31l-44 -178z" />
    <glyph glyph-name="cacute" unicode="&#x107;" horiz-adv-x="675" 
d="M637 409l-114 -65q-32 47 -72.5 69.5t-101.5 22.5q-74 0 -118.5 -43.5t-44.5 -116.5q0 -72 45 -116t118 -44q114 0 173 91l114 -64q-84 -157 -285 -157q-136 0 -223.5 79t-87.5 211q0 131 88.5 210.5t222.5 79.5q200 0 286 -157zM310 625l48 177l121 -31l-44 -178z" />
    <glyph glyph-name="Ccircumflex" unicode="&#x108;" horiz-adv-x="675" 
d="M637 409l-114 -65q-32 47 -72.5 69.5t-101.5 22.5q-74 0 -118.5 -43.5t-44.5 -116.5q0 -72 45 -116t118 -44q114 0 173 91l114 -64q-84 -157 -285 -157q-136 0 -223.5 79t-87.5 211q0 131 88.5 210.5t222.5 79.5q200 0 286 -157zM425 595l-90 58l-92 -58l-57 75l149 110
l150 -110z" />
    <glyph glyph-name="ccircumflex" unicode="&#x109;" horiz-adv-x="675" 
d="M637 409l-114 -65q-32 47 -72.5 69.5t-101.5 22.5q-74 0 -118.5 -43.5t-44.5 -116.5q0 -72 45 -116t118 -44q114 0 173 91l114 -64q-84 -157 -285 -157q-136 0 -223.5 79t-87.5 211q0 131 88.5 210.5t222.5 79.5q200 0 286 -157zM443 595l-90 58l-92 -58l-57 75l149 110
l150 -110z" />
    <glyph glyph-name="Cdotaccent" unicode="&#x10a;" horiz-adv-x="675" 
d="M637 409l-114 -65q-32 47 -72.5 69.5t-101.5 22.5q-74 0 -118.5 -43.5t-44.5 -116.5q0 -72 45 -116t118 -44q114 0 173 91l114 -64q-84 -157 -285 -157q-136 0 -223.5 79t-87.5 211q0 131 88.5 210.5t222.5 79.5q200 0 286 -157zM335 754q30 0 52 -21.5t22 -51.5
q0 -31 -22 -54.5t-52 -23.5t-52.5 23.5t-22.5 54.5q0 30 22 51.5t53 21.5z" />
    <glyph glyph-name="cdotaccent" unicode="&#x10b;" horiz-adv-x="675" 
d="M637 409l-114 -65q-32 47 -72.5 69.5t-101.5 22.5q-74 0 -118.5 -43.5t-44.5 -116.5q0 -72 45 -116t118 -44q114 0 173 91l114 -64q-84 -157 -285 -157q-136 0 -223.5 79t-87.5 211q0 131 88.5 210.5t222.5 79.5q200 0 286 -157zM357 754q30 0 52 -21.5t22 -51.5
q0 -31 -22 -54.5t-52 -23.5t-52.5 23.5t-22.5 54.5q0 30 22 51.5t53 21.5z" />
    <glyph glyph-name="Ccaron" unicode="&#x10c;" horiz-adv-x="675" 
d="M637 409l-114 -65q-32 47 -72.5 69.5t-101.5 22.5q-74 0 -118.5 -43.5t-44.5 -116.5q0 -72 45 -116t118 -44q114 0 173 91l114 -64q-84 -157 -285 -157q-136 0 -223.5 79t-87.5 211q0 131 88.5 210.5t222.5 79.5q200 0 286 -157zM244 763l90 -58l91 58l58 -75l-149 -110
l-150 110z" />
    <glyph glyph-name="ccaron" unicode="&#x10d;" horiz-adv-x="675" 
d="M637 409l-114 -65q-32 47 -72.5 69.5t-101.5 22.5q-74 0 -118.5 -43.5t-44.5 -116.5q0 -72 45 -116t118 -44q114 0 173 91l114 -64q-84 -157 -285 -157q-136 0 -223.5 79t-87.5 211q0 131 88.5 210.5t222.5 79.5q200 0 286 -157zM268 763l90 -58l91 58l58 -75l-149 -110
l-150 110z" />
    <glyph glyph-name="Dcaron" unicode="&#x10e;" horiz-adv-x="676" 
d="M47 553h291q116 0 207 -79t91 -197t-91 -197.5t-207 -79.5h-291v553zM194 420v-285h146q62 0 105.5 41t43.5 101t-43.5 101.5t-105.5 41.5h-146zM214 763l90 -58l91 58l58 -75l-149 -110l-150 110z" />
    <glyph glyph-name="dcaron" unicode="&#x10f;" horiz-adv-x="676" 
d="M47 553h291q116 0 207 -79t91 -197t-91 -197.5t-207 -79.5h-291v553zM194 420v-285h146q62 0 105.5 41t43.5 101t-43.5 101.5t-105.5 41.5h-146zM214 763l90 -58l91 58l58 -75l-149 -110l-150 110z" />
    <glyph glyph-name="Dcroat" unicode="&#x110;" horiz-adv-x="709" 
d="M79 553h291q116 0 207.5 -79t91.5 -197t-91 -197.5t-208 -79.5h-291v217h-69v130h69v206zM227 420v-73h123v-130h-123v-82h145q62 0 105.5 41t43.5 101t-43.5 101.5t-105.5 41.5h-145z" />
    <glyph glyph-name="dcroat" unicode="&#x111;" horiz-adv-x="709" 
d="M79 553h291q116 0 207.5 -79t91.5 -197t-91 -197.5t-208 -79.5h-291v217h-69v130h69v206zM227 420v-73h123v-130h-123v-82h145q62 0 105.5 41t43.5 101t-43.5 101.5t-105.5 41.5h-145z" />
    <glyph glyph-name="Emacron" unicode="&#x112;" 
d="M47 553h509v-133h-362v-73h325v-133h-325v-78h375v-136h-522v553zM113 719h388v-113h-388v113z" />
    <glyph glyph-name="emacron" unicode="&#x113;" 
d="M47 553h509v-133h-362v-73h325v-133h-325v-78h375v-136h-522v553zM121 719h388v-113h-388v113z" />
    <glyph glyph-name="Ebreve" unicode="&#x114;" 
d="M47 553h509v-133h-362v-73h325v-133h-325v-78h375v-136h-522v553zM420 745l68 -79q-48 -40 -87 -52.5t-88 -12.5t-88 12.5t-86 52.5l68 79q46 -32 106 -32q61 0 107 32z" />
    <glyph glyph-name="ebreve" unicode="&#x115;" 
d="M47 553h509v-133h-362v-73h325v-133h-325v-78h375v-136h-522v553zM404 745l68 -79q-48 -40 -87 -52.5t-88 -12.5t-88 12.5t-86 52.5l68 79q46 -32 106 -32q61 0 107 32z" />
    <glyph glyph-name="Edotaccent" unicode="&#x116;" 
d="M47 553h509v-133h-362v-73h325v-133h-325v-78h375v-136h-522v553zM317 754q30 0 52 -21.5t22 -51.5q0 -31 -22 -54.5t-52 -23.5t-52.5 23.5t-22.5 54.5q0 30 22 51.5t53 21.5z" />
    <glyph glyph-name="edotaccent" unicode="&#x117;" 
d="M47 553h509v-133h-362v-73h325v-133h-325v-78h375v-136h-522v553zM317 754q30 0 52 -21.5t22 -51.5q0 -31 -22 -54.5t-52 -23.5t-52.5 23.5t-22.5 54.5q0 30 22 51.5t53 21.5z" />
    <glyph glyph-name="Eogonek" unicode="&#x118;" 
d="M47 553h509v-133h-362v-71h325v-134h-325v-79h375v-136q-38 -31 -38 -74q0 -47 30 -82l-64 -55q-37 17 -57.5 47.5t-20.5 65.5q0 64 51 98h-423v553z" />
    <glyph glyph-name="eogonek" unicode="&#x119;" 
d="M47 553h509v-133h-362v-71h325v-134h-325v-79h375v-136q-38 -31 -38 -74q0 -47 30 -82l-64 -55q-37 17 -57.5 47.5t-20.5 65.5q0 64 51 98h-423v553z" />
    <glyph glyph-name="Ecaron" unicode="&#x11a;" 
d="M47 553h509v-133h-362v-73h325v-133h-325v-78h375v-136h-522v553zM225 763l90 -58l91 58l58 -75l-149 -110l-150 110z" />
    <glyph glyph-name="ecaron" unicode="&#x11b;" 
d="M47 553h509v-133h-362v-73h325v-133h-325v-78h375v-136h-522v553zM225 763l90 -58l91 58l58 -75l-149 -110l-150 110z" />
    <glyph glyph-name="Gcircumflex" unicode="&#x11c;" horiz-adv-x="695" 
d="M363 328h278v-328h-91l-18 35q-81 -49 -182 -49q-132 0 -221 79.5t-89 210.5t88.5 210.5t221.5 79.5q98 0 166.5 -36t117.5 -111l-117 -66q-33 44 -68.5 61.5t-99.5 17.5q-75 0 -119 -41.5t-44 -114.5q0 -74 43.5 -115t119.5 -41q92 0 150 36v45l-136 5v122zM432 595
l-90 58l-92 -58l-57 75l149 110l150 -110z" />
    <glyph glyph-name="gcircumflex" unicode="&#x11d;" horiz-adv-x="695" 
d="M363 328h278v-328h-91l-18 35q-81 -49 -182 -49q-132 0 -221 79.5t-89 210.5t88.5 210.5t221.5 79.5q98 0 166.5 -36t117.5 -111l-117 -66q-33 44 -68.5 61.5t-99.5 17.5q-75 0 -119 -41.5t-44 -114.5q0 -74 43.5 -115t119.5 -41q92 0 150 36v45l-136 5v122zM432 595
l-90 58l-92 -58l-57 75l149 110l150 -110z" />
    <glyph glyph-name="Gbreve" unicode="&#x11e;" horiz-adv-x="695" 
d="M363 328h278v-328h-91l-18 35q-81 -49 -182 -49q-132 0 -221 79.5t-89 210.5t88.5 210.5t221.5 79.5q98 0 166.5 -36t117.5 -111l-117 -66q-33 44 -68.5 61.5t-99.5 17.5q-75 0 -119 -41.5t-44 -114.5q0 -74 43.5 -115t119.5 -41q92 0 150 36v45l-136 5v122zM449 745
l68 -79q-48 -40 -87 -52.5t-88 -12.5t-88 12.5t-86 52.5l68 79q46 -32 106 -32q61 0 107 32z" />
    <glyph glyph-name="gbreve" unicode="&#x11f;" horiz-adv-x="695" 
d="M363 328h278v-328h-91l-18 35q-81 -49 -182 -49q-132 0 -221 79.5t-89 210.5t88.5 210.5t221.5 79.5q98 0 166.5 -36t117.5 -111l-117 -66q-33 44 -68.5 61.5t-99.5 17.5q-75 0 -119 -41.5t-44 -114.5q0 -74 43.5 -115t119.5 -41q92 0 150 36v45l-136 5v122zM462 745
l68 -79q-48 -40 -87 -52.5t-88 -12.5t-88 12.5t-86 52.5l68 79q46 -32 106 -32q61 0 107 32z" />
    <glyph glyph-name="Gdotaccent" unicode="&#x120;" horiz-adv-x="695" 
d="M363 328h278v-328h-91l-18 35q-81 -49 -182 -49q-132 0 -221 79.5t-89 210.5t88.5 210.5t221.5 79.5q98 0 166.5 -36t117.5 -111l-117 -66q-33 44 -68.5 61.5t-99.5 17.5q-75 0 -119 -41.5t-44 -114.5q0 -74 43.5 -115t119.5 -41q92 0 150 36v45l-136 5v122zM346 754
q30 0 52 -21.5t22 -51.5q0 -31 -22 -54.5t-52 -23.5t-52.5 23.5t-22.5 54.5q0 30 22 51.5t53 21.5z" />
    <glyph glyph-name="gdotaccent" unicode="&#x121;" horiz-adv-x="695" 
d="M363 328h278v-328h-91l-18 35q-81 -49 -182 -49q-132 0 -221 79.5t-89 210.5t88.5 210.5t221.5 79.5q98 0 166.5 -36t117.5 -111l-117 -66q-33 44 -68.5 61.5t-99.5 17.5q-75 0 -119 -41.5t-44 -114.5q0 -74 43.5 -115t119.5 -41q92 0 150 36v45l-136 5v122zM346 754
q30 0 52 -21.5t22 -51.5q0 -31 -22 -54.5t-52 -23.5t-52.5 23.5t-22.5 54.5q0 30 22 51.5t53 21.5z" />
    <glyph glyph-name="Gcommaaccent" unicode="&#x122;" horiz-adv-x="695" 
d="M363 328h278v-328h-91l-18 35q-81 -49 -182 -49q-132 0 -221 79.5t-89 210.5t88.5 210.5t221.5 79.5q98 0 166.5 -36t117.5 -111l-117 -66q-33 44 -68.5 61.5t-99.5 17.5q-75 0 -119 -41.5t-44 -114.5q0 -74 43.5 -115t119.5 -41q92 0 150 36v45l-136 5v122zM347 -28
q35 0 55.5 -24t20.5 -59q0 -17 -4 -30l-51 -133l-81 17l14 76q-38 24 -38 71q0 33 25 57.5t59 24.5z" />
    <glyph glyph-name="gcommaaccent" unicode="&#x123;" horiz-adv-x="695" 
d="M363 328h278v-328h-91l-18 35q-81 -49 -182 -49q-132 0 -221 79.5t-89 210.5t88.5 210.5t221.5 79.5q98 0 166.5 -36t117.5 -111l-117 -66q-33 44 -68.5 61.5t-99.5 17.5q-75 0 -119 -41.5t-44 -114.5q0 -74 43.5 -115t119.5 -41q92 0 150 36v45l-136 5v122zM361 -41
q35 0 55.5 -24t20.5 -59q0 -17 -4 -30l-51 -133l-81 17l14 76q-38 24 -38 71q0 33 25 57.5t59 24.5z" />
    <glyph glyph-name="Hcircumflex" unicode="&#x124;" horiz-adv-x="659" 
d="M47 553h147v-202h271v202h148v-553h-148v219h-271v-219h-147v553zM410 595l-90 58l-92 -58l-57 75l149 110l150 -110z" />
    <glyph glyph-name="hcircumflex" unicode="&#x125;" horiz-adv-x="659" 
d="M47 553h147v-202h271v202h148v-553h-148v219h-271v-219h-147v553zM428 595l-90 58l-92 -58l-57 75l149 110l150 -110z" />
    <glyph glyph-name="Hbar" unicode="&#x126;" horiz-adv-x="646" 
d="M47 553h138v-57h276v57h138v-57h27v-113h-27v-383h-138v202h-276v-202h-138v383h-25v113h25v57zM185 343h276v40h-276v-40z" />
    <glyph glyph-name="hbar" unicode="&#x127;" horiz-adv-x="646" 
d="M47 553h138v-57h276v57h138v-57h27v-113h-27v-383h-138v202h-276v-202h-138v383h-25v113h25v57zM185 343h276v40h-276v-40z" />
    <glyph glyph-name="Itilde" unicode="&#x128;" horiz-adv-x="241" 
d="M47 553h147v-553h-147v553zM267 743l56 -69q-40 -74 -118 -74q-34 0 -76.5 19t-66.5 19q-34 0 -61 -34l-66 64q47 86 134 86q38 0 77 -18t60 -18q38 0 61 25z" />
    <glyph glyph-name="itilde" unicode="&#x129;" horiz-adv-x="241" 
d="M47 553h147v-553h-147v553zM267 743l56 -69q-40 -74 -118 -74q-34 0 -76.5 19t-66.5 19q-34 0 -61 -34l-66 64q47 86 134 86q38 0 77 -18t60 -18q38 0 61 25z" />
    <glyph glyph-name="imacron" unicode="&#x12b;" horiz-adv-x="241" 
d="M47 553h147v-553h-147v553zM-73 719h388v-113h-388v113z" />
    <glyph glyph-name="Ibreve" unicode="&#x12c;" horiz-adv-x="241" 
d="M47 553h147v-553h-147v553zM239 745l68 -79q-48 -40 -87 -52.5t-88 -12.5t-88 12.5t-86 52.5l68 79q46 -32 106 -32q61 0 107 32z" />
    <glyph glyph-name="Iogonek" unicode="&#x12e;" horiz-adv-x="241" 
d="M47 553h147v-553q-24 -32 -24 -74q0 -47 30 -82l-64 -51q-78 35 -78 109q0 34 12.5 56t46.5 42h-70v553z" />
    <glyph glyph-name="iogonek" unicode="&#x12f;" horiz-adv-x="241" 
d="M47 553h147v-553q-24 -32 -24 -74q0 -47 30 -82l-64 -51q-78 35 -78 109q0 34 12.5 56t46.5 42h-70v553z" />
    <glyph glyph-name="Idotaccent" unicode="&#x130;" horiz-adv-x="241" 
d="M47 553h147v-553h-147v553zM132 754q30 0 52 -21.5t22 -51.5q0 -31 -22 -54.5t-52 -23.5t-52.5 23.5t-22.5 54.5q0 30 22 51.5t53 21.5z" />
    <glyph glyph-name="dotlessi" unicode="&#x131;" horiz-adv-x="241" 
d="M47 553h147v-553h-147v553z" />
    <glyph glyph-name="Jcircumflex" unicode="&#x134;" horiz-adv-x="597" 
d="M407 553h144v-306q0 -112 -71.5 -186.5t-206.5 -74.5q-91 0 -158.5 43.5t-99.5 122.5l127 60q14 -43 50.5 -69t81.5 -26q133 0 133 140v296zM563 595l-90 58l-92 -58l-57 75l149 110l150 -110z" />
    <glyph glyph-name="jcircumflex" unicode="&#x135;" horiz-adv-x="597" 
d="M407 553h144v-306q0 -112 -71.5 -186.5t-206.5 -74.5q-91 0 -158.5 43.5t-99.5 122.5l127 60q14 -43 50.5 -69t81.5 -26q133 0 133 140v296zM570 595l-90 58l-92 -58l-57 75l149 110l150 -110z" />
    <glyph glyph-name="Kcommaaccent" unicode="&#x136;" horiz-adv-x="661" 
d="M47 553h146v-195h130l133 195h170l-178 -256l190 -297h-175l-136 223h-134v-223h-146v553zM312 9q35 0 55.5 -24t20.5 -59q0 -17 -4 -30l-51 -133l-81 17l14 76q-38 24 -38 71q0 33 25 57.5t59 24.5z" />
    <glyph glyph-name="kcommaaccent" unicode="&#x137;" horiz-adv-x="661" 
d="M47 553h146v-195h130l133 195h170l-178 -256l190 -297h-175l-136 223h-134v-223h-146v553zM312 9q35 0 55.5 -24t20.5 -59q0 -17 -4 -30l-51 -133l-81 17l14 76q-38 24 -38 71q0 33 25 57.5t59 24.5z" />
    <glyph glyph-name="Lacute" unicode="&#x139;" horiz-adv-x="585" 
d="M47 553h147v-420h365v-133h-512v553zM75 635l48 177l121 -31l-44 -178z" />
    <glyph glyph-name="lacute" unicode="&#x13a;" horiz-adv-x="585" 
d="M47 553h147v-420h365v-133h-512v553zM75 635l48 177l121 -31l-44 -178z" />
    <glyph glyph-name="Lcommaaccent" unicode="&#x13b;" horiz-adv-x="585" 
d="M47 553h147v-420h365v-133h-512v553zM315 -28q35 0 55.5 -24t20.5 -59q0 -17 -4 -30l-51 -133l-81 17l14 76q-38 24 -38 71q0 33 25 57.5t59 24.5z" />
    <glyph glyph-name="lcommaaccent" unicode="&#x13c;" horiz-adv-x="585" 
d="M47 553h147v-420h365v-133h-512v553zM315 -28q35 0 55.5 -24t20.5 -59q0 -17 -4 -30l-51 -133l-81 17l14 76q-38 24 -38 71q0 33 25 57.5t59 24.5z" />
    <glyph glyph-name="Lcaron" unicode="&#x13d;" horiz-adv-x="585" 
d="M47 553h147v-420h365v-133h-512v553zM304 375l20 75q-36 19 -36 70q0 33 25 56t61 23q31 0 54 -21.5t23 -58.5q0 -14 -7 -28l-59 -132z" />
    <glyph glyph-name="lcaron" unicode="&#x13e;" horiz-adv-x="585" 
d="M47 553h147v-420h365v-133h-512v553zM331 375l20 75q-36 20 -36 70q0 33 25 56t61 23q31 0 54 -21.5t23 -58.5q0 -14 -7 -28l-59 -132z" />
    <glyph glyph-name="Ldot" unicode="&#x13f;" horiz-adv-x="585" 
d="M47 553h147v-420h365v-133h-512v553zM310 395q38 0 65.5 -27.5t27.5 -65.5t-27.5 -65t-65.5 -27q-37 0 -64 27.5t-27 64.5q0 38 27 65.5t64 27.5z" />
    <glyph glyph-name="ldot" unicode="&#x140;" horiz-adv-x="585" 
d="M47 553h147v-420h365v-133h-512v553zM383 395q38 0 65.5 -27.5t27.5 -65.5t-27.5 -65t-65.5 -27q-37 0 -64 27.5t-27 64.5q0 38 27 65.5t64 27.5z" />
    <glyph glyph-name="Lslash" unicode="&#x141;" horiz-adv-x="624" 
d="M61 207l-50 112l74 33v201h148v-137l103 47l49 -111l-152 -69v-151h365v-132h-513v218z" />
    <glyph glyph-name="lslash" unicode="&#x142;" horiz-adv-x="624" 
d="M61 207l-50 112l74 33v201h148v-137l103 47l49 -111l-152 -69v-151h365v-132h-513v218z" />
    <glyph glyph-name="Nacute" unicode="&#x143;" horiz-adv-x="670" 
d="M47 553h134l296 -334v334h146v-553h-135l-296 334v-334h-145v553zM271 625l48 177l121 -31l-44 -178z" />
    <glyph glyph-name="nacute" unicode="&#x144;" horiz-adv-x="670" 
d="M47 553h134l296 -334v334h146v-553h-135l-296 334v-334h-145v553zM271 625l48 177l121 -31l-44 -178z" />
    <glyph glyph-name="Ncommaaccent" unicode="&#x145;" horiz-adv-x="670" 
d="M47 553h134l296 -334v334h146v-553h-135l-296 334v-334h-145v553zM339 5q35 0 55.5 -24t20.5 -59q0 -17 -4 -30l-51 -133l-81 17l14 76q-38 24 -38 71q0 33 25 57.5t59 24.5z" />
    <glyph glyph-name="ncommaaccent" unicode="&#x146;" horiz-adv-x="670" 
d="M47 553h134l296 -334v334h146v-553h-135l-296 334v-334h-145v553zM339 5q35 0 55.5 -24t20.5 -59q0 -17 -4 -30l-51 -133l-81 17l14 76q-38 24 -38 71q0 33 25 57.5t59 24.5z" />
    <glyph glyph-name="Ncaron" unicode="&#x147;" horiz-adv-x="670" 
d="M47 553h134l296 -334v334h146v-553h-135l-296 334v-334h-145v553zM258 763l90 -58l91 58l58 -75l-149 -110l-150 110z" />
    <glyph glyph-name="ncaron" unicode="&#x148;" horiz-adv-x="670" 
d="M47 553h134l296 -334v334h146v-553h-135l-296 334v-334h-145v553zM245 763l90 -58l91 58l58 -75l-149 -110l-150 110z" />
    <glyph glyph-name="napostrophe" unicode="&#x149;" horiz-adv-x="823" 
d="M197 553h134l296 -334v334h146v-553h-135l-296 334v-334h-145v553zM101 716q35 0 55.5 -24t20.5 -59q0 -17 -4 -30l-51 -133l-81 17l14 76q-38 24 -38 71q0 33 25 57.5t59 24.5z" />
    <glyph glyph-name="Omacron" unicode="&#x14c;" horiz-adv-x="707" 
d="M190 276q0 -74 46.5 -119.5t117.5 -45.5q70 0 116.5 45.5t46.5 119.5t-46.5 119.5t-116.5 45.5q-71 0 -117.5 -45.5t-46.5 -119.5zM665 276q0 -126 -92 -208t-219 -82t-219 82t-92 208t92 208t219 82t219 -82t92 -208zM160 719h388v-113h-388v113z" />
    <glyph glyph-name="omacron" unicode="&#x14d;" horiz-adv-x="707" 
d="M190 276q0 -74 46.5 -119.5t117.5 -45.5q70 0 116.5 45.5t46.5 119.5t-46.5 119.5t-116.5 45.5q-71 0 -117.5 -45.5t-46.5 -119.5zM665 276q0 -126 -92 -208t-219 -82t-219 82t-92 208t92 208t219 82t219 -82t92 -208zM160 719h388v-113h-388v113z" />
    <glyph glyph-name="Obreve" unicode="&#x14e;" horiz-adv-x="707" 
d="M190 276q0 -74 46.5 -119.5t117.5 -45.5q70 0 116.5 45.5t46.5 119.5t-46.5 119.5t-116.5 45.5q-71 0 -117.5 -45.5t-46.5 -119.5zM665 276q0 -126 -92 -208t-219 -82t-219 82t-92 208t92 208t219 82t219 -82t92 -208zM460 745l68 -79q-48 -40 -87 -52.5t-88 -12.5
t-88 12.5t-86 52.5l68 79q46 -32 106 -32q61 0 107 32z" />
    <glyph glyph-name="obreve" unicode="&#x14f;" horiz-adv-x="707" 
d="M190 276q0 -74 46.5 -119.5t117.5 -45.5q70 0 116.5 45.5t46.5 119.5t-46.5 119.5t-116.5 45.5q-71 0 -117.5 -45.5t-46.5 -119.5zM665 276q0 -126 -92 -208t-219 -82t-219 82t-92 208t92 208t219 82t219 -82t92 -208zM460 745l68 -79q-48 -40 -87 -52.5t-88 -12.5
t-88 12.5t-86 52.5l68 79q46 -32 106 -32q61 0 107 32z" />
    <glyph glyph-name="Ohungarumlaut" unicode="&#x150;" horiz-adv-x="707" 
d="M190 276q0 -74 46.5 -119.5t117.5 -45.5q70 0 116.5 45.5t46.5 119.5t-46.5 119.5t-116.5 45.5q-71 0 -117.5 -45.5t-46.5 -119.5zM665 276q0 -126 -92 -208t-219 -82t-219 82t-92 208t92 208t219 82t219 -82t92 -208zM196 625l50 177l121 -31l-46 -178zM365 625l47 177
l121 -31l-43 -178z" />
    <glyph glyph-name="ohungarumlaut" unicode="&#x151;" horiz-adv-x="707" 
d="M190 276q0 -74 46.5 -119.5t117.5 -45.5q70 0 116.5 45.5t46.5 119.5t-46.5 119.5t-116.5 45.5q-71 0 -117.5 -45.5t-46.5 -119.5zM665 276q0 -126 -92 -208t-219 -82t-219 82t-92 208t92 208t219 82t219 -82t92 -208zM185 625l50 177l121 -31l-46 -178zM354 625l47 177
l121 -31l-43 -178z" />
    <glyph glyph-name="OE" unicode="&#x152;" horiz-adv-x="1076" 
d="M529 553h489v-133h-347v-71h311v-134h-311v-79h361v-136h-503v20q-67 -34 -172 -34q-139 0 -220 75q-94 88 -94 216q0 126 94 214q81 75 220 75q96 0 172 -34v21zM190 276q0 -74 38 -118q41 -47 129 -47t130 47q38 44 38 119q0 73 -38 117q-42 47 -130 47t-129 -47
q-38 -44 -38 -118z" />
    <glyph glyph-name="oe" unicode="&#x153;" horiz-adv-x="1076" 
d="M529 553h489v-133h-347v-71h311v-134h-311v-79h361v-136h-503v20q-67 -34 -172 -34q-139 0 -220 75q-94 88 -94 216q0 126 94 214q81 75 220 75q96 0 172 -34v21zM190 276q0 -74 38 -118q41 -47 129 -47t130 47q38 44 38 119q0 73 -38 117q-42 47 -130 47t-129 -47
q-38 -44 -38 -118z" />
    <glyph glyph-name="Racute" unicode="&#x154;" horiz-adv-x="633" 
d="M47 553h327q101 0 166 -61.5t65 -158.5q0 -122 -100 -182l84 -151h-160l-63 118h-172v-118h-147v553zM194 419v-167h174q40 0 64.5 21t24.5 60t-24.5 62.5t-64.5 23.5h-174zM232 625l48 177l121 -31l-44 -178z" />
    <glyph glyph-name="racute" unicode="&#x155;" horiz-adv-x="633" 
d="M47 553h327q101 0 166 -61.5t65 -158.5q0 -122 -100 -182l84 -151h-160l-63 118h-172v-118h-147v553zM194 419v-167h174q40 0 64.5 21t24.5 60t-24.5 62.5t-64.5 23.5h-174zM232 625l48 177l121 -31l-44 -178z" />
    <glyph glyph-name="Rcommaaccent" unicode="&#x156;" horiz-adv-x="633" 
d="M47 553h327q101 0 166 -61.5t65 -158.5q0 -122 -100 -182l84 -151h-160l-63 118h-172v-118h-147v553zM194 419v-167h174q40 0 64.5 21t24.5 60t-24.5 62.5t-64.5 23.5h-174zM328 11q35 0 55.5 -24t20.5 -59q0 -17 -4 -30l-51 -133l-81 17l14 76q-38 24 -38 71
q0 33 25 57.5t59 24.5z" />
    <glyph glyph-name="rcommaaccent" unicode="&#x157;" horiz-adv-x="633" 
d="M47 553h327q101 0 166 -61.5t65 -158.5q0 -122 -100 -182l84 -151h-160l-63 118h-172v-118h-147v553zM194 419v-167h174q40 0 64.5 21t24.5 60t-24.5 62.5t-64.5 23.5h-174zM311 12q35 0 55.5 -24t20.5 -59q0 -17 -4 -30l-51 -133l-81 17l14 76q-38 24 -38 71
q0 33 25 57.5t59 24.5z" />
    <glyph glyph-name="Rcaron" unicode="&#x158;" horiz-adv-x="633" 
d="M47 553h327q101 0 166 -61.5t65 -158.5q0 -122 -100 -182l84 -151h-160l-63 118h-172v-118h-147v553zM194 419v-167h174q40 0 64.5 21t24.5 60t-24.5 62.5t-64.5 23.5h-174zM235 763l90 -58l91 58l58 -75l-149 -110l-150 110z" />
    <glyph glyph-name="rcaron" unicode="&#x159;" horiz-adv-x="633" 
d="M47 553h327q101 0 166 -61.5t65 -158.5q0 -122 -100 -182l84 -151h-160l-63 118h-172v-118h-147v553zM194 419v-167h174q40 0 64.5 21t24.5 60t-24.5 62.5t-64.5 23.5h-174zM213 763l90 -58l91 58l58 -75l-149 -110l-150 110z" />
    <glyph glyph-name="Sacute" unicode="&#x15a;" horiz-adv-x="660" 
d="M609 478l-71 -108q-89 65 -217 65q-115 0 -115 -45q0 -16 13.5 -21.5t43.5 -9.5l161 -18q197 -24 197 -171q0 -91 -80.5 -137.5t-211.5 -46.5q-88 0 -156.5 21.5t-135.5 72.5l69 114q113 -80 236 -80q60 0 98 13.5t38 40.5q0 16 -7.5 23t-32.5 9l-190 22
q-92 11 -139.5 50.5t-47.5 116.5q0 87 73 132t187 45q174 0 288 -88zM268 625l48 177l121 -31l-44 -178z" />
    <glyph glyph-name="sacute" unicode="&#x15b;" horiz-adv-x="660" 
d="M609 478l-71 -108q-89 65 -217 65q-115 0 -115 -45q0 -16 13.5 -21.5t43.5 -9.5l161 -18q197 -24 197 -171q0 -91 -80.5 -137.5t-211.5 -46.5q-88 0 -156.5 21.5t-135.5 72.5l69 114q113 -80 236 -80q60 0 98 13.5t38 40.5q0 16 -7.5 23t-32.5 9l-190 22
q-92 11 -139.5 50.5t-47.5 116.5q0 87 73 132t187 45q174 0 288 -88zM278 625l48 177l121 -31l-44 -178z" />
    <glyph glyph-name="Scircumflex" unicode="&#x15c;" horiz-adv-x="660" 
d="M609 478l-71 -108q-89 65 -217 65q-115 0 -115 -45q0 -16 13.5 -21.5t43.5 -9.5l161 -18q197 -24 197 -171q0 -91 -80.5 -137.5t-211.5 -46.5q-88 0 -156.5 21.5t-135.5 72.5l69 114q113 -80 236 -80q60 0 98 13.5t38 40.5q0 16 -7.5 23t-32.5 9l-190 22
q-92 11 -139.5 50.5t-47.5 116.5q0 87 73 132t187 45q174 0 288 -88zM406 595l-90 58l-92 -58l-57 75l149 110l150 -110z" />
    <glyph glyph-name="scircumflex" unicode="&#x15d;" horiz-adv-x="660" 
d="M609 478l-71 -108q-89 65 -217 65q-115 0 -115 -45q0 -16 13.5 -21.5t43.5 -9.5l161 -18q197 -24 197 -171q0 -91 -80.5 -137.5t-211.5 -46.5q-88 0 -156.5 21.5t-135.5 72.5l69 114q113 -80 236 -80q60 0 98 13.5t38 40.5q0 16 -7.5 23t-32.5 9l-190 22
q-92 11 -139.5 50.5t-47.5 116.5q0 87 73 132t187 45q174 0 288 -88zM422 595l-90 58l-92 -58l-57 75l149 110l150 -110z" />
    <glyph glyph-name="Scedilla" unicode="&#x15e;" horiz-adv-x="660" 
d="M609 478l-71 -108q-89 65 -217 65q-115 0 -115 -45q0 -16 13.5 -21.5t43.5 -9.5l161 -18q197 -24 197 -171q0 -88 -75 -134.5t-198 -49.5v-22q33 -3 54.5 -28.5t21.5 -63.5q0 -49 -40 -74.5t-103 -25.5q-33 0 -71 16l21 64q23 -8 52 -8q45 0 45 28q0 23 -19 23h-45l-6 6
l8 89q-125 10 -229 90l69 114q113 -80 236 -80q60 0 98 13.5t38 40.5q0 16 -7.5 23t-32.5 9l-190 22q-92 11 -139.5 50.5t-47.5 116.5q0 87 73 132t187 45q174 0 288 -88z" />
    <glyph glyph-name="scedilla" unicode="&#x15f;" horiz-adv-x="660" 
d="M609 478l-71 -108q-89 65 -217 65q-115 0 -115 -45q0 -16 13.5 -21.5t43.5 -9.5l161 -18q197 -24 197 -171q0 -88 -75 -134.5t-198 -49.5v-22q33 -3 54.5 -28.5t21.5 -63.5q0 -49 -40 -74.5t-103 -25.5q-33 0 -71 16l21 64q23 -8 52 -8q45 0 45 28q0 23 -19 23h-45l-6 6
l8 89q-125 10 -229 90l69 114q113 -80 236 -80q60 0 98 13.5t38 40.5q0 16 -7.5 23t-32.5 9l-190 22q-92 11 -139.5 50.5t-47.5 116.5q0 87 73 132t187 45q174 0 288 -88z" />
    <glyph glyph-name="Scaron" unicode="&#x160;" horiz-adv-x="660" 
d="M609 478l-71 -108q-89 65 -217 65q-115 0 -115 -45q0 -16 13.5 -21.5t43.5 -9.5l161 -18q197 -24 197 -171q0 -91 -80.5 -137.5t-211.5 -46.5q-88 0 -156.5 21.5t-135.5 72.5l69 114q113 -80 236 -80q60 0 98 13.5t38 40.5q0 16 -7.5 23t-32.5 9l-190 22
q-92 11 -139.5 50.5t-47.5 116.5q0 87 73 132t187 45q174 0 288 -88zM247 763l90 -58l91 58l58 -75l-149 -110l-150 110z" />
    <glyph glyph-name="scaron" unicode="&#x161;" horiz-adv-x="660" 
d="M609 478l-71 -108q-89 65 -217 65q-115 0 -115 -45q0 -16 13.5 -21.5t43.5 -9.5l161 -18q197 -24 197 -171q0 -91 -80.5 -137.5t-211.5 -46.5q-88 0 -156.5 21.5t-135.5 72.5l69 114q113 -80 236 -80q60 0 98 13.5t38 40.5q0 16 -7.5 23t-32.5 9l-190 22
q-92 11 -139.5 50.5t-47.5 116.5q0 87 73 132t187 45q174 0 288 -88zM250 763l90 -58l91 58l58 -75l-149 -110l-150 110z" />
    <glyph glyph-name="Tcommaaccent" unicode="&#x162;" horiz-adv-x="638" 
d="M30 553h578v-132h-215v-421h-148v421h-215v132zM318 -31q35 0 55.5 -24t20.5 -59q0 -17 -4 -30l-51 -133l-81 17l14 76q-38 24 -38 71q0 33 25 57.5t59 24.5z" />
    <glyph glyph-name="tcommaaccent" unicode="&#x163;" horiz-adv-x="638" 
d="M30 553h578v-132h-215v-421h-148v421h-215v132zM318 -31q35 0 55.5 -24t20.5 -59q0 -17 -4 -30l-51 -133l-81 17l14 76q-38 24 -38 71q0 33 25 57.5t59 24.5z" />
    <glyph glyph-name="Tcaron" unicode="&#x164;" horiz-adv-x="638" 
d="M30 553h578v-132h-215v-421h-148v421h-215v132zM225 763l90 -58l91 58l58 -75l-149 -110l-150 110z" />
    <glyph glyph-name="tcaron" unicode="&#x165;" horiz-adv-x="638" 
d="M30 553h578v-132h-215v-421h-148v421h-215v132zM229 763l90 -58l91 58l58 -75l-149 -110l-150 110z" />
    <glyph glyph-name="Tbar" unicode="&#x166;" horiz-adv-x="638" 
d="M30 553h578v-132h-215v-81h103v-114h-103v-226h-148v226h-103v114h103v81h-215v132z" />
    <glyph glyph-name="tbar" unicode="&#x167;" horiz-adv-x="638" 
d="M30 553h578v-132h-215v-81h103v-114h-103v-226h-148v226h-103v114h103v81h-215v132z" />
    <glyph glyph-name="Utilde" unicode="&#x168;" horiz-adv-x="653" 
d="M42 553h147v-283q0 -155 138 -155q137 0 137 155v283h148v-282q0 -136 -76.5 -210.5t-208.5 -74.5t-208.5 74.5t-76.5 210.5v282zM451 743l56 -69q-40 -74 -118 -74q-34 0 -76.5 19t-66.5 19q-34 0 -61 -34l-66 64q47 86 134 86q38 0 77 -18t60 -18q38 0 61 25z" />
    <glyph glyph-name="utilde" unicode="&#x169;" horiz-adv-x="653" 
d="M42 553h147v-283q0 -155 138 -155q137 0 137 155v283h148v-282q0 -136 -76.5 -210.5t-208.5 -74.5t-208.5 74.5t-76.5 210.5v282zM465 743l56 -69q-40 -74 -118 -74q-34 0 -76.5 19t-66.5 19q-34 0 -61 -34l-66 64q47 86 134 86q38 0 77 -18t60 -18q38 0 61 25z" />
    <glyph glyph-name="Umacron" unicode="&#x16a;" horiz-adv-x="653" 
d="M42 553h147v-283q0 -155 138 -155q137 0 137 155v283h148v-282q0 -136 -76.5 -210.5t-208.5 -74.5t-208.5 74.5t-76.5 210.5v282zM132 719h388v-113h-388v113z" />
    <glyph glyph-name="umacron" unicode="&#x16b;" horiz-adv-x="653" 
d="M42 553h147v-283q0 -155 138 -155q137 0 137 155v283h148v-282q0 -136 -76.5 -210.5t-208.5 -74.5t-208.5 74.5t-76.5 210.5v282zM133 719h388v-113h-388v113z" />
    <glyph glyph-name="Ubreve" unicode="&#x16c;" horiz-adv-x="653" 
d="M42 553h147v-283q0 -155 138 -155q137 0 137 155v283h148v-282q0 -136 -76.5 -210.5t-208.5 -74.5t-208.5 74.5t-76.5 210.5v282zM433 745l68 -79q-48 -40 -87 -52.5t-88 -12.5t-88 12.5t-86 52.5l68 79q46 -32 106 -32q61 0 107 32z" />
    <glyph glyph-name="ubreve" unicode="&#x16d;" horiz-adv-x="653" 
d="M42 553h147v-283q0 -155 138 -155q137 0 137 155v283h148v-282q0 -136 -76.5 -210.5t-208.5 -74.5t-208.5 74.5t-76.5 210.5v282zM433 745l68 -79q-48 -40 -87 -52.5t-88 -12.5t-88 12.5t-86 52.5l68 79q46 -32 106 -32q61 0 107 32z" />
    <glyph glyph-name="Uring" unicode="&#x16e;" horiz-adv-x="653" 
d="M42 553h147v-283q0 -155 138 -155q137 0 137 155v283h148v-282q0 -136 -76.5 -210.5t-208.5 -74.5t-208.5 74.5t-76.5 210.5v282zM463 719q0 -56 -38.5 -91.5t-92.5 -35.5t-92.5 35.5t-38.5 91.5t38.5 92t92.5 36t92.5 -36t38.5 -92zM296 719q0 -38 36 -38t36 38
q0 39 -36 39t-36 -39z" />
    <glyph glyph-name="uring" unicode="&#x16f;" horiz-adv-x="653" 
d="M42 553h147v-283q0 -155 138 -155q137 0 137 155v283h148v-282q0 -136 -76.5 -210.5t-208.5 -74.5t-208.5 74.5t-76.5 210.5v282zM457 719q0 -56 -38.5 -91.5t-92.5 -35.5t-92.5 35.5t-38.5 91.5t38.5 92t92.5 36t92.5 -36t38.5 -92zM290 719q0 -38 36 -38t36 38
q0 39 -36 39t-36 -39z" />
    <glyph glyph-name="Uhungarumlaut" unicode="&#x170;" horiz-adv-x="653" 
d="M42 553h147v-283q0 -155 138 -155q137 0 137 155v283h148v-282q0 -136 -76.5 -210.5t-208.5 -74.5t-208.5 74.5t-76.5 210.5v282zM161 625l50 177l121 -31l-46 -178zM330 625l47 177l121 -31l-43 -178z" />
    <glyph glyph-name="uhungarumlaut" unicode="&#x171;" horiz-adv-x="653" 
d="M42 553h147v-283q0 -155 138 -155q137 0 137 155v283h148v-282q0 -136 -76.5 -210.5t-208.5 -74.5t-208.5 74.5t-76.5 210.5v282zM175 625l50 177l121 -31l-46 -178zM344 625l47 177l121 -31l-43 -178z" />
    <glyph glyph-name="Uogonek" unicode="&#x172;" horiz-adv-x="653" 
d="M42 553h147v-283q0 -155 138 -155q137 0 137 155v283h148v-282q0 -118 -59.5 -191t-164.5 -90q-17 -25 -17 -64q0 -47 30 -82l-64 -51q-78 35 -78 109q0 54 31 86q-116 9 -182 83t-66 200v282z" />
    <glyph glyph-name="uogonek" unicode="&#x173;" horiz-adv-x="653" 
d="M42 553h147v-283q0 -155 138 -155q137 0 137 155v283h148v-282q0 -118 -59.5 -191t-164.5 -90q-17 -25 -17 -64q0 -47 30 -82l-64 -51q-78 35 -78 109q0 54 31 86q-116 9 -182 83t-66 200v282z" />
    <glyph glyph-name="Wcircumflex" unicode="&#x174;" horiz-adv-x="1017" 
d="M30 553h156l127 -428h4l108 428h167l107 -428h4l131 428h155l-201 -553h-191l-91 387l-95 -387h-188zM598 595l-90 58l-92 -58l-57 75l149 110l150 -110z" />
    <glyph glyph-name="wcircumflex" unicode="&#x175;" horiz-adv-x="1017" 
d="M30 553h156l127 -428h4l108 428h167l107 -428h4l131 428h155l-201 -553h-191l-91 387l-95 -387h-188zM598 595l-90 58l-92 -58l-57 75l149 110l150 -110z" />
    <glyph glyph-name="Ycircumflex" unicode="&#x176;" horiz-adv-x="717" 
d="M30 553h169l161 -277h4l154 277h169l-257 -415v-138h-145v138zM458 595l-90 58l-92 -58l-57 75l149 110l150 -110z" />
    <glyph glyph-name="ycircumflex" unicode="&#x177;" horiz-adv-x="717" 
d="M30 553h169l161 -277h4l154 277h169l-257 -415v-138h-145v138zM448 595l-90 58l-92 -58l-57 75l149 110l150 -110z" />
    <glyph glyph-name="Ydieresis" unicode="&#x178;" horiz-adv-x="717" 
d="M30 553h169l161 -277h4l154 277h169l-257 -415v-138h-145v138zM239 756q31 0 54.5 -22.5t23.5 -53.5q0 -32 -23.5 -56t-54.5 -24t-55 24t-24 56q0 31 23.5 53.5t55.5 22.5zM476 756q31 0 55 -22.5t24 -53.5t-24 -55.5t-55 -24.5t-54 24t-23 56q0 31 23 53.5t54 22.5z" />
    <glyph glyph-name="Zacute" unicode="&#x179;" horiz-adv-x="614" 
d="M49 553h523v-124l-341 -303l125 4h218v-130h-534v128l349 299l-125 -4h-215v130zM213 625l48 177l121 -31l-44 -178z" />
    <glyph glyph-name="zacute" unicode="&#x17a;" horiz-adv-x="614" 
d="M49 553h523v-124l-341 -303l125 4h218v-130h-534v128l349 299l-125 -4h-215v130zM213 625l48 177l121 -31l-44 -178z" />
    <glyph glyph-name="Zdotaccent" unicode="&#x17b;" horiz-adv-x="614" 
d="M49 553h523v-124l-341 -303l125 4h218v-130h-534v128l349 299l-125 -4h-215v130zM308 754q30 0 52 -21.5t22 -51.5q0 -31 -22 -54.5t-52 -23.5t-52.5 23.5t-22.5 54.5q0 30 22 51.5t53 21.5z" />
    <glyph glyph-name="zdotaccent" unicode="&#x17c;" horiz-adv-x="614" 
d="M49 553h523v-124l-341 -303l125 4h218v-130h-534v128l349 299l-125 -4h-215v130zM308 754q30 0 52 -21.5t22 -51.5q0 -31 -22 -54.5t-52 -23.5t-52.5 23.5t-22.5 54.5q0 30 22 51.5t53 21.5z" />
    <glyph glyph-name="Zcaron" unicode="&#x17d;" horiz-adv-x="614" 
d="M49 553h523v-124l-341 -303l125 4h218v-130h-534v128l349 299l-125 -4h-215v130zM218 763l90 -58l91 58l58 -75l-149 -110l-150 110z" />
    <glyph glyph-name="zcaron" unicode="&#x17e;" horiz-adv-x="614" 
d="M49 553h523v-124l-341 -303l125 4h218v-130h-534v128l349 299l-125 -4h-215v130zM218 763l90 -58l91 58l58 -75l-149 -110l-150 110z" />
    <glyph glyph-name="AEacute" unicode="&#x1fc;" horiz-adv-x="1083" 
d="M385 553h643v-131h-374v-73h338v-130h-338v-83h392v-136h-540v92h-258l-65 -92h-174zM457 422l-118 -198h167v198h-49zM511 625l48 177l121 -31l-44 -178z" />
    <glyph glyph-name="aeacute" unicode="&#x1fd;" horiz-adv-x="1083" 
d="M385 553h643v-131h-374v-73h338v-130h-338v-83h392v-136h-540v92h-258l-65 -92h-174zM457 422l-118 -198h167v198h-49zM498 625l48 177l121 -31l-44 -178z" />
    <glyph glyph-name="Oslashacute" unicode="&#x1fe;" horiz-adv-x="707" 
d="M467 592l114 -58l-23 -37q107 -85 107 -220q0 -126 -91.5 -207t-219.5 -81q-45 0 -91 11l-27 -44l-108 58l23 40q-108 86 -108 223q0 127 91.5 208t219.5 81q48 0 91 -13zM220 171l158 270h-24q-71 0 -117.5 -44.5t-46.5 -119.5q0 -63 30 -106zM489 380l-160 -267
q5 0 13 0.5t12 0.5q70 0 116.5 44.5t46.5 118.5q0 59 -28 103zM291 625l48 177l121 -31l-44 -178z" />
    <glyph glyph-name="oslashacute" unicode="&#x1ff;" horiz-adv-x="686" 
d="M467 592l114 -58l-23 -37q107 -85 107 -220q0 -126 -91.5 -207t-219.5 -81q-45 0 -91 11l-27 -44l-108 58l23 40q-108 86 -108 223q0 127 91.5 208t219.5 81q48 0 91 -13zM220 171l158 270h-24q-71 0 -117.5 -44.5t-46.5 -119.5q0 -63 30 -106zM489 380l-160 -267
q5 0 13 0.5t12 0.5q70 0 116.5 44.5t46.5 118.5q0 59 -28 103zM305 625l48 177l121 -31l-44 -178z" />
    <glyph glyph-name="uni0200" unicode="&#x200;" horiz-adv-x="743" 
d="M361 422l-88 -213h195l-84 213h-23zM267 553h214l235 -553h-156l-35 81h-306l-34 -81h-158zM462 802l50 -177l-125 -32l-46 178zM297 802l46 -177l-125 -32l-43 178z" />
    <glyph glyph-name="uni0201" unicode="&#x201;" horiz-adv-x="743" 
d="M361 422l-88 -213h195l-84 213h-23zM267 553h214l235 -553h-156l-35 81h-306l-34 -81h-158zM463 802l50 -177l-125 -32l-46 178zM298 802l46 -177l-125 -32l-43 178z" />
    <glyph glyph-name="uni0202" unicode="&#x202;" horiz-adv-x="743" 
d="M361 422l-88 -213h195l-84 213h-23zM267 553h214l235 -553h-156l-35 81h-306l-34 -81h-158zM461 569l-90 58l-92 -58l-57 75l149 110l150 -110z" />
    <glyph glyph-name="uni0203" unicode="&#x203;" horiz-adv-x="743" 
d="M361 422l-88 -213h195l-84 213h-23zM267 553h214l235 -553h-156l-35 81h-306l-34 -81h-158zM460 595l-90 58l-92 -58l-57 75l149 110l150 -110z" />
    <glyph glyph-name="uni0204" unicode="&#x204;" 
d="M47 553h509v-133h-362v-73h325v-133h-325v-78h375v-136h-522v553zM413 802l50 -177l-125 -32l-46 178zM248 802l46 -177l-125 -32l-43 178z" />
    <glyph glyph-name="uni0205" unicode="&#x205;" 
d="M47 553h509v-133h-362v-73h325v-133h-325v-78h375v-136h-522v553zM405 802l50 -177l-125 -32l-46 178zM240 802l46 -177l-125 -32l-43 178z" />
    <glyph glyph-name="uni0206" unicode="&#x206;" 
d="M47 553h509v-133h-362v-73h325v-133h-325v-78h375v-136h-522v553zM394 582l-90 58l-92 -58l-57 75l149 110l150 -110z" />
    <glyph glyph-name="uni0207" unicode="&#x207;" 
d="M47 553h509v-133h-362v-73h325v-133h-325v-78h375v-136h-522v553zM394 582l-90 58l-92 -58l-57 75l149 110l150 -110z" />
    <glyph glyph-name="uni0208" unicode="&#x208;" horiz-adv-x="241" 
d="M47 553h147v-553h-147v553zM232 802l50 -177l-125 -32l-46 178zM67 802l46 -177l-125 -32l-43 178z" />
    <glyph glyph-name="uni0209" unicode="&#x209;" horiz-adv-x="241" 
d="M47 553h147v-553h-147v553zM225 802l50 -177l-125 -32l-46 178zM60 802l46 -177l-125 -32l-43 178z" />
    <glyph glyph-name="uni020A" unicode="&#x20a;" horiz-adv-x="241" 
d="M47 553h147v-553h-147v553zM212 595l-90 58l-92 -58l-57 75l149 110l150 -110z" />
    <glyph glyph-name="uni020B" unicode="&#x20b;" horiz-adv-x="241" 
d="M47 553h147v-553h-147v553zM211 593l-90 58l-92 -58l-57 75l149 110l150 -110z" />
    <glyph glyph-name="uni020C" unicode="&#x20c;" horiz-adv-x="707" 
d="M190 276q0 -74 46.5 -119.5t117.5 -45.5q70 0 116.5 45.5t46.5 119.5t-46.5 119.5t-116.5 45.5q-71 0 -117.5 -45.5t-46.5 -119.5zM665 276q0 -126 -92 -208t-219 -82t-219 82t-92 208t92 208t219 82t219 -82t92 -208zM433 802l50 -177l-125 -32l-46 178zM268 802
l46 -177l-125 -32l-43 178z" />
    <glyph glyph-name="uni020D" unicode="&#x20d;" horiz-adv-x="707" 
d="M190 276q0 -74 46.5 -119.5t117.5 -45.5q70 0 116.5 45.5t46.5 119.5t-46.5 119.5t-116.5 45.5q-71 0 -117.5 -45.5t-46.5 -119.5zM665 276q0 -126 -92 -208t-219 -82t-219 82t-92 208t92 208t219 82t219 -82t92 -208zM443 802l50 -177l-125 -32l-46 178zM278 802
l46 -177l-125 -32l-43 178z" />
    <glyph glyph-name="uni020E" unicode="&#x20e;" horiz-adv-x="707" 
d="M190 276q0 -74 46.5 -119.5t117.5 -45.5q70 0 116.5 45.5t46.5 119.5t-46.5 119.5t-116.5 45.5q-71 0 -117.5 -45.5t-46.5 -119.5zM665 276q0 -126 -92 -208t-219 -82t-219 82t-92 208t92 208t219 82t219 -82t92 -208zM443 595l-90 58l-92 -58l-57 75l149 110l150 -110z
" />
    <glyph glyph-name="uni020F" unicode="&#x20f;" horiz-adv-x="707" 
d="M190 276q0 -74 46.5 -119.5t117.5 -45.5q70 0 116.5 45.5t46.5 119.5t-46.5 119.5t-116.5 45.5q-71 0 -117.5 -45.5t-46.5 -119.5zM665 276q0 -126 -92 -208t-219 -82t-219 82t-92 208t92 208t219 82t219 -82t92 -208zM443 595l-90 58l-92 -58l-57 75l149 110l150 -110z
" />
    <glyph glyph-name="uni0210" unicode="&#x210;" horiz-adv-x="633" 
d="M47 553h327q101 0 166 -61.5t65 -158.5q0 -122 -100 -182l84 -151h-160l-63 118h-172v-118h-147v553zM194 419v-167h174q40 0 64.5 21t24.5 60t-24.5 62.5t-64.5 23.5h-174zM403 802l50 -177l-125 -32l-46 178zM238 802l46 -177l-125 -32l-43 178z" />
    <glyph glyph-name="uni0211" unicode="&#x211;" horiz-adv-x="633" 
d="M47 553h327q101 0 166 -61.5t65 -158.5q0 -122 -100 -182l84 -151h-160l-63 118h-172v-118h-147v553zM194 419v-167h174q40 0 64.5 21t24.5 60t-24.5 62.5t-64.5 23.5h-174zM390 802l50 -177l-125 -32l-46 178zM225 802l46 -177l-125 -32l-43 178z" />
    <glyph glyph-name="uni0212" unicode="&#x212;" horiz-adv-x="633" 
d="M47 553h327q101 0 166 -61.5t65 -158.5q0 -122 -100 -182l84 -151h-160l-63 118h-172v-118h-147v553zM194 419v-167h174q40 0 64.5 21t24.5 60t-24.5 62.5t-64.5 23.5h-174zM397 595l-90 58l-92 -58l-57 75l149 110l150 -110z" />
    <glyph glyph-name="uni0213" unicode="&#x213;" horiz-adv-x="633" 
d="M47 553h327q101 0 166 -61.5t65 -158.5q0 -122 -100 -182l84 -151h-160l-63 118h-172v-118h-147v553zM194 419v-167h174q40 0 64.5 21t24.5 60t-24.5 62.5t-64.5 23.5h-174zM386 595l-90 58l-92 -58l-57 75l149 110l150 -110z" />
    <glyph glyph-name="uni0214" unicode="&#x214;" horiz-adv-x="653" 
d="M42 553h147v-283q0 -155 138 -155q137 0 137 155v283h148v-282q0 -136 -76.5 -210.5t-208.5 -74.5t-208.5 74.5t-76.5 210.5v282zM429 802l50 -177l-125 -32l-46 178zM264 802l46 -177l-125 -32l-43 178z" />
    <glyph glyph-name="uni0215" unicode="&#x215;" horiz-adv-x="653" 
d="M42 553h147v-283q0 -155 138 -155q137 0 137 155v283h148v-282q0 -136 -76.5 -210.5t-208.5 -74.5t-208.5 74.5t-76.5 210.5v282zM428 802l50 -177l-125 -32l-46 178zM263 802l46 -177l-125 -32l-43 178z" />
    <glyph glyph-name="uni0216" unicode="&#x216;" horiz-adv-x="653" 
d="M42 553h147v-283q0 -155 138 -155q137 0 137 155v283h148v-282q0 -136 -76.5 -210.5t-208.5 -74.5t-208.5 74.5t-76.5 210.5v282zM417 595l-90 58l-92 -58l-57 75l149 110l150 -110z" />
    <glyph glyph-name="uni0217" unicode="&#x217;" horiz-adv-x="653" 
d="M42 553h147v-283q0 -155 138 -155q137 0 137 155v283h148v-282q0 -136 -76.5 -210.5t-208.5 -74.5t-208.5 74.5t-76.5 210.5v282zM417 595l-90 58l-92 -58l-57 75l149 110l150 -110z" />
    <glyph glyph-name="Scommaaccent" unicode="&#x218;" horiz-adv-x="660" 
d="M609 478l-71 -108q-89 65 -217 65q-115 0 -115 -45q0 -16 13.5 -21.5t43.5 -9.5l161 -18q197 -24 197 -171q0 -91 -80.5 -137.5t-211.5 -46.5q-88 0 -156.5 21.5t-135.5 72.5l69 114q113 -80 236 -80q60 0 98 13.5t38 40.5q0 16 -7.5 23t-32.5 9l-190 22
q-92 11 -139.5 50.5t-47.5 116.5q0 87 73 132t187 45q174 0 288 -88zM320 -31q35 0 55.5 -24t20.5 -59q0 -17 -4 -30l-51 -133l-81 17l14 76q-38 24 -38 71q0 33 25 57.5t59 24.5z" />
    <glyph glyph-name="scommaaccent" unicode="&#x219;" horiz-adv-x="660" 
d="M609 478l-71 -108q-89 65 -217 65q-115 0 -115 -45q0 -16 13.5 -21.5t43.5 -9.5l161 -18q197 -24 197 -171q0 -91 -80.5 -137.5t-211.5 -46.5q-88 0 -156.5 21.5t-135.5 72.5l69 114q113 -80 236 -80q60 0 98 13.5t38 40.5q0 16 -7.5 23t-32.5 9l-190 22
q-92 11 -139.5 50.5t-47.5 116.5q0 87 73 132t187 45q174 0 288 -88zM320 -31q35 0 55.5 -24t20.5 -59q0 -17 -4 -30l-51 -133l-81 17l14 76q-38 24 -38 71q0 33 25 57.5t59 24.5z" />
    <glyph glyph-name="uni021A" unicode="&#x21a;" horiz-adv-x="638" 
d="M30 553h578v-132h-215v-421h-148v421h-215v132zM322 -31q35 0 55.5 -24t20.5 -59q0 -17 -4 -30l-51 -133l-81 17l14 76q-38 24 -38 71q0 33 25 57.5t59 24.5z" />
    <glyph glyph-name="uni021B" unicode="&#x21b;" horiz-adv-x="638" 
d="M30 553h578v-132h-215v-421h-148v421h-215v132zM322 -31q35 0 55.5 -24t20.5 -59q0 -17 -4 -30l-51 -133l-81 17l14 76q-38 24 -38 71q0 33 25 57.5t59 24.5z" />
    <glyph glyph-name="dotlessj" unicode="&#x237;" horiz-adv-x="597" 
d="M407 553h144v-306q0 -112 -71.5 -186.5t-206.5 -74.5q-91 0 -158.5 43.5t-99.5 122.5l127 60q14 -43 50.5 -69t81.5 -26q133 0 133 140v296z" />
    <glyph glyph-name="circumflex" unicode="&#x2c6;" horiz-adv-x="354" 
d="M268 595l-90 58l-92 -58l-57 75l149 110l150 -110z" />
    <glyph glyph-name="caron" unicode="&#x2c7;" horiz-adv-x="354" 
d="M89 763l90 -58l91 58l58 -75l-149 -110l-150 110z" />
    <glyph glyph-name="breve" unicode="&#x2d8;" horiz-adv-x="380" 
d="M294 745l68 -79q-48 -40 -87 -52.5t-88 -12.5t-88 12.5t-86 52.5l68 79q46 -32 106 -32q61 0 107 32z" />
    <glyph glyph-name="dotaccent" unicode="&#x2d9;" horiz-adv-x="235" 
d="M120 754q30 0 52 -21.5t22 -51.5q0 -31 -22 -54.5t-52 -23.5t-52.5 23.5t-22.5 54.5q0 30 22 51.5t53 21.5z" />
    <glyph glyph-name="ring" unicode="&#x2da;" horiz-adv-x="335" 
d="M298 719q0 -56 -38.5 -91.5t-92.5 -35.5t-92.5 35.5t-38.5 91.5t38.5 92t92.5 36t92.5 -36t38.5 -92zM131 719q0 -38 36 -38t36 38q0 39 -36 39t-36 -39z" />
    <glyph glyph-name="ogonek" unicode="&#x2db;" horiz-adv-x="380" 
d="M159 1l88 -3q-22 -30 -22 -71q0 -47 30 -82l-64 -51q-37 17 -57.5 46t-20.5 63q0 61 46 98z" />
    <glyph glyph-name="tilde" unicode="&#x2dc;" horiz-adv-x="433" 
d="M349 743l56 -69q-40 -74 -118 -74q-34 0 -76.5 19t-66.5 19q-34 0 -61 -34l-66 64q47 86 134 86q38 0 77 -18t60 -18q38 0 61 25z" />
    <glyph glyph-name="hungarumlaut" unicode="&#x2dd;" horiz-adv-x="378" 
d="M14 625l50 177l121 -31l-46 -178zM183 625l47 177l121 -31l-43 -178z" />
    <glyph glyph-name="uni0400" unicode="&#x400;" 
d="M47 553h509v-133h-362v-73h325v-133h-325v-78h375v-136h-522v553zM345 802l48 -177l-124 -32l-45 178z" />
    <glyph glyph-name="afii10023" unicode="&#x401;" 
d="M47 553h509v-133h-362v-73h325v-133h-325v-78h375v-136h-522v553zM185 756q31 0 54.5 -22.5t23.5 -53.5q0 -32 -23.5 -56t-54.5 -24t-55 24t-24 56q0 31 23.5 53.5t55.5 22.5zM422 756q31 0 55 -22.5t24 -53.5t-24 -55.5t-55 -24.5t-54 24t-23 56q0 31 23 53.5t54 22.5z
" />
    <glyph glyph-name="afii10051" unicode="&#x402;" horiz-adv-x="767" 
d="M29 553h569v-129h-220v-53h97q131 0 196.5 -68t65.5 -189q0 -76 -37 -156t-99 -137l-101 89q90 96 90 200q0 80 -28 106t-112 26h-72v-242h-148v424h-201v129z" />
    <glyph glyph-name="afii10052" unicode="&#x403;" horiz-adv-x="592" 
d="M47 553h516v-133h-369v-420h-147v553zM252 625l48 177l121 -31l-44 -178z" />
    <glyph glyph-name="afii10053" unicode="&#x404;" horiz-adv-x="673" 
d="M434 345v-127h-247q13 -48 55 -74t102 -26q62 0 102.5 22t70.5 68l116 -65q-84 -157 -287 -157q-135 0 -222.5 79t-87.5 211q0 131 86.5 210.5t219.5 79.5q205 0 291 -157l-113 -64q-31 46 -72.5 68t-103.5 22q-122 0 -152 -90h242z" />
    <glyph glyph-name="afii10054" unicode="&#x405;" horiz-adv-x="660" 
d="M609 478l-71 -108q-89 65 -217 65q-115 0 -115 -45q0 -16 13.5 -21.5t43.5 -9.5l161 -18q197 -24 197 -171q0 -91 -80.5 -137.5t-211.5 -46.5q-88 0 -156.5 21.5t-135.5 72.5l69 114q113 -80 236 -80q60 0 98 13.5t38 40.5q0 16 -7.5 23t-32.5 9l-190 22
q-92 11 -139.5 50.5t-47.5 116.5q0 87 73 132t187 45q174 0 288 -88z" />
    <glyph glyph-name="afii10055" unicode="&#x406;" horiz-adv-x="241" 
d="M47 553h147v-553h-147v553z" />
    <glyph glyph-name="afii10056" unicode="&#x407;" horiz-adv-x="241" 
d="M47 553h147v-553h-147v553zM2 756q31 0 54.5 -22.5t23.5 -53.5q0 -32 -23.5 -56t-54.5 -24t-55 24t-24 56q0 31 23.5 53.5t55.5 22.5zM239 756q31 0 55 -22.5t24 -53.5t-24 -55.5t-55 -24.5t-54 24t-23 56q0 31 23 53.5t54 22.5z" />
    <glyph glyph-name="afii10057" unicode="&#x408;" horiz-adv-x="597" 
d="M407 553h144v-306q0 -112 -71.5 -186.5t-206.5 -74.5q-91 0 -158.5 43.5t-99.5 122.5l127 60q14 -43 50.5 -69t81.5 -26q133 0 133 140v296z" />
    <glyph glyph-name="afii10058" unicode="&#x409;" horiz-adv-x="1052" 
d="M197 553h447v-119h146q101 0 166.5 -58t65.5 -154q0 -98 -66 -160t-166 -62h-294v421h-176l-52 -276q-26 -145 -176 -145h-62v133h57q31 0 37 31zM644 303v-169h135q96 0 96 88q0 43 -23 62t-73 19h-135z" />
    <glyph glyph-name="afii10059" unicode="&#x40a;" horiz-adv-x="1014" 
d="M47 553h147v-202h257v202h148v-119h146q102 0 167 -57.5t65 -154.5q0 -98 -65.5 -160t-166.5 -62h-294v219h-257v-219h-147v553zM599 303v-169h136q95 0 95 88q0 43 -22.5 62t-72.5 19h-136z" />
    <glyph glyph-name="afii10060" unicode="&#x40b;" horiz-adv-x="769" 
d="M29 553h569v-129h-220v-53h97q131 0 196.5 -68t65.5 -189v-114h-147v114q0 77 -29 102.5t-113 25.5h-70v-242h-148v424h-201v129z" />
    <glyph glyph-name="afii10061" unicode="&#x40c;" horiz-adv-x="661" 
d="M47 553h146v-195h130l133 195h170l-178 -256l190 -297h-175l-136 223h-134v-223h-146v553zM255 628l48 177l121 -31l-44 -178z" />
    <glyph glyph-name="uni040D" unicode="&#x40d;" horiz-adv-x="671" 
d="M47 553h146v-351l291 351h140v-553h-146v349l-290 -349h-141v553zM354 802l48 -177l-124 -32l-45 178z" />
    <glyph glyph-name="afii10062" unicode="&#x40e;" horiz-adv-x="670" 
d="M18 553h152l76 -227q7 -20 28 -20h140l83 247h151l-148 -435q-18 -52 -63 -85t-100 -33h-163v124h157q26 0 36 27l7 24h-106q-65 0 -103 28t-59 89zM438 748l68 -79q-48 -40 -87 -52.5t-88 -12.5t-88 12.5t-86 52.5l68 79q46 -32 106 -32q61 0 107 32z" />
    <glyph glyph-name="afii10145" unicode="&#x40f;" horiz-adv-x="643" 
d="M47 553h146v-423h256v423h148v-553h-198l-9 -104h-128l-9 104h-206v553z" />
    <glyph glyph-name="afii10017" unicode="&#x410;" horiz-adv-x="743" 
d="M361 422l-88 -213h195l-84 213h-23zM267 553h214l235 -553h-156l-35 81h-306l-34 -81h-158z" />
    <glyph glyph-name="afii10018" unicode="&#x411;" horiz-adv-x="627" 
d="M47 553h484v-132h-338v-43h209q87 0 142 -52.5t55 -133.5q0 -80 -56 -136t-141 -56h-355v553zM193 248v-116h200q59 0 59 60q0 56 -60 56h-199z" />
    <glyph glyph-name="afii10019" unicode="&#x412;" horiz-adv-x="648" 
d="M47 553h359q76 0 124.5 -42t48.5 -111q0 -60 -39 -87q76 -44 76 -139q0 -73 -52.5 -123.5t-128.5 -50.5h-388v553zM194 421v-74h211q11 0 20.5 11.5t9.5 25.5q0 13 -8.5 25t-26.5 12h-206zM194 219v-86h237q18 0 29.5 11.5t11.5 30.5t-13 31.5t-32 12.5h-233z" />
    <glyph glyph-name="afii10020" unicode="&#x413;" horiz-adv-x="592" 
d="M47 553h516v-133h-369v-420h-147v553z" />
    <glyph glyph-name="afii10021" unicode="&#x414;" horiz-adv-x="736" 
d="M185 553h451v-421h63v-233h-128l-11 101h-384l-10 -101h-129v233h68zM306 425l-48 -293h231v293h-183z" />
    <glyph glyph-name="afii10022" unicode="&#x415;" 
d="M47 553h509v-133h-362v-73h325v-133h-325v-78h375v-136h-522v553z" />
    <glyph glyph-name="afii10024" unicode="&#x416;" horiz-adv-x="971" 
d="M44 553h168l116 -200h83v200h148v-200h84l116 200h168l-158 -257l175 -296h-170l-127 223h-88v-223h-148v223h-87l-128 -223h-169l175 296z" />
    <glyph glyph-name="afii10025" unicode="&#x417;" horiz-adv-x="670" 
d="M199 353h227q26 0 26 32q0 52 -123 52q-75 0 -118.5 -11.5t-97.5 -46.5l-61 105q65 45 129.5 63.5t144.5 18.5q151 0 219 -55q56 -44 56 -123q0 -54 -33 -79q68 -46 68 -131q0 -82 -77 -140q-69 -52 -229 -52q-94 0 -161 20t-136 69l67 108q102 -68 236 -68q76 0 114 15
t38 55q0 21 -14.5 30t-50.5 9h-224v129z" />
    <glyph glyph-name="afii10026" unicode="&#x418;" horiz-adv-x="671" 
d="M47 553h146v-351l291 351h140v-553h-146v349l-290 -349h-141v553z" />
    <glyph glyph-name="afii10027" unicode="&#x419;" horiz-adv-x="671" 
d="M47 553h146v-351l291 351h140v-553h-146v349l-290 -349h-141v553zM442 714l68 -79q-48 -40 -87 -52.5t-88 -12.5t-88 12.5t-86 52.5l68 79q46 -32 106 -32q61 0 107 32z" />
    <glyph glyph-name="afii10028" unicode="&#x41a;" horiz-adv-x="661" 
d="M47 553h146v-195h130l133 195h170l-178 -256l190 -297h-175l-136 223h-134v-223h-146v553z" />
    <glyph glyph-name="afii10029" unicode="&#x41b;" horiz-adv-x="680" 
d="M185 553h448v-553h-147v421h-178l-52 -276q-26 -145 -176 -145h-76v133h71q31 0 37 31z" />
    <glyph glyph-name="afii10030" unicode="&#x41c;" horiz-adv-x="820" 
d="M46 553h188l172 -369h4l186 369h177v-553h-147v348l-161 -348h-118l-158 348v-348h-143v553z" />
    <glyph glyph-name="afii10031" unicode="&#x41d;" horiz-adv-x="659" 
d="M47 553h147v-202h271v202h148v-553h-148v219h-271v-219h-147v553z" />
    <glyph glyph-name="afii10032" unicode="&#x41e;" horiz-adv-x="707" 
d="M190 276q0 -74 46.5 -119.5t117.5 -45.5q70 0 116.5 45.5t46.5 119.5t-46.5 119.5t-116.5 45.5q-71 0 -117.5 -45.5t-46.5 -119.5zM665 276q0 -126 -92 -208t-219 -82t-219 82t-92 208t92 208t219 82t219 -82t92 -208z" />
    <glyph glyph-name="afii10033" unicode="&#x41f;" horiz-adv-x="643" 
d="M47 553h550v-553h-148v423h-256v-423h-146v553z" />
    <glyph glyph-name="afii10034" unicode="&#x420;" horiz-adv-x="635" 
d="M47 553h327q101 0 166 -61.5t65 -158.5t-65 -156t-166 -59h-180v-118h-147v553zM194 419v-167h174q40 0 64.5 21t24.5 60t-24.5 62.5t-64.5 23.5h-174z" />
    <glyph glyph-name="afii10035" unicode="&#x421;" horiz-adv-x="675" 
d="M637 409l-114 -65q-32 47 -72.5 69.5t-101.5 22.5q-74 0 -118.5 -43.5t-44.5 -116.5q0 -72 45 -116t118 -44q114 0 173 91l114 -64q-84 -157 -285 -157q-136 0 -223.5 79t-87.5 211q0 131 88.5 210.5t222.5 79.5q200 0 286 -157z" />
    <glyph glyph-name="afii10036" unicode="&#x422;" horiz-adv-x="638" 
d="M30 553h578v-132h-215v-421h-148v421h-215v132z" />
    <glyph glyph-name="afii10037" unicode="&#x423;" horiz-adv-x="670" 
d="M18 553h152l76 -227q7 -20 28 -20h140l83 247h151l-148 -435q-18 -52 -63 -85t-100 -33h-163v124h157q26 0 36 27l7 24h-106q-65 0 -103 28t-59 89z" />
    <glyph glyph-name="afii10038" unicode="&#x424;" horiz-adv-x="864" 
d="M359 496v57h147v-57h99q101 0 167 -61t66 -159q0 -97 -66 -156.5t-167 -59.5h-99v-60h-147v60h-100q-101 0 -166.5 59t-65.5 157t65.5 159t166.5 61h100zM359 361h-95q-90 0 -90 -84q0 -40 24 -61t66 -21h95v166zM506 361v-166h94q42 0 66 21t24 61q0 84 -90 84h-94z" />
    <glyph glyph-name="afii10039" unicode="&#x425;" horiz-adv-x="695" 
d="M31 553h167l138 -204h23l137 204h167l-183 -262l190 -291h-170l-140 218h-26l-138 -218h-171l191 288z" />
    <glyph glyph-name="afii10040" unicode="&#x426;" horiz-adv-x="682" 
d="M47 553h147v-420h252v420h148v-420h55v-234h-129l-9 101h-464v553z" />
    <glyph glyph-name="afii10041" unicode="&#x427;" horiz-adv-x="646" 
d="M50 553h148v-210q0 -97 93 -97h156v307h148v-553h-148v113h-174q-100 0 -161.5 60.5t-61.5 158.5v221z" />
    <glyph glyph-name="afii10042" unicode="&#x428;" horiz-adv-x="882" 
d="M47 553h145v-421h176v421h146v-421h176v421h146v-553h-789v553z" />
    <glyph glyph-name="afii10043" unicode="&#x429;" horiz-adv-x="924" 
d="M753 0h-706v553h145v-421h176v421h146v-421h176v421h146v-420h55v-234h-129z" />
    <glyph glyph-name="afii10044" unicode="&#x42a;" horiz-adv-x="716" 
d="M22 553h272v-115h160q101 0 166.5 -59.5t65.5 -156.5q0 -98 -66 -160t-166 -62h-307v425l-125 6v122zM294 303v-169h155q40 0 65 24t25 64q0 39 -25 60t-65 21h-155z" />
    <glyph glyph-name="afii10045" unicode="&#x42b;" horiz-adv-x="832" 
d="M638 553h147v-553h-147v553zM47 553h147v-119h173q102 0 167 -57.5t65 -154.5q0 -98 -65.5 -160t-166.5 -62h-320v553zM194 303v-169h163q95 0 95 88q0 43 -22.5 62t-72.5 19h-163z" />
    <glyph glyph-name="afii10046" unicode="&#x42c;" horiz-adv-x="632" 
d="M47 553h147v-119h173q102 0 167 -57.5t65 -154.5q0 -98 -65.5 -160t-166.5 -62h-320v553zM194 303v-169h163q95 0 95 88q0 43 -22.5 62t-72.5 19h-163z" />
    <glyph glyph-name="afii10047" unicode="&#x42d;" horiz-adv-x="673" 
d="M248 345h242q-30 90 -152 90q-115 0 -175 -90l-113 64q85 157 291 157q133 0 219.5 -79.5t86.5 -210.5q0 -132 -87.5 -211t-222.5 -79q-203 0 -287 157l115 64q56 -89 173 -89q60 0 102 26t55 74h-247v127z" />
    <glyph glyph-name="afii10048" unicode="&#x42e;" horiz-adv-x="897" 
d="M47 553h146v-198h72q24 98 105.5 154.5t189.5 56.5q130 0 216.5 -79t86.5 -211t-86.5 -211t-216.5 -79q-116 0 -199.5 64t-101.5 174h-66v-224h-146v553zM403 276q0 -79 40 -122t117 -43t117 43t40 122t-40 122t-117 43t-117 -43t-40 -122z" />
    <glyph glyph-name="afii10049" unicode="&#x42f;" horiz-adv-x="634" 
d="M586 553v-553h-147v116h-172l-59 -116h-160l83 150q-46 27 -74.5 74.5t-28.5 108.5q0 98 66 159t166 61h326zM439 419h-174q-40 0 -65 -23t-25 -63q0 -39 25 -60.5t65 -21.5h174v168z" />
    <glyph glyph-name="afii10065" unicode="&#x430;" horiz-adv-x="743" 
d="M361 422l-88 -213h195l-84 213h-23zM267 553h214l235 -553h-156l-35 81h-306l-34 -81h-158z" />
    <glyph glyph-name="afii10066" unicode="&#x431;" horiz-adv-x="627" 
d="M47 553h484v-132h-338v-43h209q87 0 142 -52.5t55 -133.5q0 -80 -56 -136t-141 -56h-355v553zM193 248v-116h200q59 0 59 60q0 56 -60 56h-199z" />
    <glyph glyph-name="afii10067" unicode="&#x432;" horiz-adv-x="648" 
d="M47 553h359q76 0 124.5 -42t48.5 -111q0 -60 -39 -87q76 -44 76 -139q0 -73 -52.5 -123.5t-128.5 -50.5h-388v553zM194 421v-74h211q11 0 20.5 11.5t9.5 25.5q0 13 -8.5 25t-26.5 12h-206zM194 219v-86h237q18 0 29.5 11.5t11.5 30.5t-13 31.5t-32 12.5h-233z" />
    <glyph glyph-name="afii10068" unicode="&#x433;" horiz-adv-x="592" 
d="M47 553h516v-133h-369v-420h-147v553z" />
    <glyph glyph-name="afii10069" unicode="&#x434;" horiz-adv-x="736" 
d="M185 553h451v-421h63v-233h-128l-11 101h-384l-10 -101h-129v233h68zM306 425l-48 -293h231v293h-183z" />
    <glyph glyph-name="afii10070" unicode="&#x435;" 
d="M47 553h509v-133h-362v-73h325v-133h-325v-78h375v-136h-522v553z" />
    <glyph glyph-name="afii10072" unicode="&#x436;" horiz-adv-x="971" 
d="M44 553h168l116 -200h83v200h148v-200h84l116 200h168l-158 -257l175 -296h-170l-127 223h-88v-223h-148v223h-87l-128 -223h-169l175 296z" />
    <glyph glyph-name="afii10073" unicode="&#x437;" horiz-adv-x="670" 
d="M199 353h227q26 0 26 32q0 52 -123 52q-75 0 -118.5 -11.5t-97.5 -46.5l-61 105q65 45 129.5 63.5t144.5 18.5q151 0 219 -55q56 -44 56 -123q0 -54 -33 -79q68 -46 68 -131q0 -82 -77 -140q-69 -52 -229 -52q-94 0 -161 20t-136 69l67 108q102 -68 236 -68q76 0 114 15
t38 55q0 21 -14.5 30t-50.5 9h-224v129z" />
    <glyph glyph-name="afii10074" unicode="&#x438;" horiz-adv-x="671" 
d="M47 553h146v-351l291 351h140v-553h-146v349l-290 -349h-141v553z" />
    <glyph glyph-name="afii10075" unicode="&#x439;" horiz-adv-x="671" 
d="M47 553h146v-351l291 351h140v-553h-146v349l-290 -349h-141v553zM434 751l68 -79q-48 -40 -87 -52.5t-88 -12.5t-88 12.5t-86 52.5l68 79q46 -32 106 -32q61 0 107 32z" />
    <glyph glyph-name="afii10076" unicode="&#x43a;" horiz-adv-x="661" 
d="M47 553h146v-195h130l133 195h170l-178 -256l190 -297h-175l-136 223h-134v-223h-146v553z" />
    <glyph glyph-name="afii10077" unicode="&#x43b;" horiz-adv-x="680" 
d="M185 553h448v-553h-147v421h-178l-52 -276q-26 -145 -176 -145h-76v133h71q31 0 37 31z" />
    <glyph glyph-name="afii10078" unicode="&#x43c;" horiz-adv-x="820" 
d="M46 553h188l172 -369h4l186 369h177v-553h-147v348l-161 -348h-118l-158 348v-348h-143v553z" />
    <glyph glyph-name="afii10079" unicode="&#x43d;" horiz-adv-x="659" 
d="M47 553h147v-202h271v202h148v-553h-148v219h-271v-219h-147v553z" />
    <glyph glyph-name="afii10080" unicode="&#x43e;" horiz-adv-x="707" 
d="M190 276q0 -74 46.5 -119.5t117.5 -45.5q70 0 116.5 45.5t46.5 119.5t-46.5 119.5t-116.5 45.5q-71 0 -117.5 -45.5t-46.5 -119.5zM665 276q0 -126 -92 -208t-219 -82t-219 82t-92 208t92 208t219 82t219 -82t92 -208z" />
    <glyph glyph-name="afii10081" unicode="&#x43f;" horiz-adv-x="643" 
d="M47 553h550v-553h-148v423h-256v-423h-146v553z" />
    <glyph glyph-name="afii10082" unicode="&#x440;" horiz-adv-x="640" 
d="M47 553h327q101 0 166 -61.5t65 -158.5t-65 -156t-166 -59h-180v-118h-147v553zM194 419v-167h174q40 0 64.5 21t24.5 60t-24.5 62.5t-64.5 23.5h-174z" />
    <glyph glyph-name="afii10083" unicode="&#x441;" horiz-adv-x="675" 
d="M637 409l-114 -65q-32 47 -72.5 69.5t-101.5 22.5q-74 0 -118.5 -43.5t-44.5 -116.5q0 -72 45 -116t118 -44q114 0 173 91l114 -64q-84 -157 -285 -157q-136 0 -223.5 79t-87.5 211q0 131 88.5 210.5t222.5 79.5q200 0 286 -157z" />
    <glyph glyph-name="afii10084" unicode="&#x442;" horiz-adv-x="638" 
d="M30 553h578v-132h-215v-421h-148v421h-215v132z" />
    <glyph glyph-name="afii10085" unicode="&#x443;" horiz-adv-x="670" 
d="M18 553h152l76 -227q7 -20 28 -20h140l83 247h151l-148 -435q-18 -52 -63 -85t-100 -33h-163v124h157q26 0 36 27l7 24h-106q-65 0 -103 28t-59 89z" />
    <glyph glyph-name="afii10086" unicode="&#x444;" horiz-adv-x="864" 
d="M359 496v57h147v-57h99q101 0 167 -61t66 -159q0 -97 -66 -156.5t-167 -59.5h-99v-60h-147v60h-100q-101 0 -166.5 59t-65.5 157t65.5 159t166.5 61h100zM359 361h-95q-90 0 -90 -84q0 -40 24 -61t66 -21h95v166zM506 361v-166h94q42 0 66 21t24 61q0 84 -90 84h-94z" />
    <glyph glyph-name="afii10087" unicode="&#x445;" horiz-adv-x="695" 
d="M31 553h167l138 -204h23l137 204h167l-183 -262l190 -291h-170l-140 218h-26l-138 -218h-171l191 288z" />
    <glyph glyph-name="afii10088" unicode="&#x446;" horiz-adv-x="682" 
d="M47 553h147v-420h252v420h148v-420h55v-234h-129l-9 101h-464v553z" />
    <glyph glyph-name="afii10089" unicode="&#x447;" horiz-adv-x="646" 
d="M50 553h148v-210q0 -97 93 -97h156v307h148v-553h-148v113h-174q-100 0 -161.5 60.5t-61.5 158.5v221z" />
    <glyph glyph-name="afii10090" unicode="&#x448;" horiz-adv-x="882" 
d="M47 553h145v-421h176v421h146v-421h176v421h146v-553h-789v553z" />
    <glyph glyph-name="afii10091" unicode="&#x449;" horiz-adv-x="924" 
d="M753 0h-706v553h145v-421h176v421h146v-421h176v421h146v-420h55v-234h-129z" />
    <glyph glyph-name="afii10092" unicode="&#x44a;" horiz-adv-x="716" 
d="M22 553h272v-115h160q101 0 166.5 -59.5t65.5 -156.5q0 -98 -66 -160t-166 -62h-307v425l-125 6v122zM294 303v-169h155q40 0 65 24t25 64q0 39 -25 60t-65 21h-155z" />
    <glyph glyph-name="afii10093" unicode="&#x44b;" horiz-adv-x="832" 
d="M638 553h147v-553h-147v553zM47 553h147v-119h173q102 0 167 -57.5t65 -154.5q0 -98 -65.5 -160t-166.5 -62h-320v553zM194 303v-169h163q95 0 95 88q0 43 -22.5 62t-72.5 19h-163z" />
    <glyph glyph-name="afii10094" unicode="&#x44c;" horiz-adv-x="632" 
d="M47 553h147v-119h173q102 0 167 -57.5t65 -154.5q0 -98 -65.5 -160t-166.5 -62h-320v553zM194 303v-169h163q95 0 95 88q0 43 -22.5 62t-72.5 19h-163z" />
    <glyph glyph-name="afii10095" unicode="&#x44d;" horiz-adv-x="673" 
d="M248 345h242q-30 90 -152 90q-115 0 -175 -90l-113 64q85 157 291 157q133 0 219.5 -79.5t86.5 -210.5q0 -132 -87.5 -211t-222.5 -79q-203 0 -287 157l115 64q56 -89 173 -89q60 0 102 26t55 74h-247v127z" />
    <glyph glyph-name="afii10096" unicode="&#x44e;" horiz-adv-x="897" 
d="M47 553h146v-198h72q24 98 105.5 154.5t189.5 56.5q130 0 216.5 -79t86.5 -211t-86.5 -211t-216.5 -79q-116 0 -199.5 64t-101.5 174h-66v-224h-146v553zM403 276q0 -79 40 -122t117 -43t117 43t40 122t-40 122t-117 43t-117 -43t-40 -122z" />
    <glyph glyph-name="afii10097" unicode="&#x44f;" horiz-adv-x="634" 
d="M586 553v-553h-147v116h-172l-59 -116h-160l83 150q-46 27 -74.5 74.5t-28.5 108.5q0 98 66 159t166 61h326zM439 419h-174q-40 0 -65 -23t-25 -63q0 -39 25 -60.5t65 -21.5h174v168z" />
    <glyph glyph-name="uni0450" unicode="&#x450;" 
d="M47 553h509v-133h-362v-73h325v-133h-325v-78h375v-136h-522v553zM345 802l48 -177l-124 -32l-45 178z" />
    <glyph glyph-name="afii10071" unicode="&#x451;" 
d="M47 553h509v-133h-362v-73h325v-133h-325v-78h375v-136h-522v553zM181 756q31 0 54.5 -22.5t23.5 -53.5q0 -32 -23.5 -56t-54.5 -24t-55 24t-24 56q0 31 23.5 53.5t55.5 22.5zM418 756q31 0 55 -22.5t24 -53.5t-24 -55.5t-55 -24.5t-54 24t-23 56q0 31 23 53.5t54 22.5z
" />
    <glyph glyph-name="afii10099" unicode="&#x452;" horiz-adv-x="767" 
d="M29 553h569v-129h-220v-53h97q131 0 196.5 -68t65.5 -189q0 -76 -37 -156t-99 -137l-101 89q90 96 90 200q0 80 -28 106t-112 26h-72v-242h-148v424h-201v129z" />
    <glyph glyph-name="afii10100" unicode="&#x453;" horiz-adv-x="592" 
d="M47 553h516v-133h-369v-420h-147v553zM198 625l48 177l121 -31l-44 -178z" />
    <glyph glyph-name="afii10101" unicode="&#x454;" horiz-adv-x="673" 
d="M434 345v-127h-247q13 -48 55 -74t102 -26q62 0 102.5 22t70.5 68l116 -65q-84 -157 -287 -157q-135 0 -222.5 79t-87.5 211q0 131 86.5 210.5t219.5 79.5q205 0 291 -157l-113 -64q-31 46 -72.5 68t-103.5 22q-122 0 -152 -90h242z" />
    <glyph glyph-name="afii10102" unicode="&#x455;" horiz-adv-x="660" 
d="M609 478l-71 -108q-89 65 -217 65q-115 0 -115 -45q0 -16 13.5 -21.5t43.5 -9.5l161 -18q197 -24 197 -171q0 -91 -80.5 -137.5t-211.5 -46.5q-88 0 -156.5 21.5t-135.5 72.5l69 114q113 -80 236 -80q60 0 98 13.5t38 40.5q0 16 -7.5 23t-32.5 9l-190 22
q-92 11 -139.5 50.5t-47.5 116.5q0 87 73 132t187 45q174 0 288 -88z" />
    <glyph glyph-name="afii10103" unicode="&#x456;" horiz-adv-x="241" 
d="M47 553h147v-553h-147v553z" />
    <glyph glyph-name="afii10104" unicode="&#x457;" horiz-adv-x="241" 
d="M47 553h147v-553h-147v553zM2 756q31 0 54.5 -22.5t23.5 -53.5q0 -32 -23.5 -56t-54.5 -24t-55 24t-24 56q0 31 23.5 53.5t55.5 22.5zM239 756q31 0 55 -22.5t24 -53.5t-24 -55.5t-55 -24.5t-54 24t-23 56q0 31 23 53.5t54 22.5z" />
    <glyph glyph-name="afii10105" unicode="&#x458;" horiz-adv-x="597" 
d="M407 553h144v-306q0 -112 -71.5 -186.5t-206.5 -74.5q-91 0 -158.5 43.5t-99.5 122.5l127 60q14 -43 50.5 -69t81.5 -26q133 0 133 140v296z" />
    <glyph glyph-name="afii10106" unicode="&#x459;" horiz-adv-x="1052" 
d="M197 553h447v-119h146q101 0 166.5 -58t65.5 -154q0 -98 -66 -160t-166 -62h-294v421h-176l-52 -276q-26 -145 -176 -145h-62v133h57q31 0 37 31zM644 303v-169h135q96 0 96 88q0 43 -23 62t-73 19h-135z" />
    <glyph glyph-name="afii10107" unicode="&#x45a;" horiz-adv-x="1014" 
d="M47 553h147v-202h257v202h148v-119h146q102 0 167 -57.5t65 -154.5q0 -98 -65.5 -160t-166.5 -62h-294v219h-257v-219h-147v553zM599 303v-169h136q95 0 95 88q0 43 -22.5 62t-72.5 19h-136z" />
    <glyph glyph-name="afii10108" unicode="&#x45b;" horiz-adv-x="769" 
d="M29 553h569v-129h-220v-53h97q131 0 196.5 -68t65.5 -189v-114h-147v114q0 77 -29 102.5t-113 25.5h-70v-242h-148v424h-201v129z" />
    <glyph glyph-name="afii10109" unicode="&#x45c;" horiz-adv-x="661" 
d="M47 553h146v-195h130l133 195h170l-178 -256l190 -297h-175l-136 223h-134v-223h-146v553zM255 628l48 177l121 -31l-44 -178z" />
    <glyph glyph-name="uni045D" unicode="&#x45d;" horiz-adv-x="668" 
d="M346 802l48 -177l-125 -32l-45 178zM33 553h147v-351l290 351h141v-553h-146v349l-290 -349h-142v553z" />
    <glyph glyph-name="afii10110" unicode="&#x45e;" horiz-adv-x="670" 
d="M18 553h152l76 -227q7 -20 28 -20h140l83 247h151l-148 -435q-18 -52 -63 -85t-100 -33h-163v124h157q26 0 36 27l7 24h-106q-65 0 -103 28t-59 89zM438 748l68 -79q-48 -40 -87 -52.5t-88 -12.5t-88 12.5t-86 52.5l68 79q46 -32 106 -32q61 0 107 32z" />
    <glyph glyph-name="afii10193" unicode="&#x45f;" horiz-adv-x="643" 
d="M47 553h146v-423h256v423h148v-553h-198l-9 -104h-128l-9 104h-206v553z" />
    <glyph glyph-name="afii10147" unicode="&#x472;" horiz-adv-x="707" 
d="M43 277q0 127 91.5 208t219.5 81t219.5 -81t91.5 -208q0 -126 -91.5 -207t-219.5 -81t-219.5 81t-91.5 207zM199 210q20 -45 61.5 -70.5t93.5 -25.5q60 0 103.5 33t56.5 91q-35 -29 -92 -29q-30 0 -60 15.5t-51 15.5q-81 0 -112 -30zM193 310q42 46 122 46q33 0 65 -14
t56 -14q52 0 69 19q-20 44 -60.5 69t-90.5 25q-62 0 -106.5 -35t-54.5 -96z" />
    <glyph glyph-name="afii10195" unicode="&#x473;" horiz-adv-x="707" 
d="M43 277q0 127 91.5 208t219.5 81t219.5 -81t91.5 -208q0 -126 -91.5 -207t-219.5 -81t-219.5 81t-91.5 207zM199 210q20 -45 61.5 -70.5t93.5 -25.5q60 0 103.5 33t56.5 91q-35 -29 -92 -29q-30 0 -60 15.5t-51 15.5q-81 0 -112 -30zM193 310q42 46 122 46q33 0 65 -14
t56 -14q52 0 69 19q-20 44 -60.5 69t-90.5 25q-62 0 -106.5 -35t-54.5 -96z" />
    <glyph glyph-name="afii10050" unicode="&#x490;" horiz-adv-x="590" 
d="M47 553h379l10 105h127v-238h-369v-420h-147v553z" />
    <glyph glyph-name="afii10098" unicode="&#x491;" horiz-adv-x="590" 
d="M47 553h379l10 105h127v-238h-369v-420h-147v553z" />
    <glyph glyph-name="uni04D8" unicode="&#x4d8;" horiz-adv-x="669" 
d="M33 342h448q-31 99 -158 99q-41 0 -85 -15t-72 -39l-81 88q37 43 102.5 67t135.5 24q138 0 225.5 -77.5t87.5 -212.5q0 -136 -86.5 -213t-214.5 -77q-130 0 -216 77.5t-86 211.5v67zM484 222h-299q23 -111 150 -111q64 0 102.5 30t46.5 81z" />
    <glyph glyph-name="afii10846" unicode="&#x4d9;" horiz-adv-x="669" 
d="M33 342h448q-31 99 -158 99q-41 0 -85 -15t-72 -39l-81 88q37 43 102.5 67t135.5 24q138 0 225.5 -77.5t87.5 -212.5q0 -136 -86.5 -213t-214.5 -77q-130 0 -216 77.5t-86 211.5v67zM484 222h-299q23 -111 150 -111q64 0 102.5 30t46.5 81z" />
    <glyph glyph-name="Wgrave" unicode="&#x1e80;" horiz-adv-x="1017" 
d="M30 553h156l127 -428h4l108 428h167l107 -428h4l131 428h155l-201 -553h-191l-91 387l-95 -387h-188zM531 802l48 -177l-124 -32l-45 178z" />
    <glyph glyph-name="wgrave" unicode="&#x1e81;" horiz-adv-x="1017" 
d="M30 553h156l127 -428h4l108 428h167l107 -428h4l131 428h155l-201 -553h-191l-91 387l-95 -387h-188zM531 802l48 -177l-124 -32l-45 178z" />
    <glyph glyph-name="Wacute" unicode="&#x1e82;" horiz-adv-x="1017" 
d="M30 553h156l127 -428h4l108 428h167l107 -428h4l131 428h155l-201 -553h-191l-91 387l-95 -387h-188zM439 625l48 177l121 -31l-44 -178z" />
    <glyph glyph-name="wacute" unicode="&#x1e83;" horiz-adv-x="1017" 
d="M30 553h156l127 -428h4l108 428h167l107 -428h4l131 428h155l-201 -553h-191l-91 387l-95 -387h-188zM450 625l48 177l121 -31l-44 -178z" />
    <glyph glyph-name="Wdieresis" unicode="&#x1e84;" horiz-adv-x="1017" 
d="M30 553h156l127 -428h4l108 428h167l107 -428h4l131 428h155l-201 -553h-191l-91 387l-95 -387h-188zM390 756q31 0 54.5 -22.5t23.5 -53.5q0 -32 -23.5 -56t-54.5 -24t-55 24t-24 56q0 31 23.5 53.5t55.5 22.5zM627 756q31 0 55 -22.5t24 -53.5t-24 -55.5t-55 -24.5
t-54 24t-23 56q0 31 23 53.5t54 22.5z" />
    <glyph glyph-name="wdieresis" unicode="&#x1e85;" horiz-adv-x="1017" 
d="M30 553h156l127 -428h4l108 428h167l107 -428h4l131 428h155l-201 -553h-191l-91 387l-95 -387h-188zM390 756q31 0 54.5 -22.5t23.5 -53.5q0 -32 -23.5 -56t-54.5 -24t-55 24t-24 56q0 31 23.5 53.5t55.5 22.5zM627 756q31 0 55 -22.5t24 -53.5t-24 -55.5t-55 -24.5
t-54 24t-23 56q0 31 23 53.5t54 22.5z" />
    <glyph glyph-name="Ygrave" unicode="&#x1ef2;" horiz-adv-x="717" 
d="M30 553h169l161 -277h4l154 277h169l-257 -415v-138h-145v138zM372 802l48 -177l-124 -32l-45 178z" />
    <glyph glyph-name="ygrave" unicode="&#x1ef3;" horiz-adv-x="717" 
d="M30 553h169l161 -277h4l154 277h169l-257 -415v-138h-145v138zM376 802l48 -177l-124 -32l-45 178z" />
    <glyph glyph-name="endash" unicode="&#x2013;" horiz-adv-x="468" 
d="M40 346h388v-129h-388v129z" />
    <glyph glyph-name="emdash" unicode="&#x2014;" horiz-adv-x="548" 
d="M40 346h468v-129h-468v129z" />
    <glyph glyph-name="quoteleft" unicode="&#x2018;" horiz-adv-x="291" 
d="M188 602l-20 -75q36 -19 36 -70q0 -33 -25 -55.5t-61 -22.5q-31 0 -54 21.5t-23 58.5q0 13 7 27l59 132z" />
    <glyph glyph-name="quoteright" unicode="&#x2019;" horiz-adv-x="231" 
d="M57 372l20 75q-36 19 -36 70q0 33 25 56t61 23q31 0 54 -21.5t23 -58.5q0 -14 -7 -28l-59 -132z" />
    <glyph glyph-name="quotesinglbase" unicode="&#x201a;" horiz-adv-x="249" 
d="M57 -83l20 75q-36 20 -36 70q0 33 25 56t61 23q31 0 54 -21.5t23 -58.5q0 -14 -7 -28l-59 -132z" />
    <glyph glyph-name="quotedblleft" unicode="&#x201c;" horiz-adv-x="419" 
d="M336 575l-11 -52q18 -9 28.5 -29t10.5 -41q0 -33 -24.5 -55.5t-60.5 -22.5q-31 0 -54 21.5t-23 58.5q0 13 7 27l52 109zM179 598l-20 -75q36 -19 36 -70q0 -33 -25 -55.5t-61 -22.5q-31 0 -54 21.5t-23 58.5q0 13 7 27l59 132z" />
    <glyph glyph-name="quotedblright" unicode="&#x201d;" horiz-adv-x="419" 
d="M60 395l11 52q-18 9 -28.5 29t-10.5 41q0 33 25 55.5t61 22.5q31 0 54 -21.5t23 -58.5q0 -13 -7 -27l-52 -109zM218 372l20 75q-36 19 -36 70q0 33 24.5 55.5t60.5 22.5q31 0 54 -21.5t23 -58.5q0 -13 -7 -27l-59 -132z" />
    <glyph glyph-name="quotedblbase" unicode="&#x201e;" horiz-adv-x="400" 
d="M60 -77l11 52q-18 9 -28.5 29t-10.5 41q0 33 25 55.5t61 22.5q31 0 54 -21.5t23 -58.5q0 -13 -7 -27l-52 -109zM218 -100l20 75q-36 19 -36 70q0 33 24.5 55.5t60.5 22.5q31 0 54 -21.5t23 -58.5q0 -13 -7 -27l-59 -132z" />
    <glyph glyph-name="bullet" unicode="&#x2022;" horiz-adv-x="297" 
d="M142 422q50 0 86.5 -36.5t36.5 -86.5q0 -51 -36.5 -87.5t-86.5 -36.5q-51 0 -87 36.5t-36 87.5q0 50 36 86.5t87 36.5z" />
    <glyph glyph-name="ellipsis" unicode="&#x2026;" horiz-adv-x="831" 
d="M132 197q44 0 75 -31t31 -75q0 -43 -31 -72t-75 -29q-45 0 -76 29t-31 72q0 44 31.5 75t75.5 31zM401 197q44 0 75 -31t31 -75q0 -43 -31 -72t-75 -29q-45 0 -76 29t-31 72q0 44 31.5 75t75.5 31zM670 197q44 0 75 -31t31 -75q0 -43 -31 -72t-75 -29q-45 0 -75.5 29
t-30.5 72q0 44 31 75t75 31z" />
    <glyph glyph-name="perthousand" unicode="&#x2030;" horiz-adv-x="1159" 
d="M511 566l100 -46l-318 -552l-100 46zM635 -16q-69 0 -113.5 45.5t-44.5 114.5t44.5 115t113.5 46q67 0 111 -46t44 -115t-44 -114.5t-111 -45.5zM635 85q23 0 39.5 14t16.5 45t-16.5 44.5t-39.5 13.5t-40.5 -13.5t-17.5 -44.5t17.5 -45t40.5 -14zM187 237q-69 0 -113 46
t-44 115q0 70 44 115.5t113 45.5q68 0 112 -46t44 -115t-44 -115t-112 -46zM187 340q23 0 40 13.5t17 44.5t-17 45t-40 14q-24 0 -41 -14t-17 -45t17 -44.5t41 -13.5zM967 -16q-69 0 -113.5 45.5t-44.5 114.5t44.5 115t113.5 46q67 0 111 -46t44 -115t-44 -114.5t-111 -45.5
zM967 85q23 0 39.5 14t16.5 45t-16.5 44.5t-39.5 13.5t-40.5 -13.5t-17.5 -44.5t17.5 -45t40.5 -14z" />
    <glyph glyph-name="guilsinglleft" unicode="&#x2039;" horiz-adv-x="324" 
d="M219 440l73 -74l-79 -100l79 -98l-73 -74l-186 172z" />
    <glyph glyph-name="guilsinglright" unicode="&#x203a;" horiz-adv-x="324" 
d="M105 440l186 -174l-186 -172l-74 74l79 98l-79 100z" />
    <glyph glyph-name="Euro" unicode="&#x20ac;" horiz-adv-x="675" 
d="M17 382h40q32 86 111.5 135t182.5 49q200 0 286 -157l-114 -65q-33 48 -73 71.5t-101 23.5q-84 0 -133 -57h211v-98h-410v98zM17 264h410v-98h-209q50 -52 131 -52q113 0 173 93l114 -64q-84 -157 -285 -157q-103 0 -182 48t-111 132h-41v98z" />
    <glyph glyph-name="afii61352" unicode="&#x2116;" horiz-adv-x="986" 
d="M684 168h243v-95h-243v95zM804 201q-59 0 -99.5 36.5t-40.5 95.5t41 96t99 37q60 0 100.5 -37t40.5 -96t-40.5 -95.5t-100.5 -36.5zM804 295q16 0 28 9.5t12 28.5q0 36 -40 36q-37 0 -37 -36q0 -19 11 -28.5t26 -9.5zM47 553h134l296 -334v334h146v-553h-135l-296 334
v-334h-145v553z" />
    <glyph glyph-name="trademark" unicode="&#x2122;" horiz-adv-x="660" 
d="M21 553h346l80 -155l83 155h86v-266h-76v129l-73 -129h-38l-74 129v-129h-75v188h-79v-188h-77v188h-103v78z" />
    <glyph glyph-name="minus" unicode="&#x2212;" horiz-adv-x="395" 
d="M40 346h315v-129h-315v129z" />
    <glyph glyph-name="percent" horiz-adv-x="830" 
d="M511 566l100 -46l-318 -552l-100 46zM635 -16q-69 0 -113.5 45.5t-44.5 114.5t44.5 115t113.5 46q67 0 111 -46t44 -115t-44 -114.5t-111 -45.5zM635 85q23 0 39.5 14t16.5 45t-16.5 44.5t-39.5 13.5t-40.5 -13.5t-17.5 -44.5t17.5 -45t40.5 -14zM187 237q-69 0 -113 46
t-44 115q0 70 44 115.5t113 45.5q68 0 112 -46t44 -115t-44 -115t-112 -46zM187 340q23 0 40 13.5t17 44.5t-17 45t-40 14q-24 0 -41 -14t-17 -45t17 -44.5t41 -13.5z" />
    <glyph glyph-name="cyrbreve" horiz-adv-x="380" 
d="M294 765l68 -79q-48 -40 -87 -52.5t-88 -12.5t-88 12.5t-86 52.5l68 79q46 -32 106 -32q61 0 107 32z" />
    <glyph glyph-name="commaaccent" horiz-adv-x="291" 
d="M133 -31q35 0 55.5 -24t20.5 -59q0 -17 -4 -30l-51 -133l-81 17l14 76q-38 24 -38 71q0 33 25 57.5t59 24.5z" />
    <glyph glyph-name="dblgrave" horiz-adv-x="378" 
d="M301 802l50 -177l-125 -32l-46 178zM136 802l46 -177l-125 -32l-43 178z" />
    <glyph glyph-name="Imacron" horiz-adv-x="241" 
d="M47 553h147v-553h-147v553zM-73 719h388v-113h-388v113z" />
    <glyph glyph-name="ibreve" horiz-adv-x="241" 
d="M47 553h147v-553h-147v553zM239 745l68 -79q-48 -40 -87 -52.5t-88 -12.5t-88 12.5t-86 52.5l68 79q46 -32 106 -32q61 0 107 32z" />
    </font>
</defs>
</svg>
