<?xml version="1.0" standalone="no"?>
<!DOCTYPE svg PUBLIC "-//W3C//DTD SVG 1.1//EN" "http://www.w3.org/Graphics/SVG/1.1/DTD/svg11.dtd" >
<svg xmlns="http://www.w3.org/2000/svg" width="100%" height="100%">
<metadata>
Created by FontXChange 20110222 at Fri Oct  1 12:20:49 2021
 By RT
Copyright (c) 2014 by Font Diner Inc. All rights reserved. Filmotype Hudson is a trademark of Font Diner Inc.
</metadata>
<defs>
<font id="FilmotypeHudson" horiz-adv-x="212" >
  <font-face 
    font-family="FilmotypeHudson"
    font-weight="400"
    font-stretch="normal"
    units-per-em="1000"
    panose-1="0 0 0 0 0 0 0 0 0 0"
    ascent="800"
    descent="-200"
    x-height="411"
    cap-height="710"
    bbox="-191 -326 2268 1028"
    underline-thickness="50"
    underline-position="-50"
    unicode-range="U+0020-FB04"
  />
<missing-glyph horiz-adv-x="683" 
d="M593 0h-503v700h503v-700zM481 99v502h-280v-502h280z" />
    <glyph glyph-name="T_h" unicode="Th" horiz-adv-x="817" 
d="M407 595c-35 -3 -86 -6 -147 -10c-15 -162 -40 -478 -40 -571c0 0 2 -4 2 -11c0 -8 -2 -23 -44 -23c-40 0 -65 13 -65 25c0 101 19 411 25 575c-55 -2 -115 -3 -176 -3c-76 0 -108 2 -127 14c-15 9 -26 24 -26 45c0 15 6 13 29 14c95 3 371 45 545 45c53 0 138 0 138 -30
c0 -5 -7 -17 -7 -17c-7 -92 -18 -304 -19 -372c18 55 52 99 124 99c47 0 89 -23 111 -74c17 -39 17 -71 17 -160c0 -58 0 -90 35 -90c32 0 74 81 92 81c6 0 33 -12 33 -21c0 -5 -16 -29 -38 -56s-47 -55 -83 -55s-82 16 -105 43c-27 30 -34 75 -34 132c0 106 -6 121 -32 121
c-56 0 -129 -229 -129 -301c0 -16 -16 -28 -41 -28c-38 0 -61 9 -61 47c0 252 22 474 23 581z" />
    <glyph glyph-name="f_b" unicode="fb" horiz-adv-x="670" 
d="M164 397h13c40 0 59 -1 73 -19c4 -5 15 -21 15 -34c0 -24 -37 -25 -61 -25c-16 -1 -32 0 -46 -1c-7 -99 -9 -192 -9 -247c0 -78 4 -72 4 -89c0 -18 -5 -24 -53 -24c-55 0 -67 8 -67 37c0 2 12 224 17 319c-24 -2 -48 -4 -52 -4c-20 0 -48 20 -48 47c0 14 8 16 77 29l28 5
c15 241 45 433 170 433c44 0 83 -25 112 -55c8 2 16 3 23 3c16 0 68 -5 68 -29c0 -6 -3 -13 -7 -54c-12 -108 -21 -301 -25 -364c34 46 76 60 104 60c85 0 155 -55 155 -180c0 -103 -48 -243 -140 -243c-33 0 -106 19 -148 55c-8 -6 -20 -8 -35 -8c-46 0 -49 21 -49 55
c0 99 25 554 25 603c0 53 -22 64 -36 64c-21 0 -50 -28 -75 -129c-15 -60 -26 -132 -33 -205zM383 73c15 -15 41 -34 78 -34c63 0 86 66 86 198c0 44 -5 76 -30 76c-41 0 -133 -87 -134 -240z" />
    <glyph glyph-name="ff" unicode="ff" horiz-adv-x="534" 
d="M413 397h39c40 0 59 -1 73 -19c4 -5 15 -21 15 -34c0 -24 -37 -25 -61 -25c-26 -1 -50 -1 -72 -1c-7 -99 -9 -192 -9 -247c0 -78 4 -72 4 -89c0 -18 -5 -24 -53 -24c-55 0 -67 8 -67 37c0 2 12 228 17 321c-80 -1 -109 -1 -141 -1c-7 -96 -9 -188 -9 -244
c0 -78 4 -72 4 -89c0 -18 -5 -24 -53 -24c-55 0 -67 8 -67 37c0 2 12 223 17 318c-18 -1 -36 -3 -52 -3c-20 0 -48 20 -48 47c0 14 8 16 77 29c8 1 17 3 28 4c15 236 45 394 170 394c49 0 95 -32 127 -74c25 71 63 114 122 114c91 0 161 -104 161 -151
c0 -30 -28 -36 -43 -36c-22 0 -19 13 -26 36c-10 34 -26 58 -45 58c-21 0 -50 -28 -75 -129c-15 -60 -26 -132 -33 -205zM326 605c-15 57 -36 86 -54 86c-21 0 -58 -17 -81 -119c-11 -50 -20 -112 -26 -177c35 1 81 2 139 2c5 76 12 147 22 208z" />
    <glyph glyph-name="ffi" unicode="ffi" horiz-adv-x="704" 
d="M541 322c-57 -3 -88 -4 -134 -4c-7 -99 -9 -192 -9 -247c0 -78 4 -72 4 -89c0 -18 -5 -24 -53 -24c-55 0 -67 8 -67 37c0 2 12 228 17 321c-80 -1 -109 -1 -141 -1c-7 -96 -9 -188 -9 -244c0 -78 4 -72 4 -89c0 -18 -5 -24 -53 -24c-55 0 -67 8 -67 37c0 2 12 223 17 318
c-18 -1 -36 -3 -52 -3c-20 0 -48 20 -48 47c0 14 8 16 77 29c8 1 17 3 28 4c15 236 45 394 170 394c49 0 95 -32 127 -74c25 71 63 114 122 114c91 0 161 -104 161 -151c0 -30 -28 -36 -43 -36c-22 0 -19 13 -26 36c-10 34 -26 58 -45 58c-21 0 -50 -28 -75 -129
c-15 -60 -26 -132 -33 -205c89 1 127 2 151 2c40 0 90 -5 90 -45c0 -15 -22 -68 -22 -226c0 -58 3 -81 24 -81c31 0 121 53 134 53c7 0 16 -12 16 -17c0 -10 -46 -98 -156 -98c-100 0 -125 73 -125 147c0 37 6 138 16 190zM326 605c-15 57 -36 86 -54 86
c-21 0 -58 -17 -81 -119c-11 -50 -20 -112 -26 -177c35 1 81 2 139 2c5 76 12 147 22 208zM686 539c0 0 10 -3 10 -21c0 -34 -37 -70 -86 -70c-51 0 -68 40 -68 65c0 52 75 81 105 81c29 0 39 -29 39 -55z" />
    <glyph glyph-name="ffl" unicode="ffl" horiz-adv-x="724" 
d="M413 397h13c40 0 59 -1 73 -19c4 -5 15 -21 15 -34c0 -24 -37 -25 -61 -25c-17 0 -31 -1 -46 -1c-7 -99 -9 -192 -9 -247c0 -78 4 -72 4 -89c0 -18 -5 -24 -53 -24c-55 0 -67 8 -67 37c0 2 12 228 17 322c-77 -1 -110 -2 -141 -2c-7 -96 -9 -188 -9 -244
c0 -78 4 -72 4 -89c0 -18 -5 -24 -53 -24c-55 0 -67 8 -67 37c0 2 12 223 17 318c-18 -1 -36 -3 -52 -3c-20 0 -48 20 -48 47c0 14 8 16 77 29c9 2 17 3 28 4c15 236 45 394 170 394c49 0 95 -32 127 -74c25 71 63 114 122 114c39 0 75 -20 103 -46c10 8 27 12 48 12
c29 0 72 -7 72 -32c0 -12 -10 -19 -21 -80c-20 -107 -29 -416 -29 -491c0 -125 13 -146 32 -146c30 0 110 57 129 57c9 0 15 -14 15 -20c0 -18 -53 -95 -135 -95c-37 0 -114 30 -130 66c-18 40 -21 92 -21 141c0 220 30 406 30 457c0 35 -10 84 -46 84
c-21 0 -50 -28 -75 -129c-15 -60 -26 -132 -33 -205zM326 605c-15 57 -36 86 -54 86c-21 0 -58 -17 -81 -119c-11 -49 -20 -112 -26 -176c34 0 80 1 139 1c5 76 12 147 22 208z" />
    <glyph glyph-name="f_h" unicode="fh" horiz-adv-x="715" 
d="M164 397h13c40 0 59 -1 73 -19c4 -5 15 -21 15 -34c0 -24 -37 -25 -61 -25c-14 0 -30 -1 -46 -1c-7 -99 -9 -192 -9 -247c0 -78 4 -72 4 -89c0 -18 -5 -24 -53 -24c-55 0 -67 8 -67 37c0 2 12 224 17 319c-16 -1 -35 -4 -52 -4c-20 0 -48 20 -48 47c0 14 8 16 77 29l28 5
c15 241 45 433 170 433c38 0 73 -19 100 -44c7 3 17 5 31 5c57 0 73 -14 73 -28c0 -5 -7 -17 -7 -17c-7 -92 -28 -396 -29 -464c18 55 52 99 124 99c47 0 89 -23 111 -74c17 -39 17 -71 17 -160c0 -58 0 -90 35 -90c32 0 74 81 92 81c6 0 33 -12 33 -21
c0 -5 -16 -29 -38 -56s-47 -55 -83 -55s-82 16 -105 43c-27 30 -34 75 -34 132c0 106 -6 121 -32 121c-56 0 -129 -229 -129 -301c0 -16 -16 -28 -41 -28c-38 0 -61 9 -61 47c0 247 33 572 33 655c0 32 -15 62 -43 62c-21 0 -50 -28 -75 -129c-15 -60 -26 -132 -33 -205z
" />
    <glyph glyph-name="fi" unicode="fi" horiz-adv-x="455" 
d="M292 322l-134 -5c-7 -99 -9 -191 -9 -246c0 -78 4 -72 4 -89c0 -18 -5 -24 -53 -24c-55 0 -67 8 -67 37c0 2 12 224 17 319c-9 -1 -15 -1 -17 -1c-31 -1 -29 -3 -35 -3c-20 0 -48 20 -48 47c0 14 8 16 77 29l28 3c15 242 45 435 170 435c91 0 161 -104 161 -151
c0 -30 -28 -36 -43 -36c-22 0 -19 13 -26 36c-10 34 -26 58 -45 58c-21 0 -50 -28 -75 -129c-15 -60 -25 -133 -33 -207c57 2 117 4 151 4c40 0 90 -5 90 -45c0 -15 -22 -68 -22 -226c0 -58 3 -81 24 -81c31 0 121 53 134 53c7 0 16 -12 16 -17c0 -10 -46 -98 -156 -98
c-100 0 -125 73 -125 147c0 37 6 138 16 190zM437 539c0 0 10 -3 10 -21c0 -34 -37 -70 -86 -70c-51 0 -68 40 -68 65c0 52 75 81 105 81c29 0 39 -29 39 -55z" />
    <glyph glyph-name="f_j" unicode="fj" horiz-adv-x="431" 
d="M295 322l-137 -5c-7 -99 -9 -191 -9 -246c0 -78 4 -72 4 -89c0 -18 -5 -24 -53 -24c-55 0 -67 8 -67 37c0 2 12 224 17 319c-9 -1 -15 -1 -17 -1c-31 -1 -29 -3 -35 -3c-20 0 -48 20 -48 47c0 14 8 16 77 29l28 3c15 242 45 435 170 435c91 0 161 -104 161 -151
c0 -30 -28 -36 -43 -36c-22 0 -19 13 -26 36c-10 34 -26 58 -45 58c-21 0 -50 -28 -75 -129c-15 -60 -25 -133 -33 -207c59 2 127 4 189 4c40 0 61 -32 61 -48c0 -17 -11 -35 -12 -68c-1 -46 -9 -223 -10 -257c0 -20 -2 -184 -7 -232c-6 -60 -32 -93 -115 -93
c-41 0 -72 8 -100 23c-41 22 -67 55 -67 68c0 10 13 26 28 26c23 0 39 -39 102 -39c14 0 33 2 42 21c6 13 7 41 7 92c2 241 11 344 13 430zM440 528c0 -57 -55 -77 -81 -77c-32 0 -71 31 -71 65c0 65 67 88 97 88c48 0 55 -56 55 -76z" />
    <glyph glyph-name="f_k" unicode="fk" horiz-adv-x="665" 
d="M432 141h-47v-57c0 -43 2 -49 2 -58c0 -21 -10 -31 -54 -31c-46 0 -53 11 -53 47c0 75 32 519 32 626c0 37 -24 63 -40 63c-21 0 -50 -28 -75 -129c-15 -60 -26 -132 -33 -205h13c40 0 59 -1 73 -19c4 -5 15 -21 15 -34c0 -24 -37 -25 -61 -25c-14 0 -30 -1 -46 -1
c-7 -99 -9 -192 -9 -247c0 -78 4 -72 4 -89c0 -18 -5 -24 -53 -24c-55 0 -67 8 -67 37c0 2 12 224 17 319c-16 0 -35 -4 -52 -4c-20 0 -48 20 -48 47c0 14 8 16 77 29l28 5c15 241 45 433 170 433c41 0 77 -22 105 -49c17 7 42 9 58 9c39 0 55 -12 55 -27
c0 -13 -13 -9 -20 -57c-7 -49 -20 -216 -29 -373c21 62 53 124 119 124c68 0 138 -67 138 -141c0 -53 -36 -115 -114 -147c7 -48 25 -90 64 -90c53 0 134 82 151 82c7 0 15 -13 15 -17c0 -6 -17 -37 -40 -61c-30 -32 -77 -64 -140 -64c-74 0 -139 43 -155 128zM407 225
c23 -15 47 -20 62 -20c62 0 80 101 80 133c0 24 -10 44 -24 44c-28 0 -84 -73 -118 -157z" />
    <glyph glyph-name="fl" unicode="fl" horiz-adv-x="475" 
d="M164 397h13c40 0 59 -1 73 -19c4 -5 15 -21 15 -34c0 -24 -37 -25 -61 -25c-17 0 -32 -1 -46 -1c-7 -99 -9 -192 -9 -247c0 -78 4 -72 4 -89c0 -18 -5 -24 -53 -24c-55 0 -67 8 -67 37c0 2 12 224 17 319c-24 -2 -38 -4 -52 -4c-20 0 -48 20 -48 47c0 14 8 16 77 29l28 5
c15 241 45 433 170 433c39 0 74 -20 102 -45c10 6 26 11 49 11c29 0 72 -7 72 -32c0 -12 -10 -19 -21 -80c-20 -107 -29 -416 -29 -491c0 -125 13 -146 32 -146c30 0 110 57 129 57c9 0 15 -14 15 -20c0 -18 -53 -95 -135 -95c-37 0 -114 30 -130 66c-18 40 -21 92 -21 141
c0 220 30 406 30 457c0 50 -20 84 -46 84c-21 0 -50 -28 -75 -129c-15 -60 -26 -132 -33 -205z" />
    <glyph glyph-name="f_t" unicode="ft" horiz-adv-x="497" 
d="M312 383c-46 -8 -101 -21 -152 -33c-9 -111 -11 -218 -11 -279c0 -78 4 -72 4 -89c0 -18 -5 -24 -53 -24c-55 0 -67 8 -67 37c0 2 13 237 18 327c-29 -7 -49 -12 -53 -12c-20 0 -48 20 -48 47c0 14 44 34 106 52c16 233 48 415 169 415c110 0 151 -84 151 -131
c0 -30 -28 -36 -43 -36c-22 0 -19 13 -26 36c-10 34 -16 38 -35 38c-21 0 -50 -28 -75 -129c-12 -48 -21 -105 -28 -164c50 11 103 20 150 25c3 37 5 75 7 113c1 38 18 47 58 47c39 0 63 -9 63 -23c0 -9 -11 -10 -14 -36c-3 -27 -7 -59 -10 -95c82 0 90 -2 101 -11
c13 -11 18 -23 18 -41c0 -8 -68 -17 -125 -22c-6 -85 -11 -174 -11 -233c0 -73 8 -103 35 -103c34 0 121 49 136 49c5 0 13 -6 13 -13c0 -26 -14 -44 -69 -72s-88 -36 -114 -36c-24 0 -65 20 -86 60c-16 30 -20 64 -20 109c0 80 5 154 11 227z" />
    <glyph glyph-name="o_e" unicode="oe" horiz-adv-x="787" 
d="M289 377h6c23 0 85 -45 85 -147c15 -12 39 -20 68 -24c9 135 59 239 124 239c38 0 77 -19 106 -33c71 -34 107 -68 107 -119c0 -69 -67 -148 -231 -160c0 -69 10 -102 60 -102c47 0 114 30 155 61c38 28 63 64 75 64c7 0 22 -13 22 -29c0 -46 -128 -163 -230 -163
c-51 0 -105 29 -134 53c-39 31 -52 68 -55 118c-27 3 -50 9 -71 17c-17 -119 -70 -177 -165 -177c-115 0 -184 84 -184 216c0 149 88 254 156 254c37 0 83 -32 106 -68zM293 205c-41 43 -51 94 -51 122c0 5 0 10 1 14c-12 13 -20 17 -26 17c-28 0 -88 -76 -88 -195
c0 -91 35 -132 69 -132c45 0 94 71 95 174zM558 204c72 5 137 29 137 113c0 35 -19 56 -41 56c-36 0 -82 -54 -96 -169z" />
    <glyph glyph-name="t_t" unicode="tt" horiz-adv-x="448" 
d="M387 594l-11 -105c64 -1 87 -3 97 -11c13 -11 20 -28 20 -46c0 -7 -24 -14 -123 -19c-7 -93 -13 -192 -13 -251c0 -73 8 -103 35 -103c34 0 121 49 136 49c5 0 13 -6 13 -13c0 -26 -14 -44 -69 -72s-88 -36 -114 -36c-22 0 -59 17 -81 51c-8 -5 -18 -10 -29 -15
c-55 -28 -88 -36 -114 -36c-24 0 -65 20 -86 60c-16 30 -20 64 -20 109c0 90 7 173 14 254c-21 1 -41 2 -47 3c-20 3 -68 17 -68 42c0 5 58 20 120 28c3 31 5 61 6 93c1 38 18 47 58 47c39 0 63 -9 63 -23c0 -9 -11 -10 -14 -36c-3 -22 -5 -47 -8 -75h121c3 40 5 79 7 117
c1 38 18 47 58 47c39 0 63 -9 63 -23c0 -9 -11 -10 -14 -36zM257 90c-4 19 -5 41 -5 66c0 83 7 170 14 254c-35 0 -75 -1 -121 -1c-7 -89 -12 -185 -12 -247c0 -73 8 -103 35 -103c20 0 58 17 89 31z" />
    <glyph glyph-name=".notdef" horiz-adv-x="683" 
d="M593 0h-503v700h503v-700zM481 99v502h-280v-502h280z" />
    <glyph glyph-name="apple" unicode="&#xf8ff;" horiz-adv-x="2287" 
d="M1751 211l-19 -83c-3 -7 -37 -25 -54 -25c-4 0 -14 2 -14 12c0 7 7 40 19 86c-17 -3 -34 -6 -51 -8c-25 -93 -46 -129 -133 -129c-57 0 -92 35 -93 47c0 4 4 12 27 12c33 0 56 -24 85 -24c20 0 30 19 50 84c-516 -81 -1051 -184 -1205 -239c-12 -5 -17 -6 -20 -6
c-25 0 -33 26 -33 41c0 14 7 31 21 37c124 51 790 162 1254 226c13 48 28 106 30 116c-45 -56 -88 -71 -109 -71c-19 0 -33 9 -37 23c-52 -34 -78 -47 -104 -47c-23 0 -44 13 -44 47c0 11 5 37 13 70c-23 -22 -45 -38 -75 -38c-19 -60 -61 -126 -146 -126
c-24 0 -45 8 -56 25c-20 -21 -82 -49 -92 -51c-5 -1 -9 -2 -15 -2c-21 0 -41 10 -41 44c0 32 31 134 31 156c0 4 0 7 -3 7c-19 0 -75 -77 -112 -185c-6 -16 -4 -32 -49 -32c-13 0 -22 2 -22 11c0 16 38 135 38 160c0 5 -1 5 -3 5c-17 -3 -75 -75 -114 -189
c-6 -14 -10 -21 -32 -21c-12 0 -23 6 -26 14c-19 -13 -41 -23 -65 -23c-18 0 -41 6 -51 23c-13 -25 -64 -47 -99 -47c-24 0 -48 9 -48 40c0 37 27 119 33 139c12 41 29 51 66 51c8 0 15 -1 15 -7c0 -3 -47 -120 -47 -172c0 -7 2 -11 5 -11c9 0 44 20 68 34
c1 84 93 342 110 384c-1 3 -1 13 -1 14c0 18 26 34 61 34c17 0 25 -5 25 -12c0 -4 -9 -16 -24 -52c-14 -35 -104 -302 -104 -371c0 -7 2 -10 7 -10c8 0 34 14 57 29c18 58 56 192 68 207c13 16 34 18 42 18c9 0 14 -3 14 -11c0 -10 -7 -9 -24 -75c26 31 36 61 74 61
c10 0 12 -2 24 -2c15 0 28 -1 29 -27c0 -6 -1 -11 -2 -15c26 33 63 91 112 91c27 0 49 -16 49 -38c0 -32 -36 -139 -36 -164c0 -6 3 -10 11 -10c21 0 48 19 60 26c-1 9 -2 19 -2 29c0 88 83 206 143 206c14 0 42 -12 50 -31c27 0 40 -31 41 -50c0 -7 -2 -14 -4 -22
c3 -4 6 -6 11 -6c18 0 58 39 67 61l15 54c-11 -2 -65 -13 -73 -13c-24 0 -34 7 -34 16c0 10 57 26 120 42l13 43c14 45 26 52 66 52c11 0 19 -2 19 -8c0 -8 -11 -18 -25 -70c16 3 28 5 39 5c15 0 23 -5 23 -19c0 -27 -63 -30 -79 -35c-20 -64 -45 -154 -45 -191
c0 -10 2 -12 6 -12c13 0 45 18 69 30c3 54 34 184 76 184c17 0 33 -14 33 -20c0 -3 -5 -8 -14 -35c-13 -39 -28 -97 -28 -128c0 -7 3 -8 5 -8c21 4 100 110 130 218c5 20 21 23 39 23s30 -4 30 -10c0 -10 -31 -104 -72 -251l-18 -66l51 7c29 106 67 239 85 292
c25 71 30 85 69 85c11 0 20 -3 20 -14c0 -9 -19 -60 -29 -91c29 36 57 58 87 58c59 0 63 -23 63 -61c0 -34 -44 -182 -165 -182c-15 0 -28 3 -38 9c-9 -26 -17 -57 -25 -87c189 24 380 45 433 45c29 0 60 -1 60 -24c0 -10 -7 -13 -28 -15c-141 -15 -306 -36 -479 -61zM24 1
l61 237c-13 2 -23 11 -24 29c0 19 24 24 39 27c12 46 30 120 36 153c-18 2 -35 10 -35 26c0 12 7 22 25 27c179 49 274 58 298 58c25 0 29 -7 29 -29c0 -11 -5 -14 -17 -17c-81 -19 -163 -41 -215 -54c-10 -30 -32 -101 -44 -144c98 26 153 34 169 34c29 0 31 -11 31 -17
c0 -13 -9 -24 -47 -34c-82 -21 -134 -38 -172 -49c-21 -79 -67 -261 -67 -278c0 -15 -26 -30 -73 -30c-9 0 -14 2 -14 7c0 10 12 21 20 54zM2078 465c-2 -13 -3 -26 -3 -37c0 -15 5 -20 16 -20c24 0 59 15 100 43s52 54 66 54c5 0 11 -6 11 -12c0 -36 -122 -125 -179 -125
c-49 0 -78 29 -78 58c0 59 51 222 129 222c33 0 101 -19 101 -58c0 -34 -41 -103 -163 -125zM1212 364c-11 17 -14 34 -15 52c0 8 1 15 4 22c-4 5 -8 7 -13 7c-24 0 -82 -87 -82 -162c0 -17 9 -30 25 -30c27 0 78 68 81 111zM1807 403c10 -15 20 -21 33 -21
c48 0 86 108 86 151c0 8 -2 10 -7 10c-25 0 -86 -85 -112 -140zM512 451c4 -3 6 -8 6 -11c0 -16 -37 -55 -73 -55c-17 0 -28 13 -28 26c0 34 58 68 82 68c10 0 16 -6 17 -16c0 -3 -1 -7 -4 -12zM2092 507c56 5 95 45 95 87c0 9 -8 14 -17 14c-23 0 -59 -48 -78 -101z" />
    <glyph glyph-name="space" unicode=" " horiz-adv-x="250" 
 />
    <glyph glyph-name="nbspace" unicode="&#xa0;" horiz-adv-x="250" 
 />
    <glyph glyph-name="A" unicode="A" horiz-adv-x="630" 
d="M87 159h-4c-57 0 -73 12 -73 35c0 10 3 27 60 40c15 3 31 6 49 8c3 10 7 19 11 29c88 230 148 375 173 419c10 18 17 21 57 22c9 4 20 7 29 7c16 0 85 -10 85 -45c0 -9 -4 -9 -4 -33s4 -64 10 -113c23 -190 71 -467 138 -467c21 0 53 26 65 26c8 0 11 -11 11 -22
c0 -51 -69 -80 -117 -80c-77 0 -118 75 -149 181c-71 -1 -171 -4 -246 -6c-3 -7 -6 -15 -8 -22c-54 -155 -51 -184 -83 -184c-39 0 -54 42 -54 53c0 8 7 36 50 152zM214 249c22 0 41 1 57 1c31 0 83 -2 136 -2c-27 114 -51 253 -61 334c-36 -87 -89 -221 -132 -333z" />
    <glyph glyph-name="B" unicode="B" horiz-adv-x="635" 
d="M409 273c105 -9 202 -96 202 -163c0 -85 -158 -126 -282 -126c-64 0 -133 11 -163 37c-1 -9 -7 -20 -23 -27c-11 -5 -28 -6 -39 -6c-47 0 -55 18 -55 55c0 71 30 425 36 593c-83 -10 -142 -27 -151 -27c-4 0 -10 4 -10 21c0 75 121 87 234 87c139 0 258 -18 347 -67
c73 -40 127 -103 127 -174c0 -80 -67 -149 -223 -203zM176 304l63 11c119 21 281 72 281 185c0 44 -25 76 -73 99c-59 28 -152 43 -240 44c-16 -121 -25 -232 -31 -339zM167 70c16 -6 44 -12 86 -12c131 0 253 58 253 86c0 16 -42 73 -216 73c-33 0 -81 -2 -119 -11
c-2 -45 -3 -90 -4 -136z" />
    <glyph glyph-name="C" unicode="C" horiz-adv-x="533" 
d="M390 696c103 -36 148 -138 148 -291c0 -40 -3 -67 -27 -67c-11 0 -52 5 -75 44c-20 34 -20 80 -20 198c0 48 -25 54 -71 54c-40 0 -72 -3 -110 -47c-63 -73 -118 -237 -118 -373c0 -68 14 -102 37 -124c39 -37 106 -39 122 -39c83 0 161 54 217 100c54 44 75 71 89 71
c11 0 27 -19 27 -32c0 -40 -158 -226 -323 -226c-75 0 -157 38 -209 97c-47 53 -69 118 -69 205c0 199 116 466 271 466c35 0 77 -14 111 -36z" />
    <glyph glyph-name="D" unicode="D" horiz-adv-x="635" 
d="M157 -12c-1 -15 -5 -16 -20 -16c-53 0 -93 12 -93 74c0 47 23 418 28 564c-67 -14 -118 -29 -123 -29c-6 0 -29 27 -29 55c0 87 230 98 282 98c58 0 185 -14 289 -109c78 -71 122 -169 122 -258c0 -205 -231 -395 -377 -395c-26 0 -53 6 -79 16zM158 66
c10 -7 21 -11 35 -11c83 0 322 147 322 372c0 58 -16 206 -255 206c-20 0 -44 -1 -66 -3c-14 -85 -28 -276 -36 -564z" />
    <glyph glyph-name="E" unicode="E" horiz-adv-x="543" 
d="M162 203c-4 -68 -7 -118 -7 -125c0 0 150 14 248 14c58 0 95 -5 106 -13c4 -3 6 -7 6 -24c0 -12 -1 -24 -8 -25c-159 -24 -322 -47 -406 -47c-31 0 -42 3 -52 12c-12 11 -16 32 -16 50c0 48 27 257 31 531c-75 6 -89 43 -89 68c0 15 5 18 50 23c67 7 318 33 414 33
c27 0 51 -2 70 -13c20 -11 35 -32 35 -53c0 -8 -2 -7 -38 -9c-87 -6 -213 -28 -314 -41c-7 -71 -15 -182 -23 -282c70 5 161 12 211 12c48 0 90 -6 90 -48c0 -6 -1 -14 -13 -20c-17 -8 -46 -9 -109 -16c-73 -8 -119 -17 -186 -27z" />
    <glyph glyph-name="F" unicode="F" horiz-adv-x="513" 
d="M63 378l5 211c-58 11 -72 36 -72 62c0 14 4 20 50 26c80 10 303 17 385 17c62 0 78 -4 96 -16c18 -13 24 -30 24 -47c0 -20 -9 -16 -120 -25c-121 -10 -190 -17 -237 -20c-6 -50 -12 -122 -18 -199c66 6 165 14 224 14c42 0 64 -4 81 -13c21 -12 24 -29 24 -34
c0 -8 -6 -17 -19 -22c-17 -7 -65 -11 -104 -15c-71 -8 -147 -21 -212 -27c-5 -85 -9 -165 -9 -213c0 -60 7 -61 7 -75c0 -10 -40 -18 -79 -18c-46 0 -53 11 -53 19c0 11 16 28 25 290c-16 3 -27 9 -35 17c-17 16 -22 36 -22 48c0 13 7 15 59 20z" />
    <glyph glyph-name="G" unicode="G" horiz-adv-x="662" 
d="M496 188c-48 0 -99 -1 -173 -1c-25 0 -52 39 -52 62c0 11 6 8 27 9c37 2 134 13 238 13c52 0 74 -3 77 -28c13 -12 18 -29 18 -40c0 -55 -116 -241 -300 -241c-87 0 -178 42 -241 99c-56 51 -88 113 -88 206c0 70 18 187 81 307c43 82 82 141 192 141
c62 0 167 -19 230 -83c19 -10 34 -23 45 -42c26 -45 31 -124 31 -161c0 -54 0 -58 -32 -58c-51 0 -64 10 -73 50c-5 22 -2 31 -16 95c-23 111 -41 128 -102 128c-67 0 -119 -20 -166 -116c-46 -94 -75 -230 -75 -316c0 -69 19 -106 50 -130c40 -31 98 -39 126 -39
c76 0 165 60 203 145z" />
    <glyph glyph-name="H" unicode="H" horiz-adv-x="677" 
d="M196 209l-5 -200c0 -20 -22 -28 -56 -28c-35 0 -49 8 -49 70c0 20 1 85 4 157c-67 1 -128 9 -128 45c0 17 14 17 21 17c8 0 49 5 109 12c6 152 13 329 17 373c2 29 8 42 72 42c35 0 47 -4 47 -15c0 -8 -8 -55 -16 -165c-5 -68 -9 -146 -12 -223c91 10 197 20 287 24
c7 152 18 314 24 348c-1 3 -3 5 -3 12c0 25 51 27 68 27c23 0 61 -10 61 -37c0 -12 -16 -19 -24 -103c-5 -47 -10 -147 -15 -246c31 -1 53 -4 67 -9c19 -7 28 -20 28 -34c0 -24 -24 -25 -56 -26c-11 -1 -25 -1 -42 -3c-3 -79 -5 -147 -5 -170c0 -46 9 -58 9 -70
c0 -22 -31 -27 -60 -27c-59 0 -59 21 -59 98c0 37 1 93 4 155c-79 -9 -179 -21 -288 -24z" />
    <glyph glyph-name="I" unicode="I" horiz-adv-x="325" 
d="M120 51c4 85 7 240 7 341c0 96 -3 170 -8 222c-20 1 -37 2 -46 5c-16 5 -40 33 -40 50c0 18 110 41 170 41c102 0 147 -34 147 -60c0 -21 -34 -32 -101 -36c-11 -89 -14 -242 -14 -339c0 -85 2 -174 5 -223c47 -5 79 -17 79 -41c0 -27 -42 -37 -159 -37
c-52 0 -133 2 -133 32c0 18 30 37 93 45z" />
    <glyph glyph-name="J" unicode="J" horiz-adv-x="295" 
d="M240 615c-22 -344 -9 -528 -60 -636c-48 -102 -142 -110 -212 -110c-35 0 -57 2 -73 10s-22 22 -22 35c0 31 32 50 75 50c38 0 48 -15 64 -15c18 0 50 19 68 56c22 44 24 116 26 261c1 72 3 229 3 274c0 16 0 38 -1 59c-65 6 -95 32 -95 50c0 34 122 54 221 54
c66 0 119 -9 119 -40c0 -28 -40 -36 -113 -48z" />
    <glyph glyph-name="K" unicode="K" horiz-adv-x="527" 
d="M165 291c-3 -64 -4 -125 -4 -170c0 -27 0 -65 1 -83c0 0 8 -10 8 -21c0 -19 -26 -32 -79 -32c-41 0 -52 8 -52 18c0 6 5 11 5 11c0 180 7 335 22 651c1 28 8 48 64 48c51 0 67 -17 67 -23c0 -5 -10 -19 -21 -192c-3 -39 -6 -82 -8 -126c84 86 331 329 373 329
c14 0 56 -26 56 -37c0 -9 -22 -26 -59 -59c-42 -38 -168 -155 -269 -257c119 -232 146 -265 206 -265c55 0 73 27 97 27c16 0 27 -13 27 -25c0 -27 -62 -89 -142 -89c-69 0 -125 47 -183 123c-45 58 -85 126 -109 172z" />
    <glyph glyph-name="L" unicode="L" horiz-adv-x="472" 
d="M185 89c0 0 85 4 179 4c81 0 120 -3 120 -52c0 -22 -8 -25 -29 -27c-109 -8 -386 -28 -396 -28c-11 0 -21 20 -21 36s10 27 25 39c6 315 25 502 25 593c-4 11 -6 18 -6 23c0 22 48 30 80 30c43 0 67 -15 67 -28c0 -3 -2 -6 -5 -10c-5 -37 -39 -188 -39 -580z" />
    <glyph glyph-name="M" unicode="M" horiz-adv-x="760" 
d="M557 443c-53 -142 -109 -341 -130 -388c-12 -28 -24 -31 -64 -31c-80 0 -91 12 -100 38c-32 87 -60 237 -87 369c-15 -111 -36 -280 -49 -448c-1 -13 -7 -26 -41 -26c-30 0 -45 10 -45 35c0 51 65 461 70 641c-7 15 -9 24 -9 30c0 28 45 45 87 45c33 0 71 -10 71 -32
c0 -6 -3 -16 -3 -16c8 -87 41 -278 105 -534c52 170 153 456 180 529c11 30 56 37 80 37c35 0 54 -15 54 -29c0 -4 -2 -122 -2 -214c0 -129 4 -231 9 -282c9 -87 26 -92 41 -92c37 0 67 28 78 28c9 0 25 -20 25 -27c0 -13 -58 -90 -144 -90c-19 0 -46 4 -69 33
c-44 55 -60 177 -60 318c0 35 1 66 3 106z" />
    <glyph glyph-name="N" unicode="N" horiz-adv-x="564" 
d="M208 667c7 -39 59 -256 215 -496c0 87 4 329 22 506c2 25 17 38 44 38c32 0 45 -12 45 -19c0 -47 -24 -379 -24 -669c0 -29 -9 -32 -74 -32c-54 0 -62 11 -103 84c-56 99 -123 241 -182 380c-7 -136 -7 -211 -7 -490c0 -6 -25 -31 -51 -31c-33 0 -50 21 -50 34
c0 70 12 600 33 698c5 24 13 34 102 34c19 0 35 -4 35 -23c0 -8 -5 -14 -5 -14z" />
    <glyph glyph-name="O" unicode="O" horiz-adv-x="673" 
d="M464 0c-50 -26 -99 -34 -145 -34c-65 0 -109 21 -168 54c-83 47 -157 117 -157 291c0 113 37 235 99 316c54 71 120 97 166 97c61 0 151 -51 212 -89c95 -59 173 -103 173 -281c0 -195 -79 -302 -180 -354zM289 38c96 0 239 116 239 312c0 99 -37 191 -104 238
c-37 26 -78 36 -107 36c-136 0 -195 -212 -195 -350c0 -181 101 -236 167 -236z" />
    <glyph glyph-name="P" unicode="P" horiz-adv-x="562" 
d="M173 253c-8 -89 -13 -171 -13 -223c0 -25 3 -30 3 -34c0 -3 -7 -22 -38 -22c-59 0 -85 0 -85 47c0 16 8 33 43 554c1 13 2 24 2 35c-142 -11 -180 -34 -195 -34c-16 0 -36 28 -36 48c0 41 131 68 240 79c4 16 11 18 25 18c8 0 28 -5 46 -12c13 0 26 1 36 1
c82 0 204 -12 267 -47c52 -30 105 -103 105 -196c0 -156 -257 -222 -380 -222c-10 0 -16 3 -20 8zM178 308c16 3 50 4 120 28c102 35 188 114 188 190c0 43 -80 90 -225 90c-19 0 -36 0 -52 -1c-7 -66 -20 -188 -31 -307z" />
    <glyph glyph-name="Q" unicode="Q" horiz-adv-x="666" 
d="M468 10c-39 -20 -83 -32 -130 -32c-54 0 -108 14 -131 40c-134 57 -210 121 -210 260c0 112 49 277 132 368c49 54 101 72 143 72c74 0 187 -56 265 -125c100 -88 107 -168 107 -223c0 -131 -40 -238 -106 -306c21 -9 41 -14 63 -14c74 0 91 69 127 69c13 0 27 -9 27 -35
c0 -61 -74 -107 -157 -107c-50 0 -90 17 -130 33zM460 98c51 62 87 161 87 272c0 202 -121 255 -200 255c-91 0 -148 -72 -185 -163c-28 -70 -45 -148 -45 -206c0 -87 37 -148 101 -167c22 21 60 36 109 36c55 0 97 -12 133 -27zM388 40c-20 5 -41 9 -64 9
c-16 0 -23 -3 -23 -7c0 -8 23 -12 40 -12c16 0 31 4 47 10z" />
    <glyph glyph-name="R" unicode="R" horiz-adv-x="540" 
d="M265 231c-35 -7 -69 -11 -97 -12c-5 -70 -8 -133 -8 -175c0 -48 4 -47 4 -53c0 -5 -2 -12 -12 -17c-9 -4 -24 -6 -43 -6c-38 0 -62 8 -62 35c0 2 0 21 5 46c0 98 9 219 24 564c-121 -5 -113 -22 -130 -22c-6 0 -32 9 -32 44c0 67 97 74 239 74c54 0 218 -1 331 -90
c51 -40 88 -96 88 -154c0 -89 -88 -156 -190 -198c85 -172 120 -208 174 -208c16 0 22 3 35 3c10 0 25 -2 25 -17c0 -24 -38 -53 -113 -53c-89 0 -131 40 -238 239zM370 597c-51 13 -104 17 -169 18c-7 -75 -19 -203 -28 -324c160 7 284 116 284 216c0 45 -26 73 -87 90z
" />
    <glyph glyph-name="S" unicode="S" horiz-adv-x="688" 
d="M668 138c0 -113 -186 -183 -348 -183c-100 0 -191 26 -242 64c-41 30 -55 65 -55 92c0 37 25 56 37 56c10 0 37 -11 37 -35c0 -9 -4 -10 -4 -19c0 -34 60 -69 168 -69c137 0 316 56 316 94c0 47 -274 59 -394 128c-83 47 -113 135 -113 186c0 141 228 279 351 279
c33 0 67 -12 110 -56c56 -58 129 -157 129 -200c0 -27 -29 -54 -45 -54c-14 0 -46 22 -74 69c-25 41 -49 103 -50 121c-16 16 -29 20 -42 20c-74 0 -287 -135 -287 -241c0 -50 48 -54 232 -92c133 -28 274 -61 274 -160z" />
    <glyph glyph-name="T" unicode="T" horiz-adv-x="335" 
d="M260 585c-15 -162 -40 -478 -40 -571c0 0 2 -4 2 -11c0 -8 -2 -23 -44 -23c-40 0 -65 13 -65 25c0 101 19 411 25 575c-55 -2 -115 -3 -176 -3c-76 0 -108 2 -127 14c-15 9 -26 24 -26 45c0 15 6 13 29 14c95 3 371 45 545 45c54 0 74 -4 86 -13c13 -10 15 -16 27 -60
c3 -12 6 -12 6 -17c0 -7 -5 -7 -45 -7c-17 0 -92 -7 -197 -13z" />
    <glyph glyph-name="U" unicode="U" horiz-adv-x="617" 
d="M431 185c-74 -175 -130 -223 -213 -223c-52 0 -118 20 -143 51s-58 96 -58 278c0 154 45 374 58 393c8 10 35 18 64 18c30 0 49 -15 49 -25c0 -5 -6 -8 -6 -8s-49 -184 -49 -374c0 -163 25 -278 66 -278c87 0 208 295 227 409c13 76 21 169 37 213c8 24 44 30 62 30
c10 0 45 -8 45 -25c0 -16 -38 -148 -38 -299c0 -147 15 -281 72 -281c20 0 41 22 71 22c15 0 31 -2 31 -22c0 -18 -52 -72 -102 -72c-100 0 -154 53 -173 193z" />
    <glyph glyph-name="V" unicode="V" horiz-adv-x="441" 
d="M204 72c28 68 106 270 179 434c53 119 75 154 89 154c9 0 38 -14 38 -30s-27 -67 -105 -274c-71 -187 -122 -337 -130 -351c-5 -9 -38 -33 -98 -33c-24 0 -36 4 -53 24c-81 98 -187 549 -187 650c0 65 44 64 59 64c55 0 41 -13 90 -224c52 -223 106 -381 118 -414z" />
    <glyph glyph-name="W" unicode="W" horiz-adv-x="722" 
d="M329 182c-63 -180 -96 -200 -146 -200c-49 0 -94 13 -121 45c-26 31 -51 92 -51 249c0 154 34 366 41 380c7 12 22 22 52 22c29 0 67 -11 67 -28c0 -14 -17 -25 -17 -25s-30 -130 -30 -321c0 -162 16 -265 40 -265c44 0 99 150 129 299c14 71 27 148 27 195
c0 19 34 27 44 27c50 0 76 -18 76 -36c0 -16 -14 -22 -14 -149c0 -163 20 -328 51 -328c58 0 161 345 161 536c0 28 -2 53 -8 73c-17 15 -25 32 -25 45c0 16 12 28 36 28c42 0 73 -70 73 -186c0 -151 -56 -401 -118 -501c-28 -46 -51 -58 -81 -58c-31 0 -91 15 -107 26
c-49 36 -68 88 -79 172z" />
    <glyph glyph-name="X" unicode="X" horiz-adv-x="548" 
d="M366 309l-33 -45c4 -9 8 -18 13 -27c83 -170 110 -179 157 -179c46 0 73 39 73 39s-1 17 24 17c24 0 29 -15 29 -28c0 -11 -20 -44 -60 -66c-24 -14 -53 -20 -94 -20c-71 0 -143 22 -219 159c-139 -191 -170 -242 -179 -242c-10 0 -41 26 -41 54c0 36 90 161 178 276
c-13 32 -26 67 -39 107c-68 202 -81 256 -85 274c0 0 -7 5 -7 18c0 30 64 48 90 48c27 0 43 -14 43 -26c0 -13 -5 -24 -5 -24c10 -61 42 -178 85 -291c17 23 34 44 47 62c209 280 215 297 245 297c44 0 64 -15 64 -23c0 -15 -74 -94 -286 -380z" />
    <glyph glyph-name="Y" unicode="Y" horiz-adv-x="376" 
d="M287 260c-12 -118 -12 -211 -12 -258c0 -20 -12 -23 -60 -23c-53 0 -72 9 -72 46c0 11 2 123 5 229c-71 132 -176 318 -209 380c-8 5 -25 12 -25 34c0 12 16 19 33 22c22 20 57 27 77 27c32 0 16 -9 110 -191c22 -43 64 -128 89 -172c58 84 154 233 202 293
c12 15 22 25 32 25c12 0 49 -13 49 -31c0 -9 -9 -25 -15 -35c-30 -51 -127 -193 -204 -346z" />
    <glyph glyph-name="Z" unicode="Z" horiz-adv-x="629" 
d="M180 82h8c31 0 181 20 321 20c62 0 83 -4 92 -24c10 -22 13 -29 13 -35c0 -7 -5 -22 -14 -22c-3 0 -13 2 -29 2c-88 0 -415 -61 -475 -61c-40 0 -69 27 -69 74c0 44 25 79 120 180c102 109 288 294 353 363c-64 -10 -173 -19 -241 -19c-104 0 -154 21 -154 75
c0 8 1 9 5 9s13 -1 25 -1c21 0 76 3 164 14c87 11 217 32 250 32c14 0 37 -4 51 -20c6 -7 11 -17 11 -27c17 -18 27 -40 27 -53c0 -18 -21 -28 -228 -245c-103 -108 -186 -197 -230 -262z" />
    <glyph glyph-name="Eth" unicode="&#xd0;" horiz-adv-x="641" 
d="M57 313c-15 1 -28 6 -38 15c-15 12 -38 42 -38 53c0 6 12 15 81 20c5 79 8 154 10 209c-68 -14 -118 -29 -123 -29c-6 0 -29 27 -29 55c0 87 230 98 282 98c58 0 185 -14 289 -109c78 -71 122 -169 122 -258c0 -205 -231 -395 -378 -395c-25 0 -52 6 -78 16
c-1 -13 -4 -16 -18 -16c-44 0 -95 12 -95 60c0 40 6 157 13 281zM173 405h43c32 0 64 -2 83 -9s35 -37 35 -68c0 -9 -63 -14 -166 -16c-4 -72 -7 -154 -10 -246c10 -7 21 -11 35 -11c83 0 322 147 322 371c0 58 -16 207 -254 207c-22 0 -45 -1 -67 -3
c-7 -46 -15 -121 -21 -225z" />
    <glyph glyph-name="Thorn" unicode="&#xde;" horiz-adv-x="578" 
d="M181 131v-46c0 -46 9 -58 9 -70c0 -22 -31 -27 -60 -27c-59 0 -59 21 -59 98c0 84 4 251 8 389c-139 -12 -176 -34 -191 -34c-16 0 -36 28 -36 48c0 39 122 66 229 78c2 57 3 102 3 119c0 25 51 27 68 27c23 0 61 -10 61 -37c0 -12 -6 -19 -14 -101c82 0 204 -12 267 -47
c52 -30 105 -103 105 -196c0 -156 -257 -202 -380 -202c-4 0 -7 0 -10 1zM183 194c18 3 52 6 113 27c102 35 188 94 188 170c0 43 -80 90 -225 90c-24 0 -46 0 -66 -1c-4 -85 -8 -200 -10 -286z" />
    <glyph glyph-name="a" unicode="a" horiz-adv-x="445" 
d="M292 67c-40 -71 -83 -95 -138 -95c-40 0 -91 12 -120 56c-15 22 -24 55 -24 101c0 82 28 170 66 224c28 40 59 58 95 58c42 0 164 -26 178 -80c16 0 26 2 34 2c10 0 22 -3 22 -13c0 -16 -29 -52 -29 -189c0 -57 5 -85 22 -85c13 0 46 18 66 36c14 12 26 29 37 29
c10 0 16 -12 16 -23c0 -26 -33 -91 -110 -91c-35 0 -86 13 -115 70zM287 318c-12 22 -43 33 -56 33c-42 0 -111 -111 -111 -243c0 -48 9 -89 30 -89c34 0 137 112 137 299z" />
    <glyph glyph-name="b" unicode="b" horiz-adv-x="416" 
d="M113 17c-8 -6 -20 -8 -35 -8c-46 0 -49 21 -49 55c0 99 25 584 25 621c0 7 -1 49 -1 53c0 25 32 34 53 34c16 0 68 -5 68 -29c0 -6 -3 -13 -7 -54c-12 -108 -21 -301 -25 -364c34 46 76 60 104 60c85 0 155 -55 155 -180c0 -103 -48 -243 -140 -243
c-33 0 -106 19 -148 55zM129 73c15 -15 41 -34 78 -34c63 0 86 66 86 198c0 44 -5 76 -30 76c-41 0 -133 -87 -134 -240z" />
    <glyph glyph-name="c" unicode="c" horiz-adv-x="375" 
d="M460 96c0 -27 -104 -132 -225 -132c-59 0 -116 25 -151 56c-40 35 -54 79 -54 148c0 104 32 267 156 267c87 0 173 -80 173 -210c0 -58 -17 -68 -52 -68c-53 0 -75 22 -75 130c0 46 4 66 4 66s-8 6 -16 6c-31 0 -77 -78 -77 -205c0 -42 5 -91 23 -115
c9 -12 19 -16 38 -16c56 0 130 33 180 62c38 22 55 37 60 37c6 0 16 -17 16 -26z" />
    <glyph glyph-name="d" unicode="d" horiz-adv-x="455" 
d="M298 64c-40 -78 -91 -114 -143 -114c-32 0 -64 15 -90 28c-44 22 -66 54 -66 127c0 121 62 316 150 316c10 0 30 -4 44 -8c57 -17 72 -34 84 -48c4 94 10 205 14 304c0 0 -6 17 -6 31c0 28 27 35 63 35c48 0 75 -12 75 -30c0 -14 -16 -24 -22 -50
c-11 -45 -26 -257 -26 -424c0 -149 12 -165 26 -165c31 0 94 73 114 73c10 0 19 -18 19 -27c0 -23 -62 -112 -133 -112c-32 0 -75 18 -95 49c-3 4 -6 9 -8 15zM275 293c-13 38 -60 52 -71 52c-30 0 -98 -100 -98 -246c0 -61 12 -94 32 -94c32 0 133 109 137 288z" />
    <glyph glyph-name="e" unicode="e" horiz-adv-x="369" 
d="M136 141c0 -80 10 -110 60 -110c47 0 114 30 155 61c38 28 63 64 75 64c7 0 22 -13 22 -29c0 -46 -128 -163 -230 -163c-51 0 -105 29 -134 53c-46 37 -55 81 -55 145c0 156 53 283 125 283c38 0 77 -19 106 -33c71 -34 107 -68 107 -119c0 -62 -54 -144 -231 -152z
M142 216c12 -8 23 -10 33 -10c45 0 102 51 102 111c0 35 -19 56 -41 56c-34 0 -79 -50 -94 -157z" />
    <glyph glyph-name="f" unicode="f" horiz-adv-x="285" 
d="M164 397h39c40 0 59 -1 73 -19c4 -5 15 -21 15 -34c0 -24 -37 -25 -61 -25c-23 0 -48 -1 -72 -1c-7 -99 -9 -192 -9 -247c0 -78 4 -72 4 -89c0 -18 -5 -24 -53 -24c-55 0 -67 8 -67 37c0 2 12 224 17 319c-24 -2 -48 -4 -52 -4c-20 0 -48 20 -48 47c0 14 8 16 105 33
c15 242 45 434 170 434c91 0 161 -104 161 -151c0 -30 -28 -36 -43 -36c-22 0 -19 13 -26 36c-10 34 -26 58 -45 58c-21 0 -50 -28 -75 -129c-15 -60 -26 -132 -33 -205z" />
    <glyph glyph-name="g" unicode="g" horiz-adv-x="443" 
d="M311 357l2 37c1 9 11 17 34 17c27 0 57 -10 57 -40c0 -56 -4 -82 -13 -474c-2 -91 -5 -210 -120 -210c-82 0 -229 74 -229 108c0 11 17 15 29 15c45 0 86 -53 145 -53c35 0 51 18 61 96c3 23 7 77 16 226c-36 -68 -82 -104 -131 -104c-35 0 -84 18 -112 45
s-41 65 -41 125c0 102 38 288 168 288c61 0 108 -42 134 -76zM292 255c-19 60 -37 96 -71 96c-58 0 -102 -100 -102 -220c0 -63 12 -94 30 -94c35 0 117 120 143 218z" />
    <glyph glyph-name="h" unicode="h" horiz-adv-x="470" 
d="M148 276c18 55 52 99 124 99c47 0 89 -23 111 -74c17 -39 17 -71 17 -160c0 -58 0 -90 35 -90c32 0 74 81 92 81c6 0 33 -12 33 -21c0 -5 -16 -29 -38 -56s-47 -55 -83 -55s-82 16 -105 43c-27 30 -34 75 -34 132c0 106 -6 121 -32 121c-56 0 -129 -229 -129 -301
c0 -16 -16 -28 -41 -28c-38 0 -61 9 -61 47c0 255 33 570 33 676c0 45 -5 60 -5 76c0 9 14 19 46 19c57 0 73 -14 73 -28c0 -5 -7 -17 -7 -17c-7 -92 -28 -396 -29 -464z" />
    <glyph glyph-name="i" unicode="i" 
d="M314 83c0 -10 -46 -98 -156 -98c-100 0 -125 73 -125 147c0 45 9 181 23 214c4 10 15 27 62 27c26 0 44 -5 44 -19c0 -15 -22 -68 -22 -226c0 -58 3 -81 24 -81c31 0 121 53 134 53c7 0 16 -12 16 -17zM204 528c0 -34 -37 -70 -86 -70c-51 0 -68 40 -68 65
c0 52 75 81 105 81c29 0 39 -29 39 -55c0 0 10 -3 10 -21z" />
    <glyph glyph-name="j" unicode="j" horiz-adv-x="176" 
d="M40 368c0 0 -6 17 -6 26c0 21 34 29 57 29c40 0 70 -23 70 -39c0 -7 -7 -10 -7 -10c-11 -60 -16 -314 -17 -348c0 -20 -2 -184 -7 -232c-6 -60 -32 -93 -115 -93c-41 0 -72 8 -100 23c-41 22 -67 55 -67 68c0 10 13 26 28 26c23 0 39 -39 102 -39c14 0 33 2 42 21
c6 13 7 41 7 92c2 262 13 385 13 476zM178 578c0 -57 -55 -77 -81 -77c-32 0 -71 31 -71 65c0 65 67 88 97 88c48 0 55 -56 55 -76z" />
    <glyph glyph-name="k" unicode="k" horiz-adv-x="414" 
d="M134 146v-62c0 -43 2 -49 2 -58c0 -21 -10 -31 -54 -31c-46 0 -53 11 -53 47c0 78 32 523 32 663c0 34 -2 43 -2 48c0 25 51 31 78 31c39 0 55 -12 55 -27c0 -13 -13 -9 -20 -57c-7 -49 -20 -216 -29 -373c21 62 53 124 119 124c68 0 138 -67 138 -141
c0 -53 -36 -115 -114 -147c7 -48 25 -90 64 -90c53 0 134 82 151 82c7 0 15 -13 15 -17c0 -6 -17 -37 -40 -61c-30 -32 -77 -64 -140 -64c-74 0 -139 43 -155 128c-16 0 -31 1 -47 5zM156 225c23 -15 47 -20 62 -20c62 0 80 101 80 133c0 24 -10 44 -24 44
c-28 0 -84 -73 -118 -157z" />
    <glyph glyph-name="l" unicode="l" horiz-adv-x="221" 
d="M320 78c0 -18 -53 -95 -135 -95c-37 0 -114 30 -130 66c-18 40 -21 92 -21 141c0 249 34 476 34 526c0 21 -8 31 -8 42c0 17 19 32 62 32c29 0 72 -7 72 -32c0 -12 -10 -19 -21 -80c-20 -107 -29 -416 -29 -491c0 -125 13 -146 32 -146c30 0 110 57 129 57
c9 0 15 -14 15 -20z" />
    <glyph glyph-name="m" unicode="m" horiz-adv-x="657" 
d="M366 64c-1 -55 -3 -65 -27 -65c-11 0 -25 2 -44 3c-15 1 -42 3 -42 46c0 25 8 121 8 203c0 41 -2 56 -13 56c-29 0 -94 -96 -119 -277c-6 -46 -6 -52 -34 -52c-58 0 -65 21 -65 67c0 78 20 285 30 366c2 18 23 30 53 30s37 -12 37 -21c0 -12 -15 -127 -15 -153
c44 101 61 117 92 117c24 0 54 -9 70 -15c45 -17 48 -32 51 -92c38 78 69 148 139 148c29 0 71 -12 97 -48c17 -24 21 -48 21 -119c0 -50 -2 -112 -2 -140c0 -67 11 -70 28 -70c57 0 94 32 105 32c7 0 17 -14 17 -21c0 -6 -7 -26 -36 -45c-37 -24 -90 -37 -122 -37
c-85 0 -99 91 -99 187c0 45 3 82 3 114c0 59 -10 63 -17 63c-46 0 -98 -157 -116 -277z" />
    <glyph glyph-name="n" unicode="n" horiz-adv-x="458" 
d="M143 5c0 -20 -3 -30 -36 -30c-49 0 -75 22 -75 61c0 31 12 258 27 339c6 34 13 39 30 39c60 0 68 -16 68 -28s-10 -21 -14 -130c40 96 69 126 112 126c29 0 67 -13 100 -33c38 -23 58 -50 58 -104c0 -29 -6 -85 -6 -128c0 -40 5 -48 25 -48c40 0 83 34 95 34
c8 0 20 -16 20 -27c0 -13 -17 -29 -34 -41c-41 -29 -81 -35 -107 -35c-73 0 -109 45 -109 119c0 33 7 122 7 145c0 38 -20 47 -30 47c-35 0 -99 -112 -131 -306z" />
    <glyph glyph-name="o" unicode="o" horiz-adv-x="418" 
d="M387 152h-11c-17 -119 -70 -177 -165 -177c-115 0 -184 84 -184 216c0 149 88 254 156 254c37 0 83 -32 106 -68h6c23 0 81 -39 86 -131c0 -9 1 -19 12 -19c41 0 52 23 71 66c13 29 19 54 44 54c12 0 20 -7 20 -25c0 -47 -37 -170 -141 -170zM293 204
c-31 36 -51 83 -51 123c0 5 0 10 1 14c-12 13 -20 17 -26 17c-28 0 -88 -76 -88 -195c0 -91 35 -132 69 -132c45 0 94 71 95 173z" />
    <glyph glyph-name="p" unicode="p" horiz-adv-x="416" 
d="M122 28c-4 -92 -6 -201 -6 -327c0 -14 -58 -27 -73 -27c-19 0 -34 12 -34 25c0 271 19 664 39 759c7 31 13 39 48 39c40 0 56 -11 56 -40c0 -18 -7 -70 -14 -158c35 69 67 95 125 95c96 0 135 -70 135 -169c0 -131 -68 -225 -172 -225c-34 0 -75 9 -104 28zM149 88
c14 -17 39 -29 60 -29c47 0 83 64 83 182c0 66 -11 87 -29 87s-39 -20 -61 -54c-29 -44 -56 -105 -69 -162c12 -3 16 -13 16 -24z" />
    <glyph glyph-name="q" unicode="q" horiz-adv-x="410" 
d="M268 76c-33 -67 -65 -101 -111 -101c-24 0 -69 9 -103 43c-30 30 -41 71 -41 120c0 128 76 309 178 309c59 0 121 -61 121 -83c0 -2 -1 -4 -2 -5c9 4 21 6 36 6c17 0 44 -3 44 -32c0 -32 -31 -376 -31 -563c0 -33 1 -52 1 -52s19 -4 19 -13c0 -8 -19 -17 -44 -17
c-76 0 -80 52 -80 79c0 15 6 168 13 309zM279 308c-8 0 -9 5 -10 17c-2 28 -25 40 -42 40c-52 0 -117 -114 -117 -247c0 -64 15 -91 27 -91c21 0 134 112 142 281z" />
    <glyph glyph-name="r" unicode="r" horiz-adv-x="314" 
d="M141 5c0 0 4 -5 4 -7c0 -8 -33 -21 -59 -21c-12 0 -54 3 -54 27c0 41 2 247 9 315c5 44 11 51 46 51c38 0 47 -8 47 -18c0 -5 -2 -52 -2 -87c37 125 74 155 106 155c22 0 90 -9 90 -64c0 -27 -11 -47 -40 -47c-22 0 -42 12 -59 15c-18 -22 -87 -138 -88 -319z" />
    <glyph glyph-name="s" unicode="s" horiz-adv-x="400" 
d="M372 68c0 -48 -39 -88 -125 -88c-65 0 -133 23 -177 46c-30 16 -51 32 -51 41c0 10 24 40 40 40c9 0 10 -9 10 -9s74 -48 138 -48c33 0 38 13 38 23c0 30 -50 54 -95 80c-57 33 -102 64 -102 128c0 80 69 138 177 138c65 0 151 -21 151 -58c0 -12 -10 -40 -18 -40
c-7 0 -28 17 -76 17c-38 0 -108 -11 -108 -66c0 -37 32 -55 100 -99c69 -44 98 -64 98 -105z" />
    <glyph glyph-name="t" unicode="t" horiz-adv-x="224" 
d="M42 410c-24 1 -46 3 -47 3c-20 1 -68 17 -68 42c0 5 58 20 120 28c3 31 5 61 6 93c1 38 18 47 58 47c39 0 63 -9 63 -23c0 -9 -11 -10 -14 -36c-3 -22 -5 -47 -8 -75c79 0 86 -2 97 -11c13 -11 20 -28 20 -46c0 -8 -66 -17 -123 -21c-7 -90 -13 -187 -13 -249
c0 -73 8 -103 35 -103c34 0 121 49 136 49c5 0 13 -6 13 -13c0 -26 -14 -44 -69 -72s-88 -36 -114 -36c-24 0 -65 20 -86 60c-16 30 -20 64 -20 109c0 90 7 173 14 254z" />
    <glyph glyph-name="u" unicode="u" horiz-adv-x="456" 
d="M288 103c-49 -102 -59 -112 -127 -112c-83 0 -132 15 -132 192c0 108 18 191 18 191s-2 5 -2 13c0 14 7 24 46 24c45 0 68 -13 68 -21c0 -4 -4 -7 -4 -7s-19 -89 -19 -215c0 -95 11 -127 19 -127c11 0 81 76 123 224c20 72 16 95 73 95c54 0 58 -21 58 -32
c0 -28 -27 -29 -27 -145c0 -78 12 -126 34 -126c25 0 92 57 110 57c9 0 17 -15 17 -20c0 -13 -72 -94 -146 -94c-68 0 -109 68 -109 103z" />
    <glyph glyph-name="v" unicode="v" horiz-adv-x="354" 
d="M175 111c100 223 104 283 125 283c10 0 26 -12 35 -23c7 -8 10 -16 10 -23c0 -35 -79 -241 -116 -315c-18 -35 -28 -45 -73 -45c-38 0 -47 7 -61 30c-40 69 -117 326 -117 357c0 35 93 51 102 51c12 0 16 -4 16 -9c0 -4 -6 -9 -6 -25c0 -51 65 -216 85 -281z" />
    <glyph glyph-name="w" unicode="w" horiz-adv-x="550" 
d="M266 204c-11 -37 -17 -50 -36 -108c-29 -90 -37 -110 -51 -110c-79 0 -89 1 -99 14c-18 23 -46 138 -73 364c-10 20 -13 35 -13 41c0 18 26 31 68 31c39 0 60 -11 60 -31c0 -7 -3 -15 -10 -26c0 0 -1 -14 -1 -24c0 -67 43 -250 44 -255c16 45 55 170 71 215
c14 38 20 47 58 47c18 0 62 -1 62 -23c0 -1 0 -3 -1 -5c8 -27 30 -143 51 -227c38 94 77 205 102 278c3 9 6 16 15 16c14 0 39 -29 39 -55c0 -28 -45 -196 -93 -300c-16 -33 -33 -57 -59 -57c-50 0 -66 8 -80 39c-18 39 -45 127 -54 176z" />
    <glyph glyph-name="x" unicode="x" horiz-adv-x="343" 
d="M101 97c-32 -48 -54 -85 -66 -106c-13 -24 -13 -28 -31 -28s-51 30 -51 49c0 15 46 78 104 158c-32 56 -63 122 -99 194c-5 1 -7 8 -7 12c0 22 54 46 86 46c20 0 37 -9 37 -22c0 -3 -1 -10 -2 -15c8 -27 28 -69 54 -120c80 106 148 190 175 190c30 0 56 -24 56 -32
c0 -12 -42 -34 -190 -233c38 -68 75 -119 126 -119c57 0 103 64 126 64c7 0 17 -6 17 -14c0 -12 -28 -43 -61 -70s-75 -51 -124 -51c-60 0 -107 37 -150 97z" />
    <glyph glyph-name="y" unicode="y" horiz-adv-x="426" 
d="M271 111c-34 -90 -102 -119 -149 -119c-86 0 -105 97 -105 197c0 61 7 126 16 160c8 30 14 36 34 36c45 0 73 -29 73 -42c0 -5 -4 -7 -4 -7s-13 -67 -13 -165c0 -86 10 -109 17 -109c11 0 85 46 141 342c0 0 -2 4 -2 10c0 8 5 18 30 18c19 0 35 -6 48 -9
c18 -4 29 -7 29 -19c0 -27 -18 -45 -33 -553c-2 -67 -34 -125 -132 -125c-120 0 -209 86 -209 105c0 9 22 9 30 9c60 0 122 -63 168 -63c39 0 35 47 61 334z" />
    <glyph glyph-name="z" unicode="z" horiz-adv-x="340" 
d="M131 75c0 0 102 19 159 19c21 0 41 -25 41 -51c0 -16 -20 -13 -96 -24c-28 -4 -163 -36 -180 -36s-62 20 -62 62c0 46 188 288 188 288s-79 -14 -115 -14s-64 11 -64 50c0 17 25 19 64 27c90 17 152 22 215 22c29 0 48 -52 48 -58c0 -17 -59 -60 -198 -285z" />
    <glyph glyph-name="eth" unicode="&#xf0;" horiz-adv-x="448" 
d="M253 549c-22 -14 -35 -19 -48 -19c-18 0 -54 13 -54 20s10 21 57 56c-35 34 -78 54 -122 59c-11 1 -25 3 -25 20c0 22 26 40 66 40s100 -19 154 -70c33 20 45 25 61 25c6 0 44 -11 44 -30c0 -7 -23 -26 -58 -51c42 -64 72 -158 72 -292c0 -83 -21 -332 -197 -332
c-103 0 -176 84 -176 218c0 148 88 252 159 252c31 0 82 -21 120 -70c-6 69 -25 128 -53 174zM306 285c-30 47 -67 73 -86 73c-33 0 -91 -76 -91 -195c0 -90 34 -132 70 -132c67 0 100 144 107 254z" />
    <glyph glyph-name="thorn" unicode="&#xfe;" horiz-adv-x="416" 
d="M122 28l-6 -327c0 -14 -57 -27 -74 -27s-33 12 -33 25c0 252 16 506 27 670c9 137 16 244 16 333c0 47 -2 47 -2 52c0 28 52 33 77 33c40 0 56 -12 56 -27c0 -14 -15 -9 -20 -57c-17 -161 -26 -291 -32 -417c36 80 77 108 135 108c92 0 132 -70 132 -170
c0 -130 -68 -224 -172 -224c-34 0 -75 9 -104 28zM149 88c14 -17 39 -29 60 -29c47 0 83 64 83 182c0 66 -11 87 -29 87s-39 -20 -61 -54c-29 -44 -56 -105 -69 -162c12 -3 16 -13 16 -24z" />
    <glyph glyph-name="Agrave" unicode="&#xc0;" horiz-adv-x="630" 
d="M87 159h-4c-57 0 -73 12 -73 35c0 10 3 27 60 40c15 3 31 6 49 8c3 10 7 19 11 29c88 230 148 375 173 419c10 18 17 21 57 22c9 4 20 7 29 7c16 0 85 -10 85 -45c0 -9 -4 -9 -4 -33s4 -64 10 -113c23 -190 71 -467 138 -467c21 0 53 26 65 26c8 0 11 -11 11 -22
c0 -51 -69 -80 -117 -80c-77 0 -118 75 -149 181c-71 -1 -171 -4 -246 -6c-3 -7 -6 -15 -8 -22c-54 -155 -51 -184 -83 -184c-39 0 -54 42 -54 53c0 8 7 36 50 152zM214 249c22 0 41 1 57 1c31 0 83 -2 136 -2c-27 114 -51 253 -61 334c-36 -87 -89 -221 -132 -333zM421 753
c-39 22 -116 109 -128 131c1 12 25 63 60 63c33 -47 77 -117 96 -150c0 -10 -15 -44 -28 -44z" />
    <glyph glyph-name="agrave" unicode="&#xe0;" horiz-adv-x="445" 
d="M292 67c-40 -71 -83 -95 -138 -95c-40 0 -91 12 -120 56c-15 22 -24 55 -24 101c0 82 28 170 66 224c28 40 59 58 95 58c42 0 164 -26 178 -80c16 0 26 2 34 2c10 0 22 -3 22 -13c0 -16 -29 -52 -29 -189c0 -57 5 -85 22 -85c13 0 46 18 66 36c14 12 26 29 37 29
c10 0 16 -12 16 -23c0 -26 -33 -91 -110 -91c-35 0 -86 13 -115 70zM287 318c-12 22 -43 33 -56 33c-42 0 -111 -111 -111 -243c0 -48 9 -89 30 -89c34 0 137 112 137 299zM257 449c-39 22 -116 109 -128 131c1 12 25 63 60 63c33 -47 77 -117 96 -150
c0 -10 -15 -44 -28 -44z" />
    <glyph glyph-name="Aacute" unicode="&#xc1;" horiz-adv-x="630" 
d="M87 159h-4c-57 0 -73 12 -73 35c0 10 3 27 60 40c15 3 31 6 49 8c3 10 7 19 11 29c88 230 148 375 173 419c10 18 17 21 57 22c9 4 20 7 29 7c16 0 85 -10 85 -45c0 -9 -4 -9 -4 -33s4 -64 10 -113c23 -190 71 -467 138 -467c21 0 53 26 65 26c8 0 11 -11 11 -22
c0 -51 -69 -80 -117 -80c-77 0 -118 75 -149 181c-71 -1 -171 -4 -246 -6c-3 -7 -6 -15 -8 -22c-54 -155 -51 -184 -83 -184c-39 0 -54 42 -54 53c0 8 7 36 50 152zM214 249c22 0 41 1 57 1c31 0 83 -2 136 -2c-27 114 -51 253 -61 334c-36 -87 -89 -221 -132 -333zM518 882
c-21 -22 -108 -112 -147 -134c-13 0 -28 34 -28 44c22 33 80 116 115 153c35 0 59 -51 60 -63z" />
    <glyph glyph-name="aacute" unicode="&#xe1;" horiz-adv-x="445" 
d="M292 67c-40 -71 -83 -95 -138 -95c-40 0 -91 12 -120 56c-15 22 -24 55 -24 101c0 82 28 170 66 224c28 40 59 58 95 58c42 0 164 -26 178 -80c16 0 26 2 34 2c10 0 22 -3 22 -13c0 -16 -29 -52 -29 -189c0 -57 5 -85 22 -85c13 0 46 18 66 36c14 12 26 29 37 29
c10 0 16 -12 16 -23c0 -26 -33 -91 -110 -91c-35 0 -86 13 -115 70zM287 318c-12 22 -43 33 -56 33c-42 0 -111 -111 -111 -243c0 -48 9 -89 30 -89c34 0 137 112 137 299zM344 582c-21 -22 -108 -112 -147 -134c-13 0 -28 34 -28 44c22 33 80 116 115 153
c35 0 59 -51 60 -63z" />
    <glyph glyph-name="Acircumflex" unicode="&#xc2;" horiz-adv-x="630" 
d="M87 159h-4c-57 0 -73 12 -73 35c0 10 3 27 60 40c15 3 31 6 49 8c3 10 7 19 11 29c88 230 148 375 173 419c10 18 17 21 57 22c9 4 20 7 29 7c16 0 85 -10 85 -45c0 -9 -4 -9 -4 -33s4 -64 10 -113c23 -190 71 -467 138 -467c21 0 53 26 65 26c8 0 11 -11 11 -22
c0 -51 -69 -80 -117 -80c-77 0 -118 75 -149 181c-71 -1 -171 -4 -246 -6c-3 -7 -6 -15 -8 -22c-54 -155 -51 -184 -83 -184c-39 0 -54 42 -54 53c0 8 7 36 50 152zM214 249c22 0 41 1 57 1c31 0 83 -2 136 -2c-27 114 -51 253 -61 334c-36 -87 -89 -221 -132 -333zM487 755
c-24 15 -66 46 -106 79c-52 -45 -80 -69 -97 -82c-21 14 -29 27 -29 39c0 9 4 17 14 26c39 38 101 103 122 114c21 -10 113 -115 129 -137c-3 -16 -23 -39 -33 -39z" />
    <glyph glyph-name="acircumflex" unicode="&#xe2;" horiz-adv-x="445" 
d="M292 67c-40 -71 -83 -95 -138 -95c-40 0 -91 12 -120 56c-15 22 -24 55 -24 101c0 82 28 170 66 224c28 40 59 58 95 58c42 0 164 -26 178 -80c16 0 26 2 34 2c10 0 22 -3 22 -13c0 -16 -29 -52 -29 -189c0 -57 5 -85 22 -85c13 0 46 18 66 36c14 12 26 29 37 29
c10 0 16 -12 16 -23c0 -26 -33 -91 -110 -91c-35 0 -86 13 -115 70zM287 318c-12 22 -43 33 -56 33c-42 0 -111 -111 -111 -243c0 -48 9 -89 30 -89c34 0 137 112 137 299zM319 451c-24 15 -66 46 -106 79c-52 -45 -80 -69 -97 -82c-21 14 -29 27 -29 39c0 9 4 17 14 26
c39 38 101 103 122 114c21 -10 113 -115 129 -137c-3 -16 -23 -39 -33 -39z" />
    <glyph glyph-name="Atilde" unicode="&#xc3;" horiz-adv-x="630" 
d="M87 159h-4c-57 0 -73 12 -73 35c0 10 3 27 60 40c15 3 31 6 49 8c3 10 7 19 11 29c88 230 148 375 173 419c10 18 17 21 57 22c9 4 20 7 29 7c16 0 85 -10 85 -45c0 -9 -4 -9 -4 -33s4 -64 10 -113c23 -190 71 -467 138 -467c21 0 53 26 65 26c8 0 11 -11 11 -22
c0 -51 -69 -80 -117 -80c-77 0 -118 75 -149 181c-71 -1 -171 -4 -246 -6c-3 -7 -6 -15 -8 -22c-54 -155 -51 -184 -83 -184c-39 0 -54 42 -54 53c0 8 7 36 50 152zM214 249c22 0 41 1 57 1c31 0 83 -2 136 -2c-27 114 -51 253 -61 334c-36 -87 -89 -221 -132 -333zM506 845
c7 -8 9 -21 9 -29c0 -25 -16 -59 -65 -59c-50 0 -76 34 -120 34c-39 0 -49 -22 -58 -27c-7 5 -10 15 -10 25c0 27 24 63 69 63c43 0 74 -33 124 -33c44 0 43 20 51 26z" />
    <glyph glyph-name="atilde" unicode="&#xe3;" horiz-adv-x="445" 
d="M292 67c-40 -71 -83 -95 -138 -95c-40 0 -91 12 -120 56c-15 22 -24 55 -24 101c0 82 28 170 66 224c28 40 59 58 95 58c42 0 164 -26 178 -80c16 0 26 2 34 2c10 0 22 -3 22 -13c0 -16 -29 -52 -29 -189c0 -57 5 -85 22 -85c13 0 46 18 66 36c14 12 26 29 37 29
c10 0 16 -12 16 -23c0 -26 -33 -91 -110 -91c-35 0 -86 13 -115 70zM287 318c-12 22 -43 33 -56 33c-42 0 -111 -111 -111 -243c0 -48 9 -89 30 -89c34 0 137 112 137 299zM358 534c7 -8 9 -21 9 -29c0 -25 -16 -59 -65 -59c-50 0 -76 34 -120 34c-39 0 -49 -22 -58 -27
c-7 5 -10 15 -10 25c0 27 24 63 69 63c43 0 74 -33 124 -33c44 0 43 20 51 26z" />
    <glyph glyph-name="Adieresis" unicode="&#xc4;" horiz-adv-x="630" 
d="M87 159h-4c-57 0 -73 12 -73 35c0 10 3 27 60 40c15 3 31 6 49 8c3 10 7 19 11 29c88 230 148 375 173 419c10 18 17 21 57 22c9 4 20 7 29 7c16 0 85 -10 85 -45c0 -9 -4 -9 -4 -33s4 -64 10 -113c23 -190 71 -467 138 -467c21 0 53 26 65 26c8 0 11 -11 11 -22
c0 -51 -69 -80 -117 -80c-77 0 -118 75 -149 181c-71 -1 -171 -4 -246 -6c-3 -7 -6 -15 -8 -22c-54 -155 -51 -184 -83 -184c-39 0 -54 42 -54 53c0 8 7 36 50 152zM214 249c22 0 41 1 57 1c31 0 83 -2 136 -2c-27 114 -51 253 -61 334c-36 -87 -89 -221 -132 -333zM300 765
c-30 0 -55 22 -55 47c0 27 21 55 66 55c32 0 46 -17 46 -37c0 -32 -26 -65 -57 -65zM460 765c-30 0 -55 22 -55 47c0 27 21 55 66 55c32 0 46 -17 46 -37c0 -32 -26 -65 -57 -65z" />
    <glyph glyph-name="adieresis" unicode="&#xe4;" horiz-adv-x="445" 
d="M157 464c-30 0 -55 22 -55 47c0 27 21 55 66 55c32 0 46 -17 46 -37c0 -32 -26 -65 -57 -65zM317 447c-30 0 -55 22 -55 47c0 27 21 55 66 55c32 0 46 -17 46 -37c0 -32 -26 -65 -57 -65zM292 67c-40 -71 -83 -95 -138 -95c-40 0 -91 12 -120 56c-15 22 -24 55 -24 101
c0 82 28 170 66 224c28 40 59 58 95 58c42 0 164 -26 178 -80c16 0 26 2 34 2c10 0 22 -3 22 -13c0 -16 -29 -52 -29 -189c0 -57 5 -85 22 -85c13 0 46 18 66 36c14 12 26 29 37 29c10 0 16 -12 16 -23c0 -26 -33 -91 -110 -91c-35 0 -86 13 -115 70zM287 318
c-12 22 -43 33 -56 33c-42 0 -111 -111 -111 -243c0 -48 9 -89 30 -89c34 0 137 112 137 299z" />
    <glyph glyph-name="Aring" unicode="&#xc5;" horiz-adv-x="630" 
d="M87 159h-4c-57 0 -73 12 -73 35c0 10 3 27 60 40c15 3 31 6 49 8c3 10 7 19 11 29c88 230 148 375 173 419c10 18 17 21 57 22c9 4 20 7 29 7c16 0 85 -10 85 -45c0 -9 -4 -9 -4 -33s4 -64 10 -113c23 -190 71 -467 138 -467c21 0 53 26 65 26c8 0 11 -11 11 -22
c0 -51 -69 -80 -117 -80c-77 0 -118 75 -149 181c-71 -1 -171 -4 -246 -6c-3 -7 -6 -15 -8 -22c-54 -155 -51 -184 -83 -184c-39 0 -54 42 -54 53c0 8 7 36 50 152zM214 249c22 0 41 1 57 1c31 0 83 -2 136 -2c-27 114 -51 253 -61 334c-36 -87 -89 -221 -132 -333zM395 749
c-38 0 -77 22 -77 70c0 31 17 106 83 106c21 0 84 -8 84 -67c0 -34 -21 -109 -90 -109zM393 791c21 0 37 23 37 47c0 16 -7 34 -23 34c-21 0 -34 -33 -34 -55c0 -16 6 -26 20 -26z" />
    <glyph glyph-name="aring" unicode="&#xe5;" horiz-adv-x="445" 
d="M292 67c-40 -71 -83 -95 -138 -95c-40 0 -91 12 -120 56c-15 22 -24 55 -24 101c0 82 28 170 66 224c28 40 59 58 95 58c42 0 164 -26 178 -80c16 0 26 2 34 2c10 0 22 -3 22 -13c0 -16 -29 -52 -29 -189c0 -57 5 -85 22 -85c13 0 46 18 66 36c14 12 26 29 37 29
c10 0 16 -12 16 -23c0 -26 -33 -91 -110 -91c-35 0 -86 13 -115 70zM287 318c-12 22 -43 33 -56 33c-42 0 -111 -111 -111 -243c0 -48 9 -89 30 -89c34 0 137 112 137 299zM243 446c-38 0 -77 22 -77 70c0 31 17 106 83 106c21 0 84 -8 84 -67c0 -34 -21 -109 -90 -109z
M241 488c21 0 37 23 37 47c0 16 -7 34 -23 34c-21 0 -34 -33 -34 -55c0 -16 6 -26 20 -26z" />
    <glyph glyph-name="Amacron" unicode="&#x100;" horiz-adv-x="630" 
d="M87 159h-4c-57 0 -73 12 -73 35c0 10 3 27 60 40c15 3 31 6 49 8c3 10 7 19 11 29c88 230 148 375 173 419c10 18 17 21 57 22c9 4 20 7 29 7c16 0 85 -10 85 -45c0 -9 -4 -9 -4 -33s4 -64 10 -113c23 -190 71 -467 138 -467c21 0 53 26 65 26c8 0 11 -11 11 -22
c0 -51 -69 -80 -117 -80c-77 0 -118 75 -149 181c-71 -1 -171 -4 -246 -6c-3 -7 -6 -15 -8 -22c-54 -155 -51 -184 -83 -184c-39 0 -54 42 -54 53c0 8 7 36 50 152zM214 249c22 0 41 1 57 1c31 0 83 -2 136 -2c-27 114 -51 253 -61 334c-36 -87 -89 -221 -132 -333zM506 773
c-26 -3 -103 -4 -160 -4c-92 0 -103 8 -103 28s8 45 31 45c12 0 72 -1 102 -1c61 0 109 0 132 -2c14 -1 19 -18 19 -32c0 -17 -8 -32 -21 -34z" />
    <glyph glyph-name="amacron" unicode="&#x101;" horiz-adv-x="445" 
d="M292 67c-40 -71 -83 -95 -138 -95c-40 0 -91 12 -120 56c-15 22 -24 55 -24 101c0 82 28 170 66 224c28 40 59 58 95 58c42 0 164 -26 178 -80c16 0 26 2 34 2c10 0 22 -3 22 -13c0 -16 -29 -52 -29 -189c0 -57 5 -85 22 -85c13 0 46 18 66 36c14 12 26 29 37 29
c10 0 16 -12 16 -23c0 -26 -33 -91 -110 -91c-35 0 -86 13 -115 70zM287 318c-12 22 -43 33 -56 33c-42 0 -111 -111 -111 -243c0 -48 9 -89 30 -89c34 0 137 112 137 299zM343 491c-26 -3 -103 -4 -160 -4c-92 0 -103 8 -103 28s8 45 31 45c12 0 72 -1 102 -1
c61 0 109 0 132 -2c14 -1 19 -18 19 -32c0 -17 -8 -32 -21 -34z" />
    <glyph glyph-name="Abreve" unicode="&#x102;" horiz-adv-x="630" 
d="M87 159h-4c-57 0 -73 12 -73 35c0 10 3 27 60 40c15 3 31 6 49 8c3 10 7 19 11 29c88 230 148 375 173 419c10 18 17 21 57 22c9 4 20 7 29 7c16 0 85 -10 85 -45c0 -9 -4 -9 -4 -33s4 -64 10 -113c23 -190 71 -467 138 -467c21 0 53 26 65 26c8 0 11 -11 11 -22
c0 -51 -69 -80 -117 -80c-77 0 -118 75 -149 181c-71 -1 -171 -4 -246 -6c-3 -7 -6 -15 -8 -22c-54 -155 -51 -184 -83 -184c-39 0 -54 42 -54 53c0 8 7 36 50 152zM214 249c22 0 41 1 57 1c31 0 83 -2 136 -2c-27 114 -51 253 -61 334c-36 -87 -89 -221 -132 -333zM504 892
c13 -9 19 -27 19 -42c0 -52 -68 -100 -141 -100c-92 0 -133 77 -133 106c0 15 10 33 35 33c12 -29 47 -71 99 -71c57 0 102 50 121 74z" />
    <glyph glyph-name="abreve" unicode="&#x103;" horiz-adv-x="445" 
d="M292 67c-40 -71 -83 -95 -138 -95c-40 0 -91 12 -120 56c-15 22 -24 55 -24 101c0 82 28 170 66 224c28 40 59 58 95 58c42 0 164 -26 178 -80c16 0 26 2 34 2c10 0 22 -3 22 -13c0 -16 -29 -52 -29 -189c0 -57 5 -85 22 -85c13 0 46 18 66 36c14 12 26 29 37 29
c10 0 16 -12 16 -23c0 -26 -33 -91 -110 -91c-35 0 -86 13 -115 70zM287 318c-12 22 -43 33 -56 33c-42 0 -111 -111 -111 -243c0 -48 9 -89 30 -89c34 0 137 112 137 299zM349 591c13 -9 19 -27 19 -42c0 -52 -68 -100 -141 -100c-92 0 -133 77 -133 106c0 15 10 33 35 33
c12 -29 47 -71 99 -71c57 0 102 50 121 74z" />
    <glyph glyph-name="Aogonek" unicode="&#x104;" horiz-adv-x="630" 
d="M87 159h-4c-57 0 -73 12 -73 35c0 10 3 27 60 40c15 3 31 6 49 8c3 10 7 19 11 29c88 230 148 375 173 419c10 18 17 21 57 22c9 4 20 7 29 7c16 0 85 -10 85 -45c0 -9 -4 -9 -4 -33s4 -64 10 -113c23 -190 71 -467 138 -467c21 0 53 26 65 26c8 0 11 -11 11 -22
c0 -51 -68 -79 -116 -80c-21 -33 -31 -63 -31 -87c0 -26 12 -36 35 -36c35 0 59 22 62 22c2 0 3 -3 3 -8c0 -28 -39 -83 -107 -83c-50 0 -73 30 -73 70c0 49 33 100 65 132c-49 23 -79 88 -104 171c-71 -1 -171 -4 -246 -6c-3 -7 -6 -15 -8 -22c-54 -155 -51 -184 -83 -184
c-39 0 -54 42 -54 53c0 8 7 36 50 152zM346 582c-36 -87 -89 -221 -132 -333c22 0 41 1 57 1c31 0 83 -1 136 -2c-27 114 -51 253 -61 334z" />
    <glyph glyph-name="aogonek" unicode="&#x105;" horiz-adv-x="445" 
d="M371 1c-29 8 -59 27 -79 66c-40 -71 -83 -95 -138 -95c-40 0 -91 12 -120 56c-15 22 -24 55 -24 101c0 82 28 170 66 224c28 40 59 58 95 58c42 0 164 -26 178 -80c16 0 26 2 34 2c10 0 22 -3 22 -13c0 -16 -29 -52 -29 -189c0 -57 5 -85 22 -85c13 0 46 18 66 36
c14 12 26 29 37 29c10 0 16 -12 16 -23c0 -25 -31 -86 -101 -90c-28 -41 -42 -76 -42 -104c0 -26 12 -36 35 -36c35 0 59 22 62 22c2 0 3 -3 3 -8c0 -28 -39 -83 -107 -83c-50 0 -73 30 -73 70c0 55 42 113 77 142zM272 203c1 22 5 57 15 115c-12 22 -43 33 -56 33
c-42 0 -111 -111 -111 -243c0 -48 9 -89 30 -89c30 0 101 81 122 184z" />
    <glyph glyph-name="AE" unicode="&#xc6;" horiz-adv-x="858" 
d="M663 238l-145 -18c-5 -76 -8 -134 -8 -142c0 0 110 14 208 14c58 0 95 -5 106 -13c4 -3 6 -7 6 -24c0 -12 -1 -24 -8 -25c-159 -24 -282 -47 -366 -47c-31 0 -42 3 -52 12c-12 11 -16 32 -16 50c0 22 6 78 12 159c-85 -10 -171 -20 -242 -25l-25 -41
c-99 -159 -88 -164 -126 -164c-40 0 -49 27 -49 43c0 17 18 48 92 162c-27 5 -35 16 -35 33c0 10 2 29 60 40c8 1 16 3 25 5l10 14c95 145 182 275 229 341c-7 11 -9 22 -9 32c0 15 5 18 50 23c67 7 278 33 374 33c27 0 51 -2 70 -13c20 -11 35 -32 35 -53
c0 -8 -2 -7 -38 -9c-84 -6 -186 -27 -273 -39c-7 -70 -16 -178 -23 -277c80 8 145 13 170 13c48 0 90 -6 90 -48c0 -6 -1 -14 -13 -20c-17 -8 -46 -8 -109 -16zM407 297c6 80 11 174 12 277c-54 -80 -130 -192 -199 -300c59 8 124 16 187 23z" />
    <glyph glyph-name="ae" unicode="&#xe6;" horiz-adv-x="612" 
d="M289 61c-39 -66 -81 -89 -135 -89c-40 0 -91 12 -120 56c-15 22 -24 55 -24 101c0 82 28 170 66 224c28 40 59 58 95 58c29 0 98 -13 141 -39c22 45 51 73 85 73c38 0 77 -19 106 -33c71 -34 107 -68 107 -119c0 -62 -54 -144 -231 -152c0 -79 10 -110 60 -110
c47 0 114 30 155 61c38 28 63 64 75 64c7 0 22 -13 22 -29c0 -46 -128 -163 -230 -163c-51 0 -105 29 -134 53c-17 13 -29 28 -38 44zM274 215c3 34 8 66 16 95c-8 27 -44 41 -59 41c-42 0 -111 -111 -111 -243c0 -48 9 -89 30 -89c31 0 107 88 124 196zM385 216
c12 -8 23 -10 33 -10c45 0 102 51 102 111c0 35 -19 56 -41 56c-34 0 -79 -50 -94 -157z" />
    <glyph glyph-name="AEacute" unicode="&#x1fc;" horiz-adv-x="858" 
d="M663 238l-145 -18c-5 -76 -8 -134 -8 -142c0 0 110 14 208 14c58 0 95 -5 106 -13c4 -3 6 -7 6 -24c0 -12 -1 -24 -8 -25c-159 -24 -282 -47 -366 -47c-31 0 -42 3 -52 12c-12 11 -16 32 -16 50c0 22 6 78 12 159c-85 -10 -171 -20 -242 -25l-25 -41
c-99 -159 -88 -164 -126 -164c-40 0 -49 27 -49 43c0 17 18 48 92 162c-27 5 -35 16 -35 33c0 10 2 29 60 40c8 1 16 3 25 5l10 14c95 145 182 275 229 341c-7 11 -9 22 -9 32c0 15 5 18 50 23c67 7 278 33 374 33c27 0 51 -2 70 -13c20 -11 35 -32 35 -53
c0 -8 -2 -7 -38 -9c-84 -6 -186 -27 -273 -39c-7 -70 -16 -178 -23 -277c80 8 145 13 170 13c48 0 90 -6 90 -48c0 -6 -1 -14 -13 -20c-17 -8 -46 -8 -109 -16zM407 297c6 80 11 174 12 277c-54 -80 -130 -192 -199 -300c59 8 124 16 187 23zM707 876
c-21 -22 -108 -112 -147 -134c-13 0 -28 34 -28 44c22 33 80 116 115 153c35 0 59 -51 60 -63z" />
    <glyph glyph-name="aeacute" unicode="&#x1fd;" horiz-adv-x="612" 
d="M289 61c-39 -66 -81 -89 -135 -89c-40 0 -91 12 -120 56c-15 22 -24 55 -24 101c0 82 28 170 66 224c28 40 59 58 95 58c29 0 98 -13 141 -39c22 45 51 73 85 73c38 0 77 -19 106 -33c71 -34 107 -68 107 -119c0 -62 -54 -144 -231 -152c0 -79 10 -110 60 -110
c47 0 114 30 155 61c38 28 63 64 75 64c7 0 22 -13 22 -29c0 -46 -128 -163 -230 -163c-51 0 -105 29 -134 53c-17 13 -29 28 -38 44zM274 215c3 34 8 66 16 95c-8 27 -44 41 -59 41c-42 0 -111 -111 -111 -243c0 -48 9 -89 30 -89c31 0 107 88 124 196zM385 216
c12 -8 23 -10 33 -10c45 0 102 51 102 111c0 35 -19 56 -41 56c-34 0 -79 -50 -94 -157zM433 614c-21 -22 -108 -112 -147 -134c-13 0 -28 34 -28 44c22 33 80 116 115 153c35 0 59 -51 60 -63z" />
    <glyph glyph-name="Ccedilla" unicode="&#xc7;" horiz-adv-x="533" 
d="M335 -31c-4 -6 -17 -20 -25 -43c15 8 30 11 45 11c34 0 62 -20 62 -60c0 -68 -83 -116 -157 -116c-21 0 -55 4 -55 34c0 16 10 25 15 25c4 0 12 -7 39 -7c37 0 87 14 87 59c0 6 -1 19 -23 19c-34 0 -64 -29 -72 -29c-9 0 -27 29 -27 37c0 9 23 45 43 66
c-69 5 -142 42 -190 96c-47 53 -69 118 -69 205c0 199 116 466 271 466c35 0 77 -14 111 -36c103 -36 148 -138 148 -291c0 -40 -3 -67 -27 -67c-11 0 -52 5 -75 44c-20 34 -20 80 -20 198c0 48 -25 54 -71 54c-40 0 -72 -3 -110 -47c-63 -73 -118 -237 -118 -373
c0 -68 14 -102 37 -124c39 -37 106 -39 122 -39c83 0 161 54 217 100c54 44 75 71 89 71c11 0 27 -19 27 -32c0 -36 -128 -190 -274 -221z" />
    <glyph glyph-name="ccedilla" unicode="&#xe7;" horiz-adv-x="375" 
d="M237 -36c-5 -7 -16 -20 -22 -40c15 8 30 11 45 11c34 0 62 -20 62 -60c0 -68 -83 -116 -157 -116c-21 0 -55 4 -55 34c0 16 10 25 15 25c4 0 12 -7 39 -7c37 0 87 14 87 59c0 6 -1 19 -23 19c-34 0 -64 -29 -72 -29c-9 0 -27 29 -27 37c0 11 30 56 52 74
c-38 9 -73 28 -97 49c-40 35 -54 79 -54 148c0 104 32 267 156 267c87 0 173 -80 173 -210c0 -58 -17 -68 -52 -68c-53 0 -75 22 -75 130c0 46 4 66 4 66s-8 6 -16 6c-31 0 -77 -78 -77 -205c0 -42 5 -91 23 -115c9 -12 19 -16 38 -16c56 0 130 33 180 62c38 22 55 37 60 37
c6 0 16 -17 16 -26c0 -27 -103 -130 -223 -132z" />
    <glyph glyph-name="Cacute" unicode="&#x106;" horiz-adv-x="533" 
d="M390 696c103 -36 148 -138 148 -291c0 -40 -3 -67 -27 -67c-11 0 -52 5 -75 44c-20 34 -20 80 -20 198c0 48 -25 54 -71 54c-40 0 -72 -3 -110 -47c-63 -73 -118 -237 -118 -373c0 -68 14 -102 37 -124c39 -37 106 -39 122 -39c83 0 161 54 217 100c54 44 75 71 89 71
c11 0 27 -19 27 -32c0 -40 -158 -226 -323 -226c-75 0 -157 38 -209 97c-47 53 -69 118 -69 205c0 199 116 466 271 466c35 0 77 -14 111 -36zM418 908c-21 -22 -108 -112 -147 -134c-13 0 -28 34 -28 44c22 33 80 116 115 153c35 0 59 -51 60 -63z" />
    <glyph glyph-name="cacute" unicode="&#x107;" horiz-adv-x="375" 
d="M460 96c0 -27 -104 -132 -225 -132c-59 0 -116 25 -151 56c-40 35 -54 79 -54 148c0 104 32 267 156 267c87 0 173 -80 173 -210c0 -58 -17 -68 -52 -68c-53 0 -75 22 -75 130c0 46 4 66 4 66s-8 6 -16 6c-31 0 -77 -78 -77 -205c0 -42 5 -91 23 -115
c9 -12 19 -16 38 -16c56 0 130 33 180 62c38 22 55 37 60 37c6 0 16 -17 16 -26zM310 608c-21 -22 -108 -112 -147 -134c-13 0 -28 34 -28 44c22 33 80 116 115 153c35 0 59 -51 60 -63z" />
    <glyph glyph-name="Ccircumflex" unicode="&#x108;" horiz-adv-x="533" 
d="M390 696c103 -36 148 -138 148 -291c0 -40 -3 -67 -27 -67c-11 0 -52 5 -75 44c-20 34 -20 80 -20 198c0 48 -25 54 -71 54c-40 0 -72 -3 -110 -47c-63 -73 -118 -237 -118 -373c0 -68 14 -102 37 -124c39 -37 106 -39 122 -39c83 0 161 54 217 100c54 44 75 71 89 71
c11 0 27 -19 27 -32c0 -40 -158 -226 -323 -226c-75 0 -157 38 -209 97c-47 53 -69 118 -69 205c0 199 116 466 271 466c35 0 77 -14 111 -36zM395 768c-24 15 -66 46 -106 79c-52 -45 -80 -69 -97 -82c-21 14 -29 27 -29 39c0 9 4 17 14 26c39 38 101 103 122 114
c21 -10 113 -115 129 -137c-3 -16 -23 -39 -33 -39z" />
    <glyph glyph-name="ccircumflex" unicode="&#x109;" horiz-adv-x="375" 
d="M460 96c0 -27 -104 -132 -225 -132c-59 0 -116 25 -151 56c-40 35 -54 79 -54 148c0 104 32 267 156 267c87 0 173 -80 173 -210c0 -58 -17 -68 -52 -68c-53 0 -75 22 -75 130c0 46 4 66 4 66s-8 6 -16 6c-31 0 -77 -78 -77 -205c0 -42 5 -91 23 -115
c9 -12 19 -16 38 -16c56 0 130 33 180 62c38 22 55 37 60 37c6 0 16 -17 16 -26zM295 457c-24 15 -66 46 -106 79c-52 -45 -80 -69 -97 -82c-21 14 -29 27 -29 39c0 9 4 17 14 26c39 38 101 103 122 114c21 -10 113 -115 129 -137c-3 -16 -23 -39 -33 -39z" />
    <glyph glyph-name="Cdotaccent" unicode="&#x10a;" horiz-adv-x="533" 
d="M390 696c103 -36 148 -138 148 -291c0 -40 -3 -67 -27 -67c-11 0 -52 5 -75 44c-20 34 -20 80 -20 198c0 48 -25 54 -71 54c-40 0 -72 -3 -110 -47c-63 -73 -118 -237 -118 -373c0 -68 14 -102 37 -124c39 -37 106 -39 122 -39c83 0 161 54 217 100c54 44 75 71 89 71
c11 0 27 -19 27 -32c0 -40 -158 -226 -323 -226c-75 0 -157 38 -209 97c-47 53 -69 118 -69 205c0 199 116 466 271 466c35 0 77 -14 111 -36zM307 774c-40 0 -75 31 -75 63c0 31 27 61 76 61c44 0 60 -25 60 -53c0 -37 -26 -71 -61 -71z" />
    <glyph glyph-name="cdotaccent" unicode="&#x10b;" horiz-adv-x="375" 
d="M460 96c0 -27 -104 -132 -225 -132c-59 0 -116 25 -151 56c-40 35 -54 79 -54 148c0 104 32 267 156 267c87 0 173 -80 173 -210c0 -58 -17 -68 -52 -68c-53 0 -75 22 -75 130c0 46 4 66 4 66s-8 6 -16 6c-31 0 -77 -78 -77 -205c0 -42 5 -91 23 -115
c9 -12 19 -16 38 -16c56 0 130 33 180 62c38 22 55 37 60 37c6 0 16 -17 16 -26zM211 471c-40 0 -75 31 -75 63c0 31 27 61 76 61c44 0 60 -25 60 -53c0 -37 -26 -71 -61 -71z" />
    <glyph glyph-name="Ccaron" unicode="&#x10c;" horiz-adv-x="533" 
d="M390 696c103 -36 148 -138 148 -291c0 -40 -3 -67 -27 -67c-11 0 -52 5 -75 44c-20 34 -20 80 -20 198c0 48 -25 54 -71 54c-40 0 -72 -3 -110 -47c-63 -73 -118 -237 -118 -373c0 -68 14 -102 37 -124c39 -37 106 -39 122 -39c83 0 161 54 217 100c54 44 75 71 89 71
c11 0 27 -19 27 -32c0 -40 -158 -226 -323 -226c-75 0 -157 38 -209 97c-47 53 -69 118 -69 205c0 199 116 466 271 466c35 0 77 -14 111 -36zM290 770c-20 10 -113 115 -129 137c3 16 23 39 33 39c24 -15 63 -50 99 -88c52 45 88 78 104 91c21 -14 30 -27 30 -39
c0 -9 -5 -17 -14 -26c-53 -53 -104 -103 -123 -114z" />
    <glyph glyph-name="ccaron" unicode="&#x10d;" horiz-adv-x="375" 
d="M460 96c0 -27 -104 -132 -225 -132c-59 0 -116 25 -151 56c-40 35 -54 79 -54 148c0 104 32 267 156 267c87 0 173 -80 173 -210c0 -58 -17 -68 -52 -68c-53 0 -75 22 -75 130c0 46 4 66 4 66s-8 6 -16 6c-31 0 -77 -78 -77 -205c0 -42 5 -91 23 -115
c9 -12 19 -16 38 -16c56 0 130 33 180 62c38 22 55 37 60 37c6 0 16 -17 16 -26zM192 463c-20 10 -113 115 -129 137c3 16 23 39 33 39c24 -15 63 -50 99 -88c52 45 88 78 104 91c21 -14 30 -27 30 -39c0 -9 -5 -17 -14 -26c-53 -53 -104 -103 -123 -114z" />
    <glyph glyph-name="Dcaron" unicode="&#x10e;" horiz-adv-x="635" 
d="M157 -12c-1 -15 -5 -16 -20 -16c-53 0 -93 12 -93 74c0 47 23 418 28 564c-67 -14 -118 -29 -123 -29c-6 0 -29 27 -29 55c0 87 230 98 282 98c58 0 185 -14 289 -109c78 -71 122 -169 122 -258c0 -205 -231 -395 -377 -395c-26 0 -53 6 -79 16zM158 66
c10 -7 21 -11 35 -11c83 0 322 147 322 372c0 58 -16 206 -255 206c-20 0 -44 -1 -66 -3c-14 -85 -28 -276 -36 -564zM293 757c-20 10 -113 115 -129 137c3 16 23 39 33 39c24 -15 63 -50 99 -88c52 45 88 78 104 91c21 -14 30 -27 30 -39c0 -9 -5 -17 -14 -26
c-53 -53 -104 -103 -123 -114z" />
    <glyph glyph-name="dcaron" unicode="&#x10f;" horiz-adv-x="522" 
d="M298 64c-40 -78 -91 -114 -143 -114c-32 0 -64 15 -90 28c-44 22 -66 54 -66 127c0 121 62 316 150 316c10 0 30 -4 44 -8c57 -17 72 -34 84 -48c4 94 10 205 14 304c0 0 -6 17 -6 31c0 28 27 35 63 35c48 0 75 -12 75 -30c0 -14 -16 -24 -22 -50
c-11 -45 -26 -257 -26 -424c0 -149 12 -165 26 -165c31 0 94 73 114 73c10 0 19 -18 19 -27c0 -23 -62 -112 -133 -112c-32 0 -75 18 -95 49c-3 4 -6 9 -8 15zM275 293c-13 38 -60 52 -71 52c-30 0 -98 -100 -98 -246c0 -61 12 -94 32 -94c32 0 133 109 137 288zM473 482
c-17 0 -38 16 -38 27c0 8 12 152 27 210c3 12 7 20 21 20c11 0 55 -11 55 -25c0 -4 -21 -105 -35 -199c-5 -24 -7 -33 -30 -33z" />
    <glyph glyph-name="Dcroat" unicode="&#x110;" horiz-adv-x="641" 
d="M57 313c-15 1 -28 6 -38 15c-15 12 -38 42 -38 53c0 6 12 15 81 20c5 79 8 154 10 209c-68 -14 -118 -29 -123 -29c-6 0 -29 27 -29 55c0 87 230 98 282 98c58 0 185 -14 289 -109c78 -71 122 -169 122 -258c0 -205 -231 -395 -378 -395c-25 0 -52 6 -78 16
c-1 -13 -4 -16 -18 -16c-44 0 -95 12 -95 60c0 40 6 157 13 281zM173 405h43c32 0 64 -2 83 -9s35 -37 35 -68c0 -9 -63 -14 -166 -16c-4 -72 -7 -154 -10 -246c10 -7 21 -11 35 -11c83 0 322 147 322 371c0 58 -16 207 -254 207c-22 0 -45 -1 -67 -3
c-7 -46 -15 -121 -21 -225z" />
    <glyph glyph-name="dcroat" unicode="&#x111;" horiz-adv-x="455" 
d="M277 365l8 187h-57c-92 0 -103 8 -103 28s8 45 31 45c9 0 83 -1 133 -1c0 15 1 30 2 45c0 0 -6 17 -6 31c0 28 27 35 63 35c48 0 75 -12 75 -30c0 -14 -16 -24 -22 -50c-2 -7 -3 -18 -5 -31c27 0 50 -1 64 -2s19 -18 19 -32c0 -17 -8 -32 -21 -34c-12 -2 -36 -3 -70 -3
c-7 -89 -13 -215 -13 -322c0 -149 12 -165 26 -165c31 0 94 73 114 73c10 0 19 -18 19 -27c0 -23 -62 -112 -133 -112c-32 0 -75 18 -95 49c-3 4 -6 9 -8 15c-40 -78 -91 -114 -143 -114c-32 0 -64 15 -90 28c-44 22 -66 54 -66 127c0 121 62 316 150 316c10 0 30 -4 44 -8
c57 -17 72 -34 84 -48zM275 293c-13 38 -60 52 -71 52c-30 0 -98 -100 -98 -246c0 -61 12 -94 32 -94c32 0 135 116 137 288z" />
    <glyph glyph-name="Egrave" unicode="&#xc8;" horiz-adv-x="543" 
d="M162 203c-4 -68 -7 -118 -7 -125c0 0 150 14 248 14c58 0 95 -5 106 -13c4 -3 6 -7 6 -24c0 -12 -1 -24 -8 -25c-159 -24 -322 -47 -406 -47c-31 0 -42 3 -52 12c-12 11 -16 32 -16 50c0 48 27 257 31 531c-75 6 -89 43 -89 68c0 15 5 18 50 23c67 7 318 33 414 33
c27 0 51 -2 70 -13c20 -11 35 -32 35 -53c0 -8 -2 -7 -38 -9c-87 -6 -213 -28 -314 -41c-7 -71 -15 -182 -23 -282c70 5 161 12 211 12c48 0 90 -6 90 -48c0 -6 -1 -14 -13 -20c-17 -8 -46 -9 -109 -16c-73 -8 -119 -17 -186 -27zM311 740c-39 22 -116 109 -128 131
c1 12 25 63 60 63c33 -47 77 -117 96 -150c0 -10 -15 -44 -28 -44z" />
    <glyph glyph-name="egrave" unicode="&#xe8;" horiz-adv-x="369" 
d="M136 141c0 -80 10 -110 60 -110c47 0 114 30 155 61c38 28 63 64 75 64c7 0 22 -13 22 -29c0 -46 -128 -163 -230 -163c-51 0 -105 29 -134 53c-46 37 -55 81 -55 145c0 156 53 283 125 283c38 0 77 -19 106 -33c71 -34 107 -68 107 -119c0 -62 -54 -144 -231 -152z
M142 216c12 -8 23 -10 33 -10c45 0 102 51 102 111c0 35 -19 56 -41 56c-34 0 -79 -50 -94 -157zM239 477c-39 22 -116 109 -128 131c1 12 25 63 60 63c33 -47 77 -117 96 -150c0 -10 -15 -44 -28 -44z" />
    <glyph glyph-name="Eacute" unicode="&#xc9;" horiz-adv-x="543" 
d="M162 203c-4 -68 -7 -118 -7 -125c0 0 150 14 248 14c58 0 95 -5 106 -13c4 -3 6 -7 6 -24c0 -12 -1 -24 -8 -25c-159 -24 -322 -47 -406 -47c-31 0 -42 3 -52 12c-12 11 -16 32 -16 50c0 48 27 257 31 531c-75 6 -89 43 -89 68c0 15 5 18 50 23c67 7 318 33 414 33
c27 0 51 -2 70 -13c20 -11 35 -32 35 -53c0 -8 -2 -7 -38 -9c-87 -6 -213 -28 -314 -41c-7 -71 -15 -182 -23 -282c70 5 161 12 211 12c48 0 90 -6 90 -48c0 -6 -1 -14 -13 -20c-17 -8 -46 -9 -109 -16c-73 -8 -119 -17 -186 -27zM407 872c-21 -22 -108 -112 -147 -134
c-13 0 -28 34 -28 44c22 33 80 116 115 153c35 0 59 -51 60 -63z" />
    <glyph glyph-name="eacute" unicode="&#xe9;" horiz-adv-x="369" 
d="M136 141c0 -80 10 -110 60 -110c47 0 114 30 155 61c38 28 63 64 75 64c7 0 22 -13 22 -29c0 -46 -128 -163 -230 -163c-51 0 -105 29 -134 53c-46 37 -55 81 -55 145c0 156 53 283 125 283c38 0 77 -19 106 -33c71 -34 107 -68 107 -119c0 -62 -54 -144 -231 -152z
M142 216c12 -8 23 -10 33 -10c45 0 102 51 102 111c0 35 -19 56 -41 56c-34 0 -79 -50 -94 -157zM332 614c-21 -22 -108 -112 -147 -134c-13 0 -28 34 -28 44c22 33 80 116 115 153c35 0 59 -51 60 -63z" />
    <glyph glyph-name="Ecircumflex" unicode="&#xca;" horiz-adv-x="543" 
d="M162 203c-4 -68 -7 -118 -7 -125c0 0 150 14 248 14c58 0 95 -5 106 -13c4 -3 6 -7 6 -24c0 -12 -1 -24 -8 -25c-159 -24 -322 -47 -406 -47c-31 0 -42 3 -52 12c-12 11 -16 32 -16 50c0 48 27 257 31 531c-75 6 -89 43 -89 68c0 15 5 18 50 23c67 7 318 33 414 33
c27 0 51 -2 70 -13c20 -11 35 -32 35 -53c0 -8 -2 -7 -38 -9c-87 -6 -213 -28 -314 -41c-7 -71 -15 -182 -23 -282c70 5 161 12 211 12c48 0 90 -6 90 -48c0 -6 -1 -14 -13 -20c-17 -8 -46 -9 -109 -16c-73 -8 -119 -17 -186 -27zM368 749c-24 15 -66 46 -106 79
c-52 -45 -80 -69 -97 -82c-21 14 -29 27 -29 39c0 9 4 17 14 26c39 38 101 103 122 114c21 -10 113 -115 129 -137c-3 -16 -23 -39 -33 -39z" />
    <glyph glyph-name="ecircumflex" unicode="&#xea;" horiz-adv-x="369" 
d="M136 141c0 -80 10 -110 60 -110c47 0 114 30 155 61c38 28 63 64 75 64c7 0 22 -13 22 -29c0 -46 -128 -163 -230 -163c-51 0 -105 29 -134 53c-46 37 -55 81 -55 145c0 156 53 283 125 283c38 0 77 -19 106 -33c71 -34 107 -68 107 -119c0 -62 -54 -144 -231 -152z
M142 216c12 -8 23 -10 33 -10c45 0 102 51 102 111c0 35 -19 56 -41 56c-34 0 -79 -50 -94 -157zM284 473c-24 15 -66 46 -106 79c-52 -45 -80 -69 -97 -82c-21 14 -29 27 -29 39c0 9 4 17 14 26c39 38 101 103 122 114c21 -10 113 -115 129 -137c-3 -16 -23 -39 -33 -39z
" />
    <glyph glyph-name="Edieresis" unicode="&#xcb;" horiz-adv-x="543" 
d="M162 203c-4 -68 -7 -118 -7 -125c0 0 150 14 248 14c58 0 95 -5 106 -13c4 -3 6 -7 6 -24c0 -12 -1 -24 -8 -25c-159 -24 -322 -47 -406 -47c-31 0 -42 3 -52 12c-12 11 -16 32 -16 50c0 48 27 257 31 531c-75 6 -89 43 -89 68c0 15 5 18 50 23c67 7 318 33 414 33
c27 0 51 -2 70 -13c20 -11 35 -32 35 -53c0 -8 -2 -7 -38 -9c-87 -6 -213 -28 -314 -41c-7 -71 -15 -182 -23 -282c70 5 161 12 211 12c48 0 90 -6 90 -48c0 -6 -1 -14 -13 -20c-17 -8 -46 -9 -109 -16c-73 -8 -119 -17 -186 -27zM199 744c-30 0 -55 22 -55 47
c0 27 21 55 66 55c32 0 46 -17 46 -37c0 -32 -26 -65 -57 -65zM359 744c-30 0 -55 22 -55 47c0 27 21 55 66 55c32 0 46 -17 46 -37c0 -32 -26 -65 -57 -65z" />
    <glyph glyph-name="edieresis" unicode="&#xeb;" horiz-adv-x="369" 
d="M116 475c-30 0 -55 22 -55 47c0 27 21 55 66 55c32 0 46 -17 46 -37c0 -32 -26 -65 -57 -65zM276 467c-30 0 -55 22 -55 47c0 27 21 55 66 55c32 0 46 -17 46 -37c0 -32 -26 -65 -57 -65zM136 141c0 -80 10 -110 60 -110c47 0 114 30 155 61c38 28 63 64 75 64
c7 0 22 -13 22 -29c0 -46 -128 -163 -230 -163c-51 0 -105 29 -134 53c-46 37 -55 81 -55 145c0 156 53 283 125 283c38 0 77 -19 106 -33c71 -34 107 -68 107 -119c0 -62 -54 -144 -231 -152zM142 216c12 -8 23 -10 33 -10c45 0 102 51 102 111c0 35 -19 56 -41 56
c-34 0 -79 -50 -94 -157z" />
    <glyph glyph-name="Emacron" unicode="&#x112;" horiz-adv-x="543" 
d="M162 203c-4 -68 -7 -118 -7 -125c0 0 150 14 248 14c58 0 95 -5 106 -13c4 -3 6 -7 6 -24c0 -12 -1 -24 -8 -25c-159 -24 -322 -47 -406 -47c-31 0 -42 3 -52 12c-12 11 -16 32 -16 50c0 48 27 257 31 531c-75 6 -89 43 -89 68c0 15 5 18 50 23c67 7 318 33 414 33
c27 0 51 -2 70 -13c20 -11 35 -32 35 -53c0 -8 -2 -7 -38 -9c-87 -6 -213 -28 -314 -41c-7 -71 -15 -182 -23 -282c70 5 161 12 211 12c48 0 90 -6 90 -48c0 -6 -1 -14 -13 -20c-17 -8 -46 -9 -109 -16c-73 -8 -119 -17 -186 -27zM393 764c-26 -3 -103 -4 -160 -4
c-92 0 -103 8 -103 28s8 45 31 45c12 0 72 -1 102 -1c61 0 109 0 132 -2c14 -1 19 -18 19 -32c0 -17 -8 -32 -21 -34z" />
    <glyph glyph-name="emacron" unicode="&#x113;" horiz-adv-x="369" 
d="M136 141c0 -80 10 -110 60 -110c47 0 114 30 155 61c38 28 63 64 75 64c7 0 22 -13 22 -29c0 -46 -128 -163 -230 -163c-51 0 -105 29 -134 53c-46 37 -55 81 -55 145c0 156 53 283 125 283c38 0 77 -19 106 -33c71 -34 107 -68 107 -119c0 -62 -54 -144 -231 -152z
M142 216c12 -8 23 -10 33 -10c45 0 102 51 102 111c0 35 -19 56 -41 56c-34 0 -79 -50 -94 -157zM314 491c-26 -3 -103 -4 -160 -4c-92 0 -103 8 -103 28s8 45 31 45c12 0 72 -1 102 -1c61 0 109 0 132 -2c14 -1 19 -18 19 -32c0 -17 -8 -32 -21 -34z" />
    <glyph glyph-name="Ebreve" unicode="&#x114;" horiz-adv-x="543" 
d="M162 203c-4 -68 -7 -118 -7 -125c0 0 150 14 248 14c58 0 95 -5 106 -13c4 -3 6 -7 6 -24c0 -12 -1 -24 -8 -25c-159 -24 -322 -47 -406 -47c-31 0 -42 3 -52 12c-12 11 -16 32 -16 50c0 48 27 257 31 531c-75 6 -89 43 -89 68c0 15 5 18 50 23c67 7 318 33 414 33
c27 0 51 -2 70 -13c20 -11 35 -32 35 -53c0 -8 -2 -7 -38 -9c-87 -6 -213 -28 -314 -41c-7 -71 -15 -182 -23 -282c70 5 161 12 211 12c48 0 90 -6 90 -48c0 -6 -1 -14 -13 -20c-17 -8 -46 -9 -109 -16c-73 -8 -119 -17 -186 -27zM397 885c13 -9 19 -27 19 -42
c0 -52 -68 -100 -141 -100c-92 0 -133 77 -133 106c0 15 10 33 35 33c12 -29 47 -71 99 -71c57 0 102 50 121 74z" />
    <glyph glyph-name="ebreve" unicode="&#x115;" horiz-adv-x="369" 
d="M136 141c0 -80 10 -110 60 -110c47 0 114 30 155 61c38 28 63 64 75 64c7 0 22 -13 22 -29c0 -46 -128 -163 -230 -163c-51 0 -105 29 -134 53c-46 37 -55 81 -55 145c0 156 53 283 125 283c38 0 77 -19 106 -33c71 -34 107 -68 107 -119c0 -62 -54 -144 -231 -152z
M142 216c12 -8 23 -10 33 -10c45 0 102 51 102 111c0 35 -19 56 -41 56c-34 0 -79 -50 -94 -157zM324 624c13 -9 19 -27 19 -42c0 -52 -68 -100 -141 -100c-92 0 -133 77 -133 106c0 15 10 33 35 33c12 -29 47 -71 99 -71c57 0 102 50 121 74z" />
    <glyph glyph-name="Edotaccent" unicode="&#x116;" horiz-adv-x="543" 
d="M162 203c-4 -68 -7 -118 -7 -125c0 0 150 14 248 14c58 0 95 -5 106 -13c4 -3 6 -7 6 -24c0 -12 -1 -24 -8 -25c-159 -24 -322 -47 -406 -47c-31 0 -42 3 -52 12c-12 11 -16 32 -16 50c0 48 27 257 31 531c-75 6 -89 43 -89 68c0 15 5 18 50 23c67 7 318 33 414 33
c27 0 51 -2 70 -13c20 -11 35 -32 35 -53c0 -8 -2 -7 -38 -9c-87 -6 -213 -28 -314 -41c-7 -71 -15 -182 -23 -282c70 5 161 12 211 12c48 0 90 -6 90 -48c0 -6 -1 -14 -13 -20c-17 -8 -46 -9 -109 -16c-73 -8 -119 -17 -186 -27zM283 735c-40 0 -75 31 -75 63
c0 31 27 61 76 61c44 0 60 -25 60 -53c0 -37 -26 -71 -61 -71z" />
    <glyph glyph-name="edotaccent" unicode="&#x117;" horiz-adv-x="369" 
d="M136 141c0 -80 10 -110 60 -110c47 0 114 30 155 61c38 28 63 64 75 64c7 0 22 -13 22 -29c0 -46 -128 -163 -230 -163c-51 0 -105 29 -134 53c-46 37 -55 81 -55 145c0 156 53 283 125 283c38 0 77 -19 106 -33c71 -34 107 -68 107 -119c0 -62 -54 -144 -231 -152z
M142 216c12 -8 23 -10 33 -10c45 0 102 51 102 111c0 35 -19 56 -41 56c-34 0 -79 -50 -94 -157zM201 482c-40 0 -75 31 -75 63c0 31 27 61 76 61c44 0 60 -25 60 -53c0 -37 -26 -71 -61 -71z" />
    <glyph glyph-name="Eogonek" unicode="&#x118;" horiz-adv-x="543" 
d="M408 15c-29 -42 -44 -77 -44 -106c0 -26 12 -36 35 -36c35 0 59 22 62 22c2 0 3 -3 3 -8c0 -28 -39 -83 -107 -83c-50 0 -73 30 -73 70c0 50 34 102 66 133c-102 -14 -193 -24 -249 -24c-31 0 -42 3 -52 12c-12 11 -16 32 -16 50c0 48 27 257 31 531c-75 6 -89 43 -89 68
c0 15 5 18 50 23c67 7 318 33 414 33c27 0 51 -2 70 -13c20 -11 35 -32 35 -53c0 -8 -2 -7 -38 -9c-87 -6 -213 -28 -314 -41c-7 -71 -15 -182 -23 -282c70 5 161 12 211 12c48 0 90 -6 90 -48c0 -6 -1 -14 -13 -20c-17 -8 -46 -9 -109 -16c-73 -8 -119 -17 -186 -27
c-4 -68 -7 -118 -7 -125c0 0 150 14 248 14c58 0 95 -5 106 -13c4 -3 6 -7 6 -24c0 -12 -1 -24 -8 -25c-33 -5 -66 -11 -99 -15z" />
    <glyph glyph-name="eogonek" unicode="&#x119;" horiz-adv-x="369" 
d="M136 141v-9c0 -68 10 -101 60 -101c47 0 114 30 155 61c38 28 63 64 75 64c7 0 22 -13 22 -29c0 -29 -50 -84 -111 -123c-30 -42 -45 -78 -45 -107c0 -26 12 -36 35 -36c35 0 59 22 62 22c2 0 3 -3 3 -8c0 -28 -39 -83 -107 -83c-50 0 -73 30 -73 70c0 38 19 76 43 107
c-13 -3 -25 -5 -37 -5c-51 0 -105 29 -134 53c-46 37 -55 81 -55 145c0 156 53 283 125 283c38 0 77 -19 106 -33c71 -34 107 -68 107 -119c0 -62 -54 -144 -231 -152zM142 216c12 -8 23 -10 33 -10c45 0 102 51 102 111c0 35 -19 56 -41 56c-34 0 -79 -50 -94 -157z" />
    <glyph glyph-name="Ecaron" unicode="&#x11a;" horiz-adv-x="543" 
d="M162 203c-4 -68 -7 -118 -7 -125c0 0 150 14 248 14c58 0 95 -5 106 -13c4 -3 6 -7 6 -24c0 -12 -1 -24 -8 -25c-159 -24 -322 -47 -406 -47c-31 0 -42 3 -52 12c-12 11 -16 32 -16 50c0 48 27 257 31 531c-75 6 -89 43 -89 68c0 15 5 18 50 23c67 7 318 33 414 33
c27 0 51 -2 70 -13c20 -11 35 -32 35 -53c0 -8 -2 -7 -38 -9c-87 -6 -213 -28 -314 -41c-7 -71 -15 -182 -23 -282c70 5 161 12 211 12c48 0 90 -6 90 -48c0 -6 -1 -14 -13 -20c-17 -8 -46 -9 -109 -16c-73 -8 -119 -17 -186 -27zM260 738c-20 10 -113 115 -129 137
c3 16 23 39 33 39c24 -15 63 -50 99 -88c52 45 88 78 104 91c21 -14 30 -27 30 -39c0 -9 -5 -17 -14 -26c-53 -53 -104 -103 -123 -114z" />
    <glyph glyph-name="ecaron" unicode="&#x11b;" horiz-adv-x="369" 
d="M136 141c0 -80 10 -110 60 -110c47 0 114 30 155 61c38 28 63 64 75 64c7 0 22 -13 22 -29c0 -46 -128 -163 -230 -163c-51 0 -105 29 -134 53c-46 37 -55 81 -55 145c0 156 53 283 125 283c38 0 77 -19 106 -33c71 -34 107 -68 107 -119c0 -62 -54 -144 -231 -152z
M142 216c12 -8 23 -10 33 -10c45 0 102 51 102 111c0 35 -19 56 -41 56c-34 0 -79 -50 -94 -157zM206 479c-20 10 -113 115 -129 137c3 16 23 39 33 39c24 -15 63 -50 99 -88c52 45 88 78 104 91c21 -14 30 -27 30 -39c0 -9 -5 -17 -14 -26c-53 -53 -104 -103 -123 -114z
" />
    <glyph glyph-name="Gcircumflex" unicode="&#x11c;" horiz-adv-x="662" 
d="M496 188c-48 0 -99 -1 -173 -1c-25 0 -52 39 -52 62c0 11 6 8 27 9c37 2 134 13 238 13c52 0 74 -3 77 -28c13 -12 18 -29 18 -40c0 -55 -116 -241 -300 -241c-87 0 -178 42 -241 99c-56 51 -88 113 -88 206c0 70 18 187 81 307c43 82 82 141 192 141
c62 0 167 -19 230 -83c19 -10 34 -23 45 -42c26 -45 31 -124 31 -161c0 -54 0 -58 -32 -58c-51 0 -64 10 -73 50c-5 22 -2 31 -16 95c-23 111 -41 128 -102 128c-67 0 -119 -20 -166 -116c-46 -94 -75 -230 -75 -316c0 -69 19 -106 50 -130c40 -31 98 -39 126 -39
c76 0 165 60 203 145zM407 765c-24 15 -66 46 -106 79c-52 -45 -80 -69 -97 -82c-21 14 -29 27 -29 39c0 9 4 17 14 26c39 38 101 103 122 114c21 -10 113 -115 129 -137c-3 -16 -23 -39 -33 -39z" />
    <glyph glyph-name="gcircumflex" unicode="&#x11d;" horiz-adv-x="443" 
d="M311 357l2 37c1 9 11 17 34 17c27 0 57 -10 57 -40c0 -56 -4 -82 -13 -474c-2 -91 -5 -210 -120 -210c-82 0 -229 74 -229 108c0 11 17 15 29 15c45 0 86 -53 145 -53c35 0 51 18 61 96c3 23 7 77 16 226c-36 -68 -82 -104 -131 -104c-35 0 -84 18 -112 45
s-41 65 -41 125c0 102 38 288 168 288c61 0 108 -42 134 -76zM292 255c-19 60 -37 96 -71 96c-58 0 -102 -100 -102 -220c0 -63 12 -94 30 -94c35 0 117 120 143 218zM308 476c-24 15 -66 46 -106 79c-52 -45 -80 -69 -97 -82c-21 14 -29 27 -29 39c0 9 4 17 14 26
c39 38 101 103 122 114c21 -10 113 -115 129 -137c-3 -16 -23 -39 -33 -39z" />
    <glyph glyph-name="Gbreve" unicode="&#x11e;" horiz-adv-x="662" 
d="M496 188c-48 0 -99 -1 -173 -1c-25 0 -52 39 -52 62c0 11 6 8 27 9c37 2 134 13 238 13c52 0 74 -3 77 -28c13 -12 18 -29 18 -40c0 -55 -116 -241 -300 -241c-87 0 -178 42 -241 99c-56 51 -88 113 -88 206c0 70 18 187 81 307c43 82 82 141 192 141
c62 0 167 -19 230 -83c19 -10 34 -23 45 -42c26 -45 31 -124 31 -161c0 -54 0 -58 -32 -58c-51 0 -64 10 -73 50c-5 22 -2 31 -16 95c-23 111 -41 128 -102 128c-67 0 -119 -20 -166 -116c-46 -94 -75 -230 -75 -316c0 -69 19 -106 50 -130c40 -31 98 -39 126 -39
c76 0 165 60 203 145zM458 911c13 -9 19 -27 19 -42c0 -52 -68 -100 -141 -100c-92 0 -133 77 -133 106c0 15 10 33 35 33c12 -29 47 -71 99 -71c57 0 102 50 121 74z" />
    <glyph glyph-name="gbreve" unicode="&#x11f;" horiz-adv-x="443" 
d="M311 357l2 37c1 9 11 17 34 17c27 0 57 -10 57 -40c0 -56 -4 -82 -13 -474c-2 -91 -5 -210 -120 -210c-82 0 -229 74 -229 108c0 11 17 15 29 15c45 0 86 -53 145 -53c35 0 51 18 61 96c3 23 7 77 16 226c-36 -68 -82 -104 -131 -104c-35 0 -84 18 -112 45
s-41 65 -41 125c0 102 38 288 168 288c61 0 108 -42 134 -76zM292 255c-19 60 -37 96 -71 96c-58 0 -102 -100 -102 -220c0 -63 12 -94 30 -94c35 0 117 120 143 218zM330 630c13 -9 19 -27 19 -42c0 -52 -68 -100 -141 -100c-92 0 -133 77 -133 106c0 15 10 33 35 33
c12 -29 47 -71 99 -71c57 0 102 50 121 74z" />
    <glyph glyph-name="Gdotaccent" unicode="&#x120;" horiz-adv-x="662" 
d="M496 188c-48 0 -99 -1 -173 -1c-25 0 -52 39 -52 62c0 11 6 8 27 9c37 2 134 13 238 13c52 0 74 -3 77 -28c13 -12 18 -29 18 -40c0 -55 -116 -241 -300 -241c-87 0 -178 42 -241 99c-56 51 -88 113 -88 206c0 70 18 187 81 307c43 82 82 141 192 141
c62 0 167 -19 230 -83c19 -10 34 -23 45 -42c26 -45 31 -124 31 -161c0 -54 0 -58 -32 -58c-51 0 -64 10 -73 50c-5 22 -2 31 -16 95c-23 111 -41 128 -102 128c-67 0 -119 -20 -166 -116c-46 -94 -75 -230 -75 -316c0 -69 19 -106 50 -130c40 -31 98 -39 126 -39
c76 0 165 60 203 145zM357 764c-40 0 -75 31 -75 63c0 31 27 61 76 61c44 0 60 -25 60 -53c0 -37 -26 -71 -61 -71z" />
    <glyph glyph-name="gdotaccent" unicode="&#x121;" horiz-adv-x="443" 
d="M311 357l2 37c1 9 11 17 34 17c27 0 57 -10 57 -40c0 -56 -4 -82 -13 -474c-2 -91 -5 -210 -120 -210c-82 0 -229 74 -229 108c0 11 17 15 29 15c45 0 86 -53 145 -53c35 0 51 18 61 96c3 23 7 77 16 226c-36 -68 -82 -104 -131 -104c-35 0 -84 18 -112 45
s-41 65 -41 125c0 102 38 288 168 288c61 0 108 -42 134 -76zM292 255c-19 60 -37 96 -71 96c-58 0 -102 -100 -102 -220c0 -63 12 -94 30 -94c35 0 117 120 143 218zM224 481c-40 0 -75 31 -75 63c0 31 27 61 76 61c44 0 60 -25 60 -53c0 -37 -26 -71 -61 -71z" />
    <glyph glyph-name="Gcommaaccent" unicode="&#x122;" horiz-adv-x="662" 
d="M496 188c-48 0 -99 -1 -173 -1c-25 0 -52 39 -52 62c0 11 6 8 27 9c37 2 134 13 238 13c52 0 74 -3 77 -28c13 -12 18 -29 18 -40c0 -55 -116 -241 -300 -241c-87 0 -178 42 -241 99c-56 51 -88 113 -88 206c0 70 18 187 81 307c43 82 82 141 192 141
c62 0 167 -19 230 -83c19 -10 34 -23 45 -42c26 -45 31 -124 31 -161c0 -54 0 -58 -32 -58c-51 0 -64 10 -73 50c-5 22 -2 31 -16 95c-23 111 -41 128 -102 128c-67 0 -119 -20 -166 -116c-46 -94 -75 -230 -75 -316c0 -69 19 -106 50 -130c40 -31 98 -39 126 -39
c76 0 165 60 203 145zM296 -101c-2 4 -6 7 -6 13s9 9 46 9c42 0 53 -18 53 -32c0 -6 -14 -36 -37 -82c-17 -32 -34 -65 -49 -65c-23 0 -61 20 -61 32c0 16 27 48 54 125z" />
    <glyph glyph-name="gcommaaccent" unicode="&#x123;" horiz-adv-x="443" 
d="M311 357l2 37c1 9 11 17 34 17c27 0 57 -10 57 -40c0 -56 -4 -82 -13 -474c-2 -91 -5 -210 -120 -210c-82 0 -229 74 -229 108c0 11 17 15 29 15c45 0 86 -53 145 -53c35 0 51 18 61 96c3 23 7 77 16 226c-36 -68 -82 -104 -131 -104c-35 0 -84 18 -112 45
s-41 65 -41 125c0 102 38 288 168 288c61 0 108 -42 134 -76zM292 255c-19 60 -37 96 -71 96c-58 0 -102 -100 -102 -220c0 -63 12 -94 30 -94c35 0 117 120 143 218zM240 518c2 -4 6 -7 6 -13s-9 -9 -46 -9c-42 0 -53 18 -53 32c0 6 14 36 37 82c17 32 34 65 49 65
c23 0 61 -20 61 -32c0 -16 -27 -48 -54 -125z" />
    <glyph glyph-name="Hcircumflex" unicode="&#x124;" horiz-adv-x="677" 
d="M196 209l-5 -200c0 -20 -22 -28 -56 -28c-35 0 -49 8 -49 70c0 20 1 85 4 157c-67 1 -128 9 -128 45c0 17 14 17 21 17c8 0 49 5 109 12c6 152 13 329 17 373c2 29 8 42 72 42c35 0 47 -4 47 -15c0 -8 -8 -55 -16 -165c-5 -68 -9 -146 -12 -223c91 10 197 20 287 24
c7 152 18 314 24 348c-1 3 -3 5 -3 12c0 25 51 27 68 27c23 0 61 -10 61 -37c0 -12 -16 -19 -24 -103c-5 -47 -10 -147 -15 -246c31 -1 53 -4 67 -9c19 -7 28 -20 28 -34c0 -24 -24 -25 -56 -26c-11 -1 -25 -1 -42 -3c-3 -79 -5 -147 -5 -170c0 -46 9 -58 9 -70
c0 -22 -31 -27 -60 -27c-59 0 -59 21 -59 98c0 37 1 93 4 155c-79 -9 -179 -21 -288 -24zM462 742c-24 15 -66 46 -106 79c-52 -45 -80 -69 -97 -82c-21 14 -29 27 -29 39c0 9 4 17 14 26c39 38 101 103 122 114c21 -10 113 -115 129 -137c-3 -16 -23 -39 -33 -39z" />
    <glyph glyph-name="hcircumflex" unicode="&#x125;" horiz-adv-x="470" 
d="M148 276c18 55 52 99 124 99c47 0 89 -23 111 -74c17 -39 17 -71 17 -160c0 -58 0 -90 35 -90c32 0 74 81 92 81c6 0 33 -12 33 -21c0 -5 -16 -29 -38 -56s-47 -55 -83 -55s-82 16 -105 43c-27 30 -34 75 -34 132c0 106 -6 121 -32 121c-56 0 -129 -229 -129 -301
c0 -16 -16 -28 -41 -28c-38 0 -61 9 -61 47c0 255 33 570 33 676c0 45 -5 60 -5 76c0 9 14 19 46 19c57 0 73 -14 73 -28c0 -5 -7 -17 -7 -17c-7 -92 -28 -396 -29 -464zM220 809c-24 15 -66 46 -106 79c-52 -45 -80 -69 -97 -82c-21 14 -29 27 -29 39c0 9 4 17 14 26
c39 38 101 103 122 114c21 -10 113 -115 129 -137c-3 -16 -23 -39 -33 -39z" />
    <glyph glyph-name="Hbar" unicode="&#x126;" horiz-adv-x="677" 
d="M196 209l-5 -200c0 -20 -22 -28 -56 -28c-35 0 -49 8 -49 70c0 20 1 85 4 157c-67 1 -128 9 -128 45c0 17 14 17 21 17c8 0 49 5 109 12l7 184c-91 0 -102 8 -102 28s8 50 31 50h75c2 52 4 93 6 111c2 29 8 42 72 42c35 0 47 -4 47 -15c0 -8 -7 -48 -14 -139h286
c4 60 8 106 11 123c-1 3 -3 5 -3 12c0 25 51 27 68 27c23 0 61 -10 61 -37c0 -12 -16 -19 -24 -103c-1 -7 -2 -14 -2 -22c28 0 51 -1 64 -2c14 -1 19 -23 19 -37c0 -17 -8 -32 -21 -34c-6 -1 -31 -2 -67 -2c-3 -45 -5 -97 -8 -149c31 -1 53 -4 67 -9c19 -7 28 -20 28 -34
c0 -24 -24 -25 -56 -26c-11 -1 -25 -1 -42 -3c-3 -79 -5 -147 -5 -170c0 -46 9 -58 9 -70c0 -22 -31 -27 -60 -27c-59 0 -59 21 -59 98c0 37 1 93 4 155c-79 -9 -179 -21 -288 -24zM487 318l8 149c-95 -1 -199 -1 -287 -1c-3 -55 -6 -114 -8 -172c91 10 197 20 287 24z" />
    <glyph glyph-name="hbar" unicode="&#x127;" horiz-adv-x="470" 
d="M177 740l-9 -117c61 0 109 0 132 -2c14 -1 19 -18 19 -32c0 -17 -8 -32 -21 -34c-19 -2 -64 -4 -135 -4c-7 -113 -15 -235 -15 -275c18 55 52 99 124 99c47 0 89 -23 111 -74c17 -39 17 -71 17 -160c0 -58 0 -90 35 -90c32 0 74 81 92 81c6 0 33 -12 33 -21
c0 -5 -16 -29 -38 -56s-47 -55 -83 -55s-82 16 -105 43c-27 30 -34 75 -34 132c0 106 -6 121 -32 121c-56 0 -129 -229 -129 -301c0 -16 -16 -28 -41 -28c-38 0 -61 9 -61 47c0 181 17 391 26 537c-87 0 -98 8 -98 28s8 45 31 45c5 0 37 -1 72 -1c1 27 2 50 2 67
c0 45 -5 60 -5 76c0 9 14 19 46 19c57 0 73 -14 73 -28c0 -5 -7 -17 -7 -17z" />
    <glyph glyph-name="Igrave" unicode="&#xcc;" horiz-adv-x="325" 
d="M120 51c4 85 7 240 7 341c0 96 -3 170 -8 222c-20 1 -37 2 -46 5c-16 5 -40 33 -40 50c0 18 110 41 170 41c102 0 147 -34 147 -60c0 -21 -34 -32 -101 -36c-11 -89 -14 -242 -14 -339c0 -85 2 -174 5 -223c47 -5 79 -17 79 -41c0 -27 -42 -37 -159 -37
c-52 0 -133 2 -133 32c0 18 30 37 93 45zM210 753c-39 22 -116 109 -128 131c1 12 25 63 60 63c33 -47 77 -117 96 -150c0 -10 -15 -44 -28 -44z" />
    <glyph glyph-name="igrave" unicode="&#xec;" 
d="M314 83c0 -10 -46 -98 -156 -98c-100 0 -125 73 -125 147c0 45 9 181 23 214c4 10 15 27 62 27c26 0 44 -5 44 -19c0 -15 -22 -68 -22 -226c0 -58 3 -81 24 -81c31 0 121 53 134 53c7 0 16 -12 16 -17zM156 439c-39 22 -116 109 -128 131c1 12 25 63 60 63
c33 -47 77 -117 96 -150c0 -10 -15 -44 -28 -44z" />
    <glyph glyph-name="Iacute" unicode="&#xcd;" horiz-adv-x="325" 
d="M120 51c4 85 7 240 7 341c0 96 -3 170 -8 222c-20 1 -37 2 -46 5c-16 5 -40 33 -40 50c0 18 110 41 170 41c102 0 147 -34 147 -60c0 -21 -34 -32 -101 -36c-11 -89 -14 -242 -14 -339c0 -85 2 -174 5 -223c47 -5 79 -17 79 -41c0 -27 -42 -37 -159 -37
c-52 0 -133 2 -133 32c0 18 30 37 93 45zM312 884c-21 -22 -108 -112 -147 -134c-13 0 -28 34 -28 44c22 33 80 116 115 153c35 0 59 -51 60 -63z" />
    <glyph glyph-name="iacute" unicode="&#xed;" 
d="M314 83c0 -10 -46 -98 -156 -98c-100 0 -125 73 -125 147c0 45 9 181 23 214c4 10 15 27 62 27c26 0 44 -5 44 -19c0 -15 -22 -68 -22 -226c0 -58 3 -81 24 -81c31 0 121 53 134 53c7 0 16 -12 16 -17zM231 574c-21 -22 -108 -112 -147 -134c-13 0 -28 34 -28 44
c22 33 80 116 115 153c35 0 59 -51 60 -63z" />
    <glyph glyph-name="Icircumflex" unicode="&#xce;" horiz-adv-x="325" 
d="M120 51c4 85 7 240 7 341c0 96 -3 170 -8 222c-20 1 -37 2 -46 5c-16 5 -40 33 -40 50c0 18 110 41 170 41c102 0 147 -34 147 -60c0 -21 -34 -32 -101 -36c-11 -89 -14 -242 -14 -339c0 -85 2 -174 5 -223c47 -5 79 -17 79 -41c0 -27 -42 -37 -159 -37
c-52 0 -133 2 -133 32c0 18 30 37 93 45zM284 753c-24 15 -66 46 -106 79c-52 -45 -80 -69 -97 -82c-21 14 -29 27 -29 39c0 9 4 17 14 26c39 38 101 103 122 114c21 -10 113 -115 129 -137c-3 -16 -23 -39 -33 -39z" />
    <glyph glyph-name="icircumflex" unicode="&#xee;" 
d="M314 83c0 -10 -46 -98 -156 -98c-100 0 -125 73 -125 147c0 45 9 181 23 214c4 10 15 27 62 27c26 0 44 -5 44 -19c0 -15 -22 -68 -22 -226c0 -58 3 -81 24 -81c31 0 121 53 134 53c7 0 16 -12 16 -17zM209 397c-24 15 -66 46 -106 79c-52 -45 -80 -69 -97 -82
c-21 14 -29 27 -29 39c0 9 4 17 14 26c39 38 101 103 122 114c21 -10 113 -115 129 -137c-3 -16 -23 -39 -33 -39z" />
    <glyph glyph-name="Idieresis" unicode="&#xcf;" horiz-adv-x="325" 
d="M120 51c4 85 7 240 7 341c0 96 -3 170 -8 222c-20 1 -37 2 -46 5c-16 5 -40 33 -40 50c0 18 110 41 170 41c102 0 147 -34 147 -60c0 -21 -34 -32 -101 -36c-11 -89 -14 -242 -14 -339c0 -85 2 -174 5 -223c47 -5 79 -17 79 -41c0 -27 -42 -37 -159 -37
c-52 0 -133 2 -133 32c0 18 30 37 93 45zM109 754c-30 0 -55 22 -55 47c0 27 21 55 66 55c32 0 46 -17 46 -37c0 -32 -26 -65 -57 -65zM269 754c-30 0 -55 22 -55 47c0 27 21 55 66 55c32 0 46 -17 46 -37c0 -32 -26 -65 -57 -65z" />
    <glyph glyph-name="idieresis" unicode="&#xef;" 
d="M314 83c0 -10 -46 -98 -156 -98c-100 0 -125 73 -125 147c0 45 9 181 23 214c4 10 15 27 62 27c26 0 44 -5 44 -19c0 -15 -22 -68 -22 -226c0 -58 3 -81 24 -81c31 0 121 53 134 53c7 0 16 -12 16 -17zM34 444c-30 0 -55 22 -55 47c0 27 21 55 66 55c32 0 46 -17 46 -37
c0 -32 -26 -65 -57 -65zM194 444c-30 0 -55 22 -55 47c0 27 21 55 66 55c32 0 46 -17 46 -37c0 -32 -26 -65 -57 -65z" />
    <glyph glyph-name="Itilde" unicode="&#x128;" horiz-adv-x="325" 
d="M120 51c4 85 7 240 7 341c0 96 -3 170 -8 222c-20 1 -37 2 -46 5c-16 5 -40 33 -40 50c0 18 110 41 170 41c102 0 147 -34 147 -60c0 -21 -34 -32 -101 -36c-11 -89 -14 -242 -14 -339c0 -85 2 -174 5 -223c47 -5 79 -17 79 -41c0 -27 -42 -37 -159 -37
c-52 0 -133 2 -133 32c0 18 30 37 93 45zM299 845c7 -8 9 -21 9 -29c0 -25 -16 -59 -65 -59c-50 0 -76 34 -120 34c-39 0 -49 -22 -58 -27c-7 5 -10 15 -10 25c0 27 24 63 69 63c43 0 74 -33 124 -33c44 0 43 20 51 26z" />
    <glyph glyph-name="itilde" unicode="&#x129;" 
d="M314 83c0 -10 -46 -98 -156 -98c-100 0 -125 73 -125 147c0 45 9 181 23 214c4 10 15 27 62 27c26 0 44 -5 44 -19c0 -15 -22 -68 -22 -226c0 -58 3 -81 24 -81c31 0 121 53 134 53c7 0 16 -12 16 -17zM228 505c7 -8 9 -21 9 -29c0 -25 -16 -59 -65 -59
c-50 0 -76 34 -120 34c-39 0 -49 -22 -58 -27c-7 5 -10 15 -10 25c0 27 24 63 69 63c43 0 74 -33 124 -33c44 0 43 20 51 26z" />
    <glyph glyph-name="Imacron" unicode="&#x12a;" horiz-adv-x="325" 
d="M120 51c4 85 7 240 7 341c0 96 -3 170 -8 222c-20 1 -37 2 -46 5c-16 5 -40 33 -40 50c0 18 110 41 170 41c102 0 147 -34 147 -60c0 -21 -34 -32 -101 -36c-11 -89 -14 -242 -14 -339c0 -85 2 -174 5 -223c47 -5 79 -17 79 -41c0 -27 -42 -37 -159 -37
c-52 0 -133 2 -133 32c0 18 30 37 93 45zM309 768c-26 -3 -103 -4 -160 -4c-92 0 -103 8 -103 28s8 45 31 45c12 0 72 -1 102 -1c61 0 109 0 132 -2c14 -1 19 -18 19 -32c0 -17 -8 -32 -21 -34z" />
    <glyph glyph-name="imacron" unicode="&#x12b;" 
d="M314 83c0 -10 -46 -98 -156 -98c-100 0 -125 73 -125 147c0 45 9 181 23 214c4 10 15 27 62 27c26 0 44 -5 44 -19c0 -15 -22 -68 -22 -226c0 -58 3 -81 24 -81c31 0 121 53 134 53c7 0 16 -12 16 -17zM234 456c-26 -3 -103 -4 -160 -4c-92 0 -103 8 -103 28s8 45 31 45
c12 0 72 -1 102 -1c61 0 109 0 132 -2c14 -1 19 -18 19 -32c0 -17 -8 -32 -21 -34z" />
    <glyph glyph-name="Ibreve" unicode="&#x12c;" horiz-adv-x="325" 
d="M120 51c4 85 7 240 7 341c0 96 -3 170 -8 222c-20 1 -37 2 -46 5c-16 5 -40 33 -40 50c0 18 110 41 170 41c102 0 147 -34 147 -60c0 -21 -34 -32 -101 -36c-11 -89 -14 -242 -14 -339c0 -85 2 -174 5 -223c47 -5 79 -17 79 -41c0 -27 -42 -37 -159 -37
c-52 0 -133 2 -133 32c0 18 30 37 93 45zM304 900c13 -9 19 -27 19 -42c0 -52 -68 -100 -141 -100c-92 0 -133 77 -133 106c0 15 10 33 35 33c12 -29 47 -71 99 -71c57 0 102 50 121 74z" />
    <glyph glyph-name="ibreve" unicode="&#x12d;" 
d="M314 83c0 -10 -46 -98 -156 -98c-100 0 -125 73 -125 147c0 45 9 181 23 214c4 10 15 27 62 27c26 0 44 -5 44 -19c0 -15 -22 -68 -22 -226c0 -58 3 -81 24 -81c31 0 121 53 134 53c7 0 16 -12 16 -17zM226 563c13 -9 19 -27 19 -42c0 -52 -68 -100 -141 -100
c-92 0 -133 77 -133 106c0 15 10 33 35 33c12 -29 47 -71 99 -71c57 0 102 50 121 74z" />
    <glyph glyph-name="Iogonek" unicode="&#x12e;" horiz-adv-x="325" 
d="M216 -25c-23 -35 -34 -66 -34 -91c0 -26 12 -36 35 -36c35 0 59 22 62 22c2 0 3 -3 3 -8c0 -28 -39 -83 -107 -83c-50 0 -73 30 -73 70c0 46 29 93 59 125c-53 0 -134 2 -134 32c0 18 30 37 93 45c4 85 7 240 7 341c0 96 -3 170 -8 222c-20 1 -37 2 -46 5
c-16 5 -40 33 -40 50c0 18 110 41 170 41c102 0 147 -34 147 -60c0 -21 -34 -32 -101 -36c-11 -89 -14 -242 -14 -339c0 -85 2 -174 5 -223c47 -5 79 -17 79 -41c0 -22 -29 -33 -103 -36z" />
    <glyph glyph-name="iogonek" unicode="&#x12f;" 
d="M206 -9c-28 -40 -42 -75 -42 -103c0 -26 12 -36 35 -36c35 0 59 22 62 22c2 0 3 -3 3 -8c0 -28 -39 -83 -107 -83c-50 0 -73 30 -73 70c0 49 33 100 65 132c-93 4 -116 75 -116 147c0 45 9 181 23 214c4 10 15 27 62 27c26 0 44 -5 44 -19c0 -15 -22 -68 -22 -226
c0 -58 3 -81 24 -81c31 0 121 53 134 53c7 0 16 -12 16 -17c0 -9 -33 -72 -108 -92zM204 528c0 -34 -37 -70 -86 -70c-51 0 -68 40 -68 65c0 52 75 81 105 81c29 0 39 -29 39 -55c0 0 10 -3 10 -21z" />
    <glyph glyph-name="Idotaccent" unicode="&#x130;" horiz-adv-x="325" 
d="M120 51c4 85 7 240 7 341c0 96 -3 170 -8 222c-20 1 -37 2 -46 5c-16 5 -40 33 -40 50c0 18 110 41 170 41c102 0 147 -34 147 -60c0 -21 -34 -32 -101 -36c-11 -89 -14 -242 -14 -339c0 -85 2 -174 5 -223c47 -5 79 -17 79 -41c0 -27 -42 -37 -159 -37
c-52 0 -133 2 -133 32c0 18 30 37 93 45zM199 755c-40 0 -75 31 -75 63c0 31 27 61 76 61c44 0 60 -25 60 -53c0 -37 -26 -71 -61 -71z" />
    <glyph glyph-name="dotlessi" unicode="&#x131;" 
d="M314 83c0 -10 -46 -98 -156 -98c-100 0 -125 73 -125 147c0 45 9 181 23 214c4 10 15 27 62 27c26 0 44 -5 44 -19c0 -15 -22 -68 -22 -226c0 -58 3 -81 24 -81c31 0 121 53 134 53c7 0 16 -12 16 -17z" />
    <glyph glyph-name="IJ" unicode="&#x132;" horiz-adv-x="650" 
d="M595 615c-21 -372 -9 -558 -60 -666c-48 -102 -142 -110 -212 -110c-35 0 -57 2 -73 10s-22 22 -22 35c0 31 32 50 75 50c38 0 48 -15 64 -15c18 0 50 19 68 56c22 44 24 116 26 261c1 72 3 259 3 304c0 16 0 38 -1 59c-65 6 -85 32 -85 50c0 34 112 54 211 54
c66 0 119 -9 119 -40c0 -28 -40 -36 -113 -48zM249 614c-11 -89 -14 -242 -14 -339c0 -85 2 -174 5 -223c47 -5 79 -17 79 -41c0 -27 -42 -37 -159 -37c-52 0 -133 2 -133 32c0 18 30 37 93 45c4 85 7 240 7 341c0 96 -3 170 -8 222c-20 1 -37 2 -46 5c-16 5 -40 33 -40 50
c0 18 110 41 170 41c102 0 147 -34 147 -60c0 -21 -34 -32 -101 -36z" />
    <glyph glyph-name="ij" unicode="&#x133;" horiz-adv-x="388" 
d="M240 4c-22 -11 -49 -19 -82 -19c-100 0 -125 73 -125 147c0 45 9 181 23 214c4 10 15 27 62 27c26 0 44 -5 44 -19c0 -15 -22 -68 -22 -226c0 -58 3 -81 24 -81c16 0 49 14 78 28c4 142 10 226 10 293c0 0 -6 17 -6 26c0 21 34 29 57 29c40 0 70 -23 70 -39
c0 -7 -7 -10 -7 -10c-11 -60 -16 -314 -17 -348c0 -20 -2 -184 -7 -232c-6 -60 -32 -93 -115 -93c-41 0 -72 8 -100 23c-41 22 -67 55 -67 68c0 10 13 26 28 26c23 0 39 -39 102 -39c14 0 33 2 42 21c6 13 7 41 7 92c0 41 1 78 1 112zM390 578c0 -57 -55 -77 -81 -77
c-32 0 -71 31 -71 65c0 65 67 88 97 88c48 0 55 -56 55 -76zM204 528c0 -34 -37 -70 -86 -70c-51 0 -68 40 -68 65c0 52 75 81 105 81c29 0 39 -29 39 -55c0 0 10 -3 10 -21z" />
    <glyph glyph-name="Jcircumflex" unicode="&#x134;" horiz-adv-x="295" 
d="M240 615c-22 -344 -9 -528 -60 -636c-48 -102 -142 -110 -212 -110c-35 0 -57 2 -73 10s-22 22 -22 35c0 31 32 50 75 50c38 0 48 -15 64 -15c18 0 50 19 68 56c22 44 24 116 26 261c1 72 3 229 3 274c0 16 0 38 -1 59c-65 6 -95 32 -95 50c0 34 122 54 221 54
c66 0 119 -9 119 -40c0 -28 -40 -36 -113 -48zM269 744c-24 15 -66 46 -106 79c-52 -45 -80 -69 -97 -82c-21 14 -29 27 -29 39c0 9 4 17 14 26c39 38 101 103 122 114c21 -10 113 -115 129 -137c-3 -16 -23 -39 -33 -39z" />
    <glyph glyph-name="jcircumflex" unicode="&#x135;" horiz-adv-x="176" 
d="M40 368c0 0 -6 17 -6 26c0 21 34 29 57 29c40 0 70 -23 70 -39c0 -7 -7 -10 -7 -10c-11 -60 -16 -314 -17 -348c0 -20 -2 -184 -7 -232c-6 -60 -32 -93 -115 -93c-41 0 -72 8 -100 23c-41 22 -67 55 -67 68c0 10 13 26 28 26c23 0 39 -39 102 -39c14 0 33 2 42 21
c6 13 7 41 7 92c2 262 13 385 13 476zM193 468c-24 15 -66 46 -106 79c-52 -45 -80 -69 -97 -82c-21 14 -29 27 -29 39c0 9 4 17 14 26c39 38 101 103 122 114c21 -10 113 -115 129 -137c-3 -16 -23 -39 -33 -39z" />
    <glyph glyph-name="dotlessj" unicode="&#x237;" horiz-adv-x="176" 
d="M40 368c0 0 -6 17 -6 26c0 21 34 29 57 29c40 0 70 -23 70 -39c0 -7 -7 -10 -7 -10c-11 -60 -16 -314 -17 -348c0 -20 -2 -184 -7 -232c-6 -60 -32 -93 -115 -93c-41 0 -72 8 -100 23c-41 22 -67 55 -67 68c0 10 13 26 28 26c23 0 39 -39 102 -39c14 0 33 2 42 21
c6 13 7 41 7 92c2 262 13 385 13 476z" />
    <glyph glyph-name="Kcommaaccent" unicode="&#x136;" horiz-adv-x="527" 
d="M165 291c-3 -64 -4 -125 -4 -170c0 -27 0 -65 1 -83c0 0 8 -10 8 -21c0 -19 -26 -32 -79 -32c-41 0 -52 8 -52 18c0 6 5 11 5 11c0 180 7 335 22 651c1 28 8 48 64 48c51 0 67 -17 67 -23c0 -5 -10 -19 -21 -192c-3 -39 -6 -82 -8 -126c84 86 331 329 373 329
c14 0 56 -26 56 -37c0 -9 -22 -26 -59 -59c-42 -38 -168 -155 -269 -257c119 -232 146 -265 206 -265c55 0 73 27 97 27c16 0 27 -13 27 -25c0 -27 -62 -89 -142 -89c-69 0 -125 47 -183 123c-45 58 -85 126 -109 172zM256 -60c-2 4 -6 7 -6 13s9 9 46 9c42 0 53 -18 53 -32
c0 -6 -14 -36 -37 -82c-17 -32 -34 -65 -49 -65c-23 0 -61 20 -61 32c0 16 27 48 54 125z" />
    <glyph glyph-name="kcommaaccent" unicode="&#x137;" horiz-adv-x="414" 
d="M134 146v-62c0 -43 2 -49 2 -58c0 -21 -10 -31 -54 -31c-46 0 -53 11 -53 47c0 78 32 523 32 663c0 34 -2 43 -2 48c0 25 51 31 78 31c39 0 55 -12 55 -27c0 -13 -13 -9 -20 -57c-7 -49 -20 -216 -29 -373c21 62 53 124 119 124c68 0 138 -67 138 -141
c0 -53 -36 -115 -114 -147c7 -48 25 -90 64 -90c53 0 134 82 151 82c7 0 15 -13 15 -17c0 -6 -17 -37 -40 -61c-30 -32 -77 -64 -140 -64c-74 0 -139 43 -155 128c-16 0 -31 1 -47 5zM156 225c23 -15 47 -20 62 -20c62 0 80 101 80 133c0 24 -10 44 -24 44
c-28 0 -84 -73 -118 -157zM191 -63c-2 4 -6 7 -6 13s9 9 46 9c42 0 53 -18 53 -32c0 -6 -14 -36 -37 -82c-17 -32 -34 -65 -49 -65c-23 0 -61 20 -61 32c0 16 27 48 54 125z" />
    <glyph glyph-name="kgreenlandic" unicode="&#x138;" horiz-adv-x="416" 
d="M136 146v-62c0 -43 2 -49 2 -58c0 -21 -10 -31 -54 -31c-46 0 -53 11 -53 47c0 88 11 178 11 269c0 26 -1 53 -3 79c-5 48 -10 44 -10 57c0 15 16 27 55 27c27 0 68 -6 68 -31c0 -21 -4 -63 -7 -114c22 61 54 122 119 122c68 0 138 -67 138 -141
c0 -53 -36 -115 -114 -147c7 -48 25 -90 64 -90c53 0 134 82 151 82c7 0 15 -13 15 -17c0 -6 -17 -37 -40 -61c-30 -32 -77 -64 -140 -64c-74 0 -139 43 -155 128c-16 0 -31 1 -47 5zM158 225c23 -15 47 -20 62 -20c62 0 80 101 80 133c0 24 -10 44 -24 44
c-28 0 -84 -73 -118 -157z" />
    <glyph glyph-name="Lacute" unicode="&#x139;" horiz-adv-x="472" 
d="M185 89c0 0 85 4 179 4c81 0 120 -3 120 -52c0 -22 -8 -25 -29 -27c-109 -8 -386 -28 -396 -28c-11 0 -21 20 -21 36s10 27 25 39c6 315 25 502 25 593c-4 11 -6 18 -6 23c0 22 48 30 80 30c43 0 67 -15 67 -28c0 -3 -2 -6 -5 -10c-5 -37 -39 -188 -39 -580zM274 879
c-21 -22 -108 -112 -147 -134c-13 0 -28 34 -28 44c22 33 80 116 115 153c35 0 59 -51 60 -63z" />
    <glyph glyph-name="lacute" unicode="&#x13a;" horiz-adv-x="221" 
d="M320 78c0 -18 -53 -95 -135 -95c-37 0 -114 30 -130 66c-18 40 -21 92 -21 141c0 249 34 476 34 526c0 21 -8 31 -8 42c0 17 19 32 62 32c29 0 72 -7 72 -32c0 -12 -10 -19 -21 -80c-20 -107 -29 -416 -29 -491c0 -125 13 -146 32 -146c30 0 110 57 129 57
c9 0 15 -14 15 -20zM263 964c-21 -22 -108 -112 -147 -134c-13 0 -28 34 -28 44c22 33 80 116 115 153c35 0 59 -51 60 -63z" />
    <glyph glyph-name="Lcommaaccent" unicode="&#x13b;" horiz-adv-x="472" 
d="M185 89c0 0 85 4 179 4c81 0 120 -3 120 -52c0 -22 -8 -25 -29 -27c-109 -8 -386 -28 -396 -28c-11 0 -21 20 -21 36s10 27 25 39c6 315 25 502 25 593c-4 11 -6 18 -6 23c0 22 48 30 80 30c43 0 67 -15 67 -28c0 -3 -2 -6 -5 -10c-5 -37 -39 -188 -39 -580zM242 -77
c-2 4 -6 7 -6 13s9 9 46 9c42 0 53 -18 53 -32c0 -6 -14 -36 -37 -82c-17 -32 -34 -65 -49 -65c-23 0 -61 20 -61 32c0 16 27 48 54 125z" />
    <glyph glyph-name="lcommaaccent" unicode="&#x13c;" horiz-adv-x="221" 
d="M320 78c0 -18 -53 -95 -135 -95c-37 0 -114 30 -130 66c-18 40 -21 92 -21 141c0 249 34 476 34 526c0 21 -8 31 -8 42c0 17 19 32 62 32c29 0 72 -7 72 -32c0 -12 -10 -19 -21 -80c-20 -107 -29 -416 -29 -491c0 -125 13 -146 32 -146c30 0 110 57 129 57
c9 0 15 -14 15 -20zM121 -79c-2 4 -6 7 -6 13s9 9 46 9c42 0 53 -18 53 -32c0 -6 -14 -36 -37 -82c-17 -32 -34 -65 -49 -65c-23 0 -61 20 -61 32c0 16 27 48 54 125z" />
    <glyph glyph-name="Lcaron" unicode="&#x13d;" horiz-adv-x="472" 
d="M185 89c0 0 85 4 179 4c81 0 120 -3 120 -52c0 -22 -8 -25 -29 -27c-109 -8 -386 -28 -396 -28c-11 0 -21 20 -21 36s10 27 25 39c6 315 25 502 25 593c-4 11 -6 18 -6 23c0 22 48 30 80 30c43 0 67 -15 67 -28c0 -3 -2 -6 -5 -10c-5 -37 -39 -188 -39 -580zM342 419
c-17 0 -38 16 -38 27c0 8 12 152 27 210c3 12 7 20 21 20c11 0 55 -11 55 -25c0 -4 -21 -105 -35 -199c-5 -24 -7 -33 -30 -33z" />
    <glyph glyph-name="lcaron" unicode="&#x13e;" horiz-adv-x="306" 
d="M320 78c0 -18 -53 -95 -135 -95c-37 0 -114 30 -130 66c-18 40 -21 92 -21 141c0 249 34 476 34 526c0 21 -8 31 -8 42c0 17 19 32 62 32c29 0 72 -7 72 -32c0 -12 -10 -19 -21 -80c-20 -107 -29 -416 -29 -491c0 -125 13 -146 32 -146c30 0 110 57 129 57
c9 0 15 -14 15 -20zM256 505c-17 0 -38 16 -38 27c0 8 12 152 27 210c3 12 7 20 21 20c11 0 55 -11 55 -25c0 -4 -21 -105 -35 -199c-5 -24 -7 -33 -30 -33z" />
    <glyph glyph-name="Ldot" unicode="&#x13f;" horiz-adv-x="472" 
d="M185 89c0 0 85 4 179 4c81 0 120 -3 120 -52c0 -22 -8 -25 -29 -27c-109 -8 -386 -28 -396 -28c-11 0 -21 20 -21 36s10 27 25 39c6 315 25 502 25 593c-4 11 -6 18 -6 23c0 22 48 30 80 30c43 0 67 -15 67 -28c0 -3 -2 -6 -5 -10c-5 -37 -39 -188 -39 -580zM352 262
c-39 0 -77 33 -77 68c0 31 29 65 82 65c47 0 63 -28 63 -57c0 -39 -27 -76 -68 -76z" />
    <glyph glyph-name="ldot" unicode="&#x140;" horiz-adv-x="374" 
d="M320 78c0 -18 -53 -95 -135 -95c-37 0 -114 30 -130 66c-18 40 -21 92 -21 141c0 249 34 476 34 526c0 21 -8 31 -8 42c0 17 19 32 62 32c29 0 72 -7 72 -32c0 -12 -10 -19 -21 -80c-20 -107 -29 -416 -29 -491c0 -125 13 -146 32 -146c30 0 110 57 129 57
c9 0 15 -14 15 -20zM280 210c-39 0 -77 33 -77 68c0 31 29 65 82 65c47 0 63 -28 63 -57c0 -39 -27 -76 -68 -76z" />
    <glyph glyph-name="Lslash" unicode="&#x141;" horiz-adv-x="472" 
d="M-5 284l76 31c7 166 17 276 17 339c-4 11 -6 18 -6 23c0 22 48 30 80 30c43 0 67 -15 67 -28c0 -3 -2 -6 -5 -10c-4 -27 -23 -113 -33 -307c55 20 97 35 107 35c17 0 33 -26 33 -58c0 -10 -2 -17 -7 -19c-12 -7 -76 -34 -137 -57c-1 -52 -2 -110 -2 -174c0 0 85 4 179 4
c81 0 120 -3 120 -52c0 -22 -8 -25 -29 -27c-109 -8 -386 -28 -396 -28c-11 0 -21 20 -21 36s10 27 25 39c1 55 2 106 4 154c-21 -8 -41 -14 -52 -14c-14 0 -32 31 -32 60c0 11 4 19 12 23z" />
    <glyph glyph-name="lslash" unicode="&#x142;" horiz-adv-x="221" 
d="M39 658c0 -8 -14 -15 -24 -15c-21 0 -45 33 -45 65c0 41 39 85 150 85c110 0 155 -43 216 -43c24 0 27 7 33 7c8 0 12 -12 12 -21c0 -29 -26 -53 -63 -53c-59 0 -145 60 -221 60c-41 0 -85 -18 -85 -46c0 -21 26 -33 27 -39zM320 78c0 -18 -53 -95 -135 -95
c-37 0 -114 30 -130 66c-18 40 -21 92 -21 141c0 249 27 391 27 441c0 21 -8 31 -8 42c0 17 19 32 62 32c29 0 72 -7 72 -32c0 -12 -10 -19 -21 -80c-20 -107 -22 -331 -22 -406c0 -125 13 -146 32 -146c30 0 110 57 129 57c9 0 15 -14 15 -20z" />
    <glyph glyph-name="Ntilde" unicode="&#xd1;" horiz-adv-x="564" 
d="M208 667c7 -39 59 -256 215 -496c0 87 4 329 22 506c2 25 17 38 44 38c32 0 45 -12 45 -19c0 -47 -24 -379 -24 -669c0 -29 -9 -32 -74 -32c-54 0 -62 11 -103 84c-56 99 -123 241 -182 380c-7 -136 -7 -211 -7 -490c0 -6 -25 -31 -51 -31c-33 0 -50 21 -50 34
c0 70 12 600 33 698c5 24 13 34 102 34c19 0 35 -4 35 -23c0 -8 -5 -14 -5 -14zM435 839c7 -8 9 -21 9 -29c0 -25 -16 -59 -65 -59c-50 0 -76 34 -120 34c-39 0 -49 -22 -58 -27c-7 5 -10 15 -10 25c0 27 24 63 69 63c43 0 74 -33 124 -33c44 0 43 20 51 26z" />
    <glyph glyph-name="ntilde" unicode="&#xf1;" horiz-adv-x="458" 
d="M143 5c0 -20 -3 -30 -36 -30c-49 0 -75 22 -75 61c0 31 12 258 27 339c6 34 13 39 30 39c60 0 68 -16 68 -28s-10 -21 -14 -130c40 96 69 126 112 126c29 0 67 -13 100 -33c38 -23 58 -50 58 -104c0 -29 -6 -85 -6 -128c0 -40 5 -48 25 -48c40 0 83 34 95 34
c8 0 20 -16 20 -27c0 -13 -17 -29 -34 -41c-41 -29 -81 -35 -107 -35c-73 0 -109 45 -109 119c0 33 7 122 7 145c0 38 -20 47 -30 47c-35 0 -99 -112 -131 -306zM358 534c7 -8 9 -21 9 -29c0 -25 -16 -59 -65 -59c-50 0 -76 34 -120 34c-39 0 -49 -22 -58 -27
c-7 5 -10 15 -10 25c0 27 24 63 69 63c43 0 74 -33 124 -33c44 0 43 20 51 26z" />
    <glyph glyph-name="Nacute" unicode="&#x143;" horiz-adv-x="564" 
d="M208 667c7 -39 59 -256 215 -496c0 87 4 329 22 506c2 25 17 38 44 38c32 0 45 -12 45 -19c0 -47 -24 -379 -24 -669c0 -29 -9 -32 -74 -32c-54 0 -62 11 -103 84c-56 99 -123 241 -182 380c-7 -136 -7 -211 -7 -490c0 -6 -25 -31 -51 -31c-33 0 -50 21 -50 34
c0 70 12 600 33 698c5 24 13 34 102 34c19 0 35 -4 35 -23c0 -8 -5 -14 -5 -14zM455 867c-21 -22 -108 -112 -147 -134c-13 0 -28 34 -28 44c22 33 80 116 115 153c35 0 59 -51 60 -63z" />
    <glyph glyph-name="nacute" unicode="&#x144;" horiz-adv-x="458" 
d="M143 5c0 -20 -3 -30 -36 -30c-49 0 -75 22 -75 61c0 31 12 258 27 339c6 34 13 39 30 39c60 0 68 -16 68 -28s-10 -21 -14 -130c40 96 69 126 112 126c29 0 67 -13 100 -33c38 -23 58 -50 58 -104c0 -29 -6 -85 -6 -128c0 -40 5 -48 25 -48c40 0 83 34 95 34
c8 0 20 -16 20 -27c0 -13 -17 -29 -34 -41c-41 -29 -81 -35 -107 -35c-73 0 -109 45 -109 119c0 33 7 122 7 145c0 38 -20 47 -30 47c-35 0 -99 -112 -131 -306zM380 583c-21 -22 -108 -112 -147 -134c-13 0 -28 34 -28 44c22 33 80 116 115 153c35 0 59 -51 60 -63z" />
    <glyph glyph-name="Ncommaaccent" unicode="&#x145;" horiz-adv-x="564" 
d="M208 667c7 -39 59 -256 215 -496c0 87 4 329 22 506c2 25 17 38 44 38c32 0 45 -12 45 -19c0 -47 -24 -379 -24 -669c0 -29 -9 -32 -74 -32c-54 0 -62 11 -103 84c-56 99 -123 241 -182 380c-7 -136 -7 -211 -7 -490c0 -6 -25 -31 -51 -31c-33 0 -50 21 -50 34
c0 70 12 600 33 698c5 24 13 34 102 34c19 0 35 -4 35 -23c0 -8 -5 -14 -5 -14zM262 -74c-2 4 -6 7 -6 13s9 9 46 9c42 0 53 -18 53 -32c0 -6 -14 -36 -37 -82c-17 -32 -34 -65 -49 -65c-23 0 -61 20 -61 32c0 16 27 48 54 125z" />
    <glyph glyph-name="ncommaaccent" unicode="&#x146;" horiz-adv-x="458" 
d="M143 5c0 -20 -3 -30 -36 -30c-49 0 -75 22 -75 61c0 31 12 258 27 339c6 34 13 39 30 39c60 0 68 -16 68 -28s-10 -21 -14 -130c40 96 69 126 112 126c29 0 67 -13 100 -33c38 -23 58 -50 58 -104c0 -29 -6 -85 -6 -128c0 -40 5 -48 25 -48c40 0 83 34 95 34
c8 0 20 -16 20 -27c0 -13 -17 -29 -34 -41c-41 -29 -81 -35 -107 -35c-73 0 -109 45 -109 119c0 33 7 122 7 145c0 38 -20 47 -30 47c-35 0 -99 -112 -131 -306zM219 -67c-2 4 -6 7 -6 13s9 9 46 9c42 0 53 -18 53 -32c0 -6 -14 -36 -37 -82c-17 -32 -34 -65 -49 -65
c-23 0 -61 20 -61 32c0 16 27 48 54 125z" />
    <glyph glyph-name="Ncaron" unicode="&#x147;" horiz-adv-x="564" 
d="M208 667c7 -39 59 -256 215 -496c0 87 4 329 22 506c2 25 17 38 44 38c32 0 45 -12 45 -19c0 -47 -24 -379 -24 -669c0 -29 -9 -32 -74 -32c-54 0 -62 11 -103 84c-56 99 -123 241 -182 380c-7 -136 -7 -211 -7 -490c0 -6 -25 -31 -51 -31c-33 0 -50 21 -50 34
c0 70 12 600 33 698c5 24 13 34 102 34c19 0 35 -4 35 -23c0 -8 -5 -14 -5 -14zM315 741c-20 10 -113 115 -129 137c3 16 23 39 33 39c24 -15 63 -50 99 -88c52 45 88 78 104 91c21 -14 30 -27 30 -39c0 -9 -5 -17 -14 -26c-53 -53 -104 -103 -123 -114z" />
    <glyph glyph-name="ncaron" unicode="&#x148;" horiz-adv-x="458" 
d="M143 5c0 -20 -3 -30 -36 -30c-49 0 -75 22 -75 61c0 31 12 258 27 339c6 34 13 39 30 39c60 0 68 -16 68 -28s-10 -21 -14 -130c40 96 69 126 112 126c29 0 67 -13 100 -33c38 -23 58 -50 58 -104c0 -29 -6 -85 -6 -128c0 -40 5 -48 25 -48c40 0 83 34 95 34
c8 0 20 -16 20 -27c0 -13 -17 -29 -34 -41c-41 -29 -81 -35 -107 -35c-73 0 -109 45 -109 119c0 33 7 122 7 145c0 38 -20 47 -30 47c-35 0 -99 -112 -131 -306zM243 432c-20 10 -113 115 -129 137c3 16 23 39 33 39c24 -15 63 -50 99 -88c52 45 88 78 104 91
c21 -14 30 -27 30 -39c0 -9 -5 -17 -14 -26c-53 -53 -104 -103 -123 -114z" />
    <glyph glyph-name="Eng" unicode="&#x14a;" horiz-adv-x="564" 
d="M418 -4c-25 2 -42 4 -86 83c-45 81 -127 251 -181 380c-7 -136 -7 -211 -7 -490c0 -6 -25 -31 -51 -31c-33 0 -50 21 -50 34c0 70 12 600 33 698c4 21 14 34 90 34c30 0 47 -2 47 -21c0 -11 -5 -16 -5 -16c7 -39 59 -256 215 -496c0 93 8 426 23 506c6 33 16 38 41 38
c34 0 47 -9 47 -24c0 -18 -17 -315 -21 -462c-5 -175 8 -287 -27 -368c-43 -99 -137 -112 -208 -112c-28 0 -52 2 -68 10s-22 22 -22 35c0 31 32 50 75 50c38 0 48 -15 64 -15c18 0 50 19 68 56c12 25 19 59 23 111z" />
    <glyph glyph-name="eng" unicode="&#x14b;" horiz-adv-x="458" 
d="M143 5c0 -20 -3 -30 -36 -30c-49 0 -75 22 -75 61c0 31 12 258 27 339c6 34 13 39 30 39c60 0 68 -16 68 -28s-10 -21 -14 -130c40 96 69 126 112 126c29 0 67 -13 100 -33c38 -23 58 -50 58 -104c0 -72 -10 -143 -10 -219c0 -20 -2 -174 -7 -222
c-6 -60 -32 -93 -115 -93c-41 0 -72 8 -100 23c-41 22 -67 55 -67 68c0 10 13 26 28 26c23 0 39 -39 102 -39c14 0 33 2 42 21c6 13 7 41 7 92c1 160 11 297 11 362c0 38 -20 47 -30 47c-35 0 -99 -112 -131 -306z" />
    <glyph glyph-name="Ograve" unicode="&#xd2;" horiz-adv-x="673" 
d="M464 0c-50 -26 -99 -34 -145 -34c-65 0 -109 21 -168 54c-83 47 -157 117 -157 291c0 113 37 235 99 316c54 71 120 97 166 97c61 0 151 -51 212 -89c95 -59 173 -103 173 -281c0 -195 -79 -302 -180 -354zM289 38c96 0 239 116 239 312c0 99 -37 191 -104 238
c-37 26 -78 36 -107 36c-136 0 -195 -212 -195 -350c0 -181 101 -236 167 -236zM410 748c-39 22 -116 109 -128 131c1 12 25 63 60 63c33 -47 77 -117 96 -150c0 -10 -15 -44 -28 -44z" />
    <glyph glyph-name="ograve" unicode="&#xf2;" horiz-adv-x="418" 
d="M387 152h-11c-17 -119 -70 -177 -165 -177c-115 0 -184 84 -184 216c0 149 88 254 156 254c37 0 83 -32 106 -68h6c23 0 81 -39 86 -131c0 -9 1 -19 12 -19c41 0 52 23 71 66c13 29 19 54 44 54c12 0 20 -7 20 -25c0 -47 -37 -170 -141 -170zM293 204
c-31 36 -51 83 -51 123c0 5 0 10 1 14c-12 13 -20 17 -26 17c-28 0 -88 -76 -88 -195c0 -91 35 -132 69 -132c45 0 94 71 95 173zM261 470c-39 22 -116 109 -128 131c1 12 25 63 60 63c33 -47 77 -117 96 -150c0 -10 -15 -44 -28 -44z" />
    <glyph glyph-name="Oacute" unicode="&#xd3;" horiz-adv-x="673" 
d="M464 0c-50 -26 -99 -34 -145 -34c-65 0 -109 21 -168 54c-83 47 -157 117 -157 291c0 113 37 235 99 316c54 71 120 97 166 97c61 0 151 -51 212 -89c95 -59 173 -103 173 -281c0 -195 -79 -302 -180 -354zM289 38c96 0 239 116 239 312c0 99 -37 191 -104 238
c-37 26 -78 36 -107 36c-136 0 -195 -212 -195 -350c0 -181 101 -236 167 -236zM483 890c-21 -22 -108 -112 -147 -134c-13 0 -28 34 -28 44c22 33 80 116 115 153c35 0 59 -51 60 -63z" />
    <glyph glyph-name="oacute" unicode="&#xf3;" horiz-adv-x="418" 
d="M387 152h-11c-17 -119 -70 -177 -165 -177c-115 0 -184 84 -184 216c0 149 88 254 156 254c37 0 83 -32 106 -68h6c23 0 81 -39 86 -131c0 -9 1 -19 12 -19c41 0 52 23 71 66c13 29 19 54 44 54c12 0 20 -7 20 -25c0 -47 -37 -170 -141 -170zM293 204
c-31 36 -51 83 -51 123c0 5 0 10 1 14c-12 13 -20 17 -26 17c-28 0 -88 -76 -88 -195c0 -91 35 -132 69 -132c45 0 94 71 95 173zM348 613c-21 -22 -108 -112 -147 -134c-13 0 -28 34 -28 44c22 33 80 116 115 153c35 0 59 -51 60 -63z" />
    <glyph glyph-name="Ocircumflex" unicode="&#xd4;" horiz-adv-x="673" 
d="M464 0c-50 -26 -99 -34 -145 -34c-65 0 -109 21 -168 54c-83 47 -157 117 -157 291c0 113 37 235 99 316c54 71 120 97 166 97c61 0 151 -51 212 -89c95 -59 173 -103 173 -281c0 -195 -79 -302 -180 -354zM289 38c96 0 239 116 239 312c0 99 -37 191 -104 238
c-37 26 -78 36 -107 36c-136 0 -195 -212 -195 -350c0 -181 101 -236 167 -236zM444 760c-24 15 -66 46 -106 79c-52 -45 -80 -69 -97 -82c-21 14 -29 27 -29 39c0 9 4 17 14 26c39 38 101 103 122 114c21 -10 113 -115 129 -137c-3 -16 -23 -39 -33 -39z" />
    <glyph glyph-name="ocircumflex" unicode="&#xf4;" horiz-adv-x="418" 
d="M387 152h-11c-17 -119 -70 -177 -165 -177c-115 0 -184 84 -184 216c0 149 88 254 156 254c37 0 83 -32 106 -68h6c23 0 81 -39 86 -131c0 -9 1 -19 12 -19c41 0 52 23 71 66c13 29 19 54 44 54c12 0 20 -7 20 -25c0 -47 -37 -170 -141 -170zM293 204
c-31 36 -51 83 -51 123c0 5 0 10 1 14c-12 13 -20 17 -26 17c-28 0 -88 -76 -88 -195c0 -91 35 -132 69 -132c45 0 94 71 95 173zM303 466c-24 15 -66 46 -106 79c-52 -45 -80 -69 -97 -82c-21 14 -29 27 -29 39c0 9 4 17 14 26c39 38 101 103 122 114
c21 -10 113 -115 129 -137c-3 -16 -23 -39 -33 -39z" />
    <glyph glyph-name="Otilde" unicode="&#xd5;" horiz-adv-x="673" 
d="M464 0c-50 -26 -99 -34 -145 -34c-65 0 -109 21 -168 54c-83 47 -157 117 -157 291c0 113 37 235 99 316c54 71 120 97 166 97c61 0 151 -51 212 -89c95 -59 173 -103 173 -281c0 -195 -79 -302 -180 -354zM289 38c96 0 239 116 239 312c0 99 -37 191 -104 238
c-37 26 -78 36 -107 36c-136 0 -195 -212 -195 -350c0 -181 101 -236 167 -236zM456 858c7 -8 9 -21 9 -29c0 -25 -16 -59 -65 -59c-50 0 -76 34 -120 34c-39 0 -49 -22 -58 -27c-7 5 -10 15 -10 25c0 27 24 63 69 63c43 0 74 -33 124 -33c44 0 43 20 51 26z" />
    <glyph glyph-name="otilde" unicode="&#xf5;" horiz-adv-x="418" 
d="M387 152h-11c-17 -119 -70 -177 -165 -177c-115 0 -184 84 -184 216c0 149 88 254 156 254c37 0 83 -32 106 -68h6c23 0 81 -39 86 -131c0 -9 1 -19 12 -19c41 0 52 23 71 66c13 29 19 54 44 54c12 0 20 -7 20 -25c0 -47 -37 -170 -141 -170zM293 204
c-31 36 -51 83 -51 123c0 5 0 10 1 14c-12 13 -20 17 -26 17c-28 0 -88 -76 -88 -195c0 -91 35 -132 69 -132c45 0 94 71 95 173zM332 567c7 -8 9 -21 9 -29c0 -25 -16 -59 -65 -59c-50 0 -76 34 -120 34c-39 0 -49 -22 -58 -27c-7 5 -10 15 -10 25c0 27 24 63 69 63
c43 0 74 -33 124 -33c44 0 43 20 51 26z" />
    <glyph glyph-name="Odieresis" unicode="&#xd6;" horiz-adv-x="673" 
d="M282 770c-30 0 -55 22 -55 47c0 27 21 55 66 55c32 0 46 -17 46 -37c0 -32 -26 -65 -57 -65zM442 742c-30 0 -55 22 -55 47c0 27 21 55 66 55c32 0 46 -17 46 -37c0 -32 -26 -65 -57 -65zM464 0c-50 -26 -99 -34 -145 -34c-65 0 -109 21 -168 54
c-83 47 -157 117 -157 291c0 113 37 235 99 316c54 71 120 97 166 97c61 0 151 -51 212 -89c95 -59 173 -103 173 -281c0 -195 -79 -302 -180 -354zM289 38c96 0 239 116 239 312c0 99 -37 191 -104 238c-37 26 -78 36 -107 36c-136 0 -195 -212 -195 -350
c0 -181 101 -236 167 -236z" />
    <glyph glyph-name="odieresis" unicode="&#xf6;" horiz-adv-x="418" 
d="M387 152h-11c-17 -119 -70 -177 -165 -177c-115 0 -184 84 -184 216c0 149 88 254 156 254c37 0 83 -32 106 -68h6c23 0 81 -39 86 -131c0 -9 1 -19 12 -19c41 0 52 23 71 66c13 29 19 54 44 54c12 0 20 -7 20 -25c0 -47 -37 -170 -141 -170zM293 204
c-31 36 -51 83 -51 123c0 5 0 10 1 14c-12 13 -20 17 -26 17c-28 0 -88 -76 -88 -195c0 -91 35 -132 69 -132c45 0 94 71 95 173zM127 474c-30 0 -55 22 -55 47c0 27 21 55 66 55c32 0 46 -17 46 -37c0 -32 -26 -65 -57 -65zM287 474c-30 0 -55 22 -55 47c0 27 21 55 66 55
c32 0 46 -17 46 -37c0 -32 -26 -65 -57 -65z" />
    <glyph glyph-name="Omacron" unicode="&#x14c;" horiz-adv-x="673" 
d="M464 0c-50 -26 -99 -34 -145 -34c-65 0 -109 21 -168 54c-83 47 -157 117 -157 291c0 113 37 235 99 316c54 71 120 97 166 97c61 0 151 -51 212 -89c95 -59 173 -103 173 -281c0 -195 -79 -302 -180 -354zM289 38c96 0 239 116 239 312c0 99 -37 191 -104 238
c-37 26 -78 36 -107 36c-136 0 -195 -212 -195 -350c0 -181 101 -236 167 -236zM467 781c-26 -3 -103 -4 -160 -4c-92 0 -103 8 -103 28s8 45 31 45c12 0 72 -1 102 -1c61 0 109 0 132 -2c14 -1 19 -18 19 -32c0 -17 -8 -32 -21 -34z" />
    <glyph glyph-name="omacron" unicode="&#x14d;" horiz-adv-x="418" 
d="M387 152h-11c-17 -119 -70 -177 -165 -177c-115 0 -184 84 -184 216c0 149 88 254 156 254c37 0 83 -32 106 -68h6c23 0 81 -39 86 -131c0 -9 1 -19 12 -19c41 0 52 23 71 66c13 29 19 54 44 54c12 0 20 -7 20 -25c0 -47 -37 -170 -141 -170zM293 204
c-31 36 -51 83 -51 123c0 5 0 10 1 14c-12 13 -20 17 -26 17c-28 0 -88 -76 -88 -195c0 -91 35 -132 69 -132c45 0 94 71 95 173zM339 491c-26 -3 -103 -4 -160 -4c-92 0 -103 8 -103 28s8 45 31 45c12 0 72 -1 102 -1c61 0 109 0 132 -2c14 -1 19 -18 19 -32
c0 -17 -8 -32 -21 -34z" />
    <glyph glyph-name="Obreve" unicode="&#x14e;" horiz-adv-x="673" 
d="M464 0c-50 -26 -99 -34 -145 -34c-65 0 -109 21 -168 54c-83 47 -157 117 -157 291c0 113 37 235 99 316c54 71 120 97 166 97c61 0 151 -51 212 -89c95 -59 173 -103 173 -281c0 -195 -79 -302 -180 -354zM289 38c96 0 239 116 239 312c0 99 -37 191 -104 238
c-37 26 -78 36 -107 36c-136 0 -195 -212 -195 -350c0 -181 101 -236 167 -236zM473 913c13 -9 19 -27 19 -42c0 -52 -68 -100 -141 -100c-92 0 -133 77 -133 106c0 15 10 33 35 33c12 -29 47 -71 99 -71c57 0 102 50 121 74z" />
    <glyph glyph-name="obreve" unicode="&#x14f;" horiz-adv-x="418" 
d="M387 152h-11c-17 -119 -70 -177 -165 -177c-115 0 -184 84 -184 216c0 149 88 254 156 254c37 0 83 -32 106 -68h6c23 0 81 -39 86 -131c0 -9 1 -19 12 -19c41 0 52 23 71 66c13 29 19 54 44 54c12 0 20 -7 20 -25c0 -47 -37 -170 -141 -170zM293 204
c-31 36 -51 83 -51 123c0 5 0 10 1 14c-12 13 -20 17 -26 17c-28 0 -88 -76 -88 -195c0 -91 35 -132 69 -132c45 0 94 71 95 173zM333 635c13 -9 19 -27 19 -42c0 -52 -68 -100 -141 -100c-92 0 -133 77 -133 106c0 15 10 33 35 33c12 -29 47 -71 99 -71c57 0 102 50 121 74
z" />
    <glyph glyph-name="Ohungarumlaut" unicode="&#x150;" horiz-adv-x="673" 
d="M275 808c33 38 79 133 81 133c27 0 53 -49 53 -58c0 -17 -78 -114 -86 -114c-18 0 -44 23 -48 39zM423 768c33 38 79 133 81 133c27 0 53 -49 53 -58c0 -17 -78 -114 -86 -114c-18 0 -44 23 -48 39zM464 0c-50 -26 -99 -34 -145 -34c-65 0 -109 21 -168 54
c-83 47 -157 117 -157 291c0 113 37 235 99 316c54 71 120 97 166 97c61 0 151 -51 212 -89c95 -59 173 -103 173 -281c0 -195 -79 -302 -180 -354zM289 38c96 0 239 116 239 312c0 99 -37 191 -104 238c-37 26 -78 36 -107 36c-136 0 -195 -212 -195 -350
c0 -181 101 -236 167 -236z" />
    <glyph glyph-name="ohungarumlaut" unicode="&#x151;" horiz-adv-x="418" 
d="M387 152h-11c-17 -119 -70 -177 -165 -177c-115 0 -184 84 -184 216c0 149 88 254 156 254c37 0 83 -32 106 -68h6c23 0 81 -39 86 -131c0 -9 1 -19 12 -19c41 0 52 23 71 66c13 29 19 54 44 54c12 0 20 -7 20 -25c0 -47 -37 -170 -141 -170zM293 204
c-31 36 -51 83 -51 123c0 5 0 10 1 14c-12 13 -20 17 -26 17c-28 0 -88 -76 -88 -195c0 -91 35 -132 69 -132c45 0 94 71 95 173zM80 524c33 38 79 133 81 133c27 0 53 -49 53 -58c0 -17 -78 -114 -86 -114c-18 0 -44 23 -48 39zM228 524c33 38 79 133 81 133
c27 0 53 -49 53 -58c0 -17 -78 -114 -86 -114c-18 0 -44 23 -48 39z" />
    <glyph glyph-name="Oslash" unicode="&#xd8;" horiz-adv-x="673" 
d="M220 -14l-12 -27c-7 -15 -8 -35 -33 -35c-33 0 -63 24 -63 32c0 11 6 29 12 43l13 29c-77 47 -143 118 -143 283c0 113 37 235 99 316c54 71 120 97 166 97c50 0 119 -34 176 -67c23 42 40 68 48 68c11 0 84 -25 85 -50c0 -9 -25 -46 -43 -75c69 -47 119 -103 119 -246
c0 -195 -79 -302 -180 -354c-50 -26 -99 -34 -145 -34c-38 0 -69 7 -99 20zM404 600c-31 17 -63 24 -87 24c-136 0 -195 -212 -195 -350c0 -81 20 -137 48 -174c68 150 165 365 234 500zM482 525c-80 -145 -159 -312 -235 -480c14 -5 29 -7 42 -7c96 0 239 116 239 312
c0 65 -16 127 -46 175z" />
    <glyph glyph-name="oslash" unicode="&#xf8;" horiz-adv-x="418" 
d="M387 152h-11c-17 -119 -70 -177 -165 -177c-13 0 -26 2 -38 4l-10 -33c-5 -15 6 -27 -19 -27c-21 0 -54 12 -54 19c0 10 9 37 20 65c-53 35 -83 101 -83 188c0 149 88 254 156 254c25 0 54 -15 77 -35l19 50c4 10 11 12 20 12c7 0 15 -2 24 -4c13 -3 29 -13 30 -18
l-34 -82c26 -16 58 -55 62 -122c0 -9 1 -19 12 -19c41 0 52 23 71 66c13 29 19 54 44 54c12 0 20 -7 20 -25c0 -47 -37 -170 -141 -170zM141 84l96 263c-9 8 -15 11 -20 11c-28 0 -88 -76 -88 -195c0 -33 5 -59 12 -79zM191 31h7c45 0 94 71 95 173c-9 11 -18 23 -25 35
c-24 -64 -50 -130 -77 -208z" />
    <glyph glyph-name="Oslashacute" unicode="&#x1fe;" horiz-adv-x="673" 
d="M220 -14l-12 -27c-7 -15 -8 -35 -33 -35c-33 0 -63 24 -63 32c0 11 6 29 12 43l13 29c-77 47 -143 118 -143 283c0 113 37 235 99 316c54 71 120 97 166 97c50 0 119 -34 176 -67c23 42 40 68 48 68c11 0 84 -25 85 -50c0 -9 -25 -46 -43 -75c69 -47 119 -103 119 -246
c0 -195 -79 -302 -180 -354c-50 -26 -99 -34 -145 -34c-38 0 -69 7 -99 20zM404 600c-31 17 -63 24 -87 24c-136 0 -195 -212 -195 -350c0 -81 20 -137 48 -174c68 150 165 365 234 500zM482 525c-80 -145 -159 -312 -235 -480c14 -5 29 -7 42 -7c96 0 239 116 239 312
c0 65 -16 127 -46 175zM483 890c-21 -22 -108 -112 -147 -134c-13 0 -28 34 -28 44c22 33 80 116 115 153c35 0 59 -51 60 -63z" />
    <glyph glyph-name="oslashacute" unicode="&#x1ff;" horiz-adv-x="418" 
d="M387 152h-11c-17 -119 -70 -177 -165 -177c-13 0 -26 2 -38 4l-10 -33c-5 -15 6 -27 -19 -27c-21 0 -54 12 -54 19c0 10 9 37 20 65c-53 35 -83 101 -83 188c0 149 88 254 156 254c25 0 54 -15 77 -35l19 50c4 10 11 12 20 12c7 0 15 -2 24 -4c13 -3 29 -13 30 -18
l-34 -82c26 -16 58 -55 62 -122c0 -9 1 -19 12 -19c41 0 52 23 71 66c13 29 19 54 44 54c12 0 20 -7 20 -25c0 -47 -37 -170 -141 -170zM141 84l96 263c-9 8 -15 11 -20 11c-28 0 -88 -76 -88 -195c0 -33 5 -59 12 -79zM191 31h7c45 0 94 71 95 173c-9 11 -18 23 -25 35
c-24 -64 -50 -130 -77 -208zM338 613c-21 -22 -108 -112 -147 -134c-13 0 -28 34 -28 44c22 33 80 116 115 153c35 0 59 -51 60 -63z" />
    <glyph glyph-name="OE" unicode="&#x152;" horiz-adv-x="1004" 
d="M623 203c-4 -68 -7 -118 -7 -125c0 0 150 14 248 14c58 0 95 -5 106 -13c4 -3 6 -7 6 -24c0 -12 -1 -24 -8 -25c-159 -24 -322 -47 -406 -47c-31 0 -42 3 -52 12c-7 6 -11 15 -14 25c-10 -8 -21 -14 -32 -20c-50 -26 -99 -34 -145 -34c-111 0 -325 76 -325 345
c0 113 37 235 99 316c54 71 120 97 166 97c44 0 139 -40 203 -84c78 7 346 60 438 60c27 0 51 -2 70 -13c20 -11 35 -32 35 -53c0 -8 -2 -7 -38 -9c-87 -6 -213 -28 -314 -41c-7 -71 -15 -182 -23 -282c70 5 161 12 211 12c48 0 90 -6 90 -48c0 -6 -1 -14 -13 -20
c-17 -8 -46 -9 -109 -16c-73 -8 -119 -17 -186 -27zM288 37c87 0 223 53 223 296c0 175 -20 208 -87 256c-37 26 -78 36 -107 36c-137 0 -196 -212 -196 -351c0 -182 102 -237 167 -237z" />
    <glyph glyph-name="oe" unicode="&#x153;" horiz-adv-x="632" 
d="M399 155v-23c0 -68 10 -101 60 -101c47 0 114 30 155 61c38 28 63 64 75 64c7 0 22 -13 22 -29c0 -46 -128 -163 -230 -163c-51 0 -105 29 -134 53c-6 4 -10 8 -15 13c-28 -37 -68 -55 -121 -55c-115 0 -184 84 -184 216c0 149 88 254 156 254c37 0 83 -32 106 -68
c14 0 26 -5 38 -15c22 51 54 83 90 83c38 0 77 -19 106 -33c71 -34 107 -68 107 -119c0 -57 -53 -140 -189 -140c-13 0 -27 0 -42 2zM293 204c-31 36 -51 83 -51 123c0 5 0 10 1 14c-12 13 -20 17 -26 17c-28 0 -88 -76 -88 -195c0 -91 35 -132 69 -132c45 0 94 71 95 173z
M405 216c12 -8 23 -10 33 -10c45 0 102 51 102 111c0 35 -19 56 -41 56c-34 0 -79 -50 -94 -157z" />
    <glyph glyph-name="Racute" unicode="&#x154;" horiz-adv-x="540" 
d="M265 231c-35 -7 -69 -11 -97 -12c-5 -70 -8 -133 -8 -175c0 -48 4 -47 4 -53c0 -5 -2 -12 -12 -17c-9 -4 -24 -6 -43 -6c-38 0 -62 8 -62 35c0 2 0 21 5 46c0 98 9 219 24 564c-121 -5 -113 -22 -130 -22c-6 0 -32 9 -32 44c0 67 97 74 239 74c54 0 218 -1 331 -90
c51 -40 88 -96 88 -154c0 -89 -88 -156 -190 -198c85 -172 120 -208 174 -208c16 0 22 3 35 3c10 0 25 -2 25 -17c0 -24 -38 -53 -113 -53c-89 0 -131 40 -238 239zM370 597c-51 13 -104 17 -169 18c-7 -75 -19 -203 -28 -324c160 7 284 116 284 216c0 45 -26 73 -87 90z
M430 876c-21 -22 -108 -112 -147 -134c-13 0 -28 34 -28 44c22 33 80 116 115 153c35 0 59 -51 60 -63z" />
    <glyph glyph-name="racute" unicode="&#x155;" horiz-adv-x="314" 
d="M141 5c0 0 4 -5 4 -7c0 -8 -33 -21 -59 -21c-12 0 -54 3 -54 27c0 41 2 247 9 315c5 44 11 51 46 51c38 0 47 -8 47 -18c0 -5 -2 -52 -2 -87c37 125 74 155 106 155c22 0 90 -9 90 -64c0 -27 -11 -47 -40 -47c-22 0 -42 12 -59 15c-18 -22 -87 -138 -88 -319zM277 579
c-21 -22 -108 -112 -147 -134c-13 0 -28 34 -28 44c22 33 80 116 115 153c35 0 59 -51 60 -63z" />
    <glyph glyph-name="Rcommaaccent" unicode="&#x156;" horiz-adv-x="540" 
d="M265 231c-35 -7 -69 -11 -97 -12c-5 -70 -8 -133 -8 -175c0 -48 4 -47 4 -53c0 -5 -2 -12 -12 -17c-9 -4 -24 -6 -43 -6c-38 0 -62 8 -62 35c0 2 0 21 5 46c0 98 9 219 24 564c-121 -5 -113 -22 -130 -22c-6 0 -32 9 -32 44c0 67 97 74 239 74c54 0 218 -1 331 -90
c51 -40 88 -96 88 -154c0 -89 -88 -156 -190 -198c85 -172 120 -208 174 -208c16 0 22 3 35 3c10 0 25 -2 25 -17c0 -24 -38 -53 -113 -53c-89 0 -131 40 -238 239zM370 597c-51 13 -104 17 -169 18c-7 -75 -19 -203 -28 -324c160 7 284 116 284 216c0 45 -26 73 -87 90z
M260 -55c-2 4 -6 7 -6 13s9 9 46 9c42 0 53 -18 53 -32c0 -6 -14 -36 -37 -82c-17 -32 -34 -65 -49 -65c-23 0 -61 20 -61 32c0 16 27 48 54 125z" />
    <glyph glyph-name="rcommaaccent" unicode="&#x157;" horiz-adv-x="314" 
d="M141 5c0 0 4 -5 4 -7c0 -8 -33 -21 -59 -21c-12 0 -54 3 -54 27c0 41 2 247 9 315c5 44 11 51 46 51c38 0 47 -8 47 -18c0 -5 -2 -52 -2 -87c37 125 74 155 106 155c22 0 90 -9 90 -64c0 -27 -11 -47 -40 -47c-22 0 -42 12 -59 15c-18 -22 -87 -138 -88 -319zM91 -82
c-2 4 -6 7 -6 13s9 9 46 9c42 0 53 -18 53 -32c0 -6 -14 -36 -37 -82c-17 -32 -34 -65 -49 -65c-23 0 -61 20 -61 32c0 16 27 48 54 125z" />
    <glyph glyph-name="Rcaron" unicode="&#x158;" horiz-adv-x="540" 
d="M265 231c-35 -7 -69 -11 -97 -12c-5 -70 -8 -133 -8 -175c0 -48 4 -47 4 -53c0 -5 -2 -12 -12 -17c-9 -4 -24 -6 -43 -6c-38 0 -62 8 -62 35c0 2 0 21 5 46c0 98 9 219 24 564c-121 -5 -113 -22 -130 -22c-6 0 -32 9 -32 44c0 67 97 74 239 74c54 0 218 -1 331 -90
c51 -40 88 -96 88 -154c0 -89 -88 -156 -190 -198c85 -172 120 -208 174 -208c16 0 22 3 35 3c10 0 25 -2 25 -17c0 -24 -38 -53 -113 -53c-89 0 -131 40 -238 239zM370 597c-51 13 -104 17 -169 18c-7 -75 -19 -203 -28 -324c160 7 284 116 284 216c0 45 -26 73 -87 90z
M295 740c-20 10 -113 115 -129 137c3 16 23 39 33 39c24 -15 63 -50 99 -88c52 45 88 78 104 91c21 -14 30 -27 30 -39c0 -9 -5 -17 -14 -26c-53 -53 -104 -103 -123 -114z" />
    <glyph glyph-name="rcaron" unicode="&#x159;" horiz-adv-x="314" 
d="M141 5c0 0 4 -5 4 -7c0 -8 -33 -21 -59 -21c-12 0 -54 3 -54 27c0 41 2 247 9 315c5 44 11 51 46 51c38 0 47 -8 47 -18c0 -5 -2 -52 -2 -87c37 125 74 155 106 155c22 0 90 -9 90 -64c0 -27 -11 -47 -40 -47c-22 0 -42 12 -59 15c-18 -22 -87 -138 -88 -319zM144 439
c-20 10 -113 115 -129 137c3 16 23 39 33 39c24 -15 63 -50 99 -88c52 45 88 78 104 91c21 -14 30 -27 30 -39c0 -9 -5 -17 -14 -26c-53 -53 -104 -103 -123 -114z" />
    <glyph glyph-name="Sacute" unicode="&#x15a;" horiz-adv-x="688" 
d="M668 138c0 -113 -186 -183 -348 -183c-100 0 -191 26 -242 64c-41 30 -55 65 -55 92c0 37 25 56 37 56c10 0 37 -11 37 -35c0 -9 -4 -10 -4 -19c0 -34 60 -69 168 -69c137 0 316 56 316 94c0 47 -274 59 -394 128c-83 47 -113 135 -113 186c0 141 228 279 351 279
c33 0 67 -12 110 -56c56 -58 129 -157 129 -200c0 -27 -29 -54 -45 -54c-14 0 -46 22 -74 69c-25 41 -49 103 -50 121c-16 16 -29 20 -42 20c-74 0 -287 -135 -287 -241c0 -50 48 -54 232 -92c133 -28 274 -61 274 -160zM474 904c-21 -22 -108 -112 -147 -134
c-13 0 -28 34 -28 44c22 33 80 116 115 153c35 0 59 -51 60 -63z" />
    <glyph glyph-name="sacute" unicode="&#x15b;" horiz-adv-x="400" 
d="M372 68c0 -48 -39 -88 -125 -88c-65 0 -133 23 -177 46c-30 16 -51 32 -51 41c0 10 24 40 40 40c9 0 10 -9 10 -9s74 -48 138 -48c33 0 38 13 38 23c0 30 -50 54 -95 80c-57 33 -102 64 -102 128c0 80 69 138 177 138c65 0 151 -21 151 -58c0 -12 -10 -40 -18 -40
c-7 0 -28 17 -76 17c-38 0 -108 -11 -108 -66c0 -37 32 -55 100 -99c69 -44 98 -64 98 -105zM329 584c-21 -22 -108 -112 -147 -134c-13 0 -28 34 -28 44c22 33 80 116 115 153c35 0 59 -51 60 -63z" />
    <glyph glyph-name="Scircumflex" unicode="&#x15c;" horiz-adv-x="688" 
d="M668 138c0 -113 -186 -183 -348 -183c-100 0 -191 26 -242 64c-41 30 -55 65 -55 92c0 37 25 56 37 56c10 0 37 -11 37 -35c0 -9 -4 -10 -4 -19c0 -34 60 -69 168 -69c137 0 316 56 316 94c0 47 -274 59 -394 128c-83 47 -113 135 -113 186c0 141 228 279 351 279
c33 0 67 -12 110 -56c56 -58 129 -157 129 -200c0 -27 -29 -54 -45 -54c-14 0 -46 22 -74 69c-25 41 -49 103 -50 121c-16 16 -29 20 -42 20c-74 0 -287 -135 -287 -241c0 -50 48 -54 232 -92c133 -28 274 -61 274 -160zM479 784c-24 15 -66 46 -106 79
c-52 -45 -80 -69 -97 -82c-21 14 -29 27 -29 39c0 9 4 17 14 26c39 38 101 103 122 114c21 -10 113 -115 129 -137c-3 -16 -23 -39 -33 -39z" />
    <glyph glyph-name="scircumflex" unicode="&#x15d;" horiz-adv-x="400" 
d="M372 68c0 -48 -39 -88 -125 -88c-65 0 -133 23 -177 46c-30 16 -51 32 -51 41c0 10 24 40 40 40c9 0 10 -9 10 -9s74 -48 138 -48c33 0 38 13 38 23c0 30 -50 54 -95 80c-57 33 -102 64 -102 128c0 80 69 138 177 138c65 0 151 -21 151 -58c0 -12 -10 -40 -18 -40
c-7 0 -28 17 -76 17c-38 0 -108 -11 -108 -66c0 -37 32 -55 100 -99c69 -44 98 -64 98 -105zM305 453c-24 15 -66 46 -106 79c-52 -45 -80 -69 -97 -82c-21 14 -29 27 -29 39c0 9 4 17 14 26c39 38 101 103 122 114c21 -10 113 -115 129 -137c-3 -16 -23 -39 -33 -39z" />
    <glyph glyph-name="Scedilla" unicode="&#x15e;" horiz-adv-x="688" 
d="M388 -41c-6 -7 -14 -20 -20 -37c15 8 30 11 45 11c34 0 62 -20 62 -60c0 -68 -83 -116 -157 -116c-21 0 -55 4 -55 34c0 16 10 25 15 25c4 0 12 -7 39 -7c37 0 87 14 87 59c0 6 -1 19 -23 19c-34 0 -64 -29 -72 -29c-9 0 -27 29 -27 37s19 39 38 60
c-100 0 -191 26 -242 64c-41 30 -55 65 -55 92c0 37 25 56 37 56c10 0 37 -11 37 -35c0 -9 -4 -10 -4 -19c0 -34 60 -69 168 -69c137 0 316 56 316 94c0 47 -274 59 -394 128c-83 47 -113 135 -113 186c0 141 228 279 351 279c33 0 67 -12 110 -56c56 -58 129 -157 129 -200
c0 -27 -29 -54 -45 -54c-14 0 -46 22 -74 69c-25 41 -49 103 -50 121c-16 16 -29 20 -42 20c-74 0 -287 -135 -287 -241c0 -50 48 -54 232 -92c133 -28 274 -61 274 -160c0 -98 -138 -163 -280 -179z" />
    <glyph glyph-name="scedilla" unicode="&#x15f;" horiz-adv-x="400" 
d="M247 -20h-6c-6 -7 -15 -20 -21 -38c15 8 30 11 45 11c34 0 62 -20 62 -60c0 -68 -83 -116 -157 -116c-21 0 -55 4 -55 34c0 16 10 25 15 25c4 0 12 -7 39 -7c37 0 87 14 87 59c0 6 -1 19 -23 19c-34 0 -64 -29 -72 -29c-9 0 -27 29 -27 37c0 10 28 52 50 72
c-44 8 -84 23 -114 39s-51 32 -51 41c0 10 24 40 40 40c9 0 10 -9 10 -9s74 -48 138 -48c33 0 38 13 38 23c0 30 -50 54 -95 80c-57 33 -102 64 -102 128c0 80 69 138 177 138c65 0 151 -21 151 -58c0 -12 -10 -40 -18 -40c-7 0 -28 17 -76 17c-38 0 -108 -11 -108 -66
c0 -37 32 -55 100 -99c69 -44 98 -64 98 -105c0 -48 -39 -88 -125 -88z" />
    <glyph glyph-name="Scaron" unicode="&#x160;" horiz-adv-x="688" 
d="M668 138c0 -113 -186 -183 -348 -183c-100 0 -191 26 -242 64c-41 30 -55 65 -55 92c0 37 25 56 37 56c10 0 37 -11 37 -35c0 -9 -4 -10 -4 -19c0 -34 60 -69 168 -69c137 0 316 56 316 94c0 47 -274 59 -394 128c-83 47 -113 135 -113 186c0 141 228 279 351 279
c33 0 67 -12 110 -56c56 -58 129 -157 129 -200c0 -27 -29 -54 -45 -54c-14 0 -46 22 -74 69c-25 41 -49 103 -50 121c-16 16 -29 20 -42 20c-74 0 -287 -135 -287 -241c0 -50 48 -54 232 -92c133 -28 274 -61 274 -160zM377 778c-20 10 -113 115 -129 137c3 16 23 39 33 39
c24 -15 63 -50 99 -88c52 45 88 78 104 91c21 -14 30 -27 30 -39c0 -9 -5 -17 -14 -26c-53 -53 -104 -103 -123 -114z" />
    <glyph glyph-name="scaron" unicode="&#x161;" horiz-adv-x="400" 
d="M372 68c0 -48 -39 -88 -125 -88c-65 0 -133 23 -177 46c-30 16 -51 32 -51 41c0 10 24 40 40 40c9 0 10 -9 10 -9s74 -48 138 -48c33 0 38 13 38 23c0 30 -50 54 -95 80c-57 33 -102 64 -102 128c0 80 69 138 177 138c65 0 151 -21 151 -58c0 -12 -10 -40 -18 -40
c-7 0 -28 17 -76 17c-38 0 -108 -11 -108 -66c0 -37 32 -55 100 -99c69 -44 98 -64 98 -105zM215 449c-20 10 -113 115 -129 137c3 16 23 39 33 39c24 -15 63 -50 99 -88c52 45 88 78 104 91c21 -14 30 -27 30 -39c0 -9 -5 -17 -14 -26c-53 -53 -104 -103 -123 -114z" />
    <glyph glyph-name="Scommaaccent" unicode="&#x218;" horiz-adv-x="688" 
d="M668 138c0 -113 -186 -183 -348 -183c-100 0 -191 26 -242 64c-41 30 -55 65 -55 92c0 37 25 56 37 56c10 0 37 -11 37 -35c0 -9 -4 -10 -4 -19c0 -34 60 -69 168 -69c137 0 316 56 316 94c0 47 -274 59 -394 128c-83 47 -113 135 -113 186c0 141 228 279 351 279
c33 0 67 -12 110 -56c56 -58 129 -157 129 -200c0 -27 -29 -54 -45 -54c-14 0 -46 22 -74 69c-25 41 -49 103 -50 121c-16 16 -29 20 -42 20c-74 0 -287 -135 -287 -241c0 -50 48 -54 232 -92c133 -28 274 -61 274 -160zM329 -111c-2 4 -6 7 -6 13s9 9 46 9
c42 0 53 -18 53 -32c0 -6 -14 -36 -37 -82c-17 -32 -34 -65 -49 -65c-23 0 -61 20 -61 32c0 16 27 48 54 125z" />
    <glyph glyph-name="scommaaccent" unicode="&#x219;" horiz-adv-x="400" 
d="M372 68c0 -48 -39 -88 -125 -88c-65 0 -133 23 -177 46c-30 16 -51 32 -51 41c0 10 24 40 40 40c9 0 10 -9 10 -9s74 -48 138 -48c33 0 38 13 38 23c0 30 -50 54 -95 80c-57 33 -102 64 -102 128c0 80 69 138 177 138c65 0 151 -21 151 -58c0 -12 -10 -40 -18 -40
c-7 0 -28 17 -76 17c-38 0 -108 -11 -108 -66c0 -37 32 -55 100 -99c69 -44 98 -64 98 -105zM187 -74c-2 4 -6 7 -6 13s9 9 46 9c42 0 53 -18 53 -32c0 -6 -14 -36 -37 -82c-17 -32 -34 -65 -49 -65c-23 0 -61 20 -61 32c0 16 27 48 54 125z" />
    <glyph glyph-name="Tcommaaccent" unicode="&#x162;" horiz-adv-x="335" 
d="M260 585c-15 -162 -40 -478 -40 -571c0 0 2 -4 2 -11c0 -8 -2 -23 -44 -23c-40 0 -65 13 -65 25c0 101 19 411 25 575c-55 -2 -115 -3 -176 -3c-76 0 -108 2 -127 14c-15 9 -26 24 -26 45c0 15 6 13 29 14c95 3 371 45 545 45c54 0 74 -4 86 -13c13 -10 15 -16 27 -60
c3 -12 6 -12 6 -17c0 -7 -5 -7 -45 -7c-17 0 -92 -7 -197 -13zM148 -74c-2 4 -6 7 -6 13s9 9 46 9c42 0 53 -18 53 -32c0 -6 -14 -36 -37 -82c-17 -32 -34 -65 -49 -65c-23 0 -61 20 -61 32c0 16 27 48 54 125z" />
    <glyph glyph-name="tcommaaccent" unicode="&#x163;" horiz-adv-x="224" 
d="M42 410c-24 1 -46 3 -47 3c-20 1 -68 17 -68 42c0 5 58 20 120 28c3 31 5 61 6 93c1 38 18 47 58 47c39 0 63 -9 63 -23c0 -9 -11 -10 -14 -36c-3 -22 -5 -47 -8 -75c79 0 86 -2 97 -11c13 -11 20 -28 20 -46c0 -8 -66 -17 -123 -21c-7 -90 -13 -187 -13 -249
c0 -73 8 -103 35 -103c34 0 121 49 136 49c5 0 13 -6 13 -13c0 -26 -14 -44 -69 -72s-88 -36 -114 -36c-24 0 -65 20 -86 60c-16 30 -20 64 -20 109c0 90 7 173 14 254zM127 -78c-2 4 -6 7 -6 13s9 9 46 9c42 0 53 -18 53 -32c0 -6 -14 -36 -37 -82c-17 -32 -34 -65 -49 -65
c-23 0 -61 20 -61 32c0 16 27 48 54 125z" />
    <glyph glyph-name="Tcaron" unicode="&#x164;" horiz-adv-x="335" 
d="M260 585c-15 -162 -40 -478 -40 -571c0 0 2 -4 2 -11c0 -8 -2 -23 -44 -23c-40 0 -65 13 -65 25c0 101 19 411 25 575c-55 -2 -115 -3 -176 -3c-76 0 -108 2 -127 14c-15 9 -26 24 -26 45c0 15 6 13 29 14c95 3 371 45 545 45c54 0 74 -4 86 -13c13 -10 15 -16 27 -60
c3 -12 6 -12 6 -17c0 -7 -5 -7 -45 -7c-17 0 -92 -7 -197 -13zM199 739c-20 10 -113 115 -129 137c3 16 23 39 33 39c24 -15 63 -50 99 -88c52 45 88 78 104 91c21 -14 30 -27 30 -39c0 -9 -5 -17 -14 -26c-53 -53 -104 -103 -123 -114z" />
    <glyph glyph-name="tcaron" unicode="&#x165;" horiz-adv-x="224" 
d="M42 410c-24 1 -46 3 -47 3c-20 1 -68 17 -68 42c0 5 58 20 120 28c3 31 5 61 6 93c1 38 18 47 58 47c39 0 63 -9 63 -23c0 -9 -11 -10 -14 -36c-3 -22 -5 -47 -8 -75c79 0 86 -2 97 -11c13 -11 20 -28 20 -46c0 -8 -66 -17 -123 -21c-7 -90 -13 -187 -13 -249
c0 -73 8 -103 35 -103c34 0 121 49 136 49c5 0 13 -6 13 -13c0 -26 -14 -44 -69 -72s-88 -36 -114 -36c-24 0 -65 20 -86 60c-16 30 -20 64 -20 109c0 90 7 173 14 254zM239 535c-17 0 -38 16 -38 27c0 8 12 152 27 210c3 12 7 20 21 20c11 0 55 -11 55 -25
c0 -4 -21 -105 -35 -199c-5 -24 -7 -33 -30 -33z" />
    <glyph glyph-name="Tbar" unicode="&#x166;" horiz-adv-x="335" 
d="M238 322c-10 -129 -18 -255 -18 -308c0 0 2 -4 2 -11c0 -8 -2 -23 -44 -23c-40 0 -65 13 -65 25c0 58 6 186 13 316c-47 0 -68 2 -89 15c-18 11 -45 40 -45 48c0 7 20 18 138 22c4 66 6 125 8 174c-55 -2 -115 -3 -176 -3c-76 0 -108 2 -127 14c-15 9 -26 24 -26 45
c0 15 6 13 29 14c95 3 371 45 545 45c54 0 74 -4 86 -13c13 -10 15 -16 27 -60c3 -12 6 -12 6 -17c0 -7 -5 -7 -45 -7c-17 0 -92 -7 -197 -13c-5 -49 -10 -111 -15 -178c49 -1 70 -3 89 -9c25 -9 41 -30 41 -62c0 -8 -57 -12 -137 -14z" />
    <glyph glyph-name="tbar" unicode="&#x167;" horiz-adv-x="224" 
d="M135 238c-1 -29 -2 -55 -2 -76c0 -73 8 -103 35 -103c34 0 121 49 136 49c5 0 13 -6 13 -13c0 -26 -14 -44 -69 -72s-88 -36 -114 -36c-24 0 -65 20 -86 60c-16 30 -20 64 -20 109c0 28 0 55 1 82c-76 1 -87 9 -87 28c0 20 8 45 31 45c8 0 34 -1 61 -1c2 34 5 67 8 100
c-24 1 -46 3 -47 3c-20 1 -68 17 -68 42c0 5 58 20 120 28c3 31 5 61 6 93c1 38 18 47 58 47c39 0 63 -9 63 -23c0 -9 -11 -10 -14 -36c-3 -22 -5 -47 -8 -75c79 0 86 -2 97 -11c13 -11 20 -28 20 -46c0 -8 -66 -17 -123 -21c-3 -34 -6 -68 -8 -101c30 0 55 -1 69 -2
s19 -18 19 -32c0 -17 -8 -32 -21 -34c-18 -2 -28 -4 -70 -4z" />
    <glyph glyph-name="Ugrave" unicode="&#xd9;" horiz-adv-x="617" 
d="M431 185c-74 -175 -130 -223 -213 -223c-52 0 -118 20 -143 51s-58 96 -58 278c0 154 45 374 58 393c8 10 35 18 64 18c30 0 49 -15 49 -25c0 -5 -6 -8 -6 -8s-49 -184 -49 -374c0 -163 25 -278 66 -278c87 0 208 295 227 409c13 76 21 169 37 213c8 24 44 30 62 30
c10 0 45 -8 45 -25c0 -16 -38 -148 -38 -299c0 -147 15 -281 72 -281c20 0 41 22 71 22c15 0 31 -2 31 -22c0 -18 -52 -72 -102 -72c-100 0 -154 53 -173 193zM345 711c-39 22 -116 109 -128 131c1 12 25 63 60 63c33 -47 77 -117 96 -150c0 -10 -15 -44 -28 -44z" />
    <glyph glyph-name="ugrave" unicode="&#xf9;" horiz-adv-x="456" 
d="M288 103c-49 -102 -59 -112 -127 -112c-83 0 -132 15 -132 192c0 108 18 191 18 191s-2 5 -2 13c0 14 7 24 46 24c45 0 68 -13 68 -21c0 -4 -4 -7 -4 -7s-19 -89 -19 -215c0 -95 11 -127 19 -127c11 0 81 76 123 224c20 72 16 95 73 95c54 0 58 -21 58 -32
c0 -28 -27 -29 -27 -145c0 -78 12 -126 34 -126c25 0 92 57 110 57c9 0 17 -15 17 -20c0 -13 -72 -94 -146 -94c-68 0 -109 68 -109 103zM259 435c-39 22 -116 109 -128 131c1 12 25 63 60 63c33 -47 77 -117 96 -150c0 -10 -15 -44 -28 -44z" />
    <glyph glyph-name="Uacute" unicode="&#xda;" horiz-adv-x="617" 
d="M431 185c-74 -175 -130 -223 -213 -223c-52 0 -118 20 -143 51s-58 96 -58 278c0 154 45 374 58 393c8 10 35 18 64 18c30 0 49 -15 49 -25c0 -5 -6 -8 -6 -8s-49 -184 -49 -374c0 -163 25 -278 66 -278c87 0 208 295 227 409c13 76 21 169 37 213c8 24 44 30 62 30
c10 0 45 -8 45 -25c0 -16 -38 -148 -38 -299c0 -147 15 -281 72 -281c20 0 41 22 71 22c15 0 31 -2 31 -22c0 -18 -52 -72 -102 -72c-100 0 -154 53 -173 193zM463 830c-21 -22 -108 -112 -147 -134c-13 0 -28 34 -28 44c22 33 80 116 115 153c35 0 59 -51 60 -63z" />
    <glyph glyph-name="uacute" unicode="&#xfa;" horiz-adv-x="456" 
d="M288 103c-49 -102 -59 -112 -127 -112c-83 0 -132 15 -132 192c0 108 18 191 18 191s-2 5 -2 13c0 14 7 24 46 24c45 0 68 -13 68 -21c0 -4 -4 -7 -4 -7s-19 -89 -19 -215c0 -95 11 -127 19 -127c11 0 81 76 123 224c20 72 16 95 73 95c54 0 58 -21 58 -32
c0 -28 -27 -29 -27 -145c0 -78 12 -126 34 -126c25 0 92 57 110 57c9 0 17 -15 17 -20c0 -13 -72 -94 -146 -94c-68 0 -109 68 -109 103zM382 550c-21 -22 -108 -112 -147 -134c-13 0 -28 34 -28 44c22 33 80 116 115 153c35 0 59 -51 60 -63z" />
    <glyph glyph-name="Ucircumflex" unicode="&#xdb;" horiz-adv-x="617" 
d="M431 185c-74 -175 -130 -223 -213 -223c-52 0 -118 20 -143 51s-58 96 -58 278c0 154 45 374 58 393c8 10 35 18 64 18c30 0 49 -15 49 -25c0 -5 -6 -8 -6 -8s-49 -184 -49 -374c0 -163 25 -278 66 -278c87 0 208 295 227 409c13 76 21 169 37 213c8 24 44 30 62 30
c10 0 45 -8 45 -25c0 -16 -38 -148 -38 -299c0 -147 15 -281 72 -281c20 0 41 22 71 22c15 0 31 -2 31 -22c0 -18 -52 -72 -102 -72c-100 0 -154 53 -173 193zM443 736c-24 15 -66 46 -106 79c-52 -45 -80 -69 -97 -82c-21 14 -29 27 -29 39c0 9 4 17 14 26
c39 38 101 103 122 114c21 -10 113 -115 129 -137c-3 -16 -23 -39 -33 -39z" />
    <glyph glyph-name="ucircumflex" unicode="&#xfb;" horiz-adv-x="456" 
d="M288 103c-49 -102 -59 -112 -127 -112c-83 0 -132 15 -132 192c0 108 18 191 18 191s-2 5 -2 13c0 14 7 24 46 24c45 0 68 -13 68 -21c0 -4 -4 -7 -4 -7s-19 -89 -19 -215c0 -95 11 -127 19 -127c11 0 81 76 123 224c20 72 16 95 73 95c54 0 58 -21 58 -32
c0 -28 -27 -29 -27 -145c0 -78 12 -126 34 -126c25 0 92 57 110 57c9 0 17 -15 17 -20c0 -13 -72 -94 -146 -94c-68 0 -109 68 -109 103zM346 448c-24 15 -66 46 -106 79c-52 -45 -80 -69 -97 -82c-21 14 -29 27 -29 39c0 9 4 17 14 26c39 38 101 103 122 114
c21 -10 113 -115 129 -137c-3 -16 -23 -39 -33 -39z" />
    <glyph glyph-name="Udieresis" unicode="&#xdc;" horiz-adv-x="617" 
d="M431 185c-74 -175 -130 -223 -213 -223c-52 0 -118 20 -143 51s-58 96 -58 278c0 154 45 374 58 393c8 10 35 18 64 18c30 0 49 -15 49 -25c0 -5 -6 -8 -6 -8s-49 -184 -49 -374c0 -163 25 -278 66 -278c87 0 208 295 227 409c13 76 21 169 37 213c8 24 44 30 62 30
c10 0 45 -8 45 -25c0 -16 -38 -148 -38 -299c0 -147 15 -281 72 -281c20 0 41 22 71 22c15 0 31 -2 31 -22c0 -18 -52 -72 -102 -72c-100 0 -154 53 -173 193zM270 720c-30 0 -55 22 -55 47c0 27 21 55 66 55c32 0 46 -17 46 -37c0 -32 -26 -65 -57 -65zM430 720
c-30 0 -55 22 -55 47c0 27 21 55 66 55c32 0 46 -17 46 -37c0 -32 -26 -65 -57 -65z" />
    <glyph glyph-name="udieresis" unicode="&#xfc;" horiz-adv-x="456" 
d="M171 451c-30 0 -55 22 -55 47c0 27 21 55 66 55c32 0 46 -17 46 -37c0 -32 -26 -65 -57 -65zM331 426c-30 0 -55 22 -55 47c0 27 21 55 66 55c32 0 46 -17 46 -37c0 -32 -26 -65 -57 -65zM288 103c-49 -102 -59 -112 -127 -112c-83 0 -132 15 -132 192
c0 108 18 191 18 191s-2 5 -2 13c0 14 7 24 46 24c45 0 68 -13 68 -21c0 -4 -4 -7 -4 -7s-19 -89 -19 -215c0 -95 11 -127 19 -127c11 0 81 76 123 224c20 72 16 95 73 95c54 0 58 -21 58 -32c0 -28 -27 -29 -27 -145c0 -78 12 -126 34 -126c25 0 92 57 110 57
c9 0 17 -15 17 -20c0 -13 -72 -94 -146 -94c-68 0 -109 68 -109 103z" />
    <glyph glyph-name="Utilde" unicode="&#x168;" horiz-adv-x="617" 
d="M431 185c-74 -175 -130 -223 -213 -223c-52 0 -118 20 -143 51s-58 96 -58 278c0 154 45 374 58 393c8 10 35 18 64 18c30 0 49 -15 49 -25c0 -5 -6 -8 -6 -8s-49 -184 -49 -374c0 -163 25 -278 66 -278c87 0 208 295 227 409c13 76 21 169 37 213c8 24 44 30 62 30
c10 0 45 -8 45 -25c0 -16 -38 -148 -38 -299c0 -147 15 -281 72 -281c20 0 41 22 71 22c15 0 31 -2 31 -22c0 -18 -52 -72 -102 -72c-100 0 -154 53 -173 193zM464 813c7 -8 9 -21 9 -29c0 -25 -16 -59 -65 -59c-50 0 -76 34 -120 34c-39 0 -49 -22 -58 -27
c-7 5 -10 15 -10 25c0 27 24 63 69 63c43 0 74 -33 124 -33c44 0 43 20 51 26z" />
    <glyph glyph-name="utilde" unicode="&#x169;" horiz-adv-x="456" 
d="M288 103c-49 -102 -59 -112 -127 -112c-83 0 -132 15 -132 192c0 108 18 191 18 191s-2 5 -2 13c0 14 7 24 46 24c45 0 68 -13 68 -21c0 -4 -4 -7 -4 -7s-19 -89 -19 -215c0 -95 11 -127 19 -127c11 0 81 76 123 224c20 72 16 95 73 95c54 0 58 -21 58 -32
c0 -28 -27 -29 -27 -145c0 -78 12 -126 34 -126c25 0 92 57 110 57c9 0 17 -15 17 -20c0 -13 -72 -94 -146 -94c-68 0 -109 68 -109 103zM367 527c7 -8 9 -21 9 -29c0 -25 -16 -59 -65 -59c-50 0 -76 34 -120 34c-39 0 -49 -22 -58 -27c-7 5 -10 15 -10 25c0 27 24 63 69 63
c43 0 74 -33 124 -33c44 0 43 20 51 26z" />
    <glyph glyph-name="Umacron" unicode="&#x16a;" horiz-adv-x="617" 
d="M431 185c-74 -175 -130 -223 -213 -223c-52 0 -118 20 -143 51s-58 96 -58 278c0 154 45 374 58 393c8 10 35 18 64 18c30 0 49 -15 49 -25c0 -5 -6 -8 -6 -8s-49 -184 -49 -374c0 -163 25 -278 66 -278c87 0 208 295 227 409c13 76 21 169 37 213c8 24 44 30 62 30
c10 0 45 -8 45 -25c0 -16 -38 -148 -38 -299c0 -147 15 -281 72 -281c20 0 41 22 71 22c15 0 31 -2 31 -22c0 -18 -52 -72 -102 -72c-100 0 -154 53 -173 193zM472 747c-26 -3 -103 -4 -160 -4c-92 0 -103 8 -103 28s8 45 31 45c12 0 72 -1 102 -1c61 0 109 0 132 -2
c14 -1 19 -18 19 -32c0 -17 -8 -32 -21 -34z" />
    <glyph glyph-name="umacron" unicode="&#x16b;" horiz-adv-x="456" 
d="M288 103c-49 -102 -59 -112 -127 -112c-83 0 -132 15 -132 192c0 108 18 191 18 191s-2 5 -2 13c0 14 7 24 46 24c45 0 68 -13 68 -21c0 -4 -4 -7 -4 -7s-19 -89 -19 -215c0 -95 11 -127 19 -127c11 0 81 76 123 224c20 72 16 95 73 95c54 0 58 -21 58 -32
c0 -28 -27 -29 -27 -145c0 -78 12 -126 34 -126c25 0 92 57 110 57c9 0 17 -15 17 -20c0 -13 -72 -94 -146 -94c-68 0 -109 68 -109 103zM369 477c-26 -3 -103 -4 -160 -4c-92 0 -103 8 -103 28s8 45 31 45c12 0 72 -1 102 -1c61 0 109 0 132 -2c14 -1 19 -18 19 -32
c0 -17 -8 -32 -21 -34z" />
    <glyph glyph-name="Ubreve" unicode="&#x16c;" horiz-adv-x="617" 
d="M431 185c-74 -175 -130 -223 -213 -223c-52 0 -118 20 -143 51s-58 96 -58 278c0 154 45 374 58 393c8 10 35 18 64 18c30 0 49 -15 49 -25c0 -5 -6 -8 -6 -8s-49 -184 -49 -374c0 -163 25 -278 66 -278c87 0 208 295 227 409c13 76 21 169 37 213c8 24 44 30 62 30
c10 0 45 -8 45 -25c0 -16 -38 -148 -38 -299c0 -147 15 -281 72 -281c20 0 41 22 71 22c15 0 31 -2 31 -22c0 -18 -52 -72 -102 -72c-100 0 -154 53 -173 193zM456 847c13 -9 19 -27 19 -42c0 -52 -68 -100 -141 -100c-92 0 -133 77 -133 106c0 15 10 33 35 33
c12 -29 47 -71 99 -71c57 0 102 50 121 74z" />
    <glyph glyph-name="ubreve" unicode="&#x16d;" horiz-adv-x="456" 
d="M288 103c-49 -102 -59 -112 -127 -112c-83 0 -132 15 -132 192c0 108 18 191 18 191s-2 5 -2 13c0 14 7 24 46 24c45 0 68 -13 68 -21c0 -4 -4 -7 -4 -7s-19 -89 -19 -215c0 -95 11 -127 19 -127c11 0 81 76 123 224c20 72 16 95 73 95c54 0 58 -21 58 -32
c0 -28 -27 -29 -27 -145c0 -78 12 -126 34 -126c25 0 92 57 110 57c9 0 17 -15 17 -20c0 -13 -72 -94 -146 -94c-68 0 -109 68 -109 103zM370 573c13 -9 19 -27 19 -42c0 -52 -68 -100 -141 -100c-92 0 -133 77 -133 106c0 15 10 33 35 33c12 -29 47 -71 99 -71
c57 0 102 50 121 74z" />
    <glyph glyph-name="Uring" unicode="&#x16e;" horiz-adv-x="617" 
d="M431 185c-74 -175 -130 -223 -213 -223c-52 0 -118 20 -143 51s-58 96 -58 278c0 154 45 374 58 393c8 10 35 18 64 18c30 0 49 -15 49 -25c0 -5 -6 -8 -6 -8s-49 -184 -49 -374c0 -163 25 -278 66 -278c87 0 208 295 227 409c13 76 21 169 37 213c8 24 44 30 62 30
c10 0 45 -8 45 -25c0 -16 -38 -148 -38 -299c0 -147 15 -281 72 -281c20 0 41 22 71 22c15 0 31 -2 31 -22c0 -18 -52 -72 -102 -72c-100 0 -154 53 -173 193zM341 694c-38 0 -77 22 -77 70c0 31 17 106 83 106c21 0 84 -8 84 -67c0 -34 -21 -109 -90 -109zM339 736
c21 0 37 23 37 47c0 16 -7 34 -23 34c-21 0 -34 -33 -34 -55c0 -16 6 -26 20 -26z" />
    <glyph glyph-name="uring" unicode="&#x16f;" horiz-adv-x="456" 
d="M288 103c-49 -102 -59 -112 -127 -112c-83 0 -132 15 -132 192c0 108 18 191 18 191s-2 5 -2 13c0 14 7 24 46 24c45 0 68 -13 68 -21c0 -4 -4 -7 -4 -7s-19 -89 -19 -215c0 -95 11 -127 19 -127c11 0 81 76 123 224c20 72 16 95 73 95c54 0 58 -21 58 -32
c0 -28 -27 -29 -27 -145c0 -78 12 -126 34 -126c25 0 92 57 110 57c9 0 17 -15 17 -20c0 -13 -72 -94 -146 -94c-68 0 -109 68 -109 103zM256 405c-38 0 -77 22 -77 70c0 31 17 106 83 106c21 0 84 -8 84 -67c0 -34 -21 -109 -90 -109zM254 447c21 0 37 23 37 47
c0 16 -7 34 -23 34c-21 0 -34 -33 -34 -55c0 -16 6 -26 20 -26z" />
    <glyph glyph-name="Uhungarumlaut" unicode="&#x170;" horiz-adv-x="617" 
d="M431 185c-74 -175 -130 -223 -213 -223c-52 0 -118 20 -143 51s-58 96 -58 278c0 154 45 374 58 393c8 10 35 18 64 18c30 0 49 -15 49 -25c0 -5 -6 -8 -6 -8s-49 -184 -49 -374c0 -163 25 -278 66 -278c87 0 208 295 227 409c13 76 21 169 37 213c8 24 44 30 62 30
c10 0 45 -8 45 -25c0 -16 -38 -148 -38 -299c0 -147 15 -281 72 -281c20 0 41 22 71 22c15 0 31 -2 31 -22c0 -18 -52 -72 -102 -72c-100 0 -154 53 -173 193zM224 749c33 38 79 133 81 133c27 0 53 -49 53 -58c0 -17 -78 -114 -86 -114c-18 0 -44 23 -48 39zM372 749
c33 38 79 133 81 133c27 0 53 -49 53 -58c0 -17 -78 -114 -86 -114c-18 0 -44 23 -48 39z" />
    <glyph glyph-name="uhungarumlaut" unicode="&#x171;" horiz-adv-x="456" 
d="M127 477c33 38 79 133 81 133c27 0 53 -49 53 -58c0 -17 -78 -114 -86 -114c-18 0 -44 23 -48 39zM275 455c33 38 79 133 81 133c27 0 53 -49 53 -58c0 -17 -78 -114 -86 -114c-18 0 -44 23 -48 39zM288 103c-49 -102 -59 -112 -127 -112c-83 0 -132 15 -132 192
c0 108 18 191 18 191s-2 5 -2 13c0 14 7 24 46 24c45 0 68 -13 68 -21c0 -4 -4 -7 -4 -7s-19 -89 -19 -215c0 -95 11 -127 19 -127c11 0 81 76 123 224c20 72 16 95 73 95c54 0 58 -21 58 -32c0 -28 -27 -29 -27 -145c0 -78 12 -126 34 -126c25 0 92 57 110 57
c9 0 17 -15 17 -20c0 -13 -72 -94 -146 -94c-68 0 -109 68 -109 103z" />
    <glyph glyph-name="Uogonek" unicode="&#x172;" horiz-adv-x="617" 
d="M541 1c-22 -34 -33 -64 -33 -89c0 -26 12 -36 35 -36c35 0 59 22 62 22c2 0 3 -3 3 -8c0 -28 -39 -83 -107 -83c-50 0 -73 30 -73 70c0 55 42 113 77 142c-39 29 -63 82 -74 166c-74 -175 -130 -223 -213 -223c-52 0 -118 20 -143 51s-58 96 -58 278c0 154 45 374 58 393
c8 10 35 18 64 18c30 0 49 -15 49 -25c0 -5 -6 -8 -6 -8s-49 -184 -49 -374c0 -163 25 -278 66 -278c87 0 208 295 227 409c13 76 21 169 37 213c8 24 44 30 62 30c10 0 45 -8 45 -25c0 -16 -38 -148 -38 -299c0 -147 15 -281 72 -281c20 0 41 22 71 22c15 0 31 -2 31 -22
c0 -18 -52 -72 -102 -72c-24 0 -45 3 -63 9z" />
    <glyph glyph-name="uogonek" unicode="&#x173;" horiz-adv-x="456" 
d="M382 1c-22 -34 -33 -64 -33 -89c0 -26 12 -36 35 -36c35 0 59 22 62 22c2 0 3 -3 3 -8c0 -28 -39 -83 -107 -83c-50 0 -73 30 -73 70c0 53 39 109 73 139c-35 23 -54 63 -54 87c-49 -102 -59 -112 -127 -112c-83 0 -132 15 -132 192c0 108 18 191 18 191s-2 5 -2 13
c0 14 7 24 46 24c45 0 68 -13 68 -21c0 -4 -4 -7 -4 -7s-19 -89 -19 -215c0 -95 11 -127 19 -127c11 0 81 76 123 224c20 72 16 95 73 95c54 0 58 -21 58 -32c0 -28 -27 -29 -27 -145c0 -78 12 -126 34 -126c25 0 92 57 110 57c9 0 17 -15 17 -20c0 -13 -72 -94 -146 -94
c-5 0 -10 0 -15 1z" />
    <glyph glyph-name="Wgrave" unicode="&#x1e80;" horiz-adv-x="722" 
d="M329 182c-63 -180 -96 -200 -146 -200c-49 0 -94 13 -121 45c-26 31 -51 92 -51 249c0 154 34 366 41 380c7 12 22 22 52 22c29 0 67 -11 67 -28c0 -14 -17 -25 -17 -25s-30 -130 -30 -321c0 -162 16 -265 40 -265c44 0 99 150 129 299c14 71 27 148 27 195
c0 19 34 27 44 27c50 0 76 -18 76 -36c0 -16 -14 -22 -14 -149c0 -163 20 -328 51 -328c58 0 161 345 161 536c0 28 -2 53 -8 73c-17 15 -25 32 -25 45c0 16 12 28 36 28c42 0 73 -70 73 -186c0 -151 -56 -401 -118 -501c-28 -46 -51 -58 -81 -58c-31 0 -91 15 -107 26
c-49 36 -68 88 -79 172zM406 661c-39 22 -116 109 -128 131c1 12 25 63 60 63c33 -47 77 -117 96 -150c0 -10 -15 -44 -28 -44z" />
    <glyph glyph-name="wgrave" unicode="&#x1e81;" horiz-adv-x="550" 
d="M266 204c-11 -37 -17 -50 -36 -108c-29 -90 -37 -110 -51 -110c-79 0 -89 1 -99 14c-18 23 -46 138 -73 364c-10 20 -13 35 -13 41c0 18 26 31 68 31c39 0 60 -11 60 -31c0 -7 -3 -15 -10 -26c0 0 -1 -14 -1 -24c0 -67 43 -250 44 -255c16 45 55 170 71 215
c14 38 20 47 58 47c18 0 62 -1 62 -23c0 -1 0 -3 -1 -5c8 -27 30 -143 51 -227c38 94 77 205 102 278c3 9 6 16 15 16c14 0 39 -29 39 -55c0 -28 -45 -196 -93 -300c-16 -33 -33 -57 -59 -57c-50 0 -66 8 -80 39c-18 39 -45 127 -54 176zM327 430c-39 22 -116 109 -128 131
c1 12 25 63 60 63c33 -47 77 -117 96 -150c0 -10 -15 -44 -28 -44z" />
    <glyph glyph-name="Wacute" unicode="&#x1e82;" horiz-adv-x="722" 
d="M329 182c-63 -180 -96 -200 -146 -200c-49 0 -94 13 -121 45c-26 31 -51 92 -51 249c0 154 34 366 41 380c7 12 22 22 52 22c29 0 67 -11 67 -28c0 -14 -17 -25 -17 -25s-30 -130 -30 -321c0 -162 16 -265 40 -265c44 0 99 150 129 299c14 71 27 148 27 195
c0 19 34 27 44 27c50 0 76 -18 76 -36c0 -16 -14 -22 -14 -149c0 -163 20 -328 51 -328c58 0 161 345 161 536c0 28 -2 53 -8 73c-17 15 -25 32 -25 45c0 16 12 28 36 28c42 0 73 -70 73 -186c0 -151 -56 -401 -118 -501c-28 -46 -51 -58 -81 -58c-31 0 -91 15 -107 26
c-49 36 -68 88 -79 172zM488 787c-21 -22 -108 -112 -147 -134c-13 0 -28 34 -28 44c22 33 80 116 115 153c35 0 59 -51 60 -63z" />
    <glyph glyph-name="wacute" unicode="&#x1e83;" horiz-adv-x="550" 
d="M266 204c-11 -37 -17 -50 -36 -108c-29 -90 -37 -110 -51 -110c-79 0 -89 1 -99 14c-18 23 -46 138 -73 364c-10 20 -13 35 -13 41c0 18 26 31 68 31c39 0 60 -11 60 -31c0 -7 -3 -15 -10 -26c0 0 -1 -14 -1 -24c0 -67 43 -250 44 -255c16 45 55 170 71 215
c14 38 20 47 58 47c18 0 62 -1 62 -23c0 -1 0 -3 -1 -5c8 -27 30 -143 51 -227c38 94 77 205 102 278c3 9 6 16 15 16c14 0 39 -29 39 -55c0 -28 -45 -196 -93 -300c-16 -33 -33 -57 -59 -57c-50 0 -66 8 -80 39c-18 39 -45 127 -54 176zM398 575
c-21 -22 -108 -112 -147 -134c-13 0 -28 34 -28 44c22 33 80 116 115 153c35 0 59 -51 60 -63z" />
    <glyph glyph-name="Wdieresis" unicode="&#x1e84;" horiz-adv-x="722" 
d="M329 182c-63 -180 -96 -200 -146 -200c-49 0 -94 13 -121 45c-26 31 -51 92 -51 249c0 154 34 366 41 380c7 12 22 22 52 22c29 0 67 -11 67 -28c0 -14 -17 -25 -17 -25s-30 -130 -30 -321c0 -162 16 -265 40 -265c44 0 99 150 129 299c14 71 27 148 27 195
c0 19 34 27 44 27c50 0 76 -18 76 -36c0 -16 -14 -22 -14 -149c0 -163 20 -328 51 -328c58 0 161 345 161 536c0 28 -2 53 -8 73c-17 15 -25 32 -25 45c0 16 12 28 36 28c42 0 73 -70 73 -186c0 -151 -56 -401 -118 -501c-28 -46 -51 -58 -81 -58c-31 0 -91 15 -107 26
c-49 36 -68 88 -79 172zM296 659c-30 0 -55 22 -55 47c0 27 21 55 66 55c32 0 46 -17 46 -37c0 -32 -26 -65 -57 -65zM456 659c-30 0 -55 22 -55 47c0 27 21 55 66 55c32 0 46 -17 46 -37c0 -32 -26 -65 -57 -65z" />
    <glyph glyph-name="wdieresis" unicode="&#x1e85;" horiz-adv-x="550" 
d="M266 204c-11 -37 -17 -50 -36 -108c-29 -90 -37 -110 -51 -110c-79 0 -89 1 -99 14c-18 23 -46 138 -73 364c-10 20 -13 35 -13 41c0 18 26 31 68 31c39 0 60 -11 60 -31c0 -7 -3 -15 -10 -26c0 0 -1 -14 -1 -24c0 -67 43 -250 44 -255c16 45 55 170 71 215
c14 38 20 47 58 47c18 0 62 -1 62 -23c0 -1 0 -3 -1 -5c8 -27 30 -143 51 -227c38 94 77 205 102 278c3 9 6 16 15 16c14 0 39 -29 39 -55c0 -28 -45 -196 -93 -300c-16 -33 -33 -57 -59 -57c-50 0 -66 8 -80 39c-18 39 -45 127 -54 176zM223 459c-30 0 -55 22 -55 47
c0 27 21 55 66 55c32 0 46 -17 46 -37c0 -32 -26 -65 -57 -65zM383 459c-30 0 -55 22 -55 47c0 27 21 55 66 55c32 0 46 -17 46 -37c0 -32 -26 -65 -57 -65z" />
    <glyph glyph-name="Wcircumflex" unicode="&#x174;" horiz-adv-x="722" 
d="M329 182c-63 -180 -96 -200 -146 -200c-49 0 -94 13 -121 45c-26 31 -51 92 -51 249c0 154 34 366 41 380c7 12 22 22 52 22c29 0 67 -11 67 -28c0 -14 -17 -25 -17 -25s-30 -130 -30 -321c0 -162 16 -265 40 -265c44 0 99 150 129 299c14 71 27 148 27 195
c0 19 34 27 44 27c50 0 76 -18 76 -36c0 -16 -14 -22 -14 -149c0 -163 20 -328 51 -328c58 0 161 345 161 536c0 28 -2 53 -8 73c-17 15 -25 32 -25 45c0 16 12 28 36 28c42 0 73 -70 73 -186c0 -151 -56 -401 -118 -501c-28 -46 -51 -58 -81 -58c-31 0 -91 15 -107 26
c-49 36 -68 88 -79 172zM474 695c-24 15 -66 46 -106 79c-52 -45 -80 -69 -97 -82c-21 14 -29 27 -29 39c0 9 4 17 14 26c39 38 101 103 122 114c21 -10 113 -115 129 -137c-3 -16 -23 -39 -33 -39z" />
    <glyph glyph-name="wcircumflex" unicode="&#x175;" horiz-adv-x="550" 
d="M266 204c-11 -37 -17 -50 -36 -108c-29 -90 -37 -110 -51 -110c-79 0 -89 1 -99 14c-18 23 -46 138 -73 364c-10 20 -13 35 -13 41c0 18 26 31 68 31c39 0 60 -11 60 -31c0 -7 -3 -15 -10 -26c0 0 -1 -14 -1 -24c0 -67 43 -250 44 -255c16 45 55 170 71 215
c14 38 20 47 58 47c18 0 62 -1 62 -23c0 -1 0 -3 -1 -5c8 -27 30 -143 51 -227c38 94 77 205 102 278c3 9 6 16 15 16c14 0 39 -29 39 -55c0 -28 -45 -196 -93 -300c-16 -33 -33 -57 -59 -57c-50 0 -66 8 -80 39c-18 39 -45 127 -54 176zM393 448c-24 15 -66 46 -106 79
c-52 -45 -80 -69 -97 -82c-21 14 -29 27 -29 39c0 9 4 17 14 26c39 38 101 103 122 114c21 -10 113 -115 129 -137c-3 -16 -23 -39 -33 -39z" />
    <glyph glyph-name="Yacute" unicode="&#xdd;" horiz-adv-x="376" 
d="M287 260c-12 -118 -12 -211 -12 -258c0 -20 -12 -23 -60 -23c-53 0 -72 9 -72 46c0 11 2 123 5 229c-71 132 -176 318 -209 380c-8 5 -25 12 -25 34c0 12 16 19 33 22c22 20 57 27 77 27c32 0 16 -9 110 -191c22 -43 64 -128 89 -172c58 84 154 233 202 293
c12 15 22 25 32 25c12 0 49 -13 49 -31c0 -9 -9 -25 -15 -35c-30 -51 -127 -193 -204 -346zM366 825c-21 -22 -108 -112 -147 -134c-13 0 -28 34 -28 44c22 33 80 116 115 153c35 0 59 -51 60 -63z" />
    <glyph glyph-name="yacute" unicode="&#xfd;" horiz-adv-x="426" 
d="M271 111c-34 -90 -102 -119 -149 -119c-86 0 -105 97 -105 197c0 61 7 126 16 160c8 30 14 36 34 36c45 0 73 -29 73 -42c0 -5 -4 -7 -4 -7s-13 -67 -13 -165c0 -86 10 -109 17 -109c11 0 85 46 141 342c0 0 -2 4 -2 10c0 8 5 18 30 18c19 0 35 -6 48 -9
c18 -4 29 -7 29 -19c0 -27 -18 -45 -33 -553c-2 -67 -34 -125 -132 -125c-120 0 -209 86 -209 105c0 9 22 9 30 9c60 0 122 -63 168 -63c39 0 35 47 61 334zM311 581c-21 -22 -108 -112 -147 -134c-13 0 -28 34 -28 44c22 33 80 116 115 153c35 0 59 -51 60 -63z" />
    <glyph glyph-name="Ygrave" unicode="&#x1ef2;" horiz-adv-x="376" 
d="M287 260c-12 -118 -12 -211 -12 -258c0 -20 -12 -23 -60 -23c-53 0 -72 9 -72 46c0 11 2 123 5 229c-71 132 -176 318 -209 380c-8 5 -25 12 -25 34c0 12 16 19 33 22c22 20 57 27 77 27c32 0 16 -9 110 -191c22 -43 64 -128 89 -172c58 84 154 233 202 293
c12 15 22 25 32 25c12 0 49 -13 49 -31c0 -9 -9 -25 -15 -35c-30 -51 -127 -193 -204 -346zM264 699c-39 22 -116 109 -128 131c1 12 25 63 60 63c33 -47 77 -117 96 -150c0 -10 -15 -44 -28 -44z" />
    <glyph glyph-name="ygrave" unicode="&#x1ef3;" horiz-adv-x="426" 
d="M271 111c-34 -90 -102 -119 -149 -119c-86 0 -105 97 -105 197c0 61 7 126 16 160c8 30 14 36 34 36c45 0 73 -29 73 -42c0 -5 -4 -7 -4 -7s-13 -67 -13 -165c0 -86 10 -109 17 -109c11 0 85 46 141 342c0 0 -2 4 -2 10c0 8 5 18 30 18c19 0 35 -6 48 -9
c18 -4 29 -7 29 -19c0 -27 -18 -45 -33 -553c-2 -67 -34 -125 -132 -125c-120 0 -209 86 -209 105c0 9 22 9 30 9c60 0 122 -63 168 -63c39 0 35 47 61 334zM211 442c-39 22 -116 109 -128 131c1 12 25 63 60 63c33 -47 77 -117 96 -150c0 -10 -15 -44 -28 -44z" />
    <glyph glyph-name="Ydieresis" unicode="&#x178;" horiz-adv-x="376" 
d="M287 260c-12 -118 -12 -211 -12 -258c0 -20 -12 -23 -60 -23c-53 0 -72 9 -72 46c0 11 2 123 5 229c-71 132 -176 318 -209 380c-8 5 -25 12 -25 34c0 12 16 19 33 22c22 20 57 27 77 27c32 0 16 -9 110 -191c22 -43 64 -128 89 -172c58 84 154 233 202 293
c12 15 22 25 32 25c12 0 49 -13 49 -31c0 -9 -9 -25 -15 -35c-30 -51 -127 -193 -204 -346zM167 711c-30 0 -55 22 -55 47c0 27 21 55 66 55c32 0 46 -17 46 -37c0 -32 -26 -65 -57 -65zM327 711c-30 0 -55 22 -55 47c0 27 21 55 66 55c32 0 46 -17 46 -37
c0 -32 -26 -65 -57 -65z" />
    <glyph glyph-name="ydieresis" unicode="&#xff;" horiz-adv-x="426" 
d="M119 456c-30 0 -55 22 -55 47c0 27 21 55 66 55c32 0 46 -17 46 -37c0 -32 -26 -65 -57 -65zM280 472c-30 0 -55 22 -55 47c0 27 21 55 66 55c32 0 46 -17 46 -37c0 -32 -26 -65 -57 -65zM271 111c-34 -90 -102 -119 -149 -119c-86 0 -105 97 -105 197c0 61 7 126 16 160
c8 30 14 36 34 36c45 0 73 -29 73 -42c0 -5 -4 -7 -4 -7s-13 -67 -13 -165c0 -86 10 -109 17 -109c11 0 85 46 141 342c0 0 -2 4 -2 10c0 8 5 18 30 18c19 0 35 -6 48 -9c18 -4 29 -7 29 -19c0 -27 -18 -45 -33 -553c-2 -67 -34 -125 -132 -125c-120 0 -209 86 -209 105
c0 9 22 9 30 9c60 0 122 -63 168 -63c39 0 35 47 61 334z" />
    <glyph glyph-name="Ycircumflex" unicode="&#x176;" horiz-adv-x="376" 
d="M287 260c-12 -118 -12 -211 -12 -258c0 -20 -12 -23 -60 -23c-53 0 -72 9 -72 46c0 11 2 123 5 229c-71 132 -176 318 -209 380c-8 5 -25 12 -25 34c0 12 16 19 33 22c22 20 57 27 77 27c32 0 16 -9 110 -191c22 -43 64 -128 89 -172c58 84 154 233 202 293
c12 15 22 25 32 25c12 0 49 -13 49 -31c0 -9 -9 -25 -15 -35c-30 -51 -127 -193 -204 -346zM346 731c-24 15 -66 46 -106 79c-52 -45 -80 -69 -97 -82c-21 14 -29 27 -29 39c0 9 4 17 14 26c39 38 101 103 122 114c21 -10 113 -115 129 -137c-3 -16 -23 -39 -33 -39z" />
    <glyph glyph-name="ycircumflex" unicode="&#x177;" horiz-adv-x="426" 
d="M271 111c-34 -90 -102 -119 -149 -119c-86 0 -105 97 -105 197c0 61 7 126 16 160c8 30 14 36 34 36c45 0 73 -29 73 -42c0 -5 -4 -7 -4 -7s-13 -67 -13 -165c0 -86 10 -109 17 -109c11 0 85 46 141 342c0 0 -2 4 -2 10c0 8 5 18 30 18c19 0 35 -6 48 -9
c18 -4 29 -7 29 -19c0 -27 -18 -45 -33 -553c-2 -67 -34 -125 -132 -125c-120 0 -209 86 -209 105c0 9 22 9 30 9c60 0 122 -63 168 -63c39 0 35 47 61 334zM297 483c-24 15 -66 46 -106 79c-52 -45 -80 -69 -97 -82c-21 14 -29 27 -29 39c0 9 4 17 14 26
c39 38 101 103 122 114c21 -10 113 -115 129 -137c-3 -16 -23 -39 -33 -39z" />
    <glyph glyph-name="Zacute" unicode="&#x179;" horiz-adv-x="629" 
d="M180 82h8c31 0 181 20 321 20c62 0 83 -4 92 -24c10 -22 13 -29 13 -35c0 -7 -5 -22 -14 -22c-3 0 -13 2 -29 2c-88 0 -415 -61 -475 -61c-40 0 -69 27 -69 74c0 44 25 79 120 180c102 109 288 294 353 363c-64 -10 -173 -19 -241 -19c-104 0 -154 21 -154 75
c0 8 1 9 5 9s13 -1 25 -1c21 0 76 3 164 14c87 11 217 32 250 32c14 0 37 -4 51 -20c6 -7 11 -17 11 -27c17 -18 27 -40 27 -53c0 -18 -21 -28 -228 -245c-103 -108 -186 -197 -230 -262zM480 856c-21 -22 -108 -112 -147 -134c-13 0 -28 34 -28 44c22 33 80 116 115 153
c35 0 59 -51 60 -63z" />
    <glyph glyph-name="zacute" unicode="&#x17a;" horiz-adv-x="340" 
d="M131 75c0 0 102 19 159 19c21 0 41 -25 41 -51c0 -16 -20 -13 -96 -24c-28 -4 -163 -36 -180 -36s-62 20 -62 62c0 46 188 288 188 288s-79 -14 -115 -14s-64 11 -64 50c0 17 25 19 64 27c90 17 152 22 215 22c29 0 48 -52 48 -58c0 -17 -59 -60 -198 -285zM280 582
c-21 -22 -108 -112 -147 -134c-13 0 -28 34 -28 44c22 33 80 116 115 153c35 0 59 -51 60 -63z" />
    <glyph glyph-name="Zdotaccent" unicode="&#x17b;" horiz-adv-x="629" 
d="M180 82h8c31 0 181 20 321 20c62 0 83 -4 92 -24c10 -22 13 -29 13 -35c0 -7 -5 -22 -14 -22c-3 0 -13 2 -29 2c-88 0 -415 -61 -475 -61c-40 0 -69 27 -69 74c0 44 25 79 120 180c102 109 288 294 353 363c-64 -10 -173 -19 -241 -19c-104 0 -154 21 -154 75
c0 8 1 9 5 9s13 -1 25 -1c21 0 76 3 164 14c87 11 217 32 250 32c14 0 37 -4 51 -20c6 -7 11 -17 11 -27c17 -18 27 -40 27 -53c0 -18 -21 -28 -228 -245c-103 -108 -186 -197 -230 -262zM350 714c-40 0 -75 31 -75 63c0 31 27 61 76 61c44 0 60 -25 60 -53
c0 -37 -26 -71 -61 -71z" />
    <glyph glyph-name="zdotaccent" unicode="&#x17c;" horiz-adv-x="340" 
d="M131 75c0 0 102 19 159 19c21 0 41 -25 41 -51c0 -16 -20 -13 -96 -24c-28 -4 -163 -36 -180 -36s-62 20 -62 62c0 46 188 288 188 288s-79 -14 -115 -14s-64 11 -64 50c0 17 25 19 64 27c90 17 152 22 215 22c29 0 48 -52 48 -58c0 -17 -59 -60 -198 -285zM167 454
c-40 0 -75 31 -75 63c0 31 27 61 76 61c44 0 60 -25 60 -53c0 -37 -26 -71 -61 -71z" />
    <glyph glyph-name="Zcaron" unicode="&#x17d;" horiz-adv-x="629" 
d="M180 82h8c31 0 181 20 321 20c62 0 83 -4 92 -24c10 -22 13 -29 13 -35c0 -7 -5 -22 -14 -22c-3 0 -13 2 -29 2c-88 0 -415 -61 -475 -61c-40 0 -69 27 -69 74c0 44 25 79 120 180c102 109 288 294 353 363c-64 -10 -173 -19 -241 -19c-104 0 -154 21 -154 75
c0 8 1 9 5 9s13 -1 25 -1c21 0 76 3 164 14c87 11 217 32 250 32c14 0 37 -4 51 -20c6 -7 11 -17 11 -27c17 -18 27 -40 27 -53c0 -18 -21 -28 -228 -245c-103 -108 -186 -197 -230 -262zM345 717c-20 10 -113 115 -129 137c3 16 23 39 33 39c24 -15 63 -50 99 -88
c52 45 88 78 104 91c21 -14 30 -27 30 -39c0 -9 -5 -17 -14 -26c-53 -53 -104 -103 -123 -114z" />
    <glyph glyph-name="zcaron" unicode="&#x17e;" horiz-adv-x="340" 
d="M131 75c0 0 102 19 159 19c21 0 41 -25 41 -51c0 -16 -20 -13 -96 -24c-28 -4 -163 -36 -180 -36s-62 20 -62 62c0 46 188 288 188 288s-79 -14 -115 -14s-64 11 -64 50c0 17 25 19 64 27c90 17 152 22 215 22c29 0 48 -52 48 -58c0 -17 -59 -60 -198 -285zM149 448
c-20 10 -113 115 -129 137c3 16 23 39 33 39c24 -15 63 -50 99 -88c52 45 88 78 104 91c21 -14 30 -27 30 -39c0 -9 -5 -17 -14 -26c-53 -53 -104 -103 -123 -114z" />
    <glyph glyph-name="germandbls" unicode="&#xdf;" horiz-adv-x="550" 
d="M149 17c4 -6 6 -21 6 -28c0 -23 -25 -29 -48 -29c-50 0 -72 0 -72 76c0 16 1 32 2 56c29 553 39 733 213 733c137 0 214 -112 214 -227c0 -90 -46 -181 -148 -223c144 -13 204 -108 204 -201c0 -108 -66 -194 -170 -194c-95 0 -182 80 -182 131c0 19 13 25 21 25
c28 0 54 -69 132 -69c63 0 95 46 95 100c0 73 -57 150 -170 150c-13 0 -21 -1 -23 -1c-16 0 -25 34 -25 65c0 17 3 18 11 20c131 31 153 119 153 183c0 82 -36 152 -81 152c-101 0 -133 -363 -133 -599c0 -53 0 -95 1 -120z" />
    <glyph glyph-name="ampersand" unicode="&#x26;" horiz-adv-x="710" 
d="M618 165v-5c0 -79 -167 -177 -339 -177c-103 0 -177 35 -217 89c-26 35 -30 68 -30 81c0 40 35 106 214 157c-133 11 -170 41 -185 78c-8 19 -9 39 -9 46c0 51 49 105 157 151c83 35 176 56 232 56c83 0 108 -45 118 -73c5 -14 9 -30 9 -50c0 -27 -8 -47 -38 -47
c-37 0 -60 30 -85 82c-95 -9 -293 -89 -293 -130c0 -36 155 -43 256 -47c29 -1 44 -37 44 -64c0 -32 -20 -31 -84 -52c-142 -46 -247 -112 -247 -146c0 -19 31 -42 118 -42c143 0 266 63 288 89c-34 0 -44 1 -62 7c-35 12 -55 33 -55 43c0 29 178 62 235 62
c30 0 40 -9 47 -20c8 -13 15 -35 15 -50c0 -9 -3 -18 -25 -26c-16 -6 -39 -10 -64 -12z" />
    <glyph glyph-name="numbersign" unicode="#" horiz-adv-x="693" 
d="M501 195h-49c-16 -55 -29 -105 -37 -135c3 -4 3 -9 3 -13c0 -16 -11 -31 -55 -31c-23 0 -50 8 -50 28c0 14 17 74 41 149h-139c-16 -54 -29 -103 -35 -133c1 -4 2 -9 2 -13c0 -16 -13 -31 -54 -31c-25 0 -50 8 -50 28c0 14 16 70 38 144c-21 -1 -33 -1 -46 -1
c-41 0 -61 34 -61 53c0 15 15 20 132 29l35 109c-28 -1 -44 -2 -57 -2c-41 0 -62 34 -62 53c0 15 18 22 144 29c20 66 38 124 46 160c11 47 44 50 78 50c38 0 52 -16 52 -28c0 -15 -24 -19 -76 -178c37 0 82 1 138 1c18 64 34 120 43 155c11 47 45 50 80 50
c38 0 50 -16 50 -28c0 -9 -17 -18 -40 -76c-6 -16 -18 -52 -34 -100h13c56 0 90 -5 90 -53c0 -20 -8 -27 -93 -27h-37l-35 -109h27c56 0 89 -5 89 -53c0 -20 -7 -27 -91 -27zM379 274l35 107h-139l-36 -108c38 1 83 1 140 1z" />
    <glyph glyph-name="zero" unicode="0" horiz-adv-x="701" 
d="M524 611c101 -87 123 -162 123 -275c0 -99 -17 -175 -57 -238c-58 -91 -160 -149 -260 -149c-87 0 -194 44 -257 114c-47 52 -71 118 -71 199c0 132 65 318 155 395c40 34 79 43 132 43c71 0 163 -16 235 -89zM307 18c126 0 227 120 227 343c0 92 -17 145 -48 184
c-48 60 -120 81 -152 81c-97 0 -209 -195 -209 -374c0 -143 72 -234 182 -234z" />
    <glyph glyph-name="one" unicode="1" horiz-adv-x="331" 
d="M198 95c22 -1 41 -6 54 -16c20 -15 27 -38 27 -55c0 -25 -18 -25 -63 -25c-77 -1 -142 -8 -192 -8c-53 0 -60 8 -60 28c0 19 7 29 27 40c22 11 55 20 88 26c8 139 10 392 20 548c0 0 -13 -3 -33 -3c-56 0 -67 23 -67 37c0 39 84 51 151 51c65 0 77 -11 77 -32
c0 -32 -27 -301 -29 -591z" />
    <glyph glyph-name="two" unicode="2" horiz-adv-x="648" 
d="M250 102c0 0 80 13 147 13c103 0 162 -30 162 -67c0 -18 -15 -31 -30 -31c-8 0 -20 4 -79 4c-143 0 -290 -23 -397 -47c-8 -12 -13 -15 -22 -15c-16 0 -38 9 -38 71c0 43 11 48 29 51c273 108 442 315 442 459c0 64 -21 112 -93 112c-68 0 -208 -129 -260 -257
c4 -5 6 -14 6 -21c0 -18 -14 -37 -31 -37c-13 0 -70 11 -70 78s58 171 126 238c84 83 158 84 173 84c79 0 140 -26 182 -68c61 -61 80 -149 80 -194c0 -111 -117 -239 -327 -373z" />
    <glyph glyph-name="three" unicode="3" horiz-adv-x="630" 
d="M396 331c116 -34 158 -106 158 -166c0 -124 -176 -204 -329 -204c-134 0 -225 61 -225 128c0 39 30 68 58 68c26 0 26 -24 26 -46c0 -26 47 -53 129 -53c140 0 230 80 230 123c0 42 -89 69 -175 69c-62 0 -72 -14 -86 -14c-20 0 -38 26 -38 74c0 34 9 44 15 44
c5 0 20 -6 46 -6c116 0 244 121 244 206c0 58 -61 75 -92 75c-69 0 -197 -82 -253 -211c6 -4 8 -6 8 -9c0 -5 -5 -13 -20 -13c-27 0 -87 25 -87 76c0 82 157 257 315 257c79 0 121 -44 192 -121c42 -45 54 -59 54 -91c0 -55 -36 -128 -170 -186z" />
    <glyph glyph-name="four" unicode="4" horiz-adv-x="693" 
d="M545 146l-2 -146c0 -19 -35 -23 -65 -23c-37 0 -62 6 -62 20c0 27 2 81 5 145c-330 -10 -306 -12 -380 -12c-15 0 -27 23 -35 61c-6 29 -12 47 -12 57c0 25 111 129 206 218c61 57 213 198 264 235c20 14 29 18 64 18c42 0 62 -6 62 -36c0 -23 -12 -21 -16 -71
c-15 -202 -22 -292 -26 -367h26c57 0 76 -1 79 -26c0 0 9 -11 9 -30c0 -34 -31 -40 -117 -43zM102 228c101 6 213 12 325 15c8 144 17 295 17 312c-99 -99 -220 -196 -342 -327z" />
    <glyph glyph-name="five" unicode="5" horiz-adv-x="682" 
d="M201 572c-9 -63 -12 -177 -12 -202c0 0 39 15 113 15c134 0 243 -39 288 -117c18 -31 31 -55 31 -90c0 -138 -192 -224 -375 -224c-208 0 -238 111 -238 145c0 25 16 51 50 51c65 0 20 -93 144 -93c81 0 330 39 330 139c0 62 -98 92 -207 92c-148 0 -211 -55 -214 -55
c-15 0 -49 21 -49 36c0 40 10 278 16 342c3 34 8 46 37 54c26 7 96 18 220 18c37 0 163 -1 221 -10c48 -8 66 -24 66 -56c0 -16 -12 -32 -30 -32c-4 0 -8 1 -13 3c-72 0 -327 -6 -378 -16z" />
    <glyph glyph-name="six" unicode="6" horiz-adv-x="679" 
d="M132 259c101 74 213 102 267 102c92 0 229 -79 229 -196c0 -156 -245 -220 -326 -220c-56 0 -138 30 -198 80s-95 120 -95 230c0 92 24 185 52 257c55 142 137 223 240 223c0 0 58 -5 116 -29c155 -64 165 -207 165 -278c0 -17 -72 -33 -96 -33c-6 0 -7 1 -8 12
c-3 46 -18 240 -126 240c-94 0 -212 -146 -220 -388zM138 142c20 -116 79 -125 112 -125c112 0 233 104 255 167c3 8 4 16 4 21c0 31 -43 38 -100 38c-163 0 -243 -57 -271 -101z" />
    <glyph glyph-name="seven" unicode="7" horiz-adv-x="597" 
d="M419 574c-123 0 -240 -6 -304 -18c-9 -37 -22 -79 -35 -114c-17 -44 -28 -52 -44 -52c-28 0 -63 27 -63 54c0 26 34 167 37 181c13 51 22 61 46 61c18 0 55 -6 67 -37c103 16 206 23 397 23c17 0 23 -2 31 -14c10 -15 17 -33 17 -41c0 -15 -26 -30 -138 -278
c-145 -319 -145 -389 -169 -389c-7 0 -46 7 -69 19c-17 9 -18 17 -18 23c0 90 198 490 245 582z" />
    <glyph glyph-name="eight" unicode="8" horiz-adv-x="672" 
d="M413 328c36 -9 69 -20 97 -34c56 -28 102 -74 102 -136c0 -93 -102 -211 -297 -211c-202 0 -312 127 -312 201c0 35 25 137 154 178c-93 35 -130 107 -130 156c0 97 152 233 283 233c43 0 106 -15 161 -50c52 -33 96 -86 96 -147c0 -65 -50 -150 -154 -190zM493 169
c0 74 -119 109 -181 109c-109 0 -196 -106 -196 -162c0 -67 125 -78 172 -78c115 0 205 66 205 131zM442 533c0 41 -26 81 -91 81c-110 0 -212 -116 -212 -162c0 -33 54 -67 130 -67c124 0 173 92 173 148z" />
    <glyph glyph-name="nine" unicode="9" horiz-adv-x="660" 
d="M448 307c-70 -42 -176 -62 -227 -62c-121 0 -235 117 -235 201c0 105 177 272 307 272c17 0 74 -3 133 -28c130 -56 154 -177 154 -292c0 -240 -104 -444 -304 -444c-44 0 -86 10 -119 24c-111 47 -135 147 -135 194c0 14 2 30 18 41c19 13 57 22 73 22
c11 0 25 -4 25 -22c0 -7 -2 -5 -2 -21c0 -57 24 -168 100 -168c69 0 178 90 212 283zM459 436c-2 171 -58 197 -90 197c-79 0 -275 -147 -275 -232c0 -17 8 -55 86 -55c96 0 240 57 279 90z" />
    <glyph glyph-name="st.sup" horiz-adv-x="573" 
d="M172 463c57 -36 81 -52 81 -87c0 -39 -31 -72 -103 -72c-54 0 -110 19 -146 37c-25 13 -42 27 -42 34c0 9 20 33 33 33c8 0 9 -7 9 -7s60 -40 113 -40c27 0 32 11 32 20c0 24 -42 44 -79 66c-47 26 -84 53 -84 105c0 66 57 114 146 114c53 0 125 -18 125 -48
c0 -10 -9 -33 -16 -33c-5 0 -23 14 -62 14c-31 0 -90 -9 -90 -54c0 -31 27 -45 83 -82zM315 715l2 58c1 30 14 36 45 36c30 0 49 -6 49 -17c0 -7 -9 -8 -11 -28c-2 -13 -3 -27 -4 -43c68 0 73 -1 82 -8c10 -9 15 -22 15 -36c0 -6 -55 -14 -100 -17c-3 -76 -4 -164 -4 -216
c0 -57 6 -80 27 -80c26 0 93 39 105 39c3 0 10 -6 10 -11c0 -20 -11 -33 -53 -55c-43 -22 -68 -28 -88 -28c-19 0 -51 16 -66 47c-13 23 -16 49 -16 83c0 76 2 149 5 221c-16 1 -30 2 -31 2c-15 1 -52 14 -52 32c0 4 40 15 85 21z" />
    <glyph glyph-name="nd.sup" horiz-adv-x="763" 
d="M375 322l-4 -3c-32 -22 -62 -26 -82 -26c-56 0 -84 34 -84 91c0 26 6 95 6 112c0 29 -16 37 -23 37c-28 0 -77 -87 -102 -237c0 -15 -2 -23 -27 -23c-38 0 -58 18 -58 47c0 25 10 200 20 261c5 27 10 31 24 31c46 0 52 -12 52 -22c0 -9 -7 -17 -11 -100
c31 74 53 97 86 97c23 0 52 -10 77 -26c30 -17 45 -38 45 -80c0 -22 -4 -65 -4 -98c0 -31 3 -37 19 -37c19 0 40 11 55 19v18c0 94 48 244 115 244c8 0 23 -3 34 -6c44 -13 55 -27 65 -38c3 73 8 119 11 195c0 0 -5 13 -5 24c0 22 20 26 49 26c36 0 57 -8 57 -23
c0 -10 -12 -17 -16 -38c-9 -34 -21 -157 -21 -286c0 -115 10 -127 21 -127c23 0 71 56 87 56c7 0 15 -14 15 -21c0 -18 -48 -86 -102 -86c-26 0 -59 14 -74 37c-2 4 -4 8 -5 12c-31 -60 -71 -88 -112 -88c-24 0 -48 11 -69 22c-17 9 -30 20 -39 36zM576 528
c-10 30 -46 40 -54 40c-23 0 -76 -77 -76 -189c0 -46 10 -73 25 -73c25 0 103 85 105 222z" />
    <glyph glyph-name="rd.sup" horiz-adv-x="635" 
d="M94 316c0 0 3 -4 3 -5c0 -6 -26 -16 -46 -16c-8 0 -41 2 -41 21c0 31 2 190 7 242c4 34 8 39 35 39c29 0 37 -6 37 -14c0 -3 -2 -40 -2 -67c28 97 57 120 82 120c17 0 69 -7 69 -50c0 -21 -8 -36 -30 -36c-18 0 -33 10 -47 12c-13 -17 -67 -106 -67 -246zM466 353
c-31 -60 -70 -88 -111 -88c-24 0 -48 11 -69 22c-33 17 -51 41 -51 97c0 94 48 244 116 244c7 0 23 -3 34 -6c44 -14 55 -27 65 -38c3 73 7 119 11 195c0 0 -6 13 -6 24c0 22 21 26 50 26c36 0 57 -9 57 -23c0 -10 -12 -18 -17 -38c-9 -35 -21 -157 -21 -286
c0 -116 10 -128 21 -128c23 0 72 56 87 56c8 0 16 -13 16 -20c0 -18 -49 -86 -103 -86c-25 0 -58 14 -73 37c-3 3 -5 8 -6 12zM447 529c-9 30 -46 40 -53 40c-24 0 -76 -77 -76 -189c0 -47 9 -73 25 -73c24 0 102 85 104 222z" />
    <glyph glyph-name="d.superior" horiz-adv-x="402" 
d="M233 353c-31 -60 -70 -88 -111 -88c-24 0 -48 11 -69 22c-33 17 -51 41 -51 97c0 94 48 244 115 244c8 0 24 -3 35 -6c44 -14 55 -27 65 -38c3 73 7 119 10 195c0 0 -5 13 -5 24c0 22 21 26 49 26c37 0 58 -9 58 -23c0 -10 -12 -18 -17 -38c-9 -35 -21 -157 -21 -286
c0 -116 10 -128 21 -128c23 0 72 56 87 56c8 0 16 -13 16 -20c0 -18 -49 -86 -103 -86c-25 0 -58 14 -74 37c-2 3 -4 8 -5 12zM214 529c-10 30 -46 40 -54 40c-23 0 -75 -77 -75 -189c0 -47 9 -73 25 -73c24 0 102 85 104 222z" />
    <glyph glyph-name="th.sup" horiz-adv-x="674" 
d="M231 311v45c-7 -6 -17 -11 -29 -17c-43 -23 -68 -28 -88 -28c-18 0 -50 15 -66 46c-13 23 -15 50 -15 84c0 68 5 128 10 187c-19 1 -36 3 -37 3c-15 1 -51 13 -51 32c0 4 45 15 93 21c2 24 3 47 4 72c1 30 14 37 45 37c29 0 48 -7 48 -18c0 -7 -9 -8 -11 -28l-6 -58
c59 0 66 -1 74 -8c10 -8 16 -22 16 -36c0 -6 -52 -13 -96 -17c-5 -66 -9 -136 -9 -183c0 -56 7 -79 28 -79c20 0 67 26 91 35c6 160 24 299 24 368c0 34 -4 47 -4 59c0 6 11 14 36 14c44 0 56 -10 56 -21c0 -4 -5 -13 -5 -13c-6 -71 -22 -243 -22 -296c13 43 39 76 94 76
c37 0 70 -17 86 -56c13 -31 13 -55 13 -123c0 -45 0 -69 27 -69c25 0 57 61 71 61c4 0 25 -9 25 -15c0 -5 -12 -23 -29 -44c-17 -20 -37 -42 -64 -42c-28 0 -63 12 -80 33c-21 23 -27 58 -27 101c0 83 -4 94 -24 94c-44 0 -100 -176 -100 -232c0 -13 -12 -21 -31 -21
c-30 0 -47 6 -47 36z" />
    <glyph glyph-name="zerosuperior" unicode="&#x2070;" horiz-adv-x="440" 
d="M276 387c-29 -15 -61 -21 -89 -21c-100 0 -199 78 -199 211c0 65 24 143 60 190c32 43 72 60 114 60c87 0 224 -73 224 -238c0 -95 -45 -168 -110 -202zM170 430c51 0 128 66 128 167c0 78 -46 150 -108 150c-77 0 -106 -115 -106 -188c0 -99 52 -129 86 -129z" />
    <glyph glyph-name="onesuperior" unicode="&#xb9;" 
d="M34 757h-8c-41 0 -50 20 -50 32c0 31 56 39 98 39c47 0 55 -10 55 -29c0 -7 -1 -19 -3 -41c-5 -59 -14 -199 -14 -294c11 -2 20 -5 28 -11c14 -11 19 -26 19 -40c0 -24 -14 -24 -46 -24c-35 0 -75 -4 -109 -4c-39 0 -48 5 -48 23c0 34 34 42 68 50c2 31 2 80 4 137
c3 105 5 150 6 162z" />
    <glyph glyph-name="twosuperior" unicode="&#xb2;" horiz-adv-x="405" 
d="M33 375c-6 -7 -10 -9 -18 -9c-13 0 -32 6 -32 50c0 28 8 34 22 40c160 73 252 164 252 257c0 33 -12 57 -39 57c-45 0 -114 -66 -146 -139c2 -5 2 -8 2 -14c0 -14 -12 -31 -27 -31c-9 0 -51 8 -51 55c0 42 34 106 76 147c51 50 98 51 110 51c47 0 84 -16 111 -43
c37 -38 49 -91 49 -119c0 -61 -58 -130 -160 -202c15 1 30 2 44 2c68 0 106 -22 106 -49c0 -13 -9 -28 -30 -28c-9 0 -15 3 -49 3c-71 0 -157 -13 -220 -28z" />
    <glyph glyph-name="threesuperior" unicode="&#xb3;" horiz-adv-x="397" 
d="M253 594c54 -24 76 -64 76 -98c0 -78 -107 -128 -201 -128c-84 0 -141 39 -141 83c0 29 22 50 43 50c25 0 25 -19 25 -36c0 -11 24 -22 66 -22c76 0 124 41 124 63c0 18 -47 30 -92 30c-27 0 -32 -8 -51 -8c-16 0 -32 18 -32 53c0 27 13 35 19 35c8 0 14 -3 27 -3
c63 0 132 64 132 109c0 27 -28 35 -44 35c-36 0 -104 -43 -136 -110c3 -3 3 -4 3 -9c0 -7 -6 -17 -21 -17c-19 0 -60 18 -60 54c0 50 96 159 193 159c50 0 78 -27 119 -73c25 -27 35 -38 35 -60c0 -32 -19 -74 -84 -107z" />
    <glyph glyph-name="foursuperior" unicode="&#x2074;" horiz-adv-x="434" 
d="M324 476c0 -27 -1 -50 -1 -76c0 -19 -25 -24 -47 -24c-27 0 -46 7 -46 22s0 37 2 74c-181 -6 -189 -6 -211 -6s-38 58 -38 79c0 16 60 75 110 121c59 55 126 115 168 151c13 11 21 11 44 11c31 0 46 -3 46 -30c0 -7 -1 -12 -4 -17c-2 -4 -5 -10 -6 -25
c-10 -111 -13 -161 -15 -204c41 0 66 0 66 -42c0 -26 -20 -33 -68 -34zM236 551l9 148c-98 -88 -123 -110 -166 -155c49 4 108 6 157 7z" />
    <glyph glyph-name="fivesuperior" unicode="&#x2075;" horiz-adv-x="423" 
d="M63 526c-13 0 -42 18 -42 30c0 23 6 160 10 201c2 23 6 34 28 40c15 4 56 11 131 11c21 0 96 0 130 -6c33 -5 47 -18 47 -43c0 -13 -11 -28 -27 -28c-2 0 -5 0 -9 2c-50 -1 -173 -5 -210 -9c-4 -30 -6 -72 -7 -96c12 3 28 6 57 6c81 0 146 -25 177 -73
c11 -17 19 -35 19 -57c0 -87 -118 -141 -228 -141c-131 0 -149 73 -149 94c0 20 11 40 39 40c20 0 29 -14 35 -26c5 -13 13 -29 48 -29c46 0 183 21 183 72c0 30 -52 44 -111 44c-75 0 -114 -26 -121 -32z" />
    <glyph glyph-name="sixsuperior" unicode="&#x2076;" horiz-adv-x="424" 
d="M83 570c57 36 116 50 146 50c57 0 143 -50 143 -124c0 -98 -151 -138 -201 -138c-34 0 -84 18 -121 49s-59 73 -59 140c0 56 15 112 32 155c33 82 86 136 145 136c14 0 44 -2 75 -16c88 -39 99 -115 99 -152c0 -15 -49 -30 -69 -30c-7 0 -11 2 -11 16
c-1 28 -13 111 -62 111c-45 0 -108 -68 -117 -197zM87 481c11 -57 38 -62 55 -62c38 0 140 51 140 97c0 14 -16 16 -42 16c-94 0 -133 -26 -153 -51z" />
    <glyph glyph-name="sevensuperior" unicode="&#x2077;" horiz-adv-x="375" 
d="M221 724c-61 0 -117 -2 -152 -7c-5 -20 -13 -44 -20 -64c-11 -30 -20 -36 -39 -36c-16 0 -38 4 -38 52c0 31 9 70 17 98c11 39 19 43 35 43c13 0 35 -3 46 -21c58 8 123 12 201 12c39 0 46 -1 53 -11c5 -7 10 -25 10 -31s-5 -14 -8 -18c-3 -5 -28 -50 -73 -147
c-42 -91 -66 -153 -78 -187c-14 -39 -18 -46 -28 -46c-7 0 -33 3 -47 11s-15 17 -15 24c0 51 102 260 136 328z" />
    <glyph glyph-name="eightsuperior" unicode="&#x2078;" horiz-adv-x="419" 
d="M263 594c47 -16 98 -48 98 -101c0 -59 -62 -134 -182 -134c-123 0 -192 80 -192 125c0 23 18 77 74 107c-40 25 -61 63 -61 91c0 59 95 145 175 145c27 0 66 -10 100 -32c33 -21 60 -54 60 -93c0 -36 -24 -81 -72 -108zM273 498c0 37 -64 54 -96 54
c-58 0 -105 -55 -105 -83c0 -33 68 -37 90 -37c63 0 111 33 111 66zM242 711c0 18 -10 37 -43 37c-59 0 -114 -62 -114 -84c0 -16 29 -30 65 -30c67 0 92 48 92 77z" />
    <glyph glyph-name="ninesuperior" unicode="&#x2079;" horiz-adv-x="412" 
d="M245 557c-41 -18 -92 -27 -118 -27c-76 0 -147 74 -147 127c0 65 108 168 190 168c8 0 43 -1 80 -17c81 -35 95 -109 95 -178c0 -146 -63 -270 -186 -270c-27 0 -52 6 -74 16c-57 26 -75 70 -75 101c0 13 3 22 15 31c16 12 39 16 49 16c8 0 23 -3 23 -25
c0 -25 2 -79 38 -79c34 0 88 44 110 137zM255 657c-2 88 -27 99 -43 99c-43 0 -150 -79 -150 -125c0 -8 3 -22 40 -22c53 0 130 30 153 48z" />
    <glyph glyph-name="zeroinferior" unicode="&#x2080;" horiz-adv-x="430" 
d="M281 -210c-29 -15 -61 -21 -89 -21c-100 0 -199 78 -199 211c0 65 24 143 60 190c32 43 72 60 114 60c87 0 224 -73 224 -238c0 -95 -45 -168 -110 -202zM175 -167c51 0 128 66 128 167c0 78 -46 150 -108 150c-77 0 -106 -115 -106 -188c0 -99 52 -129 86 -129z" />
    <glyph glyph-name="oneinferior" unicode="&#x2081;" horiz-adv-x="203" 
d="M40 160h-8c-41 0 -50 20 -50 32c0 31 56 39 98 39c47 0 55 -10 55 -29c0 -7 -1 -19 -3 -41c-5 -59 -14 -199 -14 -294c11 -2 20 -5 28 -11c14 -11 19 -26 19 -40c0 -24 -14 -24 -46 -24c-35 0 -75 -4 -109 -4c-39 0 -48 5 -48 23c0 34 34 42 68 50c2 31 2 80 4 137
c3 105 5 150 6 162z" />
    <glyph glyph-name="twoinferior" unicode="&#x2082;" horiz-adv-x="395" 
d="M38 -222c-6 -7 -10 -9 -18 -9c-13 0 -32 6 -32 50c0 28 8 34 22 40c160 73 252 164 252 257c0 33 -12 57 -39 57c-45 0 -114 -66 -146 -139c2 -5 2 -8 2 -14c0 -14 -12 -31 -27 -31c-9 0 -51 8 -51 55c0 42 34 106 76 147c51 50 98 51 110 51c47 0 84 -16 111 -43
c37 -38 49 -91 49 -119c0 -61 -58 -130 -160 -202c15 1 30 2 44 2c68 0 106 -22 106 -49c0 -13 -9 -28 -30 -28c-9 0 -15 3 -49 3c-71 0 -157 -13 -220 -28z" />
    <glyph glyph-name="threeinferior" unicode="&#x2083;" horiz-adv-x="387" 
d="M258 -3c54 -24 76 -64 76 -98c0 -78 -107 -128 -201 -128c-84 0 -141 39 -141 83c0 29 22 50 43 50c25 0 25 -19 25 -36c0 -11 24 -22 66 -22c76 0 124 41 124 63c0 18 -47 30 -92 30c-27 0 -32 -8 -51 -8c-16 0 -32 18 -32 53c0 27 13 35 19 35c8 0 14 -3 27 -3
c63 0 132 64 132 109c0 27 -28 35 -44 35c-36 0 -104 -43 -136 -110c3 -3 3 -4 3 -9c0 -7 -6 -17 -21 -17c-19 0 -60 18 -60 54c0 50 96 159 193 159c50 0 78 -27 119 -73c25 -27 35 -38 35 -60c0 -32 -19 -74 -84 -107z" />
    <glyph glyph-name="fourinferior" unicode="&#x2084;" horiz-adv-x="424" 
d="M329 -121c0 -27 -1 -50 -1 -76c0 -19 -25 -24 -47 -24c-27 0 -46 7 -46 22s0 37 2 74c-181 -6 -189 -6 -211 -6s-38 58 -38 79c0 16 60 75 110 121c59 55 126 115 168 151c13 11 21 11 44 11c31 0 46 -3 46 -30c0 -7 -1 -12 -4 -17c-2 -4 -5 -10 -6 -25
c-10 -111 -13 -161 -15 -204c41 0 66 0 66 -42c0 -26 -20 -33 -68 -34zM241 -46l9 148c-98 -88 -123 -110 -166 -155c49 4 108 6 157 7z" />
    <glyph glyph-name="fiveinferior" unicode="&#x2085;" horiz-adv-x="413" 
d="M68 -71c-13 0 -42 18 -42 30c0 23 6 160 10 201c2 23 6 34 28 40c15 4 56 11 131 11c21 0 96 0 130 -6c33 -5 47 -18 47 -43c0 -13 -11 -28 -27 -28c-2 0 -5 0 -9 2c-50 -1 -173 -5 -210 -9c-4 -30 -6 -72 -7 -96c12 3 28 6 57 6c81 0 146 -25 177 -73
c11 -17 19 -35 19 -57c0 -87 -118 -141 -228 -141c-131 0 -149 73 -149 94c0 20 11 40 39 40c20 0 29 -14 35 -26c5 -13 13 -29 48 -29c46 0 183 21 183 72c0 30 -52 44 -111 44c-75 0 -114 -26 -121 -32z" />
    <glyph glyph-name="sixinferior" unicode="&#x2086;" horiz-adv-x="414" 
d="M88 -27c57 36 116 50 146 50c57 0 143 -50 143 -124c0 -98 -151 -138 -201 -138c-34 0 -84 18 -121 49s-59 73 -59 140c0 56 15 112 32 155c33 82 86 136 145 136c14 0 44 -2 75 -16c88 -39 99 -115 99 -152c0 -15 -49 -30 -69 -30c-7 0 -11 2 -11 16
c-1 28 -13 111 -62 111c-45 0 -108 -68 -117 -197zM92 -116c11 -57 38 -62 55 -62c38 0 140 51 140 97c0 14 -16 16 -42 16c-94 0 -133 -26 -153 -51z" />
    <glyph glyph-name="seveninferior" unicode="&#x2087;" horiz-adv-x="365" 
d="M226 127c-61 0 -117 -2 -152 -7c-5 -20 -13 -44 -20 -64c-11 -30 -20 -36 -39 -36c-16 0 -38 4 -38 52c0 31 9 70 17 98c11 39 19 43 35 43c13 0 35 -3 46 -21c58 8 123 12 201 12c39 0 46 -1 53 -11c5 -7 10 -25 10 -31s-5 -14 -8 -18c-3 -5 -28 -50 -73 -147
c-42 -91 -66 -153 -78 -187c-14 -39 -18 -46 -28 -46c-7 0 -33 3 -47 11s-15 17 -15 24c0 51 102 260 136 328z" />
    <glyph glyph-name="eightinferior" unicode="&#x2088;" horiz-adv-x="408" 
d="M268 -3c47 -16 98 -48 98 -101c0 -59 -62 -134 -182 -134c-123 0 -192 80 -192 125c0 23 18 77 74 107c-40 25 -61 63 -61 91c0 59 95 145 175 145c27 0 66 -10 100 -32c33 -21 60 -54 60 -93c0 -36 -24 -81 -72 -108zM278 -99c0 37 -64 54 -96 54
c-58 0 -105 -55 -105 -83c0 -33 68 -37 90 -37c63 0 111 33 111 66zM247 114c0 18 -10 37 -43 37c-59 0 -114 -62 -114 -84c0 -16 29 -30 65 -30c67 0 92 48 92 77z" />
    <glyph glyph-name="nineinferior" unicode="&#x2089;" horiz-adv-x="401" 
d="M250 -40c-41 -18 -92 -27 -118 -27c-76 0 -147 74 -147 127c0 65 108 168 190 168c8 0 43 -1 80 -17c81 -35 95 -109 95 -178c0 -146 -63 -270 -186 -270c-27 0 -52 6 -74 16c-57 26 -75 70 -75 101c0 13 3 22 15 31c16 12 39 16 49 16c8 0 23 -3 23 -25
c0 -25 2 -79 38 -79c34 0 88 44 110 137zM260 60c-2 88 -27 99 -43 99c-43 0 -150 -79 -150 -125c0 -8 3 -22 40 -22c53 0 130 30 153 48z" />
    <glyph glyph-name="zero.numr" horiz-adv-x="430" 
d="M281 260c-29 -15 -61 -21 -89 -21c-100 0 -199 78 -199 211c0 65 24 143 60 190c32 43 72 60 114 60c87 0 224 -73 224 -238c0 -95 -45 -168 -110 -202zM175 303c51 0 128 66 128 167c0 78 -46 150 -108 150c-77 0 -106 -115 -106 -188c0 -99 52 -129 86 -129z" />
    <glyph glyph-name="one.numr" horiz-adv-x="203" 
d="M40 630h-8c-41 0 -50 20 -50 32c0 31 56 39 98 39c47 0 55 -10 55 -29c0 -7 -1 -19 -3 -41c-5 -59 -14 -199 -14 -294c11 -2 20 -5 28 -11c14 -11 19 -26 19 -40c0 -24 -14 -24 -46 -24c-35 0 -75 -4 -109 -4c-39 0 -48 5 -48 23c0 34 34 42 68 50c2 31 2 80 4 137
c3 105 5 150 6 162z" />
    <glyph glyph-name="two.numr" horiz-adv-x="395" 
d="M38 248c-6 -7 -10 -9 -18 -9c-13 0 -32 6 -32 50c0 28 8 34 22 40c160 73 252 164 252 257c0 33 -12 57 -39 57c-45 0 -114 -66 -146 -139c2 -5 2 -8 2 -14c0 -14 -12 -31 -27 -31c-9 0 -51 8 -51 55c0 42 34 106 76 147c51 50 98 51 110 51c47 0 84 -16 111 -43
c37 -38 49 -91 49 -119c0 -61 -58 -130 -160 -202c15 1 30 2 44 2c68 0 106 -22 106 -49c0 -13 -9 -28 -30 -28c-9 0 -15 3 -49 3c-71 0 -157 -13 -220 -28z" />
    <glyph glyph-name="three.numr" horiz-adv-x="387" 
d="M258 467c54 -24 76 -64 76 -98c0 -78 -107 -128 -201 -128c-84 0 -141 39 -141 83c0 29 22 50 43 50c25 0 25 -19 25 -36c0 -11 24 -22 66 -22c76 0 124 41 124 63c0 18 -47 30 -92 30c-27 0 -32 -8 -51 -8c-16 0 -32 18 -32 53c0 27 13 35 19 35c8 0 14 -3 27 -3
c63 0 132 64 132 109c0 27 -28 35 -44 35c-36 0 -104 -43 -136 -110c3 -3 3 -4 3 -9c0 -7 -6 -17 -21 -17c-19 0 -60 18 -60 54c0 50 96 159 193 159c50 0 78 -27 119 -73c25 -27 35 -38 35 -60c0 -32 -19 -74 -84 -107z" />
    <glyph glyph-name="four.numr" horiz-adv-x="424" 
d="M329 349c0 -27 -1 -50 -1 -76c0 -19 -25 -24 -47 -24c-27 0 -46 7 -46 22s0 37 2 74c-181 -6 -189 -6 -211 -6s-38 58 -38 79c0 16 60 75 110 121c59 55 126 115 168 151c13 11 21 11 44 11c31 0 46 -3 46 -30c0 -7 -1 -12 -4 -17c-2 -4 -5 -10 -6 -25
c-10 -111 -13 -161 -15 -204c41 0 66 0 66 -42c0 -26 -20 -33 -68 -34zM241 424l9 148c-98 -88 -123 -110 -166 -155c49 4 108 6 157 7z" />
    <glyph glyph-name="five.numr" horiz-adv-x="413" 
d="M68 399c-13 0 -42 18 -42 30c0 23 6 160 10 201c2 23 6 34 28 40c15 4 56 11 131 11c21 0 96 0 130 -6c33 -5 47 -18 47 -43c0 -13 -11 -28 -27 -28c-2 0 -5 0 -9 2c-50 -1 -173 -5 -210 -9c-4 -30 -6 -72 -7 -96c12 3 28 6 57 6c81 0 146 -25 177 -73
c11 -17 19 -35 19 -57c0 -87 -118 -141 -228 -141c-131 0 -149 73 -149 94c0 20 11 40 39 40c20 0 29 -14 35 -26c5 -13 13 -29 48 -29c46 0 183 21 183 72c0 30 -52 44 -111 44c-75 0 -114 -26 -121 -32z" />
    <glyph glyph-name="six.numr" horiz-adv-x="414" 
d="M88 443c57 36 116 50 146 50c57 0 143 -50 143 -124c0 -98 -151 -138 -201 -138c-34 0 -84 18 -121 49s-59 73 -59 140c0 56 15 112 32 155c33 82 86 136 145 136c14 0 44 -2 75 -16c88 -39 99 -115 99 -152c0 -15 -49 -30 -69 -30c-7 0 -11 2 -11 16
c-1 28 -13 111 -62 111c-45 0 -108 -68 -117 -197zM92 354c11 -57 38 -62 55 -62c38 0 140 51 140 97c0 14 -16 16 -42 16c-94 0 -133 -26 -153 -51z" />
    <glyph glyph-name="seven.numr" horiz-adv-x="365" 
d="M226 597c-61 0 -117 -2 -152 -7c-5 -20 -13 -44 -20 -64c-11 -30 -20 -36 -39 -36c-16 0 -38 4 -38 52c0 31 9 70 17 98c11 39 19 43 35 43c13 0 35 -3 46 -21c58 8 123 12 201 12c39 0 46 -1 53 -11c5 -7 10 -25 10 -31s-5 -14 -8 -18c-3 -5 -28 -50 -73 -147
c-42 -91 -66 -153 -78 -187c-14 -39 -18 -46 -28 -46c-7 0 -33 3 -47 11s-15 17 -15 24c0 51 102 260 136 328z" />
    <glyph glyph-name="eight.numr" horiz-adv-x="408" 
d="M268 467c47 -16 98 -48 98 -101c0 -59 -62 -134 -182 -134c-123 0 -192 80 -192 125c0 23 18 77 74 107c-40 25 -61 63 -61 91c0 59 95 145 175 145c27 0 66 -10 100 -32c33 -21 60 -54 60 -93c0 -36 -24 -81 -72 -108zM278 371c0 37 -64 54 -96 54
c-58 0 -105 -55 -105 -83c0 -33 68 -37 90 -37c63 0 111 33 111 66zM247 584c0 18 -10 37 -43 37c-59 0 -114 -62 -114 -84c0 -16 29 -30 65 -30c67 0 92 48 92 77z" />
    <glyph glyph-name="nine.numr" horiz-adv-x="401" 
d="M250 430c-41 -18 -92 -27 -118 -27c-76 0 -147 74 -147 127c0 65 108 168 190 168c8 0 43 -1 80 -17c81 -35 95 -109 95 -178c0 -146 -63 -270 -186 -270c-27 0 -52 6 -74 16c-57 26 -75 70 -75 101c0 13 3 22 15 31c16 12 39 16 49 16c8 0 23 -3 23 -25
c0 -25 2 -79 38 -79c34 0 88 44 110 137zM260 530c-2 88 -27 99 -43 99c-43 0 -150 -79 -150 -125c0 -8 3 -22 40 -22c53 0 130 30 153 48z" />
    <glyph glyph-name="zero.dnom" horiz-adv-x="430" 
d="M306 -14c-29 -15 -61 -21 -89 -21c-100 0 -199 78 -199 211c0 65 24 143 60 190c32 43 72 60 114 60c87 0 224 -73 224 -238c0 -95 -45 -168 -110 -202zM200 29c51 0 128 66 128 167c0 78 -46 150 -108 150c-77 0 -106 -115 -106 -188c0 -99 52 -129 86 -129z" />
    <glyph glyph-name="one.dnom" horiz-adv-x="203" 
d="M64 356h-8c-41 0 -50 20 -50 32c0 31 56 39 98 39c47 0 55 -10 55 -29c0 -7 -1 -19 -3 -41c-5 -59 -14 -199 -14 -294c11 -2 20 -5 28 -11c14 -11 19 -26 19 -40c0 -24 -14 -24 -46 -24c-35 0 -75 -4 -109 -4c-39 0 -48 5 -48 23c0 34 34 42 68 50c2 31 2 80 4 137
c3 105 5 150 6 162z" />
    <glyph glyph-name="two.dnom" horiz-adv-x="396" 
d="M63 -26c-6 -7 -10 -9 -18 -9c-13 0 -32 6 -32 50c0 28 8 34 22 40c160 73 252 164 252 257c0 33 -12 57 -39 57c-45 0 -114 -66 -146 -139c2 -5 2 -8 2 -14c0 -14 -12 -31 -27 -31c-9 0 -51 8 -51 55c0 42 34 106 76 147c51 50 98 51 110 51c47 0 84 -16 111 -43
c37 -38 49 -91 49 -119c0 -61 -58 -130 -160 -202c15 1 30 2 44 2c68 0 106 -22 106 -49c0 -13 -9 -28 -30 -28c-9 0 -15 3 -49 3c-71 0 -157 -13 -220 -28z" />
    <glyph glyph-name="three.dnom" horiz-adv-x="386" 
d="M282 193c54 -24 76 -64 76 -98c0 -78 -107 -128 -201 -128c-84 0 -141 39 -141 83c0 29 22 50 43 50c25 0 25 -19 25 -36c0 -11 24 -22 66 -22c76 0 124 41 124 63c0 18 -47 30 -92 30c-27 0 -32 -8 -51 -8c-16 0 -32 18 -32 53c0 27 13 35 19 35c8 0 14 -3 27 -3
c63 0 132 64 132 109c0 27 -28 35 -44 35c-36 0 -104 -43 -136 -110c3 -3 3 -4 3 -9c0 -7 -6 -17 -21 -17c-19 0 -60 18 -60 54c0 50 96 159 193 159c50 0 78 -27 119 -73c25 -27 35 -38 35 -60c0 -32 -19 -74 -84 -107z" />
    <glyph glyph-name="four.dnom" horiz-adv-x="424" 
d="M354 75c0 -27 -1 -50 -1 -76c0 -19 -25 -24 -47 -24c-27 0 -46 7 -46 22s0 37 2 74c-181 -6 -189 -6 -211 -6s-38 58 -38 79c0 16 60 75 110 121c59 55 126 115 168 151c13 11 21 11 44 11c31 0 46 -3 46 -30c0 -7 -1 -12 -4 -17c-2 -4 -5 -10 -6 -25
c-10 -111 -13 -161 -15 -204c41 0 66 0 66 -42c0 -26 -20 -33 -68 -34zM266 150l9 148c-98 -88 -123 -110 -166 -155c49 4 108 6 157 7z" />
    <glyph glyph-name="five.dnom" horiz-adv-x="413" 
d="M92 125c-13 0 -42 18 -42 30c0 23 6 160 10 201c2 23 6 34 28 40c15 4 56 11 131 11c21 0 96 0 130 -6c33 -5 47 -18 47 -43c0 -13 -11 -28 -27 -28c-2 0 -5 0 -9 2c-50 -1 -173 -5 -210 -9c-4 -30 -6 -72 -7 -96c12 3 28 6 57 6c81 0 146 -25 177 -73
c11 -17 19 -35 19 -57c0 -87 -118 -141 -228 -141c-131 0 -149 73 -149 94c0 20 11 40 39 40c20 0 29 -14 35 -26c5 -13 13 -29 48 -29c46 0 183 21 183 72c0 30 -52 44 -111 44c-75 0 -114 -26 -121 -32z" />
    <glyph glyph-name="six.dnom" horiz-adv-x="413" 
d="M112 169c57 36 116 50 146 50c57 0 143 -50 143 -124c0 -98 -151 -138 -201 -138c-34 0 -84 18 -121 49s-59 73 -59 140c0 56 15 112 32 155c33 82 86 136 145 136c14 0 44 -2 75 -16c88 -39 99 -115 99 -152c0 -15 -49 -30 -69 -30c-7 0 -11 2 -11 16
c-1 28 -13 111 -62 111c-45 0 -108 -68 -117 -197zM116 80c11 -57 38 -62 55 -62c38 0 140 51 140 97c0 14 -16 16 -42 16c-94 0 -133 -26 -153 -51z" />
    <glyph glyph-name="seven.dnom" horiz-adv-x="364" 
d="M250 323c-61 0 -117 -2 -152 -7c-5 -20 -13 -44 -20 -64c-11 -30 -20 -36 -39 -36c-16 0 -38 4 -38 52c0 31 9 70 17 98c11 39 19 43 35 43c13 0 35 -3 46 -21c58 8 123 12 201 12c39 0 46 -1 53 -11c5 -7 10 -25 10 -31s-5 -14 -8 -18c-3 -5 -28 -50 -73 -147
c-42 -91 -66 -153 -78 -187c-14 -39 -18 -46 -28 -46c-7 0 -33 3 -47 11s-15 17 -15 24c0 51 102 260 136 328z" />
    <glyph glyph-name="eight.dnom" horiz-adv-x="409" 
d="M293 193c47 -16 98 -48 98 -101c0 -59 -62 -134 -182 -134c-123 0 -192 80 -192 125c0 23 18 77 74 107c-40 25 -61 63 -61 91c0 59 95 145 175 145c27 0 66 -10 100 -32c33 -21 60 -54 60 -93c0 -36 -24 -81 -72 -108zM303 97c0 37 -64 54 -96 54
c-58 0 -105 -55 -105 -83c0 -33 68 -37 90 -37c63 0 111 33 111 66zM272 310c0 18 -10 37 -43 37c-59 0 -114 -62 -114 -84c0 -16 29 -30 65 -30c67 0 92 48 92 77z" />
    <glyph glyph-name="nine.dnom" horiz-adv-x="401" 
d="M274 156c-41 -18 -92 -27 -118 -27c-76 0 -147 74 -147 127c0 65 108 168 190 168c8 0 43 -1 80 -17c81 -35 95 -109 95 -178c0 -146 -63 -270 -186 -270c-27 0 -52 6 -74 16c-57 26 -75 70 -75 101c0 13 3 22 15 31c16 12 39 16 49 16c8 0 23 -3 23 -25
c0 -25 2 -79 38 -79c34 0 88 44 110 137zM284 256c-2 88 -27 99 -43 99c-43 0 -150 -79 -150 -125c0 -8 3 -22 40 -22c53 0 130 30 153 48z" />
    <glyph glyph-name="exclam" unicode="!" horiz-adv-x="337" 
d="M137 237l15 382c2 46 5 75 26 75c9 0 4 -6 53 -9c22 -1 57 -4 57 -34c0 -26 -27 -26 -30 -83c-8 -138 -16 -277 -16 -332c0 -51 7 -49 7 -58c0 -21 -38 -28 -50 -28s-70 8 -70 38c0 10 7 31 8 49zM255 67c9 -4 22 -17 22 -30c0 -42 -55 -56 -80 -56c-32 0 -95 23 -95 67
c0 34 64 65 114 65c12 0 40 0 40 -37c0 -3 0 -6 -1 -9z" />
    <glyph glyph-name="exclamdown" unicode="&#xa1;" horiz-adv-x="262" 
d="M203 207l-15 -382c-2 -46 -5 -75 -26 -75c-9 0 -4 6 -53 9c-22 1 -57 4 -57 34c0 26 27 26 30 83c8 138 16 277 16 332c0 51 -7 49 -7 58c0 21 38 28 50 28s70 -8 70 -38c0 -10 -7 -31 -8 -49zM85 377c-9 4 -22 17 -22 30c0 42 55 56 80 56c32 0 95 -23 95 -67
c0 -34 -64 -65 -114 -65c-12 0 -40 0 -40 37c0 3 0 6 1 9z" />
    <glyph glyph-name="question" unicode="?" horiz-adv-x="516" 
d="M118 451c-3 -33 -15 -42 -39 -42c-32 0 -73 25 -73 54c0 44 166 248 300 248c88 0 215 -88 215 -162c0 -114 -210 -281 -210 -315c0 -4 9 -16 9 -21c0 -18 -54 -45 -83 -45c-24 0 -60 19 -60 50c0 7 64 90 186 254c11 15 42 59 42 98c0 43 -29 45 -40 45
c-108 0 -211 -105 -247 -164zM314 73c9 -4 22 -17 22 -30c0 -42 -55 -56 -80 -56c-32 0 -95 23 -95 67c0 34 64 65 114 65c12 0 40 0 40 -37c0 -3 0 -6 -1 -9z" />
    <glyph glyph-name="questiondown" unicode="&#xbf;" horiz-adv-x="420" 
d="M391 -84c3 33 15 42 39 42c32 0 73 -25 73 -54c0 -54 -131 -154 -265 -154c-88 0 -215 88 -215 162c0 114 209 281 209 315c0 4 -9 16 -9 21c0 18 54 45 83 45c24 0 60 -19 60 -50c0 -7 -63 -87 -185 -251c-11 -15 -44 -61 -44 -100c0 -43 29 -45 40 -45
c108 0 173 35 214 69zM230 388c-9 4 -22 17 -22 30c0 42 55 56 80 56c32 0 95 -23 95 -67c0 -34 -64 -65 -114 -65c-12 0 -40 0 -40 37c0 3 0 6 1 9z" />
    <glyph glyph-name="parenleft" unicode="(" horiz-adv-x="182" 
d="M187 -69c0 -21 -24 -30 -47 -30c-108 0 -124 200 -124 407c0 197 12 478 116 478c35 0 48 -8 48 -33c0 -38 -32 -16 -48 -45c-9 -17 -25 -73 -25 -314c0 -335 1 -425 49 -442c12 -5 31 -3 31 -21z" />
    <glyph glyph-name="parenright" unicode=")" horiz-adv-x="206" 
d="M9 -97c-23 0 -26 7 -26 39c0 13 26 10 36 20c30 28 36 259 36 465c0 231 -7 256 -24 278c-21 26 -38 18 -38 49c0 18 6 30 31 30c32 0 60 -21 79 -63c26 -58 40 -155 40 -374c0 -278 -20 -444 -134 -444z" />
    <glyph glyph-name="bracketleft" unicode="[" horiz-adv-x="230" 
d="M205 -102h-82c-63 0 -78 4 -78 51c0 225 8 581 8 804c0 49 24 51 111 51c37 0 86 -1 86 -45c0 -17 -28 -30 -105 -30c-5 -226 -6 -530 -8 -756c94 0 110 -19 110 -34c0 -34 -18 -41 -42 -41z" />
    <glyph glyph-name="bracketright" unicode="]" horiz-adv-x="244" 
d="M40 804h82c63 0 78 -4 78 -51c0 -225 -8 -581 -8 -804c0 -49 -24 -51 -111 -51c-37 0 -86 1 -86 45c0 17 28 30 105 30c5 226 6 530 8 756c-94 0 -110 19 -110 34c0 34 18 41 42 41z" />
    <glyph glyph-name="braceleft" unicode="{" horiz-adv-x="310" 
d="M131 0l-1 228c-1 82 -43 93 -92 94c-39 1 -45 19 -45 30c0 21 10 39 49 39c66 0 85 64 85 117c-1 90 -1 121 -1 197c0 47 8 100 110 100h36c25 0 52 -7 52 -41c0 -13 -8 -33 -71 -33c-17 0 -34 -9 -34 -44v-181c0 -79 -12 -115 -85 -150c73 -18 89 -55 89 -141v-201
c0 -36 24 -40 35 -41c51 -5 68 -15 68 -38c0 -34 -31 -35 -89 -35c-88 0 -105 22 -106 100z" />
    <glyph glyph-name="braceright" unicode="}" horiz-adv-x="329" 
d="M81 -101h-36c-25 0 -52 7 -52 41c0 13 8 33 71 33c17 0 34 9 34 44v181c0 79 12 115 85 150c-73 18 -89 55 -89 141v201c0 36 -24 40 -35 41c-51 5 -68 15 -68 38c0 34 31 35 89 35c88 0 106 -22 106 -100l1 -228c0 -82 43 -93 92 -94c39 -1 45 -19 45 -30
c0 -21 -10 -39 -49 -39c-66 0 -85 -64 -85 -117c1 -90 1 -121 1 -197c0 -47 -8 -100 -110 -100z" />
    <glyph glyph-name="slash" unicode="/" horiz-adv-x="374" 
d="M482 683c1 -10 -38 -56 -55 -85c-106 -182 -210 -407 -309 -628c-7 -15 -8 -35 -33 -35c-33 0 -63 24 -63 32c0 11 6 29 12 43c88 192 325 726 359 726c11 0 84 -28 89 -53z" />
    <glyph glyph-name="backslash" unicode="\" horiz-adv-x="357" 
d="M333 -28c0 -17 -49 -24 -64 -24c-26 0 -33 4 -41 35c-41 152 -119 414 -214 668c-7 19 -14 34 -14 46c0 18 26 22 80 22c22 0 28 -20 37 -49c62 -203 196 -603 216 -698z" />
    <glyph glyph-name="bar" unicode="|" horiz-adv-x="305" 
d="M212 -219c0 -20 -32 -27 -60 -27c-54 0 -58 33 -58 39c0 246 17 639 17 811c0 58 -2 95 -2 108c0 33 49 38 71 38c18 0 63 -7 63 -31c0 -13 -17 -20 -23 -109c-13 -178 -18 -686 -18 -745c0 -68 10 -70 10 -84z" />
    <glyph glyph-name="brokenbar" unicode="&#xa6;" horiz-adv-x="308" 
d="M212 -225c0 -8 -30 -21 -57 -21c-51 0 -61 24 -61 56c0 103 6 208 6 280c0 24 -2 40 -2 45c0 27 34 36 55 36c17 0 56 -4 56 -33c0 -63 -6 -262 -6 -298c0 -28 9 -59 9 -65zM215 368c0 -27 -34 -36 -55 -36c-17 0 -56 4 -56 33c0 63 6 262 6 298c0 28 -9 59 -9 65
c0 8 30 21 57 21c51 0 61 -24 61 -56c0 -103 -6 -208 -6 -280c0 -24 2 -40 2 -45z" />
    <glyph glyph-name="fraction" unicode="&#x2044;" horiz-adv-x="195" 
d="M-117 60c7 22 133 248 214 389c147 256 164 265 179 265c19 0 70 -13 70 -40c0 -15 -17 -26 -17 -26c-90 -138 -248 -417 -325 -562c-46 -86 -59 -121 -74 -121c-16 0 -62 44 -62 64c0 12 15 31 15 31z" />
    <glyph glyph-name="dagger" unicode="&#x2020;" horiz-adv-x="385" 
d="M347 443l-120 -3c-4 -166 -5 -352 -5 -395c0 -68 10 -70 10 -84c0 -20 -24 -27 -52 -27c-54 0 -58 33 -58 39c0 172 1 328 2 466h-37c-87 0 -104 0 -104 39c0 20 6 42 26 42c6 0 52 -1 116 -1v85c0 58 -2 95 -2 108c0 33 49 38 71 38c18 0 63 -7 63 -31
c0 -13 -18 -20 -23 -109c-2 -28 -3 -58 -4 -91h36c90 0 101 0 101 -34c0 -19 -7 -42 -20 -42z" />
    <glyph glyph-name="daggerdbl" unicode="&#x2021;" horiz-adv-x="419" 
d="M137 -27v256h-35c-87 0 -104 0 -104 39c0 20 6 42 26 42c6 0 51 -1 114 -1c1 48 1 95 1 140h-37c-87 0 -104 0 -104 39c0 20 6 42 26 42c6 0 52 -1 116 -1v75c0 58 -2 95 -2 108c0 33 49 38 71 38c18 0 63 -7 63 -31c0 -13 -18 -20 -23 -109c-2 -25 -3 -52 -4 -81h36
c90 0 101 0 101 -34c0 -19 -7 -42 -20 -42l-119 -3c-2 -46 -3 -95 -4 -141h42c90 0 101 0 101 -34c0 -19 -7 -42 -20 -42l-124 -3c-1 -88 -1 -161 -1 -185c0 -68 10 -70 10 -84c0 -20 -24 -27 -52 -27c-54 0 -58 33 -58 39z" />
    <glyph glyph-name="hyphen" unicode="-" horiz-adv-x="416" 
d="M351 224c0 -11 -90 -16 -198 -16c-49 0 -68 1 -87 16c-15 12 -38 43 -38 52s24 25 191 25c59 0 79 -2 97 -10c21 -10 35 -33 35 -67z" />
    <glyph glyph-name="uni00AD" unicode="&#xad;" horiz-adv-x="416" 
d="M351 224c0 -11 -90 -16 -198 -16c-49 0 -68 1 -87 16c-15 12 -38 43 -38 52s24 25 191 25c59 0 79 -2 97 -10c21 -10 35 -33 35 -67z" />
    <glyph glyph-name="endash" unicode="&#x2013;" horiz-adv-x="548" 
d="M483 238c0 -21 -102 -28 -330 -30c-49 0 -68 1 -87 16c-15 12 -38 43 -38 52s156 29 323 29c59 0 79 -2 97 -10c21 -10 35 -33 35 -57z" />
    <glyph glyph-name="emdash" unicode="&#x2014;" horiz-adv-x="755" 
d="M690 238c0 -21 -49 -28 -537 -30c-49 0 -68 1 -87 16c-15 12 -38 43 -38 52s156 29 323 29c259 0 286 -2 304 -10c21 -10 35 -33 35 -57z" />
    <glyph glyph-name="underscore" unicode="_" horiz-adv-x="460" 
d="M442 -49c-35 -4 -141 -5 -219 -5c-126 0 -141 9 -141 33c0 23 11 52 43 52c16 0 98 -1 139 -1c84 0 150 0 181 -2c19 -2 26 -21 26 -38c0 -19 -11 -37 -29 -39z" />
    <glyph glyph-name="quotesingle" unicode="'" horiz-adv-x="113" 
d="M43 450c-17 0 -38 16 -38 27c0 8 12 152 27 210c3 12 7 20 21 20c11 0 55 -11 55 -25c0 -4 -21 -105 -35 -199c-5 -24 -7 -33 -30 -33z" />
    <glyph glyph-name="quotedbl" unicode="&#x22;" horiz-adv-x="254" 
d="M59 458c-28 0 -54 12 -54 22c0 25 25 144 42 224c3 11 23 11 36 11c20 0 40 -14 40 -20c0 -17 -16 -59 -44 -211c-4 -24 -6 -26 -20 -26zM194 480c-5 -24 -15 -25 -33 -25c-26 0 -44 5 -44 16c0 15 35 148 53 228c2 11 10 12 24 12c20 0 56 -15 56 -20
c0 -8 -30 -92 -56 -211z" />
    <glyph glyph-name="quoteleft" unicode="&#x2018;" horiz-adv-x="88" 
d="M88 454c0 -10 -22 -20 -39 -20c-23 0 -31 14 -38 44c-23 96 -33 185 -33 189c0 14 21 35 56 35c14 0 20 -2 22 -21c6 -67 32 -219 32 -227z" />
    <glyph glyph-name="quoteright" unicode="&#x2019;" horiz-adv-x="113" 
d="M43 450c-17 0 -38 16 -38 27c0 8 12 152 27 210c3 12 7 20 21 20c11 0 55 -11 55 -25c0 -4 -21 -105 -35 -199c-5 -24 -7 -33 -30 -33z" />
    <glyph glyph-name="quotedblleft" unicode="&#x201c;" horiz-adv-x="211" 
d="M88 454c0 -10 -22 -20 -39 -20c-23 0 -31 14 -38 44c-23 96 -33 185 -33 189c0 14 21 35 56 35c14 0 20 -2 22 -21c6 -67 32 -219 32 -227zM205 473c0 -11 -18 -18 -35 -18c-23 0 -38 0 -40 13c-16 96 -31 188 -31 229c0 13 9 26 50 26c14 0 24 0 26 -19
c7 -67 30 -223 30 -231z" />
    <glyph glyph-name="quotedblright" unicode="&#x201d;" horiz-adv-x="254" 
d="M59 458c-28 0 -54 12 -54 22c0 25 25 144 42 224c3 11 23 11 36 11c20 0 40 -14 40 -20c0 -17 -16 -59 -44 -211c-4 -24 -6 -26 -20 -26zM194 480c-5 -24 -15 -25 -33 -25c-26 0 -44 5 -44 16c0 15 35 148 53 228c2 11 10 12 24 12c20 0 56 -15 56 -20
c0 -8 -30 -92 -56 -211z" />
    <glyph glyph-name="quotesinglbase" unicode="&#x201a;" horiz-adv-x="244" 
d="M179 -100c-5 -24 -7 -33 -30 -33c-17 0 -38 16 -38 27c0 8 12 152 27 210c3 12 7 20 21 20c11 0 55 -11 55 -25c0 -4 -21 -105 -35 -199z" />
    <glyph glyph-name="quotedblbase" unicode="&#x201e;" horiz-adv-x="385" 
d="M165 -133c-28 0 -54 12 -54 22c0 25 25 144 42 224c3 11 23 11 36 11c20 0 40 -14 40 -20c0 -17 -16 -59 -44 -211c-4 -24 -6 -26 -20 -26zM300 -111c-5 -24 -15 -25 -33 -25c-26 0 -44 5 -44 16c0 15 35 148 53 228c2 11 10 12 24 12c20 0 56 -15 56 -20
c0 -8 -30 -92 -56 -211z" />
    <glyph glyph-name="guilsinglleft" unicode="&#x2039;" horiz-adv-x="351" 
d="M140 196c48 -40 118 -96 153 -126c9 -8 14 -13 14 -18c0 -7 -26 -31 -50 -31c-7 0 -15 2 -24 9c-94 78 -158 135 -186 161c-10 10 -15 12 -15 16s5 7 14 14c55 43 210 154 210 154c9 6 11 9 19 9c18 0 31 -38 31 -70c0 -3 -24 -21 -166 -118z" />
    <glyph glyph-name="guilsinglright" unicode="&#x203a;" horiz-adv-x="376" 
d="M253 195c-48 40 -118 96 -153 126c-9 8 -14 13 -14 18c0 7 26 31 50 31c7 0 15 -2 24 -9c94 -78 158 -135 186 -161c10 -10 15 -12 15 -16s-5 -7 -14 -14c-55 -43 -210 -154 -210 -154c-9 -6 -11 -9 -19 -9c-18 0 -31 38 -31 70c0 3 24 21 166 118z" />
    <glyph glyph-name="guillemotleft" unicode="&#xab;" horiz-adv-x="551" 
d="M136 208c48 -40 118 -96 153 -126c9 -8 14 -13 14 -18c0 -7 -26 -31 -50 -31c-7 0 -15 2 -24 9c-94 78 -158 135 -186 161c-10 10 -15 12 -15 16s5 7 14 14c55 43 210 154 210 154c9 6 11 9 19 9c18 0 31 -38 31 -70c0 -3 -24 -21 -166 -118zM340 196
c48 -40 118 -96 153 -126c9 -8 14 -13 14 -18c0 -7 -26 -31 -50 -31c-7 0 -15 2 -24 9c-94 78 -158 135 -186 161c-10 10 -15 12 -15 16s5 7 14 14c55 43 210 154 210 154c9 6 11 9 19 9c18 0 31 -38 31 -70c0 -3 -24 -21 -166 -118z" />
    <glyph glyph-name="guillemotright" unicode="&#xbb;" horiz-adv-x="577" 
d="M249 209c-48 40 -118 96 -153 126c-9 8 -14 13 -14 18c0 7 26 31 50 31c7 0 15 -2 24 -9c94 -78 158 -135 186 -161c10 -10 15 -12 15 -16s-5 -7 -14 -14c-55 -43 -210 -154 -210 -154c-9 -6 -11 -9 -19 -9c-18 0 -31 38 -31 70c0 3 24 21 166 118zM454 199
c-48 40 -118 96 -153 126c-9 8 -14 13 -14 18c0 7 26 31 50 31c7 0 15 -2 24 -9c94 -78 158 -135 186 -161c10 -10 15 -12 15 -16s-5 -7 -14 -14c-55 -43 -210 -154 -210 -154c-9 -6 -11 -9 -19 -9c-18 0 -31 38 -31 70c0 3 24 21 166 118z" />
    <glyph glyph-name="plus" unicode="+" horiz-adv-x="443" 
d="M241 321v-54c0 -87 0 -104 -39 -104c-20 0 -42 6 -42 26c0 7 0 59 1 131h-53c-87 0 -104 0 -104 39c0 20 6 42 26 42c7 0 59 -1 131 -1v56c0 90 0 101 34 101c19 0 42 -7 42 -20l3 -137h57c90 0 101 0 101 -34c0 -19 -7 -42 -20 -42c-55 -1 -99 -3 -137 -3z" />
    <glyph glyph-name="minus" unicode="&#x2212;" horiz-adv-x="443" 
d="M378 324c-137 -3 -213 -4 -270 -4c-87 0 -104 0 -104 39c0 20 6 42 26 42c11 0 127 -1 267 -1c90 0 101 0 101 -34c0 -19 -7 -42 -20 -42z" />
    <glyph glyph-name="multiply" unicode="&#xd7;" horiz-adv-x="425" 
d="M192 304l-38 -38c-41 -41 -60 -60 -77 -60c-14 0 -43 25 -43 47c0 12 7 16 100 107l-37 37c-41 41 -60 60 -60 77c0 14 25 42 47 42c13 0 17 -11 107 -99l40 39c43 42 59 60 74 60c14 0 40 -29 40 -48c0 -3 -1 -6 -3 -8l-95 -99l40 -41c42 -43 60 -59 60 -74
c0 -14 -29 -40 -48 -40c-3 0 -6 1 -8 3c-40 39 -72 68 -99 95z" />
    <glyph glyph-name="divide" unicode="&#xf7;" horiz-adv-x="443" 
d="M378 324c-137 -3 -213 -4 -270 -4c-87 0 -104 0 -104 39c0 20 6 42 26 42c11 0 127 -1 267 -1c90 0 101 0 101 -34c0 -19 -7 -42 -20 -42zM203 153c-33 0 -65 28 -65 57c0 26 25 55 69 55c40 0 53 -24 53 -48c0 -33 -23 -64 -57 -64zM207 455c-33 0 -65 28 -65 57
c0 26 25 55 69 55c40 0 53 -24 53 -48c0 -33 -22 -64 -57 -64z" />
    <glyph glyph-name="plusminus" unicode="&#xb1;" horiz-adv-x="462" 
d="M241 321v-54c0 -87 0 -104 -39 -104c-20 0 -42 6 -42 26c0 7 0 59 1 131h-53c-87 0 -104 0 -104 39c0 20 6 42 26 42c7 0 59 -1 131 -1v56c0 90 0 101 34 101c19 0 42 -7 42 -20l3 -137h57c90 0 101 0 101 -34c0 -19 -7 -42 -20 -42c-55 -1 -99 -3 -137 -3zM375 43
c-137 -3 -213 -4 -270 -4c-87 0 -104 0 -104 39c0 20 6 42 26 42c11 0 127 -1 267 -1c90 0 101 0 101 -34c0 -19 -7 -42 -20 -42z" />
    <glyph glyph-name="equal" unicode="=" horiz-adv-x="489" 
d="M401 234c-137 -3 -213 -4 -270 -4c-87 0 -104 0 -104 39c0 20 6 42 26 42c11 0 127 -1 267 -1c90 0 101 0 101 -34c0 -19 -7 -42 -20 -42zM401 414c-137 -3 -213 -4 -270 -4c-87 0 -104 0 -104 39c0 20 6 42 26 42c11 0 127 -1 267 -1c90 0 101 0 101 -34
c0 -19 -7 -42 -20 -42z" />
    <glyph glyph-name="notequal" unicode="&#x2260;" horiz-adv-x="489" 
d="M401 234l-173 -4c-30 -88 -45 -122 -62 -122c-26 0 -42 9 -42 33c0 23 8 51 19 89h-12c-87 0 -104 0 -104 39c0 20 6 42 26 42c6 0 53 -1 115 -1c9 28 19 67 29 100h-66c-87 0 -104 0 -104 39c0 20 6 42 26 42c8 0 76 -1 167 -1c29 93 38 124 63 124c20 0 42 -9 42 -48
c0 -6 -8 -38 -19 -76h14c90 0 101 0 101 -34c0 -19 -7 -42 -20 -44h-117l-30 -102h66c90 0 101 0 101 -34c0 -19 -7 -42 -20 -42z" />
    <glyph glyph-name="approxequal" unicode="&#x2248;" horiz-adv-x="505" 
d="M437 457c0 -25 -53 -74 -100 -74c-55 0 -145 54 -194 54c-40 0 -47 -36 -76 -36c-18 0 -40 18 -40 41s47 75 97 75c64 0 147 -55 195 -55c41 0 47 37 78 38c18 0 40 -21 40 -43zM437 276c0 -25 -52 -73 -98 -73c-57 0 -146 55 -195 55c-39 0 -48 -38 -77 -38
c-16 0 -40 21 -40 43c0 25 51 73 99 73c62 0 145 -52 194 -52c39 0 47 34 77 35c18 0 40 -21 40 -43z" />
    <glyph glyph-name="less" unicode="&#x3c;" horiz-adv-x="391" 
d="M100 308c54 -45 138 -113 187 -147c11 -8 16 -14 16 -20c0 -8 -29 -35 -56 -35c-8 0 -17 2 -27 10c-115 88 -193 157 -224 186c-11 11 -17 14 -17 18c0 5 6 8 16 16c62 48 255 201 255 201c10 7 12 10 21 10c20 0 35 -43 35 -69c0 -13 -66 -61 -206 -170z" />
    <glyph glyph-name="greater" unicode="&#x3e;" horiz-adv-x="390" 
d="M226 332c-54 45 -138 113 -187 147c-11 8 -16 14 -16 20c0 8 29 35 56 35c8 0 17 -2 27 -10c115 -88 193 -157 224 -186c11 -11 17 -14 17 -18c0 -5 -6 -8 -16 -16c-62 -48 -255 -201 -255 -201c-10 -7 -12 -10 -21 -10c-20 0 -35 43 -35 69c0 13 66 61 206 170z" />
    <glyph glyph-name="lessequal" unicode="&#x2264;" horiz-adv-x="435" 
d="M141 308c54 -45 138 -113 187 -147c11 -8 16 -14 16 -20c0 -8 -29 -35 -56 -35c-8 0 -17 2 -27 10c-115 88 -193 157 -224 186c-11 11 -17 14 -17 18c0 5 6 8 16 16c62 48 255 201 255 201c10 7 12 10 21 10c20 0 35 -43 35 -69c0 -13 -66 -61 -206 -170zM330 1
c-137 -3 -151 -4 -208 -4c-87 0 -104 0 -104 39c0 20 6 42 26 42c11 0 65 -1 205 -1c90 0 101 0 101 -34c0 -19 -7 -42 -20 -42z" />
    <glyph glyph-name="greaterequal" unicode="&#x2265;" horiz-adv-x="409" 
d="M223 352c-54 45 -138 113 -187 147c-11 8 -16 14 -16 20c0 8 29 35 56 35c8 0 17 -2 27 -10c115 -88 193 -157 224 -186c11 -11 17 -14 17 -18c0 -5 -6 -8 -16 -16c-62 -48 -255 -201 -255 -201c-10 -7 -12 -10 -21 -10c-20 0 -35 43 -35 69c0 13 66 61 206 170zM318 1
c-137 -3 -153 -4 -210 -4c-87 0 -104 0 -104 39c0 20 6 42 26 42c11 0 67 -1 207 -1c90 0 101 0 101 -34c0 -19 -7 -42 -20 -42z" />
    <glyph glyph-name="dollar" unicode="$" horiz-adv-x="389" 
d="M215 138c0 -10 -1 -17 -2 -80c0 -11 -35 -16 -53 -16c-23 0 -23 11 -23 96c-70 13 -136 57 -136 129c0 15 3 17 47 17c53 0 45 -3 52 -31c4 -17 12 -43 62 -43c54 0 59 30 59 43c0 29 -24 37 -78 54c-66 20 -125 42 -125 130c0 82 52 131 122 140c1 9 1 14 3 70
c0 13 7 20 43 20c32 0 33 -7 33 -96c84 -28 104 -119 104 -149c0 -16 -5 -21 -30 -21c-52 0 -44 21 -57 53c-16 38 -46 60 -65 60c-22 0 -48 -32 -48 -91c0 -12 1 -47 70 -65c92 -24 135 -34 135 -91c0 -51 -35 -113 -113 -129z" />
    </font>
</defs>
</svg>
