<?xml version="1.0" standalone="no"?>
<!DOCTYPE svg PUBLIC "-//W3C//DTD SVG 1.1//EN" "http://www.w3.org/Graphics/SVG/1.1/DTD/svg11.dtd" >
<svg xmlns="http://www.w3.org/2000/svg" width="100%" height="100%">
<metadata>
Created by FontXChange 20110222 at Wed Sep 29 18:23:56 2021
 By RT
(C) 1993 B &#38; P Graphics, Ltd.
</metadata>
<defs>
<font id="Hudson" horiz-adv-x="501" >
  <font-face 
    font-family="Hudson"
    font-weight="100"
    font-stretch="normal"
    units-per-em="1000"
    panose-1="0 0 0 0 0 0 0 0 0 0"
    ascent="800"
    descent="-200"
    x-height="475"
    cap-height="795"
    bbox="-128 -317 1259 1101"
    underline-thickness="23"
    underline-position="-109"
    unicode-range="U+0020-F002"
  />
<missing-glyph horiz-adv-x="727" 
d="M45 0v727h637v-727h-637zM637 45v637h-547v-637h547z" />
    <glyph glyph-name=".notdef" horiz-adv-x="727" 
d="M45 0v727h637v-727h-637zM637 45v637h-547v-637h547z" />
    <glyph glyph-name=".null" horiz-adv-x="0" 
 />
    <glyph glyph-name="glyph2" horiz-adv-x="290" 
 />
    <glyph glyph-name="space" unicode=" " horiz-adv-x="290" 
 />
    <glyph glyph-name="exclam" unicode="!" horiz-adv-x="296" 
d="M192 270q0 -34 2 -42l3 -20q0 -9 -15.5 -15t-38.5 -6q-36 0 -59 11t-23 28l9 44q2 12 3.5 22.5t1.5 14.5l16 328l5 126q0 41 28 41q15 0 35 -4l36 -2q55 0 55 -35q0 -5 -3 -11.5t-8 -16.5l-18 -27l-12 -98l-12 -213zM209 71q0 -38 -23 -62t-62 -24q-33 0 -55.5 20.5
t-22.5 51.5q0 39 24 64t61 25q28 0 48.5 -15.5t26.5 -40.5z" />
    <glyph glyph-name="numbersign" unicode="#" horiz-adv-x="482" 
d="M0 257l14 54h104l38 156h-106l13 54h107l64 257h56l-64 -257h103l63 257h57l-64 -257h97l-13 -54h-98l-38 -156h99l-14 -54h-99l-64 -257h-56l64 257h-103l-64 -257h-56l64 257h-104zM277 311l38 156h-103l-39 -156h104z" />
    <glyph glyph-name="dollar" unicode="$" horiz-adv-x="526" 
d="M215 88l-18 5l-21 6q-61 22 -79.5 34t-46 56t-27.5 70q0 21 21.5 35t53.5 14q52 0 78 -58l12 -25q3 -9 10 -16t20.5 -12.5t59.5 -5.5q25 0 41.5 15.5t16.5 38.5q0 33 -33 48l-10 3l-44 15l-58 21q-141 49 -141 165q0 84 18.5 108t28.5 35t20 19l17 15l13 6l30 12l29 11
l15 4v55q0 32 1 39.5t6 13.5l7 6l34 8l21 2q28 0 37 -14.5t9 -61.5v-53q26 -13 39.5 -22t25.5 -22q25 -23 46 -59.5t29 -70.5l3 -19q4 -16 4 -25q0 -34 -44 -34q-30 0 -48 9l-10 6l-31 66l-3 5l-2 3q-2 6 -4.5 9t-9 11t-10.5 16l-4 4l-3 4l-5 4q-9 10 -16 13t-19 3
q-23 0 -40 -17t-20 -42l-9 -66q0 -9 9 -26t19 -24t36 -16l39 -13l28 -8l11 -4l10 -3l35 -13l11 -2l35 -14l26 -16q28 -22 28 -69q0 -36 -11 -65t-38 -61q-25 -32 -47 -45t-27.5 -15t-24.5 -7q-12 -19 -12 -45l2 -18l2 -24q0 -14 -6 -25q-5 -6 -27.5 -11.5t-44.5 -5.5
t-27.5 5t-7.5 18.5t-2 50.5v64z" />
    <glyph glyph-name="percent" unicode="%" horiz-adv-x="722" 
d="M243 38q-15 -27 -20 -33t-15 -6q-12 0 -25 9t-29 26.5t-16 24.5q0 10 20 44l367 658q14 25 17 26q4 4 16 4q13 0 50 -9.5t37 -34.5q0 -12 -6 -24l-15 -26zM181 443q-72 0 -114 45t-42 122q0 76 42.5 124.5t109.5 48.5q66 0 111.5 -50.5t45.5 -124.5q0 -63 -35.5 -108.5
t-92.5 -54.5zM699 154q0 -80 -38 -124t-107 -44t-111.5 43.5t-42.5 113.5q0 79 45 128t116 49q66 0 102 -44t36 -122zM179 707q-21 0 -35 -31.5t-14 -81.5q0 -38 12 -61t33 -23q53 0 53 107l-1 11q0 34 -14 56.5t-34 22.5zM509 123q0 -57 38 -57q21 0 34 27.5t13 74.5
q0 37 -9.5 52t-33.5 15l-10 -3q-16 -6 -24 -32.5t-8 -76.5z" />
    <glyph glyph-name="ampersand" unicode="&#x26;" horiz-adv-x="730" 
d="M131 301l3 1l10 4l16 6l13 6l4 2l5 1l28 13l15 8q-83 0 -135 37t-52 97q0 70 66 107l12 6l10 7l39 19l30 14l9 6l10 4l13 4q70 29 125.5 42t105.5 13q62 0 98 -38t36 -104q0 -47 -40 -47q-26 0 -45.5 15.5t-40.5 53.5l-5 10l-3 4l-4 2q-7 0 -26.5 -4.5t-36.5 -8.5l-13 -4
l-58 -18l-22 -8l-17 -7l-18 -8l-7 -2l-15 -9l-16 -7l-17 -10l-11 -5l-35 -23q-4 -7 -4 -15l2 -7q7 -11 19 -15l66 -14l32 -5l49 -6l25 -1l52 -1h18h6q10 0 18 -8q14 -11 22 -29t8 -38q0 -15 -6 -21l-8 -9q-9 -6 -23.5 -10.5t-27.5 -7.5l-55 -17l-58 -22q-14 -7 -28.5 -14.5
t-33.5 -18.5l-19 -12l-11 -7l-4 -2l-4 -2l-46 -30q-28 -19 -28 -35t31 -29t69 -13h4l69 5l21 2q33 4 63 11.5t59 16.5l27 10q11 5 19 9t21 12l33 19l-9 1l-11 1l-8 3q-30 6 -35 10q-14 8 -32 23l-9 9q-11 8 -11 15q0 13 22.5 25t49.5 12l33 10l12 3l43 7l58 9l37 3
q21 0 35.5 -8t22.5 -27.5t8 -41.5q0 -14 -10.5 -22t-37.5 -14l-39 -9l-5 -1q-6 -25 -17 -46.5t-32 -42.5t-40 -31l-52 -25l-20 -9l-20 -6l-3 -1l-20 -7q-96 -26 -164 -26q-126 0 -195 63.5t-69 122.5q0 31 24 64t59 48l3 1l3 2l6 2l3 2l9 4z" />
    <glyph glyph-name="parenleft" unicode="(" horiz-adv-x="310" 
d="M292 -74q0 -10 -16 -17t-40 -7l-22 1q-44 5 -65.5 20.5t-44 60.5t-34 100t-18.5 136t-7 167q0 195 31 329.5t133 134.5q63 0 63 -33q0 -26 -22 -35l-41 -21q-13 -7 -18 -51l-6 -65l-4 -102l-2 -92v-20l3 -147q0 -61 2.5 -109.5t4.5 -86.5q5 -48 20.5 -86t32.5 -43l29 -9
q21 -5 21 -25z" />
    <glyph glyph-name="parenright" unicode=")" horiz-adv-x="308" 
d="M256 294l-15 -156q-11 -119 -26 -160t-52.5 -61.5t-71.5 -20.5q-32 0 -52 12t-20 31q0 13 6 17t40.5 12.5t46 37t11.5 135.5l12 190l2 50q0 49 -6 123.5t-15 145t-20 97.5t-32 37l-45 19q-7 4 -7 15q0 14 14.5 22t39.5 8q28 0 59.5 -14t44 -27.5t18 -22.5t17 -29t22 -60
t17.5 -108l10 -81z" />
    <glyph glyph-name="asterisk" unicode="*" horiz-adv-x="411" 
d="M104 486q-42 0 -42 47q0 23 8.5 38t14.5 19l32 22l-39 5q-18 0 -32 16t-14 35q0 22 15 35t41 13q19 0 55 -18q-15 35 -15 59q0 23 13 38t33 15q25 0 39 -18.5t22 -62.5q39 65 81 65q20 0 33 -13.5t13 -34.5q0 -32 -20 -47l-39 -28l42 -9q14 -4 24 -17t10 -30
q0 -20 -13.5 -34.5t-33.5 -14.5q-18 0 -37 11l-23 12l10 -24q9 -17 9 -39q0 -49 -41 -49q-48 0 -67 80q-20 -38 -38 -54.5t-41 -16.5z" />
    <glyph glyph-name="plus" unicode="+" horiz-adv-x="679" 
d="M188 310q-32 0 -52 19t-20 50q0 25 20 42t50 17h91v91q0 29 18 49t44 20q27 0 46 -19t19 -47v-94h88q31 0 51 -17t20 -44q0 -29 -20 -48t-52 -19h-87v-85q0 -33 -17.5 -53.5t-44.5 -20.5q-28 0 -46.5 19.5t-18.5 48.5v91h-89z" />
    <glyph glyph-name="comma" unicode="," horiz-adv-x="210" 
d="M129 -107q-6 -11 -14.5 -15t-29.5 -4q-56 0 -56 36l2 20q5 23 11.5 62.5t6.5 73.5q0 54 13 76t42 22q32 0 53.5 -11t21.5 -28l-20 -119q-12 -73 -30 -113z" />
    <glyph glyph-name="period" unicode="." horiz-adv-x="226" 
d="M192 74q0 -39 -23 -63t-61 -24q-33 0 -55.5 20.5t-22.5 51.5q0 38 24 63t61 25q26 0 47 -15t28 -40z" />
    <glyph glyph-name="slash" unicode="/" horiz-adv-x="309" 
d="M101 18q-5 -16 -9 -20t-15 -4q-19 0 -32.5 11t-22 28.5t-8.5 33.5q0 3 0.5 7.5t7.5 24.5l172 624l10 39q6 19 17 19q6 0 11 -5l23 -20l24 -17q17 -10 17 -29q0 -11 -5 -28l-14 -39l-167 -592z" />
    <glyph glyph-name="zero" unicode="0" horiz-adv-x="681" 
d="M31 311q0 94 60 246.5t265 152.5q131 0 212 -97t81 -255q0 -168 -82 -266t-222 -98q-136 0 -225 90t-89 227zM534 377q0 115 -46 182t-126 67q-41 0 -79 -25t-81.5 -104t-43.5 -212q0 -95 47 -159t118 -64q21 0 72.5 17t95 95t43.5 203z" />
    <glyph glyph-name="one" unicode="1" horiz-adv-x="684" 
d="M280 599h-14q-81 0 -81 39q0 20 34 36t80 16h42q40 0 55 -10t15 -37l-1 -21q-9 -86 -15 -226.5t-6 -305.5q51 -8 68.5 -18.5t17.5 -34.5q0 -37 -56 -37l-19 1q-43 0 -101 -3t-72 -3l-16 -1q-55 0 -55 30q0 21 12 33t30.5 18t72.5 14z" />
    <glyph glyph-name="two" unicode="2" horiz-adv-x="680" 
d="M334 133l78 5l26 1q73 0 120 -18.5t47 -46.5q0 -36 -47 -36q-30 0 -57.5 5t-60.5 5q-50 0 -109 -10l-142 -23l-75 -29l-16 -3q-13 0 -23 22.5t-10 52.5q0 34 29 47l52 21q46 19 111 65.5t119 101t88 120.5t34 123q0 48 -22.5 75.5t-60.5 27.5q-32 0 -79 -33t-82 -81
l-56 -75q-20 -27 -17 -39l1 -39q0 -14 -8.5 -23.5t-21.5 -9.5q-29 0 -50 22t-21 54q0 35 15 75.5t52 97t99 98.5t121 42q50 0 97 -24t98 -82t51 -137q0 -64 -33 -120t-91.5 -108t-84 -71t-77.5 -53h6z" />
    <glyph glyph-name="three" unicode="3" horiz-adv-x="680" 
d="M456 333q56 0 101 -45t45 -102q0 -34 -18.5 -69t-52.5 -61.5t-102 -48.5t-143 -22q-93 0 -152.5 37.5t-59.5 95.5q0 26 16 41t45 15l8 -3l16 -45q17 -44 112 -44q96 0 146 32t62.5 50.5t12.5 34.5q0 20 -56 41t-107 21l-21 -3l-50 -12l-10 -1q-21 0 -30 12l-13 55l-2 16
q0 33 25 33h4l31 -4l7 -1q32 0 77.5 21t73 49t48.5 63.5t21 55.5q0 31 -21 49t-57 18q-33 0 -68.5 -13t-53.5 -33l-91 -97l-24 -39l9 -18l1 -3q0 -17 -21 -17q-18 0 -42.5 11t-34 21t-14 19t-4.5 20q0 13 5 30t30.5 65t104 102.5t153.5 54.5q46 0 81.5 -16.5t81.5 -58
t65 -72.5t19 -60q0 -58 -60 -109t-98 -66h5z" />
    <glyph glyph-name="four" unicode="4" horiz-adv-x="679" 
d="M91 142l-26 -1h-8q-15 0 -21 6t-18 35l-17 44q-4 11 -4 24q0 14 6 25l32 30l379 372q7 7 12.5 11.5t9.5 6t19 4l27 4.5l25 1q59 0 59 -35l-33 -407h64q30 0 37.5 -14t7.5 -52q0 -20 -9.5 -27.5t-35.5 -7.5l-66 -3l-1 -127v-14q0 -18 -66 -18q-36 0 -47 5.5t-11 23.5
l3 129zM411 257l18 275l-309 -289z" />
    <glyph glyph-name="five" unicode="5" horiz-adv-x="680" 
d="M211 397h4l111 6l18 1q59 0 125 -23t96.5 -51t46.5 -63t16 -67q0 -74 -60 -119t-140.5 -69t-163.5 -24q-91 0 -156 40t-65 97q0 24 13 39t33 15q30 0 48 -36l13 -25q18 -26 73 -26q58 0 138 16.5t126.5 48t46.5 64.5q0 34 -51 59t-122 25q-64 0 -120.5 -12t-76 -26
t-27.5 -14l-18 3q-13 6 -23 17t-10 21l3 49l10 242q0 34 2.5 45t11 20.5t19 13.5t31.5 4l411 11q45 0 45 -60q0 -17 -10 -24.5t-35 -7.5q-35 0 -151 -7t-197 -7z" />
    <glyph glyph-name="six" unicode="6" horiz-adv-x="681" 
d="M253 352q67 36 150 36q105 0 150 -39.5t64 -78.5t19 -71q0 -86 -85 -149t-202 -63q-150 0 -238.5 93.5t-88.5 251.5t95 281t217 123q106 0 186 -86t80 -201l-2 -7q-11 -21 -76 -29h-6q-21 0 -26.5 11t-5.5 58q0 20 -9 46.5t-34.5 73.5t-72.5 47q-33 0 -76.5 -33
t-83 -101.5t-39.5 -168.5v-21t4 -26q47 37 80 53zM484 145q36 39 36 81q0 28 -34.5 48t-83.5 20q-35 0 -77 -13t-95.5 -47t-53.5 -77q0 -36 43 -62t102 -26l23 1q31 4 74 27t66 48z" />
    <glyph glyph-name="seven" unicode="7" horiz-adv-x="680" 
d="M534 684h5q27 0 45 -14t18 -35q0 -7 -5.5 -19.5t-9.5 -23.5l-238 -570q-9 -22 -14 -27.5t-17 -5.5q-39 0 -60 19.5t-21 29.5l5 20l204 525l-262 -20l-10 -28q-29 -84 -41.5 -107t-30.5 -23q-26 0 -44 13t-18 31l1 7l17 94l16 82l3 20q3 23 10 31t25 8q11 0 16.5 -1.5
t15.5 -7.5l29 -17l35 -7z" />
    <glyph glyph-name="eight" unicode="8" horiz-adv-x="683" 
d="M519 331q45 -19 78.5 -59.5t33.5 -77.5q0 -86 -82.5 -146.5t-199.5 -60.5q-114 0 -204.5 58.5t-90.5 132.5q0 30 12.5 59t30 46.5t35.5 30.5t52 32l-30 19q-83 57 -83 138q0 51 47.5 103.5t108 82t117.5 29.5q41 0 80 -13.5t99 -57t60 -117.5q0 -17 -7 -38.5t-26 -52
t-38.5 -47.5t-61.5 -37q23 -7 31.5 -10t37.5 -14zM284 409q74 0 123.5 38t49.5 95q0 77 -93 77q-76 0 -127.5 -54.5t-51.5 -97.5q0 -24 23 -40.5t63 -16.5zM203 99q51 -30 115 -30q80 0 135.5 40t55.5 97q0 39 -51.5 66t-126.5 27q-34 0 -74.5 -26.5t-65.5 -63t-25 -64.5
q1 -8 3.5 -16.5t33.5 -29.5z" />
    <glyph glyph-name="nine" unicode="9" horiz-adv-x="681" 
d="M504 424q-135 -90 -243 -90q-86 0 -154 59t-68 132q0 81 95.5 146t214.5 65q77 0 141 -32t96 -80t41.5 -90t9.5 -109q0 -182 -78 -310t-190 -128q-34 0 -80 13t-91.5 39.5t-77 80t-31.5 121.5q0 26 3 34l12 9q15 9 35 17t27 8q22 0 36.5 -69.5t26.5 -101.5t34 -48t48 -16
q41 0 82.5 33.5t65 81t37.5 105t14 97.5l-1 36zM421 485q83 30 83 72q0 6 -6.5 21t-23.5 51t-71 36q-86 0 -149 -55.5t-79 -78.5t-16 -38q0 -38 91 -38l30 1l27 1q33 0 114 28z" />
    <glyph glyph-name="colon" unicode=":" horiz-adv-x="256" 
d="M208 76q0 -38 -23.5 -62.5t-61.5 -24.5q-33 0 -55.5 21.5t-22.5 51.5q0 37 24 62t61 25q27 0 47.5 -14.5t27.5 -40.5zM210 405q0 -38 -24 -62t-61 -24q-33 0 -55 21t-22 51q0 39 23 64t61 25q27 0 47.5 -15.5t26.5 -40.5q4 -8 4 -19z" />
    <glyph glyph-name="semicolon" unicode=";" horiz-adv-x="256" 
d="M208 405q0 -38 -24 -62t-61 -24q-32 0 -55 21t-23 51q0 39 24 64t61 25q27 0 47.5 -15.5t27.5 -40.5zM157 -95q-7 -18 -15 -22.5t-31 -4.5q-55 0 -55 36l1 20q5 23 11.5 62.5t6.5 73.5q0 55 13 77t42 22q34 0 54.5 -11t20.5 -29l-14 -77l-19 -94q-3 -16 -6 -25.5
t-9 -27.5z" />
    <glyph glyph-name="equal" unicode="=" horiz-adv-x="680" 
d="M116 291q0 28 18 46t48 18h314q28 0 46 -17t18 -46q0 -27 -18 -46t-44 -19h-315q-29 0 -48 18t-19 46zM116 458q0 28 19.5 46.5t47.5 18.5h315q22 0 42.5 -18.5t20.5 -46.5q0 -27 -18.5 -44.5t-46.5 -17.5h-314q-28 0 -47 18t-19 44z" />
    <glyph glyph-name="question" unicode="?" horiz-adv-x="578" 
d="M347 251q0 -8 -6.5 -18t-36 -22t-59.5 -12q-26 0 -43.5 13t-17.5 33q0 22 30 60l132 174q51 68 70.5 104t19.5 65q0 49 -53 49q-66 0 -136 -45.5t-104 -110.5l-36 -66q-7 -16 -23 -16q-26 0 -50.5 14t-34 30.5t-9.5 27.5l2 8q13 31 50 78.5t81.5 88t107 70.5t104.5 30
q82 0 133.5 -40.5t75.5 -79.5t24 -70q0 -36 -28 -84t-97 -128l-108 -128q12 -13 12 -25zM339 74q0 -39 -23 -63t-60 -24q-34 0 -56.5 20.5t-22.5 51.5q0 38 24 63t61 25q27 0 48 -15t25 -30.5t4 -27.5z" />
    <glyph glyph-name="at" unicode="@" horiz-adv-x="778" 
d="M434 194q-36 -42 -82 -42q-23 0 -55 14.5t-51.5 58.5t-19.5 117l4 35q15 95 53.5 140t66 59t56.5 14q58 0 86 -53l5 -10l9 57l49 -1l-38 -215l-14 -87q-3 -18 -3 -31q0 -16 7.5 -39t38.5 -23q7 0 17.5 3.5t23.5 14t31 32t31.5 55t19 68.5t5.5 65q0 116 -71 188t-181 72
q-23 0 -90 -9.5t-141 -100.5t-74 -217v-24q2 -11 3.5 -26.5t2 -19t17 -68.5t94.5 -127.5t177 -62.5q43 0 82.5 11t72.5 31t61.5 44.5t50.5 54.5l20 -36l-25 -29q-58 -61 -125 -91t-141 -30q-153 0 -251 113t-98 286q0 55 19 105.5t58.5 104t103.5 92t111.5 44t68.5 5.5
q134 0 220.5 -87.5t86.5 -222.5q0 -32 -11 -95t-57.5 -120t-77 -61.5t-41.5 -4.5q-39 0 -64 25t-21 60q-5 -18 -20 -36zM297 229q17 -36 57 -36q27 0 44 17t26 32.5t20.5 49t20.5 81.5l2 10l7 42q2 11 2 21.5v15.5q0 15 -2.5 32.5t-21.5 34.5t-43 17q-12 0 -32.5 -8.5
t-38.5 -33t-35 -75.5l-13 -49q-4 -24 -5 -45t-1 -44q0 -19 3.5 -34t9.5 -28z" />
    <glyph glyph-name="A" unicode="A" horiz-adv-x="714" 
d="M523 729q24 10 60 10q53 0 53 -31q0 -16 -7 -37q-5 -22 -8 -43.5t-3 -37.5l-6 -120l-3 -199q0 -83 20 -121t64 -38l13 4l33 12l6 1q16 0 16 -19q0 -24 -45 -58.5t-88 -34.5q-14 0 -28.5 4t-42.5 18.5t-41 32t-21 63.5l-6 34q-22 -41 -33 -61t-37 -54.5t-61.5 -53
t-81.5 -18.5q-115 0 -180.5 74.5t-65.5 204.5q0 99 30 205.5t98 218.5t173 112l32 -2q41 -6 68 -22t71 -61q4 4 11.5 10t9.5 7zM399 693q-69 0 -151.5 -132t-82.5 -327q0 -79 18.5 -125t50.5 -46q24 0 65.5 24.5t75.5 71t68 129.5t41 143l6 74l1 36q0 112 -64 144
q-14 8 -28 8z" />
    <glyph glyph-name="B" unicode="B" horiz-adv-x="782" 
d="M104 688l-42 -6l-44 -8q-23 -7 -32 -9t-15 -2q-25 0 -25 16q0 50 28.5 66.5t77.5 25.5t79 12t57 3q45 0 93.5 -2t143.5 -12.5t194 -82.5t99 -170q0 -43 -26 -78.5t-72 -65.5t-62.5 -38t-50.5 -22l10 -4q58 -23 85.5 -40t64 -54.5t36.5 -81.5q0 -61 -90 -99t-232 -38
q-47 0 -77 5t-83 23q-3 -13 -8.5 -20t-44.5 -7q-44 0 -61 13t-17 49l1 10l23 617h-10zM408 387q182 62 182 170q0 54 -79 97.5t-186 43.5l-33 1l-15 2q-24 0 -24 -51l-18 -300q62 6 88 11.5t85 25.5zM317 81l57 3q46 7 78.5 15.5t81 31t48.5 40.5q0 30 -65.5 51t-159.5 21
q-42 0 -61 -2t-67 -13l-5 -127q33 -12 52 -16t41 -4z" />
    <glyph glyph-name="C" unicode="C" horiz-adv-x="685" 
d="M323 83q65 0 137.5 41t110 94t57.5 53q13 0 31 -9t18 -31q0 -42 -65 -108t-140.5 -102t-142.5 -36q-133 0 -216 91t-83 236q0 60 12 124t43.5 154t93 152.5t135.5 62.5q47 0 97.5 -20.5t98.5 -62.5t64.5 -80.5t27.5 -92.5t11 -90q0 -73 -44 -73q-19 0 -41.5 13.5
t-32 30.5t-15.5 51.5t-6 73.5v23l2 47q0 85 -104 85q-69 0 -106 -59t-63 -136t-37 -135.5t-11 -113.5q0 -91 31 -131t110 -50z" />
    <glyph glyph-name="D" unicode="D" horiz-adv-x="741" 
d="M93 655q-18 0 -29.5 -2t-27.5 -10q-34 -14 -49 -14q-17 0 -29.5 16.5t-12.5 38.5q0 53 68 76q51 20 113 30t130 10q186 0 320 -117t134 -278q0 -69 -54 -171.5t-154 -173.5t-198 -71l-40 3l-52 8q-9 0 -22 -5l-28 -13l-25 8q-51 23 -51 48l3 21l23 596h-19zM219 91
q0 -12 33 -12q25 0 68.5 20t156 102t112.5 261q0 68 -27 118.5t-61 68t-54 24t-39 6.5l-106 6q-61 0 -61 -37l1 -13l-19 -520z" />
    <glyph glyph-name="E" unicode="E" horiz-adv-x="771" 
d="M514 703q-27 0 -72.5 -12t-112 -39t-113 -58.5t-46.5 -54.5q0 -26 73 -36l220 -32q18 -3 35 -3q44 0 66 20q17 13 24 13q11 0 21 -24.5t10 -53.5q0 -30 -9.5 -38.5t-47.5 -8.5q-24 0 -73 -17l-92 -30q-91 -30 -143.5 -57.5t-91 -62.5t-38.5 -58q0 -57 128 -57q33 0 81 5
t128.5 21t146.5 44l98 53q13 8 23 8q11 0 22 -11t11 -23q0 -22 -33.5 -52t-106 -65t-156.5 -59t-147 -24q-115 0 -198.5 64.5t-83.5 153.5q0 51 44 98t115 74l82 30l3 1q-80 18 -112 29t-56 28t-38 44t-14 55q0 90 115.5 143t204 78t152.5 25q73 0 116.5 -34.5t43.5 -93.5
q0 -36 -18.5 -59.5t-47.5 -23.5q-37 0 -59.5 26.5t-22.5 73.5h-31z" />
    <glyph glyph-name="F" unicode="F" horiz-adv-x="629" 
d="M533 465h8q54 0 54 -48q0 -33 -37 -38l-313 -42l-26 -268v-23q2 -6 3 -12.5t2 -10.5q0 -6 -28 -15t-55 -9q-50 0 -61 20l9 50l7 268l-28 14q-12 9 -21 27t-9 34q0 36 61 36l10 190q0 11 -4 17t-10 7l-29 6q-13 3 -18.5 7.5t-11.5 16.5t-9.5 20.5t-3.5 21.5q0 28 43 28
l523 20q5 0 13.5 -4t14.5 -10t15.5 -23.5t9.5 -30.5q0 -19 -23 -19h-4q-65 0 -152.5 -9.5t-197.5 -33.5l-14 -2q-10 0 -10 -22l-9 -170z" />
    <glyph glyph-name="G" unicode="G" horiz-adv-x="744" 
d="M627 326h9q37 0 60 -23t23 -61q0 -28 -36 -95t-114.5 -116t-181.5 -49q-147 0 -253 99t-106 237q0 78 26 171.5t68 173t86.5 107.5t123.5 28q74 0 152 -30t114.5 -65.5t50.5 -102.5l14 -69q5 -28 5 -54q0 -59 -41 -59q-10 0 -28 7l-38 16q-15 7 -25 36t-10 74
q0 165 -114 165q-8 0 -15 -1t-60.5 -21.5t-117.5 -148t-64 -270.5q0 -82 26.5 -123.5t71.5 -61.5t92 -20q19 0 34 3t50 14.5t64.5 41t65.5 96.5q-45 -6 -93 -6q-93 0 -114.5 19.5t-29.5 59.5z" />
    <glyph glyph-name="H" unicode="H" horiz-adv-x="771" 
d="M110 737q2 10 8 20.5t14 14t40 7.5l25 3q52 0 52 -27l-3 -20l2 -13l-22 -366l1 -11l305 17l18 377q0 28 13 38t49 10q39 0 62 -10t23 -28l-4 -29l-28 -355l28 1q32 0 50.5 -13.5t18.5 -36.5q0 -16 -7 -22t-30 -9l-63 -7l-9 -247q0 -21 -8 -29t-27 -8q-40 0 -67 11.5
t-27 28.5l9 234l-314 -25l-13 -219q0 -26 -60 -26q-54 0 -54 39l2 200h-19q-119 0 -119 64q0 16 6 22t27 6l105 3z" />
    <glyph glyph-name="I" unicode="I" horiz-adv-x="339" 
d="M53 693q-23 3 -38 18t-15 35q0 26 42.5 37.5t135.5 11.5q47 0 71 -3t56 -12.5t32 -38.5q0 -25 -16 -37t-56 -12q-13 0 -17 -2t-4 -20l-10 -560q0 -9 10.5 -18t33.5 -12.5t29.5 -6.5t14 -10.5t7.5 -20.5q0 -17 -12.5 -25t-44.5 -12l-44 -4l-56 -1l-106 2q-29 0 -48 10
t-19 25t7 25t18 10l22 4q24 3 40 16t16 31l-11 547q0 10 -7.5 14.5t-30.5 8.5z" />
    <glyph glyph-name="J" unicode="J" horiz-adv-x="375" 
d="M17 732q0 33 45 48t147 15t146 -13t44 -43q0 -25 -23.5 -37.5t-100.5 -27.5l-21 -489q0 -48 -17.5 -104.5t-45 -100t-71 -59.5t-139.5 -16q-92 0 -92 45q0 23 22 39t55 16q26 0 43 -7t21.5 -8.5t9.5 -2.5q19 0 54 40.5t35 176.5v471q-59 7 -85.5 21t-26.5 36z" />
    <glyph glyph-name="K" unicode="K" horiz-adv-x="667" 
d="M214 54l3 -26q0 -19 -17.5 -26t-63.5 -7q-31 0 -44 5t-13 18l2 22l24 710q0 25 11 32t40 7q50 0 67 -7.5t17 -29.5l-19 -314l355 323q14 12 26 12q14 0 34.5 -9t30.5 -20l4 -13q0 -7 -3 -10l-312 -296q-23 -21 -23 -34q0 -5 1 -9.5t7 -15.5l36 -74q29 -60 63 -107t58 -63
t50 -16q27 0 53 12l36 16l14 5q10 0 19.5 -13t9.5 -22q0 -16 -20 -38t-53 -39.5t-75 -17.5q-94 0 -155.5 70.5t-86.5 106.5t-75 118z" />
    <glyph glyph-name="L" unicode="L" horiz-adv-x="511" 
d="M498 110l14 -4l25 -12q2 -4 4.5 -9.5t3.5 -12.5l1 -10q0 -36 -41 -36l-413 -27q-31 0 -31 28v4l7 41l35 652l-2 36q0 26 72 26q92 0 92 -30l-3 -33l-39 -603z" />
    <glyph glyph-name="M" unicode="M" horiz-adv-x="842" 
d="M147 43l-1 -29q0 -30 -48 -30q-7 0 -16 1.5t-20 4.5t-11 34l1 14l60 693q3 26 6.5 33t26.5 16.5t64 9.5q27 0 48 -7.5t23 -17.5l5 -27l112 -551l185 544q7 20 23 31q14 13 63 13q37 0 50 -11t13 -43l4 -282l1 -177v-19q0 -63 16 -97t47 -34q9 0 41 18q15 7 31 7
q24 0 24 -26q0 -34 -57.5 -67t-85.5 -33q-33 0 -63 17t-49.5 56.5t-32.5 128t-13 248.5l-131 -384l-9 -21q-12 -17 -75 -17q-16 0 -25 1t-26 4t-20.5 7t-9.5 26l-103 369z" />
    <glyph glyph-name="N" unicode="N" horiz-adv-x="695" 
d="M509 738q0 30 8 39.5t33 9.5q34 0 44.5 -9t10.5 -39l-8 -690q0 -24 -16 -31t-67 -7q-30 0 -41 2.5t-15 10.5l-10 20l-239 435l-8 -449l1 -20v-7q0 -28 -6 -34.5t-13.5 -9.5t-18.5 -7t-28 -4q-51 0 -51 65l20 694q0 56 43 62l43 5l30 2q49 0 49 -51v-4l-1 -22l6 -24
l213 -488z" />
    <glyph glyph-name="O" unicode="O" horiz-adv-x="772" 
d="M603 676q63 -31 99.5 -109.5t36.5 -182.5q0 -175 -96 -285t-249 -110q-83 0 -155.5 32t-140 108t-67.5 235q0 187 84 311t211 124q55 0 95 -24l71 -46zM170 311q0 -24 1 -37t8 -62.5t60 -99.5t121 -50q99 0 175 101t76 233q0 124 -69 212t-168 88q-70 0 -115.5 -59
t-66.5 -131t-21 -174z" />
    <glyph glyph-name="P" unicode="P" horiz-adv-x="649" 
d="M15 657l-74 -18q-6 -1 -12.5 -1.5t-8.5 -0.5l-9 1q-7 2 -13.5 6.5t-16 18.5t-9.5 25q0 13 15 26t69 31.5t148.5 33.5t196.5 15q110 0 181.5 -26t125 -88t53.5 -146q0 -95 -59 -135.5t-93 -56t-79.5 -30t-85.5 -21t-109 -6.5l-13 -253v-19q0 -14 -17 -18.5t-67 -4.5
q-14 0 -27 3.5t-17.5 10t-4.5 24.5l1 7l34 641zM421 415q58 35 95.5 83.5t37.5 87.5t-62 68t-146 29q-30 0 -83 -9l-23 -310q68 7 104.5 17.5t76.5 33.5z" />
    <glyph glyph-name="Q" unicode="Q" horiz-adv-x="770" 
d="M709 93l48 43l8 7q11 7 21 7q16 0 26 -12t10 -33q0 -45 -51.5 -80.5t-117.5 -35.5l-14 1l-95 20l-39 -4l-46 -11q-21 -7 -47 -7q-38 0 -70 8t-51 22l-42 33l-130 69q-35 18 -62 80t-27 126q0 109 43 222.5t91.5 164t89 68t80.5 17.5q61 0 115 -39l117 -84l101 -67
q26 -17 42 -73.5t16 -128.5q0 -107 -19 -166.5t-84 -154.5zM559 165q26 46 42 115.5t16 132.5q0 119 -59 198.5t-148 79.5q-41 0 -78 -19t-72 -65t-63 -137t-28 -174q0 -72 29 -122.5t71 -50.5q7 0 40 15t46.5 18t30.5 3q44 0 145 -35z" />
    <glyph glyph-name="R" unicode="R" horiz-adv-x="699" 
d="M215 22q0 -17 -8.5 -24.5t-41.5 -7.5q-22 0 -32 1.5t-25 6.5q-11 2 -15 7t-4 19l20 630l1 10q0 17 -20 17h-6l-95 -23l-13 -1q-40 0 -40 41q0 32 13.5 49.5t35.5 24.5t63 11l89 5l53 2l77 -3q52 0 90.5 -8.5t96.5 -29t86.5 -37.5t72.5 -67.5t44 -120.5q0 -118 -196 -208
q32 -77 54 -114t59.5 -72t83.5 -35l16 1l20 2q20 0 20 -21q0 -24 -39.5 -41.5t-92.5 -17.5q-49 0 -92 26.5t-72 64.5t-51.5 87.5t-34.5 61t-29 11.5l-23 -1l-54 -9zM434 417q42 33 66 73t24 78q0 43 -34.5 71t-97.5 35l-85 8l-28 1q-37 0 -37 -29l-14 -307q75 0 114 14
t92 56z" />
    <glyph glyph-name="S" unicode="S" horiz-adv-x="745" 
d="M400 251q-92 18 -166.5 49t-103 59.5t-50 79t-21.5 98.5q0 45 30 88.5t73.5 77t59.5 44.5t33 22q42 23 92.5 38t91.5 15q49 0 96 -36t104.5 -114.5t57.5 -119.5q0 -26 -12.5 -43.5t-32.5 -17.5q-33 0 -62 36.5t-49.5 94.5t-36 74t-38.5 16q-32 0 -88 -28t-107 -69
t-78.5 -82.5t-27.5 -77.5q0 -26 24 -40t88.5 -22t207.5 -46t186.5 -72t43.5 -85q0 -35 -30.5 -75t-106.5 -81.5t-275 -41.5q-83 0 -138 15t-87 42.5t-48 55.5t-16 52q0 26 13 44t31 18t29.5 -14.5t11.5 -36.5l2 -23q1 -10 16 -21q22 -14 67 -25t84 -11l37 3l103 14
q88 10 114 25l61 32q25 15 25 29q0 7 -5.5 11.5t-20.5 9.5l-37 11z" />
    <glyph glyph-name="T" unicode="T" horiz-adv-x="675" 
d="M-8 656q-7 0 -27.5 12t-20.5 39q0 17 11 23l21 2l10 1l604 50l15 1q41 0 50 -18l23 -46q12 -27 12 -37q0 -14 -19 -14l-22 -1l-222 -14l-31 -623q0 -23 -8 -31t-29 -8q-54 0 -71 10q-12 5 -12 33l20 619z" />
    <glyph glyph-name="U" unicode="U" horiz-adv-x="744" 
d="M446 69q-33 -41 -67 -60t-77 -19q-23 0 -39 5q-47 8 -77.5 22t-50.5 39.5t-39 121.5t-19 198q0 32 3 77t16.5 156.5t35.5 151.5q16 26 70 26q30 0 40 -8.5t10 -34.5q0 -29 -13 -79.5t-26 -177.5t-13 -184q0 -101 22 -173t53 -72q37 0 81.5 55t71 117t37.5 91t27.5 81.5
t30.5 128.5t14 112q0 47 4 64t21.5 33t62.5 16q47 0 47 -46q0 -13 -5 -35l-14 -63q-22 -108 -22 -236q0 -105 14.5 -183t50.5 -78l8 1l32 13q6 2 13 3t13 1q36 0 36 -26q0 -16 -32 -48.5t-83 -32.5q-44 0 -84 30t-50 72l-18 74l-5 9q-25 -56 -41.5 -85t-38.5 -57z" />
    <glyph glyph-name="V" unicode="V" horiz-adv-x="585" 
d="M341 290q14 38 28 73t39.5 96.5t43.5 101t33 69.5l47 95q6 18 28 18q15 0 26 -7t11 -17l-3 -14l-38 -95l-67 -185l-66 -194l-53 -180l-18 -32q-7 -12 -32.5 -20t-60.5 -8q-33 0 -50.5 11.5t-38.5 47.5l-60 190l-49 166q-18 58 -37.5 149t-35.5 171l-2 17q0 21 22 36
t51 15q20 0 31 -15.5t16.5 -36.5t19.5 -90l59 -220l42 -150l53 -160q42 121 61 168z" />
    <glyph glyph-name="W" unicode="W" horiz-adv-x="901" 
d="M355 38q-18 -26 -38.5 -36.5t-49.5 -10.5q-43 0 -83.5 16t-55.5 41q-21 30 -38.5 121t-17.5 157q0 196 5 254.5t23.5 113.5t76.5 55q67 0 67 -34q0 -11 -8 -28t-10 -31l-10 -79l-12 -116l-2 -45q0 -29 5.5 -112t5.5 -139q0 -44 5 -61.5t24 -44.5q37 25 53 48.5t39 100.5
t46.5 192t23.5 161q0 38 9 49t42 11q81 0 81 -45q0 -10 -1 -22t-7 -45.5t-6 -136.5q0 -116 13 -183t48 -118q53 76 73.5 125.5t42 150.5t32.5 180.5t11 130.5q0 23 -3.5 38t-16.5 41t-13 40q0 25 32 25q36 0 62 -50t26 -120l-3 -91q0 -111 -16 -194.5t-49 -178t-71.5 -139
t-91.5 -44.5q-34 0 -62 16.5t-51.5 54t-57.5 127.5q-27 -66 -40.5 -93t-31.5 -52z" />
    <glyph glyph-name="X" unicode="X" horiz-adv-x="617" 
d="M176 141l-54 -78q-43 -69 -58 -87.5t-29 -18.5q-16 0 -33.5 20.5t-17.5 39.5q0 17 19.5 52.5t50.5 75t58 82t58 95.5q-18 47 -42.5 114t-42.5 129.5t-32 89.5q-22 52 -22 77q0 23 32 41t73 18q19 0 28.5 -10.5t13.5 -39.5l14 -69q21 -81 28.5 -104t42.5 -120l268 339
q18 23 60 23q25 0 42 -9t17 -23q0 -7 -14 -27l-324 -428q17 -38 26.5 -58.5t43 -86.5t102.5 -66q24 0 42.5 6t24.5 16l22 32q8 12 17 12q20 0 31 -13t11 -26q0 -10 -30 -53t-130 -43q-47 0 -92 16t-70 38t-49 52.5t-40 58.5z" />
    <glyph glyph-name="Y" unicode="Y" horiz-adv-x="737" 
d="M409 43q-45 -39 -104 -39q-67 0 -123.5 38t-74 85.5t-24 104t-6.5 136.5q0 73 6 133.5t20.5 156t30.5 112t55 16.5q41 0 57.5 -6t16.5 -22q0 -10 -3.5 -20t-17.5 -49.5t-27 -178t-13 -195.5q0 -42 2 -67.5t14.5 -98.5t73.5 -73q59 0 125 123.5t91 280.5l15 94l18 123
q0 26 7 36t27 10l42 -2l29 1q17 0 17 -28l-4 -33q-12 -110 -16.5 -166t-4.5 -124l-8 -149q0 -174 -1.5 -238.5t-5 -148t-4.5 -118.5q0 -12 -10.5 -27.5t-46.5 -15.5l-18 2q-34 9 -40.5 22t-6.5 108l1 102l5 211l2 39q-30 -58 -50 -85.5t-46 -49.5z" />
    <glyph glyph-name="Z" unicode="Z" horiz-adv-x="622" 
d="M155 133q41 0 73 2t90.5 7.5t104 8.5t52.5 3q119 0 119 -71q0 -26 -35 -26l-34 1q-26 0 -177 -23l-215 -33q-22 -4 -47.5 -6t-44.5 -2q-82 0 -82 84q0 19 9.5 46t35.5 58l116 123l185 198l110 112l35 38l-91 -4q-51 0 -114 -3.5t-67 -3.5q-64 0 -101.5 19.5t-37.5 52.5
q0 19 6.5 24.5t29.5 5.5l61 -2q6 -1 26 1t32 3l184 20l157 18q23 0 36.5 -16.5t27.5 -44.5t14 -44q0 -19 -25 -50t-67.5 -68t-75.5 -71t-74 -80l-126 -142q-23 -26 -47.5 -55t-26.5 -31l-35 -49h19z" />
    <glyph glyph-name="backslash" unicode="\" horiz-adv-x="297" 
d="M123 720l127 -720h-77l-126 720h76z" />
    <glyph glyph-name="underscore" unicode="_" horiz-adv-x="623" 
d="M0 0v25h623v-25h-623z" />
    <glyph glyph-name="grave" unicode="`" horiz-adv-x="235" 
d="M-18 623q0 20 13 33t34 13l19 -3l116 -47q31 -11 31 -44q0 -20 -13 -33t-34 -13l-18 3l-117 46q-31 13 -31 45z" />
    <glyph glyph-name="a" unicode="a" 
d="M422 391q32 0 32 -15q0 -10 -7 -30t-13 -81t-6 -136q0 -48 28 -48q11 0 32 13t41 33.5t31 20.5q8 0 13 -8t5 -21q0 -22 -28.5 -61.5t-81.5 -39.5q-24 0 -52 10t-40 23l-19 20q-5 6 -14 6q-17 0 -37 -31.5t-41 -42.5t-64 -11q-172 0 -172 184q0 115 51 207t115 92
q74 0 124.5 -22t77.5 -64zM243 92q30 30 54 96.5t24 147.5q0 35 -9 49t-33 14q-34 0 -60.5 -33.5t-47.5 -99.5t-21 -127q0 -43 10 -60.5t35 -17.5l7 1q7 1 20 11.5t21 18.5z" />
    <glyph glyph-name="b" unicode="b" horiz-adv-x="492" 
d="M108 36q-27 0 -36 17t-9 69q0 242 12 459t25 250.5t63 33.5t50 -37l-1 -17q-10 -65 -17.5 -162.5t-7.5 -208.5l12 11q52 46 85 46q73 0 127 -82t54 -192q0 -47 -13 -96t-43 -95.5t-113 -46.5q-74 0 -126 49l-12 10q-32 -8 -50 -8zM291 412q-32 0 -62 -65t-42 -111
t-12 -82l1 -15q8 -27 34.5 -48t55.5 -21q31 0 53.5 40.5t22.5 121.5l-3 34l-9 79q-5 39 -13 53t-26 14z" />
    <glyph glyph-name="c" unicode="c" horiz-adv-x="436" 
d="M318 185q-40 0 -56.5 25.5t-16.5 88.5v20q0 75 -36 75q-23 0 -37 -51t-14 -137t13.5 -118t50.5 -32q32 0 78 16.5t86.5 36.5t58 35t25.5 15q9 0 15.5 -7.5t6.5 -16.5q0 -19 -24 -45.5t-84.5 -64t-121.5 -37.5q-55 0 -114.5 28.5t-81.5 59.5t-28 54.5t-6 63.5
q0 133 42 214t112 81q78 0 137 -64t59 -150q0 -46 -13.5 -66.5t-45.5 -23.5h-5z" />
    <glyph glyph-name="d" unicode="d" horiz-adv-x="502" 
d="M191 -11q-47 0 -81.5 15t-51 40t-22.5 51t-6 69q0 85 41 203t127 118q32 0 55.5 -9.5t62.5 -39.5q12 120 12 212q0 65 -6 115l-1 20q0 26 10.5 35.5t40.5 9.5q55 0 74.5 -6.5t19.5 -25.5l-3 -17l-19 -43l-3 -15l-3 -28q-10 -74 -10 -204v-42v-34v-26v-21v-18v-14
q0 -19 -0.5 -35t-0.5 -28l-1 -32q0 -122 37 -122q14 0 26 12l57 54q6 7 19 7l9 -2q21 -6 21 -24q0 -14 -15 -38t-34 -44t-42.5 -30t-47.5 -10q-30 0 -54.5 12t-52.5 43q-51 -69 -79.5 -88.5t-78.5 -19.5zM179 54q13 0 30.5 14.5t61 84t43.5 161.5q0 80 -60 80
q-23 0 -42 -23.5t-40.5 -83.5t-21.5 -125v-23q0 -85 29 -85z" />
    <glyph glyph-name="e" unicode="e" horiz-adv-x="429" 
d="M145 133q0 -38 16.5 -52t62.5 -14h23q11 3 38.5 10t49 21t87.5 79q15 17 27 17q11 0 19 -10t8 -23q0 -26 -68.5 -98.5t-182.5 -72.5q-58 0 -109.5 37t-69.5 74.5t-18 110.5q0 136 35 196.5t50 71t39 10.5q90 0 162 -50t72 -112q0 -35 -24.5 -69.5t-62 -53t-69 -26.5
t-81.5 -8q-4 -15 -4 -38zM177 240q6 1 14 3t29.5 12t42 39.5t20.5 64.5q0 50 -41 50q-37 0 -61 -54.5t-24 -95.5q0 -9 1 -13.5t4 -8.5z" />
    <glyph glyph-name="f" unicode="f" horiz-adv-x="303" 
d="M62 337q-97 0 -97 52q0 22 14.5 31t50.5 9l47 1q0 105 5.5 157t20 133.5t56 133.5t98.5 52q36 0 76 -23t63 -57q8 -14 12 -22.5t9 -25.5q12 -28 12 -47q-1 -8 -3 -13t-32 -14l-12 -2q-23 0 -34 35l-9 27q-8 30 -36 30q-18 0 -43 -38t-39.5 -97.5t-14.5 -164.5l-3 -62
l49 -1l37 -3q18 -3 32 -16t14 -28q0 -47 -138 -47l-6 -309q0 -15 -4.5 -21.5t-19.5 -9.5t-37 -3q-37 0 -54 11t-17 36v4l12 292h-9z" />
    <glyph glyph-name="g" unicode="g" horiz-adv-x="516" 
d="M346 422q0 13 11 23t27 10q29 0 49 -11t20 -28l-9 -399v-129q0 -125 -37.5 -158.5t-88.5 -33.5q-38 0 -84 13t-78 32l-51 30q-27 16 -27 29q0 11 7 18t18 7q22 0 76.5 -27.5t90.5 -27.5q21 0 31 13.5t14 48.5l5 48l3 45q11 124 11 150l-1 18q-19 -44 -56 -71t-81 -27
q-34 0 -71 15.5t-65.5 49.5t-28.5 127q0 61 19.5 136.5t56 115t98.5 39.5l36 -3q27 -6 47 -17t58 -41v5zM159 178v-40q0 -70 28 -70q11 0 30.5 18.5t34 38t26 40t29 55t17.5 64.5q0 19 -9 43.5t-26 39.5t-34 15l-5 -1q-37 -7 -64 -67t-27 -136z" />
    <glyph glyph-name="h" unicode="h" horiz-adv-x="543" 
d="M223 402q31 26 83 26q142 0 142 -193v-17l-3 -56q0 -28 8 -47.5t19 -19.5l88 80q9 9 25 9q10 0 19 -6t9 -23q0 -20 -30 -56t-57.5 -50.5t-47.5 -14.5q-25 0 -64.5 19t-58 48.5t-18.5 84.5q0 151 -39 151q-18 0 -57 -70.5t-49 -153.5t-22 -101t-46 -18q-19 0 -34 4.5
t-19 9.5t-7 29l-3 28l20 752v21q0 18 57 18q40 0 54 -7.5t14 -30.5v-15l-23 -446q23 31 40 45z" />
    <glyph glyph-name="i" unicode="i" horiz-adv-x="264" 
d="M178 139q0 -50 6.5 -66t26.5 -16q25 0 64.5 26.5t58.5 26.5q25 0 25 -17t-26 -43q-30 -34 -60 -48t-71 -14q-37 0 -71 14t-51 51.5t-17 114.5q0 166 18 198t66 32q50 0 50 -26l-16 -131q-3 -18 -3 -102zM231 565q0 -38 -23.5 -62.5t-59.5 -24.5q-33 0 -56 21t-23 51
q0 39 24 64t61 25q28 0 48.5 -15t24.5 -31t4 -28z" />
    <glyph glyph-name="j" unicode="j" horiz-adv-x="249" 
d="M57 439q0 42 66 42q80 0 80 -62l-1 -13q0 -21 -5.5 -130.5t-5.5 -151.5q0 -199 -5.5 -262t-25 -102t-103.5 -39q-25 0 -46 5t-49.5 18t-51 34t-22.5 38q0 24 23 24q19 0 54 -19q33 -20 59 -20q32 0 39 30t7 159q0 23 -1 71t-1 72l-7 280zM218 643q0 -38 -23 -62t-61 -24
q-33 0 -55.5 20.5t-22.5 51.5q0 38 24 63t61 25q27 0 48 -15t27 -40z" />
    <glyph glyph-name="k" unicode="k" horiz-adv-x="506" 
d="M182 55l1 -24q0 -27 -10.5 -36.5t-39.5 -9.5q-70 0 -70 53l19 730q0 35 17.5 45.5t73.5 10.5q26 0 40 -7.5t14 -21.5l-8 -43l-33 -370l17 19q64 74 107 74q55 0 99 -47t44 -107q0 -43 -24.5 -78.5t-89.5 -86.5q21 -73 65 -73q22 0 50.5 14t59 41.5t46.5 27.5q17 0 17 -19
q0 -14 -39.5 -55.5t-72 -59.5t-82.5 -18q-46 0 -89.5 24t-112.5 87v-49q0 -15 1 -21zM318 391q-22 0 -47 -32l-45 -63q-21 -29 -21 -46q0 -14 14 -25t32 -11q34 0 59 39t25 93q0 17 -2.5 28.5t-7.5 14.5z" />
    <glyph glyph-name="l" unicode="l" horiz-adv-x="258" 
d="M241 50q10 0 22 7.5t37 29.5t45 22q24 0 24 -25q0 -18 -37.5 -59t-101.5 -41q-90 0 -129.5 50.5t-39.5 163.5q0 64 3 125.5t15 183t16 170.5t4 67l-3 33l-2 26q0 36 83 36q61 0 61 -39l-9 -40q-8 -36 -27.5 -221.5t-19.5 -220.5l-3 -135q0 -133 62 -133z" />
    <glyph glyph-name="m" unicode="m" horiz-adv-x="731" 
d="M86 413q2 25 4.5 39.5t8 19t36.5 10.5l19 2q37 0 37 -39l-10 -107l17 23l14 29q16 31 64 31q19 0 39 -6l45 -14q21 -15 39 -66q37 72 68 100t75 28q58 0 88.5 -37.5t30.5 -109.5q0 -15 -2 -34t-5 -40q-8 -40 -8 -74q0 -94 56 -94q10 0 42.5 9t47.5 9q26 0 26 -16
q0 -22 -34.5 -43t-60 -30t-55.5 -9q-63 0 -92.5 39t-29.5 125l-4 162q0 22 -3.5 36t-8.5 14q-9 0 -36 -34t-39 -85l-26 -104q-1 -6 -7 -32t-6 -30q0 -41 -6 -54.5t-25 -13.5q-23 0 -40.5 3t-33 9.5t-15.5 36.5v4l3 112q0 14 1 45t1 47q0 33 -4 45.5t-16 12.5
q-22 0 -44.5 -36.5t-33.5 -91.5l-40 -188q-3 -18 -33 -18q-38 0 -53 20t-15 71l2 27l15 222z" />
    <glyph glyph-name="n" unicode="n" horiz-adv-x="521" 
d="M294 442q26 0 95.5 -26.5t69.5 -170.5l-1 -57q0 -53 5 -71t21 -18q7 0 21 7l58 27q7 4 13 4q8 0 16 -9t8 -20q0 -19 -27 -43q-55 -42 -112 -42q-125 0 -125 136q0 16 1 34.5t4 38.5l3 52q0 37 -6.5 51.5t-23.5 14.5q-29 0 -61.5 -65t-52.5 -163l-17 -85q-9 -41 -36 -41
q-20 0 -43.5 10t-32 18.5t-8.5 32.5l2 26l19 358q0 35 53 35q58 0 58 -31l-11 -99l1 -12q55 108 109 108z" />
    <glyph glyph-name="o" unicode="o" horiz-adv-x="484" 
d="M385 88q-41 -101 -142 -101q-95 0 -154 65t-59 171q0 92 49 174.5t112 82.5q24 0 47 -7.5t33 -17.5l22 -24l59 -41q14 -10 29 -32t19 -43l8 -31q5 -22 13 -22l13 9q34 36 48 85t33 49q14 0 23 -11t9 -28q0 -31 -21.5 -82t-49.5 -83q-24 -25 -68 -38q-8 -33 -11 -44
t-12 -31zM232 381q-20 0 -42.5 -29.5t-33.5 -69t-11 -84.5q0 -64 21 -104.5t55 -40.5q14 0 25 8q14 7 26.5 21t29 52.5t16.5 63.5q0 8 -3 13l-36 59l-18 42l-5 46q-4 23 -24 23z" />
    <glyph glyph-name="p" unicode="p" horiz-adv-x="503" 
d="M322 471q71 0 110 -51.5t39 -144.5q0 -97 -50 -160.5t-127 -63.5l-31 3l-51 12h-25l-10 -306l-1 -32q-3 -9 -19.5 -17t-34.5 -8q-22 0 -36 9.5t-17 16.5t-3 25l1 12l30 771l1 18q1 6 11.5 12.5t25.5 6.5q14 0 30.5 -3t26.5 -8.5t10 -26.5l-5 -132q37 37 64.5 52t60.5 15z
M269 119q35 0 58 47.5t23 121.5q0 16 -2 36.5t-5 44.5q-5 21 -20 21q-21 0 -43 -31q-35 -43 -56.5 -90.5t-21.5 -81.5l1 -13q2 -21 22.5 -38t43.5 -17z" />
    <glyph glyph-name="q" unicode="q" horiz-adv-x="494" 
d="M276 46q-27 -35 -44.5 -45.5t-48.5 -10.5q-35 0 -75 20.5t-57 56.5t-17 110q0 132 54.5 220.5t135.5 88.5q41 0 67 -18t57 -68q21 6 38 6q46 0 46 -55v-40q-3 -20 -4 -31l-9 -149l-16 -215l-3 -107l-1 -14q0 -43 9.5 -57.5t39.5 -14.5q-19 -21 -35.5 -30.5t-33.5 -9.5
q-8 0 -17.5 2.5t-28.5 13t-29 34t-10 77.5l3 71q3 30 6 87.5t3 114.5zM249 389q-40 0 -74 -82.5t-34 -182.5q0 -71 32 -71q10 0 31 25t48 70.5t37 82.5t10 88q0 70 -50 70z" />
    <glyph glyph-name="r" unicode="r" horiz-adv-x="303" 
d="M263 425q31 0 51 -18t20 -46q0 -41 -37 -41q-13 0 -20 1.5t-21 7.5l-24 -39q-22 -39 -35 -82.5t-13 -82.5l-6 -91q-2 -14 -7 -25l-10 -15q-5 -5 -29 -5q-39 0 -54 13t-15 47l13 400l5 18l9 12q12 10 47 10q29 0 38 -5t9 -23q0 -8 -1 -21.5t-4 -28.5l-2 -45q25 34 43 46.5
t43 12.5z" />
    <glyph glyph-name="s" unicode="s" horiz-adv-x="430" 
d="M48 336q0 59 50.5 101.5t120.5 42.5q46 0 91 -9t52.5 -11.5t20.5 -11t13 -44.5q0 -32 -27 -32q-18 0 -37 6t-46 6q-45 0 -72.5 -17.5t-27.5 -46.5l1 -13q7 -22 23.5 -36.5t102 -66t85.5 -111.5q0 -41 -39 -70t-94 -29q-44 0 -97.5 15t-99 39t-45.5 48q0 11 20 32
q8 6 14 9.5t11 3.5q8 0 21 -12t21.5 -16.5t25 -12t42.5 -14.5t39 -7q38 0 38 23q0 14 -23 38t-53 39l-72 38q-25 14 -42 47.5t-17 71.5z" />
    <glyph glyph-name="t" unicode="t" horiz-adv-x="350" 
d="M52 422q-83 0 -83 53q0 35 63 35h13q21 0 31.5 2t18.5 3v16q0 85 9 100q6 13 24.5 22t37.5 9q57 0 57 -65q0 -16 -1 -37t-4 -45q8 2 18.5 2h16.5q37 0 61 -16t24 -40q0 -8 -14.5 -18.5t-40 -16t-70.5 -5.5q0 -67 -4.5 -137.5t-9.5 -146.5q0 -66 38 -66q5 0 15.5 3.5
t25.5 10.5l37 18l31 16q5 2 13 5.5t16 3.5q22 0 22 -24q0 -27 -54.5 -59.5t-80.5 -41.5t-59 -9q-42 0 -74 29q-27 22 -37 52.5t-10 89.5l1 259z" />
    <glyph glyph-name="u" unicode="u" horiz-adv-x="514" 
d="M226 93q4 5 17 29.5t22.5 44.5t20.5 49t20 60l28 101q7 26 21 34t51 8q49 0 49 -42q0 -20 -9.5 -44.5t-12.5 -41t-3 -41.5q0 -32 3 -71.5t7 -69t35 -29.5q11 0 18 5l66 52q6 6 16 6t17 -7t7 -19q0 -18 -30 -43l-27 -22q-33 -25 -52.5 -34.5t-39.5 -9.5q-84 0 -100.5 49
t-19.5 51q-3 0 -9.5 -9.5t-25 -56.5t-70.5 -47q-26 0 -57 5t-44 11t-21.5 15.5t-16.5 25.5q-8 21 -12 52.5t-4 84.5q0 14 1 44t1 45q0 20 2 70t2 58q0 22 1 31.5t6 23.5t36 14q77 0 77 -32q0 -18 -5.5 -33t-9.5 -64.5t-4 -86.5q-1 -10 -1.5 -22.5t-0.5 -19.5v-15
q0 -55 3 -77t18 -64z" />
    <glyph glyph-name="v" unicode="v" horiz-adv-x="363" 
d="M301 413q7 33 29 33q57 0 57 -60q0 -17 -3 -28l-86 -219q-33 -86 -54.5 -117t-47.5 -31q-18 0 -40.5 7t-36.5 19.5t-56 137.5l-65 199q-13 33 -13 62q0 25 31 44t72 19q26 0 26 -36v-42q0 -24 22.5 -77.5t58.5 -162.5q51 92 73.5 145.5t32.5 106.5z" />
    <glyph glyph-name="w" unicode="w" horiz-adv-x="617" 
d="M303 195l-12 -34l-39 -123q-18 -59 -78 -59q-24 0 -44.5 12t-25.5 23.5t-9 24t-12 42t-14 63.5t-11 75q0 69 -8.5 111t-20.5 67q-17 28 -17 47q0 32 83 32q59 0 59 -30l-5 -22q-4 -20 -4 -34v-12q0 -34 5 -69.5t13 -67.5l23 -89l4 -15l39 108l17 67q15 53 24 65t11 13
l5 2.5t40 9.5l29 3q14 0 22.5 -5t18.5 -37t17 -75q6 -53 36 -154l3 7l45 130l38 140q10 37 24 37q13 0 24 -9t21 -27q6 -7 6 -21q0 -21 -7.5 -59t-20.5 -80l-36 -116q-30 -98 -43.5 -113.5t-32.5 -21.5t-38 -6l-26 3q-26 8 -38 23.5t-19.5 48t-17 63t-25.5 71.5z" />
    <glyph glyph-name="x" unicode="x" horiz-adv-x="489" 
d="M35 374q-19 32 -19 52q0 16 32 33t58 17q19 0 33 -20t34 -75q8 -27 35 -73q19 28 35.5 52.5t31.5 43.5l36 51q19 33 28.5 42.5t23.5 9.5q16 0 46.5 -13t30.5 -31q0 -12 -25 -33t-48.5 -51t-50 -64.5t-67.5 -86.5l22 -49q36 -80 95 -80q33 0 72 38q39 34 63 34
q27 0 27 -20q0 -6 -6 -17t-32.5 -38t-71.5 -52t-83 -25q-29 0 -65.5 15.5t-55.5 33.5t-41 60l-18 -34l-43 -69q-15 -42 -31 -42q-15 0 -38.5 16t-23.5 32q0 21 26 62t42.5 62.5t41.5 49.5q-30 57 -50 92z" />
    <glyph glyph-name="y" unicode="y" horiz-adv-x="516" 
d="M270 68q-38 -34 -84 -34q-36 0 -60.5 15.5t-35 33.5t-19 67.5t-8.5 114.5q0 55 8.5 122.5t48.5 67.5q32 0 54.5 -18.5t22.5 -44.5q0 -19 -3 -35t-9 -45.5t-6 -97.5q0 -96 25 -96q8 0 32 28.5t50 107t39.5 163.5t35.5 85l53 -9q39 -5 39 -35t-8 -67t-12 -143.5t-4 -289.5
q0 -118 -35 -163q-16 -18 -45.5 -31t-56.5 -13l-20 -1l-46 7l-69 21q-15 7 -28 16.5t-38.5 28t-25.5 42.5q0 16 26 16h4q19 -2 51 -15t66.5 -35t53.5 -22q33 0 47.5 61.5t14.5 198.5v66q-34 -47 -58 -67z" />
    <glyph glyph-name="z" unicode="z" horiz-adv-x="424" 
d="M305 122l38 3q51 0 51 -47q0 -34 -35 -34q-46 0 -92.5 -9t-89 -20.5t-54.5 -13.5t-21 -2q-21 0 -45.5 21.5t-24.5 43.5q0 21 17.5 55.5t54.5 86.5t71 101l46 63h-8l-15 1l-92 -3h-8q-63 0 -63 43q0 29 53 40l42 6q136 21 184 21q35 0 56 -15t21 -39q0 -18 -11 -37.5
t-41 -55.5t-60 -81.5t-87 -140.5z" />
    <glyph glyph-name="braceleft" unicode="{" horiz-adv-x="316" 
d="M110 432v330q0 71 81 71h78v-45h-12q-35 0 -46.5 -11.5t-11.5 -46.5v-290q0 -31 -20 -54t-51 -26q31 -3 51 -26t20 -54v-290q0 -35 11.5 -46.5t46.5 -11.5h12v-45h-78q-81 0 -81 71v330q0 31 -17.5 51.5t-45.5 20.5q27 0 45 20t18 52z" />
    <glyph glyph-name="bar" unicode="|" horiz-adv-x="170" 
d="M47 720h76v-720h-76v720z" />
    <glyph glyph-name="braceright" unicode="}" horiz-adv-x="316" 
d="M47 -68h12q35 0 46.5 11.5t11.5 46.5v290q0 31 20 54t51 26q-31 3 -51 26t-20 54v290q0 35 -11.5 46.5t-46.5 11.5h-12v45h78q81 0 81 -71v-330q0 -31 17.5 -51.5t45.5 -20.5q-27 0 -45 -20t-18 -52v-330q0 -71 -81 -71h-78v45z" />
    <glyph glyph-name="Adieresis" unicode="&#xc4;" horiz-adv-x="714" 
d="M430 902q0 -39 -23.5 -63.5t-60.5 -24.5q-32 0 -55 21t-23 51q0 38 23.5 63.5t60.5 25.5q28 0 48 -15t27 -41zM622 902q0 -38 -24 -63t-61 -25q-32 0 -55 21t-23 51q0 39 24 64t61 25q27 0 47.5 -15.5t26.5 -40.5q4 -7 4 -17zM521 729q24 10 60 10q29 0 41 -6.5t12 -24.5
q0 -5 -1.5 -14.5t-6 -27t-7.5 -39t-3 -37.5l-6 -120l-4 -199q0 -83 20 -121t65 -38l13 4l33 12l6 1q16 0 16 -19q0 -24 -46 -58.5t-87 -34.5q-14 0 -28.5 4t-42.5 18.5t-41 32.5t-21 63l-7 34q-25 -48 -36 -66.5t-29 -44.5q-59 -76 -147 -76q-115 0 -180.5 74.5t-65.5 204.5
q0 99 30.5 206.5t98 218.5t172.5 111l32 -2q41 -6 67.5 -22t70.5 -61zM397 693q-69 0 -151.5 -132t-82.5 -327q0 -78 18.5 -124.5t49.5 -46.5q25 0 66 24t76 72t68.5 130t40.5 142l6 74l1 36q0 112 -64 144q-14 8 -28 8z" />
    <glyph glyph-name="Aring" unicode="&#xc5;" horiz-adv-x="714" 
d="M502 712q19 18 32.5 21t25.5 4t22 1h6l37 -7q10 -5 10 -20q0 -20 -5 -34l-1 -6l-4 -27l-2 -23l-5 -32l-1 -13l-1 -11v-14l-1 -42l-1 -13l-3 -26l-1 -20l-2 -31l-3 -15v-16l-1 -13v-7v-4v-39v-37v-24l1 -59l1 -33v-18q0 -37 5 -47.5t24 -10.5q20 0 46 10l17 5l41 17l8 -3
q13 -1 13 -16q0 -23 -44.5 -58t-90.5 -35q-19 0 -56 17t-48.5 29.5t-19.5 49.5l-6 22l-3 14l-1 7l-2 14l-5 -8l-5 -11l-9 -16q-46 -80 -83.5 -115t-76.5 -35q-26 0 -82.5 10t-63 13t-9.5 4l-11 4l-12 8l-6 4l-22 18l-19 17l-3 3q-20 20 -28 50l-14 51q-6 26 -6 35
q-3 15 -3 40l-1 24v18l1 19l9 60l8 53l1 7l1 4q1 11 3.5 19.5t7.5 21.5l3 12l2 4l9 28l5 17l4 17l23 47l11 24l4 11l6 10l16 25l10 15l7 9l9 11q46 58 80 79t82 21q40 0 76 -13q15 -7 22 -11.5t24 -18.5l20 -16l4 -4l12 -10zM324 910q0 35 29 60t69 25q41 0 70 -25t29 -60
q0 -33 -28.5 -58.5t-66.5 -25.5q-46 0 -74 24t-28 60zM170 291l-2 -16l-2 -12l-1 -12v-10q0 -11 0.5 -20.5t3.5 -23.5l1 -8v-6v-6v-4l1 -3v-6l1 -9l2 -9l15 -56q9 -25 42 -25q34 0 63 19l8 6l5 3l12 10l13 12l7 7l6 4l7 8l37 43l14 21l21 33l10 17l9 21l1 6l12 34l12 39
l4 23l5 21l7 39l1 3l1 22q2 9 3 31.5t1 46.5q0 51 -6 75t-31.5 54t-62.5 30q-13 0 -23 -3.5t-31.5 -20.5t-50 -52.5t-47.5 -70.5t-36 -88l-15 -50l-2 -11l-1 -6v-4l-5 -35l-1 -7l-1 -11l-6 -37zM423 875q15 0 25 10t10 25t-10.5 25.5t-24.5 10.5t-25 -11t-11 -25
q0 -15 10 -25t26 -10z" />
    <glyph glyph-name="Ccedilla" unicode="&#xc7;" horiz-adv-x="685" 
d="M542 695q11 -9 23 -37q23 -45 34 -86.5t11 -119.5q0 -17 -2 -29t-9 -35l-14 -1q-38 0 -62 17.5t-35 46t-11 55.5v4l-1 45l-1 7v4l-1 12v21q0 63 -13 81t-56 18q-71 0 -110 -27t-77.5 -117t-48 -151t-11.5 -90t-2 -59q0 -70 25 -110q13 -24 54 -42t83 -18q55 0 106 23
q19 10 30 17t30 20l13 8l10 8l36 29l2 2q5 5 9 6l8 6l10 7q5 3 13 9.5t15 12.5l32 33l10 3q15 0 25 -11t10 -27q0 -14 -10 -33t-27 -36l-9 -9l-3 -3l-4 -5l-37 -38q-46 -48 -119.5 -84t-124.5 -36q-120 0 -216 89t-96 200v43v16l1 20v8v8l2 14l1 11l5 36l2 13l2 7l4 18l4 19
l5 16l2 8l4 10l14 44l6 18q11 27 27 59t25 45.5t16.5 22.5t35 36t60 42.5t75.5 15.5q25 0 38.5 -3t37.5 -14l34 -16l64 -33zM372 -50l-17 -38l-26 -58q-14 -33 -19 -43t-12 -17t-24 -7q-20 0 -33 14t-13 38q0 18 8 33l41 87h99z" />
    <glyph glyph-name="Eacute" unicode="&#xc9;" horiz-adv-x="771" 
d="M514 703q-27 0 -72.5 -12t-112 -39t-113 -58.5t-46.5 -54.5q0 -26 73 -36l220 -32q18 -3 35 -3q44 0 66 20q17 13 24 13q11 0 21 -24.5t10 -53.5q0 -30 -9.5 -38.5t-47.5 -8.5q-24 0 -73 -17l-92 -30q-91 -30 -143.5 -57.5t-91 -62.5t-38.5 -58q0 -57 128 -57q33 0 81 5
t128.5 21t146.5 44l98 53q13 8 23 8q11 0 22 -11t11 -23q0 -22 -33.5 -52t-106 -65t-156.5 -59t-147 -24q-115 0 -198.5 64.5t-83.5 153.5q0 51 44 98t115 74l82 30l3 1q-80 18 -112 29t-56 28t-38 44t-14 55q0 90 115.5 143t204 78t152.5 25q73 0 116.5 -34.5t43.5 -93.5
q0 -36 -18.5 -59.5t-47.5 -23.5q-37 0 -59.5 26.5t-22.5 73.5h-31zM383 961q-18 0 -31.5 13.5t-13.5 32.5q0 33 31 44l117 47l17 3q21 0 34.5 -12.5t13.5 -33.5q0 -15 -8 -27t-22 -18l-117 -45q-12 -4 -21 -4z" />
    <glyph glyph-name="Ntilde" unicode="&#xd1;" horiz-adv-x="695" 
d="M509 738q0 30 8 39.5t33 9.5q34 0 44.5 -9t10.5 -39l-8 -690q0 -24 -16 -31t-67 -7q-30 0 -41 2.5t-15 10.5l-10 20l-239 435l-8 -449l1 -20v-7q0 -28 -6 -34.5t-13.5 -9.5t-18.5 -7t-28 -4q-51 0 -51 65l20 694q0 56 43 62l43 5l30 2q49 0 49 -51v-4l-1 -22l6 -24
l213 -488zM210 1011q0 19 13 33t31 14l185 -1q20 0 33 -13t13 -33q0 -18 -13.5 -31.5t-33.5 -13.5h-184q-18 0 -31 13t-13 32z" />
    <glyph glyph-name="Odieresis" unicode="&#xd6;" horiz-adv-x="772" 
d="M381 903q0 -39 -23 -63t-62 -24q-32 0 -55 21t-23 52q0 38 24 63t61 25q27 0 48 -15t27 -41zM575 903q0 -39 -23 -63t-60 -24q-33 0 -55.5 21.5t-22.5 51.5q0 38 24 63t60 25q28 0 48 -15t24.5 -30.5t4.5 -28.5zM601 676q63 -31 99.5 -109.5t36.5 -182.5q0 -175 -96 -285
t-250 -110q-82 0 -155 32t-140 108t-67 235q0 187 84 311t211 124q56 0 94 -24l72 -46zM168 311q0 -24 1 -37t8 -62.5t60 -99.5t121 -50q99 0 175 101t76 233q0 124 -69 212t-168 88q-71 0 -116 -59t-66 -131t-21 -174z" />
    <glyph glyph-name="Udieresis" unicode="&#xdc;" horiz-adv-x="744" 
d="M413 899q0 -37 -24 -62t-60 -25q-33 0 -55.5 21.5t-22.5 51.5q0 38 23 63t61 25q27 0 47.5 -15t28.5 -40zM604 902q0 -39 -23.5 -63.5t-60.5 -24.5q-32 0 -55 21t-23 51q0 38 23.5 63.5t60.5 25.5q28 0 48 -15t28 -41zM446 67q-33 -41 -67 -60t-77 -19q-7 0 -15.5 0.5
t-63 11t-82.5 48.5q-26 32 -45 128t-19 198q0 32 3 77t16.5 156.5t35.5 151.5q16 26 70 26q30 0 40 -8.5t10 -34.5q0 -29 -13 -79.5t-26 -177.5t-13 -184q0 -102 22 -173.5t53 -71.5q37 0 81.5 55t71 117t37.5 91t27.5 81.5t30.5 128.5t14 112q0 47 4 64t21.5 33t62.5 16
q47 0 47 -46q0 -14 -5 -36l-14 -62q-22 -108 -22 -236q0 -105 14.5 -183.5t50.5 -78.5q7 1 8 2l32 12q6 3 12.5 4t13.5 1q36 0 36 -26q0 -16 -32 -48.5t-83 -32.5q-44 0 -84 30t-50 71l-18 75l-5 9q-25 -56 -41.5 -85t-38.5 -57z" />
    <glyph glyph-name="aacute" unicode="&#xe1;" 
d="M422 391q32 0 32 -15q0 -10 -7 -30t-13 -81t-6 -136q0 -48 28 -48q11 0 32 13t41 33.5t31 20.5q8 0 13 -8t5 -21q0 -22 -28.5 -61.5t-81.5 -39.5q-24 0 -52 10t-40 23l-19 20q-5 6 -14 6q-17 0 -37 -31.5t-41 -42.5t-64 -11q-172 0 -172 184q0 115 51 207t115 92
q74 0 124.5 -22t77.5 -64zM243 92q30 30 54 96.5t24 147.5q0 35 -9 49t-33 14q-34 0 -60.5 -33.5t-47.5 -99.5t-21 -127q0 -43 10 -60.5t35 -17.5l7 1q7 1 20 11.5t21 18.5zM248 529q-18 0 -31.5 13.5t-13.5 32.5q0 33 31 44l117 47l17 3q21 0 34.5 -12.5t13.5 -33.5
q0 -15 -8 -27t-22 -18l-117 -45q-12 -4 -21 -4z" />
    <glyph glyph-name="agrave" unicode="&#xe0;" 
d="M422 391q32 0 32 -15q0 -10 -7 -30t-13 -81t-6 -136q0 -48 28 -48q11 0 32 13t41 33.5t31 20.5q8 0 13 -8t5 -21q0 -22 -28.5 -61.5t-81.5 -39.5q-24 0 -52 10t-40 23l-19 20q-5 6 -14 6q-17 0 -37 -31.5t-41 -42.5t-64 -11q-172 0 -172 184q0 115 51 207t115 92
q74 0 124.5 -22t77.5 -64zM243 92q30 30 54 96.5t24 147.5q0 35 -9 49t-33 14q-34 0 -60.5 -33.5t-47.5 -99.5t-21 -127q0 -43 10 -60.5t35 -17.5l7 1q7 1 20 11.5t21 18.5zM115 623q0 20 13 33t34 13l19 -3l116 -47q31 -11 31 -44q0 -20 -13 -33t-34 -13l-18 3l-117 46
q-31 13 -31 45z" />
    <glyph glyph-name="acircumflex" unicode="&#xe2;" 
d="M422 391q32 0 32 -15q0 -10 -7 -30t-13 -81t-6 -136q0 -48 28 -48q11 0 32 13t41 33.5t31 20.5q8 0 13 -8t5 -21q0 -22 -28.5 -61.5t-81.5 -39.5q-24 0 -52 10t-40 23l-19 20q-5 6 -14 6q-17 0 -37 -31.5t-41 -42.5t-64 -11q-172 0 -172 184q0 115 51 207t115 92
q74 0 124.5 -22t77.5 -64zM243 92q30 30 54 96.5t24 147.5q0 35 -9 49t-33 14q-34 0 -60.5 -33.5t-47.5 -99.5t-21 -127q0 -43 10 -60.5t35 -17.5l7 1q7 1 20 11.5t21 18.5zM246 560l-19 -8l-23 -8q-22 -9 -30.5 -11.5t-15.5 -2.5q-19 0 -32.5 13.5t-13.5 33.5q0 31 29 44
l85 34l25 7q3 0 9 -1.5t16 -5.5l84 -33q30 -12 30 -44q0 -20 -14 -34t-34 -14q-10 0 -19.5 3.5t-25.5 10.5l-24 8l-19 8l-4 2z" />
    <glyph glyph-name="adieresis" unicode="&#xe4;" 
d="M280 603q0 -38 -24 -62t-60 -24q-34 0 -56 20t-22 52q0 38 24 63t60 25q27 0 47.5 -15t28.5 -40zM471 605q0 -38 -23.5 -62.5t-60.5 -24.5q-33 0 -55.5 21.5t-22.5 51.5q0 38 24 63t61 25q27 0 47 -15t27 -40zM422 387q32 0 32 -15q0 -10 -7 -30.5t-13 -81.5t-6 -136
q0 -47 28 -47q11 0 33 13.5t41.5 33.5t29.5 20q8 0 13 -8t5 -21q0 -22 -28.5 -61.5t-81.5 -39.5q-23 0 -52 10t-40 22l-19 21q-5 5 -14 5q-18 0 -37.5 -31t-40.5 -42t-64 -11q-89 0 -130.5 44.5t-41.5 139.5q0 114 51 206t115 92q72 0 117.5 -19t57 -30t27.5 -36zM243 88
q30 30 54 96.5t24 147.5q0 63 -42 63q-34 0 -57 -31q-30 -37 -51 -102.5t-21 -126.5q0 -79 45 -79l7 1q13 1 41 31z" />
    <glyph glyph-name="atilde" unicode="&#xe3;" 
d="M422 391q32 0 32 -15q0 -10 -7 -30t-13 -81t-6 -136q0 -48 28 -48q11 0 32 13t41 33.5t31 20.5q8 0 13 -8t5 -21q0 -22 -28.5 -61.5t-81.5 -39.5q-24 0 -52 10t-40 23l-19 20q-5 6 -14 6q-17 0 -37 -31.5t-41 -42.5t-64 -11q-172 0 -172 184q0 115 51 207t115 92
q74 0 124.5 -22t77.5 -64zM243 92q30 30 54 96.5t24 147.5q0 35 -9 49t-33 14q-34 0 -60.5 -33.5t-47.5 -99.5t-21 -127q0 -43 10 -60.5t35 -17.5l7 1q7 1 20 11.5t21 18.5zM113 579q0 19 13 33t31 14l185 -1q20 0 33 -13t13 -33q0 -18 -13.5 -31.5t-33.5 -13.5h-184
q-18 0 -31 13t-13 32z" />
    <glyph glyph-name="aring" unicode="&#xe5;" 
d="M64 349l2 5l3 7l13 24l15 26l4 4l2 2l5 6q26 30 48 42t47 12h9q65 -8 111.5 -26.5t64.5 -47.5l9 -14l13 3l5 2q34 0 42 -20l-3 -9l-4 -11l-5 -11l-4 -23l-7 -62l-3 -15l-1 -48v-12l-1 -20l-1 -9v-23v-7q-1 -21 6 -32.5t20 -11.5q12 0 31 12t38 30l22 21l6 5h7
q20 0 20 -26q0 -21 -28 -62t-80 -41q-84 0 -123 70l-16 -15l-2 -3l-4 -4l-7 -12q-5 -7 -6 -8t-8 -10q-35 -46 -98 -46q-175 0 -175 169v17l1 12v5l3 28l1 21l2 18l12 38l11 39zM200 613q0 34 28.5 59t68.5 25q43 0 72 -24t29 -60q0 -34 -28.5 -58.5t-68.5 -24.5
q-45 0 -73 23t-28 60zM158 136q0 -46 6.5 -64t23.5 -18q19 0 26 10l11 12l11 14l4 4l11 16l17 24l7 10q11 16 19.5 38.5t11.5 47.5l2 16l4 32l3 13l4 29l2 15l4 22q0 18 -14 30t-35 12q-18 0 -31 -10q-15 -9 -23.5 -19.5t-16 -24.5t-18.5 -43l-4 -11l-8 -22l-7 -24l-3 -7
l-2 -10l-1 -14q-4 -32 -4 -55v-13v-10zM298 578q15 0 25.5 10.5t10.5 24.5t-11 25t-25 11t-24.5 -10.5t-10.5 -23.5q0 -15 10 -26t25 -11z" />
    <glyph glyph-name="ccedilla" unicode="&#xe7;" horiz-adv-x="436" 
d="M235 479q7 0 20.5 -6.5t38.5 -22t44.5 -44t31.5 -64t12 -64.5q0 -93 -57 -93q-24 0 -43 10t-23.5 20t-8 24.5t-5.5 30.5l-2 20v5l-2 42v6l3 47q-9 5 -17 5q-24 0 -36 -35l-13 -37l-3 -8q-12 -38 -16 -66l-1 -17v-32v-14q0 -130 54 -130q19 0 63 10l10 2q19 4 23 7l18 6
l9 4l3 1l4 3l8 3l4 2l52 25l4 1l14 10l18 13l9 6l4 3l4 4l11 3q9 0 15.5 -7.5t6.5 -17.5q0 -33 -50.5 -70t-100 -57t-80.5 -20q-23 0 -69 12.5t-68.5 24t-45 35.5t-35.5 60.5t-13 83.5l2 31l4 29l2 15l2 12l2 16l2 12q7 41 13 59.5t20 38t29.5 35t30 25t37.5 9.5l27 -2
l30 -4h4zM192 -185q-9 -23 -34 -23q-20 0 -33 15t-13 39q0 16 2 22t20 42l14 28l11 22l2 4h98z" />
    <glyph glyph-name="eacute" unicode="&#xe9;" horiz-adv-x="429" 
d="M145 133q0 -38 16.5 -52t62.5 -14h23q11 3 38.5 10t49 21t87.5 79q15 17 27 17q11 0 19 -10t8 -23q0 -26 -68.5 -98.5t-182.5 -72.5q-58 0 -109.5 37t-69.5 74.5t-18 110.5q0 136 35 196.5t50 71t39 10.5q90 0 162 -50t72 -112q0 -35 -24.5 -69.5t-62 -53t-69 -26.5
t-81.5 -8q-4 -15 -4 -38zM177 240q6 1 14 3t29.5 12t42 39.5t20.5 64.5q0 50 -41 50q-37 0 -61 -54.5t-24 -95.5q0 -9 1 -13.5t4 -8.5zM212 529q-18 0 -31.5 13.5t-13.5 32.5q0 33 31 44l117 47l17 3q21 0 34.5 -12.5t13.5 -33.5q0 -15 -8 -27t-22 -18l-117 -45
q-12 -4 -21 -4z" />
    <glyph glyph-name="egrave" unicode="&#xe8;" horiz-adv-x="429" 
d="M145 133q0 -38 16.5 -52t62.5 -14h23q11 3 38.5 10t49 21t87.5 79q15 17 27 17q11 0 19 -10t8 -23q0 -26 -68.5 -98.5t-182.5 -72.5q-58 0 -109.5 37t-69.5 74.5t-18 110.5q0 136 35 196.5t50 71t39 10.5q90 0 162 -50t72 -112q0 -35 -24.5 -69.5t-62 -53t-69 -26.5
t-81.5 -8q-4 -15 -4 -38zM177 240q6 1 14 3t29.5 12t42 39.5t20.5 64.5q0 50 -41 50q-37 0 -61 -54.5t-24 -95.5q0 -9 1 -13.5t4 -8.5zM79 623q0 20 13 33t34 13l19 -3l116 -47q31 -11 31 -44q0 -20 -13 -33t-34 -13l-18 3l-117 46q-31 13 -31 45z" />
    <glyph glyph-name="ecircumflex" unicode="&#xea;" horiz-adv-x="429" 
d="M145 133q0 -38 16.5 -52t62.5 -14h23q11 3 38.5 10t49 21t87.5 79q15 17 27 17q11 0 19 -10t8 -23q0 -26 -68.5 -98.5t-182.5 -72.5q-58 0 -109.5 37t-69.5 74.5t-18 110.5q0 136 35 196.5t50 71t39 10.5q90 0 162 -50t72 -112q0 -35 -24.5 -69.5t-62 -53t-69 -26.5
t-81.5 -8q-4 -15 -4 -38zM177 240q6 1 14 3t29.5 12t42 39.5t20.5 64.5q0 50 -41 50q-37 0 -61 -54.5t-24 -95.5q0 -9 1 -13.5t4 -8.5zM210 560l-19 -8l-23 -8q-22 -9 -30.5 -11.5t-15.5 -2.5q-19 0 -32.5 13.5t-13.5 33.5q0 31 29 44l85 34l25 7q3 0 9 -1.5t16 -5.5l84 -33
q30 -12 30 -44q0 -20 -14 -34t-34 -14q-10 0 -19.5 3.5t-25.5 10.5l-24 8l-19 8l-4 2z" />
    <glyph glyph-name="edieresis" unicode="&#xeb;" horiz-adv-x="429" 
d="M145 133q0 -38 16.5 -52t62.5 -14h23q11 3 38.5 10t49 21t87.5 79q15 17 27 17q11 0 19 -10t8 -23q0 -26 -68.5 -98.5t-182.5 -72.5q-58 0 -109.5 37t-69.5 74.5t-18 110.5q0 136 35 196.5t50 71t39 10.5q90 0 162 -50t72 -112q0 -35 -24.5 -69.5t-62 -53t-69 -26.5
t-81.5 -8q-4 -15 -4 -38zM177 240q6 1 14 3t29.5 12t42 39.5t20.5 64.5q0 50 -41 50q-37 0 -61 -54.5t-24 -95.5q0 -9 1 -13.5t4 -8.5zM181 594l2 -8v-3q0 -14 -12 -26q-22 -27 -63 -27q-25 0 -42 17t-17 43q0 16 7 26t33 29.5t46 19.5q31 0 42 -51l2 -9zM302 530
q-26 0 -42.5 17.5t-16.5 42.5q0 17 7.5 28t33 29t44.5 18q29 0 41 -51l2 -9l3 -14l3 -6q-4 -25 -25 -40t-50 -15z" />
    <glyph glyph-name="iacute" unicode="&#xed;" horiz-adv-x="264" 
d="M66 137l-1 5l-1 10l-1 18l-1 17l1 14l1 9l3 39v7l1 33v6l2 13q8 54 19 72t58 18q37 0 50 -19l-7 -38l-3 -40l-1 -23l-5 -55v-9l-2 -17l-1 -29v-29v-21t3.5 -34t23.5 -26q6 0 31 11l7 5q8 2 9.5 2.5t4.5 3.5l4 2l4 1l11 6l18 7l15 7q23 9 33 9q6 0 11.5 -6.5t5.5 -14.5
q0 -17 -33 -47l-34 -32q-27 -13 -35 -15q-10 -5 -25 -7t-33 -2q-59 0 -85 23.5t-33 39.5t-15 57l-1 6zM129 529q-18 0 -31.5 13.5t-13.5 32.5q0 33 31 44l117 47l17 3q21 0 34.5 -12.5t13.5 -33.5q0 -15 -8 -27t-22 -18l-117 -45q-12 -4 -21 -4z" />
    <glyph glyph-name="igrave" unicode="&#xec;" horiz-adv-x="264" 
d="M66 137l-1 5l-1 10l-1 18l-1 17l1 14l1 9l3 39v7l1 33v6l2 13q8 54 19 72t58 18q37 0 50 -19l-7 -38l-3 -40l-1 -23l-5 -55v-9l-2 -17l-1 -29v-29v-21t3.5 -34t23.5 -26q6 0 31 11l7 5q8 2 9.5 2.5t4.5 3.5l4 2l4 1l11 6l18 7l15 7q23 9 33 9q6 0 11.5 -6.5t5.5 -14.5
q0 -17 -33 -47l-34 -32q-27 -13 -35 -15q-10 -5 -25 -7t-33 -2q-59 0 -85 23.5t-33 39.5t-15 57l-1 6zM-4 623q0 20 13 33t34 13l19 -3l116 -47q31 -11 31 -44q0 -20 -13 -33t-34 -13l-18 3l-117 46q-31 13 -31 45z" />
    <glyph glyph-name="icircumflex" unicode="&#xee;" horiz-adv-x="264" 
d="M66 137l-1 5l-1 10l-1 18l-1 17l1 14l1 9l3 39v7l1 33v6l2 13q8 54 19 72t58 18q37 0 50 -19l-7 -38l-3 -40l-1 -23l-5 -55v-9l-2 -17l-1 -29v-29v-21t3.5 -34t23.5 -26q6 0 31 11l7 5q8 2 9.5 2.5t4.5 3.5l4 2l4 1l11 6l18 7l15 7q23 9 33 9q6 0 11.5 -6.5t5.5 -14.5
q0 -17 -33 -47l-34 -32q-27 -13 -35 -15q-10 -5 -25 -7t-33 -2q-59 0 -85 23.5t-33 39.5t-15 57l-1 6zM127 560l-19 -8l-23 -8q-22 -9 -30.5 -11.5t-15.5 -2.5q-19 0 -32.5 13.5t-13.5 33.5q0 31 29 44l85 34l25 7q3 0 9 -1.5t16 -5.5l84 -33q30 -12 30 -44q0 -20 -14 -34
t-34 -14q-10 0 -19.5 3.5t-25.5 10.5l-24 8l-19 8l-4 2z" />
    <glyph glyph-name="idieresis" unicode="&#xef;" horiz-adv-x="264" 
d="M66 137l-1 5l-1 10l-1 18l-1 17l1 14l1 9l3 39v7l1 33v6l2 13q8 54 19 72t58 18q37 0 50 -19l-7 -38l-3 -40l-1 -23l-5 -55v-9l-2 -17l-1 -29v-29v-21t3.5 -34t23.5 -26q6 0 31 11l7 5q8 2 9.5 2.5t4.5 3.5l4 2l4 1l11 6l18 7l15 7q23 9 33 9q6 0 11.5 -6.5t5.5 -14.5
q0 -17 -33 -47l-34 -32q-27 -13 -35 -15q-10 -5 -25 -7t-33 -2q-59 0 -85 23.5t-33 39.5t-15 57l-1 6zM99 594l2 -8v-3q0 -14 -12 -26q-22 -27 -63 -27q-25 0 -42 17t-17 43q0 16 7 26t33 29.5t46 19.5q31 0 42 -51l2 -9zM220 530q-26 0 -42.5 17.5t-16.5 42.5q0 17 7.5 28
t33 29t44.5 18q29 0 41 -51l2 -9l3 -14l3 -6q-4 -25 -25 -40t-50 -15z" />
    <glyph glyph-name="ntilde" unicode="&#xf1;" horiz-adv-x="521" 
d="M294 442q26 0 95.5 -26.5t69.5 -170.5l-1 -57q0 -53 5 -71t21 -18q7 0 21 7l58 27q7 4 13 4q8 0 16 -9t8 -20q0 -19 -27 -43q-55 -42 -112 -42q-125 0 -125 136q0 16 1 34.5t4 38.5l3 52q0 37 -6.5 51.5t-23.5 14.5q-29 0 -61.5 -65t-52.5 -163l-17 -85q-9 -41 -36 -41
q-20 0 -43.5 10t-32 18.5t-8.5 32.5l2 26l19 358q0 35 53 35q58 0 58 -31l-11 -99l1 -12q55 108 109 108zM123 579q0 19 13 33t31 14l185 -1q20 0 33 -13t13 -33q0 -18 -13.5 -31.5t-33.5 -13.5h-184q-18 0 -31 13t-13 32z" />
    <glyph glyph-name="oacute" unicode="&#xf3;" horiz-adv-x="484" 
d="M385 88q-41 -101 -142 -101q-95 0 -154 65t-59 171q0 92 49 174.5t112 82.5q24 0 47 -7.5t33 -17.5l22 -24l59 -41q14 -10 29 -32t19 -43l8 -31q5 -22 13 -22l13 9q34 36 48 85t33 49q14 0 23 -11t9 -28q0 -31 -21.5 -82t-49.5 -83q-24 -25 -68 -38q-8 -33 -11 -44
t-12 -31zM232 381q-20 0 -42.5 -29.5t-33.5 -69t-11 -84.5q0 -64 21 -104.5t55 -40.5q14 0 25 8q14 7 26.5 21t29 52.5t16.5 63.5q0 8 -3 13l-36 59l-18 42l-5 46q-4 23 -24 23zM239 529q-18 0 -31.5 13.5t-13.5 32.5q0 33 31 44l117 47l17 3q21 0 34.5 -12.5t13.5 -33.5
q0 -15 -8 -27t-22 -18l-117 -45q-12 -4 -21 -4z" />
    <glyph glyph-name="ograve" unicode="&#xf2;" horiz-adv-x="484" 
d="M385 88q-41 -101 -142 -101q-95 0 -154 65t-59 171q0 92 49 174.5t112 82.5q24 0 47 -7.5t33 -17.5l22 -24l59 -41q14 -10 29 -32t19 -43l8 -31q5 -22 13 -22l13 9q34 36 48 85t33 49q14 0 23 -11t9 -28q0 -31 -21.5 -82t-49.5 -83q-24 -25 -68 -38q-8 -33 -11 -44
t-12 -31zM232 381q-20 0 -42.5 -29.5t-33.5 -69t-11 -84.5q0 -64 21 -104.5t55 -40.5q14 0 25 8q14 7 26.5 21t29 52.5t16.5 63.5q0 8 -3 13l-36 59l-18 42l-5 46q-4 23 -24 23zM106 623q0 20 13 33t34 13l19 -3l116 -47q31 -11 31 -44q0 -20 -13 -33t-34 -13l-18 3l-117 46
q-31 13 -31 45z" />
    <glyph glyph-name="ocircumflex" unicode="&#xf4;" horiz-adv-x="484" 
d="M385 88q-41 -101 -142 -101q-95 0 -154 65t-59 171q0 92 49 174.5t112 82.5q24 0 47 -7.5t33 -17.5l22 -24l59 -41q14 -10 29 -32t19 -43l8 -31q5 -22 13 -22l13 9q34 36 48 85t33 49q14 0 23 -11t9 -28q0 -31 -21.5 -82t-49.5 -83q-24 -25 -68 -38q-8 -33 -11 -44
t-12 -31zM232 381q-20 0 -42.5 -29.5t-33.5 -69t-11 -84.5q0 -64 21 -104.5t55 -40.5q14 0 25 8q14 7 26.5 21t29 52.5t16.5 63.5q0 8 -3 13l-36 59l-18 42l-5 46q-4 23 -24 23zM237 560l-19 -8l-23 -8q-22 -9 -30.5 -11.5t-15.5 -2.5q-19 0 -32.5 13.5t-13.5 33.5
q0 31 29 44l85 34l25 7q3 0 9 -1.5t16 -5.5l84 -33q30 -12 30 -44q0 -20 -14 -34t-34 -14q-10 0 -19.5 3.5t-25.5 10.5l-24 8l-19 8l-4 2z" />
    <glyph glyph-name="odieresis" unicode="&#xf6;" 
d="M264 605q0 -37 -24 -62t-61 -25q-33 0 -55 21t-22 52q0 39 23.5 63.5t60.5 24.5q27 0 47.5 -15t28.5 -40zM455 608q0 -38 -24 -63t-60 -25q-34 0 -56 21t-22 53q0 37 24 62t60 25q27 0 47.5 -15t28.5 -40zM387 85q-41 -100 -142 -100q-95 0 -154 65t-59 171q0 46 12 88
t49.5 105.5t100.5 63.5q24 0 46.5 -7t33.5 -18l21 -24l60 -41q14 -10 28.5 -32.5t18.5 -43.5l8 -30q5 -23 13 -23l13 10q36 38 49 86t32 48q14 0 23 -11t9 -28q0 -34 -21.5 -84t-46 -78t-71.5 -41q-8 -34 -11.5 -45t-11.5 -31zM235 378q-20 0 -43 -29t-34 -68.5t-11 -84.5
q0 -64 21 -104.5t55 -40.5q13 0 35 12t42 60t20 73l-3 13l-36 59l-18 42l-5 46q-3 22 -23 22z" />
    <glyph glyph-name="otilde" unicode="&#xf5;" horiz-adv-x="484" 
d="M385 88q-41 -101 -142 -101q-95 0 -154 65t-59 171q0 92 49 174.5t112 82.5q24 0 47 -7.5t33 -17.5l22 -24l59 -41q14 -10 29 -32t19 -43l8 -31q5 -22 13 -22l13 9q34 36 48 85t33 49q14 0 23 -11t9 -28q0 -31 -21.5 -82t-49.5 -83q-24 -25 -68 -38q-8 -33 -11 -44
t-12 -31zM232 381q-20 0 -42.5 -29.5t-33.5 -69t-11 -84.5q0 -64 21 -104.5t55 -40.5q14 0 25 8q14 7 26.5 21t29 52.5t16.5 63.5q0 8 -3 13l-36 59l-18 42l-5 46q-4 23 -24 23zM104 579q0 19 13 33t31 14l185 -1q20 0 33 -13t13 -33q0 -18 -13.5 -31.5t-33.5 -13.5h-184
q-18 0 -31 13t-13 32z" />
    <glyph glyph-name="uacute" unicode="&#xfa;" horiz-adv-x="514" 
d="M226 93q4 5 17 29.5t22.5 44.5t20.5 49t20 60l28 101q7 26 21 34t51 8q49 0 49 -42q0 -20 -9.5 -44.5t-12.5 -41t-3 -41.5q0 -32 3 -71.5t7 -69t35 -29.5q11 0 18 5l66 52q6 6 16 6t17 -7t7 -19q0 -18 -30 -43l-27 -22q-33 -25 -52.5 -34.5t-39.5 -9.5q-84 0 -100.5 49
t-19.5 51q-3 0 -9.5 -9.5t-25 -56.5t-70.5 -47q-26 0 -57 5t-44 11t-21.5 15.5t-16.5 25.5q-8 21 -12 52.5t-4 84.5q0 14 1 44t1 45q0 20 2 70t2 58q0 22 1 31.5t6 23.5t36 14q77 0 77 -32q0 -18 -5.5 -33t-9.5 -64.5t-4 -86.5q-1 -10 -1.5 -22.5t-0.5 -19.5v-15
q0 -55 3 -77t18 -64zM254 529q-18 0 -31.5 13.5t-13.5 32.5q0 33 31 44l117 47l17 3q21 0 34.5 -12.5t13.5 -33.5q0 -15 -8 -27t-22 -18l-117 -45q-12 -4 -21 -4z" />
    <glyph glyph-name="ugrave" unicode="&#xf9;" horiz-adv-x="514" 
d="M226 93q4 5 17 29.5t22.5 44.5t20.5 49t20 60l28 101q7 26 21 34t51 8q49 0 49 -42q0 -20 -9.5 -44.5t-12.5 -41t-3 -41.5q0 -32 3 -71.5t7 -69t35 -29.5q11 0 18 5l66 52q6 6 16 6t17 -7t7 -19q0 -18 -30 -43l-27 -22q-33 -25 -52.5 -34.5t-39.5 -9.5q-84 0 -100.5 49
t-19.5 51q-3 0 -9.5 -9.5t-25 -56.5t-70.5 -47q-26 0 -57 5t-44 11t-21.5 15.5t-16.5 25.5q-8 21 -12 52.5t-4 84.5q0 14 1 44t1 45q0 20 2 70t2 58q0 22 1 31.5t6 23.5t36 14q77 0 77 -32q0 -18 -5.5 -33t-9.5 -64.5t-4 -86.5q-1 -10 -1.5 -22.5t-0.5 -19.5v-15
q0 -55 3 -77t18 -64zM121 623q0 20 13 33t34 13l19 -3l116 -47q31 -11 31 -44q0 -20 -13 -33t-34 -13l-18 3l-117 46q-31 13 -31 45z" />
    <glyph glyph-name="ucircumflex" unicode="&#xfb;" horiz-adv-x="514" 
d="M226 93q4 5 17 29.5t22.5 44.5t20.5 49t20 60l28 101q7 26 21 34t51 8q49 0 49 -42q0 -20 -9.5 -44.5t-12.5 -41t-3 -41.5q0 -32 3 -71.5t7 -69t35 -29.5q11 0 18 5l66 52q6 6 16 6t17 -7t7 -19q0 -18 -30 -43l-27 -22q-33 -25 -52.5 -34.5t-39.5 -9.5q-84 0 -100.5 49
t-19.5 51q-3 0 -9.5 -9.5t-25 -56.5t-70.5 -47q-26 0 -57 5t-44 11t-21.5 15.5t-16.5 25.5q-8 21 -12 52.5t-4 84.5q0 14 1 44t1 45q0 20 2 70t2 58q0 22 1 31.5t6 23.5t36 14q77 0 77 -32q0 -18 -5.5 -33t-9.5 -64.5t-4 -86.5q-1 -10 -1.5 -22.5t-0.5 -19.5v-15
q0 -55 3 -77t18 -64zM252 560l-19 -8l-23 -8q-22 -9 -30.5 -11.5t-15.5 -2.5q-19 0 -32.5 13.5t-13.5 33.5q0 31 29 44l85 34l25 7q3 0 9 -1.5t16 -5.5l84 -33q30 -12 30 -44q0 -20 -14 -34t-34 -14q-10 0 -19.5 3.5t-25.5 10.5l-24 8l-19 8l-4 2z" />
    <glyph glyph-name="udieresis" unicode="&#xfc;" horiz-adv-x="514" 
d="M296 608q0 -38 -23 -63t-61 -25q-32 0 -55 21t-23 53q0 37 24 62t60 25q27 0 48 -15t28 -40zM488 610q0 -39 -23.5 -63.5t-61.5 -24.5q-32 0 -55 21t-23 52q0 38 24 63t61 25q27 0 48 -15t27 -41zM228 93q12 17 30.5 55.5t29.5 67.5t20 60l28 101q7 26 21 34t52 8
q48 0 48 -42q0 -19 -12.5 -54.5t-12.5 -72.5q0 -32 3 -71.5t7 -69t35 -29.5q11 0 18 5l66 52q6 6 16 6t17 -7t7 -19q0 -18 -30 -43l-27 -22q-33 -25 -52.5 -34.5t-39.5 -9.5q-84 0 -100.5 49t-19.5 51q-3 0 -9.5 -9.5t-25 -56.5t-70.5 -47q-26 0 -57 5t-44 11t-21.5 15.5
t-16.5 28t-12 49t-4 85.5v43t3 46l3 128q0 22 1 31.5t7 23.5t35 14q77 0 77 -32q0 -18 -5.5 -33t-9.5 -64.5t-4 -86.5q-1 -10 -1.5 -22.5t-0.5 -19.5v-15q0 -55 3 -77t18 -64z" />
    <glyph glyph-name="degree" unicode="&#xb0;" horiz-adv-x="210" 
d="M6 613q0 35 28.5 59.5t69.5 24.5q42 0 71 -24t29 -60q0 -34 -28.5 -58.5t-68.5 -24.5q-45 0 -73 23t-28 60zM105 578q14 0 25 10t11 25q0 14 -11 25t-25 11t-25 -10t-11 -24q0 -15 10 -26t26 -11z" />
    <glyph glyph-name="cent" unicode="&#xa2;" horiz-adv-x="421" 
d="M116 109q-38 25 -57 66q-11 28 -20 67.5t-9 66.5v5l1 29v7l1 7v4l2 14l2 17l1 13q0 26 2 34t18 41.5t41 52.5t77 27l13 2l-3 38v10q0 32 11 45t40 13q31 0 31 -30l-2 -16l-2 -24q0 -29 17 -55q67 -11 93 -76l8 -40l6 -37l2 -5q0 -10 -13.5 -22.5t-29 -20.5t-26.5 -8
q-16 0 -27.5 15.5t-16.5 52t-21 57t-39 20.5q-33 0 -47.5 -39t-14.5 -126q0 -156 69 -156q19 0 36 15t22 38l4 16q4 14 38 14q66 0 66 -25q0 -9 -9 -29.5t-21 -35t-24 -27.5t-25 -22q-10 -9 -21 -16t-25 -14q13 -22 13 -46q0 -42 -18 -66t-50 -24q-35 0 -35 28q0 20 5.5 41
t5.5 37q0 12 -2 22t-9 24q-22 3 -32.5 6.5t-25.5 14.5z" />
    <glyph glyph-name="sterling" unicode="&#xa3;" horiz-adv-x="581" 
d="M15 397q0 10 8 24t21 28q16 14 33 14q15 0 30 -10l1 23l2 36l1 16l1 18l5 32v9v16l1 26l1 15v15l1 18l1 11v5l-1 8l-2 22l-3 31q0 13 10 18t37 9t49 4l17 -1q31 -5 41 -12t10 -27v-12q-3 -15 -4 -23l-11 -55l-2 -7q-3 -12 -8.5 -58t-5.5 -93l-2 -20l-1 -20l47 -2l24 1
l67 3l7 2h10l19 1q53 0 66.5 -6t26.5 -16q10 -10 13.5 -15t3.5 -11q0 -12 -40 -27q-15 -4 -33.5 -6t-72.5 -2h-64l-38 2l-37 1l-2 -14l-1 -11l-1 -23l-2 -37l-1 -41v-15v-24v-9v-6l-1 -34v-8v-10v-16l1 -14l97 -2h8h18l34 -1h25q50 0 71 -2t46.5 -13t25.5 -41q0 -29 -42 -35
l-32 -4l-37 -4l-12 -1h-21l-18 -1h-12h-4l-32 -1h-4l-64 -6l-43 -4l-43 -2l-26 -2l-26 -1l-35 -1h-4q-32 0 -32 36q0 8 2 18t8.5 26.5t9.5 26.5t4 14l2 3v11l1 45v23v36v27l1 32l1 36l2 24v12l1 15h-9h-6h-8h-5l-35 -5h-5l-12 2q-12 7 -12 16z" />
    <glyph glyph-name="paragraph" unicode="&#xb6;" horiz-adv-x="596" 
d="M549 720v-52h-309q-58 0 -99 -42t-41 -103q0 -59 41 -100t99 -41h69v242h55v-624h-55v330h-69q-79 0 -136 57t-57 138t56 138t137 57h309zM430 624h55v-624h-55v624z" />
    <glyph glyph-name="germandbls" unicode="&#xdf;" horiz-adv-x="732" 
d="M170 504q0 95 8 146.5t30.5 123t56 100.5t92.5 29q93 0 167 -69t74 -156q0 -52 -32 -95.5t-41.5 -61t-9.5 -29.5q0 -20 14 -37t51.5 -42.5t88 -83.5t50.5 -128q0 -83 -77 -146t-178 -63q-12 0 -39 6.5t-53 43.5t-26 55q0 15 17.5 38.5t37.5 23.5q7 0 10 -3l59 -65
q14 -15 38 -15q17 0 35 14t35.5 45t17.5 65q0 39 -21.5 73t-71.5 82t-62 70.5t-12 59.5q0 56 32 129.5t32 119.5q0 26 -19 46t-45 20q-44 0 -74 -38t-53 -178t-23 -312l2 -99l3 -98q0 -36 -1.5 -52t-14.5 -24l-7 -2l-32 -2q-8 0 -18 0.5t-27 3.5l-11 2q-19 12 -19 44l3 114
l5 121v57l-6 -1h-12q-39 0 -62.5 14t-23.5 38q0 13 12 24t26 11l54 1l15 1q3 22 4 35t1 44z" />
    <glyph glyph-name="registered" unicode="&#xae;" horiz-adv-x="862" 
d="M167 625q53 53 122.5 80.5t142.5 27.5t141 -27.5t122 -81t81.5 -122t27.5 -142.5q0 -73 -27.5 -141t-81.5 -122t-122.5 -81.5t-142.5 -27.5q-73 0 -141 27.5t-149.5 109t-81.5 236.5t109 264zM204 128q45 -45 106 -69.5t123 -24.5q63 0 121.5 23.5t104.5 70.5t70.5 107
t24.5 125q0 64 -24 124.5t-94.5 132t-205.5 71.5q-62 0 -121.5 -24.5t-105 -71t-70.5 -106t-25 -125.5q0 -65 25 -125.5t71 -107.5zM314 600h110q41 0 63 -6t48.5 -27.5t32.5 -52.5t6 -45q0 -50 -29 -82.5t-78 -39.5l-16 -1l147 -215h-71l-153 231v-231h-60v469zM413 382
q49 0 74.5 21.5t25.5 61.5t-24 62.5t-70 22.5h-45v-168h39z" />
    <glyph glyph-name="copyright" unicode="&#xa9;" horiz-adv-x="862" 
d="M167 625q53 53 122.5 80.5t142.5 27.5t141 -27.5t122 -81t81.5 -122t27.5 -142.5q0 -73 -27.5 -141t-81.5 -122t-122.5 -81.5t-142.5 -27.5q-73 0 -141 27.5t-149.5 109t-81.5 236.5t109 264zM204 128q45 -45 106 -69.5t123 -24.5q63 0 121.5 23.5t104.5 70.5t70.5 107
t24.5 125q0 64 -24 124.5t-94.5 132t-205.5 71.5q-62 0 -121.5 -24.5t-105 -71t-70.5 -106t-25 -125.5q0 -65 25 -125.5t71 -107.5zM575 500q-38 33 -88 44q-20 3 -38 3q-78 0 -132 -55t-54 -139l3 -37q13 -67 64.5 -108t117.5 -41q25 0 51 7t50 22l24 18l31 -43
q-33 -27 -71.5 -42t-83.5 -15q-106 0 -177 69t-71 170q0 46 22 105.5t83.5 101t139.5 41.5q20 0 65 -7.5t94 -49.5z" />
    <glyph glyph-name="trademark" horiz-adv-x="729" 
d="M47 720h217v-50h-81v-310h-56v310h-80v50zM321 729h30l100 -228q8 -20 12 -34t4 -29q0 30 16 63l100 228h30l69 -369h-56l-36 210l-2 11l-1 9v18q0 11 1 17l-10 -35l-5 -13l-1 -5l-95 -220h-20l-95 220l-2 7l-4 12l-10 34q1 -6 1 -12v-11v-12l-1 -9l-2 -11l-36 -210h-56z
" />
    <glyph glyph-name="trademark" unicode="&#x2122;" horiz-adv-x="729" 
d="M47 720h217v-50h-81v-310h-56v310h-80v50zM321 729h30l100 -228q8 -20 12 -34t4 -29q0 30 16 63l100 228h30l69 -369h-56l-36 210l-2 11l-1 9v18q0 11 1 17l-10 -35l-5 -13l-1 -5l-95 -220h-20l-95 220l-2 7l-4 12l-10 34q1 -6 1 -12v-11v-12l-1 -9l-2 -11l-36 -210h-56z
" />
    <glyph glyph-name="acute" unicode="&#xb4;" horiz-adv-x="203" 
d="M99 529q-18 0 -31.5 13.5t-13.5 32.5q0 33 31 44l117 47l17 3q21 0 34.5 -12.5t13.5 -33.5q0 -15 -8 -27t-22 -18l-117 -45q-12 -4 -21 -4z" />
    <glyph glyph-name="dieresis" unicode="&#xa8;" horiz-adv-x="250" 
d="M92 594l2 -8v-3q0 -14 -12 -26q-22 -27 -63 -27q-25 0 -42 17t-17 43q0 16 7 26t33 29.5t46 19.5q31 0 42 -51l2 -9zM213 530q-26 0 -42.5 17.5t-16.5 42.5q0 17 7.5 28t33 29t44.5 18q29 0 41 -51l2 -9l3 -14l3 -6q-4 -25 -25 -40t-50 -15z" />
    <glyph glyph-name="notequal" unicode="&#x2260;" horiz-adv-x="549" 
d="M413 336h91v-64h-149l-73 -72h222v-64h-281l-118 -118l-43 44l74 74h-91v64h150l73 72h-223v64h281l118 118l44 -44z" />
    <glyph glyph-name="AE" unicode="&#xc6;" horiz-adv-x="1206" 
d="M618 749l38 -18l12 5l18 8l31 12l5 2l39 15l50 18l7 1q7 3 9 3l57 7l20 2h4l12 1l22 4l17 2l19 1q69 0 111.5 -33.5t42.5 -86.5q0 -41 -17 -65t-48 -24q-34 0 -59 26t-25 62v6v6l-21 1q-37 0 -105 -21l-40 -12l-14 -4l-20 -8q-20 -8 -43.5 -20.5t-34 -22.5t-19.5 -30
t-9 -38q0 -71 92 -71h5h12l31 2l26 3h8h48l10 1l17 2l22 4l7 1h8l10 1h18l14 1h6l5 2l6 1l7 3l3 -3l5 -4l6 -10l7 -13l1 -6l2 -5l2 -4l2 -3v-6l-1 -44l-2 -5q-4 -10 -14 -14.5t-39 -4.5l-32 -4l-38 -4l-16 -2l-72 -6l-13 -1l-87 -15l-17 -3l-47 -9q-39 -8 -53 -19t-14 -34
l1 -5q0 -39 12 -79t30.5 -70t77.5 -30q27 0 38.5 1.5t33.5 6.5l33 4l11 2l4 1l11 2l15 4l42 10l36 9l21 7l33 8l13 6l46 20l20 9l13 6l8 5l3 2l7 4l7 4q2 2 6.5 5t10.5 6l9 5q2 1 5 1.5t4 1.5q14 0 25 -11t11 -25q0 -28 -47 -59l-18 -12l-20 -15l-9 -5l-8 -4l-16 -10l-12 -5
l-30 -14l-33 -15l-8 -4l-3 -2l-4 -1l-5 -2l-10 -3q-16 -3 -19 -6l-24 -8l-21 -7l-40 -7l-5 -1l-3 -1q-7 -3 -9 -3l-14 -3l-10 -2l-26 -4l-19 -2l-22 -3l-16 1h-5h-8l-47 5q-21 2 -30.5 5.5t-35 13t-47.5 22.5t-31 28q-4 4 -8.5 15t-10.5 25l-7 20l-4 24q-2 8 -4.5 29.5
t-3.5 31.5l-1 12l-1 14l1 17l1 23v4v5l-1 7l-1 14l-2 14h-36q-17 0 -47 -2t-45 -4l-23 -3q-45 -6 -58 -13t-36 -44l-38 -63l-10 -20l-5 -7l-60 -108l-2 -2l-5 -9q-7 -10 -13 -19l-23 -37l-4 -4l-3 -2l-4 -9l-5 -6l-4 -8q-15 -23 -31 -23l-13 5l-14 7l-6 4l-4 2l-5 4l-10 5
q-12 8 -12 20l1 6l10 24l4 9l2 4l7 13l13 23l9 17l5 8l3 6l70 151l1 3q5 5 18 33q2 7 16 32l27 48l68 126l3 6l27 49l2 4l63 120l16 30l9 20l10 19l5 13l10 19l5 10l2 5l4 5l3 4l4 8q9 13 19 13l30 -1l17 -3q17 0 44.5 -9t55.5 -24l10 -5zM351 378h3l4 1l15 3l27 3l53 1
l67 2v16q0 54 17 113l18 53q6 14 8.5 19.5t17.5 32.5l11 21l3 9l4 13q-12 18 -26 27.5t-44 13.5l-11 1l-11 2l-12 3l-4 2h-7q-26 -18 -38 -34l-5 -9l-18 -40l-41 -89l-3 -5l-2 -6l-3 -7q-11 -26 -21 -50t-14 -37.5t-6 -22.5t-4 -28q14 -8 22 -8z" />
    <glyph glyph-name="Oslash" unicode="&#xd8;" horiz-adv-x="870" 
d="M74 -12q-13 -11 -23 -11q-11 0 -19 7t-8 18l1 7l2 5l4 9l110 111q-67 77 -67 235q0 30 3 62.5t8 51.5l12 47l2 8l2 6l5 15l6 14q1 2 2.5 6t2.5 7l5 13l7 16q17 46 35.5 73.5t49 53t71 41.5t78.5 16q14 0 25.5 -2t30.5 -9l7 -2l22 -12l3 -1l6 -2l21 -7l41 -25l44 -21l5 -2
l38 -20l29 -15l8 -5q3 -1 4.5 -2t2.5 -2l6 -4l10 -7l6 6l33 32l50 49l36 37q6 4 11 4q11 0 19 -8t8 -19l-1 -6l-126 -128q17 -15 21 -23q13 -16 27 -51l4 -9l4 -8l3 -6l3 -7l6 -17l2 -12l1 -7l1 -12l2 -14l1 -9l5 -41l-1 -35l-2 -21q0 -19 -2 -32.5t-4 -25.5l-1 -6
q-15 -64 -21 -79.5t-13.5 -29.5t-26.5 -46l-6 -11l-8 -12l-3 -6l-2 -3l-14 -14l-14 -13q-44 -42 -79 -57q-28 -14 -75.5 -24t-86.5 -10q-40 0 -68.5 9t-77 35.5t-68.5 42.5q-12 8 -25 22zM526 663l-38 20q-11 4 -36.5 7t-46.5 3q-20 0 -29.5 -2t-45.5 -24t-56.5 -71
t-32.5 -81.5t-14 -48.5l-9 -64v-10l-1 -7v-3l-1 -5l-1 -7l-1 -16l-3 -65q0 -27 6 -54l2 -11l2 -3l1 -4l376 373q-12 26 -25.5 40t-46.5 33zM402 62q97 0 174 101t77 229q0 33 -6 65.5t-17 64.5l-4 12l-7 13l-375 -386q53 -99 158 -99z" />
    <glyph glyph-name="infinity" unicode="&#x221e;" horiz-adv-x="713" 
d="M366 238q-33 -62 -71.5 -93t-85.5 -31q-66 0 -111 52.5t-45 131.5q0 83 41 134.5t105 51.5q47 0 82.5 -29.5t65.5 -94.5q31 62 69.5 93t87.5 31q63 0 109 -53t46 -131q0 -83 -40.5 -134.5t-104.5 -51.5q-46 0 -84 30q-36 31 -64 94zM330 327q-26 46 -59 69.5t-76 23.5
q-51 0 -84 -35t-33 -90q0 -54 29.5 -88.5t76.5 -34.5q40 0 71.5 31.5t74.5 123.5zM383 271q23 -45 58 -70q35 -23 77 -23q52 0 84.5 35t32.5 90q0 56 -30 89.5t-80 33.5q-37 0 -71 -36t-71 -119z" />
    <glyph glyph-name="plusminus" unicode="&#xb1;" horiz-adv-x="549" 
d="M506 19h-462v68h462v-68zM309 331h197v-68h-197v-122h-68v122h-197v68h197v122h68v-122z" />
    <glyph glyph-name="lessequal" unicode="&#x2264;" horiz-adv-x="549" 
d="M506 18h-463v68h463v-68zM162 280l344 -107v-70l-462 145v65l462 145v-70z" />
    <glyph glyph-name="greaterequal" unicode="&#x2265;" horiz-adv-x="549" 
d="M506 18h-463v68h463v-68zM506 248l-463 -145v70l344 107l-344 108v70l463 -145v-65z" />
    <glyph glyph-name="yen" unicode="&#xa5;" horiz-adv-x="884" 
d="M95 288h11h9l11 1l13 2v44l-15 -1l-16 -1l-19 -1l-5 -1h-4h-5h-41q-20 0 -20 28q0 24 39 24h4l13 -1h16l20 -1h15h20l-3 13v7l-1 11l1 9l4 46l4 57l1 6l5 61l5 30l2 16l2 15l2 17l3 16l5 20q11 53 25.5 67t61.5 14q63 0 63 -24q0 -12 -9 -30l-4 -11l-4 -11
q-3 -9 -5.5 -22.5t-4.5 -31.5l-2 -13l-1 -6l-5 -25l-3 -17l-1 -4q-3 -9 -4 -14t-1 -20l-2 -22l-4 -38l-4 -43l-1 -14v-5v-10l-1 -16l1 -32l39 -1h18l13 -1h32h26h5l5 -1l39 -3l20 -2l20 -3q7 0 19.5 1t36.5 5l8 27l2 10l3 9l4 12q6 25 14 67.5t8 45.5l3 17v5l2 16l3 23l3 22
l8 38l1 7l1 14v10l1 7v6q0 19 9.5 27t30.5 8l21 -1l8 -1l17 1l9 2q11 0 19 -10t8 -24l-2 -20l-1 -9l-2 -13l-1 -7l-1 -7l-1 -3v-5q-6 -41 -6 -89v-5l-4 -35l-1 -38v-8l-5 -45l-1 -5v-15v-15v-15l49 2l17 1h10l13 2h19q58 0 58 -24q0 -14 -14.5 -20t-47.5 -6h-5h-6l-14 1
l-10 1l-10 1h-5h-4l-6 1h-24l-11 -1l-11 -1l-3 -32l30 1h26h38h23h7h6l6 1h8l10 -1l7 -1h5q7 -4 9 -5l5 -7q4 -5 4 -14q0 -27 -31 -35l-9 2l-12 2l-7 1l-6 3l-10 1l-23 2l-26 2l-33 1l-25 -1h-4l-7 -121l-3 -68l-2 -52l-1 -17l-1 -18v-20l-1 -106v-7l1 -38l1 -20l1 -18
l1 -24q0 -30 -10 -40t-42 -10q-31 0 -50 12l-5 3l-6 3l-6 5l-3 3v30v25v13l-1 38v16v34l1 52l1 19v9v21l1 17v25l1 21l1 21l1 11l1 12l1 8v4v9l1 11l1 14l2 9v9l-2 20v17l-1 -3l-2 -4l-3 -7q-83 -166 -188 -166q-65 0 -129.5 42.5t-75.5 76.5t-16.5 60t-7.5 46v6v7v6l-15 -1
q-11 0 -13 -2l-50 -7l-14 -2h-5l-21 2l-12 5q-9 4 -9 15q0 29 50 29h17h24zM472 253h-21h-13h-11l-44 1h-7h-7h-48l-45 3l-5 -1q-5 -1 -5 -10l2 -16l2 -15l1 -5l1 -16l2 -11l1 -4l1 -4l2 -7q19 -62 29.5 -76t36.5 -14q24 0 32 4t17.5 13.5t19.5 24.5l4 6l5 7l8 12l8 10l3 4
l3 4l5 6q11 14 16 22t7 14q3 4 5 13l5 13l1 4l2 6l6 13zM301 292l15 1h44h39h5l34 1h17h25h30q8 16 11 24t7 23l-25 -2h-7h-64h-9l-57 -3l-43 3h-9l-48 -3v-44h35z" />
    <glyph glyph-name="mu" unicode="&#xb5;" horiz-adv-x="576" 
d="M166 153q0 -71 14 -95t50 -24q57 0 95 81t38 204v130h92v-328q0 -45 9.5 -66t28.5 -21q20 0 31.5 20.5t11.5 61.5v14h21l1 -9v-13q0 -55 -23.5 -86t-66.5 -31q-49 0 -75.5 43t-26.5 129q-23 -89 -61.5 -130.5t-96.5 -41.5q-42 0 -73 26q-28 27 -40 77l-1 -28
q0 -65 32 -142t32 -91q0 -20 -11 -31t-31 -11q-23 0 -33 17t-10 53l2 58l2 89l-1 101l-2 95v245h92v-296z" />
    <glyph glyph-name="partialdiff" unicode="&#x2202;" horiz-adv-x="494" 
d="M358 287q4 14 6.5 28t2.5 31l3 89q0 85 -15.5 126t-47.5 41q-18 0 -50 -35t-56 -35q-16 0 -25.5 7.5t-11.5 24.5q0 29 30.5 50t71.5 21q77 0 111.5 -54t46.5 -103t12 -111q0 -163 -64.5 -271.5t-157.5 -108.5q-68 0 -110 51t-42 137q0 82 53 143.5t125 61.5
q44 0 72.5 -22t45.5 -71zM256 349q-52 0 -86 -60t-34 -161q0 -57 21.5 -88t62.5 -31q53 0 87 62t34 153q0 58 -21.5 91.5t-63.5 33.5z" />
    <glyph glyph-name="product" unicode="&#x220f;" horiz-adv-x="823" 
d="M118 -176v880h-88v40h767v-40h-88v-880h88v-40h-264v40h84v880h-407v-880h84v-40h-264v40h88z" />
    <glyph glyph-name="pi" unicode="&#x3c0;" horiz-adv-x="549" 
d="M404 373l-1 -24l-3 -150v-40q0 -84 8.5 -105t30.5 -21q28 0 41 29q17 31 17 89h25v-5q0 -80 -26 -118t-80 -38q-56 0 -79.5 40t-23.5 164l1 78l3 104l-50 1l-77 2q0 -234 -23 -311.5t-80 -77.5q-35 0 -52.5 29t-17.5 86v19h24q0 -27 9.5 -39.5t27.5 -12.5q42 0 54.5 47
t18 110.5t5.5 149.5h-22q-38 0 -59.5 -13.5t-27.5 -39.5h-23q0 34 10 57.5t36.5 44.5t112.5 21l102 -3l152 -3q34 0 49.5 7t16.5 21l23 1q0 -53 -23.5 -76.5t-74.5 -23.5h-14z" />
    <glyph glyph-name="integral" unicode="&#x222b;" horiz-adv-x="274" 
d="M283 757q36 0 58.5 -18.5t22.5 -48.5q0 -20 -13 -34t-36 -14q-29 0 -44 32t-29 32q-57 0 -57 -310l-3 -98q0 -63 -4.5 -120t-14 -128t-31 -120t-60 -80t-81.5 -31q-35 0 -58 18.5t-23 48.5q0 22 12.5 34.5t36.5 12.5q29 0 44 -31t30 -32q57 0 57 324l2 84q0 60 4 116
t13.5 127.5t31.5 122.5t59.5 82t82.5 31z" />
    <glyph glyph-name="ordfeminine" unicode="&#xaa;" horiz-adv-x="446" 
d="M399 340v-61h-342v61h342zM332 720h66l1 -331h-67v73l-3 -8q-15 -33 -48 -53t-73 -20q-32 0 -86.5 22.5t-64.5 78.5t-10 74q0 73 47.5 124t112.5 51q15 0 52.5 -8t64.5 -56l5 -8l3 -7v68zM118 533q9 -48 41.5 -70.5t65.5 -22.5q32 0 64.5 23t38 50t5.5 43v12q-2 8 -8 40
t-41 48.5t-59 16.5q-23 0 -59.5 -16.5t-48.5 -79.5l-2 -21z" />
    <glyph glyph-name="ordmasculine" unicode="&#xba;" horiz-adv-x="446" 
d="M53 340h341v-61h-341v61zM51 593q13 64 60.5 103.5t109.5 39.5q36 0 78 -17.5t71 -61.5t29 -100q0 -18 -6.5 -53.5t-43.5 -73t-72.5 -44.5t-53.5 -7t-53 7t-72 44t-48 91l-3 36q0 20 4 36zM115 536q11 -61 47.5 -78t61.5 -17q39 0 69.5 25.5t35 55t4.5 37.5
q0 60 -28.5 80.5t-44.5 27t-38 6.5q-23 0 -59.5 -17t-47.5 -77l-1 -22z" />
    <glyph glyph-name="ae" unicode="&#xe6;" horiz-adv-x="714" 
d="M64 349l2 5l3 7l13 24l15 26l4 4l2 2l5 6q27 30 48 42t48 12q23 0 63 -10l26 -6l18 -7l13 -4l5 -2l21 -9l24 17l7 5l49 32l8 1q10 0 32 -5t41 -11l6 -2q21 -7 32.5 -12t32.5 -17t34 -20.5t33.5 -30t20.5 -68.5q0 -26 -16 -55t-39 -45l-36 -25l-9 -5q-17 -8 -63 -17
l-14 -5l-9 -1l-3 -1l-4 -1l-11 -1l-20 -1h-12q-4 -12 -4 -26q0 -47 13 -64t49 -17l36 3l11 2l7 2l23 10l22 9l5 2l3 2l24 13q14 8 32 20.5t24 19.5l15 16l12 14q14 17 26 17t20 -9t8 -23q0 -11 -21.5 -48.5t-92 -81t-138.5 -43.5q-30 0 -63.5 15t-67.5 49l-8 10l-8 7l-14 19
l-16 -15l-2 -3l-4 -4l-7 -12q-5 -7 -6 -8t-8 -10q-35 -46 -98 -46q-175 0 -175 169v17l1 12v5l3 28l1 21l2 18l12 38l11 39zM158 136q0 -46 6.5 -64t23.5 -18q19 0 26 10l11 12l11 14l4 4l11 16l17 24l7 10q11 16 19.5 38.5t11.5 47.5l2 16l4 32l3 13l4 29l2 15l4 22
q0 18 -14 30t-35 12q-18 0 -31 -10q-15 -9 -23.5 -19.5t-16 -24.5t-18.5 -43l-4 -11l-8 -22l-7 -24l-3 -7l-2 -10l-1 -14q-4 -32 -4 -55v-13v-10zM568 358q0 24 -11.5 37.5t-31.5 13.5q-29 0 -52 -39t-31 -101l-1 -11l-2 -18q52 -1 90.5 34t38.5 84z" />
    <glyph glyph-name="oslash" unicode="&#xf8;" horiz-adv-x="511" 
d="M120 61q-18 -20 -21 -21l-23 -19q-15 -13 -31 -13q-15 0 -15 18q0 9 9 19t21 16.5t18.5 11t10 7.5t8 10t7.5 11l-5 14l-4 9l-6 19l-5 9l-1 5l-1 9l-2 32l-1 16v10v4v28t6 39l9 28l9 27l1 7l5 9l16 29l17 26l2 4l29 25l16 14l3 2l10 6q2 3 12.5 5t16.5 3t11 1
q45 0 100 -46l15 -13l5 -6l7 -5l30 -21l10 -7q4 -4 8 -9.5t11 -16.5q8 6 16.5 11.5t21.5 13.5l31 17q25 13 35 13q24 0 24 -22q0 -14 -28 -29l-14 -7l-16 -7q-13 -7 -22 -12.5t-24 -17.5q4 -26 5 -39.5t1 -33.5q0 -40 -10 -90t-36 -107.5t-133 -57.5q-48 0 -87.5 20
t-66.5 57zM268 53q32 0 45 21.5t26 53.5t18 50t5 30q0 13 -8 30l-17 -13l-17 -15l-11 -9l-30 -23l-8 -4l-2 -2l-26 -20l-16 -11l-23 -18q3 -28 22 -49t42 -21zM318 298l-11 16l-13 19l-2 4l4 23q0 12 -11 22l-7 6q-9 7 -22 7q-24 0 -43.5 -22.5t-23.5 -28.5t-6 -12l-2 -15
l-3 -8l-2 -13l-1 -4l-3 -11l-2 -10l-4 -13l-1 -4v-9q0 -6 6 -24.5t10 -32.5l4 -14l28 14l8 6l4 3l16 16l13 12l13 11l4 3l24 15l10 7l11 7l15 10l12 8q-22 8 -25 12z" />
    <glyph glyph-name="questiondown" unicode="&#xbf;" horiz-adv-x="578" 
d="M243 518q-12 15 -12 25q0 16 23.5 29t41 19t32.5 6t29.5 -7t26 -16.5t11.5 -24.5q0 -9 -5.5 -20.5t-17.5 -29.5l-4 -6l-6 -8l-3 -4l-15 -19l-24 -32l-11 -15l-23 -29l-11 -15l-3 -3l-16 -23l-3 -4l-9 -12l-7 -9l-20 -26l-22 -31l-6 -8l-4 -7l-29 -50q-5 -8 -9 -24.5
t-4 -28.5q0 -21 12 -35t32 -14q21 0 52 14l18 9l24 12l14 7l6 3l4 3l15 10l6 3l6 4l43 33q18 12 32.5 26.5t31.5 36.5l10 14q4 7 9.5 20t10.5 23l5 11q5 5 15 5q44 0 71.5 -18t27.5 -48q0 -17 -17 -38l-9 -12l-12 -14l-6 -9l-2 -3l-5 -5l-17 -21l-3 -4l-9 -11l-7 -8
q-18 -20 -25.5 -27.5t-16.5 -15.5l-41 -31l-10 -9l-33 -24q-23 -17 -36 -21l-3 -1l-4 -2q-23 -8 -54 -15t-44 -7q-12 0 -34 6.5t-59.5 23t-62.5 41.5l-13 14q-12 14 -24 30.5t-21 30.5t-9 34q0 29 14 68l6 15l7 10q4 8 16 25t14 20l10 12l13 17l6 10l4 3l9 12l9 11l36 42
l22 27l23 26l21 25zM237 742q0 16 14 32t33.5 24t41.5 8q30 0 52 -21t22 -51q0 -12 -4.5 -22.5t-19 -26.5t-39.5 -30t-43 -14q-21 0 -33 18t-21 63l-2 13z" />
    <glyph glyph-name="exclamdown" unicode="&#xa1;" horiz-adv-x="297" 
d="M176 -12l-10 1l-14 1l-16 2l-11 2l-23 2h-9q-18 0 -30 12q-18 15 -18 33l1 8l29 35l2 8l4 19l2 18l1 17l2 23l2 14v5l1 7l4 63l4 65v5l1 30v6l4 36v6l1 36v15l2 28l-1 32l-1 27v4v6l-1 5q0 13 -3 25q0 8 18.5 14t40.5 6q34 0 55.5 -11t21.5 -30l-3 -15l-6 -28l-1 -9v-26
l-1 -7v-9l1 -16l-7 -72l-4 -74l-3 -57v-14l-1 -8l-1 -62v-11l-5 -60l-2 -41l-1 -12v-8l-1 -10l-2 -15q-2 -14 -19 -22zM178 803q31 0 52 -21t21 -51q0 -26 -18 -44t-44.5 -33t-42.5 -15q-20 0 -30.5 13t-19.5 50l-8 34q3 29 29 48t61 19z" />
    <glyph glyph-name="logicalnot" unicode="&#xac;" horiz-adv-x="580" 
d="M47 436h486v-220h-63v144h-423v76z" />
    <glyph glyph-name="radical" unicode="&#x221a;" horiz-adv-x="549" 
d="M594 764h-57l-290 -784h-32l-156 431l-61 -22l-12 39l138 48l125 -346l252 681h93v-47z" />
    <glyph glyph-name="florin" horiz-adv-x="484" 
d="M-62 -181l-3 11l-2 6l-2 5q-9 20 -9 36q0 12 19 22q7 5 15 7t14 2q24 0 28 -13l1 -4l9 -30l6 -18q2 -4 10.5 -13.5t14.5 -16.5q31 6 44.5 28t25 50t17 50.5t10.5 59t5 57.5l1 33v15v64v12l2 64l-21 -1q-40 0 -62.5 14t-22.5 39q0 14 13.5 24t32.5 10h8l22 -1
q15 0 24.5 5.5t9.5 14.5l3 52l3 52l1 3l5 49l1 9v9l1 11q0 124 49 202t118 78q26 0 57.5 -13.5t54.5 -36.5l13 -11l11 -14l18 -30v-3l3 -7l5 -13l3 -9q9 -25 9 -36q0 -12 -19 -22q-12 -9 -29 -9q-13 0 -19.5 3t-9 13t-7 23t-7 21t-26.5 35q-28 -6 -50 -36t-33.5 -76
t-12.5 -54.5t-1 -32.5l-5 -52v-4l-1 -13l-2 -21l-1 -15v-5l-1 -35v-12q21 -4 38 -4h38q15 0 30 -14l12 -11q4 -4 7.5 -13t3.5 -17q0 -35 -73 -35h-28q-6 0 -12.5 -1t-24.5 -5l-2 -16l-1 -7l-1 -15l-1 -12l-4 -37v-5v-5v-10l1 -43v-5l-3 -48v-56q0 -122 -46 -204.5
t-115 -82.5q-46 0 -87 27t-69 77z" />
    <glyph glyph-name="florin" unicode="&#x192;" horiz-adv-x="484" 
d="M-62 -181l-3 11l-2 6l-2 5q-9 20 -9 36q0 12 19 22q7 5 15 7t14 2q24 0 28 -13l1 -4l9 -30l6 -18q2 -4 10.5 -13.5t14.5 -16.5q31 6 44.5 28t25 50t17 50.5t10.5 59t5 57.5l1 33v15v64v12l2 64l-21 -1q-40 0 -62.5 14t-22.5 39q0 14 13.5 24t32.5 10h8l22 -1
q15 0 24.5 5.5t9.5 14.5l3 52l3 52l1 3l5 49l1 9v9l1 11q0 124 49 202t118 78q26 0 57.5 -13.5t54.5 -36.5l13 -11l11 -14l18 -30v-3l3 -7l5 -13l3 -9q9 -25 9 -36q0 -12 -19 -22q-12 -9 -29 -9q-13 0 -19.5 3t-9 13t-7 23t-7 21t-26.5 35q-28 -6 -50 -36t-33.5 -76
t-12.5 -54.5t-1 -32.5l-5 -52v-4l-1 -13l-2 -21l-1 -15v-5l-1 -35v-12q21 -4 38 -4h38q15 0 30 -14l12 -11q4 -4 7.5 -13t3.5 -17q0 -35 -73 -35h-28q-6 0 -12.5 -1t-24.5 -5l-2 -16l-1 -7l-1 -15l-1 -12l-4 -37v-5v-5v-10l1 -43v-5l-3 -48v-56q0 -122 -46 -204.5
t-115 -82.5q-46 0 -87 27t-69 77z" />
    <glyph glyph-name="approxequal" unicode="&#x2248;" horiz-adv-x="549" 
d="M15 100v77q49 31 87 44.5t74 13.5q44 0 115 -24t99 -24t61.5 15t82.5 52v-78q-42 -28 -76.5 -41.5t-72.5 -13.5q-32 0 -104 23.5t-116 23.5q-28 0 -53.5 -11t-48 -24.5t-48.5 -32.5zM15 219v77q23 14 43.5 25t50.5 21.5t66 10.5q42 0 114.5 -23.5t100.5 -23.5
q27 0 60 14.5t84 51.5v-77q-18 -12 -41 -24t-49 -21.5t-59 -9.5t-104.5 23.5t-110.5 23.5q-35 0 -66 -13.5t-89 -54.5z" />
    <glyph glyph-name="Delta" unicode="&#x2206;" horiz-adv-x="612" 
d="M595 0h-574l276 672h22zM92 45h373l-186 459z" />
    <glyph glyph-name="guillemotleft" unicode="&#xab;" horiz-adv-x="476" 
d="M134 237q7 -11 15.5 -22.5t13.5 -16.5l8 -8l14 -14l4 -6l10 -14l4 -6l5 -6l27 -39l3 -4l1 -3l2 -6l3 -13l9 -15v-7q0 -10 -10 -27.5t-16.5 -25t-12.5 -7.5l-24 5q-5 1 -11 3.5t-10 5t-18 25.5l-3 7l-5 9l-5 6l-3 7l-18 26l-9 12l-10 14l-26 37l-7 10q-11 10 -14 20
l-26 41l-1 7v5l5 8l11 12q15 17 23 31l5 9l2 4l13 28l12 21l22 31l4 5l5 8l10 11l2 4l6 9l7 13l8 14l5 6q23 21 41 21q20 0 31 -20l2 -4l2 -4l3 -4l6 -11l5 -17q-3 -11 -5 -13l-8 -9l-2 -21l-34 -38l-5 -6l-29 -39l-27 -37zM318 237q7 -11 15.5 -22.5t13.5 -16.5l8 -8
l14 -14l4 -6l10 -14l4 -6l4 -6l27 -39l4 -4l1 -3l2 -6l3 -13l9 -15v-7q0 -10 -10 -27.5t-16.5 -25t-12.5 -7.5l-24 5q-6 1 -12 3.5t-10 4.5l-17 26l-3 7l-6 9l-4 6l-3 7l-18 26l-9 12l-10 14l-26 37l-7 10q-11 10 -14 20l-26 41l-1 7v5l5 8l11 12q8 11 14 19t8 12l6 9l2 4
l13 28q2 6 6 12l6 9l22 31l4 5l5 8l10 11l2 4l6 9l7 13q2 6 4 8.5t4 5.5l5 6q23 21 41 21q21 0 30 -20l3 -4l2 -4l3 -4l5 -11q2 -4 3.5 -9t2.5 -8q-1 -4 -2 -7t-4 -6l-7 -9l-2 -21l-34 -38l-5 -6l-29 -39l-27 -37z" />
    <glyph glyph-name="guillemotright" unicode="&#xbb;" horiz-adv-x="476" 
d="M335 232q-17 27 -29 39l-8 8l-14 14l-4 5q-1 4 -10 16l-4 5l-4 6l-14 20l-13 19l-5 7l-2 6l-3 13l-2 6l-7 9l-1 6q0 10 10.5 28t15.5 25.5t14 7.5l24 -5q13 -3 22 -8l16 -25l4 -8l5 -9l3 -3l6 -11l21 -30l7 -10l8 -11l26 -36l7 -11q1 -5 14 -20q18 -16 25 -41l2 -7
q0 -8 -6 -14l-10 -11l-6 -8q-5 -5 -9.5 -11t-7.5 -11l-5 -10l-2 -3l-13 -28q-4 -9 -10 -18.5t-24 -33.5l-4 -6l-3 -4l-2 -3l-10 -12l-2 -3l-7 -10l-6 -13l-8 -14l-6 -7q-22 -20 -40 -20q-19 0 -30 20l-3 5l-2 3l-4 6l-4 9q-6 0 -6 16q0 9 6 14l7 9l1 4l1 8v10l34 37l5 6
l29 39l27 38zM151 232q-16 28 -29 39l-7 8l-14 14l-5 5q-1 4 -10 16l-4 5l-4 6l-14 20l-13 19l-5 7l-2 6l-3 13l-2 6l-7 9l-1 6q0 7 10.5 26.5t17 27t12.5 7.5l24 -5q13 -3 22 -8l16 -25l4 -8l6 -9l2 -3l6 -11l21 -30l7 -10l8 -11l26 -36l8 -11q1 -7 16 -22t22 -39
q2 -2 2 -4t1 -3q0 -7 -7 -14l-10 -11l-6 -8q-5 -5 -9 -11t-7 -11l-6 -10l-2 -3l-13 -28q-5 -13 -15 -27t-18 -25l-5 -6l-3 -4l-2 -3l-10 -12l-2 -3l-6 -10l-7 -13l-8 -14l-6 -7q-22 -20 -40 -20q-19 0 -30 20l-2 5l-3 3l-4 6l-4 9q-2 3 -4 7t-2 9q0 9 6 14l7 9l1 4l1 8v10
l34 37l5 6l30 39l27 38z" />
    <glyph glyph-name="ellipsis" unicode="&#x85;" horiz-adv-x="996" 
d="M167 116q27 0 45 -18t18 -45t-18 -45t-45 -18t-45 18t-18 45t18 45t45 18zM500 116q27 0 45 -18t18 -45t-18 -45t-45 -18t-45 18t-18 45t18 45t45 18zM833 116q27 0 45 -18t18 -45t-18 -45t-45 -18t-45 18t-18 45t18 45t45 18z" />
    <glyph glyph-name="ellipsis" unicode="&#x2026;" horiz-adv-x="996" 
d="M167 116q27 0 45 -18t18 -45t-18 -45t-45 -18t-45 18t-18 45t18 45t45 18zM500 116q27 0 45 -18t18 -45t-18 -45t-45 -18t-45 18t-18 45t18 45t45 18zM833 116q27 0 45 -18t18 -45t-18 -45t-45 -18t-45 18t-18 45t18 45t45 18z" />
    <glyph glyph-name="nonbreakingspace" unicode="&#xa0;" horiz-adv-x="500" 
 />
    <glyph glyph-name="Agrave" unicode="&#xc0;" horiz-adv-x="714" 
d="M523 729q24 10 60 10q53 0 53 -31q0 -16 -7 -37q-5 -22 -8 -43.5t-3 -37.5l-6 -120l-3 -199q0 -83 20 -121t64 -38l13 4l33 12l6 1q16 0 16 -19q0 -24 -45 -58.5t-88 -34.5q-14 0 -28.5 4t-42.5 18.5t-41 32t-21 63.5l-6 34q-22 -41 -33 -61t-37 -54.5t-61.5 -53
t-81.5 -18.5q-115 0 -180.5 74.5t-65.5 204.5q0 99 30 205.5t98 218.5t173 112l32 -2q41 -6 68 -22t71 -61q4 4 11.5 10t9.5 7zM399 693q-69 0 -151.5 -132t-82.5 -327q0 -79 18.5 -125t50.5 -46q24 0 65.5 24.5t75.5 71t68 129.5t41 143l6 74l1 36q0 112 -64 144
q-14 8 -28 8zM221 1055q0 20 13 33t34 13l19 -3l116 -47q31 -11 31 -44q0 -20 -13 -33t-34 -13l-18 3l-117 46q-31 13 -31 45z" />
    <glyph glyph-name="Atilde" unicode="&#xc3;" horiz-adv-x="714" 
d="M523 729q24 10 60 10q53 0 53 -31q0 -16 -7 -37q-5 -22 -8 -43.5t-3 -37.5l-6 -120l-3 -199q0 -83 20 -121t64 -38l13 4l33 12l6 1q16 0 16 -19q0 -24 -45 -58.5t-88 -34.5q-14 0 -28.5 4t-42.5 18.5t-41 32t-21 63.5l-6 34q-22 -41 -33 -61t-37 -54.5t-61.5 -53
t-81.5 -18.5q-115 0 -180.5 74.5t-65.5 204.5q0 99 30 205.5t98 218.5t173 112l32 -2q41 -6 68 -22t71 -61q4 4 11.5 10t9.5 7zM399 693q-69 0 -151.5 -132t-82.5 -327q0 -79 18.5 -125t50.5 -46q24 0 65.5 24.5t75.5 71t68 129.5t41 143l6 74l1 36q0 112 -64 144
q-14 8 -28 8zM219 1011q0 19 13 33t31 14l185 -1q20 0 33 -13t13 -33q0 -18 -13.5 -31.5t-33.5 -13.5h-184q-18 0 -31 13t-13 32z" />
    <glyph glyph-name="Otilde" unicode="&#xd5;" horiz-adv-x="772" 
d="M603 676q63 -31 99.5 -109.5t36.5 -182.5q0 -175 -96 -285t-249 -110q-83 0 -155.5 32t-140 108t-67.5 235q0 187 84 311t211 124q55 0 95 -24l71 -46zM170 311q0 -24 1 -37t8 -62.5t60 -99.5t121 -50q99 0 175 101t76 233q0 124 -69 212t-168 88q-70 0 -115.5 -59
t-66.5 -131t-21 -174zM248 1011q0 19 13 33t31 14l185 -1q20 0 33 -13t13 -33q0 -18 -13.5 -31.5t-33.5 -13.5h-184q-18 0 -31 13t-13 32z" />
    <glyph glyph-name="OE" horiz-adv-x="1267" 
d="M521 718q19 -10 30.5 -16t21.5 -12t19.5 -13t20.5 -16q13 14 17 17.5t25 19.5t62 33l6 3l8 2l16 8l8 3l21 9l7 2l39 15l48 18l11 3l10 1l54 7l19 2l54 7l27 1q64 0 105.5 -34.5t41.5 -87.5q0 -39 -18 -63t-48 -24q-36 0 -60 28t-24 72l-23 1l-36 -3q-29 -6 -51 -12
t-87 -28.5t-108 -53.5t-43 -66q0 -58 103 -58h20l25 1l46 2l34 2l27 1h6h53l49 2l8 1l16 4l4 1l3 1l5 -2l3 -4q11 -12 14 -24l1 -3l1 -3l4 -9l1 -3l1 -6l2 -19q0 -19 -5.5 -31.5t-30.5 -12.5l-31 1l-28 1q-13 0 -28.5 -1t-36.5 -4l-29 -3q-94 -10 -138 -33t-84 -81t-40 -88
q0 -15 23 -47.5t58 -32.5l33 2l22 2l31 2l17 2l6 1l6 1l29 4l14 2l15 3l8 2l11 2l39 10l35 9l7 2l9 2l7 3q38 9 91 34l32 16l23 12q5 5 15 10l10 5l3 3l12 4l11 -3q23 -12 23 -33q0 -11 -6 -21.5t-21.5 -23t-52.5 -37.5l-9 -7l-5 -3l-7 -4l-38 -19l-22 -10l-32 -15l-8 -4
l-4 -2l-8 -2l-16 -5l-14 -5l-21 -7l-22 -8l-41 -7l-6 -1l-34 -9q-14 -3 -38 -6t-42 -3q-24 0 -42.5 2.5t-54.5 13t-62 29.5q-19 12 -40 41q-13 -18 -22 -26.5t-34.5 -25.5t-93.5 -29l-9 -1l-9 -3q-32 -6 -64 -6q-81 0 -179 65l-11 6l-28 20q-9 7 -21 14t-20 11
q-21 21 -56 84t-35 186q0 43 6 81.5t18 76.5l10 29l2 5l1 5l2 3l1 3l5 11l6 16q21 52 30 68.5t36.5 48.5t75.5 56t98 24q13 0 25.5 -2t30.5 -9l7 -2l21 -12l5 -2l10 -3l15 -5l42 -25zM171 332l-1 -37q0 -99 55.5 -166.5t136.5 -67.5q95 0 172 102t77 229q0 27 -6 62.5
t-25.5 92t-75.5 102.5t-129 46q-82 0 -110.5 -46t-46.5 -86t-29 -73l-4 -21v-8l-7 -51l-6 -56z" />
    <glyph glyph-name="OE" unicode="&#x152;" horiz-adv-x="1267" 
d="M521 718q19 -10 30.5 -16t21.5 -12t19.5 -13t20.5 -16q13 14 17 17.5t25 19.5t62 33l6 3l8 2l16 8l8 3l21 9l7 2l39 15l48 18l11 3l10 1l54 7l19 2l54 7l27 1q64 0 105.5 -34.5t41.5 -87.5q0 -39 -18 -63t-48 -24q-36 0 -60 28t-24 72l-23 1l-36 -3q-29 -6 -51 -12
t-87 -28.5t-108 -53.5t-43 -66q0 -58 103 -58h20l25 1l46 2l34 2l27 1h6h53l49 2l8 1l16 4l4 1l3 1l5 -2l3 -4q11 -12 14 -24l1 -3l1 -3l4 -9l1 -3l1 -6l2 -19q0 -19 -5.5 -31.5t-30.5 -12.5l-31 1l-28 1q-13 0 -28.5 -1t-36.5 -4l-29 -3q-94 -10 -138 -33t-84 -81t-40 -88
q0 -15 23 -47.5t58 -32.5l33 2l22 2l31 2l17 2l6 1l6 1l29 4l14 2l15 3l8 2l11 2l39 10l35 9l7 2l9 2l7 3q38 9 91 34l32 16l23 12q5 5 15 10l10 5l3 3l12 4l11 -3q23 -12 23 -33q0 -11 -6 -21.5t-21.5 -23t-52.5 -37.5l-9 -7l-5 -3l-7 -4l-38 -19l-22 -10l-32 -15l-8 -4
l-4 -2l-8 -2l-16 -5l-14 -5l-21 -7l-22 -8l-41 -7l-6 -1l-34 -9q-14 -3 -38 -6t-42 -3q-24 0 -42.5 2.5t-54.5 13t-62 29.5q-19 12 -40 41q-13 -18 -22 -26.5t-34.5 -25.5t-93.5 -29l-9 -1l-9 -3q-32 -6 -64 -6q-81 0 -179 65l-11 6l-28 20q-9 7 -21 14t-20 11
q-21 21 -56 84t-35 186q0 43 6 81.5t18 76.5l10 29l2 5l1 5l2 3l1 3l5 11l6 16q21 52 30 68.5t36.5 48.5t75.5 56t98 24q13 0 25.5 -2t30.5 -9l7 -2l21 -12l5 -2l10 -3l15 -5l42 -25zM171 332l-1 -37q0 -99 55.5 -166.5t136.5 -67.5q95 0 172 102t77 229q0 27 -6 62.5
t-25.5 92t-75.5 102.5t-129 46q-82 0 -110.5 -46t-46.5 -86t-29 -73l-4 -21v-8l-7 -51l-6 -56z" />
    <glyph glyph-name="oe" horiz-adv-x="708" 
d="M145 466q7 7 20 11t29 4q28 0 49 -12t40 -25.5t31 -25.5l9 -10l6 -7l9 -14q9 44 36 74.5t58 30.5q30 0 68 -11.5t64 -27.5l6 -3l12 -7l5 -2l3 -2l4 -2l3 -1l4 -2q27 -12 46 -43.5t19 -65.5q0 -22 -14 -48t-36 -45l-5 -4q-25 -19 -42.5 -28t-54.5 -17l-37 -9l-5 -1l-30 -2
h-14q-3 -12 -3 -26q0 -47 13 -64t48 -17l37 3l12 2l7 2l22 10l23 9l4 2l4 2l4 2l10 6l4 3l4 2q14 8 25 15t15 11l7 4l11 10l14 16q16 19 23 25t14 6q30 0 30 -32q0 -10 -13.5 -33t-38 -48.5t-79.5 -59t-122 -33.5q-12 0 -21 3l-55 20q-19 6 -30 12t-19 14q-4 6 -8 18l-6 -6
l-9 -11q-25 -27 -50.5 -38t-65.5 -11q-18 0 -29.5 1t-22.5 5q-22 5 -44.5 15.5t-37 23t-27.5 33t-29 57.5l-7 15q-5 10 -6 21l-1 5l-4 59v4q0 24 1 35t6 32l8 28l9 27l1 7l6 9l16 29l15 26l3 4l29 25l18 14zM232 381q-36 0 -56 -58t-24 -85t-4 -52q0 -60 20.5 -96.5
t54.5 -36.5q46 0 72 81l7 20q2 5 7.5 26t5.5 31q0 9 -19 40l-18 29q-12 20 -13 25l-2 6l-1 4l-3 11v4l-1 3l-3 39q-14 9 -23 9zM563 358q0 23 -11 37t-31 14q-30 0 -55 -45.5t-31 -112.5v-7l-1 -6q51 0 90 36t39 84z" />
    <glyph glyph-name="oe" unicode="&#x153;" horiz-adv-x="708" 
d="M145 466q7 7 20 11t29 4q28 0 49 -12t40 -25.5t31 -25.5l9 -10l6 -7l9 -14q9 44 36 74.5t58 30.5q30 0 68 -11.5t64 -27.5l6 -3l12 -7l5 -2l3 -2l4 -2l3 -1l4 -2q27 -12 46 -43.5t19 -65.5q0 -22 -14 -48t-36 -45l-5 -4q-25 -19 -42.5 -28t-54.5 -17l-37 -9l-5 -1l-30 -2
h-14q-3 -12 -3 -26q0 -47 13 -64t48 -17l37 3l12 2l7 2l22 10l23 9l4 2l4 2l4 2l10 6l4 3l4 2q14 8 25 15t15 11l7 4l11 10l14 16q16 19 23 25t14 6q30 0 30 -32q0 -10 -13.5 -33t-38 -48.5t-79.5 -59t-122 -33.5q-12 0 -21 3l-55 20q-19 6 -30 12t-19 14q-4 6 -8 18l-6 -6
l-9 -11q-25 -27 -50.5 -38t-65.5 -11q-18 0 -29.5 1t-22.5 5q-22 5 -44.5 15.5t-37 23t-27.5 33t-29 57.5l-7 15q-5 10 -6 21l-1 5l-4 59v4q0 24 1 35t6 32l8 28l9 27l1 7l6 9l16 29l15 26l3 4l29 25l18 14zM232 381q-36 0 -56 -58t-24 -85t-4 -52q0 -60 20.5 -96.5
t54.5 -36.5q46 0 72 81l7 20q2 5 7.5 26t5.5 31q0 9 -19 40l-18 29q-12 20 -13 25l-2 6l-1 4l-3 11v4l-1 3l-3 39q-14 9 -23 9zM563 358q0 23 -11 37t-31 14q-30 0 -55 -45.5t-31 -112.5v-7l-1 -6q51 0 90 36t39 84z" />
    <glyph glyph-name="emdash" horiz-adv-x="996" 
d="M30 405h936v-74h-936v74z" />
    <glyph glyph-name="emdash" unicode="&#x2014;" horiz-adv-x="996" 
d="M30 405h936v-74h-936v74z" />
    <glyph glyph-name="quotedblleft" horiz-adv-x="389" 
d="M250 742l9 37q5 9 12 15q12 5 36 5q30 0 40 -11t10 -46l-1 -31q-1 -7 -1 -14q-4 -8 -5 -11l-4 -20l-1 -10l-1 -28v-18l-1 -20l-1 -7v-5q-10 -70 -51 -70q-82 0 -82 41l3 26l9 46l4 19l11 41l12 52zM71 742l10 37q1 4 5 8.5t10.5 8t32.5 3.5q29 0 39 -11.5t10 -45.5
l-1 -31l-5 -25l-4 -20l-2 -10l-1 -28v-18l-1 -20l-1 -7v-5q-4 -33 -17.5 -51.5t-33.5 -18.5q-82 0 -82 41q0 13 4 26l8 46l4 19l11 41l12 52z" />
    <glyph glyph-name="quotedblleft" unicode="&#x201c;" horiz-adv-x="389" 
d="M250 742l9 37q5 9 12 15q12 5 36 5q30 0 40 -11t10 -46l-1 -31q-1 -7 -1 -14q-4 -8 -5 -11l-4 -20l-1 -10l-1 -28v-18l-1 -20l-1 -7v-5q-10 -70 -51 -70q-82 0 -82 41l3 26l9 46l4 19l11 41l12 52zM71 742l10 37q1 4 5 8.5t10.5 8t32.5 3.5q29 0 39 -11.5t10 -45.5
l-1 -31l-5 -25l-4 -20l-2 -10l-1 -28v-18l-1 -20l-1 -7v-5q-4 -33 -17.5 -51.5t-33.5 -18.5q-82 0 -82 41q0 13 4 26l8 46l4 19l11 41l12 52z" />
    <glyph glyph-name="quotedblright" horiz-adv-x="389" 
d="M144 569l-10 -38q-3 -10 -13.5 -15t-34.5 -5q-31 0 -40 11t-9 50q0 28 5 52l6 20l1 10l1 28v19l1 19l1 8v4q8 70 52 70q81 0 81 -42l-3 -25l-9 -45l-4 -20l-11 -41l-12 -52zM322 569l-10 -38q-3 -9 -14 -14.5t-33 -5.5q-31 0 -40.5 11.5t-9.5 49.5q0 29 6 52l5 20l1 10
l1 28v19l1 19l1 8v4q10 70 52 70q81 0 81 -42l-3 -25l-9 -45l-4 -20l-11 -41l-12 -52z" />
    <glyph glyph-name="quotedblright" unicode="&#x201d;" horiz-adv-x="389" 
d="M144 569l-10 -38q-3 -10 -13.5 -15t-34.5 -5q-31 0 -40 11t-9 50q0 28 5 52l6 20l1 10l1 28v19l1 19l1 8v4q8 70 52 70q81 0 81 -42l-3 -25l-9 -45l-4 -20l-11 -41l-12 -52zM322 569l-10 -38q-3 -9 -14 -14.5t-33 -5.5q-31 0 -40.5 11.5t-9.5 49.5q0 29 6 52l5 20l1 10
l1 28v19l1 19l1 8v4q10 70 52 70q81 0 81 -42l-3 -25l-9 -45l-4 -20l-11 -41l-12 -52z" />
    <glyph glyph-name="quoteleft" horiz-adv-x="209" 
d="M160 573q-8 -66 -51 -66q-40 0 -59.5 10t-19.5 31l1 26l1 9l2 6l4 25l1 3l1 5l15 58l12 52l2 9l10 37q5 20 47 20q28 0 39 -11t11 -39v-6l-1 -9v-14v-7l-1 -5l-2 -12l-1 -5l-2 -12l-4 -13v-2l-1 -8l-1 -28v-18l-1 -20z" />
    <glyph glyph-name="quoteleft" unicode="&#x2018;" horiz-adv-x="209" 
d="M160 573q-8 -66 -51 -66q-40 0 -59.5 10t-19.5 31l1 26l1 9l2 6l4 25l1 3l1 5l15 58l12 52l2 9l10 37q5 20 47 20q28 0 39 -11t11 -39v-6l-1 -9v-14v-7l-1 -5l-2 -12l-1 -5l-2 -12l-4 -13v-2l-1 -8l-1 -28v-18l-1 -20z" />
    <glyph glyph-name="quoteright" horiz-adv-x="210" 
d="M138 565l-9 -37q-5 -11 -14 -15.5t-35 -4.5q-30 0 -39.5 11.5t-9.5 50.5q0 18 1 29t5 22l5 20l1 10l1 28v18l1 20l3 17q4 29 17.5 47t32.5 18q41 0 60.5 -11t19.5 -32q0 -15 -2 -24l-8 -46l-5 -19l-11 -41l-11 -52z" />
    <glyph glyph-name="quoteright" unicode="&#x2019;" horiz-adv-x="210" 
d="M138 565l-9 -37q-5 -11 -14 -15.5t-35 -4.5q-30 0 -39.5 11.5t-9.5 50.5q0 18 1 29t5 22l5 20l1 10l1 28v18l1 20l3 17q4 29 17.5 47t32.5 18q41 0 60.5 -11t19.5 -32q0 -15 -2 -24l-8 -46l-5 -19l-11 -41l-11 -52z" />
    <glyph glyph-name="divide" unicode="&#xf7;" horiz-adv-x="549" 
d="M275 158q24 0 40 -16t16 -41q0 -24 -17 -40q-15 -17 -39 -17t-40.5 17.5t-16.5 39.5q0 24 17.5 40.5t39.5 16.5zM506 202h-463v68h463v-68zM275 427q24 0 40 -17t16 -40q0 -24 -17 -40q-15 -17 -39 -17t-40.5 16.5t-16.5 40.5t17.5 40.5t39.5 16.5z" />
    <glyph glyph-name="lozenge" unicode="&#x25ca;" horiz-adv-x="494" 
d="M247 807l244 -518l-244 -522l-244 522zM247 688l-188 -399l188 -403l188 403z" />
    <glyph glyph-name="ydieresis" unicode="&#xff;" horiz-adv-x="516" 
d="M270 68q-38 -34 -84 -34q-36 0 -60.5 15.5t-35 33.5t-19 67.5t-8.5 114.5q0 55 8.5 122.5t48.5 67.5q32 0 54.5 -18.5t22.5 -44.5q0 -19 -3 -35t-9 -45.5t-6 -97.5q0 -96 25 -96q8 0 32 28.5t50 107t39.5 163.5t35.5 85l53 -9q39 -5 39 -35t-8 -67t-12 -143.5t-4 -289.5
q0 -118 -35 -163q-16 -18 -45.5 -31t-56.5 -13l-20 -1l-46 7l-69 21q-15 7 -28 16.5t-38.5 28t-25.5 42.5q0 16 26 16h4q19 -2 51 -15t66.5 -35t53.5 -22q33 0 47.5 61.5t14.5 198.5v66q-34 -47 -58 -67zM225 594l2 -8v-3q0 -14 -12 -26q-22 -27 -63 -27q-25 0 -42 17
t-17 43q0 16 7 26t33 29.5t46 19.5q31 0 42 -51l2 -9zM346 530q-26 0 -42.5 17.5t-16.5 42.5q0 17 7.5 28t33 29t44.5 18q29 0 41 -51l2 -9l3 -14l3 -6q-4 -25 -25 -40t-50 -15z" />
    <glyph glyph-name="Ydieresis" horiz-adv-x="737" 
d="M409 43q-45 -39 -104 -39q-67 0 -123.5 38t-74 85.5t-24 104t-6.5 136.5q0 73 6 133.5t20.5 156t30.5 112t55 16.5q41 0 57.5 -6t16.5 -22q0 -10 -3.5 -20t-17.5 -49.5t-27 -178t-13 -195.5q0 -42 2 -67.5t14.5 -98.5t73.5 -73q59 0 125 123.5t91 280.5l15 94l18 123
q0 26 7 36t27 10l42 -2l29 1q17 0 17 -28l-4 -33q-12 -110 -16.5 -166t-4.5 -124l-8 -149q0 -174 -1.5 -238.5t-5 -148t-4.5 -118.5q0 -12 -10.5 -27.5t-46.5 -15.5l-18 2q-34 9 -40.5 22t-6.5 108l1 102l5 211l2 39q-30 -58 -50 -85.5t-46 -49.5zM335 1026l2 -8v-3
q0 -14 -12 -26q-22 -27 -63 -27q-25 0 -42 17t-17 43q0 16 7 26t33 29.5t46 19.5q31 0 42 -51l2 -9zM456 962q-26 0 -42.5 17.5t-16.5 42.5q0 17 7.5 28t33 29t44.5 18q29 0 41 -51l2 -9l3 -14l3 -6q-4 -25 -25 -40t-50 -15z" />
    <glyph glyph-name="Ydieresis" unicode="&#x178;" horiz-adv-x="737" 
d="M409 43q-45 -39 -104 -39q-67 0 -123.5 38t-74 85.5t-24 104t-6.5 136.5q0 73 6 133.5t20.5 156t30.5 112t55 16.5q41 0 57.5 -6t16.5 -22q0 -10 -3.5 -20t-17.5 -49.5t-27 -178t-13 -195.5q0 -42 2 -67.5t14.5 -98.5t73.5 -73q59 0 125 123.5t91 280.5l15 94l18 123
q0 26 7 36t27 10l42 -2l29 1q17 0 17 -28l-4 -33q-12 -110 -16.5 -166t-4.5 -124l-8 -149q0 -174 -1.5 -238.5t-5 -148t-4.5 -118.5q0 -12 -10.5 -27.5t-46.5 -15.5l-18 2q-34 9 -40.5 22t-6.5 108l1 102l5 211l2 39q-30 -58 -50 -85.5t-46 -49.5zM335 1026l2 -8v-3
q0 -14 -12 -26q-22 -27 -63 -27q-25 0 -42 17t-17 43q0 16 7 26t33 29.5t46 19.5q31 0 42 -51l2 -9zM456 962q-26 0 -42.5 17.5t-16.5 42.5q0 17 7.5 28t33 29t44.5 18q29 0 41 -51l2 -9l3 -14l3 -6q-4 -25 -25 -40t-50 -15z" />
    <glyph glyph-name="currency" unicode="&#xa4;" horiz-adv-x="458" 
d="M109 274q-28 38 -28 88q0 47 27 86l-60 58q12 18 31 35l62 -62q38 29 88 29q49 0 87 -28l61 62q8 -6 14.5 -12t12.5 -14l7 -10l-62 -58q28 -38 28 -87q0 -48 -29 -88l62 -62l-7 -8l-8 -7l-19 -17l-60 62q-38 -29 -88 -29q-48 0 -86 29l-63 -61q-9 7 -16.5 14.5
t-15.5 18.5zM229 261q41 0 70 29t29 71q0 40 -29 69t-70 29t-70.5 -28.5t-29.5 -70.5q0 -41 29 -70t71 -29z" />
    <glyph glyph-name="guilsinglleft" horiz-adv-x="279" 
d="M134 237q9 -15 15.5 -23.5t13.5 -15.5l8 -8l14 -14l4 -6l10 -14l4 -6l5 -6l14 -20l13 -19l3 -4l1 -3l2 -6l3 -13l9 -15v-6q0 -11 -9.5 -27.5t-16.5 -25t-13 -8.5l-24 5q-5 1 -11 3.5t-10 5t-17 25.5l-4 7l-5 9l-28 41l-8 11l-9 13l-26 37l-7 10l-14 20l-26 41l-1 7l1 5
l4 9l11 11q15 17 23 31l5 9l2 4l13 28l12 21l22 31l4 5l5 8l10 11l2 4l6 9l7 13l8 14l5 7q23 20 41 20q19 0 31 -20l2 -4l2 -4l3 -4l6 -11l5 -17q-3 -11 -5 -13l-8 -9l-2 -21l-34 -38l-5 -6l-29 -39l-27 -37z" />
    <glyph glyph-name="guilsinglleft" unicode="&#x2039;" horiz-adv-x="279" 
d="M134 237q9 -15 15.5 -23.5t13.5 -15.5l8 -8l14 -14l4 -6l10 -14l4 -6l5 -6l14 -20l13 -19l3 -4l1 -3l2 -6l3 -13l9 -15v-6q0 -11 -9.5 -27.5t-16.5 -25t-13 -8.5l-24 5q-5 1 -11 3.5t-10 5t-17 25.5l-4 7l-5 9l-28 41l-8 11l-9 13l-26 37l-7 10l-14 20l-26 41l-1 7l1 5
l4 9l11 11q15 17 23 31l5 9l2 4l13 28l12 21l22 31l4 5l5 8l10 11l2 4l6 9l7 13l8 14l5 7q23 20 41 20q19 0 31 -20l2 -4l2 -4l3 -4l6 -11l5 -17q-3 -11 -5 -13l-8 -9l-2 -21l-34 -38l-5 -6l-29 -39l-27 -37z" />
    <glyph glyph-name="guilsinglright" horiz-adv-x="279" 
d="M143 234q-4 7 -11.5 16t-17.5 22l-8 9l-14 14l-3 4l-8 10l-12 17l-25 36l-5 8l-3 8l-1 4l-1 4l-2 2q-1 5 -2 8t-6 12l-1 5q0 8 7 22q23 39 33 39l23 -5q15 -3 22 -8q3 -4 7 -9.5t10 -16.5l5 -8l5 -9l4 -7l39 -57l26 -37l8 -11l14 -20q27 -36 27 -48q0 -6 -2 -9t-18 -20.5
t-24 -34.5l-3 -4l-12 -28q-7 -13 -17 -28t-21 -31l-5 -4l-10 -14l-3 -3l-5 -8l-8 -14q-18 -42 -54 -42q-23 0 -36 32l-7 11q-3 4 -4 8t-1 8q0 7 5 14l8 9l3 23l32 36l6 7l29 38l27 38z" />
    <glyph glyph-name="guilsinglright" unicode="&#x203a;" horiz-adv-x="279" 
d="M143 234q-4 7 -11.5 16t-17.5 22l-8 9l-14 14l-3 4l-8 10l-12 17l-25 36l-5 8l-3 8l-1 4l-1 4l-2 2q-1 5 -2 8t-6 12l-1 5q0 8 7 22q23 39 33 39l23 -5q15 -3 22 -8q3 -4 7 -9.5t10 -16.5l5 -8l5 -9l4 -7l39 -57l26 -37l8 -11l14 -20q27 -36 27 -48q0 -6 -2 -9t-18 -20.5
t-24 -34.5l-3 -4l-12 -28q-7 -13 -17 -28t-21 -31l-5 -4l-10 -14l-3 -3l-5 -8l-8 -14q-18 -42 -54 -42q-23 0 -36 32l-7 11q-3 4 -4 8t-1 8q0 7 5 14l8 9l3 23l32 36l6 7l29 38l27 38z" />
    <glyph glyph-name="quotesinglbase" horiz-adv-x="210" 
d="M138 -69l-9 -38q-6 -11 -15.5 -15t-33.5 -4q-30 0 -39.5 11.5t-9.5 50.5q0 13 2 26.5t4 23.5l5 20l1 10l1 28v19l1 19q0 36 15 59t38 23q20 0 36.5 -3t30 -10t13.5 -29l-2 -25l-8 -45l-5 -20l-11 -41l-11 -52z" />
    <glyph glyph-name="quotesinglbase" unicode="&#x201a;" horiz-adv-x="210" 
d="M138 -69l-9 -38q-6 -11 -15.5 -15t-33.5 -4q-30 0 -39.5 11.5t-9.5 50.5q0 13 2 26.5t4 23.5l5 20l1 10l1 28v19l1 19q0 36 15 59t38 23q20 0 36.5 -3t30 -10t13.5 -29l-2 -25l-8 -45l-5 -20l-11 -41l-11 -52z" />
    <glyph glyph-name="quotedblbase" horiz-adv-x="389" 
d="M138 -69l-9 -38q-6 -11 -15.5 -15t-33.5 -4q-30 0 -39.5 11.5t-9.5 50.5q0 13 2 26.5t4 23.5l5 20l1 10l1 28v19l1 19q0 36 15 59t38 23q20 0 36.5 -3t30 -10t13.5 -29l-2 -25l-8 -45l-5 -20l-11 -41l-11 -52zM317 -69l-10 -38q-4 -10 -13 -14.5t-36 -4.5q-30 0 -39 11
t-9 48q0 17 1 29.5t4 23.5l6 20l1 10l1 28v19l1 19q0 35 15.5 58.5t36.5 23.5q19 0 36.5 -3t31 -10.5t13.5 -28.5l-2 -25l-9 -45l-4 -20l-11 -41l-12 -52z" />
    <glyph glyph-name="quotedblbase" unicode="&#x201e;" horiz-adv-x="389" 
d="M138 -69l-9 -38q-6 -11 -15.5 -15t-33.5 -4q-30 0 -39.5 11.5t-9.5 50.5q0 13 2 26.5t4 23.5l5 20l1 10l1 28v19l1 19q0 36 15 59t38 23q20 0 36.5 -3t30 -10t13.5 -29l-2 -25l-8 -45l-5 -20l-11 -41l-11 -52zM317 -69l-10 -38q-4 -10 -13 -14.5t-36 -4.5q-30 0 -39 11
t-9 48q0 17 1 29.5t4 23.5l6 20l1 10l1 28v19l1 19q0 35 15.5 58.5t36.5 23.5q19 0 36.5 -3t31 -10.5t13.5 -28.5l-2 -25l-9 -45l-4 -20l-11 -41l-12 -52z" />
    <glyph glyph-name="Acircumflex" unicode="&#xc2;" horiz-adv-x="714" 
d="M523 729q24 10 60 10q53 0 53 -31q0 -16 -7 -37q-5 -22 -8 -43.5t-3 -37.5l-6 -120l-3 -199q0 -83 20 -121t64 -38l13 4l33 12l6 1q16 0 16 -19q0 -24 -45 -58.5t-88 -34.5q-14 0 -28.5 4t-42.5 18.5t-41 32t-21 63.5l-6 34q-22 -41 -33 -61t-37 -54.5t-61.5 -53
t-81.5 -18.5q-115 0 -180.5 74.5t-65.5 204.5q0 99 30 205.5t98 218.5t173 112l32 -2q41 -6 68 -22t71 -61q4 4 11.5 10t9.5 7zM399 693q-69 0 -151.5 -132t-82.5 -327q0 -79 18.5 -125t50.5 -46q24 0 65.5 24.5t75.5 71t68 129.5t41 143l6 74l1 36q0 112 -64 144
q-14 8 -28 8zM352 992l-19 -8l-23 -8q-22 -9 -30.5 -11.5t-15.5 -2.5q-19 0 -32.5 13.5t-13.5 33.5q0 31 29 44l85 34l25 7q3 0 9 -1.5t16 -5.5l84 -33q30 -12 30 -44q0 -20 -14 -34t-34 -14q-10 0 -19.5 3.5t-25.5 10.5l-24 8l-19 8l-4 2z" />
    <glyph glyph-name="Ecircumflex" unicode="&#xca;" horiz-adv-x="771" 
d="M514 703q-27 0 -72.5 -12t-112 -39t-113 -58.5t-46.5 -54.5q0 -26 73 -36l220 -32q18 -3 35 -3q44 0 66 20q17 13 24 13q11 0 21 -24.5t10 -53.5q0 -30 -9.5 -38.5t-47.5 -8.5q-24 0 -73 -17l-92 -30q-91 -30 -143.5 -57.5t-91 -62.5t-38.5 -58q0 -57 128 -57q33 0 81 5
t128.5 21t146.5 44l98 53q13 8 23 8q11 0 22 -11t11 -23q0 -22 -33.5 -52t-106 -65t-156.5 -59t-147 -24q-115 0 -198.5 64.5t-83.5 153.5q0 51 44 98t115 74l82 30l3 1q-80 18 -112 29t-56 28t-38 44t-14 55q0 90 115.5 143t204 78t152.5 25q73 0 116.5 -34.5t43.5 -93.5
q0 -36 -18.5 -59.5t-47.5 -23.5q-37 0 -59.5 26.5t-22.5 73.5h-31zM381 992l-19 -8l-23 -8q-22 -9 -30.5 -11.5t-15.5 -2.5q-19 0 -32.5 13.5t-13.5 33.5q0 31 29 44l85 34l25 7q3 0 9 -1.5t16 -5.5l84 -33q30 -12 30 -44q0 -20 -14 -34t-34 -14q-10 0 -19.5 3.5t-25.5 10.5
l-24 8l-19 8l-4 2z" />
    <glyph glyph-name="Aacute" unicode="&#xc1;" horiz-adv-x="714" 
d="M523 729q24 10 60 10q53 0 53 -31q0 -16 -7 -37q-5 -22 -8 -43.5t-3 -37.5l-6 -120l-3 -199q0 -83 20 -121t64 -38l13 4l33 12l6 1q16 0 16 -19q0 -24 -45 -58.5t-88 -34.5q-14 0 -28.5 4t-42.5 18.5t-41 32t-21 63.5l-6 34q-22 -41 -33 -61t-37 -54.5t-61.5 -53
t-81.5 -18.5q-115 0 -180.5 74.5t-65.5 204.5q0 99 30 205.5t98 218.5t173 112l32 -2q41 -6 68 -22t71 -61q4 4 11.5 10t9.5 7zM399 693q-69 0 -151.5 -132t-82.5 -327q0 -79 18.5 -125t50.5 -46q24 0 65.5 24.5t75.5 71t68 129.5t41 143l6 74l1 36q0 112 -64 144
q-14 8 -28 8zM354 961q-18 0 -31.5 13.5t-13.5 32.5q0 33 31 44l117 47l17 3q21 0 34.5 -12.5t13.5 -33.5q0 -15 -8 -27t-22 -18l-117 -45q-12 -4 -21 -4z" />
    <glyph glyph-name="Edieresis" unicode="&#xcb;" horiz-adv-x="771" 
d="M514 703q-27 0 -72.5 -12t-112 -39t-113 -58.5t-46.5 -54.5q0 -26 73 -36l220 -32q18 -3 35 -3q44 0 66 20q17 13 24 13q11 0 21 -24.5t10 -53.5q0 -30 -9.5 -38.5t-47.5 -8.5q-24 0 -73 -17l-92 -30q-91 -30 -143.5 -57.5t-91 -62.5t-38.5 -58q0 -57 128 -57q33 0 81 5
t128.5 21t146.5 44l98 53q13 8 23 8q11 0 22 -11t11 -23q0 -22 -33.5 -52t-106 -65t-156.5 -59t-147 -24q-115 0 -198.5 64.5t-83.5 153.5q0 51 44 98t115 74l82 30l3 1q-80 18 -112 29t-56 28t-38 44t-14 55q0 90 115.5 143t204 78t152.5 25q73 0 116.5 -34.5t43.5 -93.5
q0 -36 -18.5 -59.5t-47.5 -23.5q-37 0 -59.5 26.5t-22.5 73.5h-31zM352 1026l2 -8v-3q0 -14 -12 -26q-22 -27 -63 -27q-25 0 -42 17t-17 43q0 16 7 26t33 29.5t46 19.5q31 0 42 -51l2 -9zM473 962q-26 0 -42.5 17.5t-16.5 42.5q0 17 7.5 28t33 29t44.5 18q29 0 41 -51l2 -9
l3 -14l3 -6q-4 -25 -25 -40t-50 -15z" />
    <glyph glyph-name="Egrave" unicode="&#xc8;" horiz-adv-x="771" 
d="M514 703q-27 0 -72.5 -12t-112 -39t-113 -58.5t-46.5 -54.5q0 -26 73 -36l220 -32q18 -3 35 -3q44 0 66 20q17 13 24 13q11 0 21 -24.5t10 -53.5q0 -30 -9.5 -38.5t-47.5 -8.5q-24 0 -73 -17l-92 -30q-91 -30 -143.5 -57.5t-91 -62.5t-38.5 -58q0 -57 128 -57q33 0 81 5
t128.5 21t146.5 44l98 53q13 8 23 8q11 0 22 -11t11 -23q0 -22 -33.5 -52t-106 -65t-156.5 -59t-147 -24q-115 0 -198.5 64.5t-83.5 153.5q0 51 44 98t115 74l82 30l3 1q-80 18 -112 29t-56 28t-38 44t-14 55q0 90 115.5 143t204 78t152.5 25q73 0 116.5 -34.5t43.5 -93.5
q0 -36 -18.5 -59.5t-47.5 -23.5q-37 0 -59.5 26.5t-22.5 73.5h-31zM250 1055q0 20 13 33t34 13l19 -3l116 -47q31 -11 31 -44q0 -20 -13 -33t-34 -13l-18 3l-117 46q-31 13 -31 45z" />
    <glyph glyph-name="Iacute" unicode="&#xcd;" horiz-adv-x="339" 
d="M53 693q-23 3 -38 18t-15 35q0 26 42.5 37.5t135.5 11.5q47 0 71 -3t56 -12.5t32 -38.5q0 -25 -16 -37t-56 -12q-13 0 -17 -2t-4 -20l-10 -560q0 -9 10.5 -18t33.5 -12.5t29.5 -6.5t14 -10.5t7.5 -20.5q0 -17 -12.5 -25t-44.5 -12l-44 -4l-56 -1l-106 2q-29 0 -48 10
t-19 25t7 25t18 10l22 4q24 3 40 16t16 31l-11 547q0 10 -7.5 14.5t-30.5 8.5zM167 961q-18 0 -31.5 13.5t-13.5 32.5q0 33 31 44l117 47l17 3q21 0 34.5 -12.5t13.5 -33.5q0 -15 -8 -27t-22 -18l-117 -45q-12 -4 -21 -4z" />
    <glyph glyph-name="Icircumflex" unicode="&#xce;" horiz-adv-x="339" 
d="M53 693q-23 3 -38 18t-15 35q0 26 42.5 37.5t135.5 11.5q47 0 71 -3t56 -12.5t32 -38.5q0 -25 -16 -37t-56 -12q-13 0 -17 -2t-4 -20l-10 -560q0 -9 10.5 -18t33.5 -12.5t29.5 -6.5t14 -10.5t7.5 -20.5q0 -17 -12.5 -25t-44.5 -12l-44 -4l-56 -1l-106 2q-29 0 -48 10
t-19 25t7 25t18 10l22 4q24 3 40 16t16 31l-11 547q0 10 -7.5 14.5t-30.5 8.5zM165 992l-19 -8l-23 -8q-22 -9 -30.5 -11.5t-15.5 -2.5q-19 0 -32.5 13.5t-13.5 33.5q0 31 29 44l85 34l25 7q3 0 9 -1.5t16 -5.5l84 -33q30 -12 30 -44q0 -20 -14 -34t-34 -14q-10 0 -19.5 3.5
t-25.5 10.5l-24 8l-19 8l-4 2z" />
    <glyph glyph-name="Idieresis" unicode="&#xcf;" horiz-adv-x="339" 
d="M53 693q-23 3 -38 18t-15 35q0 26 42.5 37.5t135.5 11.5q47 0 71 -3t56 -12.5t32 -38.5q0 -25 -16 -37t-56 -12q-13 0 -17 -2t-4 -20l-10 -560q0 -9 10.5 -18t33.5 -12.5t29.5 -6.5t14 -10.5t7.5 -20.5q0 -17 -12.5 -25t-44.5 -12l-44 -4l-56 -1l-106 2q-29 0 -48 10
t-19 25t7 25t18 10l22 4q24 3 40 16t16 31l-11 547q0 10 -7.5 14.5t-30.5 8.5zM136 1026l2 -8v-3q0 -14 -12 -26q-22 -27 -63 -27q-25 0 -42 17t-17 43q0 16 7 26t33 29.5t46 19.5q31 0 42 -51l2 -9zM257 962q-26 0 -42.5 17.5t-16.5 42.5q0 17 7.5 28t33 29t44.5 18
q29 0 41 -51l2 -9l3 -14l3 -6q-4 -25 -25 -40t-50 -15z" />
    <glyph glyph-name="Igrave" unicode="&#xcc;" horiz-adv-x="339" 
d="M53 693q-23 3 -38 18t-15 35q0 26 42.5 37.5t135.5 11.5q47 0 71 -3t56 -12.5t32 -38.5q0 -25 -16 -37t-56 -12q-13 0 -17 -2t-4 -20l-10 -560q0 -9 10.5 -18t33.5 -12.5t29.5 -6.5t14 -10.5t7.5 -20.5q0 -17 -12.5 -25t-44.5 -12l-44 -4l-56 -1l-106 2q-29 0 -48 10
t-19 25t7 25t18 10l22 4q24 3 40 16t16 31l-11 547q0 10 -7.5 14.5t-30.5 8.5zM34 1055q0 20 13 33t34 13l19 -3l116 -47q31 -11 31 -44q0 -20 -13 -33t-34 -13l-18 3l-117 46q-31 13 -31 45z" />
    <glyph glyph-name="Oacute" unicode="&#xd3;" horiz-adv-x="772" 
d="M603 676q63 -31 99.5 -109.5t36.5 -182.5q0 -175 -96 -285t-249 -110q-83 0 -155.5 32t-140 108t-67.5 235q0 187 84 311t211 124q55 0 95 -24l71 -46zM170 311q0 -24 1 -37t8 -62.5t60 -99.5t121 -50q99 0 175 101t76 233q0 124 -69 212t-168 88q-70 0 -115.5 -59
t-66.5 -131t-21 -174zM383 961q-18 0 -31.5 13.5t-13.5 32.5q0 33 31 44l117 47l17 3q21 0 34.5 -12.5t13.5 -33.5q0 -15 -8 -27t-22 -18l-117 -45q-12 -4 -21 -4z" />
    <glyph glyph-name="Ocircumflex" unicode="&#xd4;" horiz-adv-x="772" 
d="M603 676q63 -31 99.5 -109.5t36.5 -182.5q0 -175 -96 -285t-249 -110q-83 0 -155.5 32t-140 108t-67.5 235q0 187 84 311t211 124q55 0 95 -24l71 -46zM170 311q0 -24 1 -37t8 -62.5t60 -99.5t121 -50q99 0 175 101t76 233q0 124 -69 212t-168 88q-70 0 -115.5 -59
t-66.5 -131t-21 -174zM381 992l-19 -8l-23 -8q-22 -9 -30.5 -11.5t-15.5 -2.5q-19 0 -32.5 13.5t-13.5 33.5q0 31 29 44l85 34l25 7q3 0 9 -1.5t16 -5.5l84 -33q30 -12 30 -44q0 -20 -14 -34t-34 -14q-10 0 -19.5 3.5t-25.5 10.5l-24 8l-19 8l-4 2z" />
    <glyph glyph-name="Ograve" unicode="&#xd2;" horiz-adv-x="772" 
d="M603 676q63 -31 99.5 -109.5t36.5 -182.5q0 -175 -96 -285t-249 -110q-83 0 -155.5 32t-140 108t-67.5 235q0 187 84 311t211 124q55 0 95 -24l71 -46zM170 311q0 -24 1 -37t8 -62.5t60 -99.5t121 -50q99 0 175 101t76 233q0 124 -69 212t-168 88q-70 0 -115.5 -59
t-66.5 -131t-21 -174zM250 1055q0 20 13 33t34 13l19 -3l116 -47q31 -11 31 -44q0 -20 -13 -33t-34 -13l-18 3l-117 46q-31 13 -31 45z" />
    <glyph glyph-name="Uacute" unicode="&#xda;" horiz-adv-x="744" 
d="M446 69q-33 -41 -67 -60t-77 -19q-23 0 -39 5q-47 8 -77.5 22t-50.5 39.5t-39 121.5t-19 198q0 32 3 77t16.5 156.5t35.5 151.5q16 26 70 26q30 0 40 -8.5t10 -34.5q0 -29 -13 -79.5t-26 -177.5t-13 -184q0 -101 22 -173t53 -72q37 0 81.5 55t71 117t37.5 91t27.5 81.5
t30.5 128.5t14 112q0 47 4 64t21.5 33t62.5 16q47 0 47 -46q0 -13 -5 -35l-14 -63q-22 -108 -22 -236q0 -105 14.5 -183t50.5 -78l8 1l32 13q6 2 13 3t13 1q36 0 36 -26q0 -16 -32 -48.5t-83 -32.5q-44 0 -84 30t-50 72l-18 74l-5 9q-25 -56 -41.5 -85t-38.5 -57zM369 961
q-18 0 -31.5 13.5t-13.5 32.5q0 33 31 44l117 47l17 3q21 0 34.5 -12.5t13.5 -33.5q0 -15 -8 -27t-22 -18l-117 -45q-12 -4 -21 -4z" />
    <glyph glyph-name="Ucircumflex" unicode="&#xdb;" horiz-adv-x="744" 
d="M446 69q-33 -41 -67 -60t-77 -19q-23 0 -39 5q-47 8 -77.5 22t-50.5 39.5t-39 121.5t-19 198q0 32 3 77t16.5 156.5t35.5 151.5q16 26 70 26q30 0 40 -8.5t10 -34.5q0 -29 -13 -79.5t-26 -177.5t-13 -184q0 -101 22 -173t53 -72q37 0 81.5 55t71 117t37.5 91t27.5 81.5
t30.5 128.5t14 112q0 47 4 64t21.5 33t62.5 16q47 0 47 -46q0 -13 -5 -35l-14 -63q-22 -108 -22 -236q0 -105 14.5 -183t50.5 -78l8 1l32 13q6 2 13 3t13 1q36 0 36 -26q0 -16 -32 -48.5t-83 -32.5q-44 0 -84 30t-50 72l-18 74l-5 9q-25 -56 -41.5 -85t-38.5 -57zM367 992
l-19 -8l-23 -8q-22 -9 -30.5 -11.5t-15.5 -2.5q-19 0 -32.5 13.5t-13.5 33.5q0 31 29 44l85 34l25 7q3 0 9 -1.5t16 -5.5l84 -33q30 -12 30 -44q0 -20 -14 -34t-34 -14q-10 0 -19.5 3.5t-25.5 10.5l-24 8l-19 8l-4 2z" />
    <glyph glyph-name="Ugrave" unicode="&#xd9;" horiz-adv-x="744" 
d="M446 69q-33 -41 -67 -60t-77 -19q-23 0 -39 5q-47 8 -77.5 22t-50.5 39.5t-39 121.5t-19 198q0 32 3 77t16.5 156.5t35.5 151.5q16 26 70 26q30 0 40 -8.5t10 -34.5q0 -29 -13 -79.5t-26 -177.5t-13 -184q0 -101 22 -173t53 -72q37 0 81.5 55t71 117t37.5 91t27.5 81.5
t30.5 128.5t14 112q0 47 4 64t21.5 33t62.5 16q47 0 47 -46q0 -13 -5 -35l-14 -63q-22 -108 -22 -236q0 -105 14.5 -183t50.5 -78l8 1l32 13q6 2 13 3t13 1q36 0 36 -26q0 -16 -32 -48.5t-83 -32.5q-44 0 -84 30t-50 72l-18 74l-5 9q-25 -56 -41.5 -85t-38.5 -57zM236 1055
q0 20 13 33t34 13l19 -3l116 -47q31 -11 31 -44q0 -20 -13 -33t-34 -13l-18 3l-117 46q-31 13 -31 45z" />
    <glyph glyph-name="dotlessi" unicode="&#x131;" horiz-adv-x="264" 
d="M66 137l-1 5l-1 10l-1 18l-1 17l1 14l1 9l3 39v7l1 33v6l2 13q8 54 19 72t58 18q37 0 50 -19l-7 -38l-3 -40l-1 -23l-5 -55v-9l-2 -17l-1 -29v-29v-21t3.5 -34t23.5 -26q6 0 31 11l7 5q8 2 9.5 2.5t4.5 3.5l4 2l4 1l11 6l18 7l15 7q23 9 33 9q6 0 11.5 -6.5t5.5 -14.5
q0 -17 -33 -47l-34 -32q-27 -13 -35 -15q-10 -5 -25 -7t-33 -2q-59 0 -85 23.5t-33 39.5t-15 57l-1 6z" />
    <glyph glyph-name="breve" unicode="&#x2d8;" horiz-adv-x="263" 
d="M279 616q0 -32 -23.5 -47.5t-60 -26.5t-63.5 -11q-42 0 -104 26q-43 22 -43 54l1 15q0 18 8 28t21 10q7 0 18.5 -4t25 -13.5t34 -15.5t44.5 -6q26 0 43.5 6t38 20t26.5 14q22 0 30 -26l3 -13z" />
    <glyph glyph-name="ring" unicode="&#x2da;" horiz-adv-x="210" 
d="M6 613q0 35 28.5 59.5t69.5 24.5q42 0 71 -24t29 -60q0 -34 -28.5 -58.5t-68.5 -24.5q-45 0 -73 23t-28 60zM105 578q14 0 25 10t11 25q0 14 -11 25t-25 11t-25 -10t-11 -24q0 -15 10 -26t26 -11z" />
    <glyph glyph-name="cedilla" unicode="&#xb8;" horiz-adv-x="150" 
d="M152 -50l-17 -38l-26 -58q-10 -24 -15.5 -37.5t-13.5 -21.5t-26 -8q-20 0 -32.5 14.5t-12.5 37.5q0 18 7 33l41 87h100z" />
    <glyph glyph-name="caron" unicode="&#x2c7;" horiz-adv-x="244" 
d="M196 662l18 3q20 0 34 -14t14 -35q0 -30 -31 -43l-83 -34l-27 -6q-9 0 -24 6l-84 35q-29 13 -29 44q0 20 13.5 33.5t33.5 13.5l18 -3l73 -31z" />
    <glyph glyph-name="summation" unicode="&#x3a3;" horiz-adv-x="713" 
d="M618 643l15 -129h-44q-32 105 -85 144t-169 39h-132l315 -431l-344 -394h187q122 0 172.5 31.5t82.5 116.5h45l-30 -130l-2 -7q-23 -99 -111 -99h-482l389 446l-375 514h460q65 0 82 -15q17 -13 26 -86z" />
    <glyph glyph-name="Omega" unicode="&#x3a9;" horiz-adv-x="768" 
d="M593 90q48 0 68 19t20 67h23v-176h-272v180q77 15 122.5 76.5t45.5 151.5q0 106 -59 168.5t-157 62.5t-157 -62.5t-59 -168.5q0 -90 44.5 -151t123.5 -77v-180h-272v176h23q0 -48 19 -67t69 -19h123v59q-118 21 -183 89t-65 170q0 121 92.5 194t241.5 73t241.5 -73.5
t92.5 -193.5q0 -100 -64 -168t-184 -91v-59h123z" />
    <glyph glyph-name="fi" unicode="&#xf001;" horiz-adv-x="680" 
d="M185 437q-24 24 -24 52q0 26 17.5 44.5t42.5 18.5q28 0 51 -24l20 -20l25 -25l17 -16l3 -3l4 3l16 17l20 21l24 24q21 21 50 21q25 0 44 -18t19 -44q0 -27 -20 -47l-67 -67l3 -3l16 -16l24 -25l19 -19q25 -25 25 -54q0 -25 -18.5 -41.5t-44.5 -16.5q-17 0 -31.5 8.5
t-43.5 36.5l-19 20l-16 16l-4 3l-3 -3l-16 -15l-20 -20l-21 -21q-28 -27 -54 -27q-25 0 -43 19t-18 45q0 13 6.5 26t15.5 22l22 24l21 21l17 17l4 3z" />
    <glyph glyph-name="fl" unicode="&#xf002;" horiz-adv-x="351" 
d="M148 593h-14q-81 0 -81 39q0 20 34 36t80 16h42q40 0 55 -10t15 -37l-1 -21q-9 -86 -15 -226.5t-6 -305.5q51 -8 68.5 -18.5t17.5 -34.5q0 -37 -56 -37l-19 1h-173q-11 -7 -16 -7q-55 0 -55 30q0 21 12 33t30.5 18t72.5 14z" />
    <glyph glyph-name="periodcentered" unicode="&#x2219;" horiz-adv-x="256" 
d="M195 206q-29 -32 -78 -32q-30 0 -51 21t-21 54q0 10 1.5 14.5t7.5 16.5q9 11 13.5 15.5t20.5 15.5q35 27 62 27q19 0 30 -13t20 -49l9 -35q0 -9 -3.5 -17t-10.5 -18z" />
    <glyph glyph-name="apple" unicode="&#xf000;" horiz-adv-x="891" 
d="M67 322q25 -10 59 -10q27 0 43 4l41 6h2l19 -3v13q0 14 4 31.5t17 51.5t39 34q21 0 21 -25q2 12 11.5 20.5t21.5 8.5t21.5 -9.5t9.5 -22.5l-2 -10q22 12 37 16.5t35 4.5q38 0 82 -15l55 -20l33 -13q62 -24 102 -24q60 0 90 63l21 46l13 13q7 14 7 32v4v5q0 36 20 36l6 -1
l9 -8v-6v-14l1 -22v-7l1 -10l3 -21l2 -14l-1 -7l-5 -22l-5 -23l-1 -5l-1 -42l-3 -8l-9 -20l-12 -27l-1 -6l-5 -28l-4 -19q-1 -7 -12 -22t-31 -30.5t-64 -41.5l-21 -62l-6 -11l-8 -20l-5 -8q-23 -54 -41 -54q-15 0 -22 23q-3 -22 -22 -22q-25 0 -25 23q-3 -9 -9 -18
q-7 -4 -14 -4q-11 0 -18 8t-7 22q0 37 25 61q-10 13 -18 13q-11 0 -30 -22t-41 -50l-6 -8l-3 -4l-2 -4l-2 -2q-13 -15 -23 -15q-12 0 -23 14l-4 6q0 -21 -21 -21q-22 0 -22 22v4q-5 -11 -15 -20l-13 -3q-25 0 -25 31q0 15 11 31.5t28 25.5l9 5q8 4 8 11q0 8 -7 15t-15 7
q-12 0 -43 -19t-57 -19q-29 0 -54 20.5t-33 50.5l-16 -4q-8 -2 -15 -3t-17 -1q-34 0 -55 19t-21 50l1 11h-5q-35 0 -35 54q0 45 42 45zM246 347q0 -33 24 -33q16 0 25 12q10 -21 29 -21q23 0 41 23t18 54l-1 10l-9 3l2 -11q0 -6 -0.5 -8.5t-2.5 -5.5l-11 -13q-3 -2 -9 -2
q-20 0 -20 21q0 8 3 13t12 12l-10 4l-11 1q-9 0 -20 -5l-2 -16q-8 -10 -20 -14q-6 9 -6 17q0 7 5 14l6 7q-19 0 -31 -17t-12 -45zM244 121l4 1l3 1q44 16 54 33l5 10q11 42 11 69q0 19 -9.5 30.5t-26.5 11.5t-29.5 -16.5t-12.5 -39.5v-6l2 -21l3 -30l-2 -12v-6l-2 -10
l-2 -10l-3 -7zM83 274l7 9q0 14 -16 14q-18 0 -32 -9q-8 -8 -8 -14q0 -8 4 -16l11 -5q10 0 20 5l-1 -8l-1 -9v-32l11 -1q25 0 42 17t17 41l-1 14q-10 -4 -21.5 -8t-18.5 -6l-10 -2l-8 -2z" />
    <glyph glyph-name="circumflex" unicode="&#x302;" horiz-adv-x="245" 
d="M118 560l-19 -8l-23 -8q-22 -9 -30.5 -11.5t-15.5 -2.5q-19 0 -32.5 13.5t-13.5 33.5q0 31 29 44l85 34l25 7q3 0 9 -1.5t16 -5.5l84 -33q30 -12 30 -44q0 -20 -14 -34t-34 -14q-10 0 -19.5 3.5t-25.5 10.5l-24 8l-19 8l-4 2z" />
    <glyph glyph-name="tilde" unicode="&#x303;" horiz-adv-x="249" 
d="M-13 579q0 19 13 33t31 14l185 -1q20 0 33 -13t13 -33q0 -18 -13.5 -31.5t-33.5 -13.5h-184q-18 0 -31 13t-13 32z" />
    <glyph glyph-name="macron" unicode="&#x2c9;" horiz-adv-x="245" 
d="M-14 581q0 17 13 31t31 14l185 -1q20 0 33 -13t13 -34q0 -19 -13.5 -31.5t-33.5 -12.5h-184q-19 0 -31.5 13.5t-12.5 33.5z" />
    <glyph glyph-name="glyph207" horiz-adv-x="745" 
d="M400 251q-92 18 -166.5 49t-103 59.5t-50 79t-21.5 98.5q0 45 30 88.5t73.5 77t59.5 44.5t33 22q42 23 92.5 38t91.5 15q49 0 96 -36t104.5 -114.5t57.5 -119.5q0 -26 -12.5 -43.5t-32.5 -17.5q-33 0 -62 36.5t-49.5 94.5t-36 74t-38.5 16q-32 0 -88 -28t-107 -69
t-78.5 -82.5t-27.5 -77.5q0 -26 24 -40t88.5 -22t207.5 -46t186.5 -72t43.5 -85q0 -35 -30.5 -75t-106.5 -81.5t-275 -41.5q-83 0 -138 15t-87 42.5t-48 55.5t-16 52q0 26 13 44t31 18t29.5 -14.5t11.5 -36.5l2 -23q1 -10 16 -21q22 -14 67 -25t84 -11l37 3l103 14
q88 10 114 25l61 32q25 15 25 29q0 7 -5.5 11.5t-20.5 9.5l-37 11zM446 1094l18 3q20 0 34 -14t14 -35q0 -30 -31 -43l-83 -34l-27 -6q-9 0 -24 6l-84 35q-29 13 -29 44q0 20 13.5 33.5t33.5 13.5l18 -3l73 -31z" />
    <glyph glyph-name="glyph208" horiz-adv-x="430" 
d="M48 336q0 59 50.5 101.5t120.5 42.5q46 0 91 -9t52.5 -11.5t20.5 -11t13 -44.5q0 -32 -27 -32q-18 0 -37 6t-46 6q-45 0 -72.5 -17.5t-27.5 -46.5l1 -13q7 -22 23.5 -36.5t102 -66t85.5 -111.5q0 -41 -39 -70t-94 -29q-44 0 -97.5 15t-99 39t-45.5 48q0 11 20 32
q8 6 14 9.5t11 3.5q8 0 21 -12t21.5 -16.5t25 -12t42.5 -14.5t39 -7q38 0 38 23q0 14 -23 38t-53 39l-72 38q-25 14 -42 47.5t-17 71.5zM289 662l18 3q20 0 34 -14t14 -35q0 -30 -31 -43l-83 -34l-27 -6q-9 0 -24 6l-84 35q-29 13 -29 44q0 20 13.5 33.5t33.5 13.5l18 -3
l73 -31z" />
    <glyph glyph-name="glyph209" horiz-adv-x="622" 
d="M155 133q41 0 73 2t90.5 7.5t104 8.5t52.5 3q119 0 119 -71q0 -26 -35 -26l-34 1q-26 0 -177 -23l-215 -33q-22 -4 -47.5 -6t-44.5 -2q-82 0 -82 84q0 19 9.5 46t35.5 58l116 123l185 198l110 112l35 38l-91 -4q-51 0 -114 -3.5t-67 -3.5q-64 0 -101.5 19.5t-37.5 52.5
q0 19 6.5 24.5t29.5 5.5l61 -2q6 -1 26 1t32 3l184 20l157 18q23 0 36.5 -16.5t27.5 -44.5t14 -44q0 -19 -25 -50t-67.5 -68t-75.5 -71t-74 -80l-126 -142q-23 -26 -47.5 -55t-26.5 -31l-35 -49h19zM385 1094l18 3q20 0 34 -14t14 -35q0 -30 -31 -43l-83 -34l-27 -6
q-9 0 -24 6l-84 35q-29 13 -29 44q0 20 13.5 33.5t33.5 13.5l18 -3l73 -31z" />
    <glyph glyph-name="glyph210" horiz-adv-x="424" 
d="M305 122l38 3q51 0 51 -47q0 -34 -35 -34q-46 0 -92.5 -9t-89 -20.5t-54.5 -13.5t-21 -2q-21 0 -45.5 21.5t-24.5 43.5q0 21 17.5 55.5t54.5 86.5t71 101l46 63h-8l-15 1l-92 -3h-8q-63 0 -63 43q0 29 53 40l42 6q136 21 184 21q35 0 56 -15t21 -39q0 -18 -11 -37.5
t-41 -55.5t-60 -81.5t-87 -140.5zM286 662l18 3q20 0 34 -14t14 -35q0 -30 -31 -43l-83 -34l-27 -6q-9 0 -24 6l-84 35q-29 13 -29 44q0 20 13.5 33.5t33.5 13.5l18 -3l73 -31z" />
    <glyph glyph-name="Eurosymbolbar" horiz-adv-x="515" 
d="M0 430h485l30 70h-485zM0 290h425l30 70h-425z" />
    <glyph glyph-name="Euro" horiz-adv-x="768" 
d="M406 83q65 0 137.5 41t110 94t57.5 53q13 0 31 -9t18 -31q0 -42 -65 -108t-140.5 -102t-142.5 -36q-133 0 -216 91t-83 236q0 60 12 124t43.5 154t93 152.5t135.5 62.5q47 0 97.5 -20.5t98.5 -62.5t64.5 -80.5t27.5 -92.5t11 -90q0 -73 -44 -73q-19 0 -41.5 13.5
t-32 30.5t-15.5 51.5t-6 73.5v23l2 47q0 85 -104 85q-69 0 -106 -59t-63 -136t-37 -135.5t-11 -113.5q0 -91 31 -131t110 -50zM21 437h485l30 70h-485zM21 297h425l30 70h-425z" />
    <glyph glyph-name="Euro" unicode="&#x20ac;" horiz-adv-x="768" 
d="M406 83q65 0 137.5 41t110 94t57.5 53q13 0 31 -9t18 -31q0 -42 -65 -108t-140.5 -102t-142.5 -36q-133 0 -216 91t-83 236q0 60 12 124t43.5 154t93 152.5t135.5 62.5q47 0 97.5 -20.5t98.5 -62.5t64.5 -80.5t27.5 -92.5t11 -90q0 -73 -44 -73q-19 0 -41.5 13.5
t-32 30.5t-15.5 51.5t-6 73.5v23l2 47q0 85 -104 85q-69 0 -106 -59t-63 -136t-37 -135.5t-11 -113.5q0 -91 31 -131t110 -50zM21 437h485l30 70h-485zM21 297h425l30 70h-425z" />
    <glyph glyph-name="glyph213" horiz-adv-x="0" 
 />
  </font>
</defs>
</svg>
