<?xml version="1.0" encoding="utf-8"?>
<!-- Generator: Adobe Illustrator 27.1.1, SVG Export Plug-In . SVG Version: 6.00 Build 0)  -->
<svg version="1.1" id="Art" xmlns="http://www.w3.org/2000/svg" xmlns:xlink="http://www.w3.org/1999/xlink" x="0px" y="0px"
	 viewBox="0 0 284 284" style="enable-background:new 0 0 284 284;" xml:space="preserve">
<style type="text/css">
	.st0{fill:#FFFFFF;}
	.st1{fill:#8E6F44;}
	.st2{fill:#AD142D;}
</style>
<circle class="st0" cx="142.5" cy="142.1" r="138.5"/>
<path id="_x3C_Path_x3E_" class="st1" d="M142.5,0.6C64.4,0.6,1,64,1,142.1c0,78.1,63.4,141.5,141.5,141.5
	c78.2,0,141.5-63.4,141.5-141.5C284,64,220.7,0.6,142.5,0.6z M142.5,278.6c-75.4,0-136.5-61.1-136.5-136.5
	C6.1,66.8,67.2,5.7,142.5,5.7C217.9,5.7,279,66.8,279,142.1C279,217.5,217.9,278.6,142.5,278.6z"/>
<path class="st2" d="M137.6,143.5c0.8,3.5,0.3,35.6-0.1,42.6c-0.3,5.8-3.3,7.2-4.3,7.6c-0.9,0.4-5.5,3-6.3-3.9
	c-0.9-7.3,0.2-43.7,0.2-43.7c0.1-2.7,2.9-5.5,5.3-6.2C134.8,139.1,136.9,140.2,137.6,143.5z M189.2,230.8h3.4l0.4-8.3h-4.2
	L189.2,230.8z M168.3,199.9c-0.8-0.2-4.7-1-4.9-1l-0.2,0v9.5l4.3-0.5c0,0,0.4,0,0.4-0.3c0.1-0.3-0.2-0.6-0.5-0.7
	c-0.2-0.1-0.4-0.3-0.6-0.5c-0.8-0.6-1.9-1.4-1.9-2.1c0-0.4,0.5-1.2,3.1-3.1c0.1-0.1,0.2-0.1,0.2-0.1c0.1-0.1,0.6-0.4,0.5-0.7
	C168.7,200.1,168.6,200,168.3,199.9z M168.3,222.2c-0.8-0.2-4.7-1-4.9-1l-0.2,0v9.5l4.3-0.5c0,0,0.4,0,0.4-0.3
	c0.1-0.3-0.2-0.6-0.5-0.7c-0.2-0.1-0.4-0.3-0.6-0.5c-0.8-0.6-1.9-1.4-1.9-2.1c0-0.4,0.5-1.2,3.1-3.1c0.1-0.1,0.2-0.1,0.2-0.1
	c0.1-0.1,0.6-0.4,0.5-0.7C168.7,222.4,168.6,222.3,168.3,222.2z M211.5,159.4C211.5,159.4,211.5,159.4,211.5,159.4
	C211.5,159.4,211.4,159.4,211.5,159.4C211.4,159.4,211.4,159.4,211.5,159.4z M251.9,132.9c-0.3-0.1-0.7-0.2-1.2-0.2l-0.5,0l0,2.3
	l0.8,0c0.5,0,0.9-0.1,1.1-0.3c0.3-0.2,0.4-0.5,0.4-0.9C252.5,133.4,252.3,133.1,251.9,132.9z M257.1,135.1c0.1,1.6-0.5,3-1.6,4.3
	c-1.1,1.2-2.5,1.8-4.1,1.9c-1.6,0.1-3-0.5-4.2-1.6c-1.2-1.1-1.8-2.5-1.9-4.1c-0.1-1.6,0.5-3,1.5-4.2c1.1-1.2,2.5-1.9,4.1-1.9
	c1.6-0.1,3,0.5,4.2,1.6C256.5,132.2,257.1,133.5,257.1,135.1z M254.7,139.3l-0.1-0.2c0-0.1,0-0.2,0-0.2c0-0.1,0-0.2,0-0.2l0-0.7
	c0-0.8-0.2-1.4-0.7-1.8c-0.3-0.2-0.6-0.3-1.2-0.4c0.5-0.1,1-0.2,1.4-0.5c0.4-0.3,0.6-0.8,0.6-1.4c0-0.9-0.4-1.5-1.1-1.9
	c-0.4-0.2-0.9-0.4-1.6-0.4c-0.1,0-1.2,0-2.2,0h-1.7v7.9h2.1v-2.8l0.4,0l0.5,0c0.3,0,0.6,0.1,0.7,0.1c0.3,0.1,0.5,0.3,0.6,0.6
	c0.1,0.2,0.1,0.5,0.1,1c0,0.5,0.1,0.8,0.1,1.1L254.7,139.3L254.7,139.3z M177.2,118.3c-2.4,0.8-5.2,3.5-5.3,6.2
	c0,0-1.1,36.4-0.2,43.7c0.8,6.8,5.4,4.2,6.3,3.9c1-0.4,4-1.8,4.3-7.6c0.3-7.1,0.8-39.1,0.1-42.6
	C181.7,118.6,179.6,117.5,177.2,118.3z M270.8,142.1c0,70.8-57.4,128.3-128.3,128.3S14.3,213,14.3,142.1
	c0-70.8,57.4-128.3,128.3-128.3C213.4,13.9,270.8,71.3,270.8,142.1z M193.2,98.5l1.1-0.5c13.3-6.4,9.3-24.4,9.3-24.6l-0.2-1
	l-10.1,5.3V98.5z M104.7,173.6c-2.2-2.5-5.5-3.9-9.5-3.9c-1.8,0-3.4,0.3-4.6,0.5c2-2.9,6.3-9,11.9-16.5
	c8.9-11.8,16.5-26.7,20.4-39.9c5.1-17.5,3.6-31.4-4.3-40.3c-7.8-8.7-17.5-13.3-28.2-13.3C69,60.3,47,78.6,40.1,102.1
	c-2.8,9.7-5.2,25.5-0.5,46.1c2.8,12.3,7.3,21.3,7.3,21.3s10.1-4.7,12.7-6.4l0.6-0.4l-1.2-2.5c-3.8-6.8-11.2-39.1-8.4-57.8
	c1.7-11.5,7.6-19.2,12.2-23.6c5.9-5.7,11.9-8.2,14.4-8.8c1.3-0.3,3.9-0.7,7.2-0.7c4.2,0,10.3,0.8,15.4,4.5c5.6,4.1,8.9,11,9.7,20.5
	c0.8,9.4-0.9,26.1-13.8,52C88.4,161,80.7,172,78,174.7V89.8l-12.4,6v130.4c0,0,5,0.6,9.2,0.6c3,0,5.3-0.2,6.9-0.7
	c2.5-0.8,4.9-2.1,7.2-3.5c11.1-6.4,16.3-15.1,18.7-31.2C108.8,183.2,107.8,177.2,104.7,173.6z M146.8,133.5c-1.5-1.3-3.8-2-6.7-2
	c-4.3,0-9.7,1.5-14.3,4c-5.2,2.8-8.9,6.6-10.4,10.6c-3.2,8.3-2.6,22.8-2,35.6c0.2,4.6,0.4,8.9,0.4,12.6c0,6,3.1,9.2,8.9,9.2
	c5,0,10.2-2.3,10.5-2.4c14.8-6.2,16.2-15.9,16.3-16.7C152.3,170.2,153.2,139,146.8,133.5z M174,226.5c0.7-0.4,3.7-2.4,3.7-5.1
	c0-3-1.8-4-3.6-4h-19.2l0,17.1c0,0,17.7,0,19.3,0c1.6,0,3.2-0.9,3.2-3.5C177.4,228.4,174,226.5,174,226.5z M177.7,199.1
	c0-3-1.8-4-3.6-4h-19.2l0,17.1c0,0,17.7,0,19.3,0c1.6,0,3.2-0.9,3.2-3.5c0-2.6-3.4-4.5-3.4-4.5C174.7,203.7,177.7,201.7,177.7,199.1
	z M178.2,179.3c7.9-3.3,11.9-7.6,13.9-10.7c2.1-3.2,2.4-5.6,2.5-6c2.9-14.2,3.7-45.3-2.7-50.8c-1.5-1.3-3.8-1.9-6.7-1.9
	c-4.3,0-9.5,1.4-14.1,3.9V30.6l-12.8,6.3v142.5c0,0,4.2,1.7,6.1,2c1,0.3,2.1,0.4,3.4,0.4C172.8,181.7,178,179.4,178.2,179.3z
	 M184.9,195.1l0.8,17.1h8l0.8-17.1H184.9z M201.1,220.4c-0.1-2.8-3.2-2.9-3.2-2.9h-14.2c0,0-3.1,0.1-3.1,2.9
	c-0.1,2.3,0.3,9.7,0.5,10.8c0,0,0.3,3.4,2.9,3.4h13.7c2.6,0,2.9-3.4,2.9-3.4C200.8,230.1,201.2,222.6,201.1,220.4z M202.3,208.8
	c0,0,0.3,3.4,2.9,3.4c2.6,0,16.5,0,16.5,0s2-0.9,2.2-2.8c0.1-1.9,0.3-5.9,0.3-5.9s0-0.9-2-0.9c-2.1,0-6.1,0-6.1,0l-0.9,5.3h-4.4
	l-0.3-8.2l13.9,0l0.2-3.5c0,0,0-1.1-1-1.1s-18.5,0-18.5,0s-3.1,0.1-3.2,2.9C201.8,200.3,202.2,207.7,202.3,208.8z M226.2,217.4h-5.8
	c0,0-3.5,4.3-3.6,4.5c-0.2,0.2-0.3,0.2-0.4,0c-0.1-0.2-3.3-4.5-3.3-4.5h-10l8.3,11.3l-4.8,5.9h5.8l1.7-2.1l5.2-6.5L226.2,217.4z
	 M225,103.2L225,103.2l-0.7,9.8l0.9-0.1c0.1,0,13.6-1.6,13.6-14.4c0-8.8-4.8-10.7-8.8-10.7c-3,0-6.7,1-11,3
	c-5.6,2.6-9.6,5.4-12.6,8.7c-3.7,4.3-5.6,9.5-5.6,15.7c0,11.1,2.9,12.2,10.2,13.8c1.3,0.3,5.9,1.5,6.7,1.7c3.5,0.9,5.5,1.4,6.4,2.5
	c0.9,1,1.1,2.8,1.1,6.4c0,8.8-0.4,9-5.6,11.6c-0.8,0.4-1.4,0.6-2,0.6c-3.1,0-3.4-7.2-3.4-16.6v-1l-0.9,0.2c-0.1,0-3.5,0.8-6.7,3.2
	c-3,2.3-6.3,6.4-5.2,13.3c1,6.1,4.4,9.3,9.9,9.3c3.4,0,9.4-2,9.4-2c6.2-2.1,18-9.5,18-22.9c0-13.9-5.9-15.3-12.2-16.8
	c-0.4-0.1-3.4-0.7-4.4-0.9c-4.8-0.8-7.8-1.3-7.8-9.7c0-10,5.3-10.7,5.6-10.7c0,0,1.2-0.4,2.3-0.4c1,0,1.7,0.3,2.2,0.9
	C225.4,98.6,225.3,100.2,225,103.2C224.7,108.1,225,103.2,225,103.2z M256.5,140.3c1.4-1.5,2-3.2,1.9-5.2c-0.1-2-0.8-3.6-2.3-5
	c-1.5-1.3-3.2-2-5.1-1.9c-1.9,0.1-3.5,0.8-4.8,2.1c-1.4,1.4-2.1,3.2-2,5.3c0.1,2,0.8,3.7,2.3,5c1.4,1.3,3.2,1.9,5.2,1.9
	C253.5,142.4,255.1,141.7,256.5,140.3z M88.9,180.3c-4.1,0-9.1,3.1-10.4,4v30.7c1.9,0.6,3.7,1,5.3,1c7.4,0,9.5-6.8,9.6-7.1
	c0-0.1,3.1-10.4,1.1-23C93.8,182.2,92,180.3,88.9,180.3z"/>
</svg>
