<?xml version="1.0" encoding="utf-8"?>
<!-- Generator: Adobe Illustrator 16.0.0, SVG Export Plug-In . SVG Version: 6.00 Build 0)  -->
<!DOCTYPE svg PUBLIC "-//W3C//DTD SVG 1.1//EN" "http://www.w3.org/Graphics/SVG/1.1/DTD/svg11.dtd">
<svg version="1.1" id="Art" xmlns="http://www.w3.org/2000/svg" xmlns:xlink="http://www.w3.org/1999/xlink" x="0px" y="0px"
	 width="284px" height="284px" viewBox="0 0 284 284" enable-background="new 0 0 284 284" xml:space="preserve">
<circle fill="#FFFFFF" cx="142.528" cy="142.142" r="138.477"/>
<path id="_x3C_Path_x3E_" fill="#B69365" d="M142.527,0.643c-78.146,0-141.499,63.352-141.499,141.5
	c0,78.147,63.353,141.5,141.499,141.5c78.15,0,141.5-63.353,141.5-141.5C284.027,63.995,220.678,0.643,142.527,0.643z
	 M142.527,278.619c-75.373,0-136.475-61.104-136.475-136.476c0-75.375,61.102-136.478,136.475-136.478
	c75.376,0,136.479,61.103,136.479,136.478C279.006,217.515,217.903,278.619,142.527,278.619z"/>
<path fill="#EC1A3B" d="M137.56,143.451c0.753,3.502,0.254,35.571-0.064,42.635c-0.26,5.785-3.31,7.158-4.263,7.605
	c-0.851,0.396-5.467,2.982-6.3-3.852c-0.891-7.317,0.19-43.715,0.19-43.715c0.127-2.736,2.864-5.475,5.282-6.239
	C134.822,139.124,136.86,140.205,137.56,143.451z M189.246,230.781h3.378l0.401-8.326h-4.184L189.246,230.781z M168.301,199.883
	c-0.828-0.221-4.728-0.967-4.895-0.999l-0.203-0.04v9.498l4.345-0.523c0.037-0.003,0.357-0.032,0.435-0.281
	c0.084-0.274-0.216-0.557-0.451-0.744c-0.172-0.137-0.384-0.29-0.611-0.453c-0.814-0.582-1.931-1.38-1.931-2.131
	c0-0.387,0.53-1.236,3.062-3.099c0.098-0.071,0.168-0.125,0.182-0.137c0.137-0.081,0.58-0.369,0.534-0.7
	C168.743,200.09,168.586,199.96,168.301,199.883z M168.301,222.201c-0.828-0.22-4.728-0.967-4.895-1l-0.203-0.039v9.498l4.345-0.521
	c0.037-0.004,0.357-0.034,0.435-0.282c0.084-0.274-0.216-0.557-0.451-0.745c-0.172-0.137-0.385-0.289-0.611-0.452
	c-0.814-0.583-1.931-1.38-1.931-2.131c0-0.386,0.53-1.235,3.056-3.097c0.102-0.074,0.174-0.127,0.188-0.139
	c0.137-0.082,0.58-0.369,0.534-0.7C168.743,222.41,168.586,222.279,168.301,222.201z M211.455,159.42
	c0.027,0,0.059-0.004,0.087-0.004c-0.051,0-0.099,0.002-0.148,0.002C211.414,159.418,211.435,159.42,211.455,159.42z
	 M251.869,132.938c-0.288-0.109-0.689-0.17-1.212-0.167l-0.518-0.006l0.001,2.29l0.811,0.005c0.488,0,0.872-0.096,1.146-0.287
	c0.276-0.192,0.411-0.504,0.412-0.935C252.513,133.406,252.299,133.106,251.869,132.938z M257.138,135.112
	c0.062,1.63-0.453,3.046-1.557,4.259c-1.1,1.204-2.46,1.834-4.077,1.896c-1.625,0.063-3.03-0.461-4.221-1.567
	c-1.199-1.111-1.827-2.488-1.895-4.136c-0.061-1.587,0.455-2.984,1.545-4.188c1.106-1.227,2.476-1.874,4.112-1.936
	c1.619-0.062,3.024,0.477,4.224,1.617C256.456,132.178,257.076,133.53,257.138,135.112z M254.667,139.265l-0.052-0.211
	c-0.024-0.079-0.038-0.158-0.046-0.234c-0.009-0.078-0.018-0.156-0.016-0.233l-0.002-0.713c-0.003-0.822-0.243-1.412-0.72-1.773
	c-0.26-0.201-0.644-0.344-1.155-0.446c0.545-0.058,1.01-0.235,1.382-0.538c0.374-0.292,0.562-0.775,0.561-1.441
	c-0.004-0.872-0.356-1.498-1.064-1.881c-0.414-0.224-0.938-0.359-1.568-0.402c-0.062-0.001-1.165-0.005-2.181-0.008h-1.653v7.882
	h2.061v-2.808l0.429,0.002l0.458,0.025c0.316,0.017,0.56,0.063,0.714,0.125c0.284,0.111,0.479,0.308,0.585,0.589
	c0.064,0.172,0.111,0.499,0.139,0.984c0.026,0.466,0.072,0.83,0.138,1.083L254.667,139.265L254.667,139.265z M177.203,118.251
	c-2.417,0.763-5.154,3.5-5.281,6.235c0,0-1.082,36.399-0.189,43.718c0.833,6.834,5.448,4.247,6.298,3.852
	c0.955-0.447,4.004-1.821,4.264-7.605c0.318-7.064,0.818-39.133,0.063-42.637C181.658,118.568,179.623,117.486,177.203,118.251z
	 M270.786,142.142c0,70.835-57.422,128.259-128.257,128.259c-70.835,0-128.259-57.422-128.259-128.259
	c0-70.835,57.423-128.257,128.259-128.257C213.364,13.885,270.786,71.307,270.786,142.142z M193.246,98.475l1.097-0.532
	c13.274-6.43,9.31-24.423,9.268-24.604l-0.222-0.964l-10.143,5.298V98.475z M104.736,173.595c-2.191-2.534-5.491-3.874-9.544-3.874
	c-1.802,0-3.439,0.257-4.645,0.52c1.958-2.854,6.265-9.038,11.863-16.475c8.896-11.812,16.515-26.719,20.381-39.874
	c5.128-17.45,3.646-31.381-4.285-40.289c-7.756-8.71-17.506-13.313-28.196-13.313c-21.267-0.001-43.31,18.352-50.185,41.782
	c-2.837,9.67-5.225,25.517-0.489,46.096c2.83,12.299,7.31,21.337,7.31,21.337s10.093-4.716,12.714-6.386l0.624-0.396l-1.223-2.479
	c-3.783-6.824-11.193-39.122-8.394-57.843c1.718-11.491,7.556-19.182,12.152-23.612c5.935-5.721,11.86-8.199,14.425-8.76
	c1.266-0.277,3.885-0.743,7.206-0.743c4.213,0,10.299,0.786,15.368,4.531c5.614,4.145,8.879,11.038,9.708,20.486
	c0.827,9.432-0.897,26.116-13.814,52.04c-7.281,14.616-15.02,25.68-17.666,28.349V89.803l-12.395,5.966v130.362
	c0,0,4.987,0.578,9.235,0.578c3.011,0,5.317-0.245,6.851-0.728c2.475-0.78,4.926-2.134,7.222-3.453
	c11.082-6.353,16.314-15.093,18.662-31.177C108.819,183.168,107.848,177.192,104.736,173.595z M146.81,133.507
	c-1.476-1.276-3.806-1.951-6.737-1.951c-4.346,0-9.674,1.479-14.253,3.957c-5.175,2.799-8.87,6.556-10.404,10.577
	c-3.173,8.305-2.568,22.792-2.033,35.575c0.19,4.552,0.37,8.854,0.37,12.595c0,5.999,3.089,9.17,8.934,9.17
	c4.99,0,10.236-2.34,10.458-2.437c14.787-6.194,16.243-15.862,16.339-16.678C152.348,170.154,153.188,139.002,146.81,133.507z
	 M173.986,226.491c0.693-0.429,3.728-2.447,3.728-5.076c0-2.967-1.807-3.999-3.612-3.999h-19.157l-0.027,17.109
	c0,0,17.709,0,19.293,0c1.586,0,3.171-0.905,3.171-3.507C177.381,228.424,174.006,226.501,173.986,226.491z M177.716,199.096
	c0-2.968-1.808-3.998-3.614-3.998h-19.156l-0.028,17.109c0,0,17.71,0,19.294,0c1.585,0,3.17-0.904,3.17-3.509
	c0-2.596-3.375-4.517-3.395-4.528C174.682,203.743,177.716,201.726,177.716,199.096z M178.228,179.258
	c7.852-3.288,11.872-7.617,13.859-10.668c2.062-3.169,2.433-5.644,2.479-6.008c2.859-14.159,3.701-45.315-2.673-50.81
	c-1.479-1.275-3.809-1.948-6.734-1.948c-4.345,0-9.515,1.428-14.066,3.855v-83.11l-12.795,6.279v142.454
	c0,0,4.202,1.731,6.122,1.958c0.992,0.287,2.117,0.434,3.351,0.434C172.76,181.693,178.006,179.357,178.228,179.258z
	 M184.881,195.085l0.828,17.125h7.961l0.83-17.125H184.881z M201.147,220.358c-0.07-2.773-3.152-2.919-3.152-2.919h-14.187
	c0,0-3.082,0.146-3.15,2.919c-0.059,2.281,0.348,9.724,0.484,10.779c0.005,0.041,0.315,3.446,2.932,3.446h13.654
	c2.618,0,2.927-3.405,2.933-3.446C200.8,230.082,201.206,222.64,201.147,220.358z M202.306,208.79
	c0.006,0.043,0.313,3.446,2.932,3.446c2.575,0,16.505,0,16.505,0s2.027-0.886,2.154-2.827c0.125-1.94,0.295-5.869,0.295-5.869
	s0.041-0.886-2.026-0.886c-2.069,0-6.122,0-6.122,0l-0.93,5.276h-4.431l-0.253-8.188l13.896-0.002l0.193-3.521
	c0,0,0.035-1.121-1.02-1.121s-18.532-0.007-18.532-0.007s-3.081,0.146-3.151,2.921C201.76,200.292,202.166,207.734,202.306,208.79z
	 M226.198,217.391h-5.826c0,0-3.473,4.338-3.64,4.535c-0.162,0.197-0.265,0.201-0.396,0c-0.148-0.205-3.341-4.535-3.341-4.535
	h-9.965l8.3,11.264l-4.759,5.93h5.826l1.721-2.146l5.195-6.471L226.198,217.391z M225.048,103.198l-0.004,0.042l-0.663,9.766
	l0.906-0.1c0.135-0.015,13.562-1.63,13.562-14.443c0-8.836-4.801-10.691-8.827-10.691c-2.991,0-6.68,0.994-10.971,2.952
	c-5.649,2.58-9.65,5.358-12.586,8.747c-3.748,4.325-5.568,9.458-5.568,15.694c0,11.127,2.943,12.217,10.199,13.812
	c1.265,0.278,5.92,1.46,6.655,1.652c3.542,0.93,5.493,1.443,6.432,2.496c0.91,1.024,1.066,2.799,1.066,6.392
	c0,8.787-0.427,9-5.619,11.595c-0.767,0.385-1.435,0.579-1.984,0.579c-3.104,0-3.351-7.196-3.351-16.601v-0.957l-0.934,0.212
	c-0.143,0.033-3.518,0.819-6.683,3.233c-2.965,2.26-6.271,6.409-5.17,13.329c0.962,6.068,4.402,9.277,9.944,9.277
	c3.363,0,9.362-2.029,9.362-2.029c6.237-2.077,18.032-9.53,18.032-22.861c0-13.921-5.915-15.314-12.18-16.788
	c-0.358-0.083-3.352-0.729-4.414-0.911c-4.839-0.828-7.758-1.328-7.758-9.673c0-9.969,5.326-10.687,5.553-10.713
	c0,0,1.195-0.43,2.292-0.43c0.974,0,1.711,0.294,2.194,0.874c0.819,0.985,0.722,2.536,0.519,5.501
	C224.72,108.116,225.048,103.198,225.048,103.198z M256.473,140.26c1.378-1.452,2.023-3.19,1.946-5.221
	c-0.076-1.974-0.84-3.633-2.294-4.977c-1.452-1.346-3.162-1.978-5.137-1.901c-1.881,0.072-3.501,0.779-4.847,2.13
	c-1.434,1.442-2.111,3.209-2.032,5.301c0.078,2.013,0.836,3.683,2.264,5.005c1.433,1.324,3.153,1.95,5.168,1.872
	C253.489,142.394,255.133,141.655,256.473,140.26z M88.874,180.315c-4.093,0-9.064,3.146-10.354,4.014v30.722
	c1.901,0.65,3.685,0.98,5.308,0.98c7.422,0,9.48-6.803,9.567-7.105c0.031-0.103,3.142-10.438,1.05-22.995
	C93.813,182.152,91.992,180.315,88.874,180.315z"/>
</svg>
