<?xml version="1.0" encoding="utf-8"?>
<!-- Generator: Adobe Illustrator 16.0.0, SVG Export Plug-In . SVG Version: 6.00 Build 0)  -->
<!DOCTYPE svg PUBLIC "-//W3C//DTD SVG 1.1//EN" "http://www.w3.org/Graphics/SVG/1.1/DTD/svg11.dtd">
<svg version="1.1" id="Art" xmlns="http://www.w3.org/2000/svg" xmlns:xlink="http://www.w3.org/1999/xlink" x="0px" y="0px"
	 width="180px" height="180px" viewBox="0 0 180 180" enable-background="new 0 0 180 180" xml:space="preserve">
<path id="ring_3_" fill="#FFFFFF" d="M89.499,0C40.07,0,0,40.071,0,89.5C0,138.929,40.07,179,89.499,179
	C138.93,179,179,138.929,179,89.5C179,40.071,138.93,0,89.499,0z M89.499,175.823c-47.674,0-86.322-38.649-86.322-86.323
	c0-47.675,38.648-86.323,86.322-86.323c47.675,0,86.323,38.648,86.323,86.323C175.822,137.174,137.174,175.823,89.499,175.823z"/>
<circle id="dot_3_" fill="none" stroke="#FFFFFF" stroke-width="3" stroke-miterlimit="10" cx="89.355" cy="89.5" r="81.124"/>
<path id="Bob_x27_s_3_" fill="#FFFFFF" d="M59.415,106.943c-1.14,0-2.176,0.163-2.938,0.329c1.238-1.807,3.962-5.717,7.503-10.42
	c5.627-7.472,10.446-16.9,12.892-25.22c3.244-11.037,2.307-19.849-2.71-25.483c-4.905-5.509-11.073-8.421-17.835-8.421
	c-13.451-0.001-27.394,11.608-31.742,26.427c-1.795,6.117-3.306,16.14-0.31,29.156c1.79,7.778,4.625,13.496,4.625,13.496
	s6.384-2.983,8.042-4.039l0.394-0.252l-0.773-1.568c-2.393-4.315-7.08-24.744-5.309-36.585c1.087-7.269,4.779-12.134,7.687-14.936
	c3.754-3.619,7.501-5.186,9.124-5.541c0.8-0.175,2.457-0.469,4.558-0.469c2.665,0,6.514,0.497,9.72,2.866
	c3.551,2.622,5.617,6.982,6.141,12.958c0.523,5.966-0.568,16.518-8.738,32.914c-4.606,9.245-9.5,16.243-11.174,17.931V56.394
	l-7.84,3.775v82.454c0,0,3.155,0.365,5.841,0.365c1.905,0,3.363-0.154,4.334-0.46c1.565-0.494,3.115-1.349,4.567-2.184
	c7.009-4.018,10.319-9.547,11.804-19.72c0.756-5.177,0.142-8.955-1.827-11.23C64.066,107.791,61.979,106.943,59.415,106.943z
	 M58.277,131.741c-0.056,0.192-1.357,4.494-6.051,4.494c-1.026,0-2.155-0.209-3.357-0.62v-19.432c0.816-0.548,3.96-2.539,6.55-2.539
	c1.973,0,3.125,1.162,3.523,3.552C60.265,125.14,58.297,131.676,58.277,131.741z M122.127,61.544l-0.691,0.336V48.723l6.414-3.352
	l0.139,0.61C128.016,46.096,130.523,57.477,122.127,61.544z M141.555,64.84c0.127-1.876,0.189-2.857-0.328-3.48
	c-0.307-0.367-0.773-0.553-1.389-0.553c-0.693,0-1.449,0.272-1.449,0.272c-0.143,0.017-3.514,0.47-3.514,6.776
	c0,5.279,1.848,5.594,4.908,6.118c0.67,0.115,2.564,0.522,2.791,0.576c3.963,0.932,7.705,1.813,7.705,10.618
	c0,8.431-7.461,13.146-11.406,14.46c0,0-3.793,1.283-5.922,1.283c-3.506,0-5.682-2.029-6.289-5.867
	c-0.697-4.378,1.393-7.001,3.27-8.431c2-1.526,4.137-2.023,4.227-2.045l0.59-0.134v0.605c0,5.949,0.156,10.5,2.119,10.5
	c0.348,0,0.77-0.123,1.256-0.366c3.283-1.642,3.553-1.776,3.553-7.334c0-2.272-0.098-3.395-0.674-4.042
	c-0.594-0.667-1.828-0.991-4.068-1.579c-0.465-0.121-3.41-0.869-4.209-1.045c-4.59-1.008-6.451-1.698-6.451-8.736
	c0-3.944,1.152-7.191,3.521-9.927c1.857-2.143,4.387-3.901,7.961-5.533c2.713-1.239,5.047-1.867,6.939-1.867
	c2.547,0,5.584,1.173,5.584,6.762c0,8.104-8.494,9.126-8.58,9.136l-0.572,0.062l0.42-6.177l0.002-0.027
	C141.549,64.868,141.342,67.978,141.555,64.84z M116.32,69.058c-2.748,0-6.02,0.903-8.896,2.439V18.929l-8.094,3.972v90.103
	c0,0,2.658,1.096,3.873,1.238c0.627,0.182,1.338,0.273,2.119,0.273c3.154,0,6.473-1.478,6.611-1.54
	c4.969-2.08,7.51-4.818,8.768-6.748c1.305-2.004,1.539-3.569,1.568-3.8c1.809-8.956,2.34-28.663-1.689-32.138
	C119.643,69.484,118.17,69.058,116.32,69.058z M114.508,103.609c-0.166,3.659-2.094,4.528-2.697,4.811
	c-0.537,0.251-3.457,1.887-3.984-2.436c-0.564-4.629,0.119-27.652,0.119-27.652c0.082-1.73,1.812-3.461,3.342-3.944
	c1.529-0.483,2.818,0.201,3.26,2.254C115.025,78.858,114.709,99.142,114.508,103.609z M87.802,82.805
	c-2.749,0-6.119,0.936-9.015,2.502c-3.274,1.771-5.611,4.147-6.581,6.69c-2.007,5.253-1.624,14.417-1.286,22.501
	c0.12,2.88,0.234,5.6,0.234,7.966c0,3.796,1.954,5.801,5.651,5.801c3.156,0,6.475-1.479,6.614-1.541
	c9.352-3.918,10.274-10.033,10.334-10.549c1.812-8.957,2.344-28.661-1.691-32.137C91.129,83.231,89.656,82.805,87.802,82.805z
	 M86.172,117.294c-0.165,3.66-2.093,4.528-2.697,4.811c-0.538,0.251-3.458,1.887-3.984-2.436c-0.564-4.629,0.12-27.651,0.12-27.651
	c0.081-1.73,1.812-3.461,3.341-3.944c1.529-0.482,2.817,0.201,3.26,2.254C86.689,92.543,86.374,112.826,86.172,117.294z
	 M133.006,100.426c-0.031,0-0.062,0.001-0.094,0.001c0.014,0,0.025,0.001,0.039,0.001
	C132.969,100.428,132.988,100.426,133.006,100.426z M56.396,38.213c-0.023,0-0.045-0.002-0.069-0.002
	c-0.061,0-0.122,0.004-0.183,0.005C56.229,38.215,56.312,38.213,56.396,38.213z"/>
<path id="_xAE__3_" fill="#FFFFFF" d="M161.205,81.861c-0.918-0.853-1.998-1.252-3.248-1.204c-1.189,0.046-2.215,0.494-3.066,1.347
	c-0.906,0.912-1.336,2.03-1.285,3.353c0.049,1.273,0.529,2.329,1.432,3.167c0.906,0.836,1.996,1.232,3.27,1.184
	c1.23-0.049,2.271-0.516,3.119-1.398c0.871-0.917,1.279-2.017,1.23-3.302C162.609,83.759,162.125,82.71,161.205,81.861z
	 M160.861,87.748c-0.695,0.761-1.555,1.159-2.578,1.199c-1.027,0.04-1.918-0.292-2.67-0.991c-0.758-0.702-1.156-1.573-1.197-2.616
	c-0.039-1.004,0.287-1.887,0.977-2.648c0.699-0.776,1.566-1.186,2.602-1.226c1.023-0.039,1.912,0.302,2.67,1.023
	c0.752,0.708,1.145,1.563,1.182,2.564C161.887,86.085,161.559,86.98,160.861,87.748z M160.223,87.397
	c-0.006-0.049-0.012-0.098-0.01-0.147l-0.002-0.451c-0.002-0.52-0.152-0.893-0.455-1.121c-0.164-0.127-0.406-0.218-0.73-0.282
	c0.346-0.036,0.639-0.149,0.875-0.34c0.236-0.185,0.355-0.49,0.354-0.911c-0.002-0.552-0.227-0.948-0.674-1.19
	c-0.262-0.142-0.594-0.228-0.992-0.255c-0.039-0.001-0.736-0.003-1.381-0.005h-1.045v4.985h1.305v-1.775l0.27,0.001l0.291,0.016
	c0.201,0.011,0.354,0.041,0.451,0.078c0.18,0.07,0.303,0.195,0.371,0.373c0.039,0.108,0.068,0.316,0.086,0.622
	c0.018,0.296,0.047,0.525,0.088,0.686h1.26l-0.031-0.134C160.236,87.496,160.227,87.446,160.223,87.397z M158.658,84.839
	c-0.174,0.122-0.414,0.183-0.725,0.183l-0.514-0.004v-1.448l0.328,0.003c0.33-0.002,0.584,0.037,0.766,0.105
	c0.271,0.107,0.408,0.297,0.406,0.57C158.92,84.521,158.834,84.718,158.658,84.839z"/>
<path id="BIG_BOY_3_" fill="#FFFFFF" d="M111.609,139.641c0-1.876-1.143-2.529-2.285-2.529H97.209l-0.018,10.822
	c0,0,11.201,0,12.203,0s2.004-0.573,2.004-2.219c0-1.643-2.135-2.857-2.146-2.863C109.691,142.58,111.609,141.303,111.609,139.641z
	 M105.613,140.827c-0.01,0.009-0.055,0.042-0.119,0.089c-1.598,1.177-1.934,1.715-1.934,1.958c0,0.476,0.707,0.979,1.221,1.348
	c0.145,0.104,0.279,0.2,0.389,0.287c0.148,0.119,0.338,0.297,0.285,0.471c-0.049,0.157-0.252,0.177-0.275,0.179l-2.748,0.33v-6.008
	l0.129,0.025c0.105,0.02,2.572,0.493,3.096,0.633c0.18,0.048,0.279,0.131,0.295,0.246
	C105.98,140.594,105.699,140.776,105.613,140.827z M109.324,122.994H97.209l-0.018,10.822c0,0,11.201,0,12.203,0
	s2.004-0.572,2.004-2.219c0-1.643-2.135-2.857-2.146-2.864c0.439-0.271,2.357-1.548,2.357-3.21
	C111.609,123.646,110.467,122.994,109.324,122.994z M105.613,126.711c-0.01,0.008-0.053,0.04-0.115,0.087
	c-1.602,1.177-1.938,1.715-1.938,1.959c0,0.475,0.707,0.979,1.221,1.349c0.145,0.104,0.279,0.199,0.389,0.286
	c0.148,0.119,0.338,0.297,0.285,0.471c-0.049,0.156-0.252,0.177-0.275,0.178l-2.748,0.331v-6.007l0.129,0.024
	c0.105,0.021,2.572,0.493,3.096,0.633c0.18,0.048,0.279,0.131,0.295,0.246C105.98,126.478,105.699,126.659,105.613,126.711z
	 M116.666,133.818l-0.523-10.832h6.084l-0.523,10.832H116.666z M127.164,131.655c-0.088-0.669-0.344-5.376-0.309-6.817
	c0.045-1.754,1.994-1.848,1.994-1.848s11.053,0.005,11.721,0.005s0.645,0.709,0.645,0.709l-0.121,2.228l-8.789,0.001l0.158,5.179
	h2.805l0.588-3.337c0,0,2.562,0,3.871,0c1.307,0,1.281,0.561,1.281,0.561s-0.107,2.483-0.188,3.711
	c-0.078,1.229-1.361,1.789-1.361,1.789s-8.811,0-10.439,0C127.363,133.835,127.168,131.682,127.164,131.655z M142.277,137.095
	l-4.355,5.425l-3.285,4.094l-1.09,1.356h-3.686l3.012-3.751l-5.25-7.124h6.303c0,0,2.02,2.739,2.113,2.868
	c0.084,0.127,0.146,0.125,0.25,0c0.105-0.124,2.303-2.868,2.303-2.868H142.277z M124.438,137.125h-8.973
	c0,0-1.949,0.093-1.994,1.847c-0.035,1.443,0.221,6.15,0.309,6.818c0.002,0.026,0.199,2.18,1.854,2.18h8.637
	c1.656,0,1.852-2.153,1.855-2.18c0.086-0.668,0.344-5.375,0.307-6.818C126.389,137.218,124.438,137.125,124.438,137.125z
	 M121.039,145.564h-2.135l-0.256-5.268h2.646L121.039,145.564z"/>
</svg>
